<svg width="40" height="41" viewBox="0 0 40 41" fill="none" xmlns="http://www.w3.org/2000/svg">
<path fill-rule="evenodd" clip-rule="evenodd" d="M20 0.0078125C31.0465 0.0078125 40 8.96134 40 20.0078C40 31.0543 31.0465 40.0078 20 40.0078C8.95353 40.0078 0 31.0543 0 20.0078C0 8.96134 8.95353 0.0078125 20 0.0078125Z" fill="#F0B90B"/>
<path d="M10.992 20.0077L11.0064 25.2961L15.5 27.9404V31.0365L8.3766 26.8586V18.4612L10.992 20.0077ZM10.992 14.7192V17.8009L8.375 16.2529V13.1711L10.992 11.623L13.6218 13.1711L10.992 14.7192ZM17.3766 13.1711L19.9936 11.623L22.6234 13.1711L19.9936 14.7192L17.3766 13.1711Z" fill="white"/>
<path d="M12.8828 24.2V21.1038L15.4998 22.6519V25.7336L12.8828 24.2ZM17.3764 29.0493L19.9934 30.5974L22.6232 29.0493V32.1311L19.9934 33.6791L17.3764 32.1311V29.0493ZM26.3764 13.1711L28.9934 11.623L31.6232 13.1711V16.2529L28.9934 17.8009V14.7192L26.3764 13.1711ZM28.9934 25.2961L29.0078 20.0077L31.6248 18.4596V26.857L24.5014 31.0349V27.9388L28.9934 25.2961Z" fill="white"/>
<path d="M27.117 24.1997L24.5 25.7333V22.6516L27.117 21.1035V24.1997Z" fill="white"/>
<path d="M27.1168 15.8151L27.1312 18.9113L22.6248 21.5555V26.8568L20.0078 28.3904L17.3908 26.8568V21.5555L12.8844 18.9113V15.8151L15.5126 14.267L19.9918 16.9241L24.4982 14.267L27.128 15.8151H27.1168ZM12.8828 10.5282L19.9934 6.33594L27.1168 10.5282L24.4998 12.0763L19.9934 9.41927L15.4998 12.0763L12.8828 10.5282Z" fill="white"/>
</svg>
