<svg width="40" height="40" viewBox="0 0 40 40" fill="none" xmlns="http://www.w3.org/2000/svg">
<path d="M39.4014 24.8382C36.7298 35.5525 25.8768 42.0731 15.16 39.4012C4.44764 36.73 -2.07368 25.8776 0.599102 15.164C3.26939 4.44845 14.1224 -2.07273 24.8361 0.598491C35.5522 3.26971 42.0729 14.1234 39.4014 24.8382Z" fill="#F7931A"/>
<path d="M28.8202 17.1505C29.2183 14.4893 27.1919 13.0587 24.4209 12.1043L25.3198 8.49936L23.1252 7.95249L22.2501 11.4625C21.6731 11.3187 21.0806 11.1831 20.4918 11.0487L21.3731 7.51562L19.1798 6.96875L18.2803 10.5725C17.8027 10.4637 17.3339 10.3562 16.8789 10.2431L16.8814 10.2318L13.8548 9.47622L13.271 11.82C13.271 11.82 14.8993 12.1931 14.8649 12.2162C15.7538 12.4381 15.9144 13.0262 15.8875 13.4924L14.8637 17.5993C14.9249 17.6149 15.0043 17.6374 15.0918 17.6724C15.0187 17.6543 14.9406 17.6343 14.8599 17.6149L13.4248 23.368C13.316 23.638 13.0404 24.043 12.419 23.8892C12.4409 23.9211 10.8239 23.4911 10.8239 23.4911L9.73438 26.0029L12.5903 26.7148C13.1216 26.8479 13.6423 26.9873 14.1548 27.1185L13.2466 30.7648L15.4387 31.3116L16.3382 27.7042C16.937 27.8667 17.5183 28.0167 18.0871 28.1579L17.1908 31.7485L19.3854 32.2954L20.2936 28.656C24.0359 29.3641 26.8499 29.0785 28.0344 25.6942C28.9889 22.9692 27.9869 21.3974 26.018 20.3724C27.4519 20.0417 28.532 19.0986 28.8202 17.1505ZM23.8059 24.1811C23.1277 26.906 18.5391 25.4329 17.0514 25.0636L18.2565 20.233C19.7442 20.6042 24.5147 21.3392 23.8059 24.1811ZM24.4847 17.1111C23.8659 19.5899 20.0467 18.3305 18.8078 18.0218L19.9005 13.6406C21.1393 13.9493 25.1291 14.5255 24.4847 17.1111Z" fill="white"/>
</svg>
