<svg width="40" height="41" viewBox="0 0 40 41" fill="none" xmlns="http://www.w3.org/2000/svg">
<path d="M20 0.00292969C31.0442 0.00292969 40 8.95872 40 20.0029C40 31.0471 31.0442 40.0029 20 40.0029C8.95579 40.0029 0 31.0471 0 20.0029C0 8.95872 8.95579 0.00292969 20 0.00292969Z" fill="#0033AD"/>
<path d="M13.8938 19.9692C13.8348 20.9713 14.6054 21.8303 15.6075 21.885C15.6454 21.885 15.6791 21.885 15.717 21.885C16.7275 21.885 17.5401 21.0724 17.5317 20.0619C17.5317 19.0513 16.7191 18.2387 15.7085 18.2471C14.7443 18.2429 13.9443 19.0008 13.8938 19.9692Z" fill="white"/>
<path d="M7.1077 19.4973C6.78349 19.4763 6.50138 19.7289 6.48875 20.0531C6.47612 20.3773 6.72033 20.6594 7.04454 20.6721C7.36875 20.6931 7.64244 20.4405 7.66349 20.1163C7.68454 19.7921 7.43191 19.5184 7.1077 19.4973Z" fill="white"/>
<path d="M13.7822 9.40068C14.0685 9.25753 14.1864 8.89542 14.0433 8.60911C13.9001 8.32279 13.538 8.2049 13.2517 8.34805C12.9654 8.49121 12.8475 8.84489 12.9906 9.13542C13.1338 9.43016 13.4875 9.55226 13.7822 9.40068Z" fill="white"/>
<path d="M15.6249 12.6219C16.0712 12.3987 16.2523 11.8514 16.0291 11.405C15.8059 10.9587 15.2586 10.7777 14.8123 11.0008C14.3659 11.224 14.1849 11.7714 14.4081 12.2177C14.6312 12.6682 15.1786 12.845 15.6249 12.6219Z" fill="white"/>
<path d="M9.41497 14.8366C9.76023 15.0597 10.2234 14.9671 10.4508 14.6219C10.6739 14.2766 10.5813 13.8134 10.236 13.5861C9.89076 13.3629 9.4276 13.4555 9.20023 13.8008C8.96865 14.1461 9.06549 14.6134 9.41497 14.8366Z" fill="white"/>
<path d="M10.5163 19.1735C10.011 19.144 9.58575 19.5272 9.55628 20.0324C9.52681 20.5377 9.90997 20.9629 10.4152 20.9924C10.9205 21.0219 11.3458 20.6387 11.3752 20.1335C11.4005 19.6366 11.0173 19.2029 10.5163 19.1735Z" fill="white"/>
<path d="M9.50946 25.2784C9.14314 25.4679 8.99156 25.9142 9.17683 26.2889C9.3663 26.6552 9.81262 26.8068 10.1874 26.6215C10.5537 26.4321 10.7052 25.9858 10.52 25.611C10.3347 25.2447 9.87999 25.0931 9.50946 25.2784Z" fill="white"/>
<path d="M13.0433 17.2956C13.5402 17.6199 14.2054 17.4851 14.5212 16.9841C14.8454 16.4872 14.7107 15.822 14.2096 15.5062C13.7128 15.182 13.0475 15.3167 12.7318 15.8177C12.4118 16.3062 12.5465 16.9714 13.0433 17.2956Z" fill="white"/>
<path d="M24.2526 12.5509C24.6694 12.8246 25.2379 12.7109 25.5158 12.2898C25.7894 11.873 25.6757 11.3046 25.2547 11.0267C24.8379 10.753 24.2694 10.8667 23.9915 11.2877C23.7136 11.7172 23.8273 12.2772 24.2526 12.5509Z" fill="white"/>
<path d="M26.1146 9.34654C26.3882 9.52759 26.7504 9.44759 26.9272 9.17391C27.1082 8.90022 27.0282 8.53812 26.7546 8.36127C26.4809 8.18022 26.1188 8.26022 25.9419 8.52549C25.7651 8.79917 25.8451 9.16549 26.1146 9.34654Z" fill="white"/>
<path d="M24.3877 18.2307C23.3856 18.1718 22.5224 18.9423 22.4719 19.9444C22.413 20.9465 23.1835 21.8097 24.1856 21.8602C24.2235 21.8602 24.2572 21.8602 24.2867 21.8602C25.2888 21.8602 26.1014 21.0475 26.1014 20.037C26.1098 19.0812 25.3561 18.2812 24.3877 18.2307Z" fill="white"/>
<path d="M16.2237 17.1654C16.5353 17.7759 17.1626 18.1675 17.8531 18.1675C18.8553 18.1675 19.6679 17.3549 19.6679 16.3444C19.6679 16.0623 19.6047 15.7801 19.4742 15.5233C19.0195 14.6223 17.9247 14.2601 17.0321 14.7149C16.131 15.1738 15.7689 16.2728 16.2237 17.1654Z" fill="white"/>
<path d="M30.483 14.8365C30.8493 14.647 30.9967 14.1965 30.8072 13.8259C30.6219 13.4596 30.1672 13.3122 29.7967 13.5017C29.4304 13.6912 29.283 14.1375 29.464 14.5038C29.6619 14.8701 30.1125 15.0217 30.483 14.8365Z" fill="white"/>
<path d="M25.8708 15.4137C25.3445 15.679 25.1298 16.3232 25.395 16.8495C25.6603 17.3758 26.3045 17.5905 26.8308 17.3253C27.3571 17.06 27.5719 16.4158 27.3066 15.8895C27.0371 15.3632 26.3971 15.1526 25.8708 15.4137Z" fill="white"/>
<path d="M19.931 9.07223C20.3436 9.09329 20.6931 8.7775 20.7226 8.36487C20.7521 7.95223 20.4279 7.60276 20.0152 7.57329C19.6026 7.55223 19.2531 7.8596 19.2237 8.27223C19.2026 8.68907 19.5184 9.04276 19.931 9.07223Z" fill="white"/>
<path d="M19.9217 13.7756C20.5112 13.8135 21.0164 13.3588 21.0459 12.7651C21.0838 12.1756 20.6291 11.6704 20.0354 11.6409C19.4459 11.603 18.9407 12.0577 18.9112 12.6514C18.8859 13.2451 19.3322 13.7461 19.9217 13.7756Z" fill="white"/>
<path d="M14.1238 24.7011C14.6501 24.4359 14.8648 23.7917 14.5996 23.2654C14.3343 22.739 13.6901 22.5243 13.1638 22.7896C12.6375 23.0548 12.4227 23.699 12.688 24.2254C12.9575 24.7517 13.5975 24.9664 14.1238 24.7011Z" fill="white"/>
<path d="M20.6126 15.3416C20.0653 16.1837 20.2969 17.3079 21.139 17.8552C21.9811 18.4026 23.1053 18.171 23.6526 17.3289C24.2 16.4868 23.9684 15.3626 23.1263 14.8152C22.8316 14.6216 22.4863 14.5205 22.1326 14.5205C21.5179 14.5205 20.9495 14.8279 20.6126 15.3416Z" fill="white"/>
<path d="M23.775 22.9501C23.3202 22.049 22.2255 21.6869 21.3329 22.1416C20.4318 22.5964 20.0697 23.6911 20.5245 24.5837C20.9792 25.4848 22.0739 25.8469 22.9666 25.3922C23.8592 24.9459 24.2297 23.8637 23.7792 22.9627C23.7834 22.9585 23.7834 22.9585 23.775 22.9501Z" fill="white"/>
<path d="M26.9587 22.8196C26.4618 22.4954 25.7966 22.6302 25.4808 23.1312C25.1566 23.6281 25.2913 24.2933 25.7924 24.6091C26.2892 24.9333 26.9545 24.7986 27.2703 24.2975C27.5903 23.8091 27.4555 23.1439 26.9587 22.8196Z" fill="white"/>
<path d="M30.4416 20.0915C30.4711 19.5862 30.0879 19.1609 29.5827 19.1315C29.0774 19.102 28.6522 19.4852 28.6227 19.9904C28.5932 20.4957 28.9764 20.9209 29.4816 20.9504C29.9827 20.9757 30.4122 20.5883 30.4416 20.0915Z" fill="white"/>
<path d="M32.9554 19.4426C32.6311 19.4216 32.349 19.6742 32.3364 19.9984C32.3238 20.3226 32.568 20.6047 32.8922 20.6174C33.2164 20.6384 33.4901 20.3858 33.5111 20.0616C33.528 19.7374 33.2838 19.4637 32.9554 19.4426Z" fill="white"/>
<path d="M30.5867 25.2784C30.2414 25.0553 29.7783 25.1479 29.5509 25.4932C29.3277 25.8384 29.4204 26.3016 29.7656 26.529C30.1109 26.7521 30.5741 26.6595 30.8014 26.3142C31.033 25.969 30.9362 25.5016 30.5867 25.2784Z" fill="white"/>
<path d="M13.8829 30.7695C13.6092 30.5884 13.2471 30.6684 13.0703 30.9337C12.8892 31.2074 12.9692 31.5695 13.2345 31.7463C13.5082 31.9274 13.8703 31.8474 14.0471 31.5821C14.2366 31.3168 14.1566 30.9505 13.8829 30.7695Z" fill="white"/>
<path d="M26.2165 30.7147C25.9302 30.8579 25.8123 31.22 25.9555 31.5063C26.0986 31.7926 26.4607 31.9105 26.7471 31.7673C27.0334 31.6242 27.1513 31.2705 27.0081 30.98C26.8649 30.6852 26.5113 30.5631 26.2165 30.7147Z" fill="white"/>
<path d="M19.3874 24.7734C19.9348 23.9313 19.7032 22.8071 18.8611 22.2513C18.019 21.7039 16.8948 21.9355 16.339 22.7776C15.7832 23.6197 16.0232 24.7439 16.8653 25.2997C17.1601 25.4934 17.5053 25.5945 17.859 25.5945C18.4822 25.6029 19.0506 25.2913 19.3874 24.7734Z" fill="white"/>
<path d="M15.7479 27.5648C15.331 27.2911 14.7626 27.4048 14.4847 27.8258C14.211 28.2427 14.3247 28.8111 14.7457 29.089C15.1626 29.3627 15.731 29.249 16.0089 28.8279C16.291 28.4069 16.1731 27.8385 15.7479 27.5648Z" fill="white"/>
<path d="M19.9927 31.042C19.58 31.021 19.2306 31.3367 19.2011 31.7494C19.1716 32.162 19.4958 32.5115 19.9084 32.541C20.3211 32.562 20.6706 32.2546 20.7 31.842C20.7211 31.4252 20.4053 31.0715 19.9927 31.042Z" fill="white"/>
<path d="M20.0014 26.3401C19.4119 26.3022 18.9067 26.7569 18.8772 27.3506C18.8393 27.9401 19.294 28.4454 19.8877 28.4748C20.4772 28.5043 20.9825 28.058 21.0119 27.4643C21.0456 26.879 20.5909 26.3696 20.0014 26.3401Z" fill="white"/>
<path d="M24.3718 27.4936C23.9255 27.7251 23.7444 28.2725 23.976 28.7188C24.2076 29.1651 24.755 29.3462 25.2013 29.1146C25.6476 28.8915 25.8286 28.3441 25.6055 27.8978C25.3739 27.4473 24.8265 27.262 24.3718 27.4936Z" fill="white"/>
</svg>
