<svg width="40" height="41" viewBox="0 0 40 41" fill="none" xmlns="http://www.w3.org/2000/svg">
<path d="M20 40.0312C31.0457 40.0312 40 31.0769 40 20.0312C40 8.98555 31.0457 0.03125 20 0.03125C8.9543 0.03125 0 8.98555 0 20.0312C0 31.0769 8.9543 40.0312 20 40.0312Z" fill="#627EEA"/>
<path d="M20.6211 5.03125V16.1187L29.9923 20.3062L20.6211 5.03125Z" fill="white" fill-opacity="0.602"/>
<path d="M20.6225 5.03125L11.25 20.3062L20.6225 16.1187V5.03125Z" fill="white"/>
<path d="M20.6211 27.4908V35.0245L29.9986 22.0508L20.6211 27.4908Z" fill="white" fill-opacity="0.602"/>
<path d="M20.6225 35.0245V27.4895L11.25 22.0508L20.6225 35.0245Z" fill="white"/>
<path d="M20.6211 25.7473L29.9923 20.3061L20.6211 16.1211V25.7473Z" fill="white" fill-opacity="0.2"/>
<path d="M11.25 20.3061L20.6225 25.7473V16.1211L11.25 20.3061Z" fill="white" fill-opacity="0.602"/>
</svg>
