<svg width="40" height="41" viewBox="0 0 40 41" fill="none" xmlns="http://www.w3.org/2000/svg">
<path d="M19.9921 0.015625C31.0429 0.015625 40 8.97097 40 20.0196C40 31.0682 31.0429 40.0156 20 40.0156C8.94924 40.0156 5.18336e-06 31.0603 5.18336e-06 20.0196C-0.00786573 8.97097 8.94923 0.015625 19.9921 0.015625Z" fill="#8247E5"/>
<mask id="mask0_462_1409" style="mask-type:luminance" maskUnits="userSpaceOnUse" x="6" y="8" width="27" height="24">
<path d="M32.9602 8.66406H6.74219V31.6348H32.9602V8.66406Z" fill="white"/>
</mask>
<g mask="url(#mask0_462_1409)">
<path d="M26.5454 15.6605C26.0652 15.385 25.4513 15.385 24.9082 15.6605L21.0829 17.9268L18.4855 19.3669L14.7311 21.6254C14.251 21.9009 13.6371 21.9009 13.094 21.6254L10.1581 19.8391C9.67798 19.5637 9.33953 19.0128 9.33953 18.399V14.968C9.33953 14.4171 9.61501 13.8741 10.1581 13.5279L13.094 11.8123C13.5741 11.5369 14.188 11.5369 14.7311 11.8123L17.667 13.5987C18.1471 13.8741 18.4855 14.425 18.4855 15.0388V17.3052L21.0829 15.7942V13.4649C21.0829 12.914 20.8075 12.3711 20.2644 12.0248L14.8019 8.79837C14.3218 8.52294 13.7079 8.52294 13.1648 8.79837L7.56857 12.0956C7.02548 12.3711 6.75 12.9219 6.75 13.4649V19.9099C6.75 20.4608 7.02548 21.0038 7.56857 21.35L13.1018 24.5765C13.582 24.8519 14.1959 24.8519 14.739 24.5765L18.4934 22.3809L21.0908 20.87L24.8452 18.6744C25.3254 18.399 25.9393 18.399 26.4824 18.6744L29.4182 20.3899C29.8984 20.6654 30.2368 21.2162 30.2368 21.83V25.2611C30.2368 25.8119 29.9613 26.3549 29.4182 26.7012L26.5532 28.4167C26.0731 28.6921 25.4592 28.6921 24.9161 28.4167L21.9724 26.7012C21.4922 26.4258 21.1538 25.8749 21.1538 25.2611V23.0655L18.5564 24.5765V26.8428C18.5564 27.3937 18.8319 27.9367 19.3749 28.2829L24.9082 31.5094C25.3883 31.7848 26.0023 31.7848 26.5454 31.5094L32.0786 28.2829C32.5587 28.0075 32.8972 27.4566 32.8972 26.8428V20.327C32.8972 19.7761 32.6217 19.2332 32.0786 18.8869L26.5454 15.6605Z" fill="white"/>
</g>
</svg>
