<svg width="21" height="20" viewBox="0 0 21 20" fill="none" xmlns="http://www.w3.org/2000/svg">
<mask id="mask0" mask-type="alpha" maskUnits="userSpaceOnUse" x="0" y="0" width="21" height="20">
<circle cx="10.5" cy="10" r="10" fill="#C4C4C4"/>
</mask>
<g mask="url(#mask0)">
<path d="M25.5117 20.0083V0L-4.5 0.000299881V20.0086H25.5117V20.0083Z" fill="#006233"/>
<path fill-rule="evenodd" clip-rule="evenodd" d="M8.00646 10.3631C7.61581 10.897 7.89786 11.2442 8.30059 11.2689C8.56605 11.2868 9.1181 10.9272 9.1166 10.5045L8.96576 10.4276C9.05023 10.6445 8.96275 10.7131 8.78325 10.8613C8.4288 11.1537 7.7048 11.1742 8.00646 10.3631Z" fill="white" stroke="white" stroke-width="0.00576765"/>
<path fill-rule="evenodd" clip-rule="evenodd" d="M11.1033 11.7626C13.3025 11.8189 14.0024 9.8824 12.6449 8.22449L12.5106 8.40702C12.5981 9.17971 12.7248 9.94142 12.7369 10.7333C12.4714 11.0174 12.0853 10.9117 12.0083 10.5961C12.0129 10.1679 11.859 9.80554 11.6644 9.45969L11.5558 9.64222C11.6825 9.92632 11.8198 10.2461 11.8485 10.5961C11.221 11.2809 10.5272 11.4195 10.7851 10.5192C10.2889 11.3084 11.04 11.8642 11.8907 10.6496C12.0732 11.4786 12.7791 10.9639 12.8213 10.7855C12.8983 10.242 12.859 9.36636 12.7037 8.67465C13.3161 9.63948 13.3372 10.3353 13.0114 10.8006C12.6494 11.318 11.862 11.5595 11.1033 11.7626V11.7626Z" fill="white" stroke="white" stroke-width="0.0143904"/>
<path fill-rule="evenodd" clip-rule="evenodd" d="M12.3509 9.57377C11.8803 9.60534 11.639 9.51751 11.8939 9.20047C12.1458 8.8903 12.3811 9.13734 12.4444 9.55182C12.5032 9.94022 11.6178 10.4357 11.3117 10.4357C10.8486 10.4357 10.6344 9.89355 11.0613 9.40634C10.5122 10.8282 12.2468 10.0033 12.3509 9.57377V9.57377ZM12.0251 9.24439C11.9678 9.24164 11.9255 9.3336 11.9542 9.35144C12.0372 9.40359 12.1684 9.37203 12.182 9.34595C12.2106 9.28831 12.105 9.24713 12.0251 9.24439V9.24439Z" fill="white" stroke="white" stroke-width="0.0143904"/>
<path fill-rule="evenodd" clip-rule="evenodd" d="M9.79573 10.2448C9.34323 11.0545 9.79422 11.3894 10.3749 11.296C10.7128 11.2398 11.1412 11.0216 11.3885 10.7237C11.393 10.0677 11.3825 9.41717 11.3191 8.78173C11.5454 8.53606 11.2995 8.53744 11.2136 8.27393C11.1743 8.42764 11.0793 8.59371 11.1713 8.71311C11.2362 9.35404 11.2724 10.0032 11.2709 10.6647C10.8154 10.9982 10.473 11.1217 10.2286 11.119C9.72332 11.1149 9.61473 10.7279 9.79573 10.2448V10.2448Z" fill="white" stroke="white" stroke-width="0.0143904"/>
<path fill-rule="evenodd" clip-rule="evenodd" d="M10.7205 10.4588C10.7129 9.84809 10.7024 9.155 10.6421 8.72817C10.8774 8.49074 10.63 8.48525 10.5531 8.21899C10.5078 8.36996 10.4083 8.53466 10.4957 8.6568C10.535 9.31009 10.5727 9.96337 10.5802 10.6167C10.6345 10.5851 10.6964 10.5727 10.7205 10.4588V10.4588Z" fill="white" stroke="white" stroke-width="0.0143904"/>
<path fill-rule="evenodd" clip-rule="evenodd" d="M8.96346 10.4292C8.90615 10.3633 8.86542 10.2892 8.81866 10.2247C8.81112 10.1327 8.879 10.0476 8.88805 10.001C8.96497 10.1094 9.01022 10.1917 9.07206 10.2453L8.96346 10.4292ZM9.15351 10.2878C9.26664 10.329 9.4054 10.329 9.53361 10.3317C10.0283 10.34 10.5487 10.2659 10.4929 10.8752C10.4446 11.416 9.95142 11.7289 9.50948 11.7248C8.8805 11.7193 8.34354 11.0879 9.3134 9.92549C9.40691 9.91176 9.52909 9.93509 9.63014 9.94333C9.8036 9.95568 9.98159 9.94058 10.1852 9.79236C10.1611 9.40945 10.1611 9.04712 10.1098 8.70127C10.0223 8.57912 10.1219 8.4158 10.1671 8.26346C10.244 8.52971 10.4899 8.5352 10.2561 8.77401C10.3119 9.15829 10.3179 9.54944 10.3179 9.78275C10.2003 9.94607 10.1083 10.119 9.76439 10.1849C9.41295 10.1382 9.25457 9.6908 8.88805 9.83903C8.98911 9.43553 9.91974 9.34357 10.0133 9.66198C9.95142 9.99411 9.08262 9.86098 8.85185 10.9342C8.78096 11.265 9.16407 11.5697 9.55775 11.545C9.94237 11.5216 10.3526 11.2787 10.3934 10.8697C10.425 10.528 9.89561 10.5678 9.67389 10.5719C9.3511 10.5788 9.14748 10.5335 9.0253 10.469L9.15351 10.2878ZM9.35563 9.72923C9.41295 9.67982 9.61355 9.64551 9.68595 9.72511C9.63165 9.75805 9.57886 9.79373 9.53512 9.83628C9.4597 9.80059 9.40993 9.76491 9.35563 9.72923V9.72923Z" fill="white" stroke="white" stroke-width="0.00576765"/>
<path fill-rule="evenodd" clip-rule="evenodd" d="M9.84712 8.59421C9.90142 8.704 9.92405 8.77674 9.92707 8.88242C9.89388 9.02516 9.75964 9.15828 9.62088 9.1624C9.5349 9.16515 9.43837 9.14319 9.37049 9.02104C9.36295 9.00594 9.32675 8.97026 9.29206 8.98673C9.13972 9.21455 9.02659 9.31063 8.88934 9.30925C8.61482 9.30514 8.69627 9.0828 8.44287 9.01418C8.33729 9.01143 8.16383 9.10888 8.07484 9.29965C7.73697 10.1711 7.42927 9.2969 7.5605 8.89066C7.58011 9.27906 7.68267 9.50963 7.78825 9.50277C7.86518 9.49591 7.93305 9.33396 8.0311 9.16377C8.10651 9.03339 8.28751 8.7987 8.47907 8.7987C8.65404 8.80282 8.54393 9.09515 8.89386 9.09104C9.06279 9.08829 9.21815 8.97026 9.37502 8.7342C9.40971 8.72871 9.41876 8.78498 9.4263 8.80419C9.45043 8.88517 9.60428 9.1075 9.81243 8.90438C9.80187 8.86046 9.8064 8.78772 9.75361 8.77263L9.84712 8.59421V8.59421Z" fill="white" stroke="white" stroke-width="0.0143904"/>
<path fill-rule="evenodd" clip-rule="evenodd" d="M10.947 7.87231C10.7615 7.95603 10.6258 7.87917 10.5488 7.80506C10.6831 7.78035 10.7872 7.73643 10.8173 7.64036C10.757 7.51684 10.6137 7.46332 10.4116 7.46194C10.1416 7.46881 10.0028 7.56762 9.98623 7.7035C10.1114 7.70761 10.2245 7.67605 10.2728 7.78584C10.0511 7.88466 9.79014 7.92034 9.50658 7.91897C9.04201 7.94093 8.97414 7.75016 8.85196 7.58272C8.84291 7.57174 8.80219 7.5539 8.78107 7.55665C8.63778 7.55665 8.5322 8.01229 8.3708 8.01092C8.20941 7.99171 8.24561 7.71722 8.19885 7.56076C8.15964 7.80643 8.24863 8.72048 8.74789 7.7282C8.76297 7.69526 8.78409 7.70487 8.79766 7.73232C8.9319 8.00955 9.20491 8.10562 9.49904 8.11935C9.74489 8.1317 10.0586 8.03426 10.395 7.86133C10.484 7.95054 10.5549 8.0521 10.7419 8.07131C10.9606 8.08092 11.1944 7.93681 11.2472 7.75839C11.2743 7.66644 11.2789 7.48528 11.1718 7.48253C11.0224 7.47841 10.9138 7.8078 10.9485 8.10425C10.9516 8.10013 10.9682 8.03014 10.9682 8.03014L10.947 7.87231ZM10.3075 7.63487C10.4055 7.5937 10.5006 7.57449 10.576 7.66507C10.5172 7.68428 10.481 7.69663 10.4493 7.71996C10.4071 7.68977 10.3497 7.67467 10.3075 7.63487V7.63487ZM11.0285 7.83937C11.0526 7.74192 11.0662 7.66369 11.1537 7.61291C11.1718 7.71585 11.1748 7.77349 11.0285 7.83937Z" fill="white" stroke="white" stroke-width="0.00576765"/>
<path fill-rule="evenodd" clip-rule="evenodd" d="M11.6179 7.99096C11.5893 7.90724 11.5606 7.8345 11.5516 7.74392C11.5304 7.56001 11.7039 7.45571 11.8608 7.4708C12.0222 7.4859 12.1293 7.5408 12.2831 7.58884C12.4038 7.62589 12.5667 7.65471 12.722 7.69451C12.8095 7.7302 12.722 7.82352 12.6994 7.83588C12.3102 7.97449 12.0342 8.19408 11.7869 8.20369C11.639 8.21055 11.5078 8.12271 11.3887 7.94292C11.3811 7.59432 11.3675 7.18534 11.3298 6.92869C11.3872 6.87654 11.3992 6.83811 11.4264 6.79556C11.4565 7.13456 11.4686 7.49139 11.4761 7.85097C11.5078 7.91273 11.547 7.96488 11.6179 7.99096V7.99096ZM11.8668 8.01841C11.6587 8.07193 11.6843 7.91136 11.6647 7.81254C11.6421 7.69726 11.6571 7.56687 11.8185 7.59981C12.0282 7.65059 12.2197 7.71784 12.4053 7.78921L11.8668 8.01841Z" fill="white" stroke="white" stroke-width="0.00576765"/>
<path fill-rule="evenodd" clip-rule="evenodd" d="M11.6631 8.18881L11.6917 8.31645H11.7144L11.7053 8.19704" fill="white"/>
<path d="M11.6631 8.18881L11.6917 8.31645H11.7144L11.7053 8.19704" stroke="white" stroke-width="0.00576765"/>
<path fill-rule="evenodd" clip-rule="evenodd" d="M8.34277 9.52304L8.44836 9.42422L8.57053 9.51892L8.45741 9.61088L8.34277 9.52304Z" fill="white" stroke="white" stroke-width="0.0576765" stroke-linecap="round" stroke-linejoin="round"/>
<path fill-rule="evenodd" clip-rule="evenodd" d="M8.61133 9.49008L8.71842 9.39127L8.84059 9.48597L8.72747 9.57792L8.61133 9.49008V9.49008Z" fill="white" stroke="white" stroke-width="0.0576765" stroke-linecap="round" stroke-linejoin="round"/>
<path fill-rule="evenodd" clip-rule="evenodd" d="M7.86377 8.46521L7.97086 8.36639L8.09303 8.46109L7.97991 8.55304L7.86377 8.46521V8.46521Z" fill="white" stroke="white" stroke-width="0.0576765" stroke-linecap="round" stroke-linejoin="round"/>
<path fill-rule="evenodd" clip-rule="evenodd" d="M7.91211 8.75616L8.0192 8.65735L8.13987 8.75205L8.02674 8.844L7.91211 8.75616Z" fill="white" stroke="white" stroke-width="0.0576765" stroke-linecap="round" stroke-linejoin="round"/>
<path fill-rule="evenodd" clip-rule="evenodd" d="M9.85107 9.2444L9.94912 9.17166L10.0396 9.26087L9.93705 9.32675L9.85107 9.2444Z" fill="white" stroke="white" stroke-width="0.0576765" stroke-linecap="round" stroke-linejoin="round"/>
<path fill-rule="evenodd" clip-rule="evenodd" d="M8.55615 7.38097L8.62554 7.31647L8.70548 7.37823L8.63157 7.43861L8.55615 7.38097V7.38097Z" fill="white" stroke="white" stroke-width="0.0576765" stroke-linecap="round" stroke-linejoin="round"/>
<path fill-rule="evenodd" clip-rule="evenodd" d="M8.73267 7.3604L8.80205 7.29453L8.88199 7.35766L8.80808 7.41667L8.73267 7.3604V7.3604Z" fill="white" stroke="white" stroke-width="0.0576765" stroke-linecap="round" stroke-linejoin="round"/>
<path fill-rule="evenodd" clip-rule="evenodd" d="M12.4386 8.0982L12.3722 8.14898L12.3088 8.08997L12.3782 8.0433L12.4386 8.0982V8.0982Z" fill="white" stroke="white" stroke-width="0.0576765" stroke-linecap="round" stroke-linejoin="round"/>
<path fill-rule="evenodd" clip-rule="evenodd" d="M9.31589 9.91977L9.30835 10.0282L9.4984 10.0447L9.65074 9.94036L9.31589 9.91977V9.91977Z" fill="white" stroke="white" stroke-width="0.00576765"/>
<path fill-rule="evenodd" clip-rule="evenodd" d="M10.9226 7.8937L10.9784 7.88272L10.9724 8.02408L10.9377 8.03643L10.9226 7.8937Z" fill="white" stroke="white" stroke-width="0.0143904"/>
<path d="M10.5055 13.5847C12.6471 13.5847 14.3895 11.9992 14.3895 10.0509C14.3895 8.97879 13.8638 8.0222 13.0364 7.37558C13.5329 7.90707 13.8346 8.60679 13.8346 9.36855C13.8346 11.0606 12.3452 12.4333 10.5055 12.4333C8.66563 12.4333 7.17624 11.0606 7.17624 9.36855C7.17624 8.60679 7.47799 7.90707 7.97443 7.37558C7.14701 8.0222 6.62134 8.97879 6.62134 10.0509C6.62134 11.9992 8.36388 13.5847 10.5055 13.5847V13.5847Z" fill="white"/>
<path d="M9.97976 15.5512C9.12331 15.9409 8.05274 15.8346 7.14763 15.3032C7.1087 15.2855 7.08924 15.3121 7.12817 15.4095C7.22549 15.6663 7.30335 15.87 7.01138 16.2508C6.88485 16.4191 7.03084 16.4456 7.24495 16.4279C8.33498 16.3305 9.40555 16.1091 9.92137 15.9231L9.97976 15.5512Z" fill="white" stroke="black" stroke-width="0.0743941"/>
<path d="M9.96029 16.0117C9.61965 16.1357 9.03571 16.2862 8.38364 16.3925C8.12086 16.4279 8.1306 16.5785 8.59775 16.6316C9.07464 16.6759 9.68778 16.3659 10.0576 16.0914L9.96029 16.0117Z" fill="white" stroke="black" stroke-width="0.0743941"/>
<path d="M10.5053 15.1615C10.6221 15.1615 10.8362 15.1172 11.0504 15.0907C11.4494 15.0287 11.1574 15.5866 10.5053 15.5866V15.7726C11.1671 15.7726 11.8581 15.1172 11.7122 14.825C11.5078 14.3999 10.9433 14.763 10.5053 14.763C10.0674 14.763 9.5029 14.3999 9.29852 14.825C9.15254 15.1172 9.84354 15.7726 10.5053 15.7726V15.5866C9.85327 15.5866 9.5613 15.0287 9.96033 15.0907C10.1744 15.1172 10.3886 15.1615 10.5053 15.1615Z" fill="white" stroke="black" stroke-width="0.0743941"/>
<path d="M11.0308 15.5512C11.8872 15.9409 12.9578 15.8346 13.8629 15.3032C13.9018 15.2855 13.9213 15.3121 13.8824 15.4095C13.785 15.6663 13.7072 15.87 13.9991 16.2508C14.1257 16.4191 13.9797 16.4456 13.7656 16.4279C12.6755 16.3305 11.605 16.1091 11.0892 15.9231L11.0308 15.5512Z" fill="white" stroke="black" stroke-width="0.0743941"/>
<path d="M11.0502 16.0117C11.3908 16.1357 11.9651 16.2862 12.6269 16.3925C12.8896 16.4279 12.8799 16.5785 12.4127 16.6316C11.9359 16.6759 11.3227 16.3659 10.9529 16.0914L11.0502 16.0117Z" fill="white" stroke="black" stroke-width="0.0743941"/>
<path d="M10.5345 15.9231C10.5539 16.0736 10.5831 16.4013 10.807 16.2596C11.1087 16.0736 11.1768 15.9319 11.1768 15.6663C11.1768 15.498 10.953 15.2501 10.5053 15.2501C10.0576 15.2501 9.83374 15.498 9.83374 15.6663C9.83374 15.9319 9.90187 16.0736 10.2036 16.2596C10.4274 16.4013 10.4469 16.0736 10.4761 15.9231C10.4858 15.87 10.5345 15.8877 10.5345 15.9231Z" fill="white" stroke="black" stroke-width="0.0743941"/>
<path d="M10.2227 4.577C10.0961 3.92168 9.03531 3.8774 8.86986 3.77113C8.67521 3.65601 8.70441 3.77113 8.77254 3.94824C8.96718 4.40874 9.62899 4.59471 9.93069 4.64784C10.174 4.68327 10.2519 4.70098 10.2227 4.577Z" fill="white" stroke="black" stroke-width="0.0743941"/>
<path d="M10.544 4.59472C10.651 3.92169 9.59993 3.60289 9.47341 3.45234C9.32742 3.29294 9.30796 3.39035 9.37608 3.57632C9.50261 3.97482 9.96003 4.44418 10.2325 4.56816C10.4564 4.67442 10.5245 4.7187 10.544 4.59472Z" fill="white" stroke="black" stroke-width="0.0743941"/>
<path d="M11.411 4.98443C11.5084 4.17856 10.6519 4.05458 10.4281 3.79777C10.2821 3.63837 10.2723 3.72692 10.321 3.91289C10.4183 4.32026 10.8466 4.79846 11.1093 4.94901C11.3137 5.06413 11.4013 5.10841 11.411 4.98443Z" fill="white" stroke="black" stroke-width="0.0743941"/>
<path d="M11.1472 4.80725C10.2615 4.28477 9.63865 4.57701 9.3856 4.55044C9.14229 4.52387 9.06443 4.66556 9.48293 4.8781C9.99874 5.13491 10.7189 5.09949 11.0012 5.00208C11.2932 4.89581 11.2056 4.84268 11.1472 4.80725Z" fill="white" stroke="black" stroke-width="0.0743941"/>
<path d="M12.4819 5.16164C12.2093 4.29378 11.5767 4.43547 11.3918 4.32921C11.2069 4.22294 11.1874 4.2495 11.2264 4.44433C11.3042 4.7897 11.9563 5.1705 12.2775 5.28562C12.3943 5.32104 12.5402 5.37418 12.4819 5.16164Z" fill="white" stroke="black" stroke-width="0.0743941"/>
<path d="M12.3555 5.31234C11.5963 4.75443 11.0027 5.17064 10.7691 5.10865C10.5939 5.06438 10.6718 5.17064 10.7399 5.21492C11.2265 5.52487 11.8299 5.69313 12.2971 5.49831C12.482 5.42746 12.4917 5.40975 12.3555 5.31234Z" fill="white" stroke="black" stroke-width="0.0743941"/>
<path d="M14.0004 5.87904C14.0101 5.32999 12.7644 5.09974 12.5016 4.76323C12.3459 4.55954 12.2096 4.66581 12.2875 4.99347C12.4043 5.41855 13.2607 5.8879 13.7279 5.97646C14.0101 6.02959 14.0004 5.94103 14.0004 5.87904Z" fill="white" stroke="black" stroke-width="0.0743941"/>
<path d="M13.9613 5.97661C13.173 5.33015 12.5112 5.54268 12.2678 5.48069C12.0245 5.42756 11.9272 5.56039 12.3068 5.82606C12.7739 6.14487 13.4941 6.20686 13.7958 6.14487C14.0975 6.08288 14.0197 6.02089 13.9613 5.97661Z" fill="white" stroke="black" stroke-width="0.0743941"/>
<path d="M15.3731 6.92415C15.1493 5.98544 14.4388 5.79062 14.2636 5.6135C14.0982 5.43639 13.923 5.48952 14.069 5.9146C14.2441 6.41937 14.8184 6.86216 15.1201 6.96842C15.412 7.08355 15.3926 6.99499 15.3731 6.92415Z" fill="white" stroke="black" stroke-width="0.0743941"/>
<path d="M15.363 7.04823C14.7888 6.20694 14.0394 6.2335 13.8058 6.11838C13.582 5.9944 13.4262 6.10067 13.728 6.46375C14.0783 6.90654 14.7985 7.1545 15.1294 7.17221C15.4603 7.18992 15.4019 7.11022 15.363 7.04823Z" fill="white" stroke="black" stroke-width="0.0743941"/>
<path d="M16.1029 8.04896C16.4338 7.09255 15.6746 6.73832 15.5968 6.57892C15.5092 6.41951 15.4216 6.41951 15.3729 6.58777C15.1588 7.26966 15.8498 7.93384 15.9569 8.06667C16.0639 8.19065 16.0834 8.12866 16.1029 8.04896Z" fill="white" stroke="black" stroke-width="0.0743941"/>
<path d="M15.9471 8.31478C15.6844 7.24324 14.9934 7.30523 14.8376 7.15468C14.6722 7.00414 14.6527 7.11041 14.6819 7.30523C14.7598 7.82772 15.4508 8.18194 15.7622 8.35906C15.8595 8.41219 15.9763 8.47418 15.9471 8.31478Z" fill="white" stroke="black" stroke-width="0.0743941"/>
<path d="M16.6095 9.57235C17.0864 8.5628 16.5219 7.88091 16.3467 7.73036C16.1715 7.58867 16.0645 7.52668 16.1229 7.73036C16.2007 8.04031 15.9282 8.83733 16.3467 9.4218C16.483 9.61663 16.5024 9.8026 16.6095 9.57235Z" fill="white" stroke="black" stroke-width="0.0743941"/>
<path d="M16.3561 9.77616C16.4632 9.15626 16.0739 8.5895 15.6554 8.36811C15.4121 8.23527 15.4023 8.27069 15.4023 8.45666C15.4218 9.03228 16.0155 9.51049 16.1907 9.77616C16.3561 10.0241 16.3464 9.83815 16.3561 9.77616Z" fill="white" stroke="black" stroke-width="0.0743941"/>
<path d="M16.2491 11.3881C15.8988 10.2191 16.6287 9.54611 16.8525 9.41328C17.0666 9.27158 17.2029 9.21845 17.1056 9.43984C16.9596 9.7675 17.1153 10.6796 16.5606 11.2553C16.3854 11.4501 16.3172 11.6538 16.2491 11.3881Z" fill="white" stroke="black" stroke-width="0.0743941"/>
<path d="M16.3269 11.1313C16.6189 10.1129 15.9863 9.53724 15.7916 9.42211C15.6067 9.30699 15.4899 9.26271 15.5775 9.44868C15.6943 9.73206 15.5678 10.5291 16.0544 11.025C16.2101 11.1933 16.2685 11.3615 16.3269 11.1313Z" fill="white" stroke="black" stroke-width="0.0743941"/>
<path d="M15.9666 10.6533C15.4411 11.1669 15.4313 11.9196 15.6649 12.3624C15.8109 12.6192 15.8304 12.6015 15.9666 12.4155C16.3364 11.8753 16.1126 11.096 16.1321 10.7507C16.1418 10.423 16.025 10.6001 15.9666 10.6533Z" fill="white" stroke="black" stroke-width="0.0743941"/>
<path d="M16.8332 11.4682C16.8332 12.1766 16.3563 12.7522 15.8502 12.9293C15.5582 13.0268 15.5582 13.0002 15.5971 12.7877C15.7334 11.9906 16.4049 11.6984 16.6482 11.4416C16.8818 11.1936 16.8332 11.3973 16.8332 11.4682Z" fill="white" stroke="black" stroke-width="0.0743941"/>
<path d="M15.0226 13.5759C15.879 12.8674 15.4216 12.3715 15.4605 11.911C15.48 11.663 15.373 11.725 15.2756 11.8136C14.7306 12.3007 14.7014 13.1685 14.8182 13.505C14.8669 13.6556 14.9447 13.6379 15.0226 13.5759Z" fill="white" stroke="black" stroke-width="0.0743941"/>
<path d="M16.1711 13.1156C15.8889 13.8949 15.1395 14.3731 14.5069 14.3997C14.1371 14.4174 14.1468 14.3908 14.2733 14.1606C14.7502 13.3281 15.5969 13.2307 15.9765 13.0182C16.3269 12.8234 16.2003 13.0359 16.1711 13.1156Z" fill="white" stroke="black" stroke-width="0.0743941"/>
<path d="M13.8447 14.5768C14.9542 14.072 14.7304 13.2307 14.9348 13.0181C15.0807 12.8676 14.9056 12.8853 14.818 12.9384C14.1659 13.2838 13.6403 13.8329 13.6306 14.4173C13.6306 14.6387 13.6501 14.6653 13.8447 14.5768Z" fill="white" stroke="black" stroke-width="0.0743941"/>
<path d="M12.3261 15.5157C13.7275 15.7194 14.3796 14.7541 14.7884 14.6656C15.0025 14.6213 14.8468 14.5416 14.7397 14.5328C13.8054 14.4353 12.6181 14.8338 12.258 15.2766C12.112 15.4537 12.112 15.4892 12.3261 15.5157Z" fill="white" stroke="black" stroke-width="0.0743941"/>
<path d="M13.7471 14.0013C13.4648 14.8426 12.4137 15.5333 11.6254 15.5865C11.2556 15.613 11.2556 15.5776 11.3918 15.3562C12.0244 14.3113 13.1242 14.1341 13.5135 13.8685C13.8444 13.6382 13.7763 13.9216 13.7471 14.0013Z" fill="white" stroke="black" stroke-width="0.0743941"/>
<path d="M10.7885 4.57709C10.9151 3.92177 11.9759 3.87749 12.1414 3.77122C12.336 3.6561 12.3068 3.77122 12.2387 3.94833C12.044 4.40883 11.3822 4.5948 11.0805 4.64793C10.8372 4.68336 10.7593 4.70107 10.7885 4.57709Z" fill="white" stroke="black" stroke-width="0.0743941"/>
<path d="M10.4669 4.59472C10.3598 3.92169 11.4109 3.60289 11.5374 3.45234C11.6834 3.29294 11.7029 3.39035 11.6348 3.57632C11.5082 3.97482 11.0508 4.44418 10.7783 4.56816C10.5545 4.67442 10.4863 4.7187 10.4669 4.59472Z" fill="white" stroke="black" stroke-width="0.0743941"/>
<path d="M9.59971 4.98437C9.50239 4.1785 10.3588 4.05452 10.5827 3.79771C10.7287 3.63831 10.7384 3.72686 10.6897 3.91283C10.5924 4.32019 10.1642 4.7984 9.90142 4.94895C9.69704 5.06407 9.60945 5.10835 9.59971 4.98437Z" fill="white" stroke="black" stroke-width="0.0743941"/>
<path d="M9.86256 4.80725C10.7482 4.28477 11.3711 4.57701 11.6241 4.55044C11.8674 4.52387 11.9453 4.66556 11.5268 4.8781C11.011 5.13491 10.2908 5.09949 10.0085 5.00208C9.71658 4.89581 9.80417 4.84268 9.86256 4.80725Z" fill="white" stroke="black" stroke-width="0.0743941"/>
<path d="M8.52941 5.16146C8.80192 4.2936 9.43452 4.43529 9.61944 4.32902C9.80435 4.22275 9.82382 4.24932 9.78489 4.44415C9.70703 4.78952 9.05496 5.17031 8.73379 5.28544C8.617 5.32086 8.47101 5.37399 8.52941 5.16146Z" fill="white" stroke="black" stroke-width="0.0743941"/>
<path d="M8.65583 5.31203C9.41496 4.75412 10.0086 5.17034 10.2422 5.10835C10.4174 5.06407 10.3395 5.17034 10.2714 5.21462C9.78479 5.52457 9.18138 5.69283 8.71423 5.498C8.52931 5.42715 8.51958 5.40944 8.65583 5.31203Z" fill="white" stroke="black" stroke-width="0.0743941"/>
<path d="M7.01104 5.8788C7.00131 5.32975 8.24706 5.0995 8.50983 4.76298C8.66555 4.5593 8.80181 4.66557 8.72395 4.99323C8.60716 5.4183 7.75071 5.88766 7.28355 5.97621C7.00131 6.02935 7.01104 5.94079 7.01104 5.8788Z" fill="white" stroke="black" stroke-width="0.0743941"/>
<path d="M7.05001 5.97621C7.83834 5.32975 8.50014 5.54229 8.74345 5.4803C8.98676 5.42716 9.08409 5.56 8.70452 5.82567C8.23737 6.14447 7.51717 6.20646 7.21547 6.14447C6.91376 6.08248 6.99162 6.02049 7.05001 5.97621Z" fill="white" stroke="black" stroke-width="0.0743941"/>
<path d="M5.63864 6.92375C5.86248 5.98505 6.57295 5.79022 6.74813 5.61311C6.91358 5.43599 7.08877 5.48913 6.94278 5.9142C6.7676 6.41897 6.19339 6.86176 5.89168 6.96803C5.59971 7.08315 5.61917 6.99459 5.63864 6.92375Z" fill="white" stroke="black" stroke-width="0.0743941"/>
<path d="M5.64846 7.04774C6.22267 6.20645 6.97207 6.23301 7.20565 6.11789C7.42949 5.99391 7.58521 6.10018 7.28351 6.46326C6.93314 6.90605 6.21294 7.15401 5.88204 7.17172C5.55114 7.18943 5.60953 7.10973 5.64846 7.04774Z" fill="white" stroke="black" stroke-width="0.0743941"/>
<path d="M4.90877 8.04841C4.57786 7.092 5.33699 6.73777 5.41485 6.57837C5.50244 6.41896 5.59003 6.41896 5.6387 6.58722C5.85281 7.26911 5.16181 7.93329 5.05475 8.06612C4.9477 8.1901 4.92823 8.12811 4.90877 8.04841Z" fill="white" stroke="black" stroke-width="0.0743941"/>
<path d="M5.06462 8.31411C5.32739 7.24257 6.0184 7.30456 6.17411 7.15401C6.33956 7.00347 6.35903 7.10973 6.32983 7.30456C6.25197 7.82705 5.56097 8.18127 5.24954 8.35839C5.15221 8.41152 5.03542 8.47351 5.06462 8.31411Z" fill="white" stroke="black" stroke-width="0.0743941"/>
<path d="M4.40268 9.57162C3.92579 8.56207 4.49027 7.88018 4.66545 7.72963C4.84064 7.58794 4.94769 7.52595 4.8893 7.72963C4.81144 8.03958 5.08395 8.83659 4.66545 9.42107C4.5292 9.6159 4.50974 9.80187 4.40268 9.57162Z" fill="white" stroke="black" stroke-width="0.0743941"/>
<path d="M4.65565 9.77528C4.54859 9.15538 4.93789 8.58861 5.35638 8.36722C5.59969 8.23439 5.60942 8.26981 5.60942 8.45578C5.58996 9.0314 4.99628 9.50961 4.8211 9.77528C4.65565 10.0232 4.66538 9.83727 4.65565 9.77528Z" fill="white" stroke="black" stroke-width="0.0743941"/>
<path d="M4.76271 11.3881C5.11308 10.2191 4.38315 9.54611 4.1593 9.41328C3.94519 9.27158 3.80894 9.21845 3.90626 9.43984C4.05225 9.7675 3.89653 10.6796 4.45128 11.2553C4.62646 11.4501 4.68485 11.6538 4.76271 11.3881Z" fill="white" stroke="black" stroke-width="0.0743941"/>
<path d="M4.68488 11.1313C4.39291 10.1129 5.02552 9.53724 5.22017 9.42211C5.40508 9.30699 5.52187 9.26271 5.43428 9.44868C5.31749 9.73206 5.44401 10.5291 4.95739 11.025C4.80167 11.1933 4.74328 11.3615 4.68488 11.1313Z" fill="white" stroke="black" stroke-width="0.0743941"/>
<path d="M5.04505 10.6533C5.5706 11.1669 5.58033 11.9196 5.34676 12.3624C5.20077 12.6192 5.1813 12.6015 5.04505 12.4155C4.67522 11.8753 4.89906 11.096 4.8796 10.7507C4.86987 10.423 4.98666 10.6001 5.04505 10.6533Z" fill="white" stroke="black" stroke-width="0.0743941"/>
<path d="M4.17877 11.4682C4.17877 12.1766 4.65566 12.7522 5.16174 12.9293C5.45372 13.0268 5.45372 13.0002 5.41479 12.7877C5.27853 11.9906 4.607 11.6984 4.36369 11.4416C4.13011 11.1936 4.17877 11.3973 4.17877 11.4682Z" fill="white" stroke="black" stroke-width="0.0743941"/>
<path d="M5.98946 13.5759C5.13301 12.8674 5.59043 12.3715 5.5515 11.911C5.53204 11.663 5.63909 11.725 5.73642 11.8136C6.28143 12.3007 6.31063 13.1685 6.19384 13.505C6.14518 13.6556 6.06732 13.6379 5.98946 13.5759Z" fill="white" stroke="black" stroke-width="0.0743941"/>
<path d="M4.84089 13.1156C5.12313 13.8949 5.87253 14.3731 6.50514 14.3997C6.87497 14.4174 6.86523 14.3908 6.73871 14.1606C6.26183 13.3281 5.41511 13.2307 5.03554 13.0182C4.68518 12.8234 4.8117 13.0359 4.84089 13.1156Z" fill="white" stroke="black" stroke-width="0.0743941"/>
<path d="M7.1671 14.5768C6.05761 14.072 6.28145 13.2307 6.07707 13.0181C5.93108 12.8676 6.10627 12.8853 6.19386 12.9384C6.84593 13.2838 7.37148 13.8329 7.38121 14.4173C7.38121 14.6387 7.36175 14.6653 7.1671 14.5768Z" fill="white" stroke="black" stroke-width="0.0743941"/>
<path d="M8.68526 15.5157C7.28379 15.7194 6.63172 14.7541 6.22296 14.6656C6.00885 14.6213 6.16456 14.5416 6.27162 14.5328C7.20593 14.4353 8.39328 14.8338 8.75338 15.2766C8.89937 15.4537 8.89937 15.4892 8.68526 15.5157Z" fill="white" stroke="black" stroke-width="0.0743941"/>
<path d="M7.26452 14.0013C7.54676 14.8426 8.59786 15.5333 9.38618 15.5865C9.75601 15.613 9.75601 15.5776 9.61976 15.3562C8.98715 14.3113 7.88739 14.1341 7.4981 13.8685C7.16719 13.6382 7.23532 13.9216 7.26452 14.0013Z" fill="white" stroke="black" stroke-width="0.0743941"/>
<path d="M12.1509 5.39205C11.966 5.26807 11.2847 5.33892 11.1582 5.25922C11.4015 5.44519 11.9465 5.31235 12.1509 5.39205Z" fill="#006233"/>
<path d="M13.7959 5.71087C13.6499 5.47176 12.7837 5.31236 12.6572 5.09982C12.8811 5.50719 13.5526 5.45405 13.7959 5.71087Z" fill="#006233"/>
<path d="M13.6694 5.98544C13.3482 5.70206 12.5988 5.81718 12.375 5.64893C12.9005 6.08285 13.1925 5.74634 13.6694 5.98544Z" fill="#006233"/>
<path d="M11.7909 4.72778C11.9953 4.8252 12.2483 4.92261 12.3748 5.15286C12.2288 4.97574 11.9661 4.9049 11.752 4.75435C11.7617 4.75435 11.7812 4.73664 11.7909 4.72778Z" fill="#006233"/>
<path d="M14.9835 6.55226C14.857 6.28659 14.4093 5.99435 14.3704 5.89694C14.4969 6.24231 14.8667 6.32202 14.9835 6.55226Z" fill="#006233"/>
<path d="M15.1002 7.02169C14.7109 6.46378 14.0978 6.52577 13.8545 6.31323C14.0394 6.51691 14.7401 6.64975 15.1002 7.02169Z" fill="#006233"/>
<path d="M16.0058 7.88076C16.035 7.28743 15.5484 7.06604 15.5289 6.72952C15.5192 7.12803 16.0253 7.66823 16.0058 7.88076Z" fill="#006233"/>
<path d="M15.7624 8.1997C15.6651 7.68606 15.0033 7.65064 14.8865 7.34955C14.8865 7.63293 15.6651 7.92517 15.7624 8.1997Z" fill="#006233"/>
<path d="M16.3076 7.90753C16.658 8.29718 16.4147 8.89051 16.5607 9.32444C16.3855 9.00564 16.4731 8.20863 16.3076 7.90753Z" fill="#006233"/>
<path d="M15.7332 9.57272C16.2587 10.0864 16.0446 10.662 16.2587 10.9099C15.9959 10.5646 16.0349 9.89153 15.7332 9.57272Z" fill="#006233"/>
<path d="M16.8233 9.64355C16.3756 10.0952 16.6481 10.7771 16.4146 11.0959C16.6773 10.8214 16.6384 9.98007 16.8233 9.64355Z" fill="#006233"/>
<path d="M16.2588 9.64341C16.2004 9.12093 15.6651 8.8464 15.6165 8.56302C15.5581 8.8464 16.1323 9.28919 16.2588 9.64341Z" fill="#006233"/>
<path d="M15.9862 10.8924C16.0738 11.2555 15.7527 12.0348 15.85 12.2739C15.6359 11.8577 16.0349 11.0695 15.9862 10.8924Z" fill="#006233"/>
<path d="M16.6773 11.725C16.4632 12.3715 16.0349 12.3272 15.8987 12.7169C15.996 12.3449 16.5605 12.0084 16.6773 11.725Z" fill="#006233"/>
<path d="M15.2857 12.0262C15.0034 12.4601 15.237 12.956 15.0034 13.266C15.3343 12.956 15.1591 12.3804 15.2857 12.0262Z" fill="#006233"/>
<path d="M15.9664 13.213C15.6258 13.7887 14.9251 13.7355 14.6428 14.1517C14.9251 13.6293 15.7912 13.5407 15.9664 13.213Z" fill="#006233"/>
<path d="M14.7304 13.1422C14.127 13.523 14.3119 13.9215 13.8545 14.3466C14.4287 13.9215 14.38 13.4521 14.7304 13.1422Z" fill="#006233"/>
<path d="M14.448 14.6833C13.8641 14.6656 13.0271 15.3564 12.521 15.3032C13.0271 15.4007 13.9614 14.7808 14.448 14.6833Z" fill="#006233"/>
<path d="M13.5039 14.0634C13.465 14.6036 11.9467 14.9489 11.7812 15.312C11.9662 14.8338 13.2995 14.4796 13.5039 14.0634Z" fill="#006233"/>
<path d="M10.0672 4.09881C9.87251 3.94826 9.63893 3.82428 9.5708 3.67374C9.61946 3.86856 9.81411 4.01025 10.0088 4.14309C10.0282 4.13423 10.0477 4.10767 10.0672 4.09881Z" fill="#006233"/>
<path d="M9.73626 4.25819C9.43455 4.12536 9.08419 4.13421 8.92847 3.94824C9.02579 4.13421 9.35669 4.20506 9.63893 4.30247C9.66813 4.28476 9.70706 4.26705 9.73626 4.25819Z" fill="#006233"/>
<path d="M8.86035 5.39172C9.04527 5.26774 9.72654 5.33858 9.85306 5.25888C9.60975 5.44485 9.06473 5.31201 8.86035 5.39172Z" fill="#006233"/>
<path d="M7.21533 5.71056C7.36132 5.47146 8.2275 5.31205 8.35402 5.09952C8.13018 5.50688 7.45864 5.45375 7.21533 5.71056Z" fill="#006233"/>
<path d="M7.34204 5.98505C7.66321 5.70166 8.41261 5.81679 8.63645 5.64853C8.1109 6.08246 7.81893 5.74594 7.34204 5.98505Z" fill="#006233"/>
<path d="M8.63647 5.15264C8.82139 4.79841 9.34694 4.75413 9.48319 4.5416C9.27881 4.8604 8.83112 4.91353 8.63647 5.15264Z" fill="#006233"/>
<path d="M10.1353 4.84268C10.6705 4.61243 11.1961 4.80726 11.4491 4.70099C11.1377 4.85154 10.398 4.78069 10.1353 4.84268Z" fill="#006233"/>
<path d="M6.02808 6.55181C6.1546 6.28614 6.60229 5.9939 6.64122 5.89648C6.5147 6.24186 6.14487 6.32156 6.02808 6.55181Z" fill="#006233"/>
<path d="M5.91138 7.02117C6.30067 6.46326 6.91381 6.52525 7.15712 6.31271C6.97221 6.51639 6.27148 6.64923 5.91138 7.02117Z" fill="#006233"/>
<path d="M5.00615 7.88018C4.97695 7.28685 5.46357 7.06546 5.48303 6.72894C5.49277 7.12745 4.98668 7.66765 5.00615 7.88018Z" fill="#006233"/>
<path d="M5.24951 8.19899C5.34684 7.68536 6.00864 7.64994 6.12543 7.34885C6.12543 7.63223 5.34684 7.92447 5.24951 8.19899Z" fill="#006233"/>
<path d="M4.70446 7.90674C4.35409 8.29639 4.5974 8.88972 4.45142 9.32365C4.6266 9.00484 4.53901 8.20783 4.70446 7.90674Z" fill="#006233"/>
<path d="M5.27872 9.57272C4.75317 10.0864 4.96729 10.662 4.75317 10.9099C5.01595 10.5646 4.97702 9.89153 5.27872 9.57272Z" fill="#006233"/>
<path d="M4.18872 9.64355C4.63641 10.0952 4.3639 10.7771 4.59748 11.0959C4.33471 10.8214 4.37364 9.98007 4.18872 9.64355Z" fill="#006233"/>
<path d="M4.75317 9.6425C4.81157 9.12001 5.34685 8.84549 5.39551 8.5621C5.45391 8.84549 4.8797 9.28827 4.75317 9.6425Z" fill="#006233"/>
<path d="M5.02581 10.8924C4.93822 11.2555 5.25938 12.0348 5.16206 12.2739C5.37617 11.8577 4.97714 11.0695 5.02581 10.8924Z" fill="#006233"/>
<path d="M4.33447 11.725C4.54859 12.3715 4.97681 12.3272 5.11307 12.7169C5.01574 12.3449 4.45126 12.0084 4.33447 11.725Z" fill="#006233"/>
<path d="M5.72656 12.0262C6.0088 12.4601 5.77522 12.956 6.0088 13.266C5.6779 12.956 5.85308 12.3804 5.72656 12.0262Z" fill="#006233"/>
<path d="M5.04517 13.213C5.3858 13.7887 6.08653 13.7355 6.36877 14.1517C6.08653 13.6293 5.22035 13.5407 5.04517 13.213Z" fill="#006233"/>
<path d="M6.28149 13.1422C6.8849 13.523 6.69999 13.9215 7.15741 14.3466C6.5832 13.9215 6.63186 13.4521 6.28149 13.1422Z" fill="#006233"/>
<path d="M6.56372 14.6833C7.14767 14.6656 7.98465 15.3564 8.49074 15.3032C7.98465 15.4007 7.05034 14.7808 6.56372 14.6833Z" fill="#006233"/>
<path d="M7.50806 14.0634C7.54699 14.6036 9.06524 14.9489 9.23069 15.312C9.04578 14.8338 7.71244 14.4796 7.50806 14.0634Z" fill="#006233"/>
<path d="M9.71655 4.8604C9.83334 4.38219 10.4173 4.29364 10.4951 4.01025C10.4659 4.31135 9.77495 4.64786 9.71655 4.8604Z" fill="#006233"/>
<path d="M11.4396 3.67374C11.352 4.03682 10.7194 4.2405 10.6318 4.51503C10.661 4.14309 11.3131 3.93055 11.4396 3.67374Z" fill="#006233"/>
<path d="M10.9443 4.53284C11.246 4.09006 11.8689 4.20518 12.083 3.94836C11.9273 4.24946 11.1584 4.25831 10.9443 4.53284Z" fill="#006233"/>
<path d="M15.0635 10.0065C15.0635 12.3067 13.0143 14.1714 10.4864 14.1714C7.95844 14.1714 5.90918 12.3067 5.90918 10.0065C5.90918 7.70622 7.95844 5.84152 10.4864 5.84152C13.0143 5.84152 15.0635 7.70622 15.0635 10.0065Z" stroke="#F7C608" stroke-width="0.0743956" stroke-linecap="round" stroke-linejoin="round"/>
<path d="M9.58874 14.174L9.5723 14.225C9.56134 14.259 9.5251 14.277 9.48501 14.2755C9.39162 14.2505 9.26749 14.2266 9.15542 14.1967L9.25954 13.8739C9.38094 13.9063 9.50508 13.9303 9.59187 13.9442C9.62922 13.9542 9.64902 13.9872 9.63806 14.0212L9.62436 14.0636L9.58874 14.174ZM8.83718 13.8626L8.85363 13.8116C8.86459 13.7776 8.90082 13.7596 8.93817 13.7696C9.02882 13.8031 9.13814 13.8415 9.25954 13.8739L9.15542 14.1967C9.04336 14.1667 8.93129 14.1368 8.8313 14.1009C8.79669 14.0824 8.78786 14.0155 8.79882 13.9815" fill="#F7C608"/>
<path d="M9.52476 14.1459L9.51298 14.1824C9.50504 14.2071 9.47598 14.2187 9.44299 14.2163C9.36533 14.1956 9.26244 14.1745 9.16924 14.1497L9.24376 13.9186C9.34473 13.9456 9.44762 13.9666 9.51944 13.9794C9.5505 13.9877 9.56805 14.0117 9.56011 14.0363L9.55024 14.0669L9.52476 14.1459ZM8.89591 13.8986L8.90769 13.8621C8.91564 13.8374 8.94469 13.8258 8.97576 13.8341C9.05151 13.8608 9.14279 13.8917 9.24376 13.9186L9.16923 14.1497C9.07603 14.1248 8.98282 14.0999 8.89931 14.0711C8.87015 14.0568 8.86056 14.0082 8.8685 13.9835" fill="#006233"/>
<path d="M8.33665 13.7703L8.3051 13.815C8.28406 13.8448 8.24372 13.8528 8.20571 13.8411C8.12382 13.7932 8.01212 13.7384 7.91386 13.681L8.11367 13.398C8.22012 13.4602 8.33183 13.515 8.41078 13.5506C8.44353 13.5698 8.45233 13.6065 8.43129 13.6363L8.405 13.6735L8.33665 13.7703ZM7.71192 13.2789L7.74347 13.2342C7.7645 13.2044 7.80484 13.1964 7.83759 13.2155C7.91422 13.2709 8.00722 13.3358 8.11367 13.398L7.91385 13.681C7.81559 13.6235 7.71733 13.5661 7.63251 13.506C7.60502 13.4794 7.61727 13.4129 7.6383 13.3831" fill="#F7C608"/>
<path d="M8.2841 13.727L8.26149 13.759C8.24624 13.7806 8.21476 13.7843 8.18384 13.7736C8.11574 13.7337 8.02352 13.6872 7.9418 13.6394L8.08483 13.4369C8.17336 13.4886 8.26558 13.5352 8.33055 13.5658C8.35779 13.5817 8.36718 13.6093 8.35193 13.6309L8.333 13.6577L8.2841 13.727ZM7.75725 13.3285L7.77986 13.2965C7.79511 13.2749 7.82658 13.2712 7.85383 13.2871C7.91825 13.3321 7.99629 13.3851 8.08483 13.4369L7.9418 13.6394C7.86007 13.5916 7.77835 13.5439 7.70712 13.4949C7.68355 13.4737 7.68942 13.4245 7.70467 13.4029" fill="#006233"/>
<path d="M7.26043 13.062L7.21633 13.0968C7.18693 13.12 7.14575 13.1173 7.1129 13.0963C7.04914 13.0294 6.95892 12.9482 6.88242 12.8679L7.16174 12.6476C7.24462 12.7346 7.33485 12.8158 7.39957 12.8702C7.42507 12.897 7.42215 12.9345 7.39274 12.9576L7.35599 12.9866L7.26043 13.062ZM6.81313 12.4303L6.85724 12.3955C6.88664 12.3723 6.92782 12.375 6.95332 12.4018C7.00972 12.4745 7.07887 12.5606 7.16174 12.6476L6.88242 12.8679C6.80592 12.7876 6.72942 12.7073 6.66664 12.6279C6.64849 12.5953 6.68082 12.5347 6.71022 12.5115" fill="#F7C608"/>
<path d="M7.22323 13.0069L7.19163 13.0318C7.17031 13.0486 7.13896 13.0441 7.11261 13.0259C7.05959 12.9703 6.98551 12.902 6.92189 12.8352L7.12183 12.6775C7.19075 12.7498 7.26483 12.8181 7.31769 12.8642C7.3389 12.8864 7.33937 12.9153 7.31805 12.9321L7.29159 12.953L7.22323 13.0069ZM6.84106 12.4895L6.87267 12.4646C6.89399 12.4478 6.92533 12.4523 6.94654 12.4746C6.99442 12.5343 7.05289 12.6051 7.12183 12.6775L6.92189 12.8352C6.85826 12.7684 6.79463 12.7016 6.74146 12.6363C6.72539 12.61 6.74624 12.5643 6.76756 12.5475" fill="#006233"/>
<path d="M6.44699 12.1066L6.3939 12.1286C6.35851 12.1434 6.31983 12.1302 6.2948 12.1017C6.25434 12.0211 6.19291 11.9201 6.14436 11.8235L6.48058 11.6836C6.53317 11.7884 6.59461 11.8894 6.63986 11.9582C6.65605 11.9904 6.64164 12.0256 6.60625 12.0403L6.56201 12.0587L6.44699 12.1066ZM6.21335 11.3858L6.26644 11.3637C6.30183 11.349 6.3405 11.3621 6.35669 11.3944C6.38829 11.4786 6.42799 11.5789 6.48058 11.6836L6.14436 11.8234C6.09582 11.7268 6.04727 11.6301 6.01162 11.5378C6.00428 11.5019 6.05409 11.452 6.08948 11.4373" fill="#F7C608"/>
<path d="M6.42845 12.0442L6.3904 12.0601C6.36475 12.0707 6.33607 12.0584 6.31642 12.0341C6.28277 11.9671 6.23284 11.8826 6.19247 11.8022L6.43313 11.7022C6.47686 11.7893 6.5268 11.8738 6.56327 11.9315C6.57673 11.9583 6.56824 11.9861 6.54259 11.9968L6.51073 12.01L6.42845 12.0442ZM6.22192 11.4499L6.25996 11.434C6.28562 11.4234 6.31429 11.4357 6.32775 11.4625C6.35521 11.5321 6.38938 11.6151 6.43313 11.7022L6.19246 11.8022C6.15209 11.7218 6.11171 11.6415 6.0809 11.5652C6.07363 11.5358 6.10778 11.4973 6.13343 11.4867" fill="#006233"/>
<path d="M5.96207 10.9814L5.9043 10.989C5.86578 10.994 5.83273 10.9715 5.81755 10.9377C5.80367 10.85 5.776 10.7374 5.75934 10.6322L6.12523 10.5842C6.14327 10.6981 6.17095 10.8108 6.19307 10.8885C6.19862 10.9235 6.1739 10.9536 6.13539 10.9587L6.08724 10.965L5.96207 10.9814ZM5.96101 10.2299L6.01878 10.2223C6.0573 10.2173 6.09035 10.2398 6.0959 10.2749C6.10015 10.3638 6.10718 10.4702 6.12523 10.5842L5.75934 10.6322C5.74268 10.527 5.72602 10.4218 5.72038 10.3241C5.72445 10.2878 5.78769 10.2526 5.82621 10.2476" fill="#F7C608"/>
<path d="M5.96369 10.9169L5.92229 10.9223C5.89437 10.926 5.87068 10.9068 5.85932 10.8785C5.84778 10.8056 5.82603 10.7117 5.81217 10.6242L6.07407 10.5899C6.08908 10.6846 6.11083 10.7785 6.12796 10.8433C6.13258 10.8724 6.11582 10.8969 6.0879 10.9006L6.05324 10.9052L5.96369 10.9169ZM5.94952 10.2936L5.99092 10.2882C6.01884 10.2845 6.04253 10.3038 6.04715 10.3329C6.05195 10.4067 6.05906 10.4951 6.07407 10.5899L5.81217 10.6242C5.79832 10.5367 5.78446 10.4492 5.7785 10.3681C5.78062 10.3381 5.8253 10.3099 5.85323 10.3063" fill="#006233"/>
<path d="M5.84536 9.77725L5.78759 9.76972C5.74907 9.76469 5.72433 9.73462 5.72022 9.69829C5.73404 9.61063 5.74237 9.49541 5.75894 9.39021L6.12487 9.43795C6.10691 9.55191 6.09858 9.66714 6.09577 9.74729C6.09025 9.78236 6.05721 9.80489 6.0187 9.79987L5.97055 9.79358L5.84536 9.77725ZM6.07696 9.05594L6.13474 9.06347C6.17326 9.0685 6.198 9.09856 6.19248 9.13363C6.16903 9.22004 6.14283 9.32398 6.12487 9.43795L5.75894 9.39021C5.77552 9.28501 5.7921 9.17981 5.81693 9.08463C5.83208 9.05082 5.90363 9.03332 5.94215 9.03834" fill="#F7C608"/>
<path d="M5.8671 9.71574L5.82569 9.71034C5.79777 9.70669 5.78099 9.68218 5.77885 9.65214C5.79034 9.57923 5.79854 9.48356 5.81232 9.39607L6.07425 9.43024C6.05931 9.52502 6.05111 9.62069 6.04751 9.68719C6.04292 9.71635 6.01925 9.73559 5.99132 9.73194L5.95666 9.72742L5.8671 9.71574ZM6.04643 9.11408L6.08784 9.11948C6.11576 9.12313 6.13254 9.14764 6.12794 9.17681C6.10971 9.24884 6.08918 9.33545 6.07425 9.43024L5.81232 9.39606C5.82611 9.30857 5.8399 9.22107 5.85928 9.14175C5.87062 9.11346 5.92221 9.09787 5.95014 9.10151" fill="#006233"/>
<path d="M6.10594 8.59194L6.05284 8.5699C6.01744 8.55521 6.00301 8.52001 6.01032 8.48411C6.05071 8.40353 6.09437 8.29512 6.14284 8.19843L6.47915 8.33802C6.42665 8.44276 6.38298 8.55119 6.35548 8.62737C6.33933 8.6596 6.30066 8.67276 6.26525 8.65806L6.221 8.6397L6.10594 8.59194ZM6.55145 7.9592L6.60455 7.98125C6.63995 7.99594 6.65439 8.03113 6.63823 8.06336C6.58899 8.14026 6.53167 8.23327 6.47915 8.33802L6.14284 8.19843C6.19131 8.10174 6.23978 8.00505 6.29306 7.92009C6.31807 7.89153 6.39214 7.89308 6.42754 7.90777" fill="#F7C608"/>
<path d="M6.14556 8.53839L6.10751 8.5226C6.08184 8.51194 6.07333 8.48412 6.08057 8.45475C6.11417 8.38773 6.15165 8.29804 6.19196 8.21763L6.43269 8.31755C6.38902 8.40466 6.35154 8.49435 6.3275 8.55723C6.31407 8.58404 6.2854 8.59643 6.25973 8.58578L6.22787 8.57255L6.14556 8.53839ZM6.50387 8.00707L6.54193 8.02286C6.56759 8.03352 6.5761 8.06133 6.56266 8.08814C6.52287 8.15258 6.47637 8.23042 6.43269 8.31755L6.19196 8.21762C6.23228 8.13721 6.27259 8.05679 6.31574 7.98565C6.33537 7.96141 6.3897 7.95968 6.41537 7.97033" fill="#006233"/>
<path d="M6.72269 7.52117L6.67856 7.48641C6.64914 7.46324 6.64619 7.42577 6.66432 7.39319C6.72801 7.32623 6.80347 7.2334 6.8799 7.15305L7.1594 7.37319C7.0766 7.46023 7.00114 7.55307 6.95117 7.61912C6.92569 7.64591 6.88451 7.64862 6.85509 7.62544L6.81831 7.59648L6.72269 7.52117ZM7.34603 7.02824L7.39016 7.063C7.41958 7.08617 7.42254 7.12363 7.39706 7.15042C7.32601 7.21158 7.24221 7.28614 7.1594 7.37319L6.87991 7.15304C6.95635 7.07269 7.03279 6.99234 7.11021 6.92448C7.14305 6.90349 7.21364 6.92396 7.24306 6.94713" fill="#F7C608"/>
<path d="M6.77708 7.47997L6.74545 7.45506C6.72412 7.43826 6.72457 7.40939 6.74061 7.38306C6.79359 7.32737 6.85731 7.25092 6.92089 7.18409L7.12095 7.34166C7.05208 7.41405 6.98835 7.49051 6.94582 7.54468C6.92463 7.56696 6.89329 7.5715 6.87196 7.5547L6.84548 7.53385L6.77708 7.47997ZM7.28535 7.062L7.31698 7.08691C7.33831 7.10371 7.33787 7.13258 7.31667 7.15486C7.25854 7.20649 7.18982 7.26926 7.12095 7.34166L6.92089 7.18409C6.98447 7.11726 7.04804 7.05043 7.11146 6.99323C7.13781 6.97501 7.19048 6.98727 7.21181 7.00407" fill="#006233"/>
<path d="M7.64572 6.65239L7.61413 6.60773C7.59308 6.57796 7.60184 6.54125 7.62932 6.51463C7.71117 6.46671 7.8123 6.39697 7.91052 6.33947L8.11055 6.62233C8.00415 6.68462 7.90301 6.75437 7.83462 6.80494C7.80188 6.82411 7.76153 6.81615 7.74047 6.78638L7.71415 6.74916L7.64572 6.65239ZM8.39641 6.33918L8.42799 6.38384C8.44905 6.41361 8.44029 6.45032 8.40755 6.46949C8.32044 6.50997 8.21696 6.56003 8.11055 6.62233L7.91052 6.33947C8.00874 6.28196 8.10696 6.22445 8.20226 6.17918C8.24026 6.16746 8.30166 6.20519 8.32272 6.23496" fill="#F7C608"/>
<path d="M7.71091 6.62688L7.68827 6.59487C7.67301 6.57328 7.68238 6.54569 7.70592 6.52454C7.77399 6.48469 7.8588 6.42766 7.94049 6.37983L8.08367 6.5823C7.99518 6.63411 7.91037 6.69114 7.85279 6.73222C7.82556 6.74816 7.79408 6.74449 7.77881 6.7229L7.75986 6.6961L7.71091 6.62688ZM8.32799 6.3561L8.35063 6.38811C8.3659 6.40969 8.35653 6.43728 8.3293 6.45323C8.25754 6.48787 8.17217 6.53049 8.08367 6.5823L7.9405 6.37983C8.02218 6.332 8.10387 6.28417 8.18244 6.24554C8.21335 6.23481 8.26009 6.26007 8.27536 6.28166" fill="#006233"/>
<path d="M8.80036 6.05573L8.78388 6.00478C8.77289 5.97082 8.79267 5.93784 8.82727 5.91935C8.92064 5.89434 9.03926 5.85335 9.15131 5.82335L9.25568 6.14602C9.1343 6.17852 9.01567 6.21952 8.93439 6.25051C8.89704 6.26051 8.86079 6.24254 8.8498 6.20858L8.83607 6.16612L8.80036 6.05573ZM9.61761 5.9476L9.63409 5.99854C9.64508 6.03251 9.62531 6.06548 9.58796 6.07549C9.49185 6.092 9.37706 6.11351 9.25568 6.14602L9.15131 5.82334C9.26335 5.79334 9.37539 5.76333 9.48085 5.74432C9.52094 5.74281 9.56818 5.79475 9.57916 5.82872" fill="#F7C608"/>
<path d="M8.8708 6.04796L8.85899 6.01145C8.85102 5.98682 8.86856 5.96275 8.89769 5.94849C8.97534 5.92769 9.07438 5.89471 9.16756 5.86976L9.24227 6.10072C9.14132 6.12776 9.04229 6.16074 8.97432 6.1854C8.94327 6.19371 8.9142 6.18212 8.90623 6.1575L8.89634 6.12693L8.8708 6.04796ZM9.54672 5.9463L9.55853 5.98281C9.56649 6.00744 9.54897 6.03151 9.5179 6.03983C9.43833 6.05468 9.34322 6.07369 9.24227 6.10072L9.16756 5.86976C9.26075 5.8448 9.35394 5.81985 9.44128 5.80292C9.47427 5.80054 9.51129 5.83676 9.51926 5.86138" fill="#006233"/>
<path d="M10.0941 5.78018L10.0941 5.72707C10.0941 5.69167 10.1232 5.66509 10.1622 5.65622C10.2595 5.65616 10.386 5.64722 10.5028 5.64715L10.5031 5.9835C10.3765 5.98358 10.25 5.99251 10.1624 6.00142C10.1235 6.00145 10.0943 5.97491 10.0942 5.93951L10.0942 5.89525L10.0941 5.78018ZM10.9118 5.88588L10.9118 5.93899C10.9118 5.97439 10.8827 6.00096 10.8437 6.00099C10.7464 5.9922 10.6296 5.98342 10.5031 5.9835L10.5028 5.64715C10.6196 5.64708 10.7364 5.647 10.8435 5.65578C10.8824 5.66461 10.9117 5.72655 10.9117 5.76196" fill="#F7C608"/>
<path d="M10.1639 5.79075L10.1639 5.75269C10.1638 5.72702 10.1881 5.70842 10.2205 5.7022C10.3014 5.70215 10.4067 5.69589 10.5038 5.69583L10.504 5.93658C10.3988 5.93665 10.2935 5.94291 10.2207 5.94916C10.1883 5.94918 10.164 5.9306 10.164 5.90494L10.164 5.87307L10.1639 5.79075ZM10.8439 5.86644L10.844 5.9045C10.844 5.93017 10.8197 5.94878 10.7873 5.9488C10.7064 5.94265 10.6092 5.93652 10.504 5.93658L10.5038 5.69583C10.601 5.69577 10.6981 5.6957 10.7871 5.70184C10.8195 5.70802 10.8438 5.75226 10.8439 5.77793" fill="#006233"/>
<path d="M11.3328 5.83959L11.3487 5.7885C11.3593 5.75444 11.3954 5.73616 11.4355 5.73733C11.5292 5.76154 11.6535 5.78449 11.7659 5.81354L11.6648 6.13709C11.5431 6.10562 11.4187 6.08267 11.3318 6.0694C11.2944 6.05971 11.2743 6.0269 11.2849 5.99285L11.2982 5.95027L11.3328 5.83959ZM12.0873 6.14511L12.0713 6.1962C12.0607 6.23025 12.0246 6.24854 11.9872 6.23885C11.8962 6.20613 11.7865 6.16857 11.6648 6.13709L11.7659 5.81354C11.8782 5.84259 11.9906 5.87164 12.0909 5.90679C12.1257 5.92499 12.1352 5.99185 12.1245 6.02591" fill="#F7C608"/>
<path d="M11.3969 5.86721L11.4083 5.8306C11.4161 5.80591 11.445 5.79407 11.478 5.79616C11.5559 5.8163 11.659 5.83651 11.7524 5.86067L11.6801 6.09227C11.5789 6.06609 11.4758 6.04588 11.4038 6.03372C11.3727 6.02567 11.3549 6.00174 11.3626 5.97705L11.3722 5.9464L11.3969 5.86721ZM12.0281 6.10957L12.0167 6.14618C12.009 6.17087 11.9801 6.18271 11.9489 6.17466C11.8729 6.14856 11.7813 6.11844 11.6801 6.09227L11.7524 5.86067C11.8459 5.88484 11.9393 5.909 12.0231 5.9371C12.0524 5.95112 12.0625 5.99973 12.0547 6.02442" fill="#006233"/>
<path d="M12.5884 6.2335L12.6196 6.18858C12.6403 6.15862 12.6806 6.15033 12.7187 6.16173C12.801 6.20895 12.9133 6.26285 13.0121 6.31952L12.8149 6.60407C12.7079 6.54268 12.5957 6.48878 12.5164 6.45377C12.4835 6.43488 12.4743 6.39825 12.4951 6.36829L12.521 6.33085L12.5884 6.2335ZM13.2178 6.72004L13.1867 6.76496C13.1659 6.79492 13.1257 6.80322 13.0928 6.78433C13.0156 6.72962 12.922 6.66546 12.8149 6.60407L13.0121 6.31952C13.1109 6.37619 13.2097 6.43286 13.2951 6.49229C13.3228 6.51867 13.3112 6.58525 13.2904 6.6152" fill="#F7C608"/>
<path d="M12.6416 6.27646L12.6639 6.24426C12.679 6.22255 12.7104 6.21861 12.7414 6.22907C12.8099 6.26835 12.9026 6.31417 12.9848 6.3613L12.8437 6.56498C12.7546 6.51392 12.662 6.4681 12.5967 6.438C12.5693 6.42229 12.5597 6.39478 12.5747 6.37306L12.5934 6.3461L12.6416 6.27646ZM13.1723 6.67078L13.15 6.70297C13.1349 6.72469 13.1035 6.72863 13.0761 6.71292C13.0112 6.66841 12.9327 6.61604 12.8437 6.56498L12.9848 6.3613C13.0669 6.40843 13.1491 6.45556 13.2208 6.504C13.2446 6.52496 13.2392 6.57418 13.2241 6.5959" fill="#006233"/>
<path d="M13.6713 6.9331L13.7151 6.89796C13.7443 6.87454 13.7855 6.8769 13.8185 6.89761C13.8829 6.96402 13.9739 7.0445 14.0512 7.1242L13.774 7.34671C13.6903 7.26038 13.5993 7.17989 13.534 7.12598C13.5083 7.09941 13.5108 7.06192 13.54 7.0385L13.5765 7.00922L13.6713 6.9331ZM14.1246 7.56124L14.0808 7.59637C14.0517 7.61979 14.0105 7.61744 13.9847 7.59087C13.9276 7.5186 13.8577 7.43305 13.774 7.34671L14.0512 7.1242C14.1284 7.2039 14.2057 7.28359 14.2692 7.36251C14.2877 7.39493 14.2559 7.45584 14.2268 7.47926" fill="#F7C608"/>
<path d="M13.7091 6.98787L13.7405 6.96269C13.7616 6.94571 13.793 6.94999 13.8195 6.96798C13.8731 7.02321 13.9478 7.09093 14.0121 7.15721L13.8136 7.31648C13.744 7.24468 13.6693 7.17697 13.616 7.13135C13.5946 7.10926 13.5938 7.08039 13.615 7.06341L13.6412 7.04233L13.7091 6.98787ZM14.0962 7.50221L14.0648 7.52739C14.0436 7.54437 14.0123 7.5401 13.9908 7.518C13.9424 7.45867 13.8832 7.38829 13.8136 7.31648L14.0121 7.15721C14.0763 7.22349 14.1406 7.28978 14.1944 7.35464C14.2107 7.38083 14.1903 7.42668 14.1691 7.44366" fill="#006233"/>
<path d="M14.4937 7.88213L14.5466 7.85964C14.5818 7.84464 14.6206 7.85747 14.6459 7.88581C14.6872 7.96604 14.7496 8.06658 14.799 8.16285L14.4641 8.3053C14.4106 8.20101 14.3482 8.10046 14.3022 8.03201C14.2858 7.99992 14.2998 7.9646 14.3351 7.94961L14.3791 7.93087L14.4937 7.88213ZM14.7342 8.60101L14.6813 8.62351C14.6461 8.6385 14.6073 8.62568 14.5908 8.59359C14.5584 8.50962 14.5177 8.4096 14.4641 8.3053L14.799 8.16285C14.8485 8.25913 14.8979 8.3554 14.9345 8.4474C14.9421 8.48324 14.8928 8.53354 14.8576 8.54854" fill="#F7C608"/>
<path d="M14.5126 7.94428L14.5505 7.92816C14.576 7.91729 14.6048 7.92944 14.6247 7.9535C14.659 8.02022 14.7097 8.10434 14.7509 8.18441L14.5112 8.28638C14.4666 8.19964 14.4159 8.11552 14.3789 8.05809C14.3651 8.0314 14.3734 8.00351 14.3989 7.99264L14.4306 7.97914L14.5126 7.94428ZM14.7248 8.537L14.6869 8.55312C14.6613 8.56399 14.6325 8.55185 14.6188 8.52516C14.5907 8.45581 14.5557 8.37312 14.5112 8.28638L14.7509 8.18442C14.792 8.26448 14.8332 8.34455 14.8647 8.42057C14.8722 8.44989 14.8385 8.48865 14.8129 8.49952" fill="#006233"/>
<path d="M14.9891 9.00325L15.0468 8.99522C15.0853 8.98987 15.1185 9.01212 15.134 9.0458C15.1487 9.13334 15.1775 9.24581 15.1951 9.35087L14.8297 9.40172C14.8106 9.28792 14.7819 9.17544 14.759 9.09799C14.7531 9.06298 14.7776 9.03269 14.816 9.02734L14.8641 9.02065L14.9891 9.00325ZM14.9973 9.75469L14.9396 9.76272C14.9012 9.76808 14.8679 9.74583 14.862 9.71081C14.8569 9.62193 14.8489 9.51554 14.8297 9.40172L15.1951 9.35087C15.2128 9.45593 15.2305 9.56098 15.237 9.65862C15.2333 9.69498 15.1704 9.73061 15.1319 9.73596" fill="#F7C608"/>
<path d="M14.988 9.06779L15.0294 9.06203C15.0573 9.05815 15.0811 9.07719 15.0927 9.10537C15.105 9.17818 15.1276 9.27191 15.1423 9.35928L14.8808 9.39568C14.8649 9.30103 14.8422 9.20731 14.8245 9.14271C14.8196 9.11359 14.8361 9.08893 14.864 9.08505L14.8986 9.08024L14.988 9.06779ZM15.0081 9.69092L14.9668 9.69667C14.9389 9.70056 14.915 9.68153 14.9101 9.6524C14.9046 9.57865 14.8967 9.49034 14.8808 9.39568L15.1423 9.35928C15.157 9.44666 15.1717 9.53403 15.1784 9.61506C15.1766 9.64513 15.1322 9.67366 15.1043 9.67754" fill="#006233"/>
<path d="M15.1174 10.2063L15.1752 10.2134C15.2138 10.2181 15.2388 10.248 15.2433 10.2843C15.2303 10.3721 15.2231 10.4874 15.2075 10.5927L14.8411 10.5478C14.858 10.4337 14.8652 10.3184 14.8673 10.2383C14.8725 10.2032 14.9053 10.1804 14.9438 10.1851L14.9921 10.191L15.1174 10.2063ZM14.8927 10.9294L14.8348 10.9224C14.7963 10.9176 14.7712 10.8878 14.7764 10.8527C14.799 10.7661 14.8243 10.6619 14.8411 10.5478L15.2075 10.5927C15.1919 10.698 15.1763 10.8033 15.1524 10.8987C15.1376 10.9326 15.0662 10.9507 15.0276 10.946" fill="#F7C608"/>
<path d="M15.0965 10.2681L15.138 10.2731C15.1659 10.2766 15.1829 10.3009 15.1854 10.331C15.1746 10.404 15.1673 10.4997 15.1543 10.5873L14.8921 10.5552C14.9061 10.4603 14.9134 10.3645 14.9164 10.298C14.9207 10.2688 14.9442 10.2494 14.9721 10.2528L15.0068 10.2571L15.0965 10.2681ZM14.9229 10.8711L14.8815 10.866C14.8535 10.8626 14.8365 10.8382 14.8408 10.809C14.8584 10.7368 14.8781 10.6501 14.8921 10.5552L15.1543 10.5873C15.1414 10.6749 15.1284 10.7625 15.1098 10.8419C15.0987 10.8703 15.0473 10.8863 15.0193 10.8829" fill="#006233"/>
<path d="M14.8682 11.3933L14.9215 11.4149C14.9571 11.4293 14.9718 11.4644 14.9649 11.5004C14.9253 11.5813 14.8826 11.69 14.8351 11.7871L14.4974 11.6501C14.5489 11.545 14.5916 11.4362 14.6183 11.3598C14.6342 11.3275 14.6727 11.314 14.7083 11.3284L14.7527 11.3464L14.8682 11.3933ZM14.4287 12.0295L14.3754 12.0079C14.3399 11.9935 14.3251 11.9584 14.341 11.926C14.3895 11.8488 14.4459 11.7553 14.4974 11.6501L14.8351 11.7871C14.7875 11.8841 14.74 11.9812 14.6875 12.0666C14.6628 12.0953 14.5887 12.0944 14.5531 12.08" fill="#F7C608"/>
<path d="M14.8292 11.4471L14.8674 11.4626C14.8932 11.4731 14.9019 11.5008 14.895 11.5302C14.862 11.5975 14.8254 11.6875 14.7859 11.7682L14.5442 11.6702C14.587 11.5828 14.6236 11.4928 14.6471 11.4297C14.6602 11.4028 14.6888 11.3902 14.7146 11.4006L14.7466 11.4136L14.8292 11.4471ZM14.4759 11.9812L14.4377 11.9657C14.412 11.9553 14.4032 11.9275 14.4164 11.9006C14.4556 11.8359 14.5013 11.7577 14.5442 11.6702L14.7859 11.7682C14.7463 11.849 14.7068 11.9297 14.6643 12.0012C14.6449 12.0256 14.5906 12.0277 14.5648 12.0173" fill="#006233"/>
<path d="M14.2613 12.4685L14.3058 12.5029C14.3354 12.5258 14.3387 12.5633 14.3209 12.596C14.2579 12.6635 14.1833 12.7569 14.1076 12.8378L13.8261 12.6199C13.908 12.5322 13.9826 12.4388 14.0319 12.3723C14.0572 12.3453 14.0983 12.3423 14.128 12.3653L14.165 12.3939L14.2613 12.4685ZM13.6427 12.9663L13.5983 12.9319C13.5686 12.909 13.5653 12.8715 13.5905 12.8445C13.661 12.7828 13.7441 12.7076 13.8261 12.6199L14.1076 12.8378C14.032 12.9188 13.9563 12.9997 13.8795 13.0682C13.8469 13.0895 13.7761 13.0695 13.7465 13.0466" fill="#F7C608"/>
<path d="M14.2072 12.5101L14.2391 12.5347C14.2606 12.5514 14.2604 12.5802 14.2446 12.6067C14.1922 12.6628 14.1292 12.7397 14.0662 12.8071L13.8647 12.6511C13.9329 12.5781 13.9959 12.5012 14.0379 12.4467C14.0589 12.4242 14.0901 12.4195 14.1116 12.4361L14.1383 12.4567L14.2072 12.5101ZM13.7029 12.932L13.6711 12.9074C13.6496 12.8907 13.6498 12.8619 13.6707 12.8394C13.7284 12.7873 13.7965 12.724 13.8647 12.6511L14.0662 12.8071C14.0033 12.8744 13.9404 12.9417 13.8775 12.9994C13.8513 13.0179 13.7985 13.006 13.777 12.9894" fill="#006233"/>
<path d="M13.3463 13.3446L13.3783 13.389C13.3997 13.4186 13.3913 13.4553 13.364 13.4822C13.2826 13.5307 13.1822 13.6013 13.0845 13.6595L12.8818 13.3783C12.9876 13.3151 13.0881 13.2446 13.156 13.1935C13.1885 13.1741 13.229 13.1817 13.2503 13.2113L13.277 13.2483L13.3463 13.3446ZM12.5986 13.6637L12.5666 13.6193C12.5453 13.5896 12.5537 13.5529 12.5863 13.5334C12.673 13.4923 12.776 13.4414 12.8818 13.3783L13.0845 13.6596C12.9868 13.7178 12.8892 13.7761 12.7943 13.8221C12.7564 13.8342 12.6947 13.7969 12.6733 13.7673" fill="#F7C608"/>
<path d="M13.2813 13.3706L13.3042 13.4024C13.3197 13.4239 13.3106 13.4515 13.2872 13.4729C13.2196 13.5133 13.1353 13.5709 13.0541 13.6194L12.909 13.4181C12.997 13.3656 13.0812 13.3079 13.1384 13.2664C13.1655 13.2502 13.197 13.2536 13.2125 13.2751L13.2317 13.3017L13.2813 13.3706ZM12.6668 13.6462L12.6439 13.6144C12.6284 13.5929 12.6375 13.5652 12.6646 13.5491C12.736 13.5139 12.821 13.4706 12.909 13.4181L13.0541 13.6194C12.9728 13.6679 12.8916 13.7164 12.8134 13.7556C12.7826 13.7666 12.7356 13.7417 12.7201 13.7202" fill="#006233"/>
<path d="M12.1974 13.9505L12.2144 14.0014C12.2257 14.0352 12.2063 14.0684 12.1718 14.0871C12.0787 14.1129 11.9605 14.1548 11.8487 14.1857L11.7413 13.8639C11.8623 13.8304 11.9806 13.7885 12.0616 13.7568C12.0988 13.7465 12.1352 13.7642 12.1466 13.7981L12.1607 13.8404L12.1974 13.9505ZM11.3812 14.0651L11.3643 14.0143C11.353 13.9804 11.3724 13.9473 11.4097 13.937C11.5056 13.9197 11.6202 13.8973 11.7413 13.8639L11.8487 14.1857C11.737 14.2166 11.6252 14.2475 11.5199 14.2673C11.4799 14.2691 11.4321 14.2176 11.4208 14.1837" fill="#F7C608"/>
<path d="M12.1275 13.9589L12.1397 13.9953C12.1479 14.0199 12.1306 14.0441 12.1016 14.0586C12.0241 14.08 11.9254 14.1137 11.8324 14.1394L11.7555 13.909C11.8562 13.8812 11.9549 13.8475 12.0227 13.8223C12.0537 13.8137 12.0828 13.8251 12.091 13.8496L12.1012 13.8801L12.1275 13.9589ZM11.4526 14.0659L11.4404 14.0294C11.4322 14.0049 11.4495 13.9807 11.4805 13.9721C11.5599 13.9566 11.6548 13.9369 11.7555 13.909L11.8324 14.1394C11.7395 14.1651 11.6465 14.1908 11.5594 14.2084C11.5264 14.211 11.489 14.1751 11.4808 14.1506" fill="#006233"/>
<path d="M10.9072 14.238L10.9077 14.2911C10.9081 14.3265 10.8792 14.3533 10.8403 14.3625C10.743 14.3633 10.6166 14.3732 10.4998 14.3742L10.4963 14.0379C10.6228 14.0368 10.7493 14.0269 10.8368 14.0173C10.8757 14.0169 10.9052 14.0432 10.9055 14.0787L10.906 14.1229L10.9072 14.238ZM10.0886 14.1387L10.088 14.0856C10.0877 14.0502 10.1166 14.0234 10.1555 14.0231C10.2529 14.0311 10.3698 14.039 10.4963 14.0379L10.4998 14.3742C10.383 14.3752 10.2662 14.3762 10.1591 14.3683C10.1201 14.3598 10.0902 14.298 10.0899 14.2626" fill="#F7C608"/>
<path d="M10.8371 14.228L10.8375 14.266C10.8377 14.2917 10.8136 14.3105 10.7813 14.317C10.7004 14.3177 10.5952 14.3247 10.4981 14.3256L10.4956 14.0848C10.6008 14.0839 10.706 14.0768 10.7788 14.07C10.8111 14.0697 10.8356 14.0881 10.8359 14.1138L10.8362 14.1457L10.8371 14.228ZM10.1564 14.1576L10.156 14.1196C10.1557 14.0939 10.1798 14.0751 10.2122 14.0748C10.2932 14.0803 10.3904 14.0857 10.4956 14.0848L10.4981 14.3256C10.4009 14.3264 10.3038 14.3272 10.2147 14.3218C10.1823 14.3159 10.1575 14.2718 10.1573 14.2461" fill="#006233"/>
</g>
</svg>
