<svg fill="none" height="20" viewBox="0 0 20 20" width="20" xmlns="http://www.w3.org/2000/svg" xmlns:xlink="http://www.w3.org/1999/xlink"><clipPath id="a"><path d="m0 0h20v20h-20z"/></clipPath><g clip-path="url(#a)"><path d="m.622009 13.4783c1.412931 3.8079 5.078361 6.5217 9.377991 6.5217 4.2997 0 7.9651-2.7138 9.378-6.5217l-9.378-.8696z" fill="#ffda44"/><path d="m10 0c-4.29963 0-7.96506 2.71375-9.377991 6.52176l9.377991.86953 9.378-.86957c-1.4129-3.80797-5.0783-6.52172-9.378-6.52172z" fill="#000"/><path d="m.621992 6.52176c-.401953 1.08332-.621992 2.25504-.621992 3.47824s.220039 2.3949.621992 3.4782h18.756008c.402-1.0833.622-2.255.622-3.4782s-.22-2.39492-.622-3.47824z" fill="#d80027"/></g></svg>