<svg fill="none" height="20" viewBox="0 0 20 20" width="20" xmlns="http://www.w3.org/2000/svg"><path d="m0 10c0 1.2232.220039 2.3949.621992 3.4782l9.378008.8696 9.378-.8696c.402-1.0833.622-2.255.622-3.4782s-.22-2.39492-.622-3.47824l-9.378-.86957-9.378008.86957c-.401953 1.08332-.621992 2.25504-.621992 3.47824z" fill="#ffda44"/><g fill="#d80027"><path d="m19.378 6.52176c-1.4129-3.80797-5.0783-6.52176-9.378-6.52176-4.29963 0-7.96506 2.71379-9.377991 6.52176z"/><path d="m.622009 13.4782c1.412931 3.808 5.078361 6.5218 9.377991 6.5218 4.2997 0 7.9651-2.7138 9.378-6.5218z"/></g></svg>