<svg width="64" height="64" viewBox="0 0 64 64" fill="none" xmlns="http://www.w3.org/2000/svg">
<path d="M64 32C64 35.74 63.36 39.33 62.18 42.67C60.78 46.65 58.61 50.26 55.85 53.34C49.99 59.88 41.47 64 32 64C22.53 64 14.01 59.88 8.15 53.34C5.39 50.26 3.22 46.65 1.82 42.67C0.64 39.33 0 35.74 0 32H64Z" fill="#FCD000"/>
<path d="M64 32H0C0 28.26 0.64 24.68 1.82 21.34C3.22 17.36 5.39 13.75 8.14 10.67C14.01 4.12 22.52 0 32 0C41.48 0 49.99 4.12 55.86 10.67C58.61 13.75 60.78 17.36 62.18 21.34C63.36 24.68 64 28.26 64 32Z" fill="#004AAC"/>
</svg>
