<svg width="96" height="96" viewBox="0 0 96 96" fill="none" xmlns="http://www.w3.org/2000/svg">
<rect width="96" height="96" rx="25" fill="#101010"/>
<rect x="0.5" y="0.5" width="95" height="95" rx="24.5" stroke="white" stroke-opacity="0.1"/>
<g clip-path="url(#clip0_358_130)">
<path d="M70.5257 66.192L70.5076 66.2127C68.3468 68.6726 65.6188 70.5687 62.5601 71.7366C56.6915 73.9529 50.7658 73.8621 44.949 71.4774C39.0182 69.0408 33.7121 63.9913 31.0992 58.3015C29.9471 55.8134 29.3164 53.1158 29.2458 50.3747C29.2199 49.8096 29.2199 49.1487 29.2199 49.032V48.6043C29.2199 48.4617 29.2199 48.3192 29.2199 48.1792C29.3142 44.252 30.8483 40.4965 33.5307 37.6266C34.7162 36.3453 36.1514 35.3202 37.7481 34.6145C39.3859 33.9054 41.1478 33.5275 42.9324 33.5025C42.2875 34.0166 41.681 34.5771 41.1179 35.1796C37.8777 38.6634 36.0969 43.433 36.0969 48.6302C36.0969 53.8275 37.8777 58.6074 41.1153 62.0834C42.9323 64.0545 45.2083 65.546 47.7408 66.4253C49.5926 67.0598 51.5379 67.3788 53.4953 67.3688C56.8885 67.3688 61.7902 66.4538 65.8132 62.099C67.2055 60.5946 68.3303 58.8631 69.1389 56.9795H75.7852C74.7198 60.3922 72.9302 63.5346 70.5387 66.192M26.3115 66.192C21.993 61.6143 19.629 55.3724 19.629 48.6069C19.629 41.8414 22.0008 35.5347 26.3193 30.887C30.6845 26.2212 36.7009 23.629 43.259 23.629C44.8745 23.6271 46.4862 23.7868 48.07 24.106C56.3648 25.7883 62.8919 31.8824 65.5332 40.2628H58.8922C58.0866 38.38 56.9653 36.6486 55.5768 35.1433C53.7778 33.1813 51.5213 31.6951 49.0083 30.817C47.1584 30.1823 45.2148 29.8633 43.259 29.8735C40.8617 29.8567 38.4875 30.3414 36.2887 31.2966C34.2412 32.2008 32.4009 33.5153 30.8815 35.1589C30.4979 35.5719 30.1341 35.997 29.7902 36.4342C27.605 38.8423 26.2104 42.0332 25.749 45.9759C25.6555 46.6765 25.601 47.3818 25.5857 48.0885C25.5857 48.2595 25.5857 48.4332 25.5857 48.6069V48.6302C25.5857 48.6873 25.5857 48.7443 25.5857 48.8013V48.962C25.5857 49.3975 25.5987 49.833 25.6194 50.2581C25.6194 50.3203 25.6194 50.3851 25.6194 50.4473C25.7033 53.6803 26.4469 56.862 27.8046 59.7972C30.2775 65.1811 34.8552 70.0569 40.1925 73.1441C34.8851 72.528 29.9646 70.0609 26.296 66.1764M68.4676 28.9144C71.9808 31.8541 74.4823 35.8227 75.6193 40.2602H69.3126C67.3892 33.2381 63.1148 27.5017 57.3887 23.9478C61.4694 24.5542 65.3042 26.2725 68.4727 28.9144M55.5768 62.0757C56.9653 60.5704 58.0866 58.839 58.8922 56.9562H65.1004C64.5597 57.9212 63.9072 58.8191 63.1563 59.6313C60.1286 62.9 56.453 63.6828 53.8012 63.7372C54.4321 63.2266 55.0255 62.6713 55.5768 62.0757ZM79.9844 53.3272H56.3804L55.9527 54.5351C55.2979 56.4144 54.2668 58.1405 52.9225 59.608C51.6527 60.994 50.086 62.0751 48.3396 62.7704C46.6003 62.0661 45.0387 60.9852 43.767 59.6054C41.1567 56.8084 39.7181 52.9202 39.7181 48.6302C39.7181 44.3402 41.1567 40.4572 43.767 37.6525C44.9514 36.3703 46.3858 35.3443 47.9819 34.6378C48.1192 34.5782 48.2618 34.5212 48.4044 34.4642C50.1231 35.1664 51.6658 36.2391 52.9225 37.6058C54.2664 39.0746 55.2974 40.8014 55.9527 42.6813L56.3804 43.8866H80C80 36.7608 75.4612 30.042 70.7927 26.1304C66.0284 22.1359 60.0405 20.0233 53.4953 20.0233C51.7983 20.0235 50.1048 20.177 48.4355 20.4821C46.7262 20.1599 44.9906 19.9985 43.2512 20C35.6847 20 28.7274 22.9913 23.6676 28.4245C18.7243 33.7384 16 40.903 16 48.6069C16 56.3107 18.7217 63.4288 23.6624 68.6753C28.6989 74.0229 35.651 76.9701 43.2356 76.9701C44.962 76.9701 47.5049 76.9701 49.4127 76.5502C50.9522 76.8302 52.5138 76.9716 54.0786 76.9727C57.4182 76.9572 60.727 76.3335 63.8432 75.1323C67.4453 73.7592 70.6594 71.5307 73.2086 68.639L73.2241 68.6234C76.4876 65.0281 79.6112 59.7479 79.987 53.3298" fill="#BF866F"/>
<path d="M40.1894 73.1545C34.884 72.5368 29.9657 70.0699 26.2981 66.1868C24.5367 64.3052 23.0915 62.151 22.0185 59.8076H18.0732C19.3526 63.0927 21.2487 66.1027 23.6593 68.6753C28.6958 74.0229 35.648 76.9701 43.2326 76.9701C44.9564 76.9701 47.4992 76.9701 49.4045 76.5528C46.1657 75.9385 43.0515 74.7901 40.1894 73.1545Z" fill="#BF866F"/>
<path d="M43.7669 37.6525C44.9512 36.3703 46.3857 35.3444 47.9817 34.6379C48.1191 34.5782 48.2591 34.5212 48.3991 34.4668C47.4983 34.0744 46.5542 33.7899 45.5866 33.6191C44.6208 33.4645 43.6396 33.4297 42.6653 33.5155H42.9245C42.2796 34.0296 41.6731 34.5901 41.11 35.1926C38.8594 37.6474 37.305 40.6586 36.6074 43.9151H40.3401C40.9587 41.581 42.1346 39.4319 43.7669 37.6525Z" fill="#BF866F"/>
</g>
<defs>
<clipPath id="clip0_358_130">
<rect width="64" height="56.9701" fill="white" transform="translate(16 20)"/>
</clipPath>
</defs>
</svg>
