<svg width="96" height="96" viewBox="0 0 96 96" fill="none" xmlns="http://www.w3.org/2000/svg">
<rect width="96" height="96" rx="25" fill="#101010"/>
<rect x="0.5" y="0.5" width="95" height="95" rx="24.5" stroke="white" stroke-opacity="0.1"/>
<g clip-path="url(#clip0_358_127)">
<path d="M18.9712 40.476L41.3184 18.6676C43.0765 16.9491 45.4461 15.9981 47.9062 16.0238C50.3663 16.0495 52.7155 17.0497 54.4372 18.8045L77.3686 42.2003C78.141 42.9877 78.7505 43.9193 79.1622 44.942C79.5739 45.9647 79.7798 47.0584 79.768 48.1605C79.7562 49.2627 79.527 50.3517 79.0935 51.3654C78.66 52.3791 78.0307 53.2975 77.2416 54.0682L53.0761 77.6364C51.5099 79.1652 49.4002 80.011 47.2101 79.9882C45.0201 79.9654 42.9285 79.0758 41.3946 77.5147L18.8391 54.5043C16.9963 52.6252 15.9752 50.0929 16 47.4629C16.0247 44.8329 17.0933 42.3201 18.9712 40.476Z" fill="#0031D2"/>
<path d="M22.2371 31.9708L50.1711 17.9678C52.3673 16.8707 54.9095 16.6881 57.2403 17.4601C59.5711 18.2321 61.5001 19.8957 62.6043 22.0861L77.3078 51.3144C78.3003 53.3031 78.4631 55.6036 77.7605 57.712C77.058 59.8204 75.5474 61.5649 73.5595 62.5634L43.3857 77.7279C41.4277 78.7083 39.1605 78.8739 37.0805 78.1886C35.0005 77.5032 33.2773 76.0226 32.2882 74.0711L17.8133 45.2942C17.2277 44.1293 16.8776 42.8607 16.783 41.5607C16.6884 40.2607 16.8511 38.9548 17.2619 37.7176C17.6727 36.4804 18.3235 35.3362 19.1771 34.3501C20.0307 33.3641 21.0705 32.5556 22.2371 31.9708Z" fill="#BBFFFF"/>
<path d="M77.6935 53.556L77.983 53.1959C77.8353 52.5515 77.612 51.9268 77.3176 51.3346L67.8454 32.5033L53.9394 18.3228C53.4537 17.892 52.9243 17.513 52.3598 17.1918C51.5933 17.3556 50.8509 17.6164 50.1505 17.9678L33.4155 26.3615L30.4798 29.2321L17.0156 43.1083C17.1892 43.8652 17.4517 44.5989 17.7978 45.2942L26.2643 62.0867L41.3386 77.459L41.4046 77.5199C41.4046 77.5199 41.8465 77.9611 42.1817 78.2249C42.5985 78.0865 43.0042 77.9169 43.3955 77.7177L63.0256 67.8684L77.6935 53.5307V53.556Z" fill="#006EE3"/>
<path d="M54.4981 46.5723V57.2584H40.912V38.4525H54.4981V42.9359L59.8309 39.8625V37.3773C59.8296 36.2613 59.385 35.1914 58.5948 34.4022C57.8045 33.6131 56.733 33.1691 55.6154 33.1678H40.0232C38.8445 33.1678 37.7142 33.6353 36.8807 34.4676C36.0473 35.2998 35.5791 36.4286 35.5791 37.6055V58.5061C35.5818 59.6997 36.0578 60.8437 36.903 61.6877C37.7483 62.5317 38.8939 63.0071 40.0892 63.0098H54.7114C56.0692 63.0098 57.3714 62.4712 58.3315 61.5124C59.2916 60.5537 59.8309 59.2533 59.8309 57.8975V43.4989L54.4981 46.5723Z" fill="white"/>
</g>
<defs>
<clipPath id="clip0_358_127">
<rect width="63.7607" height="64" fill="white" transform="translate(16 16)"/>
</clipPath>
</defs>
</svg>
