<svg width="96" height="96" viewBox="0 0 96 96" fill="none" xmlns="http://www.w3.org/2000/svg">
<rect width="96" height="96" rx="25" fill="#101010"/>
<rect x="0.5" y="0.5" width="95" height="95" rx="24.5" stroke="white" stroke-opacity="0.1"/>
<path d="M48 16C30.327 16 16 30.327 16 48C16 65.673 30.327 80 48 80C65.673 80 80 65.673 80 48C80 30.327 65.673 16 48 16ZM74.7834 49.7945L76.8237 51.7836C77.1572 52.1081 77.0721 52.6643 76.6567 52.8749L74.114 54.1619C73.7499 54.3469 73.6295 54.8095 73.8592 55.1475L75.4574 57.5071C75.7179 57.8924 75.5232 58.4198 75.0734 58.542L72.3246 59.2915C71.9304 59.3984 71.7198 59.8279 71.876 60.206L72.9666 62.8377C73.1445 63.2678 72.847 63.7452 72.383 63.7746L69.5395 63.9551C69.1311 63.9808 68.8387 64.359 68.9161 64.7603L69.4543 67.5584C69.542 68.0154 69.1542 68.4236 68.694 68.3584L65.8722 67.9629C65.4671 67.9059 65.1048 68.217 65.0997 68.6259L65.0626 71.4751C65.0568 71.9404 64.5953 72.2616 64.1563 72.1055L61.4728 71.15C61.0882 71.013 60.6696 71.2448 60.582 71.6441L59.9733 74.4275C59.8741 74.8819 59.3563 75.104 58.959 74.8634L56.5218 73.3862C56.1717 73.1744 55.7155 73.3184 55.5497 73.6915L54.3926 76.295C54.2038 76.7206 53.6527 76.8339 53.3116 76.5177L51.2213 74.5811C50.9218 74.3034 50.4463 74.352 50.2082 74.6841L48.5512 77.0016C48.2805 77.3805 47.718 77.3805 47.4472 77.0016L45.7896 74.6841C45.5521 74.3514 45.0766 74.3034 44.7765 74.5811L42.6862 76.5177C42.3451 76.8339 41.7935 76.7206 41.6052 76.295L40.4487 73.6915C40.2824 73.3184 39.826 73.1744 39.4766 73.3862L37.0395 74.8634C36.6414 75.104 36.1242 74.8819 36.0251 74.4275L35.4158 71.6441C35.3288 71.2448 34.9109 71.0131 34.5256 71.15L31.8415 72.1055C31.4037 72.2616 30.9416 71.9398 30.9352 71.4751L30.8993 68.6259C30.8936 68.2169 30.5313 67.9059 30.1262 67.9629L27.3051 68.3584C26.8436 68.4236 26.4565 68.0154 26.5447 67.5584L27.083 64.7603C27.1597 64.359 26.8673 63.9808 26.4596 63.9551L23.6161 63.7746C23.1515 63.7452 22.8545 63.2678 23.0325 62.8377L24.1224 60.206C24.2785 59.8278 24.0686 59.3984 23.6744 59.2915L20.9249 58.542C20.4762 58.4198 20.2804 57.8918 20.5415 57.5071L22.139 55.1475C22.3681 54.8096 22.2485 54.3469 21.8842 54.1619L19.3421 52.8749C18.9274 52.6644 18.8416 52.1081 19.1745 51.7836L21.2148 49.7945C21.508 49.5098 21.4836 49.0323 21.1636 48.7775L18.9332 47.0048C18.5691 46.7155 18.5972 46.1535 18.9889 45.902L21.3889 44.3648C21.7325 44.144 21.8049 43.6716 21.5431 43.358L19.714 41.173C19.4157 40.8159 19.5565 40.2713 19.9911 40.1043L22.6504 39.0809C23.0318 38.9344 23.1976 38.485 23.0042 38.126L21.6532 35.6173C21.4325 35.2076 21.6801 34.702 22.1396 34.6259L24.9505 34.1594C25.3537 34.0929 25.6065 33.687 25.4894 33.2947L24.6708 30.5651C24.5371 30.1196 24.8814 29.6742 25.3467 29.6928L28.1941 29.8009C28.6025 29.8163 28.9313 29.4694 28.8956 29.063L28.6435 26.2246C28.6025 25.7606 29.0293 25.3945 29.4812 25.5053L32.2479 26.1843C32.6447 26.2815 33.0371 26.0089 33.0844 25.6025L33.4083 22.7718C33.4614 22.3096 33.9529 22.037 34.3741 22.2361L36.9482 23.4585C37.3168 23.6333 37.7565 23.445 37.8838 23.0566L38.7715 20.3488C38.9161 19.9071 39.4524 19.7382 39.8249 20.0179L42.1002 21.7338C42.4266 21.9795 42.8944 21.8829 43.0979 21.529L44.5123 19.0554C44.7427 18.6515 45.3027 18.5946 45.6106 18.9434L47.4934 21.0822C47.7636 21.3888 48.2416 21.3888 48.5117 21.0822L50.3952 18.9434C50.7024 18.5946 51.2617 18.6515 51.4934 19.0554L52.9072 21.529C53.1101 21.8835 53.5786 21.9795 53.9049 21.7338L56.1802 20.0179C56.5521 19.7375 57.0889 19.9065 57.2337 20.3488L58.1207 23.0566C58.2481 23.4451 58.6877 23.6333 59.057 23.4585L61.6305 22.2361C62.0504 22.0371 62.5425 22.3098 62.5957 22.7718L62.9202 25.6025C62.9663 26.0089 63.3592 26.2821 63.756 26.1843L66.5234 25.5053C66.9753 25.3945 67.4021 25.7606 67.3611 26.2246L67.109 29.063C67.0725 29.47 67.4021 29.8169 67.8111 29.8009L70.6579 29.6928C71.1231 29.6749 71.4675 30.1196 71.3338 30.5651L70.5159 33.2947C70.3981 33.6864 70.6509 34.0922 71.0547 34.1594L73.8656 34.6259C74.3245 34.702 74.5729 35.2076 74.352 35.6173L73.001 38.126C72.8071 38.4856 72.9729 38.9344 73.3549 39.0809L76.0134 40.1043C76.448 40.2713 76.5888 40.8159 76.2905 41.173L74.4626 43.358C74.2003 43.6716 74.2725 44.1445 74.6163 44.3648L77.015 45.902C77.4066 46.1535 77.4355 46.7155 77.0714 47.0048L74.841 48.7775C74.5152 49.0316 74.4909 49.5091 74.7834 49.7945Z" fill="white"/>
<path d="M52.7987 52.0691C52.2406 51.6768 51.3862 51.3799 50.2349 51.1776V56.3335C52.5011 56.0416 53.6352 55.2 53.6352 53.8106C53.6352 53.0432 53.3561 52.4634 52.7987 52.0691Z" fill="white"/>
<path d="M42.3374 42.4307C42.3374 43.1987 42.6293 43.7843 43.2149 44.1856C43.7993 44.5881 44.6863 44.8986 45.8748 45.1181V39.8528C44.5398 39.9994 43.6163 40.2963 43.1049 40.7443C42.5928 41.1923 42.3374 41.7542 42.3374 42.4307Z" fill="white"/>
<path d="M48 24C34.745 24 24 34.745 24 48C24 61.255 34.745 72 48 72C61.2544 72 72 61.255 72 48C72 34.745 61.2544 24 48 24ZM57.2135 59.2135C55.577 60.5485 53.2512 61.3799 50.235 61.7082V64.5332H45.8753V61.8458C44.0827 61.7907 42.397 61.6307 40.8155 61.3658C39.234 61.1008 37.9227 60.7309 36.8807 60.2554V54.8813C37.5937 55.1373 38.2881 55.3613 38.9652 55.5526C39.6411 55.7453 40.3361 55.9098 41.0497 56.0461C41.7621 56.1837 42.5115 56.2938 43.2981 56.3757C44.0833 56.4576 44.9436 56.5089 45.876 56.5261V50.521C44.7233 50.3559 43.581 50.1325 42.4481 49.8484C41.3146 49.5661 40.2951 49.1411 39.3909 48.5735C38.4859 48.0071 37.7499 47.257 37.1835 46.3245C36.6165 45.3926 36.3336 44.1856 36.3336 42.7053C36.3336 41.4982 36.5531 40.4249 36.9915 39.4835C37.4305 38.542 38.061 37.7286 38.8833 37.0425C39.7064 36.357 40.7073 35.8048 41.8862 35.383C43.0651 34.9631 44.395 34.6706 45.876 34.5055V31.6819H50.2363V34.4236C51.5701 34.4966 52.9276 34.6483 54.308 34.8761C55.6878 35.1046 56.9544 35.4208 58.1064 35.822V41.2518C55.291 40.3379 52.667 39.8253 50.2362 39.7164V45.804C51.3876 45.987 52.5255 46.229 53.65 46.531C54.7745 46.8325 55.7792 47.2709 56.6664 47.8475C57.5527 48.4229 58.2753 49.1774 58.8327 50.1099C59.3902 51.0418 59.6692 52.2398 59.6692 53.7015C59.6672 56.0416 58.8493 57.879 57.2135 59.2135Z" fill="white"/>
</svg>
