<svg width="96" height="96" viewBox="0 0 96 96" fill="none" xmlns="http://www.w3.org/2000/svg">
<rect width="96" height="96" rx="25" fill="#101010"/>
<rect x="0.5" y="0.5" width="95" height="95" rx="24.5" stroke="white" stroke-opacity="0.1"/>
<path d="M76.8124 18L51.8398 36.5475L56.4579 25.6047L76.8124 18Z" fill="#E2761B" stroke="#E2761B" stroke-linecap="round" stroke-linejoin="round"/>
<path d="M19.1626 18L43.9344 36.7231L39.5422 25.6047L19.1626 18ZM67.8277 60.9929L61.1768 71.1827L75.4073 75.098L79.4983 61.2188L67.8277 60.9929ZM16.5273 61.2188L20.5932 75.098L34.8238 71.1827L28.1728 60.9929L16.5273 61.2188Z" fill="#E4761B" stroke="#E4761B" stroke-linecap="round" stroke-linejoin="round"/>
<path d="M34.0212 43.7756L30.0557 49.7741L44.1859 50.4015L43.6839 35.2172L34.0212 43.7756ZM61.9553 43.7756L52.167 35.0415L51.8408 50.4015L65.9459 49.7741L61.9553 43.7756ZM34.8243 71.1827L43.3074 67.0415L35.9788 61.3192L34.8243 71.1827ZM52.669 67.0415L61.1772 71.1827L59.9976 61.3192L52.669 67.0415Z" fill="#E4761B" stroke="#E4761B" stroke-linecap="round" stroke-linejoin="round"/>
<path d="M61.1752 71.1829L52.667 67.0417L53.3446 72.5884L53.2693 74.9225L61.1752 71.1829ZM34.8223 71.1829L42.7281 74.9225L42.678 72.5884L43.3054 67.0417L34.8223 71.1829Z" fill="#D7C1B3" stroke="#D7C1B3" stroke-linecap="round" stroke-linejoin="round"/>
<path d="M42.854 57.6548L35.7764 55.5716L40.7709 53.2877L42.854 57.6548ZM53.1191 57.6548L55.2023 53.2877L60.2219 55.5716L53.1191 57.6548Z" fill="#233447" stroke="#233447" stroke-linecap="round" stroke-linejoin="round"/>
<path d="M34.8238 71.183L36.0285 60.9932L28.1729 61.2191L34.8238 71.183ZM59.9721 60.9932L61.1768 71.183L67.8278 61.2191L59.9721 60.9932ZM65.9454 49.7744L51.8403 50.4019L53.1454 57.6552L55.2285 53.2881L60.2481 55.5721L65.9454 49.7744ZM35.7776 55.5721L40.7972 53.2881L42.8552 57.6552L44.1854 50.4019L30.0552 49.7744L35.7776 55.5721Z" fill="#CD6116" stroke="#CD6116" stroke-linecap="round" stroke-linejoin="round"/>
<path d="M30.0557 49.7744L35.9788 61.3195L35.778 55.5721L30.0557 49.7744ZM60.2486 55.5721L59.9976 61.3195L65.9459 49.7744L60.2486 55.5721ZM44.1859 50.4019L42.8557 57.6552L44.5121 66.2136L44.8886 54.9446L44.1859 50.4019ZM51.8408 50.4019L51.1631 54.9195L51.4643 66.2136L53.1459 57.6552L51.8408 50.4019Z" fill="#E4751F" stroke="#E4751F" stroke-linecap="round" stroke-linejoin="round"/>
<path d="M53.1442 57.6549L51.4626 66.2133L52.6673 67.0416L59.996 61.3192L60.247 55.5718L53.1442 57.6549ZM35.7764 55.5718L35.9772 61.3192L43.3058 67.0416L44.5105 66.2133L42.854 57.6549L35.7764 55.5718Z" fill="#F6851B" stroke="#F6851B" stroke-linecap="round" stroke-linejoin="round"/>
<path d="M53.2693 74.9221L53.3446 72.588L52.7172 72.0358H43.2552L42.678 72.588L42.7281 74.9221L34.8223 71.1825L37.5831 73.4413L43.1799 77.3315H52.7925L58.4144 73.4413L61.1752 71.1825L53.2693 74.9221Z" fill="#C0AD9E" stroke="#C0AD9E" stroke-linecap="round" stroke-linejoin="round"/>
<path d="M52.6668 67.0416L51.462 66.2134H44.5099L43.3052 67.0416L42.6777 72.5883L43.255 72.0361H52.717L53.3444 72.5883L52.6668 67.0416Z" fill="#161616" stroke="#161616" stroke-linecap="round" stroke-linejoin="round"/>
<path d="M77.8667 37.7522L80 27.5122L76.8126 18L52.6682 35.92L61.9545 43.7757L75.0808 47.6157L77.9922 44.2275L76.7373 43.3239L78.7451 41.4918L77.189 40.2871L79.1969 38.7561L77.8667 37.7522ZM16 27.5122L18.1333 37.7522L16.778 38.7561L18.7859 40.2871L17.2549 41.4918L19.2627 43.3239L18.0078 44.2275L20.8941 47.6157L34.0204 43.7757L43.3067 35.92L19.1624 18L16 27.5122Z" fill="#763D16" stroke="#763D16" stroke-linecap="round" stroke-linejoin="round"/>
<path d="M75.0811 47.6156L61.9548 43.7756L65.9454 49.774L59.9972 61.3191L67.8277 61.2187H79.4983L75.0811 47.6156ZM34.0207 43.7756L20.8944 47.6156L16.5273 61.2187H28.1728L35.9783 61.3191L30.0552 49.774L34.0207 43.7756ZM51.8403 50.4015L52.6685 35.9199L56.4834 25.6046H39.5422L43.307 35.9199L44.1854 50.4015L44.4866 54.9693L44.5117 66.2132H51.4638L51.514 54.9693L51.8403 50.4015Z" fill="#F6851B" stroke="#F6851B" stroke-linecap="round" stroke-linejoin="round"/>
</svg>
