<svg width="96" height="96" viewBox="0 0 96 96" fill="none" xmlns="http://www.w3.org/2000/svg">
<rect width="96" height="96" rx="25" fill="#101010"/>
<rect x="0.5" y="0.5" width="95" height="95" rx="24.5" stroke="white" stroke-opacity="0.1"/>
<path fill-rule="evenodd" clip-rule="evenodd" d="M48 16C65.675 16 80 30.3788 80 48.1201C80 65.8614 65.675 80.2402 48 80.2402C30.325 80.2402 16 65.8614 16 48.1201C16 30.3788 30.325 16 48 16Z" fill="url(#paint0_radial_358_129)"/>
<path d="M36.3359 40.8051C42.7734 34.494 53.2234 34.494 59.6609 40.8051L60.4359 41.5705C60.7609 41.8841 60.7609 42.3986 60.4359 42.7122L57.7859 45.3094C57.6234 45.4725 57.3609 45.4725 57.1984 45.3094L56.1359 44.268C51.6359 39.8641 44.3609 39.8641 39.8609 44.268L38.7234 45.3847C38.5609 45.5478 38.2984 45.5478 38.1359 45.3847L35.4859 42.7875C35.1609 42.4738 35.1609 41.9594 35.4859 41.6457L36.3359 40.8051ZM65.1484 46.1752L67.5109 48.4838C67.8359 48.7975 67.8359 49.3119 67.5109 49.6256L56.8734 60.052C56.5484 60.3657 56.0234 60.3657 55.7109 60.052L48.1609 52.6494C48.0859 52.5741 47.9484 52.5741 47.8734 52.6494L40.3234 60.052C39.9984 60.3657 39.4734 60.3657 39.1609 60.052L28.4859 49.6256C28.1609 49.3119 28.1609 48.7975 28.4859 48.4838L30.8484 46.1752C31.1734 45.8615 31.6984 45.8615 32.0109 46.1752L39.5609 53.5778C39.6359 53.6531 39.7734 53.6531 39.8484 53.5778L47.3984 46.1752C47.7234 45.8615 48.2484 45.8615 48.5609 46.1752L56.1109 53.5778C56.1859 53.6531 56.3234 53.6531 56.3984 53.5778L63.9484 46.1752C64.2984 45.8615 64.8234 45.8615 65.1484 46.1752Z" fill="white"/>
<defs>
<radialGradient id="paint0_radial_358_129" cx="0" cy="0" r="1" gradientUnits="userSpaceOnUse" gradientTransform="translate(16.0002 48.1211) scale(64 64.2402)">
<stop stop-color="#5D9DF6"/>
<stop offset="1" stop-color="#006FFF"/>
</radialGradient>
</defs>
</svg>
