<svg width="96" height="96" viewBox="0 0 96 96" fill="none" xmlns="http://www.w3.org/2000/svg">
<rect width="96" height="96" rx="25" fill="#101010"/>
<rect x="0.5" y="0.5" width="95" height="95" rx="24.5" stroke="white" stroke-opacity="0.1"/>
<path d="M47.5894 16L20 32.0159V63.984L47.5894 80L75.1788 63.984V32.0159L47.5894 16ZM47.5894 16L20 32.0159V63.984L47.5894 80L75.1788 63.984V32.0159L47.5894 16Z" fill="white"/>
<path d="M58.4599 67.4297H54.5185L49.8143 63.0907V60.8574L54.7092 56.1994V48.7976L61.0662 44.65L68.3132 50.1376L58.4599 67.4297ZM42.1859 55.8165L42.8852 48.8614L40.5331 42.672H54.5821L52.23 48.8614L52.8657 55.8165H47.4623H42.1859ZM45.428 63.0907L40.7238 67.4935H36.7189L26.802 50.2014L34.1125 44.7777L40.5331 48.8614V56.2632L45.428 60.9212V63.0907ZM36.6554 29.8465H58.3963L61.0027 40.9491H34.1125L36.6554 29.8465ZM47.5894 16L20 32.0159V63.984L47.5894 80L75.1788 63.984V32.0159L47.5894 16Z" fill="#03316C"/>
</svg>
