<svg width="96" height="96" viewBox="0 0 96 96" fill="none" xmlns="http://www.w3.org/2000/svg">
<rect width="96" height="96" rx="25" fill="#101010"/>
<rect x="0.5" y="0.5" width="95" height="95" rx="24.5" stroke="white" stroke-opacity="0.1"/>
<g clip-path="url(#clip0_358_131)">
<path d="M48.1104 15.9998C65.8103 16.0331 80.1335 30.4102 80.1001 48.1101C80.0667 65.8101 65.6897 80.1332 47.9897 80.0999C30.3129 80.0665 16 65.728 16 48.0511C16.018 30.3332 30.395 15.9844 48.1104 15.9998Z" fill="#003399"/>
<path d="M56.5239 35.4237L55.5658 39.9215C54.6457 39.0014 53.3034 38.5413 51.5389 38.5413C49.7744 38.5413 48.3455 39.1746 47.2521 40.4411C46.6351 41.1556 46.1967 42.0486 45.9369 43.1203H54.8676L54.348 45.6372H45.6121C45.6013 45.8862 45.5959 46.2055 45.5959 46.5952C45.5959 46.9741 45.6067 47.3692 45.6284 47.7805H53.8934L53.3738 50.2974H45.9694C46.24 51.4557 46.6568 52.365 47.2197 53.0253C48.3022 54.3027 49.7095 54.9414 51.4415 54.9414C53.5199 54.9414 55.1761 54.3027 56.4102 53.0253V57.994C55.0029 58.6977 53.3629 59.0495 51.4902 59.0495C48.3292 59.0495 45.7312 57.967 43.6961 55.802C42.3105 54.3297 41.3958 52.4949 40.9519 50.2974H38.5488L39.0684 47.7805H40.6597C40.6488 47.5207 40.6434 47.2447 40.6434 46.9524C40.6434 46.4545 40.6542 46.0161 40.6759 45.6372H38.5488L39.0684 43.1203H41.0006C41.4553 40.9661 42.3592 39.1638 43.7123 37.7132C45.7583 35.5265 48.4483 34.4332 51.7825 34.4332C53.6011 34.4332 55.1815 34.7633 56.5239 35.4237Z" fill="white"/>
</g>
<defs>
<clipPath id="clip0_358_131">
<rect width="64.1001" height="64.1001" fill="white" transform="translate(16 16)"/>
</clipPath>
</defs>
</svg>
