<svg width="64" height="64" viewBox="0 0 64 64" fill="none" xmlns="http://www.w3.org/2000/svg">
<mask id="mask0_55_1297" style="mask-type:luminance" maskUnits="userSpaceOnUse" x="0" y="0" width="64" height="64">
<path d="M52 0H12C5.37258 0 0 5.37258 0 12V52C0 58.6274 5.37258 64 12 64H52C58.6274 64 64 58.6274 64 52V12C64 5.37258 58.6274 0 52 0Z" fill="white"/>
</mask>
<g mask="url(#mask0_55_1297)">
<path fill-rule="evenodd" clip-rule="evenodd" d="M23 26C23 25.2044 23.316 24.4413 23.879 23.8787C24.441 23.3161 25.204 23 26 23H38C38.796 23 39.559 23.3161 40.121 23.8787C40.684 24.4413 41 25.2044 41 26V38C41 38.796 40.684 39.559 40.121 40.121C39.559 40.684 38.796 41 38 41H26C25.204 41 24.441 40.684 23.879 40.121C23.316 39.559 23 38.796 23 38V26ZM27.5 33.5C27.699 33.5 27.89 33.579 28.03 33.72C28.171 33.86 28.25 34.051 28.25 34.25V36.5C28.25 36.699 28.171 36.89 28.03 37.03C27.89 37.171 27.699 37.25 27.5 37.25C27.301 37.25 27.11 37.171 26.97 37.03C26.829 36.89 26.75 36.699 26.75 36.5V34.25C26.75 34.051 26.829 33.86 26.97 33.72C27.11 33.579 27.301 33.5 27.5 33.5ZM31.25 32C31.25 31.8011 31.171 31.6103 31.03 31.4697C30.89 31.329 30.699 31.25 30.5 31.25C30.301 31.25 30.11 31.329 29.97 31.4697C29.829 31.6103 29.75 31.8011 29.75 32V36.5C29.75 36.699 29.829 36.89 29.97 37.03C30.11 37.171 30.301 37.25 30.5 37.25C30.699 37.25 30.89 37.171 31.03 37.03C31.171 36.89 31.25 36.699 31.25 36.5V32ZM33.5 29C33.699 29 33.89 29.079 34.03 29.2197C34.171 29.3603 34.25 29.5511 34.25 29.75V36.5C34.25 36.699 34.171 36.89 34.03 37.03C33.89 37.171 33.699 37.25 33.5 37.25C33.301 37.25 33.11 37.171 32.97 37.03C32.829 36.89 32.75 36.699 32.75 36.5V29.75C32.75 29.5511 32.829 29.3603 32.97 29.2197C33.11 29.079 33.301 29 33.5 29ZM37.25 27.5C37.25 27.3011 37.171 27.1103 37.03 26.9697C36.89 26.829 36.699 26.75 36.5 26.75C36.301 26.75 36.11 26.829 35.97 26.9697C35.829 27.1103 35.75 27.3011 35.75 27.5V36.5C35.75 36.699 35.829 36.89 35.97 37.03C36.11 37.171 36.301 37.25 36.5 37.25C36.699 37.25 36.89 37.171 37.03 37.03C37.171 36.89 37.25 36.699 37.25 36.5V27.5Z" fill="#0784b5"/>
</g>
<path d="M52 0.5H12C5.64873 0.5 0.5 5.64873 0.5 12V52C0.5 58.3513 5.64873 63.5 12 63.5H52C58.3513 63.5 63.5 58.3513 63.5 52V12C63.5 5.64873 58.3513 0.5 52 0.5Z" stroke="#27282C"/>
<defs>
</defs>
</svg>
