<svg width="119" height="40" viewBox="0 0 119 40" fill="none" xmlns="http://www.w3.org/2000/svg">
<g clip-path="url(#clip0_188_603)">
<path d="M4.83745 0H113.759C116.415 0 118.574 2.152 118.574 4.8V35.2C118.574 37.848 116.415 40 113.759 40H4.83745C2.18064 40 0.0214844 37.848 0.0214844 35.2V4.8C0.0214844 2.152 2.18064 0 4.83745 0Z" fill="white"/>
<path fill-rule="evenodd" clip-rule="evenodd" d="M11.4017 9.34796C11.1466 9.62213 11 10.0441 11 10.5924V30.0964C11 30.6447 11.1466 31.0667 11.4112 31.3313L11.4804 31.3897L22.4089 20.4612V20.2157L11.4709 9.28955L11.4017 9.34796Z" fill="url(#paint0_linear_188_603)"/>
<path fill-rule="evenodd" clip-rule="evenodd" d="M26.0446 24.1185L22.3994 20.4721V20.217L26.0458 16.5706L26.1245 16.6194L30.4373 19.0702C31.6722 19.7664 31.6722 20.9131 30.4373 21.6188L26.1245 24.0696C26.1233 24.0696 26.0446 24.1185 26.0446 24.1185Z" fill="url(#paint1_linear_188_603)"/>
<path fill-rule="evenodd" clip-rule="evenodd" d="M26.1234 24.0696L22.3995 20.3445L11.4019 31.3421C11.8036 31.7736 12.4794 31.8225 13.2352 31.4005L26.1234 24.0696Z" fill="url(#paint2_linear_188_603)"/>
<path fill-rule="evenodd" clip-rule="evenodd" d="M26.1234 16.6205L13.2352 9.29908C12.4806 8.86757 11.8036 8.92598 11.4019 9.35749L22.3983 20.3444L26.1234 16.6205Z" fill="url(#paint3_linear_188_603)"/>
<path opacity="0.2" fill-rule="evenodd" clip-rule="evenodd" d="M26.0445 23.9907L13.2445 31.2633C12.5293 31.6745 11.8915 31.6459 11.4803 31.2728L11.4111 31.342L11.4803 31.4004C11.8915 31.7723 12.5293 31.8021 13.2445 31.3908L26.1327 24.0694L26.0445 23.9907Z" fill="black"/>
<path opacity="0.12" fill-rule="evenodd" clip-rule="evenodd" d="M30.4361 21.4912L26.0352 23.9909L26.1138 24.0696L30.4266 21.6188C31.0441 21.2659 31.348 20.8058 31.348 20.3445C31.3087 20.7665 30.9952 21.1682 30.4361 21.4912Z" fill="black"/>
<path opacity="0.25" fill-rule="evenodd" clip-rule="evenodd" d="M13.2351 9.42665L30.436 19.1989C30.9951 19.5124 31.3086 19.9236 31.3574 20.3456C31.3574 19.8855 31.0535 19.4242 30.436 19.0713L13.2351 9.2991C12.0001 8.59342 11 9.18109 11 10.5924V10.72C11 9.30864 12.0001 8.7305 13.2351 9.42665Z" fill="white"/>
<path fill-rule="evenodd" clip-rule="evenodd" d="M35.5556 19.7257C35.5556 16.6014 38.1816 14.0576 41.3059 14.0576C43.0332 14.0576 44.2622 14.7359 45.1896 15.6192L44.0977 16.7111C43.4349 16.0888 42.5361 15.6061 41.3048 15.6061C39.0232 15.6061 37.2399 17.443 37.2399 19.7245C37.2399 22.0061 39.0232 23.8454 41.3036 23.8454C42.7829 23.8454 43.6244 23.2517 44.1644 22.7105C44.6067 22.2683 44.8963 21.6329 45.0084 20.7616H41.3059V19.2167H46.5175C46.5723 19.4933 46.6009 19.8246 46.6009 20.1834C46.6009 21.3433 46.2827 22.7821 45.2587 23.806C44.2622 24.8431 42.9915 25.3962 41.3048 25.3962C38.1793 25.3962 35.5532 22.8548 35.5532 19.7281L35.5556 19.7257ZM50.8136 18.095C48.7955 18.095 47.1481 19.6303 47.1481 21.7438C47.1481 23.8465 48.7943 25.3926 50.8136 25.3926C52.8329 25.3926 54.4767 23.8442 54.4767 21.7426C54.4767 19.6292 52.8317 18.0938 50.8136 18.095ZM50.8136 23.9574C49.7085 23.9574 48.7537 23.0455 48.7537 21.745C48.7537 20.4314 49.7074 19.5326 50.8136 19.5326C51.9186 19.5326 52.8722 20.4302 52.8722 21.745C52.8722 23.0443 51.9198 23.9574 50.8136 23.9574ZM58.8061 18.095C56.788 18.095 55.143 19.6303 55.143 21.7438C55.143 23.8465 56.788 25.3926 58.8061 25.3926C60.8242 25.3926 62.4692 23.8442 62.4692 21.7426C62.4692 19.6292 60.8254 18.0938 58.8061 18.095ZM58.8061 23.9574C57.7011 23.9574 56.7463 23.0455 56.7463 21.745C56.7463 20.4314 57.6999 19.5326 58.8061 19.5326C59.9111 19.5326 60.8659 20.4302 60.8659 21.745C60.8659 23.0443 59.9111 23.9574 58.8061 23.9574ZM68.6153 18.3167V18.9104H68.5605C68.2017 18.48 67.5103 18.0938 66.6401 18.0938C64.8151 18.0938 63.1403 19.6983 63.1403 21.7593C63.1403 23.8036 64.8139 25.395 66.6401 25.395C67.5103 25.395 68.2017 25.0088 68.5605 24.5665H68.6153V25.091C68.6153 26.4869 67.8691 27.2343 66.6663 27.2343C65.6841 27.2343 65.0762 26.5286 64.827 25.9362L63.43 26.5167C63.8305 27.4834 64.8962 28.6731 66.6651 28.6731C68.5438 28.6731 70.1339 27.5657 70.1339 24.8705V18.3155L68.6153 18.3167ZM66.7772 23.9574C65.6722 23.9574 64.7436 23.03 64.7436 21.7593C64.7436 20.4743 65.671 19.5338 66.7772 19.5338C67.8691 19.5338 68.7262 20.4731 68.7262 21.7593C68.7273 23.03 67.8703 23.9574 66.7772 23.9574ZM71.2413 14.445H72.8458V25.1733H71.2413V14.445ZM77.2432 23.9574C76.4278 23.9574 75.8461 23.5831 75.4754 22.8524L80.3556 20.8319L80.1875 20.4171C79.8847 19.6029 78.9573 18.095 77.0632 18.095C75.1834 18.095 73.6206 19.5743 73.6206 21.745C73.6206 23.7893 75.1691 25.3938 77.2432 25.3938C78.9168 25.3938 79.8847 24.3722 80.2852 23.7762L79.0408 22.9478C78.6247 23.5569 78.0573 23.9586 77.2432 23.9574ZM77.118 19.5052C77.7534 19.5052 78.2922 19.8235 78.4722 20.2788L75.2084 21.6341C75.1679 20.224 76.3015 19.5052 77.118 19.5052ZM87.3957 14.445H83.5597V25.1733H85.1606V21.1097H87.3969C89.1718 21.1097 90.9169 19.8246 90.9169 17.7767C90.9169 15.7324 89.173 14.4462 87.3993 14.4462L87.3957 14.445ZM87.4374 19.616H85.1606V15.9374H87.4374C88.6342 15.9374 89.316 16.9304 89.316 17.7767C89.316 18.6088 88.6342 19.616 87.4374 19.616ZM93.3999 25.1733V14.445H91.799V25.1733H93.3999ZM100.591 25.1542V21.0417C100.591 19.1368 99.1681 18.0747 97.3312 18.0747C96.1738 18.0747 94.9734 18.5861 94.4763 19.7174L95.8972 20.3098C96.2012 19.7174 96.7662 19.5231 97.361 19.5231C98.1883 19.5231 99.0299 20.0201 99.043 20.9046V21.0155C98.7533 20.8498 98.1335 20.6007 97.3729 20.6007C95.8412 20.6007 94.282 21.4422 94.282 23.0157C94.282 24.4521 95.5384 25.3759 96.9462 25.3759C98.0238 25.3759 98.6162 24.8931 98.9881 24.3281H99.043V25.1566H100.59L100.591 25.1542ZM97.1405 23.955C96.616 23.955 95.8841 23.6928 95.8841 23.0455C95.8841 22.217 96.796 21.8976 97.5828 21.8976C98.2872 21.8976 98.6174 22.049 99.0466 22.2564C98.9238 23.2195 98.1096 23.9431 97.1405 23.955ZM106.221 18.3096L104.386 22.9597H104.331L102.426 18.3096H100.701L103.557 24.8109L101.928 28.4263H103.598L108 18.3096H106.221Z" fill="black"/>
</g>
<defs>
<linearGradient id="paint0_linear_188_603" x1="21.4276" y1="10.3828" x2="3.92198" y2="15.0472" gradientUnits="userSpaceOnUse">
<stop stop-color="#00A0FF"/>
<stop offset="0.007" stop-color="#00A1FF"/>
<stop offset="0.26" stop-color="#00BEFF"/>
<stop offset="0.512" stop-color="#00D2FF"/>
<stop offset="0.76" stop-color="#00DFFF"/>
<stop offset="1" stop-color="#00E3FF"/>
</linearGradient>
<linearGradient id="paint1_linear_188_603" x1="32.0442" y1="20.3451" x2="10.6999" y2="20.3451" gradientUnits="userSpaceOnUse">
<stop stop-color="#FFE000"/>
<stop offset="0.409" stop-color="#FFBD00"/>
<stop offset="0.775" stop-color="#FFA500"/>
<stop offset="1" stop-color="#FF9C00"/>
</linearGradient>
<linearGradient id="paint2_linear_188_603" x1="24.0985" y1="22.371" x2="10.0449" y2="46.024" gradientUnits="userSpaceOnUse">
<stop stop-color="#FF3A44"/>
<stop offset="1" stop-color="#C31162"/>
</linearGradient>
<linearGradient id="paint3_linear_188_603" x1="8.63348" y1="2.85998" x2="14.9032" y2="13.4238" gradientUnits="userSpaceOnUse">
<stop stop-color="#32A071"/>
<stop offset="0.069" stop-color="#2DA771"/>
<stop offset="0.476" stop-color="#15CF74"/>
<stop offset="0.801" stop-color="#06E775"/>
<stop offset="1" stop-color="#00F076"/>
</linearGradient>
<clipPath id="clip0_188_603">
<rect width="118.596" height="40" fill="white"/>
</clipPath>
</defs>
</svg>
