<svg width="2230" height="2500" viewBox="0 0 2230 2500" fill="none" xmlns="http://www.w3.org/2000/svg">
<g clip-path="url(#clip0_715_1074)">
<path d="M1818.71 1316.76C1817.6 1112.59 1909.95 958.5 2096.86 845.016C1992.28 695.372 1834.29 613.04 1625.68 596.907C1428.19 581.331 1212.35 712.061 1133.36 712.061C1049.91 712.061 858.545 602.47 708.345 602.47C397.931 607.477 68.0469 850.022 68.0469 1343.46C68.0469 1489.21 94.7491 1639.78 148.154 1795.17C219.36 1999.33 476.369 2500 744.504 2491.66C884.691 2488.32 983.712 2392.08 1166.18 2392.08C1343.08 2392.08 1434.87 2491.66 1591.19 2491.66C1861.55 2487.76 2094.08 2032.71 2161.95 1827.99C1799.24 1657.21 1818.71 1327.33 1818.71 1316.76ZM1503.85 403.316C1655.72 223.075 1641.81 58.9675 1637.36 0C1503.29 7.78816 1348.09 91.2328 1259.64 194.148C1162.28 304.295 1104.99 440.587 1117.22 594.126C1262.42 605.251 1394.82 530.708 1503.85 403.316Z" fill="white"/>
</g>
<defs>
<clipPath id="clip0_715_1074">
<rect width="2230" height="2500" fill="white"/>
</clipPath>
</defs>
</svg>
