<svg width="119" height="40" viewBox="0 0 119 40" fill="none" xmlns="http://www.w3.org/2000/svg">
<g clip-path="url(#clip0_188_570)">
<path d="M4.83745 0H113.759C116.415 0 118.574 2.152 118.574 4.8V35.2C118.574 37.848 116.415 40 113.759 40H4.83745C2.18064 40 0.0214844 37.848 0.0214844 35.2V4.8C0.0214844 2.152 2.18064 0 4.83745 0Z" fill="white"/>
<path d="M25.9717 19.088C25.9476 16.224 28.3235 14.832 28.4278 14.768C27.0793 12.816 24.9924 12.544 24.262 12.52C22.5122 12.336 20.8106 13.568 19.9196 13.568C19.0126 13.568 17.632 12.544 16.1551 12.568C14.2528 12.6 12.4629 13.696 11.4917 15.408C9.47699 18.888 10.978 24.008 12.9124 26.824C13.8836 28.2 15.0073 29.744 16.4923 29.688C17.937 29.632 18.4828 28.768 20.2246 28.768C21.9584 28.768 22.464 29.688 23.9731 29.656C25.5302 29.632 26.5014 28.272 27.4405 26.88C28.5562 25.304 29.0057 23.744 29.0218 23.664C28.9817 23.648 26.0038 22.512 25.9717 19.088Z" fill="black"/>
<path d="M23.1223 10.672C23.9009 9.70404 24.4307 8.38404 24.2862 7.04004C23.1625 7.08804 21.7498 7.81604 20.9391 8.76804C20.2247 9.60804 19.5826 10.976 19.7431 12.264C21.0113 12.36 22.3116 11.624 23.1223 10.672Z" fill="black"/>
<path d="M46.9372 29.4879H44.9145L43.8068 26.0159H39.954L38.9026 29.4879H36.936L40.7487 17.6719H43.1085L46.9372 29.4879ZM43.4777 24.5599L42.4744 21.4799C42.3701 21.1599 42.1694 20.4239 41.8804 19.2559H41.8403C41.7199 19.7599 41.5353 20.5039 41.2784 21.4799L40.2912 24.5599H43.4777Z" fill="black"/>
<path d="M56.7377 25.128C56.7377 26.576 56.3444 27.72 55.5498 28.56C54.8435 29.312 53.9605 29.68 52.9171 29.68C51.7853 29.68 50.9746 29.28 50.477 28.472V32.944H48.5747V23.768C48.5747 22.856 48.5506 21.928 48.5024 20.968H50.172L50.2763 22.32H50.3084C50.9425 21.304 51.9057 20.792 53.19 20.792C54.2013 20.792 55.0361 21.192 55.7103 21.984C56.4006 22.784 56.7377 23.824 56.7377 25.128ZM54.8033 25.192C54.8033 24.36 54.6187 23.68 54.2415 23.144C53.8321 22.584 53.2783 22.304 52.588 22.304C52.1224 22.304 51.697 22.464 51.3118 22.768C50.9345 23.08 50.6777 23.48 50.5653 23.984C50.5091 24.216 50.477 24.408 50.477 24.56V25.984C50.477 26.6 50.6696 27.128 51.0469 27.552C51.4241 27.976 51.9218 28.192 52.5318 28.192C53.2462 28.192 53.8 27.912 54.2013 27.368C54.6027 26.816 54.8033 26.096 54.8033 25.192Z" fill="black"/>
<path d="M66.5625 25.128C66.5625 26.576 66.1691 27.72 65.3745 28.56C64.6682 29.312 63.7852 29.68 62.7418 29.68C61.61 29.68 60.7993 29.28 60.3017 28.472V32.944H58.3994V23.768C58.3994 22.856 58.3753 21.928 58.3271 20.968H59.9967L60.101 22.32H60.1331C60.7672 21.304 61.7304 20.792 63.0147 20.792C64.026 20.792 64.8608 21.192 65.535 21.984C66.2253 22.784 66.5625 23.824 66.5625 25.128ZM64.628 25.192C64.628 24.36 64.4434 23.68 64.0662 23.144C63.6568 22.584 63.103 22.304 62.4127 22.304C61.9471 22.304 61.5217 22.464 61.1365 22.768C60.7592 23.08 60.5104 23.48 60.39 23.984C60.3338 24.216 60.3017 24.408 60.3017 24.56V25.984C60.3017 26.6 60.4943 27.128 60.8716 27.552C61.2488 27.976 61.7465 28.192 62.3565 28.192C63.0709 28.192 63.6327 27.912 64.026 27.368C64.4354 26.816 64.628 26.096 64.628 25.192Z" fill="black"/>
<path d="M77.5587 26.1759C77.5587 27.1839 77.2055 27.9999 76.5072 28.6319C75.7367 29.3199 74.6611 29.6639 73.2805 29.6639C72.0043 29.6639 70.9849 29.4159 70.2144 28.9279L70.6558 27.3519C71.4906 27.8399 72.4056 28.0879 73.4009 28.0879C74.1153 28.0879 74.6772 27.9279 75.0705 27.6079C75.4718 27.2879 75.6725 26.8559 75.6725 26.3199C75.6725 25.8399 75.5039 25.4399 75.1828 25.1119C74.8537 24.7839 74.3079 24.4799 73.5454 24.1999C71.4505 23.4239 70.415 22.2959 70.415 20.8159C70.415 19.8479 70.7842 19.0559 71.5147 18.4319C72.2451 17.8159 73.2163 17.5039 74.4283 17.5039C75.5039 17.5039 76.4029 17.6879 77.1172 18.0639L76.6356 19.5999C75.9614 19.2399 75.2069 19.0559 74.3561 19.0559C73.6899 19.0559 73.1601 19.2239 72.7829 19.5439C72.4698 19.8399 72.3093 20.1919 72.3093 20.6159C72.3093 21.0799 72.4939 21.4719 72.8551 21.7679C73.1681 22.0479 73.7461 22.3519 74.5808 22.6799C75.6002 23.0879 76.3467 23.5679 76.8283 24.1199C77.3179 24.6719 77.5587 25.3599 77.5587 26.1759Z" fill="black"/>
<path d="M83.8516 22.3919H81.7567V26.5279C81.7567 27.5759 82.1259 28.1039 82.8644 28.1039C83.2015 28.1039 83.4824 28.0719 83.7072 28.0159L83.7633 29.4559C83.3861 29.5919 82.8965 29.6639 82.2865 29.6639C81.5319 29.6639 80.954 29.4319 80.5286 28.9759C80.1032 28.5199 79.8945 27.7519 79.8945 26.6799V22.3839H78.6504V20.9679H79.8945V19.4079L81.7567 18.8479V20.9679H83.8516V22.3919Z" fill="black"/>
<path d="M93.2746 25.1598C93.2746 26.4718 92.8973 27.5438 92.1509 28.3838C91.3643 29.2478 90.3208 29.6798 89.0205 29.6798C87.7683 29.6798 86.765 29.2638 86.0185 28.4398C85.2721 27.6158 84.9028 26.5678 84.9028 25.3038C84.9028 23.9838 85.2881 22.9038 86.0506 22.0638C86.8212 21.2238 87.8566 20.7998 89.1569 20.7998C90.4091 20.7998 91.4204 21.2158 92.183 22.0478C92.9134 22.8478 93.2746 23.8878 93.2746 25.1598ZM91.3081 25.1998C91.3081 24.4158 91.1395 23.7518 90.8024 23.1918C90.4011 22.5118 89.8312 22.1758 89.0927 22.1758C88.3302 22.1758 87.7443 22.5118 87.3509 23.1918C87.0058 23.7518 86.8453 24.4318 86.8453 25.2398C86.8453 26.0238 87.0138 26.6958 87.3509 27.2478C87.7603 27.9278 88.3382 28.2638 89.0767 28.2638C89.7991 28.2638 90.369 27.9198 90.7863 27.2318C91.1315 26.6558 91.3081 25.9838 91.3081 25.1998Z" fill="black"/>
<path d="M99.4553 22.632C99.2706 22.6 99.07 22.584 98.8533 22.584C98.1871 22.584 97.6653 22.832 97.3041 23.336C96.9911 23.776 96.8306 24.344 96.8306 25.016V29.488H94.9283V23.648C94.9283 22.664 94.9122 21.768 94.8721 20.968H96.5255L96.5978 22.6H96.654C96.8546 22.04 97.1677 21.584 97.6011 21.248C98.0265 20.944 98.484 20.792 98.9737 20.792C99.1503 20.792 99.3108 20.808 99.4472 20.824L99.4553 22.632Z" fill="black"/>
<path d="M107.947 24.8238C107.947 25.1598 107.923 25.4478 107.875 25.6798H102.176C102.2 26.5198 102.473 27.1678 103.003 27.6078C103.485 27.9998 104.103 28.1998 104.865 28.1998C105.708 28.1998 106.479 28.0638 107.169 27.7998L107.466 29.1118C106.655 29.4638 105.7 29.6398 104.6 29.6398C103.276 29.6398 102.232 29.2478 101.478 28.4718C100.723 27.6958 100.346 26.6478 100.346 25.3438C100.346 24.0638 100.699 22.9918 101.406 22.1358C102.144 21.2238 103.139 20.7678 104.392 20.7678C105.62 20.7678 106.559 21.2238 107.185 22.1358C107.691 22.8718 107.947 23.7598 107.947 24.8238ZM106.133 24.3358C106.149 23.7758 106.021 23.2878 105.764 22.8798C105.435 22.3518 104.929 22.0878 104.255 22.0878C103.637 22.0878 103.131 22.3438 102.746 22.8558C102.433 23.2638 102.24 23.7598 102.184 24.3278L106.133 24.3358Z" fill="black"/>
<path d="M42.5629 13.4479H41.5676L41.0218 11.7439H39.1275L38.6058 13.4479H37.6426L39.5128 7.63989H40.6686L42.5629 13.4479ZM40.8532 11.0239L40.3636 9.50389C40.3154 9.35189 40.2191 8.98389 40.0666 8.40789H40.0506C39.9863 8.65589 39.9061 9.01589 39.7696 9.50389L39.288 11.0239H40.8532Z" fill="black"/>
<path d="M47.2503 9.25586L45.661 13.4479H44.754L43.2129 9.25586H44.2162L44.9306 11.4719C45.051 11.8399 45.1553 12.1919 45.2356 12.5279H45.2597C45.3319 12.2239 45.4363 11.8719 45.5647 11.4719L46.271 9.25586H47.2503Z" fill="black"/>
<path d="M50.6375 13.4478L50.5652 12.9678H50.5411C50.2522 13.3518 49.8428 13.5438 49.3131 13.5438C48.5586 13.5438 48.0288 13.0158 48.0288 12.3118C48.0288 11.2798 48.9278 10.7438 50.485 10.7438V10.6638C50.485 10.1118 50.188 9.83984 49.6101 9.83984C49.1927 9.83984 48.8315 9.94384 48.5104 10.1518L48.3178 9.54384C48.703 9.30384 49.1927 9.18384 49.7626 9.18384C50.8622 9.18384 51.416 9.75984 51.416 10.9198V12.4638C51.416 12.8878 51.4321 13.2158 51.4803 13.4638L50.6375 13.4478ZM50.509 11.3598C49.4736 11.3598 48.9519 11.6078 48.9519 12.2078C48.9519 12.6478 49.2167 12.8638 49.594 12.8638C50.0676 12.8638 50.509 12.5038 50.509 12.0078V11.3598Z" fill="black"/>
<path d="M53.4952 8.56805C53.1822 8.56805 52.9414 8.32805 52.9414 8.00805C52.9414 7.68805 53.1902 7.45605 53.5113 7.45605C53.8324 7.45605 54.0892 7.68805 54.0812 8.00805C54.0812 8.34405 53.8404 8.56805 53.4952 8.56805ZM53.0458 9.25605H53.9768V13.4401H53.0458V9.25605Z" fill="black"/>
<path d="M55.6382 7.33594H56.5693V13.4399H55.6382V7.33594Z" fill="black"/>
<path d="M60.5344 13.448L60.4622 12.968H60.4381C60.1492 13.352 59.7398 13.544 59.21 13.544C58.4555 13.544 57.9258 13.016 57.9258 12.312C57.9258 11.28 58.8248 10.744 60.3819 10.744V10.664C60.3819 10.112 60.0849 9.84003 59.507 9.84003C59.0896 9.84003 58.7284 9.94403 58.4074 10.152L58.2147 9.53603C58.6 9.29603 59.0896 9.17603 59.6595 9.17603C60.7592 9.17603 61.313 9.75203 61.313 10.912V12.456C61.313 12.88 61.3291 13.208 61.3692 13.456H60.5344V13.448ZM60.406 11.36C59.3706 11.36 58.8488 11.608 58.8488 12.208C58.8488 12.648 59.1137 12.864 59.491 12.864C59.9645 12.864 60.406 12.504 60.406 12.008V11.36Z" fill="black"/>
<path d="M65.1014 13.5439C64.5075 13.5439 64.066 13.2959 63.777 12.7999H63.761L63.7048 13.4479H62.9102C62.9342 13.1119 62.9423 12.7359 62.9423 12.3199V7.33594H63.8814V9.87194H63.8974C64.1784 9.40794 64.6198 9.17594 65.2379 9.17594C66.2492 9.17594 66.9556 10.0399 66.9556 11.2959C66.9556 12.5919 66.169 13.5439 65.1014 13.5439ZM64.9088 9.90394C64.371 9.90394 63.8814 10.3679 63.8814 11.0159V11.7519C63.8814 12.3279 64.3228 12.7999 64.8927 12.7999C65.591 12.7999 66.0084 12.2319 66.0084 11.3279C66.0084 10.4799 65.575 9.90394 64.9088 9.90394Z" fill="black"/>
<path d="M68.3364 7.33594H69.2675V13.4399H68.3364V7.33594Z" fill="black"/>
<path d="M74.3482 11.5759H71.5469C71.563 12.3679 72.0927 12.8159 72.8713 12.8159C73.2887 12.8159 73.666 12.7439 74.0031 12.6159L74.1476 13.2639C73.7542 13.4399 73.2887 13.5199 72.7429 13.5199C71.4265 13.5199 70.6479 12.6959 70.6479 11.4079C70.6479 10.1279 71.4426 9.15991 72.6386 9.15991C73.7061 9.15991 74.3884 9.95191 74.3884 11.1519C74.3884 11.3199 74.3803 11.4639 74.3482 11.5759ZM73.4974 10.9119C73.4974 10.2639 73.1683 9.80791 72.5743 9.80791C72.0366 9.80791 71.6192 10.2719 71.555 10.9119H73.4974Z" fill="black"/>
<path d="M80.0071 13.544C78.779 13.544 77.9844 12.632 77.9844 11.392C77.9844 10.096 78.7951 9.17603 80.0793 9.17603C81.2913 9.17603 82.102 10.048 82.102 11.32C82.102 12.624 81.2673 13.544 80.0071 13.544ZM80.0472 9.85603C79.373 9.85603 78.9395 10.488 78.9395 11.36C78.9395 12.224 79.381 12.848 80.0392 12.848C80.6974 12.848 81.1388 12.176 81.1388 11.336C81.1308 10.488 80.7054 9.85603 80.0472 9.85603Z" fill="black"/>
<path d="M87.1186 13.448H86.1875V11.04C86.1875 10.296 85.8985 9.92797 85.3367 9.92797C84.7828 9.92797 84.4056 10.4 84.4056 10.952V13.44H83.4745V10.456C83.4745 10.088 83.4665 9.68797 83.4424 9.25597H84.2611L84.3012 9.90397H84.3253C84.5741 9.45597 85.0878 9.16797 85.6577 9.16797C86.5407 9.16797 87.1186 9.83997 87.1186 10.936V13.448Z" fill="black"/>
<path d="M93.2271 9.95982H92.1996V11.9918C92.1996 12.5118 92.3843 12.7678 92.7455 12.7678C92.906 12.7678 93.0505 12.7518 93.1628 12.7278L93.1869 13.4318C93.0023 13.5038 92.7615 13.5358 92.4645 13.5358C91.7261 13.5358 91.2926 13.1278 91.2926 12.0718V9.95982H90.6826V9.26382H91.2926V8.49582L92.2077 8.21582V9.25582H93.2351V9.95982" fill="black"/>
<path d="M98.1714 13.4479H97.2403V11.0559C97.2403 10.3039 96.9514 9.92794 96.3895 9.92794C95.9079 9.92794 95.4584 10.2559 95.4584 10.9199V13.4399H94.5273V7.33594H95.4584V9.84794H95.4745C95.7715 9.39194 96.1889 9.16794 96.7347 9.16794C97.6256 9.16794 98.1714 9.85594 98.1714 10.9519V13.4479Z" fill="black"/>
<path d="M102.939 11.5759H100.138C100.154 12.3679 100.684 12.8159 101.462 12.8159C101.88 12.8159 102.257 12.7439 102.594 12.6159L102.738 13.2639C102.345 13.4399 101.88 13.5199 101.334 13.5199C100.017 13.5199 99.2388 12.6959 99.2388 11.4079C99.2388 10.1279 100.033 9.15991 101.229 9.15991C102.297 9.15991 102.979 9.95191 102.979 11.1519C102.979 11.3199 102.971 11.4639 102.939 11.5759ZM102.088 10.9119C102.088 10.2639 101.759 9.80791 101.165 9.80791C100.627 9.80791 100.202 10.2719 100.146 10.9119H102.088Z" fill="black"/>
</g>
<defs>
<clipPath id="clip0_188_570">
<rect width="118.596" height="40" fill="white"/>
</clipPath>
</defs>
</svg>
