<svg width="16" height="10" viewBox="0 0 16 10" fill="none" xmlns="http://www.w3.org/2000/svg">
<path d="M15.2708 5.70592C15.6506 5.31548 15.6506 4.6814 15.2708 4.29096L11.3817 0.292831C11.0019 -0.0976107 10.3852 -0.0976107 10.0054 0.292831C9.62558 0.683273 9.62558 1.31735 10.0054 1.70779L12.2355 4.00047L0.972375 4.00047C0.434588 4.00047 0.00010471 4.44713 0.000104686 5C0.000104661 5.55286 0.434588 5.99953 0.972375 5.99953L12.2355 5.99953L10.0054 8.29221C9.62558 8.68265 9.62558 9.31673 10.0054 9.70717C10.3852 10.0976 11.0019 10.0976 11.3817 9.70717L15.2708 5.70904L15.2708 5.70592Z" fill="white"/>
</svg>
