<svg width="15" height="16" viewBox="0 0 15 16" fill="none" xmlns="http://www.w3.org/2000/svg">
<g clip-path="url(#clip0_323_1414)">
<mask id="mask0_323_1414" style="mask-type:luminance" maskUnits="userSpaceOnUse" x="0" y="0" width="15" height="16">
<path d="M14.4 0H0V16H14.4V0Z" fill="white"/>
</mask>
<g mask="url(#mask0_323_1414)">
<path d="M12.3426 8.80008L11.5426 9.60008L7.69461 13.4721C7.00249 14.1235 6.08388 14.4798 5.13349 14.4655C4.18312 14.4511 3.27569 14.0672 2.6036 13.3951C1.9315 12.723 1.54757 11.8156 1.5332 10.8652C1.51883 9.9148 1.87514 8.99616 2.52661 8.30408L8.7266 2.10408C8.93044 1.9008 9.17228 1.73965 9.43836 1.62982C9.70444 1.52001 9.98956 1.46368 10.2774 1.46405C10.5653 1.46442 10.8503 1.52149 11.116 1.63199C11.3819 1.7425 11.6233 1.90427 11.8266 2.10808C12.0299 2.3119 12.1911 2.55375 12.3008 2.81984C12.4107 3.08594 12.467 3.37105 12.4666 3.65891C12.4663 3.94678 12.4092 4.23174 12.2987 4.49755C12.1882 4.76336 12.0264 5.0048 11.8226 5.20808L6.14261 10.8881C6.00495 11.0234 5.81965 11.0993 5.62661 11.0993C5.43357 11.0993 5.24825 11.0234 5.11061 10.8881C4.97662 10.7481 4.90184 10.5618 4.90184 10.3681C4.90184 10.1743 4.97662 9.98808 5.11061 9.84808L8.2146 6.75208L8.4706 6.49608L9.2706 5.69608C9.38628 5.55442 9.44516 5.37476 9.43556 5.1921C9.42604 5.00944 9.34884 4.83687 9.219 4.70804C9.08916 4.57921 8.91604 4.50333 8.73332 4.4952C8.5506 4.48708 8.3714 4.54728 8.2306 4.66408L7.43061 5.46408L7.19861 5.72008L4.07861 8.80008C3.66487 9.21384 3.43243 9.77496 3.43243 10.3601C3.43243 10.6498 3.48949 10.9367 3.60037 11.2043C3.71124 11.472 3.87374 11.7152 4.07861 11.9201C4.28347 12.125 4.52667 12.2874 4.79434 12.3983C5.06201 12.5092 5.34889 12.5662 5.63861 12.5662C6.22372 12.5662 6.78487 12.3338 7.19861 11.9201L12.8786 6.24008C13.564 5.55264 13.9481 4.62111 13.9466 3.65042C13.9451 2.67974 13.558 1.7494 12.8706 1.06408C12.1832 0.378763 11.2516 -0.00540216 10.2809 -0.00390187C9.31028 -0.00240158 8.37996 0.384642 7.69461 1.07208L6.66261 2.10408L1.49461 7.27208C0.677399 8.252 0.256213 9.50216 0.313808 10.7768C0.371404 12.0515 0.903614 13.2586 1.80587 14.1608C2.70812 15.063 3.91517 15.5953 5.18985 15.6529C6.46453 15.7105 7.71466 15.2893 8.6946 14.4721L12.5746 10.5921L13.3746 9.79208C13.5124 9.65408 13.5897 9.46704 13.5897 9.27208C13.5897 9.07712 13.5124 8.89008 13.3746 8.75208C13.3039 8.6872 13.2209 8.63688 13.1307 8.60416C13.0404 8.57136 12.9445 8.5568 12.8486 8.56128C12.7527 8.56576 12.6586 8.58912 12.5717 8.63016C12.4849 8.67112 12.407 8.72888 12.3426 8.80008Z" fill="white"/>
</g>
</g>
<defs>
<clipPath id="clip0_323_1414">
<rect width="14.4" height="16" fill="white"/>
</clipPath>
</defs>
</svg>
