<svg width="64" height="64" viewBox="0 0 64 64" fill="none" xmlns="http://www.w3.org/2000/svg">
<path d="M52 0.5H12C5.64873 0.5 0.5 5.64873 0.5 12V52C0.5 58.3513 5.64873 63.5 12 63.5H52C58.3513 63.5 63.5 58.3513 63.5 52V12C63.5 5.64873 58.3513 0.5 52 0.5Z" stroke="#27282C"/>
<g filter="url(#filter0_d_147_927)">
<path d="M25 26.125C25 25.031 25.435 23.982 26.208 23.208C26.982 22.435 28.031 22 29.125 22C30.219 22 31.268 22.435 32.042 23.208C32.815 23.982 33.25 25.031 33.25 26.125C33.25 27.219 32.815 28.268 32.042 29.042C31.268 29.815 30.219 30.25 29.125 30.25C28.031 30.25 26.982 29.815 26.208 29.042C25.435 28.268 25 27.219 25 26.125ZM34.75 28.375C34.75 27.932 34.837 27.493 35.007 27.083C35.177 26.674 35.425 26.302 35.739 25.989C36.052 25.675 36.424 25.427 36.833 25.257C37.243 25.087 37.682 25 38.125 25C38.568 25 39.007 25.087 39.417 25.257C39.826 25.427 40.198 25.675 40.511 25.989C40.825 26.302 41.073 26.674 41.243 27.083C41.413 27.493 41.5 27.932 41.5 28.375C41.5 29.27 41.144 30.129 40.511 30.761C39.879 31.394 39.02 31.75 38.125 31.75C37.23 31.75 36.371 31.394 35.739 30.761C35.106 30.129 34.75 29.27 34.75 28.375ZM22 38.875C22 36.985 22.751 35.173 24.087 33.837C25.423 32.501 27.235 31.75 29.125 31.75C31.015 31.75 32.827 32.501 34.163 33.837C35.499 35.173 36.25 36.985 36.25 38.875V38.878L36.249 38.997C36.247 39.124 36.212 39.249 36.149 39.359C36.085 39.469 35.995 39.561 35.886 39.627C33.845 40.856 31.507 41.504 29.125 41.5C26.653 41.5 24.339 40.816 22.365 39.627C22.256 39.562 22.165 39.469 22.101 39.359C22.038 39.249 22.003 39.124 22.001 38.997L22 38.875ZM37.75 38.878L37.749 39.022C37.743 39.355 37.664 39.683 37.516 39.982C39.262 40.09 41.005 39.742 42.576 38.972C42.697 38.913 42.801 38.822 42.875 38.708C42.948 38.595 42.99 38.464 42.996 38.329C43.031 37.49 42.849 36.657 42.468 35.909C42.086 35.161 41.518 34.524 40.819 34.061C40.119 33.597 39.311 33.321 38.474 33.261C37.636 33.201 36.798 33.359 36.039 33.718C37.152 35.207 37.752 37.016 37.749 38.875L37.75 38.878Z" fill="#0784b5"/>
</g>
<defs>
<filter id="filter0_d_147_927" x="18" y="22" width="29" height="27.5" filterUnits="userSpaceOnUse" color-interpolation-filters="sRGB">
<feFlood flood-opacity="0" result="BackgroundImageFix"/>
<feColorMatrix in="SourceAlpha" type="matrix" values="0 0 0 0 0 0 0 0 0 0 0 0 0 0 0 0 0 0 127 0" result="hardAlpha"/>
<feOffset dy="4"/>
<feGaussianBlur stdDeviation="2"/>
<feComposite in2="hardAlpha" operator="out"/>
<feColorMatrix type="matrix" values="0 0 0 0 0 0 0 0 0 0 0 0 0 0 0 0 0 0 0.25 0"/>
<feBlend mode="normal" in2="BackgroundImageFix" result="effect1_dropShadow_147_927"/>
<feBlend mode="normal" in="SourceGraphic" in2="effect1_dropShadow_147_927" result="shape"/>
</filter>

</defs>
</svg>
