<svg width="16" height="10" viewBox="0 0 16 10" fill="none" xmlns="http://www.w3.org/2000/svg">
<path d="M15.2707 5.70592C15.6505 5.31548 15.6505 4.6814 15.2707 4.29096L11.3816 0.292831C11.0018 -0.0976104 10.3851 -0.0976104 10.0053 0.292831C9.62547 0.683273 9.62547 1.31735 10.0053 1.70779L12.2354 4.00047H0.97227C0.434483 4.00047 2.4e-08 4.44713 0 5C-2.5e-08 5.55286 0.434483 5.99953 0.97227 5.99953H12.2354L10.0053 8.29221C9.62547 8.68265 9.62547 9.31673 10.0053 9.70717C10.3851 10.0976 11.0018 10.0976 11.3816 9.70717L15.2707 5.70904V5.70592Z" fill="url(#paint0_linear_246_417)"/>
<defs>
<linearGradient id="paint0_linear_246_417" x1="1.15898e-07" y1="4.99999" x2="15.5555" y2="4.99999" gradientUnits="userSpaceOnUse">
<stop stop-color="#1595C2"/>
<stop offset="1" stop-color="#66BFDE"/>
</linearGradient>
</defs>
</svg>
