<svg width="640" height="512" viewBox="0 0 640 512" fill="none" xmlns="http://www.w3.org/2000/svg">
<path d="M535 40.9126C525.6 31.5126 525.6 16.3126 535 7.01255C544.4 -2.28745 559.6 -2.38745 568.9 7.01255L632.9 71.0126C637.4 75.5126 639.9 81.6126 639.9 88.0126C639.9 94.4126 637.4 100.513 632.9 105.013L568.9 169.013C559.5 178.413 544.3 178.413 535 169.013C525.7 159.613 525.6 144.413 535 135.113L558 112.113L384 111.913C370.7 111.913 360 101.213 360 87.9126C360 74.6126 370.7 63.9126 384 63.9126H558.1L535 40.9126ZM105 376.913L82 399.913H256C269.3 399.913 280 410.613 280 423.913C280 437.213 269.3 447.913 256 447.913H81.9L104.9 470.913C114.3 480.313 114.3 495.513 104.9 504.813C95.5 514.113 80.3 514.213 71 504.813L7 440.913C2.5 436.413 0 430.313 0 423.913C0 417.513 2.5 411.413 7 406.913L71 342.913C80.4 333.513 95.6 333.513 104.9 342.913C114.2 352.313 114.3 367.513 104.9 376.813L105 376.913ZM96 63.9126H337.9C334.2 71.1126 332 79.2126 332 87.9126C332 116.613 355.3 139.913 384 139.913H501.4C497.4 156.913 502 175.413 515.2 188.713C535.5 209.013 568.4 209.013 588.7 188.713L608 169.413V383.913C608 419.213 579.3 447.913 544 447.913H302.1C305.8 440.713 308 432.613 308 423.913C308 395.213 284.7 371.913 256 371.913H138.6C142.6 354.913 138 336.413 124.8 323.113C104.5 302.813 71.6 302.813 51.3 323.113L32 342.413V127.913C32 92.6126 60.7 63.9126 96 63.9126ZM160 127.913H96V191.913C131.3 191.913 160 163.213 160 127.913ZM544 319.913C508.7 319.913 480 348.613 480 383.913H544V319.913ZM320 351.913C345.461 351.913 369.879 341.798 387.882 323.795C405.886 305.791 416 281.373 416 255.913C416 230.452 405.886 206.034 387.882 188.03C369.879 170.027 345.461 159.913 320 159.913C294.539 159.913 270.121 170.027 252.118 188.03C234.114 206.034 224 230.452 224 255.913C224 281.373 234.114 305.791 252.118 323.795C270.121 341.798 294.539 351.913 320 351.913Z" fill="url(#paint0_linear_246_411)"/>
<defs>
<linearGradient id="paint0_linear_246_411" x1="4.76763e-06" y1="255.913" x2="639.9" y2="255.913" gradientUnits="userSpaceOnUse">
<stop stop-color="#1595C2"/>
<stop offset="1" stop-color="#66BFDE"/>
</linearGradient>
</defs>
</svg>