<svg width="12" height="22" viewBox="0 0 12 22" fill="none" xmlns="http://www.w3.org/2000/svg">
<path d="M11.7081 11.7081L1.70806 21.7081C1.61515 21.801 1.50485 21.8747 1.38345 21.9249C1.26206 21.9752 1.13195 22.0011 1.00056 22.0011C0.869161 22.0011 0.739053 21.9752 0.61766 21.9249C0.496267 21.8747 0.385966 21.801 0.293056 21.7081C0.200145 21.6151 0.126445 21.5048 0.0761623 21.3835C0.0258797 21.2621 0 21.132 0 21.0006C0 20.8692 0.0258797 20.7391 0.0761623 20.6177C0.126445 20.4963 0.200145 20.386 0.293056 20.2931L9.58681 11.0006L0.293056 1.70806C0.105415 1.52042 -1.97712e-09 1.26592 0 1.00056C1.97712e-09 0.735192 0.105415 0.480697 0.293056 0.293056C0.480696 0.105415 0.735192 1.97712e-09 1.00056 0C1.26592 -1.97712e-09 1.52042 0.105415 1.70806 0.293056L11.7081 10.2931C11.801 10.3859 11.8748 10.4962 11.9251 10.6176C11.9754 10.739 12.0013 10.8691 12.0013 11.0006C12.0013 11.132 11.9754 11.2621 11.9251 11.3835C11.8748 11.5049 11.801 11.6152 11.7081 11.7081Z" fill="white"/>
</svg>
