<svg width="64" height="64" viewBox="0 0 64 64" fill="none" xmlns="http://www.w3.org/2000/svg">
<path d="M52 0.5H12C5.64873 0.5 0.5 5.64873 0.5 12V52C0.5 58.3513 5.64873 63.5 12 63.5H52C58.3513 63.5 63.5 58.3513 63.5 52V12C63.5 5.64873 58.3513 0.5 52 0.5Z" stroke="#27282C"/>
<path fill-rule="evenodd" clip-rule="evenodd" d="M34.739 26.4813C34.81 26.2953 34.952 26.1463 35.134 26.0653C35.315 25.9843 35.521 25.9783 35.707 26.0493L41.649 28.3293C41.741 28.3643 41.825 28.4173 41.897 28.4853C41.968 28.5533 42.026 28.6353 42.066 28.7253C42.106 28.8153 42.127 28.9123 42.13 29.0103C42.132 29.1093 42.115 29.2073 42.08 29.2993L39.8 35.2403C39.767 35.3353 39.715 35.4213 39.647 35.4953C39.58 35.5693 39.498 35.6293 39.407 35.6713C39.316 35.7133 39.218 35.7373 39.118 35.7403C39.017 35.7433 38.918 35.7273 38.824 35.6913C38.731 35.6553 38.645 35.6013 38.573 35.5313C38.501 35.4623 38.443 35.3783 38.404 35.2863C38.364 35.1943 38.343 35.0953 38.343 34.9953C38.342 34.8953 38.362 34.7963 38.4 34.7033L40.03 30.4523L38.944 30.9353C36.586 31.9813 34.661 33.8083 33.494 36.1093C33.44 36.2153 33.362 36.3063 33.267 36.3763C33.171 36.4453 33.06 36.4913 32.943 36.5103C32.826 36.5283 32.706 36.5193 32.594 36.4823C32.481 36.4463 32.379 36.3833 32.295 36.2993L28.519 32.5233L22.299 38.7433C22.23 38.8173 22.148 38.8763 22.056 38.9173C21.964 38.9583 21.864 38.9803 21.763 38.9823C21.663 38.9833 21.563 38.9653 21.469 38.9273C21.376 38.8893 21.291 38.8333 21.22 38.7623C21.149 38.6913 21.093 38.6063 21.055 38.5133C21.017 38.4193 20.999 38.3193 21 38.2193C21.002 38.1183 21.024 38.0183 21.065 37.9273C21.106 37.8353 21.165 37.7523 21.239 37.6833L27.989 30.9333C28.13 30.7933 28.32 30.7143 28.519 30.7143C28.718 30.7143 28.908 30.7933 29.049 30.9333L32.655 34.5383C34 32.3433 35.981 30.6083 38.335 29.5653L39.421 29.0813L35.17 27.4503C35.078 27.4153 34.994 27.3623 34.922 27.2943C34.85 27.2263 34.793 27.1453 34.753 27.0553C34.713 26.9653 34.691 26.8673 34.688 26.7693C34.686 26.6703 34.703 26.5723 34.738 26.4803L34.739 26.4813Z" fill="#0784b5"/>
<defs>
</defs>
</svg>
