<svg width="64" height="64" viewBox="0 0 64 64" fill="none" xmlns="http://www.w3.org/2000/svg">
<path d="M52 0.5H12C5.64873 0.5 0.5 5.64873 0.5 12V52C0.5 58.3513 5.64873 63.5 12 63.5H52C58.3513 63.5 63.5 58.3513 63.5 52V12C63.5 5.64873 58.3513 0.5 52 0.5Z" stroke="#27282C"/>
<path d="M41.3785 25.5864C42.1984 24.7664 42.1984 23.4349 41.3785 22.6149C40.5586 21.795 39.227 21.795 38.4071 22.6149L31.5 29.5286L24.5864 22.6215C23.7664 21.8016 22.4349 21.8016 21.6149 22.6215C20.795 23.4414 20.795 24.773 21.6149 25.5929L28.5286 32.5L21.6215 39.4136C20.8016 40.2336 20.8016 41.5651 21.6215 42.3851C22.4414 43.205 23.773 43.205 24.5929 42.3851L31.5 35.4714L38.4136 42.3785C39.2336 43.1984 40.5651 43.1984 41.3851 42.3785C42.205 41.5586 42.205 40.227 41.3851 39.4071L34.4714 32.5L41.3785 25.5864Z" fill="url(#paint0_linear_0_1)"/>
<defs>
<linearGradient id="paint0_linear_0_1" x1="21" y1="32.5" x2="42" y2="32.5" gradientUnits="userSpaceOnUse">
<stop stop-color="#C21515"/>
<stop offset="1" stop-color="#DE6666"/>
</linearGradient>
</defs>
</svg>
