<svg width="16" height="16" viewBox="0 0 16 16" fill="none" xmlns="http://www.w3.org/2000/svg">
<path d="M15.9683 10.2072C15.4614 11.8618 14.4457 13.3143 13.0655 14.3581C11.8538 15.2701 10.4119 15.8263 8.90161 15.9644C7.39133 16.1024 5.87248 15.8167 4.51552 15.1395C3.15857 14.4622 2.01723 13.4202 1.21962 12.1303C0.421998 10.8404 -0.000328885 9.35374 3.83959e-05 7.83717C-0.00541435 6.067 0.570043 4.34394 1.63813 2.93231C2.68197 1.55217 4.13451 0.536401 5.78906 0.0295618C5.89811 -0.00401571 6.01424 -0.007231 6.12498 0.0202617C6.23572 0.0477545 6.33687 0.104915 6.41755 0.185596C6.49823 0.266277 6.55539 0.367426 6.58288 0.478164C6.61038 0.588902 6.60716 0.70504 6.57358 0.814088C6.21179 2.01083 6.18146 3.2833 6.48581 4.49592C6.79017 5.70854 7.41781 6.81587 8.30186 7.69992C9.1859 8.58396 10.2932 9.2116 11.5058 9.51596C12.7185 9.82031 13.9909 9.78998 15.1877 9.42819C15.2967 9.39461 15.4129 9.39139 15.5236 9.41889C15.6343 9.44638 15.7355 9.50354 15.8162 9.58422C15.8969 9.6649 15.954 9.76605 15.9815 9.87679C16.009 9.98753 16.0058 10.1037 15.9722 10.2127L15.9683 10.2072Z" fill="#8CD1EA"/>
</svg>
