<svg width="30" height="30" viewBox="0 0 30 30" fill="none" xmlns="http://www.w3.org/2000/svg">
<rect width="30" height="30" rx="15" fill="white" fill-opacity="0.08"/>
<path d="M22.9683 17.2072C22.4614 18.8618 21.4457 20.3143 20.0655 21.3581C18.8538 22.2701 17.4119 22.8263 15.9016 22.9644C14.3913 23.1024 12.8725 22.8167 11.5155 22.1395C10.1586 21.4622 9.01723 20.4202 8.21962 19.1303C7.422 17.8404 6.99967 16.3537 7.00004 14.8372C6.99459 13.067 7.57004 11.3439 8.63813 9.93231C9.68197 8.55216 11.1345 7.5364 12.7891 7.02956C12.8981 6.99598 13.0142 6.99277 13.125 7.02026C13.2357 7.04775 13.3369 7.10492 13.4175 7.1856C13.4982 7.26628 13.5554 7.36743 13.5829 7.47816C13.6104 7.5889 13.6072 7.70504 13.5736 7.81409C13.2118 9.01083 13.1815 10.2833 13.4858 11.4959C13.7902 12.7085 14.4178 13.8159 15.3019 14.6999C16.1859 15.584 17.2932 16.2116 18.5058 16.516C19.7185 16.8203 20.9909 16.79 22.1877 16.4282C22.2967 16.3946 22.4129 16.3914 22.5236 16.4189C22.6343 16.4464 22.7355 16.5035 22.8162 16.5842C22.8969 16.6649 22.954 16.766 22.9815 16.8768C23.009 16.9875 23.0058 17.1037 22.9722 17.2127L22.9683 17.2072Z" fill="#8CD1EA"/>
</svg>
