<svg width="14" height="16" viewBox="0 0 14 16" fill="none" xmlns="http://www.w3.org/2000/svg">
<g clip-path="url(#clip0_310_1202)">
<path d="M4.18476 0.553125L3.9619 1H0.990476C0.442619 1 0 1.44687 0 2C0 2.55312 0.442619 3 0.990476 3H12.8762C13.424 3 13.8667 2.55312 13.8667 2C13.8667 1.44687 13.424 1 12.8762 1H9.90476L9.6819 0.553125C9.51476 0.2125 9.17119 0 8.79667 0H5.07C4.69548 0 4.3519 0.2125 4.18476 0.553125ZM12.8762 4H0.990476L1.64667 14.5938C1.69619 15.3844 2.34619 16 3.12929 16H10.7374C11.5205 16 12.1705 15.3844 12.22 14.5938L12.8762 4Z" fill="white"/>
</g>
<defs>
<clipPath id="clip0_310_1202">
<rect width="13.8667" height="16" fill="white"/>
</clipPath>
</defs>
</svg>
