<svg width="16" height="16" viewBox="0 0 16 16" fill="none" xmlns="http://www.w3.org/2000/svg">
<g clip-path="url(#clip0_479_1909)">
<path d="M8 14.5C6.27609 14.5 4.62279 13.8152 3.40381 12.5962C2.18482 11.3772 1.5 9.72391 1.5 8C1.5 6.27609 2.18482 4.62279 3.40381 3.40381C4.62279 2.18482 6.27609 1.5 8 1.5C9.72391 1.5 11.3772 2.18482 12.5962 3.40381C13.8152 4.62279 14.5 6.27609 14.5 8C14.5 9.72391 13.8152 11.3772 12.5962 12.5962C11.3772 13.8152 9.72391 14.5 8 14.5ZM8 0C5.87827 0 3.84344 0.842855 2.34315 2.34315C0.842855 3.84344 0 5.87827 0 8C0 10.1217 0.842855 12.1566 2.34315 13.6569C3.84344 15.1571 5.87827 16 8 16C10.1217 16 12.1566 15.1571 13.6569 13.6569C15.1571 12.1566 16 10.1217 16 8C16 5.87827 15.1571 3.84344 13.6569 2.34315C12.1566 0.842855 10.1217 0 8 0ZM11.7781 9.20625C11.9187 9.075 12 8.89062 12 8.69687C12 8.3125 11.6875 8 11.3031 8H9.5V5C9.5 4.44687 9.05313 4 8.5 4H7.5C6.94687 4 6.5 4.44687 6.5 5V8H4.69688C4.3125 8 4 8.3125 4 8.69687C4 8.89062 4.08125 9.075 4.22188 9.20625L7.56875 12.3281C7.6875 12.4375 7.84063 12.5 8 12.5C8.15937 12.5 8.31562 12.4375 8.43125 12.3281L11.7781 9.20625Z" fill="#C4C4C4"/>
</g>
<defs>
<clipPath id="clip0_479_1909">
<rect width="16" height="16" fill="white"/>
</clipPath>
</defs>
</svg>
