<svg width="16" height="16" viewBox="0 0 16 16" fill="none" xmlns="http://www.w3.org/2000/svg">
<g clip-path="url(#clip0_310_1205)">
<path d="M11.3342 0.603516L9.82166 2.11602L13.8842 6.17851L15.3967 4.66602C16.1779 3.88477 16.1779 2.61914 15.3967 1.83789L14.1654 0.603516C13.3842 -0.177734 12.1185 -0.177734 11.3373 0.603516H11.3342ZM9.11541 2.82227L1.83103 10.1098C1.50603 10.4348 1.26853 10.8379 1.13728 11.2785L0.0310334 15.0379C-0.0470916 15.3035 0.0247834 15.5879 0.218533 15.7816C0.412283 15.9754 0.696658 16.0473 0.959158 15.9723L4.71853 14.866C5.15916 14.7348 5.56228 14.4973 5.88728 14.1723L13.1779 6.88477L9.11541 2.82227Z" fill="white"/>
</g>
<defs>
<clipPath id="clip0_310_1205">
<rect width="16" height="16" fill="white"/>
</clipPath>
</defs>
</svg>
