<svg width="20" height="20" viewBox="0 0 20 20" fill="none" xmlns="http://www.w3.org/2000/svg">
<circle cx="10" cy="10" r="10" fill="#F24236"/>
<path d="M13.0068 8.05712C13.2485 7.81544 13.2485 7.42295 13.0068 7.18126C12.7651 6.93958 12.3726 6.93958 12.1309 7.18126L10.095 9.21914L8.05712 7.1832C7.81544 6.94151 7.42295 6.94151 7.18126 7.1832C6.93958 7.42488 6.93958 7.81737 7.18126 8.05906L9.21914 10.095L7.1832 12.1329C6.94151 12.3746 6.94151 12.7671 7.1832 13.0087C7.42488 13.2504 7.81737 13.2504 8.05906 13.0087L10.095 10.9709L12.1329 13.0068C12.3746 13.2485 12.7671 13.2485 13.0087 13.0068C13.2504 12.7651 13.2504 12.3726 13.0087 12.1309L10.9709 10.095L13.0068 8.05712Z" fill="white"/>
</svg>
