<svg width="26" height="26" viewBox="0 0 26 26" fill="none" xmlns="http://www.w3.org/2000/svg">
<path d="M13 0C10.4288 0 7.91543 0.762437 5.77759 2.1909C3.63975 3.61935 1.97351 5.64968 0.989572 8.02512C0.0056327 10.4006 -0.251811 13.0144 0.249797 15.5362C0.751405 18.0579 1.98953 20.3743 3.80762 22.1924C5.6257 24.0105 7.94208 25.2486 10.4638 25.7502C12.9856 26.2518 15.5995 25.9944 17.9749 25.0104C20.3503 24.0265 22.3807 22.3603 23.8091 20.2224C25.2376 18.0846 26 15.5712 26 13C25.9964 9.5533 24.6256 6.24882 22.1884 3.81163C19.7512 1.37445 16.4467 0.00363977 13 0ZM9.70376 18H16.2963C15.625 20.2925 14.5 22.3587 13 23.9862C11.5 22.3587 10.375 20.2925 9.70376 18ZM9.25001 16C8.91834 14.0138 8.91834 11.9862 9.25001 10H16.75C17.0817 11.9862 17.0817 14.0138 16.75 16H9.25001ZM2.00001 13C1.99914 11.9855 2.13923 10.9759 2.41626 10H7.22376C6.92542 11.9889 6.92542 14.0111 7.22376 16H2.41626C2.13923 15.0241 1.99914 14.0145 2.00001 13ZM16.2963 8H9.70376C10.375 5.7075 11.5 3.64125 13 2.01375C14.5 3.64125 15.625 5.7075 16.2963 8ZM18.7763 10H23.5838C24.1388 11.9615 24.1388 14.0385 23.5838 16H18.7763C19.0746 14.0111 19.0746 11.9889 18.7763 10ZM22.7963 8H18.3675C17.8572 5.99189 17.0001 4.0883 15.835 2.375C17.3236 2.77503 18.7119 3.48215 19.9108 4.45091C21.1097 5.41967 22.0926 6.62861 22.7963 8ZM10.165 2.375C8.99987 4.0883 8.14284 5.99189 7.63251 8H3.20376C3.90741 6.62861 4.89029 5.41967 6.08918 4.45091C7.28808 3.48215 8.67644 2.77503 10.165 2.375ZM3.20376 18H7.63251C8.14284 20.0081 8.99987 21.9117 10.165 23.625C8.67644 23.225 7.28808 22.5178 6.08918 21.5491C4.89029 20.5803 3.90741 19.3714 3.20376 18ZM15.835 23.625C17.0001 21.9117 17.8572 20.0081 18.3675 18H22.7963C22.0926 19.3714 21.1097 20.5803 19.9108 21.5491C18.7119 22.5178 17.3236 23.225 15.835 23.625Z" fill="white"/>
</svg>
