<svg width="14" height="16" viewBox="0 0 14 16" fill="none" xmlns="http://www.w3.org/2000/svg">
<g clip-path="url(#clip0_55_666)">
<path d="M7.00303 4.40635C5.01553 4.40635 3.4124 6.00947 3.4124 7.99697C3.4124 9.98447 5.01553 11.5876 7.00303 11.5876C8.99053 11.5876 10.5937 9.98447 10.5937 7.99697C10.5937 6.00947 8.99053 4.40635 7.00303 4.40635ZM7.00303 10.3313C5.71865 10.3313 4.66865 9.28447 4.66865 7.99697C4.66865 6.70947 5.71553 5.6626 7.00303 5.6626C8.29053 5.6626 9.3374 6.70947 9.3374 7.99697C9.3374 9.28447 8.2874 10.3313 7.00303 10.3313ZM11.578 4.25947C11.578 4.7251 11.203 5.09697 10.7405 5.09697C10.2749 5.09697 9.90303 4.72197 9.90303 4.25947C9.90303 3.79697 10.278 3.42197 10.7405 3.42197C11.203 3.42197 11.578 3.79697 11.578 4.25947ZM13.9562 5.10947C13.903 3.9876 13.6468 2.99385 12.8249 2.1751C12.0062 1.35635 11.0124 1.1001 9.89053 1.04385C8.73428 0.978223 5.26865 0.978223 4.1124 1.04385C2.99365 1.09697 1.9999 1.35322 1.17803 2.17197C0.356152 2.99072 0.103027 3.98447 0.0467773 5.10635C-0.0188477 6.2626 -0.0188477 9.72822 0.0467773 10.8845C0.0999023 12.0063 0.356152 13.0001 1.17803 13.8188C1.9999 14.6376 2.99053 14.8938 4.1124 14.9501C5.26865 15.0157 8.73428 15.0157 9.89053 14.9501C11.0124 14.897 12.0062 14.6407 12.8249 13.8188C13.6437 13.0001 13.8999 12.0063 13.9562 10.8845C14.0218 9.72822 14.0218 6.26572 13.9562 5.10947ZM12.4624 12.1251C12.2187 12.7376 11.7468 13.2095 11.1312 13.4563C10.2093 13.822 8.02178 13.7376 7.00303 13.7376C5.98428 13.7376 3.79365 13.8188 2.8749 13.4563C2.2624 13.2126 1.79053 12.7407 1.54365 12.1251C1.17803 11.2032 1.2624 9.01572 1.2624 7.99697C1.2624 6.97822 1.18115 4.7876 1.54365 3.86885C1.7874 3.25635 2.25928 2.78447 2.8749 2.5376C3.79678 2.17197 5.98428 2.25635 7.00303 2.25635C8.02178 2.25635 10.2124 2.1751 11.1312 2.5376C11.7437 2.78135 12.2155 3.25322 12.4624 3.86885C12.828 4.79072 12.7437 6.97822 12.7437 7.99697C12.7437 9.01572 12.828 11.2063 12.4624 12.1251Z" fill="white"/>
</g>
<defs>
<clipPath id="clip0_55_666">
<rect width="14" height="16" fill="white"/>
</clipPath>
</defs>
</svg>
