<svg width="16" height="16" viewBox="0 0 16 16" fill="none" xmlns="http://www.w3.org/2000/svg">
<path d="M15.1086 4.08095C14.9691 4.15317 14.8067 4.16706 14.6569 4.11957C14.5072 4.07208 14.3825 3.96708 14.3102 3.82767C13.7447 2.71048 12.8887 1.76624 11.8322 1.09416C11.7663 1.05263 11.7093 0.998539 11.6644 0.934975C11.6195 0.871411 11.5875 0.799619 11.5703 0.723697C11.5531 0.647775 11.551 0.56921 11.5642 0.492487C11.5774 0.415765 11.6055 0.342388 11.647 0.276546C11.6886 0.210704 11.7427 0.153687 11.8062 0.108749C11.8698 0.0638107 11.9416 0.0318326 12.0175 0.01464C12.0934 -0.00255247 12.172 -0.00462266 12.2487 0.00854767C12.3254 0.021718 12.3988 0.0498709 12.4647 0.0913991C13.696 0.879783 14.6958 1.98106 15.3618 3.2826C15.4341 3.42206 15.4479 3.5845 15.4005 3.7342C15.353 3.88391 15.248 4.00863 15.1086 4.08095ZM1.164 4.14761C1.27254 4.14756 1.37899 4.1177 1.47172 4.06128C1.56444 4.00486 1.63989 3.92405 1.68982 3.82767C2.25534 2.71048 3.11132 1.76624 4.16783 1.09416C4.3008 1.01029 4.39502 0.877028 4.42974 0.723697C4.46446 0.570365 4.43685 0.40952 4.35298 0.276546C4.26911 0.143572 4.13585 0.0493619 3.98252 0.01464C3.82919 -0.0200818 3.66834 0.00752924 3.53537 0.0913991C2.30407 0.879783 1.30425 1.98106 0.638182 3.2826C0.591405 3.37289 0.568655 3.4737 0.572122 3.57533C0.575589 3.67696 0.605155 3.77599 0.657977 3.86288C0.710798 3.94978 0.785096 4.02162 0.87372 4.07148C0.962344 4.12135 1.06231 4.14756 1.164 4.14761ZM14.9464 11.8453C15.0513 12.0253 15.107 12.2298 15.1077 12.4381C15.1084 12.6465 15.0542 12.8514 14.9504 13.0321C14.8467 13.2128 14.6972 13.363 14.5169 13.4674C14.3366 13.5719 14.132 13.627 13.9236 13.6271H10.902C10.766 14.2968 10.4027 14.8989 9.87363 15.3313C9.34455 15.7638 8.68223 16 7.9989 16C7.31557 16 6.65325 15.7638 6.12417 15.3313C5.59508 14.8989 5.23177 14.2968 5.09579 13.6271H2.07418C1.86595 13.6267 1.66149 13.5715 1.48142 13.4669C1.30135 13.3623 1.15202 13.2121 1.04847 13.0314C0.944918 12.8508 0.890808 12.646 0.891589 12.4378C0.892369 12.2295 0.948012 12.0252 1.05291 11.8453C1.72018 10.6937 2.07418 9.05623 2.07418 7.10996C2.07418 5.53863 2.69839 4.03166 3.80949 2.92056C4.92059 1.80946 6.42757 1.18525 7.9989 1.18525C9.57023 1.18525 11.0772 1.80946 12.1883 2.92056C13.2994 4.03166 13.9236 5.53863 13.9236 7.10996C13.9236 9.05549 14.2776 10.6929 14.9464 11.8453ZM9.67411 13.6271H6.32369C6.44643 13.9733 6.6734 14.2729 6.97338 14.4848C7.27336 14.6968 7.63162 14.8105 7.9989 14.8105C8.36618 14.8105 8.72444 14.6968 9.02442 14.4848C9.3244 14.2729 9.55136 13.9733 9.67411 13.6271Z" fill="white"/>
</svg>
