<svg width="30" height="30" viewBox="0 0 30 30" fill="none" xmlns="http://www.w3.org/2000/svg">
<rect width="30" height="30" rx="15" fill="white" fill-opacity="0.08"/>
<path d="M15 7C13.4178 7 11.871 7.46919 10.5554 8.34824C9.23985 9.22729 8.21447 10.4767 7.60897 11.9385C7.00347 13.4003 6.84504 15.0089 7.15372 16.5607C7.4624 18.1126 8.22433 19.538 9.34315 20.6569C10.462 21.7757 11.8874 22.5376 13.4393 22.8463C14.9911 23.155 16.5997 22.9965 18.0615 22.391C19.5233 21.7855 20.7727 20.7602 21.6518 19.4446C22.5308 18.129 23 16.5822 23 15C22.9978 12.879 22.1542 10.8454 20.6544 9.34562C19.1546 7.84581 17.121 7.00224 15 7ZM21.0285 11.9231H18.3031C17.989 10.6873 17.4616 9.51588 16.7446 8.46154C17.6607 8.70771 18.515 9.14286 19.2528 9.73902C19.9906 10.3352 20.5954 11.0791 21.0285 11.9231ZM15 8.23923C15.9231 9.23923 16.6154 10.5123 17.0285 11.9231H12.9715C13.3846 10.5123 14.0769 9.24077 15 8.23923ZM12.5385 15C12.5386 14.3814 12.59 13.7639 12.6923 13.1538H17.3077C17.5118 14.3762 17.5118 15.6238 17.3077 16.8462H12.6923C12.59 16.2361 12.5386 15.6186 12.5385 15ZM12.9715 18.0769H17.0285C16.6154 19.4877 15.9231 20.7592 15 21.7608C14.0769 20.7592 13.3846 19.4877 12.9715 18.0769ZM16.7446 21.5385C17.4616 20.4841 17.989 19.3127 18.3031 18.0769H21.0285C20.5954 18.9209 19.9906 19.6648 19.2528 20.261C18.515 20.8571 17.6607 21.2923 16.7446 21.5385ZM18.5546 16.8462C18.7382 15.6222 18.7382 14.3778 18.5546 13.1538H21.5131C21.8546 14.3609 21.8546 15.6391 21.5131 16.8462H18.5546Z" fill="white"/>
</svg>
