<svg width="30" height="30" viewBox="0 0 30 30" fill="none" xmlns="http://www.w3.org/2000/svg">
<rect width="30" height="30" rx="15" fill="white" fill-opacity="0.08"/>
<path d="M14.4667 9.13333V7.53333C14.4667 7.39188 14.5229 7.25623 14.6229 7.15621C14.7229 7.05619 14.8586 7 15 7C15.1414 7 15.2771 7.05619 15.3771 7.15621C15.4771 7.25623 15.5333 7.39188 15.5333 7.53333V9.13333C15.5333 9.27478 15.4771 9.41044 15.3771 9.51046C15.2771 9.61048 15.1414 9.66667 15 9.66667C14.8586 9.66667 14.7229 9.61048 14.6229 9.51046C14.5229 9.41044 14.4667 9.27478 14.4667 9.13333ZM15 10.7333C14.1561 10.7333 13.3312 10.9836 12.6296 11.4524C11.9279 11.9212 11.381 12.5876 11.0581 13.3672C10.7352 14.1468 10.6507 15.0047 10.8153 15.8324C10.9799 16.66 11.3863 17.4203 11.983 18.017C12.5797 18.6137 13.34 19.0201 14.1676 19.1847C14.9953 19.3493 15.8532 19.2648 16.6328 18.9419C17.4124 18.619 18.0788 18.0721 18.5476 17.3704C19.0164 16.6688 19.2667 15.8439 19.2667 15C19.2654 13.8688 18.8155 12.7843 18.0156 11.9844C17.2157 11.1845 16.1312 10.7346 15 10.7333ZM10.356 11.1107C10.4561 11.2107 10.5918 11.267 10.7333 11.267C10.8749 11.267 11.0106 11.2107 11.1107 11.1107C11.2107 11.0106 11.267 10.8749 11.267 10.7333C11.267 10.5918 11.2107 10.4561 11.1107 10.356L10.044 9.28933C9.94393 9.18926 9.80819 9.13304 9.66667 9.13304C9.52514 9.13304 9.38941 9.18926 9.28933 9.28933C9.18926 9.38941 9.13304 9.52514 9.13304 9.66667C9.13304 9.80819 9.18926 9.94393 9.28933 10.044L10.356 11.1107ZM10.356 18.8893L9.28933 19.956C9.18926 20.0561 9.13304 20.1918 9.13304 20.3333C9.13304 20.4749 9.18926 20.6106 9.28933 20.7107C9.38941 20.8107 9.52514 20.867 9.66667 20.867C9.80819 20.867 9.94393 20.8107 10.044 20.7107L11.1107 19.644C11.1602 19.5944 11.1995 19.5356 11.2263 19.4709C11.2532 19.4061 11.267 19.3367 11.267 19.2667C11.267 19.1966 11.2532 19.1272 11.2263 19.0625C11.1995 18.9977 11.1602 18.9389 11.1107 18.8893C11.0611 18.8398 11.0023 18.8005 10.9375 18.7737C10.8728 18.7468 10.8034 18.733 10.7333 18.733C10.6633 18.733 10.5939 18.7468 10.5291 18.7737C10.4644 18.8005 10.4056 18.8398 10.356 18.8893ZM19.2667 11.2667C19.3367 11.2667 19.4061 11.253 19.4709 11.2262C19.5356 11.1994 19.5944 11.1602 19.644 11.1107L20.7107 10.044C20.8107 9.94393 20.867 9.80819 20.867 9.66667C20.867 9.52514 20.8107 9.38941 20.7107 9.28933C20.6106 9.18926 20.4749 9.13304 20.3333 9.13304C20.1918 9.13304 20.0561 9.18926 19.956 9.28933L18.8893 10.356C18.8147 10.4306 18.7638 10.5257 18.7432 10.6292C18.7226 10.7327 18.7331 10.84 18.7735 10.9375C18.8139 11.035 18.8824 11.1183 18.9701 11.1769C19.0579 11.2355 19.1611 11.2667 19.2667 11.2667ZM19.644 18.8893C19.5439 18.7893 19.4082 18.733 19.2667 18.733C19.1251 18.733 18.9894 18.7893 18.8893 18.8893C18.7893 18.9894 18.733 19.1251 18.733 19.2667C18.733 19.4082 18.7893 19.5439 18.8893 19.644L19.956 20.7107C20.0056 20.7602 20.0644 20.7995 20.1291 20.8263C20.1939 20.8532 20.2633 20.867 20.3333 20.867C20.4034 20.867 20.4728 20.8532 20.5375 20.8263C20.6023 20.7995 20.6611 20.7602 20.7107 20.7107C20.7602 20.6611 20.7995 20.6023 20.8263 20.5375C20.8532 20.4728 20.867 20.4034 20.867 20.3333C20.867 20.2633 20.8532 20.1939 20.8263 20.1291C20.7995 20.0644 20.7602 20.0056 20.7107 19.956L19.644 18.8893ZM9.66667 15C9.66667 14.8586 9.61048 14.7229 9.51046 14.6229C9.41044 14.5229 9.27478 14.4667 9.13333 14.4667H7.53333C7.39188 14.4667 7.25623 14.5229 7.15621 14.6229C7.05619 14.7229 7 14.8586 7 15C7 15.1414 7.05619 15.2771 7.15621 15.3771C7.25623 15.4771 7.39188 15.5333 7.53333 15.5333H9.13333C9.27478 15.5333 9.41044 15.4771 9.51046 15.3771C9.61048 15.2771 9.66667 15.1414 9.66667 15ZM15 20.3333C14.8586 20.3333 14.7229 20.3895 14.6229 20.4895C14.5229 20.5896 14.4667 20.7252 14.4667 20.8667V22.4667C14.4667 22.6081 14.5229 22.7438 14.6229 22.8438C14.7229 22.9438 14.8586 23 15 23C15.1414 23 15.2771 22.9438 15.3771 22.8438C15.4771 22.7438 15.5333 22.6081 15.5333 22.4667V20.8667C15.5333 20.7252 15.4771 20.5896 15.3771 20.4895C15.2771 20.3895 15.1414 20.3333 15 20.3333ZM22.4667 14.4667H20.8667C20.7252 14.4667 20.5896 14.5229 20.4895 14.6229C20.3895 14.7229 20.3333 14.8586 20.3333 15C20.3333 15.1414 20.3895 15.2771 20.4895 15.3771C20.5896 15.4771 20.7252 15.5333 20.8667 15.5333H22.4667C22.6081 15.5333 22.7438 15.4771 22.8438 15.3771C22.9438 15.2771 23 15.1414 23 15C23 14.8586 22.9438 14.7229 22.8438 14.6229C22.7438 14.5229 22.6081 14.4667 22.4667 14.4667Z" fill="#FFA600"/>
</svg>
