<svg width="16" height="16" viewBox="0 0 16 16" fill="none" xmlns="http://www.w3.org/2000/svg">
<path d="M7.46667 2.13333V0.533333C7.46667 0.391885 7.52286 0.256229 7.62288 0.15621C7.7229 0.0561903 7.85855 0 8 0C8.14145 0 8.27711 0.0561903 8.37712 0.15621C8.47714 0.256229 8.53333 0.391885 8.53333 0.533333V2.13333C8.53333 2.27478 8.47714 2.41044 8.37712 2.51046C8.27711 2.61048 8.14145 2.66667 8 2.66667C7.85855 2.66667 7.7229 2.61048 7.62288 2.51046C7.52286 2.41044 7.46667 2.27478 7.46667 2.13333ZM8 3.73333C7.15613 3.73333 6.33122 3.98357 5.62957 4.4524C4.92792 4.92122 4.38105 5.58759 4.05811 6.36722C3.73518 7.14685 3.65069 8.00473 3.81532 8.83239C3.97995 9.66004 4.38631 10.4203 4.98301 11.017C5.57972 11.6137 6.33996 12.0201 7.16762 12.1847C7.99527 12.3493 8.85315 12.2648 9.63278 11.9419C10.4124 11.619 11.0788 11.0721 11.5476 10.3704C12.0164 9.66878 12.2667 8.84387 12.2667 8C12.2654 6.86879 11.8155 5.78426 11.0156 4.98438C10.2157 4.18449 9.13121 3.73457 8 3.73333ZM3.356 4.11067C3.45608 4.21074 3.59181 4.26696 3.73333 4.26696C3.87486 4.26696 4.01059 4.21074 4.11067 4.11067C4.21074 4.01059 4.26696 3.87486 4.26696 3.73333C4.26696 3.59181 4.21074 3.45608 4.11067 3.356L3.044 2.28933C2.94393 2.18926 2.80819 2.13304 2.66667 2.13304C2.52514 2.13304 2.38941 2.18926 2.28933 2.28933C2.18926 2.38941 2.13304 2.52514 2.13304 2.66667C2.13304 2.80819 2.18926 2.94393 2.28933 3.044L3.356 4.11067ZM3.356 11.8893L2.28933 12.956C2.18926 13.0561 2.13304 13.1918 2.13304 13.3333C2.13304 13.4749 2.18926 13.6106 2.28933 13.7107C2.38941 13.8107 2.52514 13.867 2.66667 13.867C2.80819 13.867 2.94393 13.8107 3.044 13.7107L4.11067 12.644C4.16022 12.5944 4.19953 12.5356 4.22634 12.4709C4.25316 12.4061 4.26696 12.3367 4.26696 12.2667C4.26696 12.1966 4.25316 12.1272 4.22634 12.0625C4.19953 11.9977 4.16022 11.9389 4.11067 11.8893C4.06112 11.8398 4.00229 11.8005 3.93754 11.7737C3.8728 11.7468 3.80341 11.733 3.73333 11.733C3.66326 11.733 3.59387 11.7468 3.52912 11.7737C3.46438 11.8005 3.40555 11.8398 3.356 11.8893ZM12.2667 4.26667C12.3367 4.26672 12.4061 4.25297 12.4709 4.22621C12.5356 4.19944 12.5944 4.16018 12.644 4.11067L13.7107 3.044C13.8107 2.94393 13.867 2.80819 13.867 2.66667C13.867 2.52514 13.8107 2.38941 13.7107 2.28933C13.6106 2.18926 13.4749 2.13304 13.3333 2.13304C13.1918 2.13304 13.0561 2.18926 12.956 2.28933L11.8893 3.356C11.8147 3.43059 11.7638 3.52566 11.7432 3.62917C11.7226 3.73268 11.7331 3.83998 11.7735 3.93749C11.8139 4.03499 11.8824 4.11832 11.9701 4.17692C12.0579 4.23552 12.1611 4.26675 12.2667 4.26667ZM12.644 11.8893C12.5439 11.7893 12.4082 11.733 12.2667 11.733C12.1251 11.733 11.9894 11.7893 11.8893 11.8893C11.7893 11.9894 11.733 12.1251 11.733 12.2667C11.733 12.4082 11.7893 12.5439 11.8893 12.644L12.956 13.7107C13.0056 13.7602 13.0644 13.7995 13.1291 13.8263C13.1939 13.8532 13.2633 13.867 13.3333 13.867C13.4034 13.867 13.4728 13.8532 13.5375 13.8263C13.6023 13.7995 13.6611 13.7602 13.7107 13.7107C13.7602 13.6611 13.7995 13.6023 13.8263 13.5375C13.8532 13.4728 13.867 13.4034 13.867 13.3333C13.867 13.2633 13.8532 13.1939 13.8263 13.1291C13.7995 13.0644 13.7602 13.0056 13.7107 12.956L12.644 11.8893ZM2.66667 8C2.66667 7.85855 2.61048 7.7229 2.51046 7.62288C2.41044 7.52286 2.27478 7.46667 2.13333 7.46667H0.533333C0.391885 7.46667 0.256229 7.52286 0.15621 7.62288C0.0561903 7.7229 0 7.85855 0 8C0 8.14145 0.0561903 8.27711 0.15621 8.37712C0.256229 8.47714 0.391885 8.53333 0.533333 8.53333H2.13333C2.27478 8.53333 2.41044 8.47714 2.51046 8.37712C2.61048 8.27711 2.66667 8.14145 2.66667 8ZM8 13.3333C7.85855 13.3333 7.7229 13.3895 7.62288 13.4895C7.52286 13.5896 7.46667 13.7252 7.46667 13.8667V15.4667C7.46667 15.6081 7.52286 15.7438 7.62288 15.8438C7.7229 15.9438 7.85855 16 8 16C8.14145 16 8.27711 15.9438 8.37712 15.8438C8.47714 15.7438 8.53333 15.6081 8.53333 15.4667V13.8667C8.53333 13.7252 8.47714 13.5896 8.37712 13.4895C8.27711 13.3895 8.14145 13.3333 8 13.3333ZM15.4667 7.46667H13.8667C13.7252 7.46667 13.5896 7.52286 13.4895 7.62288C13.3895 7.7229 13.3333 7.85855 13.3333 8C13.3333 8.14145 13.3895 8.27711 13.4895 8.37712C13.5896 8.47714 13.7252 8.53333 13.8667 8.53333H15.4667C15.6081 8.53333 15.7438 8.47714 15.8438 8.37712C15.9438 8.27711 16 8.14145 16 8C16 7.85855 15.9438 7.7229 15.8438 7.62288C15.7438 7.52286 15.6081 7.46667 15.4667 7.46667Z" fill="#FFA600"/>
</svg>
