<svg width="20" height="16" viewBox="0 0 20 16" fill="none" xmlns="http://www.w3.org/2000/svg">
<path d="M18.5977 8.16928C20.4674 6.2995 20.4674 3.27145 18.5977 1.40168C16.943 -0.252993 14.3352 -0.4681 12.4324 0.892039L12.3794 0.928441C11.9029 1.2693 11.7937 1.93117 12.1345 2.40441C12.4754 2.87764 13.1373 2.99016 13.6105 2.6493L13.6634 2.6129C14.7257 1.85506 16.1785 1.97419 17.0985 2.8975C18.141 3.93994 18.141 5.62771 17.0985 6.67015L13.3855 10.3898C12.343 11.4323 10.6552 11.4323 9.61281 10.3898C8.6895 9.46654 8.57037 8.01374 9.3282 6.95475L9.36461 6.9018C9.70547 6.42526 9.59295 5.76339 9.11972 5.42584C8.64648 5.08828 7.9813 5.19749 7.64375 5.67073L7.60735 5.72368C6.2439 7.62324 6.45901 10.231 8.11368 11.8857C9.98345 13.7554 13.0115 13.7554 14.8813 11.8857L18.5977 8.16928ZM1.40233 7.39489C-0.467444 9.26467 -0.467444 12.2927 1.40233 14.1625C3.057 15.8172 5.66476 16.0323 7.56764 14.6721L7.62058 14.6357C8.09713 14.2949 8.20634 13.633 7.86548 13.1598C7.52461 12.6865 6.86275 12.574 6.38951 12.9149L6.33656 12.9513C5.27426 13.7091 3.82146 13.59 2.90146 12.6667C1.85902 11.6209 1.85902 9.93316 2.90146 8.89072L6.61454 5.17433C7.65699 4.13188 9.34475 4.13188 10.3872 5.17433C11.3105 6.09763 11.4296 7.55043 10.6718 8.61273L10.6354 8.66568C10.2945 9.14223 10.407 9.80409 10.8803 10.1416C11.3535 10.4792 12.0187 10.37 12.3563 9.89675L12.3927 9.84381C13.7561 7.94093 13.541 5.33317 11.8863 3.6785C10.0165 1.80873 6.9885 1.80873 5.11872 3.6785L1.40233 7.39489Z" fill="url(#paint0_linear_252_459)"/>
<defs>
<linearGradient id="paint0_linear_252_459" x1="1.49012e-07" y1="7.78208" x2="20" y2="7.78208" gradientUnits="userSpaceOnUse">
<stop stop-color="#1595C2"/>
<stop offset="1" stop-color="#66BFDE"/>
</linearGradient>
</defs>
</svg>
