<svg width="14" height="16" viewBox="0 0 14 16" fill="none" xmlns="http://www.w3.org/2000/svg">
<path d="M3.13375 13.9999H0.23125V4.65306H3.13375V13.9999ZM1.68094 3.37806C0.752813 3.37806 0 2.60931 0 1.68118C6.64312e-09 1.23537 0.177098 0.807816 0.492335 0.492579C0.807572 0.177342 1.23513 0.000244141 1.68094 0.000244141C2.12675 0.000244141 2.5543 0.177342 2.86954 0.492579C3.18478 0.807816 3.36188 1.23537 3.36188 1.68118C3.36188 2.60931 2.60875 3.37806 1.68094 3.37806ZM13.9969 13.9999H11.1006V9.44993C11.1006 8.36556 11.0787 6.97493 9.59156 6.97493C8.0825 6.97493 7.85125 8.15306 7.85125 9.37181V13.9999H4.95188V4.65306H7.73562V5.92806H7.77625C8.16375 5.19368 9.11031 4.41868 10.5225 4.41868C13.46 4.41868 14 6.35306 14 8.86556V13.9999H13.9969Z" fill="white"/>
</svg>
