<svg width="19" height="16" viewBox="0 0 19 16" fill="none" xmlns="http://www.w3.org/2000/svg">
<path d="M18.0631 8.80714C18.5123 8.36071 18.5123 7.63571 18.0631 7.18929L13.4628 2.61786C13.0136 2.17143 12.284 2.17143 11.8348 2.61786C11.3856 3.06429 11.3856 3.78929 11.8348 4.23571L14.4727 6.85714H6.90034C6.26421 6.85714 5.75028 7.36786 5.75028 8C5.75028 8.63214 6.26421 9.14286 6.90034 9.14286H14.4727L11.8348 11.7643C11.3856 12.2107 11.3856 12.9357 11.8348 13.3821C12.284 13.8286 13.0136 13.8286 13.4628 13.3821L18.0631 8.81072V8.80714ZM5.75028 2.28571C6.38641 2.28571 6.90034 1.775 6.90034 1.14286C6.90034 0.510714 6.38641 0 5.75028 0H3.45017C1.54539 0 0 1.53571 0 3.42857V12.5714C0 14.4643 1.54539 16 3.45017 16H5.75028C6.38641 16 6.90034 15.4893 6.90034 14.8571C6.90034 14.225 6.38641 13.7143 5.75028 13.7143H3.45017C2.81404 13.7143 2.30011 13.2036 2.30011 12.5714V3.42857C2.30011 2.79643 2.81404 2.28571 3.45017 2.28571H5.75028Z" fill="white"/>
</svg>
