<svg width="576" height="448" viewBox="0 0 576 448" fill="none" xmlns="http://www.w3.org/2000/svg">
<path d="M64 0C28.7 0 0 28.7 0 64V96H576V64C576 28.7 547.3 0 512 0H64ZM576 192H0V384C0 419.3 28.7 448 64 448H512C547.3 448 576 419.3 576 384V192ZM112 320H176C184.8 320 192 327.2 192 336C192 344.8 184.8 352 176 352H112C103.2 352 96 344.8 96 336C96 327.2 103.2 320 112 320ZM224 336C224 327.2 231.2 320 240 320H368C376.8 320 384 327.2 384 336C384 344.8 376.8 352 368 352H240C231.2 352 224 344.8 224 336Z" fill="white"/>
</svg>
