<svg width="16" height="9" viewBox="0 0 16 9" fill="none" xmlns="http://www.w3.org/2000/svg">
<path d="M10.6674 7.10949C10.1758 7.10949 9.77859 7.50666 9.77859 7.99826C9.77859 8.48987 10.1758 8.88704 10.6674 8.88704H15.1112C15.6028 8.88704 16 8.48987 16 7.99826V3.5544C16 3.0628 15.6028 2.66563 15.1112 2.66563C14.6196 2.66563 14.2225 3.0628 14.2225 3.5544V5.85132L9.51751 1.14916C9.17033 0.801979 8.60652 0.801979 8.25934 1.14916L5.33472 4.07377L1.51855 0.260383C1.17138 -0.0867943 0.60756 -0.0867943 0.260383 0.260383C-0.0867943 0.60756 -0.0867943 1.17138 0.260383 1.51855L4.70425 5.96242C5.05143 6.3096 5.61524 6.3096 5.96242 5.96242L8.88981 3.03502L12.9643 7.10949H10.6674Z" fill="#f24236"/>
</svg>
