<svg width="30" height="30" viewBox="0 0 30 30" fill="none" xmlns="http://www.w3.org/2000/svg">
<rect width="30" height="30" rx="15" fill="white" fill-opacity="0.08"/>
<path d="M22.6558 10.7793C22.5056 10.8571 22.3306 10.872 22.1694 10.8209C22.0082 10.7697 21.8738 10.6567 21.7959 10.5065C21.1869 9.30334 20.265 8.28642 19.1272 7.5626C19.0563 7.51787 18.9949 7.45962 18.9465 7.39116C18.8981 7.32271 18.8636 7.24539 18.8451 7.16362C18.8266 7.08185 18.8244 6.99724 18.8386 6.91461C18.8527 6.83199 18.8831 6.75296 18.9278 6.68205C18.9725 6.61114 19.0308 6.54973 19.0992 6.50134C19.1677 6.45294 19.245 6.4185 19.3268 6.39998C19.4085 6.38147 19.4931 6.37924 19.5758 6.39342C19.6584 6.40761 19.7374 6.43793 19.8083 6.48265C21.1344 7.33172 22.2112 8.51777 22.9285 9.91949C23.0063 10.0697 23.0213 10.2446 22.9701 10.4059C22.919 10.5671 22.8059 10.7014 22.6558 10.7793ZM7.63781 10.8511C7.75471 10.851 7.86935 10.8189 7.96921 10.7581C8.06908 10.6974 8.15033 10.6103 8.2041 10.5065C8.81315 9.30334 9.73503 8.28642 10.8729 7.5626C11.0161 7.47227 11.1175 7.32875 11.1549 7.16362C11.1923 6.99849 11.1626 6.82526 11.0723 6.68205C10.9819 6.53884 10.8384 6.43738 10.6733 6.39998C10.5082 6.36259 10.3349 6.39233 10.1917 6.48265C8.86563 7.33172 7.78886 8.51777 7.07152 9.91949C7.02114 10.0167 6.99664 10.1253 7.00037 10.2348C7.0041 10.3442 7.03595 10.4509 7.09283 10.5444C7.14972 10.638 7.22974 10.7154 7.32518 10.7691C7.42063 10.8228 7.52829 10.851 7.63781 10.8511ZM22.4811 19.1413C22.5941 19.3352 22.6541 19.5554 22.6548 19.7798C22.6556 20.0042 22.5972 20.2248 22.4855 20.4194C22.3738 20.6141 22.2127 20.7758 22.0186 20.8883C21.8244 21.0008 21.604 21.0602 21.3796 21.0603H18.1254C17.979 21.7815 17.5877 22.4299 17.0179 22.8957C16.4481 23.3614 15.7348 23.6158 14.9988 23.6158C14.2629 23.6158 13.5496 23.3614 12.9798 22.8957C12.41 22.4299 12.0187 21.7815 11.8723 21.0603H8.61806C8.39379 21.0599 8.1736 21.0003 7.97967 20.8877C7.78573 20.7751 7.6249 20.6133 7.51338 20.4188C7.40186 20.2242 7.34359 20.0037 7.34443 19.7794C7.34527 19.5551 7.4052 19.335 7.51817 19.1413C8.23681 17.901 8.61806 16.1376 8.61806 14.0415C8.61806 12.3492 9.29031 10.7262 10.4869 9.52959C11.6836 8.33296 13.3065 7.6607 14.9988 7.6607C16.6911 7.6607 18.3141 8.33296 19.5107 9.52959C20.7073 10.7262 21.3796 12.3492 21.3796 14.0415C21.3796 16.1368 21.7609 17.9002 22.4811 19.1413ZM16.803 21.0603H13.1947C13.3269 21.4331 13.5713 21.7558 13.8944 21.984C14.2174 22.2123 14.6033 22.3348 14.9988 22.3348C15.3944 22.3348 15.7802 22.2123 16.1033 21.984C16.4264 21.7558 16.6708 21.4331 16.803 21.0603Z" fill="white"/>
</svg>
