<svg width="16" height="16" viewBox="0 0 16 16" fill="none" xmlns="http://www.w3.org/2000/svg">
<path d="M8 0C6.41775 0 4.87103 0.469192 3.55544 1.34824C2.23985 2.22729 1.21447 3.47672 0.608967 4.93853C0.00346628 6.40034 -0.15496 8.00887 0.153721 9.56072C0.462403 11.1126 1.22433 12.538 2.34315 13.6569C3.46197 14.7757 4.88743 15.5376 6.43928 15.8463C7.99113 16.155 9.59966 15.9965 11.0615 15.391C12.5233 14.7855 13.7727 13.7602 14.6518 12.4446C15.5308 11.129 16 9.58225 16 8C15.9978 5.87895 15.1542 3.84542 13.6544 2.34562C12.1546 0.845814 10.121 0.00223986 8 0ZM14.0285 4.92308H11.3031C10.989 3.68732 10.4616 2.51588 9.74462 1.46154C10.6607 1.70771 11.515 2.14286 12.2528 2.73902C12.9906 3.33518 13.5954 4.07915 14.0285 4.92308ZM8 1.23923C8.92308 2.23923 9.61539 3.51231 10.0285 4.92308H5.97154C6.38462 3.51231 7.07692 2.24077 8 1.23923ZM5.53846 8C5.53857 7.38142 5.59003 6.76391 5.69231 6.15384H10.3077C10.5118 7.37615 10.5118 8.62384 10.3077 9.84615H5.69231C5.59003 9.23608 5.53857 8.61858 5.53846 8ZM5.97154 11.0769H10.0285C9.61539 12.4877 8.92308 13.7592 8 14.7608C7.07692 13.7592 6.38462 12.4877 5.97154 11.0769ZM9.74462 14.5385C10.4616 13.4841 10.989 12.3127 11.3031 11.0769H14.0285C13.5954 11.9209 12.9906 12.6648 12.2528 13.261C11.515 13.8571 10.6607 14.2923 9.74462 14.5385ZM11.5546 9.84615C11.7382 8.62223 11.7382 7.37777 11.5546 6.15384H14.5131C14.8546 7.36092 14.8546 8.63908 14.5131 9.84615H11.5546Z" fill="white"/>
</svg>
