<svg width="16" height="9" viewBox="0 0 16 9" fill="none" xmlns="http://www.w3.org/2000/svg">
<path d="M10.6674 1.76565C10.1758 1.76565 9.77859 1.37114 9.77859 0.882827C9.77859 0.394513 10.1758 0 10.6674 0H15.1112C15.6028 0 16 0.394513 16 0.882827V5.29696C16 5.78528 15.6028 6.17979 15.1112 6.17979C14.6196 6.17979 14.2225 5.78528 14.2225 5.29696V3.01541L9.51751 7.68612C9.17033 8.03097 8.60652 8.03097 8.25934 7.68612L5.33472 4.78106L1.51855 8.56894C1.17138 8.9138 0.60756 8.9138 0.260383 8.56894C-0.0867943 8.22409 -0.0867943 7.66404 0.260383 7.31919L4.70425 2.90505C5.05143 2.5602 5.61524 2.5602 5.96242 2.90505L8.88981 5.81287L12.9643 1.76565H10.6674Z" fill="#16c172"/>
</svg>
