<svg width="64" height="64" viewBox="0 0 64 64" fill="none" xmlns="http://www.w3.org/2000/svg">
<path d="M52 0.5H12C5.64873 0.5 0.5 5.64873 0.5 12V52C0.5 58.3513 5.64873 63.5 12 63.5H52C58.3513 63.5 63.5 58.3513 63.5 52V12C63.5 5.64873 58.3513 0.5 52 0.5Z" stroke="#27282C"/>
<path fill-rule="evenodd" clip-rule="evenodd" d="M40 41C40.8 41 41.56 40.684 42.12 40.121C42.68 39.559 43 38.796 43 38V29C43 28.204 42.68 27.441 42.12 26.879C41.56 26.316 40.8 26 40 26H34.62C34.42 26 34.23 25.921 34.09 25.78L31.97 23.66C31.76 23.451 31.51 23.285 31.24 23.172C30.97 23.058 30.67 23 30.38 23H25C24.2 23 23.44 23.316 22.88 23.879C22.32 24.441 22 25.204 22 26V38C22 38.796 22.32 39.559 22.88 40.121C23.44 40.684 24.2 41 25 41H40ZM33.25 30.5C33.25 30.301 33.17 30.11 33.03 29.97C32.89 29.829 32.7 29.75 32.5 29.75C32.3 29.75 32.11 29.829 31.97 29.97C31.83 30.11 31.75 30.301 31.75 30.5V34.69L30.03 32.97C29.89 32.838 29.7 32.765 29.51 32.769C29.31 32.772 29.13 32.851 28.99 32.988C28.85 33.126 28.77 33.311 28.77 33.505C28.77 33.7 28.84 33.888 28.97 34.03L31.97 37.03C32.11 37.17 32.3 37.249 32.5 37.249C32.7 37.249 32.89 37.17 33.03 37.03L36.03 34.03C36.1 33.961 36.16 33.879 36.2 33.787C36.24 33.695 36.27 33.595 36.27 33.495C36.27 33.394 36.25 33.294 36.21 33.2C36.18 33.107 36.12 33.022 36.05 32.951C35.98 32.88 35.89 32.824 35.8 32.786C35.71 32.748 35.61 32.73 35.51 32.731C35.4 32.733 35.31 32.755 35.21 32.796C35.12 32.837 35.04 32.896 34.97 32.97L33.25 34.69V30.5Z" fill="#0784b5"/>
<defs>
</defs>
</svg>
