<svg width="64" height="64" viewBox="0 0 64 64" fill="none" xmlns="http://www.w3.org/2000/svg">
<path d="M52 0.5H12C5.64873 0.5 0.5 5.64873 0.5 12V52C0.5 58.3513 5.64873 63.5 12 63.5H52C58.3513 63.5 63.5 58.3513 63.5 52V12C63.5 5.64873 58.3513 0.5 52 0.5Z" stroke="#27282C"/>
<path d="M42.5606 24.4394C43.1465 25.0253 43.1465 25.9767 42.5606 26.5626L30.5619 38.5613C29.9761 39.1471 29.0246 39.1471 28.4387 38.5613L22.4394 32.5619C21.8535 31.9761 21.8535 31.0246 22.4394 30.4387C23.0253 29.8529 23.9767 29.8529 24.5626 30.4387L29.5027 35.3741L40.4421 24.4394C41.028 23.8535 41.9794 23.8535 42.5653 24.4394H42.5606Z" fill="url(#paint0_linear_143_595)"/>
<defs>
<linearGradient id="paint0_linear_143_595" x1="22" y1="31.5003" x2="43" y2="31.5003" gradientUnits="userSpaceOnUse">
<stop stop-color="#23C215"/>
<stop offset="1" stop-color="#68DE66"/>
</linearGradient>
</defs>
</svg>
