<svg width="448" height="448" viewBox="0 0 448 448" fill="none" xmlns="http://www.w3.org/2000/svg">
<path d="M0 48C0 21.5 21.5 0 48 0H144C170.5 0 192 21.5 192 48V144C192 170.5 170.5 192 144 192H48C21.5 192 0 170.5 0 144V48ZM64 64V128H128V64H64ZM0 304C0 277.5 21.5 256 48 256H144C170.5 256 192 277.5 192 304V400C192 426.5 170.5 448 144 448H48C21.5 448 0 426.5 0 400V304ZM64 320V384H128V320H64ZM304 0H400C426.5 0 448 21.5 448 48V144C448 170.5 426.5 192 400 192H304C277.5 192 256 170.5 256 144V48C256 21.5 277.5 0 304 0ZM384 64H320V128H384V64ZM256 272C256 263.2 263.2 256 272 256H336C344.8 256 352 263.2 352 272C352 280.8 359.2 288 368 288H400C408.8 288 416 280.8 416 272C416 263.2 423.2 256 432 256C440.8 256 448 263.2 448 272V368C448 376.8 440.8 384 432 384H368C359.2 384 352 376.8 352 368C352 359.2 344.8 352 336 352C327.2 352 320 359.2 320 368V432C320 440.8 312.8 448 304 448H272C263.2 448 256 440.8 256 432V272ZM368 448C363.757 448 359.687 446.314 356.686 443.314C353.686 440.313 352 436.243 352 432C352 427.757 353.686 423.687 356.686 420.686C359.687 417.686 363.757 416 368 416C372.243 416 376.313 417.686 379.314 420.686C382.314 423.687 384 427.757 384 432C384 436.243 382.314 440.313 379.314 443.314C376.313 446.314 372.243 448 368 448ZM432 448C427.757 448 423.687 446.314 420.686 443.314C417.686 440.313 416 436.243 416 432C416 427.757 417.686 423.687 420.686 420.686C423.687 417.686 427.757 416 432 416C436.243 416 440.313 417.686 443.314 420.686C446.314 423.687 448 427.757 448 432C448 436.243 446.314 440.313 443.314 443.314C440.313 446.314 436.243 448 432 448Z" fill="white"/>
</svg>
