<svg width="30" height="30" viewBox="0 0 30 30" fill="none" xmlns="http://www.w3.org/2000/svg">
<circle cx="15" cy="15" r="15" fill="#1A1A1A"/>
<path d="M8 14.375C8 12.5103 9.55826 11 11.4821 11H11.7143C12.2279 11 12.6429 11.4022 12.6429 11.9C12.6429 12.3978 12.2279 12.8 11.7143 12.8H11.4821C10.5855 12.8 9.85714 13.5059 9.85714 14.375V14.6H11.7143C12.7386 14.6 13.5714 15.4072 13.5714 16.4V18.2C13.5714 19.1928 12.7386 20 11.7143 20H9.85714C8.83281 20 8 19.1928 8 18.2V17.3V16.4V14.375ZM15.4286 14.375C15.4286 12.5103 16.9868 11 18.9107 11H19.1429C19.6565 11 20.0714 11.4022 20.0714 11.9C20.0714 12.3978 19.6565 12.8 19.1429 12.8H18.9107C18.0141 12.8 17.2857 13.5059 17.2857 14.375V14.6H19.1429C20.1672 14.6 21 15.4072 21 16.4V18.2C21 19.1928 20.1672 20 19.1429 20H17.2857C16.2614 20 15.4286 19.1928 15.4286 18.2V17.3V16.4V14.375Z" fill="white"/>
</svg>
