<svg width="12" height="12" viewBox="0 0 12 12" fill="none" xmlns="http://www.w3.org/2000/svg">
<g clip-path="url(#clip0_400_2094)">
<path d="M9.75 4.875C9.75 5.95078 9.40078 6.94453 8.8125 7.75078L11.7797 10.7203C12.0727 11.0133 12.0727 11.4891 11.7797 11.782C11.4867 12.075 11.0109 12.075 10.718 11.782L7.75078 8.8125C6.94453 9.40312 5.95078 9.75 4.875 9.75C2.18203 9.75 0 7.56797 0 4.875C0 2.18203 2.18203 0 4.875 0C7.56797 0 9.75 2.18203 9.75 4.875ZM4.875 8.25C5.31821 8.25 5.75708 8.1627 6.16656 7.99309C6.57603 7.82348 6.94809 7.57488 7.26148 7.26148C7.57488 6.94809 7.82348 6.57603 7.99309 6.16656C8.1627 5.75708 8.25 5.31821 8.25 4.875C8.25 4.43179 8.1627 3.99292 7.99309 3.58344C7.82348 3.17397 7.57488 2.80191 7.26148 2.48851C6.94809 2.17512 6.57603 1.92652 6.16656 1.75691C5.75708 1.5873 5.31821 1.5 4.875 1.5C4.43179 1.5 3.99292 1.5873 3.58344 1.75691C3.17397 1.92652 2.80191 2.17512 2.48851 2.48851C2.17512 2.80191 1.92652 3.17397 1.75691 3.58344C1.5873 3.99292 1.5 4.43179 1.5 4.875C1.5 5.31821 1.5873 5.75708 1.75691 6.16656C1.92652 6.57603 2.17512 6.94809 2.48851 7.26148C2.80191 7.57488 3.17397 7.82348 3.58344 7.99309C3.99292 8.1627 4.43179 8.25 4.875 8.25Z" fill="#C4C4C4"/>
</g>
<defs>
<clipPath id="clip0_400_2094">
<rect width="12" height="12" fill="white"/>
</clipPath>
</defs>
</svg>
