<svg width="16" height="16" viewBox="0 0 16 16" fill="none" xmlns="http://www.w3.org/2000/svg">
<path fill-rule="evenodd" clip-rule="evenodd" d="M7.5 0C6.94773 0 6.5 0.447716 6.5 1L6.37991 1.84034C6.27244 2.59275 5.39804 2.95494 4.79 2.49892L4.11092 1.98959C3.72039 1.59907 3.08723 1.59907 2.6967 1.98959L1.98959 2.6967C1.59907 3.08723 1.59907 3.72039 1.98959 4.11092L2.49891 4.79C2.95494 5.39804 2.59275 6.27244 1.84033 6.37991L1 6.5C0.447716 6.5 0 6.94773 0 7.5V8.5C0 9.05227 0.447716 9.5 1 9.5L1.84034 9.62009C2.59276 9.72756 2.95495 10.602 2.49892 11.21L1.98959 11.8891C1.59907 12.2796 1.59907 12.9128 1.98959 13.3033L2.6967 14.0104C3.08723 14.401 3.72039 14.401 4.11092 14.0104L4.79 13.5011C5.39804 13.0451 6.27244 13.4073 6.37991 14.1596L6.5 15C6.5 15.5523 6.94773 16 7.5 16H8.5C9.05227 16 9.5 15.5523 9.5 15L9.62009 14.1596C9.72756 13.4073 10.602 13.0451 11.21 13.5011L11.8891 14.0104C12.2796 14.401 12.9128 14.401 13.3033 14.0104L14.0104 13.3033C14.4009 12.9128 14.4009 12.2796 14.0104 11.8891L13.5011 11.21C13.0451 10.602 13.4073 9.72756 14.1596 9.62009L15 9.5C15.5523 9.5 16 9.05227 16 8.5V7.5C16 6.94773 15.5523 6.5 15 6.5L14.1596 6.37991C13.4073 6.27244 13.0451 5.39804 13.5011 4.79L14.0104 4.11092C14.4009 3.72039 14.4009 3.08723 14.0104 2.6967L13.3033 1.98959C12.9128 1.59907 12.2796 1.59907 11.8891 1.98959L11.21 2.49892C10.602 2.95494 9.72756 2.59275 9.62009 1.84034L9.5 1C9.5 0.447716 9.05227 0 8.5 0H7.5ZM8 10C9.10453 10 10 9.10453 10 8C10 6.89547 9.10453 6 8 6C6.89547 6 6 6.89547 6 8C6 9.10453 6.89547 10 8 10Z" fill="#fff"/>
</svg>
