<svg width="20" height="18" viewBox="0 0 20 18" fill="none" xmlns="http://www.w3.org/2000/svg">
<path d="M13 1.25239V16.7484C13 17.8264 11.726 18.3984 10.92 17.6824L6.428 13.6884C6.29086 13.5662 6.11366 13.4986 5.93 13.4984H2.25C1.65344 13.4984 1.08129 13.2615 0.659363 12.8397C0.237435 12.418 0.00026514 11.8459 0 11.2494V6.75239C0 6.15565 0.237053 5.58335 0.65901 5.1614C1.08097 4.73944 1.65326 4.50239 2.25 4.50239H5.93C6.11366 4.50217 6.29086 4.43456 6.428 4.31239L10.919 0.319386C11.726 -0.398614 13 0.172386 13 1.25239ZM16.992 2.89939C17.0712 2.84081 17.1611 2.79841 17.2567 2.7746C17.3523 2.7508 17.4516 2.74605 17.549 2.76062C17.6464 2.7752 17.74 2.80883 17.8244 2.85957C17.9088 2.91032 17.9824 2.9772 18.041 3.05639C19.3162 4.77628 20.0031 6.86134 20 9.00239C20.0028 11.1435 19.3155 13.2286 18.04 14.9484C17.9192 15.1011 17.7437 15.2009 17.5506 15.2265C17.3576 15.2522 17.1621 15.2017 17.0056 15.0859C16.849 14.97 16.7437 14.7978 16.7119 14.6057C16.6801 14.4135 16.7242 14.2165 16.835 14.0564C17.9192 12.5947 18.5031 10.8223 18.5 9.00239C18.5031 7.18247 17.9192 5.41008 16.835 3.94839C16.7764 3.8692 16.734 3.77925 16.7102 3.68368C16.6864 3.58811 16.6817 3.48878 16.6962 3.39137C16.7108 3.29396 16.7444 3.20038 16.7952 3.11596C16.8459 3.03155 16.9128 2.95795 16.992 2.89939ZM15.143 5.37239C15.2297 5.32546 15.3247 5.29606 15.4227 5.28589C15.5208 5.27572 15.6198 5.28497 15.7143 5.31311C15.8087 5.34125 15.8967 5.38773 15.9732 5.44989C16.0497 5.51205 16.1132 5.58868 16.16 5.67539C16.696 6.66539 17 7.80039 17 9.00339C17.0017 10.1654 16.7129 11.3094 16.16 12.3314C16.1131 12.4181 16.0496 12.4946 15.9731 12.5568C15.8967 12.6189 15.8087 12.6654 15.7143 12.6935C15.6198 12.7217 15.5208 12.7309 15.4227 12.7208C15.3247 12.7106 15.2297 12.6813 15.143 12.6344C15.0563 12.5875 14.9797 12.524 14.9176 12.4475C14.8555 12.371 14.809 12.2831 14.7809 12.1886C14.7527 12.0942 14.7435 11.9951 14.7536 11.8971C14.7638 11.7991 14.7931 11.7041 14.84 11.6174C15.26 10.8404 15.5 9.95139 15.5 9.00339C15.5 8.05539 15.26 7.16639 14.84 6.38939C14.7931 6.30272 14.7637 6.20766 14.7535 6.10964C14.7433 6.01161 14.7526 5.91254 14.7807 5.81809C14.8089 5.72364 14.8553 5.63566 14.9175 5.55918C14.9797 5.48271 15.0563 5.41923 15.143 5.37239Z" fill="white"/>
</svg>
