<svg width="16" height="16" viewBox="0 0 16 16" fill="none" xmlns="http://www.w3.org/2000/svg">
<g clip-path="url(#clip0_283_70)">
<path d="M8.25 0.25C3.96978 0.25 0.5 3.71978 0.5 8C0.5 12.2802 3.96978 15.75 8.25 15.75C12.5302 15.75 16 12.2802 16 8C16 3.71978 12.5302 0.25 8.25 0.25ZM11.8422 5.52063C11.7256 6.74609 11.221 9.71994 10.9641 11.0925C10.8555 11.6732 10.6416 11.868 10.4345 11.887C9.9845 11.9285 9.64269 11.5896 9.20678 11.3039C8.52469 10.8567 8.13934 10.5784 7.47722 10.1421C6.71206 9.63787 7.20809 9.36084 7.64416 8.90772C7.75828 8.78919 9.74125 6.98553 9.77962 6.82191C9.78441 6.80144 9.789 6.72503 9.74356 6.68491C9.69813 6.64478 9.63137 6.65838 9.58309 6.66928C9.5147 6.68482 8.42503 7.40505 6.31409 8.82997C6.00482 9.04234 5.72468 9.14582 5.47366 9.14041C5.19694 9.13444 4.66466 8.98397 4.26894 8.85531C3.78359 8.69756 3.39784 8.61416 3.43144 8.34622C3.44894 8.20664 3.64112 8.06393 4.008 7.91809C6.26729 6.93376 7.77383 6.2848 8.52763 5.97122C10.6799 5.076 11.1271 4.9205 11.4186 4.91531C11.4827 4.91425 11.6261 4.93013 11.7189 5.00547C11.7807 5.05914 11.82 5.13404 11.8292 5.21534C11.845 5.3163 11.8493 5.4187 11.8422 5.52063Z" fill="white"/>
</g>
<defs>
<clipPath id="clip0_283_70">
<rect width="15.5" height="16" fill="white" transform="translate(0.5)"/>
</clipPath>
</defs>
</svg>
