<svg width="14" height="16" viewBox="0 0 14 16" fill="none" xmlns="http://www.w3.org/2000/svg">
<path d="M13.7075 4.54021C13.5464 3.93395 13.072 3.45648 12.4697 3.29444C11.3779 3 7 3 7 3C7 3 2.6221 3 1.53029 3.29444C0.927952 3.4565 0.453555 3.93395 0.292544 4.54021C0 5.6391 0 7.93182 0 7.93182C0 7.93182 0 10.2245 0.292544 11.3234C0.453555 11.9297 0.927952 12.3873 1.53029 12.5493C2.6221 12.8437 7 12.8437 7 12.8437C7 12.8437 11.3779 12.8437 12.4697 12.5493C13.072 12.3873 13.5464 11.9297 13.7075 11.3234C14 10.2245 14 7.93182 14 7.93182C14 7.93182 14 5.6391 13.7075 4.54021ZM5.56817 10.0134V5.8502L9.22725 7.93187L5.56817 10.0134Z" fill="white"/>
</svg>
