<svg width="77" height="42" viewBox="0 0 77 42" fill="none" xmlns="http://www.w3.org/2000/svg">
<g clip-path="url(#clip0_307_105)">
<path fill-rule="evenodd" clip-rule="evenodd" d="M27.4167 15.4259V23.8519H29.4907H31.5648V20.6111C31.5648 18.4722 31.5648 17.3056 31.5648 17.1759C31.6296 16.8519 31.6944 16.5278 31.8889 16.2685C32.1482 15.8148 32.6019 15.6204 33.1204 15.6852C33.8333 15.75 34.287 16.1389 34.4167 16.9815C34.4167 17.1111 34.4167 18.4074 34.4167 20.4815V23.787H36.4907H38.5648V19.8981C38.5648 16.5926 38.5648 15.9444 38.5 15.6204C38.3704 14.4537 37.9815 13.5463 37.2685 12.8981C36.6852 12.3148 35.9722 11.9907 35.1296 11.8611C34.8056 11.7963 33.8982 11.8611 33.6389 11.9259C32.8611 12.1204 32.2778 12.3796 31.7593 12.963L31.4352 13.2222V10.1111V7H29.3611H27.287V15.4259H27.4167ZM71.4908 7.12963C71.3611 7.38889 67.1482 17.5648 67.1482 17.5648C67.1482 17.5648 68.25 17.5648 69.6111 17.5648H72.0741L74.2778 12.3148C75.5093 9.39815 76.4815 7 76.4815 7C76.4815 7 75.3796 7 74.0185 7H71.5556L71.4908 7.12963ZM18.3426 11.9259C17.4352 12.0556 16.7222 12.3148 16.0093 12.7685C14.5833 13.6759 13.6759 15.2315 13.4167 17.0463C13.287 17.8889 13.3519 18.9259 13.5463 19.7037C14.0648 21.713 15.4259 23.2685 17.1759 23.8519C17.8241 24.0463 18.0833 24.1111 18.8611 24.1111C19.4444 24.1111 19.6389 24.1111 19.8333 24.0463C20.6759 23.8519 21.2593 23.5278 21.7778 23.0093L22.037 22.75V23.2685V23.787H24.0463H26.0556V17.9537V12.1204H24.0463H22.037V12.6389V13.1574L21.8426 12.963C21.3889 12.4444 20.7407 12.1204 19.8982 11.9259C19.6389 11.8611 19.5093 11.8611 18.9907 11.8611C18.6667 11.9259 18.4074 11.9259 18.3426 11.9259ZM44.787 11.9259C43.6852 12.0556 42.5185 12.5741 41.6759 13.2222C40.0556 14.5833 39.213 16.7222 39.537 18.9259C39.8611 21.3889 41.6111 23.2685 44.0741 23.9167C44.5926 24.0463 45.1111 24.1111 45.7593 24.1111C46.9259 24.1111 47.7685 23.9167 48.6759 23.463C50.4907 22.5556 51.6574 20.9352 51.9167 18.9259C51.9815 18.4074 51.9815 17.5648 51.9167 17.1111C51.787 16.1389 51.3982 15.1667 50.8148 14.3889C50.5556 14.0648 50.037 13.4815 49.713 13.2222C48.8056 12.5093 47.7685 12.0556 46.6019 11.9259C46.1482 11.8611 45.2407 11.8611 44.787 11.9259ZM58.0093 11.9259C56.9074 12.0556 55.8056 12.5093 54.963 13.2222C54.6389 13.4815 54.0556 14.0648 53.8611 14.3889C53.2778 15.1667 52.9537 16.1389 52.7593 17.1111C52.6945 17.5648 52.6945 18.4722 52.7593 18.9259C53.1482 21.5185 55.0278 23.5278 57.6204 24.0463C58.1389 24.1759 58.3982 24.1759 58.9815 24.1759C60.0833 24.1759 61.0556 23.9815 61.963 23.463C64.3611 22.2315 65.6574 19.5093 65.0741 16.7222C64.5556 14.1296 62.4815 12.25 59.8241 11.9259C59.3704 11.8611 58.463 11.8611 58.0093 11.9259ZM0 12.1852C0 12.1852 1.10185 14.8426 2.46296 18.0833C3.82407 21.3241 4.92593 23.9815 4.92593 23.9815C4.92593 23.9815 4.53704 24.9537 4.01852 26.1204C3.5 27.287 3.11111 28.1944 3.11111 28.2593C3.11111 28.3241 4.08333 28.2593 5.31482 28.2593H7.51852L10.8241 20.287C12.6389 15.8796 14.1296 12.3148 14.1296 12.25C14.1296 12.25 13.6759 12.1852 11.9259 12.25H9.72222L8.36111 15.6204C7.77778 17.4352 7.19445 18.9907 7.19445 18.9907C7.19445 18.9907 6.61111 17.4352 5.83333 15.6204L4.53704 12.25H2.26852C1.03704 12.1852 0 12.1852 0 12.1852ZM20.3519 15.6852C21.1944 15.8796 21.8426 16.5278 22.1019 17.3704C22.1667 17.6944 22.1667 18.2778 22.1019 18.6019C21.9074 19.4444 21.2593 20.0926 20.4167 20.287C20.0926 20.3519 19.5093 20.3519 19.1852 20.287C18.4722 20.0926 17.8241 19.5741 17.5648 18.9259C17.2407 18.213 17.3704 17.3056 17.7593 16.6574C18.3426 15.8148 19.3148 15.4907 20.3519 15.6852ZM46.213 15.75C47.1204 15.8796 47.8333 16.5926 48.0278 17.5C48.0926 17.8241 48.0926 18.3426 48.0278 18.6667C47.8333 19.5093 47.1852 20.0926 46.4074 20.3519C46.1482 20.4167 45.4352 20.4167 45.1759 20.3519C44.5278 20.1574 44.0093 19.7037 43.6852 19.1204C43.4907 18.7315 43.4907 18.537 43.4907 18.0833C43.4907 17.6944 43.5556 17.5 43.6852 17.1759C43.8796 16.787 44.1389 16.3981 44.5278 16.1389C44.9167 15.75 45.5648 15.6204 46.213 15.75ZM59.3704 15.75C60.1482 15.8796 60.7963 16.3981 61.0556 17.1111C61.1852 17.4352 61.25 17.6296 61.25 18.0185C61.25 18.4722 61.1852 18.6667 61.0556 19.0556C60.7963 19.6389 60.213 20.0926 59.5648 20.287C59.3056 20.3519 58.5926 20.3519 58.3333 20.287C57.5556 20.0926 56.9074 19.4444 56.713 18.6019C56.6482 18.2778 56.6482 17.6944 56.713 17.3704C56.9722 16.3333 57.8796 15.6204 58.9167 15.6204C59.0463 15.6852 59.2407 15.6852 59.3704 15.75ZM68.1852 18.6019C66.9537 18.7315 66.0463 19.6389 65.787 20.8056C65.7222 21.1296 65.7222 21.713 65.787 22.037C66.0463 23.0741 66.8241 23.787 67.8611 24.0463C67.9907 24.0463 68.25 24.1111 68.4445 24.1111C69.2222 24.1111 69.8704 23.8519 70.3889 23.3333C70.9722 22.75 71.1667 22.1667 71.1667 21.3889C71.1667 20.4167 70.713 19.5741 69.9352 19.1204C69.4167 18.6667 68.7037 18.537 68.1852 18.6019ZM34.0278 24.9537C33.1852 25.213 32.7963 26.1852 33.25 26.8981C33.3796 27.0926 33.6389 27.3519 33.8333 27.4167C34.0278 27.4815 34.0278 27.4815 34.4167 27.4815C34.7407 27.4815 34.8056 27.4815 35 27.4167C35.2593 27.287 35.5185 27.0278 35.6482 26.7685C35.9722 26.1204 35.6482 25.3426 35 25.0185C34.8056 24.8889 34.7407 24.8889 34.4815 24.8889C34.2222 24.8889 34.1574 24.8889 34.0278 24.9537ZM30.5278 25.0185C29.4259 25.213 28.713 25.9259 28.3889 27.0926C28.3241 27.287 28.3241 27.4815 28.3241 27.7407V28.1944H27.8704H27.4167V29.1667V30.1389H27.8704H28.3241V32.4722V34.8056H29.5556H30.787V32.4722V30.1389H31.6296H32.4722V29.1667V28.1944H31.6296H30.787V28C30.8519 27.5463 31.0463 27.2222 31.4352 27.1574C31.6944 27.0926 32.0833 27.0926 32.3426 27.2222C32.4722 27.287 32.537 27.287 32.537 27.287C32.537 27.287 32.537 26.8333 32.537 26.25V25.213L32.3426 25.1481C32.0833 25.0185 31.7593 25.0185 31.3056 25.0185C30.9815 24.9537 30.7222 25.0185 30.5278 25.0185ZM40.3796 28.0648C39.8611 28.1944 39.4722 28.4537 39.213 28.7778L39.0833 28.9722V28.5833V28.1944H37.8519H36.6204V31.5V34.8056H37.8519H39.0833V32.9907C39.0833 31.9537 39.0833 31.1111 39.0833 30.9815C39.1482 30.7222 39.2778 30.463 39.4074 30.3333C39.7315 30.0741 40.3148 30.1389 40.5741 30.463C40.7685 30.7222 40.7685 30.7222 40.7685 32.7963V34.7407H42H43.2315V32.537C43.2315 30.2037 43.2315 29.9444 43.1019 29.4907C42.9722 29.1019 42.8426 28.7778 42.5185 28.5185C42.2593 28.2593 42 28.0648 41.6111 28C41.287 28 40.6389 28 40.3796 28.0648ZM46.537 28C46.1482 28.0648 45.5648 28.2593 45.2407 28.5185C44.5278 29.037 44.0741 29.8148 43.8796 30.787C43.8148 31.1759 43.8148 31.8889 43.8796 32.2778C44.0093 32.8611 44.2037 33.4444 44.5278 33.8333C44.9815 34.4167 45.5648 34.8056 46.2778 34.9352C46.6667 35 47.3148 35 47.6389 34.8704C48.0278 34.7407 48.287 34.6111 48.6111 34.3519L48.8704 34.0926V34.4167V34.7407H50.1019H51.3333V31.4352V28.1296H50.1019H48.8704V28.4537V28.7778L48.6759 28.713C48.3519 28.3889 47.8982 28.1296 47.3796 28.0648C47.1852 28 46.7315 28 46.537 28ZM55.9352 28.0648C55.4815 28.1296 55.0278 28.4537 54.7685 28.7778L54.6389 28.9074V28.5185V28.1296H53.4074H52.1759V31.4352V34.7407H53.4074H54.6389V32.8611C54.6389 30.8519 54.6389 30.8519 54.7685 30.5278C54.8982 30.2685 55.1574 30.1389 55.4167 30.1389C55.6759 30.1389 55.8056 30.2037 56 30.3333C56.2593 30.5926 56.2593 30.5278 56.2593 32.7315V34.6759H57.4907H58.7222V32.2778C58.7222 29.8796 58.7222 29.8796 58.6574 29.6204C58.5926 29.4907 58.5278 29.2315 58.463 29.037C58.3333 28.7778 58.2685 28.713 58.0741 28.5185C57.8148 28.2593 57.6204 28.1296 57.3611 28C56.9074 28 56.3889 27.9352 55.9352 28.0648ZM62.3519 28.0648C61.25 28.2593 60.4074 28.7778 59.8889 29.6852C59.7593 29.9444 59.6296 30.2685 59.5 30.5926C59.4352 30.9167 59.4352 30.9815 59.4352 31.5C59.4352 32.0833 59.4352 32.2778 59.6296 32.7315C60.0185 33.8333 60.9259 34.6759 62.1574 34.9352C62.3519 35 62.5463 35 63 35C63.6482 35 63.9074 34.9352 64.3611 34.7407L64.6204 34.6111V33.5093V32.4074L64.4259 32.537C64.1019 32.7315 63.9074 32.7963 63.5185 32.7963C63.1296 32.7963 62.9352 32.7963 62.6759 32.6667C62.4167 32.537 62.2222 32.3426 62.0926 32.0833C62.0278 31.8889 62.0278 31.8889 62.0278 31.5648C62.0278 31.3056 62.0278 31.2407 62.0926 31.0463C62.287 30.5278 62.7408 30.2685 63.3889 30.2037C63.8426 30.2037 64.037 30.2037 64.6852 30.5278C64.6852 30.5278 64.6852 30.0093 64.6852 29.4259V28.3241L64.4907 28.2593C63.7778 28 63 27.9352 62.3519 28.0648ZM67.9259 28.0648C66.0463 28.3889 64.8796 30.0093 65.0093 31.8889C65.0741 32.537 65.2685 33.1204 65.5926 33.5741C66.0463 34.287 66.7593 34.7407 67.6667 34.9352C68.0556 35 69.0926 35 69.5463 34.9352C70.1945 34.8056 70.7778 34.4815 71.2315 34.0278C71.4259 33.8333 71.75 33.3796 71.75 33.3796C71.75 33.3796 71.2963 33.1852 70.713 32.9907L69.6759 32.6019L69.5463 32.7315C69.3519 32.9259 69.2222 32.9907 68.963 33.0556C68.25 33.25 67.537 32.8611 67.4074 32.213V32.0833H69.6759H71.9445V31.5C71.9445 31.1111 71.9445 30.8519 71.8796 30.7222C71.75 29.9444 71.4259 29.4259 70.9722 28.9074C70.5185 28.4537 70 28.1944 69.287 28.0648C69.0278 28 68.25 28 67.9259 28.0648ZM33.1852 31.5V34.8056H34.4167H35.6482V31.5V28.1944H34.4167H33.1852V31.5ZM68.8982 29.8796C69.0926 29.9444 69.1574 30.0093 69.3519 30.1389C69.4815 30.2685 69.6111 30.3982 69.6111 30.5926V30.7222H68.5093C67.2778 30.7222 67.3426 30.7222 67.4722 30.463C67.6667 30.0093 68.25 29.75 68.8982 29.8796ZM47.963 30.2037C48.287 30.2685 48.6759 30.5926 48.8056 30.9167C49.1296 31.6296 48.8056 32.4722 48.0278 32.7315C47.7685 32.7963 47.3796 32.7963 47.1204 32.7315C46.7315 32.6019 46.3426 32.2778 46.2778 31.8889C46.213 31.6944 46.213 31.6296 46.213 31.4352C46.213 31.1759 46.213 31.1111 46.3426 30.9167C46.6019 30.3333 47.25 30.0741 47.963 30.2037Z" fill="white"/>
</g>
<defs>
<clipPath id="clip0_307_105">
<rect width="76.48" height="42" fill="white"/>
</clipPath>
</defs>
</svg>
