<svg width="168" height="42" viewBox="0 0 168 42" fill="none" xmlns="http://www.w3.org/2000/svg">
<g clip-path="url(#clip0_307_118)">
<g clip-path="url(#clip1_307_118)">
<path d="M40.6172 19.052L40.3286 20.4708H40.2564C39.8957 19.6773 38.8857 18.571 36.6492 18.571C33.042 18.571 29.3627 21.3606 28.545 25.7614C27.8476 29.6091 29.6993 32.9999 33.9799 32.9999C35.543 32.9999 37.3466 32.3987 38.2845 31.0761H38.3566L38.0921 32.5189H42.0841L44.5851 19.052H40.6172ZM39.3186 25.7614C39.054 27.0841 37.8035 29.2244 35.3025 29.2244C32.8496 29.2244 32.3446 27.06 32.561 25.8095C32.8496 24.2704 34.2204 22.3466 36.553 22.3466C38.8376 22.3706 39.6071 24.1743 39.3186 25.7614Z" fill="white"/>
<path d="M46.8457 19.052H50.5972L50.3327 20.4708H50.4048C50.8858 19.8215 51.8237 18.571 54.1323 18.571L53.3868 22.6592C51.487 22.6833 50.1163 23.068 49.7555 25.1362L48.3848 32.5189H44.3447L46.8457 19.052Z" fill="white"/>
<path d="M56.8498 13.7855H60.8898L58.99 23.9338H59.0622L63.7275 19.0521H68.465L62.3087 24.9679L65.8438 32.519H61.2746L58.6774 26.026H58.6053L57.4269 32.519H53.3628L56.8498 13.7855Z" fill="white"/>
<path d="M74.9338 18.571C70.8456 18.571 67.2143 22.0821 66.541 25.8336C65.7955 29.8256 68.4889 32.9759 72.3606 32.9759C73.7314 32.9759 75.1502 32.567 76.4007 31.7494C77.6753 30.9799 78.8536 29.8256 79.7675 28.3105H75.6552C74.9819 29.0079 74.2123 29.561 72.9618 29.561C71.3987 29.561 70.2204 28.6231 70.2925 27.0119H80.3927C80.5129 26.6993 80.5851 26.4588 80.6813 25.9538C81.4508 21.8416 79.046 18.571 74.9338 18.571ZM70.8456 24.2945C71.1582 23.5009 72.2644 21.9859 74.3566 21.9859C76.4488 21.9859 76.9538 23.5009 76.9538 24.2945H70.8456Z" fill="white"/>
<path d="M23.2064 13.7855L16.0882 24.4629H16.0401V13.7855H12.6012L0 32.519H4.88176L11.9519 21.8416H12.024V32.519H15.487L22.5571 21.8416H22.6293V32.519H26.6693V13.7855H23.2064Z" fill="white"/>
<path d="M90.9017 19.052H88.3526L89.0981 15.0601H85.563L85.2745 16.5991C84.9618 18.3546 83.8556 18.8837 82.3887 19.052H82.3646L81.7634 22.1062H83.7594L81.8356 32.519H85.8516L87.7755 22.1062H90.3486L90.9017 19.052Z" fill="white"/>
<path d="M153.235 27.4208C151.912 30.4749 148.762 32.976 145.13 32.976C141.042 32.976 138.517 29.7535 139.239 25.7375C139.984 21.7936 143.639 18.5711 147.679 18.5711C151.239 18.5711 153.691 20.9519 153.764 24.2465H149.675C149.411 23.3086 148.81 22.3467 147.102 22.3467C145.202 22.2505 143.639 23.8136 143.279 25.7615C142.918 27.7335 143.928 29.2004 145.852 29.2004C147.511 29.2004 148.521 28.2385 149.098 27.3968H153.235V27.4208ZM119.856 9L112.016 13.7856H114.228L107.134 24.4629H107.062V13.7856H103.599L96.505 24.4629H96.4329V13.7856H92.3928V32.519H95.9038L102.998 21.8417H103.07V32.519H106.533L119.086 13.7856H121.082L119.856 9ZM127.503 32.519H123.511L123.776 31.0762H123.703C122.766 32.3988 120.962 33 119.399 33C115.118 33 113.267 29.6333 113.964 25.7615C114.758 21.3607 118.461 18.5711 122.068 18.5711C124.281 18.5711 125.315 19.6533 125.675 20.4709H125.748L126.036 19.0521H130.028L127.503 32.519ZM120.721 29.2485C123.222 29.2485 124.473 27.0842 124.738 25.7856C125.026 24.1743 124.257 22.3707 121.972 22.3707C119.663 22.3707 118.269 24.2946 117.98 25.8337C117.764 27.0842 118.269 29.2485 120.721 29.2485ZM140.08 19.0521H137.555L138.301 15.0601H134.766L134.477 16.5992C134.164 18.3547 133.058 18.8838 131.591 19.0521H131.543L130.966 22.1062H132.962L131.038 32.519H135.054L136.978 22.1062H139.551L140.08 19.0521ZM157.034 13.7856H161.05L159.824 20.4709H159.896C160.762 19.2204 161.916 18.5711 163.695 18.5711C164.97 18.5711 166.437 19.0521 167.11 20.0862C167.976 21.4088 167.88 22.5872 167.423 24.992L166.052 32.519H162.036L163.383 25.1844C163.503 24.5351 163.888 22.3467 161.748 22.3467C159.487 22.3467 159.102 24.3667 158.982 25.0401L157.611 32.495H153.595L157.034 13.7856Z" fill="white"/>
</g>
</g>
<defs>
<clipPath id="clip0_307_118">
<rect width="167.74" height="42" fill="white"/>
</clipPath>
<clipPath id="clip1_307_118">
<rect width="167.735" height="24" fill="white" transform="translate(0 9)"/>
</clipPath>
</defs>
</svg>
