<svg width="142" height="42" viewBox="0 0 142 42" fill="none" xmlns="http://www.w3.org/2000/svg">
<g clip-path="url(#clip0_307_145)">
<path fill-rule="evenodd" clip-rule="evenodd" d="M0 10.7305H3.50075V31.2758H0V10.7305ZM28.363 23.87L14.1414 10.4138V31.2753H17.5074V17.9094L31.729 31.593V10.7305H28.363V23.87ZM49.9987 19.8317L46.667 18.6267C44.9501 18.0254 43.9734 17.4222 43.9734 15.917C43.9734 14.2441 45.5226 13.4407 47.6089 13.4407C50.0321 13.4407 51.9177 14.344 53.6337 15.6494V12.0684C51.9851 10.9982 49.8644 10.3955 47.5415 10.3955C43.7378 10.3955 40.574 12.3695 40.574 15.9835C40.574 19.3628 42.6608 20.8354 45.4208 21.8392L48.4165 22.9103C50.2677 23.6129 51.3113 24.2491 51.3113 25.8546C51.3113 27.6948 49.6618 28.5318 47.3055 28.5318C44.8828 28.5318 42.6268 27.6623 40.7417 26.1558V29.8032C42.1896 30.8074 44.5454 31.6104 47.3055 31.6104C51.5139 31.6104 54.7108 29.535 54.7108 25.7877C54.7108 22.8099 53.2304 21.0027 49.9987 19.8317ZM62.5973 10.7305H66.0976V31.2758H62.5973V10.7305ZM84.8398 10.731H76.9125V31.2758H84.8398C90.9324 31.2758 94.8709 27.2603 94.8709 21.0027C94.8709 14.746 90.932 10.731 84.8398 10.731ZM84.705 28.1646H80.4137V13.8092H84.705C89.0459 13.8092 91.3692 16.5862 91.3692 21.0027C91.3692 25.3858 89.0464 28.1646 84.705 28.1646ZM102.816 31.2758H115.353V28.1646H106.249V21.7975H114.41V18.7523H106.249V13.8087H115.353V10.7305H102.816V31.2758ZM133.521 22.8099C136.786 22.308 138.325 20.3335 138.325 16.8869C138.325 12.8719 135.566 10.7305 131.291 10.7305H123.793V31.2758H127.293V22.9438H129.784L136.979 31.2758H140.951L133.521 22.8099ZM127.294 20.0324V13.7418H131.223C133.545 13.7418 134.859 14.9798 134.859 16.8869C134.859 18.7945 133.545 20.0324 131.223 20.0324H127.294Z" fill="white"/>
</g>
<defs>
<clipPath id="clip0_307_145">
<rect width="141.17" height="42" fill="white"/>
</clipPath>
</defs>
</svg>
