<svg width="148" height="42" viewBox="0 0 148 42" fill="none" xmlns="http://www.w3.org/2000/svg">
<g clip-path="url(#clip0_307_171)">
<g clip-path="url(#clip1_307_171)">
<path d="M21.2226 31H35.3918V27.2696H25.5172V22.6928H33.6991V18.9624H25.5172V14.7304H35.4545V11H21.2226V31ZM52.4451 23.6019L43.1661 11H36.7712L38.7774 13.5392V31.0627H43.0407V17.9279L52.6332 31H56.7398V11H52.4451V23.6019ZM14.7649 20.7179C16.6458 20.373 18.2132 18.6176 18.2132 16.1411C18.2132 13.4765 16.2696 11 12.4138 11H0L1.94357 13.4765V31.0314H12.8527C16.7085 31.0314 18.7147 28.6176 18.7147 25.6082C18.6207 23.1317 16.9279 21 14.7649 20.7179ZM6.2069 14.7618H11.5674C13.0094 14.7618 13.9185 15.6082 13.9185 16.8621C13.9185 18.116 13.0094 18.9624 11.5674 18.9624H6.2069V14.7618ZM11.7555 27.3009H6.2069V22.6928H11.7555C13.3856 22.6928 14.2947 23.7273 14.2947 24.9812C14.2947 26.4232 13.3229 27.2696 11.7555 27.3009ZM119.373 23.6019H121.599V25.953C120.439 26.8934 118.997 27.4263 117.492 27.4577C113.918 27.4577 111.411 24.7304 111.411 21.0627C111.411 17.395 113.95 14.6677 117.492 14.6677C119.342 14.6677 121.066 15.6395 122.069 17.2069L125.455 15.326C124.013 13.0376 121.473 11 117.461 11C111.787 11 107.085 14.9185 107.085 21C107.085 27.0815 111.724 31 117.461 31C120.596 31.0627 123.574 29.7147 125.643 27.395V19.9969H116.489L119.373 23.6019ZM100.094 23.6019L90.7837 11H84.42L86.395 13.5392V31.0627H90.6896V17.9279L100.282 31H104.357V11H100.094V23.6019ZM139.812 11H131.567L133.542 13.5392L133.197 14.511L126.802 31.0627H131.63L132.884 27.6771H141.505L142.759 31.0627H147.586L139.812 11ZM133.981 23.9154L137.116 15.2947L140.251 23.9154H133.981ZM77.6489 11H81.9436V31.094H77.6489V11ZM74.232 14.4483V11H59.1536V14.7304H68.6207L59.1536 27.5831V31H74.3887V27.2696H64.7022L74.232 14.4483Z" fill="white"/>
</g>
</g>
<defs>
<clipPath id="clip0_307_171">
<rect width="147.68" height="42" fill="white"/>
</clipPath>
<clipPath id="clip1_307_171">
<rect width="147.68" height="20" fill="white" transform="translate(0 11)"/>
</clipPath>
</defs>
</svg>
