<svg width="36" height="42" viewBox="0 0 36 42" fill="none" xmlns="http://www.w3.org/2000/svg">
<g clip-path="url(#clip0_307_158)">
<g clip-path="url(#clip1_307_158)">
<mask id="mask0_307_158" style="mask-type:luminance" maskUnits="userSpaceOnUse" x="0" y="0" width="36" height="42">
<path d="M0 41.5435H35.7954V0.113525H0V41.5435Z" fill="#FF322E"/>
</mask>
<g mask="url(#mask0_307_158)">
<path fill-rule="evenodd" clip-rule="evenodd" d="M0 37.2244H35.7954V41.5504H0.000345292L0 37.2244Z" fill="white"/>
</g>
<path fill-rule="evenodd" clip-rule="evenodd" d="M8.23939 9.87915L2.22241 27.9275H6.57887L10.6658 15.1703L12.7142 21.5482H10.0644L9.00617 25.189H13.8834L14.7629 27.9275H19.2439L13.2276 9.87915H8.23939ZM26.0897 9.87915H19.835V27.9275H24.1604V13.52H25.9034C27.9257 13.52 29.0772 14.4845 29.0772 16.2271C29.0772 17.9387 27.9257 18.9345 25.9034 18.9345H25.6233V22.5753H26.0897C30.7574 22.5753 33.4958 20.2257 33.4958 16.2271C33.4958 12.1507 30.7574 9.87915 26.0897 9.87915Z" fill="white"/>
</g>
</g>
<defs>
<clipPath id="clip0_307_158">
<rect width="35.8" height="42" fill="white"/>
</clipPath>
<clipPath id="clip1_307_158">
<rect width="35.7954" height="42" fill="white"/>
</clipPath>
</defs>
</svg>
