<?xml version="1.0" standalone="no"?>
<!DOCTYPE svg PUBLIC "-//W3C//DTD SVG 20010904//EN"
 "http://www.w3.org/TR/2001/REC-SVG-20010904/DTD/svg10.dtd">
<svg version="1.0" xmlns="http://www.w3.org/2000/svg"
 width="576.000000pt" height="576.000000pt" viewBox="0 0 576.000000 576.000000"
 preserveAspectRatio="xMidYMid meet">
<metadata>
Created by potrace 1.14, written by Peter Selinger 2001-2017
</metadata>
<g transform="translate(0.000000,576.000000) scale(0.100000,-0.100000)"
fill="#000000" stroke="none">
<path d="M835 5740 c-131 -34 -205 -77 -295 -169 -69 -71 -124 -167 -156 -276
-17 -56 -18 -146 -21 -1409 l-4 -1350 23 19 c13 11 28 24 33 30 6 6 37 33 70
60 33 28 62 52 65 55 3 3 34 30 69 60 36 30 72 62 81 70 27 25 79 70 195 169
61 52 117 102 126 110 8 9 38 35 65 58 27 23 60 51 74 63 14 12 49 43 79 68
30 26 69 61 87 77 17 17 53 48 79 70 55 47 61 52 146 127 35 31 74 65 85 75
81 69 139 121 158 138 13 11 54 47 91 80 86 75 166 145 182 159 6 6 35 31 63
56 29 25 60 52 69 60 10 8 53 46 97 85 93 82 149 132 218 197 28 26 54 48 59
48 4 0 7 3 7 8 0 4 -19 8 -41 10 -23 1 -50 7 -61 13 -11 6 -28 12 -40 14 -16
4 -84 43 -133 77 -61 43 -171 152 -254 253 -46 56 -235 308 -307 410 -223 317
-369 435 -608 492 -12 2 -68 6 -126 8 -80 3 -122 0 -175 -15z"/>
<path d="M4279 5414 c-37 -7 -93 -20 -125 -30 -57 -16 -218 -90 -245 -112 -8
-7 -42 -34 -75 -61 -34 -28 -84 -71 -110 -96 -27 -26 -75 -70 -108 -98 -32
-29 -78 -70 -101 -92 -24 -22 -69 -62 -101 -90 -31 -27 -69 -61 -84 -75 -15
-14 -50 -44 -76 -67 -27 -22 -65 -55 -84 -73 -19 -17 -56 -49 -81 -70 -25 -22
-59 -52 -75 -67 -17 -15 -46 -41 -65 -57 -35 -30 -207 -181 -263 -231 -6 -5
-61 -53 -121 -105 -61 -52 -115 -99 -121 -105 -6 -5 -40 -35 -74 -65 -35 -30
-68 -59 -74 -65 -6 -5 -40 -35 -76 -65 -36 -30 -69 -60 -75 -66 -5 -6 -41 -37
-80 -70 -38 -32 -85 -73 -105 -91 -19 -17 -45 -40 -56 -50 -67 -56 -123 -105
-154 -132 -19 -17 -55 -48 -79 -68 -24 -21 -51 -45 -60 -53 -9 -8 -46 -40 -81
-70 -62 -53 -120 -103 -144 -125 -6 -6 -94 -82 -196 -170 -102 -88 -198 -171
-215 -186 -65 -57 -191 -166 -213 -185 -13 -10 -34 -28 -46 -39 -61 -54 -155
-135 -186 -161 -19 -16 -37 -31 -40 -34 -3 -3 -33 -30 -68 -60 l-63 -54 3
-605 c4 -598 4 -607 26 -671 92 -265 256 -443 487 -529 106 -39 263 -52 381
-30 74 13 192 69 264 124 91 70 221 219 285 326 6 9 29 48 51 85 100 166 246
472 374 789 18 44 37 84 41 90 5 5 9 15 9 23 0 7 9 32 19 55 10 23 36 83 56
132 20 50 42 101 48 115 6 14 11 27 11 30 1 7 51 123 169 395 93 214 243 534
256 545 3 3 15 21 25 40 91 166 208 297 305 342 72 33 176 38 281 15 116 -25
223 -95 295 -192 16 -22 33 -42 36 -45 4 -3 16 -23 28 -45 12 -22 25 -47 31
-55 5 -8 26 -51 46 -95 61 -129 150 -205 294 -249 129 -39 278 -17 348 52 10
9 42 36 72 59 30 23 67 53 81 65 15 13 44 37 65 53 34 27 86 70 154 129 14 12
66 55 115 96 50 41 92 77 95 80 3 3 32 28 65 55 33 28 62 52 65 55 3 3 34 30
70 61 l65 56 -1 514 c-1 283 -4 532 -8 554 -9 57 -14 84 -20 103 -3 9 -7 28
-10 42 -9 54 -61 175 -109 255 -56 93 -177 217 -272 277 -112 73 -199 108
-345 140 -68 15 -256 16 -331 2z"/>
<path d="M5335 3114 c-17 -14 -111 -94 -209 -177 -99 -84 -189 -162 -202 -174
-13 -13 -27 -23 -33 -23 -5 0 -11 -4 -13 -9 -1 -5 -39 -39 -83 -76 -44 -37
-102 -87 -130 -110 -164 -140 -352 -300 -430 -366 -27 -23 -52 -45 -55 -48 -3
-4 -25 -22 -50 -41 -24 -19 -58 -48 -75 -63 -16 -16 -46 -41 -65 -55 -19 -15
-39 -32 -45 -38 -5 -6 -37 -33 -70 -60 -32 -27 -66 -56 -75 -64 -9 -8 -40 -35
-70 -60 -47 -40 -167 -141 -240 -204 -14 -12 -52 -44 -85 -71 -59 -50 -72 -60
-171 -147 l-51 -45 81 -39 c153 -74 357 -221 459 -331 96 -104 104 -114 264
-358 191 -290 325 -415 506 -474 59 -20 80 -22 252 -25 176 -3 233 6 324 52
148 74 269 256 297 447 8 57 12 2562 4 2576 -3 4 -19 -3 -35 -17z"/>
</g>
</svg>
