<svg width="533" height="335" viewBox="0 0 533 335" fill="none" xmlns="http://www.w3.org/2000/svg">
<mask id="mask0_455_863" style="mask-type:luminance" maskUnits="userSpaceOnUse" x="0" y="0" width="533" height="335">
<path d="M508 0H25C11.1929 0 0 11.1929 0 25V309.957C0 323.764 11.1929 334.957 25 334.957H508C521.807 334.957 533 323.764 533 309.956V25C533 11.1929 521.807 0 508 0Z" fill="white"/>
</mask>
<g mask="url(#mask0_455_863)">
<path d="M312.599 178.194V222.855C312.599 236.206 301.799 247.046 288.498 247.046H244.004C230.703 247.046 219.903 236.206 219.903 222.855V178.194C219.903 164.843 230.703 154.002 244.004 154.002H288.498C301.799 154.002 312.599 164.843 312.599 178.194Z" fill="url(#paint0_linear_455_863)" fill-opacity="0.5"/>
<path d="M312.599 178.194V222.855C312.599 236.206 301.799 247.046 288.498 247.046H244.004C230.703 247.046 219.903 236.206 219.903 222.855V178.194C219.903 164.843 230.703 154.002 244.004 154.002H288.498C301.799 154.002 312.599 164.843 312.599 178.194Z" stroke="url(#paint1_linear_455_863)"/>
<path d="M312.599 178.194V222.855C312.599 236.206 301.799 247.046 288.498 247.046H244.004C230.703 247.046 219.903 236.206 219.903 222.855V178.194C219.903 164.843 230.703 154.002 244.004 154.002H288.498C301.799 154.002 312.599 164.843 312.599 178.194Z" stroke="url(#paint2_linear_455_863)"/>
<path d="M193.7 179.002V222.084C193.7 234.963 183.282 245.42 170.451 245.42H127.53C114.699 245.42 104.281 234.963 104.281 222.084V179.002C104.281 166.122 114.699 155.666 127.53 155.666H170.451C183.282 155.666 193.7 166.122 193.7 179.002Z" fill="url(#paint3_linear_455_863)" fill-opacity="0.5"/>
<path d="M193.7 179.002V222.084C193.7 234.963 183.282 245.42 170.451 245.42H127.53C114.699 245.42 104.281 234.963 104.281 222.084V179.002C104.281 166.122 114.699 155.666 127.53 155.666H170.451C183.282 155.666 193.7 166.122 193.7 179.002Z" stroke="url(#paint4_linear_455_863)" stroke-width="0.964651"/>
<path d="M193.7 179.002V222.084C193.7 234.963 183.282 245.42 170.451 245.42H127.53C114.699 245.42 104.281 234.963 104.281 222.084V179.002C104.281 166.122 114.699 155.666 127.53 155.666H170.451C183.282 155.666 193.7 166.122 193.7 179.002Z" fill="url(#paint5_linear_455_863)" fill-opacity="0.5"/>
<path d="M193.7 179.002V222.084C193.7 234.963 183.282 245.42 170.451 245.42H127.53C114.699 245.42 104.281 234.963 104.281 222.084V179.002C104.281 166.122 114.699 155.666 127.53 155.666H170.451C183.282 155.666 193.7 166.122 193.7 179.002Z" stroke="url(#paint6_linear_455_863)" stroke-width="0.964651"/>
<path d="M197.104 61.9487V108.31C197.104 122.169 185.893 133.422 172.085 133.422H125.897C112.09 133.422 100.879 122.169 100.879 108.31V61.9487C100.879 48.0893 112.09 36.8364 125.897 36.8364H172.085C185.893 36.8364 197.104 48.0893 197.104 61.9487Z" fill="url(#paint7_linear_455_863)" fill-opacity="0.5"/>
<path d="M197.104 61.9487V108.31C197.104 122.169 185.893 133.422 172.085 133.422H125.897C112.09 133.422 100.879 122.169 100.879 108.31V61.9487C100.879 48.0893 112.09 36.8364 125.897 36.8364H172.085C185.893 36.8364 197.104 48.0893 197.104 61.9487Z" stroke="url(#paint8_linear_455_863)" stroke-width="1.03807"/>
<path d="M82.1613 177.323V223.684C82.1613 237.543 70.9505 248.796 57.1428 248.796H10.955C-2.85272 248.796 -14.0635 237.543 -14.0635 223.684V177.323C-14.0635 163.463 -2.85272 152.211 10.955 152.211H57.1428C70.9505 152.211 82.1613 163.463 82.1613 177.323Z" fill="url(#paint9_linear_455_863)" fill-opacity="0.5"/>
<path d="M82.1613 177.323V223.684C82.1613 237.543 70.9505 248.796 57.1428 248.796H10.955C-2.85272 248.796 -14.0635 237.543 -14.0635 223.684V177.323C-14.0635 163.463 -2.85272 152.211 10.955 152.211H57.1428C70.9505 152.211 82.1613 163.463 82.1613 177.323Z" stroke="url(#paint10_linear_455_863)" stroke-width="1.03807"/>
<path d="M78.43 63.7893V106.556C78.43 119.341 68.0885 129.721 55.3514 129.721H12.7447C0.00755528 129.721 -10.334 119.341 -10.334 106.556V63.7893C-10.334 51.0044 0.00755528 40.624 12.7447 40.624H55.3514C68.0885 40.624 78.43 51.0044 78.43 63.7893Z" fill="url(#paint11_linear_455_863)" fill-opacity="0.5"/>
<path d="M78.43 63.7893V106.556C78.43 119.341 68.0885 129.721 55.3514 129.721H12.7447C0.00755528 129.721 -10.334 119.341 -10.334 106.556V63.7893C-10.334 51.0044 0.00755528 40.624 12.7447 40.624H55.3514C68.0885 40.624 78.43 51.0044 78.43 63.7893Z" stroke="url(#paint12_linear_455_863)" stroke-width="0.957585"/>
<path d="M78.43 294.099V336.866C78.43 349.651 68.0885 360.031 55.3514 360.031H12.7447C0.00755528 360.031 -10.334 349.651 -10.334 336.866V294.099C-10.334 281.314 0.00755528 270.934 12.7447 270.934H55.3514C68.0885 270.934 78.43 281.314 78.43 294.099Z" fill="url(#paint13_linear_455_863)" fill-opacity="0.5"/>
<path d="M78.43 294.099V336.866C78.43 349.651 68.0885 360.031 55.3514 360.031H12.7447C0.00755528 360.031 -10.334 349.651 -10.334 336.866V294.099C-10.334 281.314 0.00755528 270.934 12.7447 270.934H55.3514C68.0885 270.934 78.43 281.314 78.43 294.099Z" stroke="url(#paint14_linear_455_863)" stroke-width="0.957585"/>
<path d="M542.37 63.7893V106.556C542.37 119.341 532.029 129.721 519.292 129.721H476.685C463.948 129.721 453.606 119.341 453.606 106.556V63.7893C453.606 51.0044 463.948 40.624 476.685 40.624H519.292C532.029 40.624 542.37 51.0044 542.37 63.7893Z" fill="url(#paint15_linear_455_863)" fill-opacity="0.5"/>
<path d="M542.37 63.7893V106.556C542.37 119.341 532.029 129.721 519.292 129.721H476.685C463.948 129.721 453.606 119.341 453.606 106.556V63.7893C453.606 51.0044 463.948 40.624 476.685 40.624H519.292C532.029 40.624 542.37 51.0044 542.37 63.7893Z" stroke="url(#paint16_linear_455_863)" stroke-width="0.957585"/>
<path d="M542.37 294.099V336.866C542.37 349.651 532.029 360.031 519.292 360.031H476.685C463.948 360.031 453.606 349.651 453.606 336.866V294.099C453.606 281.314 463.948 270.934 476.685 270.934H519.292C532.029 270.934 542.37 281.314 542.37 294.099Z" fill="url(#paint17_linear_455_863)" fill-opacity="0.5"/>
<path d="M542.37 294.099V336.866C542.37 349.651 532.029 360.031 519.292 360.031H476.685C463.948 360.031 453.606 349.651 453.606 336.866V294.099C453.606 281.314 463.948 270.934 476.685 270.934H519.292C532.029 270.934 542.37 281.314 542.37 294.099Z" stroke="url(#paint18_linear_455_863)" stroke-width="0.957585"/>
<path d="M197.104 292.258V338.619C197.104 352.479 185.893 363.732 172.085 363.732H125.897C112.09 363.732 100.879 352.479 100.879 338.619V292.258C100.879 278.399 112.09 267.146 125.897 267.146H172.085C185.893 267.146 197.104 278.399 197.104 292.258Z" fill="url(#paint19_linear_455_863)" fill-opacity="0.5"/>
<path d="M197.104 292.258V338.619C197.104 352.479 185.893 363.732 172.085 363.732H125.897C112.09 363.732 100.879 352.479 100.879 338.619V292.258C100.879 278.399 112.09 267.146 125.897 267.146H172.085C185.893 267.146 197.104 278.399 197.104 292.258Z" stroke="url(#paint20_linear_455_863)" stroke-width="1.03807"/>
<path d="M428.379 61.9487V108.31C428.379 122.169 417.168 133.422 403.361 133.422H357.173C343.365 133.422 332.154 122.169 332.154 108.31V61.9487C332.154 48.0893 343.365 36.8364 357.173 36.8364H403.361C417.168 36.8364 428.379 48.0893 428.379 61.9487Z" fill="url(#paint21_linear_455_863)" fill-opacity="0.5"/>
<path d="M428.379 61.9487V108.31C428.379 122.169 417.168 133.422 403.361 133.422H357.173C343.365 133.422 332.154 122.169 332.154 108.31V61.9487C332.154 48.0893 343.365 36.8364 357.173 36.8364H403.361C417.168 36.8364 428.379 48.0893 428.379 61.9487Z" stroke="url(#paint22_linear_455_863)" stroke-width="1.03807"/>
<path d="M546.102 177.323V223.684C546.102 237.543 534.891 248.796 521.083 248.796H474.895C461.088 248.796 449.877 237.543 449.877 223.684V177.323C449.877 163.463 461.088 152.21 474.895 152.21H521.083C534.891 152.21 546.102 163.463 546.102 177.323Z" fill="url(#paint23_linear_455_863)" fill-opacity="0.5"/>
<path d="M546.102 177.323V223.684C546.102 237.543 534.891 248.796 521.083 248.796H474.895C461.088 248.796 449.877 237.543 449.877 223.684V177.323C449.877 163.463 461.088 152.21 474.895 152.21H521.083C534.891 152.21 546.102 163.463 546.102 177.323Z" stroke="url(#paint24_linear_455_863)" stroke-width="1.03807"/>
<path d="M428.379 292.258V338.619C428.379 352.479 417.168 363.732 403.361 363.732H357.173C343.365 363.732 332.154 352.479 332.154 338.619V292.258C332.154 278.399 343.365 267.146 357.173 267.146H403.361C417.168 267.146 428.379 278.399 428.379 292.258Z" fill="url(#paint25_linear_455_863)" fill-opacity="0.5"/>
<path d="M428.379 292.258V338.619C428.379 352.479 417.168 363.732 403.361 363.732H357.173C343.365 363.732 332.154 352.479 332.154 338.619V292.258C332.154 278.399 343.365 267.146 357.173 267.146H403.361C417.168 267.146 428.379 278.399 428.379 292.258Z" stroke="url(#paint26_linear_455_863)" stroke-width="1.03807"/>
<path d="M427.293 179.002V222.084C427.293 234.963 416.875 245.42 404.044 245.42H361.123C348.292 245.42 337.874 234.963 337.874 222.084V179.002C337.874 166.122 348.292 155.666 361.123 155.666H404.044C416.875 155.666 427.293 166.122 427.293 179.002Z" fill="url(#paint27_linear_455_863)" fill-opacity="0.5"/>
<path d="M427.293 179.002V222.084C427.293 234.963 416.875 245.42 404.044 245.42H361.123C348.292 245.42 337.874 234.963 337.874 222.084V179.002C337.874 166.122 348.292 155.666 361.123 155.666H404.044C416.875 155.666 427.293 166.122 427.293 179.002Z" stroke="url(#paint28_linear_455_863)" stroke-width="0.964651"/>
<path d="M310.746 63.6279V106.71C310.746 119.589 300.328 130.046 287.497 130.046H244.576C231.745 130.046 221.327 119.589 221.327 106.71V63.6279C221.327 50.7487 231.745 40.2917 244.576 40.2917H287.497C300.328 40.2917 310.746 50.7487 310.746 63.6279Z" fill="url(#paint29_linear_455_863)" fill-opacity="0.5"/>
<path d="M310.746 63.6279V106.71C310.746 119.589 300.328 130.046 287.497 130.046H244.576C231.745 130.046 221.327 119.589 221.327 106.71V63.6279C221.327 50.7487 231.745 40.2917 244.576 40.2917H287.497C300.328 40.2917 310.746 50.7487 310.746 63.6279Z" stroke="url(#paint30_linear_455_863)" stroke-width="0.964651"/>
<path d="M310.746 296.236V339.318C310.746 352.198 300.328 362.655 287.497 362.655H244.576C231.745 362.655 221.327 352.198 221.327 339.318V296.236C221.327 283.357 231.745 272.9 244.576 272.9H287.497C300.328 272.9 310.746 283.357 310.746 296.236Z" fill="url(#paint31_linear_455_863)" fill-opacity="0.5"/>
<path d="M310.746 296.236V339.318C310.746 352.198 300.328 362.655 287.497 362.655H244.576C231.745 362.655 221.327 352.198 221.327 339.318V296.236C221.327 283.357 231.745 272.9 244.576 272.9H287.497C300.328 272.9 310.746 283.357 310.746 296.236Z" stroke="url(#paint32_linear_455_863)" stroke-width="0.964651"/>
<path d="M23.5954 -2.79102C37.0577 -2.79102 47.9711 8.12235 47.9711 21.5847V317.727C47.9711 331.189 37.0577 342.103 23.5954 342.103V342.103C10.1331 342.103 -0.780273 331.189 -0.780273 317.727V21.5847C-0.780273 8.12234 10.1331 -2.79102 23.5954 -2.79102V-2.79102Z" fill="url(#paint33_linear_455_863)"/>
<path d="M487.32 344.261C473.513 344.261 462.32 333.068 462.32 319.261V24.3674C462.32 10.5603 473.513 -0.632609 487.32 -0.632609H508.464C522.271 -0.632609 533.464 10.5603 533.464 24.3674V319.261C533.464 333.068 522.271 344.261 508.464 344.261H487.32Z" fill="url(#paint34_linear_455_863)"/>
<path d="M-2.95508 271.292C-2.95508 257.485 8.2378 246.292 22.0449 246.292H510.03C523.837 246.292 535.03 257.485 535.03 271.292V309.957C535.03 323.764 523.837 334.957 510.03 334.957H22.0449C8.23782 334.957 -2.95508 323.764 -2.95508 309.957V271.292Z" fill="url(#paint35_linear_455_863)"/>
</g>
<path d="M147.915 56.1431L122.698 70.7815V100L147.915 114.638L173.131 100V70.7815L147.915 56.1431ZM147.915 56.1431L122.698 70.7815V100L147.915 114.638L173.131 100V70.7815L147.915 56.1431Z" fill="white"/>
<path d="M157.85 103.149H154.248L149.948 99.1835V97.1423L154.422 92.8849V86.1197L160.232 82.3289L166.856 87.3445L157.85 103.149ZM142.976 92.535L143.615 86.178L141.465 80.521H154.306L152.156 86.178L152.737 92.535H147.798H142.976ZM145.939 99.1835L141.64 103.208H137.979L128.915 87.4028L135.597 82.4455L141.465 86.178V92.9432L145.939 97.2006V99.1835ZM137.921 68.7986H157.792L160.174 78.9463H135.597L137.921 68.7986ZM147.915 56.1431L122.698 70.7815V100L147.915 114.638L173.131 100V70.7815L147.915 56.1431Z" fill="#03316C"/>
<g clip-path="url(#clip0_455_863)">
<path d="M355.105 78.5138L375.53 58.5812C377.137 57.0105 379.303 56.1414 381.551 56.1648C383.8 56.1883 385.947 57.1025 387.52 58.7063L408.479 80.0899C409.185 80.8095 409.742 81.661 410.119 82.5957C410.495 83.5304 410.683 84.5301 410.672 85.5374C410.662 86.5448 410.452 87.5402 410.056 88.4666C409.66 89.3931 409.085 90.2325 408.363 90.9369L386.276 112.478C384.845 113.875 382.917 114.648 380.915 114.628C378.913 114.607 377.002 113.794 375.599 112.367L354.984 91.3356C353.3 89.6181 352.366 87.3036 352.389 84.8998C352.412 82.496 353.388 80.1994 355.105 78.5138Z" fill="#0031D2"/>
<path d="M358.089 70.7402L383.62 57.9416C385.628 56.9388 387.951 56.7719 390.082 57.4776C392.212 58.1832 393.975 59.7037 394.984 61.7056L408.423 88.42C409.33 90.2377 409.479 92.3403 408.837 94.2674C408.195 96.1945 406.814 97.7889 404.997 98.7015L377.419 112.562C375.629 113.458 373.557 113.609 371.656 112.983C369.755 112.356 368.18 111.003 367.276 109.219L354.046 82.9177C353.51 81.853 353.19 80.6934 353.104 79.5053C353.017 78.3171 353.166 77.1235 353.542 75.9927C353.917 74.862 354.512 73.8161 355.292 72.9149C356.072 72.0136 357.023 71.2747 358.089 70.7402Z" fill="#BBFFFF"/>
<path d="M408.776 90.4689L409.041 90.1398C408.906 89.5508 408.702 88.9798 408.433 88.4386L399.775 71.227L387.065 58.2661C386.621 57.8724 386.138 57.5259 385.622 57.2324C384.921 57.3821 384.242 57.6205 383.602 57.9417L368.307 65.6134L365.624 68.2371L353.317 80.9198C353.476 81.6116 353.716 82.2822 354.032 82.9177L361.771 98.2658L375.548 112.316L375.609 112.372C375.609 112.372 376.012 112.775 376.319 113.016C376.7 112.889 377.071 112.735 377.428 112.552L395.37 103.55L408.776 90.4457V90.4689Z" fill="#006EE3"/>
<path d="M387.576 84.0858V93.8528H375.158V76.6644H387.576V80.7622L392.45 77.9531V75.6817C392.449 74.6617 392.043 73.6838 391.32 72.9625C390.598 72.2412 389.619 71.8355 388.597 71.8342H374.346C373.269 71.8342 372.236 72.2616 371.474 73.0222C370.712 73.7829 370.284 74.8146 370.284 75.8903V94.9932C370.287 96.0841 370.722 97.1297 371.494 97.9011C372.267 98.6726 373.314 99.107 374.406 99.1095H387.771C389.012 99.1095 390.202 98.6172 391.08 97.7409C391.957 96.8646 392.45 95.6761 392.45 94.4369V81.2767L387.576 84.0858Z" fill="white"/>
</g>
<g clip-path="url(#clip1_455_863)">
<path d="M170.141 209.566L167.118 219.825L161.184 218.196L170.141 209.566Z" fill="#E4761B" stroke="#E4761B" stroke-width="5.94955"/>
<path d="M161.184 218.196L166.907 210.324L170.141 209.566L161.184 218.196Z" fill="#E4761B" stroke="#E4761B" stroke-width="5.94955"/>
<path d="M165.693 201.831L170.141 209.566L166.908 210.324L165.693 201.831ZM165.693 201.831L168.555 199.841L170.141 209.566L165.693 201.831Z" fill="#F6851B"/>
<path d="M165.693 201.831L170.141 209.566M165.693 201.831L166.908 210.324L170.141 209.566M165.693 201.831L168.555 199.841L170.141 209.566" stroke="#F6851B" stroke-width="5.94955"/>
<path d="M162.051 195.986L170.277 192.603L169.868 194.456L162.051 195.986ZM169.608 196.682L162.051 195.986L169.868 194.456L169.608 196.682Z" fill="#763D16"/>
<path d="M162.051 195.986L170.277 192.603L169.868 194.456M162.051 195.986L169.868 194.456M162.051 195.986L169.608 196.682L169.868 194.456" stroke="#763D16" stroke-width="5.94955"/>
<path d="M169.608 196.682L168.555 199.841L162.051 195.986L169.608 196.682ZM171.256 193.387L169.868 194.456L170.277 192.603L171.256 193.387ZM169.608 196.682L169.868 194.456L170.971 195.377L169.608 196.682Z" fill="#763D16"/>
<path d="M169.608 196.682L168.555 199.841L162.051 195.986L169.608 196.682ZM169.608 196.682L169.868 194.456M169.608 196.682L170.971 195.377L169.868 194.456M169.868 194.456L171.256 193.387L170.277 192.603L169.868 194.456Z" stroke="#763D16" stroke-width="5.94955"/>
<path d="M154.803 215.697L156.859 216.356L161.183 218.196L154.803 215.697Z" fill="#E2761B" stroke="#E2761B" stroke-width="5.94955"/>
<path d="M168.555 199.841L169.608 196.682L170.512 197.379L168.555 199.841ZM168.555 199.841L160.019 197.018L162.05 195.986L168.555 199.841Z" fill="#763D16"/>
<path d="M168.555 199.841L169.608 196.682L170.512 197.379L168.555 199.841ZM168.555 199.841L160.019 197.018L162.05 195.986L168.555 199.841Z" stroke="#763D16" stroke-width="5.94955"/>
<path d="M164.082 186.299L162.05 195.986L160.019 197.018L164.082 186.299Z" fill="#763D16" stroke="#763D16" stroke-width="5.94955"/>
<path d="M170.277 192.603L162.051 195.986L164.083 186.299L170.277 192.603Z" fill="#763D16" stroke="#763D16" stroke-width="5.94955"/>
<path d="M164.082 186.299L172.668 185.304L170.277 192.603L164.082 186.299Z" fill="#763D16" stroke="#763D16" stroke-width="5.94955"/>
<path d="M168.555 199.841L165.693 201.831L160.019 197.018L168.555 199.841Z" fill="#F6851B" stroke="#F6851B" stroke-width="5.94955"/>
<path d="M172.296 178.327L172.668 185.304L164.082 186.298L172.296 178.327Z" fill="#763D16" stroke="#763D16" stroke-width="5.94955"/>
<path d="M172.296 178.327L155.137 190.85L154.914 182.356L172.296 178.327Z" fill="#E2761B" stroke="#E2761B" stroke-width="5.94955"/>
<path d="M142.153 181.337L154.914 182.356L155.137 190.85L142.153 181.337Z" fill="#F6851B" stroke="#F6851B" stroke-width="5.94955"/>
<path d="M160.019 197.018L155.138 190.85L164.083 186.299L160.019 197.018Z" fill="#763D16" stroke="#763D16" stroke-width="5.94955"/>
<path d="M160.019 197.018L165.693 201.831L157.727 202.714L160.019 197.018Z" fill="#E4761B" stroke="#E4761B" stroke-width="5.94955"/>
<path d="M157.727 202.714L155.138 190.85L160.019 197.018L157.727 202.714Z" fill="#E4761B" stroke="#E4761B" stroke-width="5.94955"/>
<path d="M164.083 186.298L155.138 190.85L172.297 178.327L164.083 186.298Z" fill="#763D16" stroke="#763D16" stroke-width="5.94955"/>
<path d="M142.265 217.997L146.316 222.238L140.803 217.201L142.265 217.997Z" fill="#C0AD9E" stroke="#C0AD9E" stroke-width="5.94955"/>
<path d="M161.184 218.196L163.104 210.872L166.907 210.324L161.184 218.196Z" fill="#CD6116" stroke="#CD6116" stroke-width="5.94955"/>
<path d="M125.837 197.59L132.849 190.191L126.741 196.707L125.837 197.59Z" fill="#E2761B" stroke="#E2761B" stroke-width="5.94955"/>
<path d="M166.907 210.324L163.104 210.872L165.693 201.831L166.907 210.324ZM155.137 190.85L148.311 190.626L142.153 181.337L155.137 190.85Z" fill="#F6851B" stroke="#F6851B" stroke-width="5.94955"/>
<path d="M165.694 201.831L163.104 210.872L162.894 206.457L165.694 201.831Z" fill="#E4751F" stroke="#E4751F" stroke-width="5.94955"/>
<path d="M157.727 202.714L165.693 201.831L162.893 206.457L157.727 202.714Z" fill="#CD6116" stroke="#CD6116" stroke-width="5.94955"/>
<path d="M148.311 190.626L155.137 190.85L157.726 202.714L148.311 190.626Z" fill="#F6851B" stroke="#F6851B" stroke-width="5.94955"/>
<path d="M148.311 190.626L129.888 173.514L142.153 181.337L148.311 190.626ZM142.141 220.596L126.134 225.571L122.938 213.321L142.141 220.596Z" fill="#E4761B" stroke="#E4761B" stroke-width="5.94955"/>
<path d="M128.216 200.649L134.262 195.886L139.329 197.068L128.216 200.649Z" fill="#763D16" stroke="#763D16" stroke-width="5.94955"/>
<path d="M139.329 197.068L134.262 195.886L136.975 184.645L139.329 197.068Z" fill="#763D16" stroke="#763D16" stroke-width="5.94955"/>
<path d="M126.741 196.707L134.262 195.886L128.216 200.649L126.741 196.707Z" fill="#763D16" stroke="#763D16" stroke-width="5.94955"/>
<path d="M162.893 206.457L159.771 204.878L157.727 202.714L162.893 206.457Z" fill="#CD6116" stroke="#CD6116" stroke-width="5.94955"/>
<path d="M126.741 196.707L126.208 193.884L134.261 195.887L126.741 196.707Z" fill="#763D16" stroke="#763D16" stroke-width="5.94955"/>
<path d="M159.127 208.434L159.771 204.878L162.893 206.457L159.127 208.434Z" fill="#233447" stroke="#233447" stroke-width="5.94955"/>
<path d="M163.104 210.872L159.127 208.434L162.893 206.457L163.104 210.872Z" fill="#F6851B" stroke="#F6851B" stroke-width="5.94955"/>
<path d="M134.261 195.886L126.208 193.884L125.552 191.509L134.261 195.886ZM136.975 184.645L134.261 195.886L125.552 191.509L136.975 184.645ZM136.975 184.645L148.311 190.626L139.329 197.068L136.975 184.645Z" fill="#763D16"/>
<path d="M134.261 195.886L126.208 193.884L125.552 191.509M134.261 195.886L125.552 191.509M134.261 195.886L136.975 184.645M125.552 191.509L136.975 184.645M136.975 184.645L148.311 190.626L139.329 197.068L136.975 184.645Z" stroke="#763D16" stroke-width="5.94955"/>
<path d="M139.329 197.068L148.311 190.626L152.313 202.9L139.329 197.068ZM152.313 202.9L139.899 202.639L139.329 197.068L152.313 202.9Z" fill="#E4761B"/>
<path d="M139.329 197.068L148.311 190.626L152.313 202.9M139.329 197.068L152.313 202.9M139.329 197.068L139.899 202.639L152.313 202.9" stroke="#E4761B" stroke-width="5.94955"/>
<path d="M128.216 200.649L139.329 197.068L139.899 202.639L128.216 200.649ZM157.727 202.714L152.313 202.9L148.311 190.626L157.727 202.714Z" fill="#F6851B" stroke="#F6851B" stroke-width="5.94955"/>
<path d="M159.771 204.878L159.127 208.434L157.727 202.714L159.771 204.878Z" fill="#CD6116" stroke="#CD6116" stroke-width="5.94955"/>
<path d="M129.888 173.514L148.311 190.626L136.974 184.645L129.888 173.514Z" fill="#763D16" stroke="#763D16" stroke-width="5.94955"/>
<path d="M122.938 213.321L138.474 212.675L142.141 220.596L122.938 213.321Z" fill="#E4761B" stroke="#E4761B" stroke-width="5.94955"/>
<path d="M142.141 220.596L138.474 212.675L146.105 212.302L142.141 220.596Z" fill="#CD6116" stroke="#CD6116" stroke-width="5.94955"/>
<path d="M159.127 208.434L163.104 210.872L165.297 216.057L159.127 208.434ZM139.898 202.639L122.938 213.321L128.215 200.649L139.898 202.639ZM138.474 212.675L122.938 213.321L139.898 202.639L138.474 212.675ZM157.727 202.714L158.743 206.42L153.836 206.706L157.727 202.714ZM153.836 206.706L152.313 202.9L157.727 202.714L153.836 206.706Z" fill="#F6851B"/>
<path d="M139.898 202.639L122.938 213.321M139.898 202.639L128.215 200.649L122.938 213.321M139.898 202.639L138.474 212.675L122.938 213.321M157.727 202.714L158.743 206.42L153.836 206.706M157.727 202.714L153.836 206.706M157.727 202.714L152.313 202.9L153.836 206.706M159.127 208.434L163.104 210.872L165.297 216.057L159.127 208.434Z" stroke="#F6851B" stroke-width="5.94955"/>
<path d="M146.316 222.238L142.141 220.596L156.661 223.046L146.316 222.238Z" fill="#C0AD9E" stroke="#C0AD9E" stroke-width="5.94955"/>
<path d="M128.216 200.649L125.837 197.59L126.741 196.707L128.216 200.649Z" fill="#763D16" stroke="#763D16" stroke-width="5.94955"/>
<path d="M158.309 221.231L156.661 223.046L142.141 220.596L158.309 221.231Z" fill="#D7C1B3" stroke="#D7C1B3" stroke-width="5.94955"/>
<path d="M159.089 216.779L142.141 220.596L146.105 212.302L159.089 216.779Z" fill="#E4761B" stroke="#E4761B" stroke-width="5.94955"/>
<path d="M142.141 220.596L159.089 216.779L158.309 221.231L142.141 220.596Z" fill="#D7C1B3" stroke="#D7C1B3" stroke-width="5.94955"/>
<path d="M125.552 191.509L124.994 181.946L136.975 184.645L125.552 191.509ZM126.741 196.707L125.093 195.028L126.208 193.884L126.741 196.707Z" fill="#763D16" stroke="#763D16" stroke-width="5.94955"/>
<path d="M149.537 205.363L152.312 202.9L151.916 208.919L149.537 205.363Z" fill="#CD6116" stroke="#CD6116" stroke-width="5.94955"/>
<path d="M152.313 202.9L149.538 205.363L145.499 207.464L152.313 202.9Z" fill="#CD6116" stroke="#CD6116" stroke-width="5.94955"/>
<path d="M165.297 216.057L164.541 215.498L159.127 208.434L165.297 216.057Z" fill="#F6851B" stroke="#F6851B" stroke-width="5.94955"/>
<path d="M145.498 207.464L139.898 202.639L152.313 202.9L145.498 207.464Z" fill="#CD6116" stroke="#CD6116" stroke-width="5.94955"/>
<path d="M151.916 208.919L152.312 202.9L153.836 206.706L151.916 208.919Z" fill="#E4751F" stroke="#E4751F" stroke-width="5.94955"/>
<path d="M124.548 192.454L125.551 191.509L126.208 193.884L124.548 192.454Z" fill="#763D16" stroke="#763D16" stroke-width="5.94955"/>
<path d="M151.917 208.919L145.499 207.464L149.538 205.363L151.917 208.919Z" fill="#233447" stroke="#233447" stroke-width="5.94955"/>
<path d="M136.975 184.645L124.994 181.946L129.888 173.514L136.975 184.645Z" fill="#763D16" stroke="#763D16" stroke-width="5.94955"/>
<path d="M156.661 223.046L157.343 224.912L146.316 222.238L156.661 223.046Z" fill="#C0AD9E" stroke="#C0AD9E" stroke-width="5.94955"/>
<path d="M146.106 212.302L145.499 207.464L151.917 208.919L146.106 212.302Z" fill="#F6851B" stroke="#F6851B" stroke-width="5.94955"/>
<path d="M139.898 202.639L145.498 207.464L146.105 212.302L139.898 202.639Z" fill="#E4751F" stroke="#E4751F" stroke-width="5.94955"/>
<path d="M153.836 206.706L158.743 206.42L164.541 215.498L153.836 206.706ZM139.898 202.639L146.105 212.302L138.474 212.675L139.898 202.639Z" fill="#F6851B" stroke="#F6851B" stroke-width="5.94955"/>
<path d="M153.836 206.706L159.932 216.02L151.916 208.919L153.836 206.706Z" fill="#E4751F" stroke="#E4751F" stroke-width="5.94955"/>
<path d="M151.916 208.919L159.932 216.02L159.089 216.779L151.916 208.919Z" fill="#F6851B" stroke="#F6851B" stroke-width="5.94955"/>
<path d="M159.089 216.779L146.105 212.302L151.916 208.919L159.089 216.779ZM164.541 215.498L159.932 216.02L153.836 206.706L164.541 215.498Z" fill="#F6851B" stroke="#F6851B" stroke-width="5.94955"/>
<path d="M165.755 219.875L163.773 223.867L157.343 224.912L165.755 219.875ZM157.343 224.912L156.661 223.046L158.309 221.231L157.343 224.912Z" fill="#C0AD9E"/>
<path d="M157.343 224.912L163.773 223.867L165.755 219.875L157.343 224.912ZM157.343 224.912L156.661 223.046L158.309 221.231L157.343 224.912Z" stroke="#C0AD9E" stroke-width="5.94955"/>
<path d="M158.309 221.231L159.523 220.746L157.343 224.912L158.309 221.231ZM157.343 224.912L159.523 220.746L165.755 219.875L157.343 224.912Z" fill="#C0AD9E"/>
<path d="M159.523 220.746L158.309 221.231L157.343 224.912M159.523 220.746L157.343 224.912M159.523 220.746L165.755 219.875L157.343 224.912" stroke="#C0AD9E" stroke-width="5.94955"/>
<path d="M164.541 215.498L166.065 216.43L161.432 216.99L164.541 215.498Z" fill="#161616" stroke="#161616" stroke-width="5.94955"/>
<path d="M161.431 216.99L159.932 216.02L164.54 215.498L161.431 216.99ZM160.898 217.724L166.535 217.04L165.755 219.875L160.898 217.724Z" fill="#161616" stroke="#161616" stroke-width="5.94955"/>
<path d="M165.756 219.875L159.524 220.746L160.899 217.724L165.756 219.875ZM159.524 220.746L158.31 221.231L159.09 216.779L159.524 220.746ZM159.09 216.779L159.933 216.02L161.432 216.99L159.09 216.779ZM166.065 216.43L166.536 217.04L160.899 217.724L166.065 216.43Z" fill="#161616"/>
<path d="M159.524 220.746L165.756 219.875L160.899 217.724M159.524 220.746L160.899 217.724M159.524 220.746L158.31 221.231L159.09 216.779M159.524 220.746L159.09 216.779M160.899 217.724L166.536 217.04L166.065 216.43L160.899 217.724ZM159.09 216.779L159.933 216.02L161.432 216.99L159.09 216.779Z" stroke="#161616" stroke-width="5.94955"/>
<path d="M160.899 217.724L161.431 216.99L166.065 216.43L160.899 217.724ZM159.09 216.779L160.899 217.724L159.523 220.746L159.09 216.779Z" fill="#161616"/>
<path d="M160.899 217.724L161.431 216.99L166.065 216.43L160.899 217.724ZM160.899 217.724L159.09 216.779L159.523 220.746L160.899 217.724Z" stroke="#161616" stroke-width="5.94955"/>
<path d="M161.431 216.99L160.899 217.724L159.09 216.779L161.431 216.99Z" fill="#161616" stroke="#161616" stroke-width="5.94955"/>
</g>
<path fill-rule="evenodd" clip-rule="evenodd" d="M381.345 175.361C395.17 175.361 406.375 186.608 406.375 200.485C406.375 214.362 395.17 225.609 381.345 225.609C367.519 225.609 356.314 214.362 356.314 200.485C356.314 186.608 367.519 175.361 381.345 175.361Z" fill="url(#paint36_radial_455_863)"/>
<path d="M372.223 194.763C377.258 189.827 385.432 189.827 390.467 194.763L391.074 195.362C391.328 195.607 391.328 196.01 391.074 196.255L389.001 198.287C388.874 198.414 388.668 198.414 388.541 198.287L387.71 197.472C384.19 194.027 378.5 194.027 374.98 197.472L374.09 198.346C373.963 198.473 373.758 198.473 373.63 198.346L371.558 196.314C371.303 196.069 371.303 195.666 371.558 195.421L372.223 194.763ZM394.76 198.964L396.608 200.77C396.862 201.015 396.862 201.417 396.608 201.663L388.287 209.818C388.033 210.064 387.622 210.064 387.378 209.818L381.472 204.028C381.413 203.969 381.306 203.969 381.247 204.028L375.342 209.818C375.087 210.064 374.677 210.064 374.432 209.818L366.082 201.663C365.828 201.417 365.828 201.015 366.082 200.77L367.93 198.964C368.184 198.719 368.595 198.719 368.84 198.964L374.745 204.754C374.804 204.813 374.911 204.813 374.97 204.754L380.876 198.964C381.13 198.719 381.54 198.719 381.785 198.964L387.691 204.754C387.749 204.813 387.857 204.813 387.915 204.754L393.821 198.964C394.095 198.719 394.505 198.719 394.76 198.964Z" fill="white"/>
<path d="M245.007 88.2381V65.8529C245.007 59.8676 251.511 58.3188 255.113 61.9211C257.657 64.4652 260.86 71.1794 264.491 71.1794C258.442 76.625 245.007 88.2381 245.007 88.2381Z" fill="#8CD1EA"/>
<path d="M245.007 91.385C245.007 91.385 272.656 67.4929 274.765 65.3763C279.727 60.4143 288.929 63.1897 288.929 71.5368V79.5826C288.929 79.5826 282.755 84.846 281.304 85.9323C279.853 87.0187 276.945 86.1776 276.104 84.4816C275.263 82.7855 274.289 80.1223 270.777 80.1223C268.479 80.1223 266.944 82.8206 264.484 88.4694C260.005 98.7579 257.587 107.589 251.777 107.589C247.18 107.589 245 103.475 245 100.931V91.3709L245.007 91.385Z" fill="#8CD1EA"/>
<path d="M269.691 99.2275L288.93 82.8906V104.554C288.93 107.217 287.36 110 284.213 110C281.066 110 279.538 110.154 276.048 104.491C273.714 100.713 269.698 99.2275 269.698 99.2275H269.691Z" fill="#8CD1EA"/>
<g clip-path="url(#clip2_455_863)">
<path d="M257.074 194.01L266.784 184.301L276.499 194.016L282.149 188.366L266.784 173L251.424 188.36L257.074 194.01Z" fill="#F3BA2F"/>
<path d="M253.084 197.999L247.435 192.349L241.784 197.999L247.434 203.649L253.084 197.999Z" fill="#F3BA2F"/>
<path d="M257.074 201.99L266.784 211.699L276.499 201.985L282.152 207.632L282.15 207.635L266.784 223L251.424 207.64L251.416 207.632L257.074 201.99Z" fill="#F3BA2F"/>
<path d="M286.135 203.652L291.785 198.002L286.135 192.352L280.485 198.002L286.135 203.652Z" fill="#F3BA2F"/>
<path d="M272.515 197.997H272.517L266.784 192.264L262.547 196.501H262.547L262.06 196.988L261.056 197.992L261.048 198L261.056 198.008L266.784 203.736L272.517 198.003L272.52 198L272.515 197.997Z" fill="#F3BA2F"/>
</g>
<defs>
<linearGradient id="paint0_linear_455_863" x1="242.946" y1="196.582" x2="303.426" y2="243.283" gradientUnits="userSpaceOnUse">
<stop offset="0.16" stop-color="#1A1A1A"/>
<stop offset="0.58" stop-color="#151515"/>
<stop offset="1" stop-color="#101010"/>
</linearGradient>
<linearGradient id="paint1_linear_455_863" x1="205.644" y1="174.345" x2="247.468" y2="214.614" gradientUnits="userSpaceOnUse">
<stop stop-color="white" stop-opacity="0.15"/>
<stop offset="0.5" stop-color="#808080" stop-opacity="0.075"/>
<stop offset="1" stop-opacity="0"/>
</linearGradient>
<linearGradient id="paint2_linear_455_863" x1="235.159" y1="208.881" x2="230.16" y2="187.821" gradientUnits="userSpaceOnUse">
<stop offset="0.01" stop-opacity="0"/>
<stop offset="0.23" stop-color="#534A7E" stop-opacity="0.5"/>
<stop offset="0.46" stop-color="#A594FD"/>
<stop offset="0.73" stop-color="#534A7E" stop-opacity="0.5"/>
<stop offset="1" stop-opacity="0"/>
</linearGradient>
<linearGradient id="paint3_linear_455_863" x1="132.56" y1="191.573" x2="184.877" y2="241.805" gradientUnits="userSpaceOnUse">
<stop offset="0.16" stop-color="#1A1A1A"/>
<stop offset="0.58" stop-color="#151515"/>
<stop offset="1" stop-color="#101010"/>
</linearGradient>
<linearGradient id="paint4_linear_455_863" x1="95.9231" y1="169.085" x2="130.889" y2="214.159" gradientUnits="userSpaceOnUse">
<stop stop-color="white" stop-opacity="0.15"/>
<stop offset="0.5" stop-color="#808080" stop-opacity="0.075"/>
<stop offset="1" stop-opacity="0"/>
</linearGradient>
<linearGradient id="paint5_linear_455_863" x1="132.56" y1="191.573" x2="184.877" y2="241.805" gradientUnits="userSpaceOnUse">
<stop offset="0.16" stop-color="#1A1A1A"/>
<stop offset="0.58" stop-color="#151515"/>
<stop offset="1" stop-color="#101010"/>
</linearGradient>
<linearGradient id="paint6_linear_455_863" x1="95.9231" y1="169.085" x2="130.889" y2="214.159" gradientUnits="userSpaceOnUse">
<stop stop-color="white" stop-opacity="0.15"/>
<stop offset="0.5" stop-color="#808080" stop-opacity="0.075"/>
<stop offset="1" stop-opacity="0"/>
</linearGradient>
<linearGradient id="paint7_linear_455_863" x1="112.01" y1="95.8174" x2="187.5" y2="129.532" gradientUnits="userSpaceOnUse">
<stop offset="0.16" stop-color="#1A1A1A"/>
<stop offset="0.58" stop-color="#151515"/>
<stop offset="1" stop-color="#101010"/>
</linearGradient>
<linearGradient id="paint8_linear_455_863" x1="86.6255" y1="70.6407" x2="129.438" y2="99.7692" gradientUnits="userSpaceOnUse">
<stop stop-color="white" stop-opacity="0.15"/>
<stop offset="0.5" stop-color="#808080" stop-opacity="0.075"/>
<stop offset="1" stop-opacity="0"/>
</linearGradient>
<linearGradient id="paint9_linear_455_863" x1="-2.93209" y1="211.191" x2="72.558" y2="244.906" gradientUnits="userSpaceOnUse">
<stop offset="0.16" stop-color="#1A1A1A"/>
<stop offset="0.58" stop-color="#151515"/>
<stop offset="1" stop-color="#101010"/>
</linearGradient>
<linearGradient id="paint10_linear_455_863" x1="-28.3169" y1="186.015" x2="14.4956" y2="215.143" gradientUnits="userSpaceOnUse">
<stop stop-color="white" stop-opacity="0.15"/>
<stop offset="0.5" stop-color="#808080" stop-opacity="0.075"/>
<stop offset="1" stop-opacity="0"/>
</linearGradient>
<linearGradient id="paint11_linear_455_863" x1="35.2298" y1="85.5597" x2="69.6344" y2="126.2" gradientUnits="userSpaceOnUse">
<stop offset="0.16" stop-color="#1A1A1A"/>
<stop offset="0.58" stop-color="#151515"/>
<stop offset="1" stop-color="#101010"/>
</linearGradient>
<linearGradient id="paint12_linear_455_863" x1="-1.33309" y1="56.5113" x2="16.0281" y2="98.7695" gradientUnits="userSpaceOnUse">
<stop stop-color="white" stop-opacity="0.15"/>
<stop offset="0.5" stop-color="#808080" stop-opacity="0.075"/>
<stop offset="1" stop-opacity="0"/>
</linearGradient>
<linearGradient id="paint13_linear_455_863" x1="35.2298" y1="315.87" x2="69.6344" y2="356.51" gradientUnits="userSpaceOnUse">
<stop offset="0.16" stop-color="#1A1A1A"/>
<stop offset="0.58" stop-color="#151515"/>
<stop offset="1" stop-color="#101010"/>
</linearGradient>
<linearGradient id="paint14_linear_455_863" x1="-1.33309" y1="286.821" x2="16.0281" y2="329.079" gradientUnits="userSpaceOnUse">
<stop stop-color="white" stop-opacity="0.15"/>
<stop offset="0.5" stop-color="#808080" stop-opacity="0.075"/>
<stop offset="1" stop-opacity="0"/>
</linearGradient>
<linearGradient id="paint15_linear_455_863" x1="499.17" y1="85.5597" x2="533.575" y2="126.2" gradientUnits="userSpaceOnUse">
<stop offset="0.16" stop-color="#1A1A1A"/>
<stop offset="0.58" stop-color="#151515"/>
<stop offset="1" stop-color="#101010"/>
</linearGradient>
<linearGradient id="paint16_linear_455_863" x1="462.607" y1="56.5113" x2="479.968" y2="98.7695" gradientUnits="userSpaceOnUse">
<stop stop-color="white" stop-opacity="0.15"/>
<stop offset="0.5" stop-color="#808080" stop-opacity="0.075"/>
<stop offset="1" stop-opacity="0"/>
</linearGradient>
<linearGradient id="paint17_linear_455_863" x1="499.17" y1="315.87" x2="533.575" y2="356.51" gradientUnits="userSpaceOnUse">
<stop offset="0.16" stop-color="#1A1A1A"/>
<stop offset="0.58" stop-color="#151515"/>
<stop offset="1" stop-color="#101010"/>
</linearGradient>
<linearGradient id="paint18_linear_455_863" x1="462.607" y1="286.821" x2="479.968" y2="329.079" gradientUnits="userSpaceOnUse">
<stop stop-color="white" stop-opacity="0.15"/>
<stop offset="0.5" stop-color="#808080" stop-opacity="0.075"/>
<stop offset="1" stop-opacity="0"/>
</linearGradient>
<linearGradient id="paint19_linear_455_863" x1="112.01" y1="326.127" x2="187.5" y2="359.842" gradientUnits="userSpaceOnUse">
<stop offset="0.16" stop-color="#1A1A1A"/>
<stop offset="0.58" stop-color="#151515"/>
<stop offset="1" stop-color="#101010"/>
</linearGradient>
<linearGradient id="paint20_linear_455_863" x1="86.6255" y1="300.95" x2="129.438" y2="330.079" gradientUnits="userSpaceOnUse">
<stop stop-color="white" stop-opacity="0.15"/>
<stop offset="0.5" stop-color="#808080" stop-opacity="0.075"/>
<stop offset="1" stop-opacity="0"/>
</linearGradient>
<linearGradient id="paint21_linear_455_863" x1="343.286" y1="95.8174" x2="418.776" y2="129.532" gradientUnits="userSpaceOnUse">
<stop offset="0.16" stop-color="#1A1A1A"/>
<stop offset="0.58" stop-color="#151515"/>
<stop offset="1" stop-color="#101010"/>
</linearGradient>
<linearGradient id="paint22_linear_455_863" x1="317.901" y1="70.6407" x2="360.713" y2="99.7692" gradientUnits="userSpaceOnUse">
<stop stop-color="white" stop-opacity="0.15"/>
<stop offset="0.5" stop-color="#808080" stop-opacity="0.075"/>
<stop offset="1" stop-opacity="0"/>
</linearGradient>
<linearGradient id="paint23_linear_455_863" x1="461.008" y1="211.191" x2="536.498" y2="244.906" gradientUnits="userSpaceOnUse">
<stop offset="0.16" stop-color="#1A1A1A"/>
<stop offset="0.58" stop-color="#151515"/>
<stop offset="1" stop-color="#101010"/>
</linearGradient>
<linearGradient id="paint24_linear_455_863" x1="435.624" y1="186.015" x2="478.436" y2="215.143" gradientUnits="userSpaceOnUse">
<stop stop-color="white" stop-opacity="0.15"/>
<stop offset="0.5" stop-color="#808080" stop-opacity="0.075"/>
<stop offset="1" stop-opacity="0"/>
</linearGradient>
<linearGradient id="paint25_linear_455_863" x1="343.286" y1="326.127" x2="418.776" y2="359.842" gradientUnits="userSpaceOnUse">
<stop offset="0.16" stop-color="#1A1A1A"/>
<stop offset="0.58" stop-color="#151515"/>
<stop offset="1" stop-color="#101010"/>
</linearGradient>
<linearGradient id="paint26_linear_455_863" x1="317.901" y1="300.95" x2="360.713" y2="330.079" gradientUnits="userSpaceOnUse">
<stop stop-color="white" stop-opacity="0.15"/>
<stop offset="0.5" stop-color="#808080" stop-opacity="0.075"/>
<stop offset="1" stop-opacity="0"/>
</linearGradient>
<linearGradient id="paint27_linear_455_863" x1="366.153" y1="191.573" x2="418.469" y2="241.805" gradientUnits="userSpaceOnUse">
<stop offset="0.16" stop-color="#1A1A1A"/>
<stop offset="0.58" stop-color="#151515"/>
<stop offset="1" stop-color="#101010"/>
</linearGradient>
<linearGradient id="paint28_linear_455_863" x1="329.516" y1="169.085" x2="364.482" y2="214.159" gradientUnits="userSpaceOnUse">
<stop stop-color="white" stop-opacity="0.15"/>
<stop offset="0.5" stop-color="#808080" stop-opacity="0.075"/>
<stop offset="1" stop-opacity="0"/>
</linearGradient>
<linearGradient id="paint29_linear_455_863" x1="249.606" y1="76.1993" x2="301.922" y2="126.432" gradientUnits="userSpaceOnUse">
<stop offset="0.16" stop-color="#1A1A1A"/>
<stop offset="0.58" stop-color="#151515"/>
<stop offset="1" stop-color="#101010"/>
</linearGradient>
<linearGradient id="paint30_linear_455_863" x1="212.969" y1="53.7116" x2="247.935" y2="98.7855" gradientUnits="userSpaceOnUse">
<stop stop-color="white" stop-opacity="0.15"/>
<stop offset="0.5" stop-color="#808080" stop-opacity="0.075"/>
<stop offset="1" stop-opacity="0"/>
</linearGradient>
<linearGradient id="paint31_linear_455_863" x1="249.606" y1="308.808" x2="301.922" y2="359.04" gradientUnits="userSpaceOnUse">
<stop offset="0.16" stop-color="#1A1A1A"/>
<stop offset="0.58" stop-color="#151515"/>
<stop offset="1" stop-color="#101010"/>
</linearGradient>
<linearGradient id="paint32_linear_455_863" x1="212.969" y1="286.32" x2="247.935" y2="331.394" gradientUnits="userSpaceOnUse">
<stop stop-color="white" stop-opacity="0.15"/>
<stop offset="0.5" stop-color="#808080" stop-opacity="0.075"/>
<stop offset="1" stop-opacity="0"/>
</linearGradient>
<linearGradient id="paint33_linear_455_863" x1="5.8696" y1="169.656" x2="48.3382" y2="169.656" gradientUnits="userSpaceOnUse">
<stop stop-color="#101010"/>
<stop offset="0.5" stop-color="#101010" stop-opacity="0.5"/>
<stop offset="1" stop-color="#101010" stop-opacity="0"/>
</linearGradient>
<linearGradient id="paint34_linear_455_863" x1="523.76" y1="171.814" x2="461.784" y2="171.814" gradientUnits="userSpaceOnUse">
<stop stop-color="#101010"/>
<stop offset="0.5" stop-color="#101010" stop-opacity="0.5"/>
<stop offset="1" stop-color="#101010" stop-opacity="0"/>
</linearGradient>
<linearGradient id="paint35_linear_455_863" x1="266.037" y1="322.862" x2="266.037" y2="245.624" gradientUnits="userSpaceOnUse">
<stop stop-color="#101010"/>
<stop offset="0.5" stop-color="#101010" stop-opacity="0.5"/>
<stop offset="1" stop-color="#101010" stop-opacity="0"/>
</linearGradient>
<radialGradient id="paint36_radial_455_863" cx="0" cy="0" r="1" gradientUnits="userSpaceOnUse" gradientTransform="translate(356.315 200.486) scale(50.0608 50.2486)">
<stop stop-color="#5D9DF6"/>
<stop offset="1" stop-color="#006FFF"/>
</radialGradient>
<clipPath id="clip0_455_863">
<rect width="58.2766" height="58.4953" fill="white" transform="translate(352.389 56.1431)"/>
</clipPath>
<clipPath id="clip1_455_863">
<rect width="50.0608" height="52.2552" fill="white" transform="translate(122.698 173.39)"/>
</clipPath>
<clipPath id="clip2_455_863">
<rect width="50" height="50" fill="white" transform="translate(242 173)"/>
</clipPath>
</defs>
</svg>
