<svg width="517" height="414" viewBox="0 0 517 414" fill="none" xmlns="http://www.w3.org/2000/svg">
<rect x="0.5" y="0.5" width="516" height="413" rx="24.5" fill="url(#paint0_radial_730_1152)"/>
<path d="M35.08 39V30.132H36.46V39H35.08ZM39.6876 39H38.3676V32.532H39.6636V33.444C39.8556 33.108 40.1316 32.844 40.4916 32.652C40.8516 32.46 41.2596 32.364 41.7156 32.364C42.4276 32.364 43.0276 32.596 43.5156 33.06C44.0116 33.532 44.2596 34.2 44.2596 35.064V39H42.9276V35.436C42.9276 34.852 42.7876 34.4 42.5076 34.08C42.2276 33.752 41.8516 33.588 41.3796 33.588C40.8836 33.588 40.4756 33.764 40.1556 34.116C39.8436 34.46 39.6876 34.908 39.6876 35.46V39ZM48.9153 39.144C47.9073 39.144 47.0873 38.828 46.4553 38.196C45.8153 37.556 45.4953 36.748 45.4953 35.772C45.4953 34.788 45.8193 33.976 46.4673 33.336C47.1233 32.696 47.9553 32.376 48.9633 32.376C49.6113 32.376 50.2033 32.532 50.7393 32.844C51.2833 33.156 51.6833 33.576 51.9393 34.104L50.8473 34.716C50.6473 34.372 50.3793 34.1 50.0433 33.9C49.7153 33.692 49.3593 33.588 48.9753 33.588C48.3593 33.588 47.8473 33.796 47.4393 34.212C47.0313 34.636 46.8273 35.156 46.8273 35.772C46.8273 36.372 47.0273 36.884 47.4273 37.308C47.8193 37.724 48.3193 37.932 48.9273 37.932C49.3113 37.932 49.6793 37.828 50.0313 37.62C50.3833 37.412 50.6433 37.148 50.8113 36.828L51.9033 37.464C51.6393 37.968 51.2353 38.376 50.6913 38.688C50.1553 38.992 49.5633 39.144 48.9153 39.144ZM52.6789 35.76C52.6789 34.824 52.9989 34.024 53.6389 33.36C54.2869 32.696 55.1069 32.364 56.0989 32.364C57.0909 32.364 57.9069 32.696 58.5469 33.36C59.1949 34.016 59.5189 34.816 59.5189 35.76C59.5189 36.72 59.1949 37.528 58.5469 38.184C57.9149 38.84 57.0989 39.168 56.0989 39.168C55.1069 39.168 54.2869 38.84 53.6389 38.184C52.9989 37.52 52.6789 36.712 52.6789 35.76ZM58.1869 35.76C58.1869 35.168 57.9829 34.66 57.5749 34.236C57.1829 33.804 56.6909 33.588 56.0989 33.588C55.5149 33.588 55.0189 33.804 54.6109 34.236C54.2109 34.66 54.0109 35.168 54.0109 35.76C54.0109 36.36 54.2109 36.872 54.6109 37.296C55.0189 37.72 55.5149 37.932 56.0989 37.932C56.6829 37.932 57.1749 37.72 57.5749 37.296C57.9829 36.872 58.1869 36.36 58.1869 35.76ZM68.4282 32.352C69.2042 32.352 69.8282 32.604 70.3002 33.108C70.7802 33.596 71.0202 34.272 71.0202 35.136V39H69.7002V35.352C69.7002 34.792 69.5682 34.36 69.3042 34.056C69.0402 33.744 68.6802 33.588 68.2242 33.588C67.7442 33.588 67.3522 33.752 67.0482 34.08C66.7522 34.408 66.6042 34.844 66.6042 35.388V39H65.2842V35.376C65.2842 34.824 65.1482 34.388 64.8762 34.068C64.6122 33.748 64.2522 33.588 63.7962 33.588C63.3162 33.588 62.9242 33.756 62.6202 34.092C62.3162 34.42 62.1642 34.86 62.1642 35.412V39H60.8442V32.532H62.1402V33.468C62.3322 33.124 62.6002 32.852 62.9442 32.652C63.2882 32.452 63.6722 32.352 64.0962 32.352C64.5362 32.36 64.9362 32.468 65.2962 32.676C65.6562 32.884 65.9202 33.172 66.0882 33.54C66.3122 33.18 66.6322 32.892 67.0482 32.676C67.4722 32.46 67.9322 32.352 68.4282 32.352ZM78.741 35.64C78.741 35.848 78.725 36.06 78.693 36.276H73.641C73.737 36.796 73.965 37.208 74.325 37.512C74.693 37.816 75.181 37.968 75.789 37.968C76.157 37.968 76.541 37.904 76.941 37.776C77.349 37.648 77.697 37.48 77.985 37.272L78.537 38.244C77.729 38.844 76.797 39.144 75.741 39.144C74.605 39.144 73.741 38.812 73.149 38.148C72.565 37.484 72.273 36.684 72.273 35.748C72.273 34.772 72.577 33.968 73.185 33.336C73.801 32.696 74.597 32.376 75.573 32.376C76.509 32.376 77.269 32.668 77.853 33.252C78.445 33.844 78.741 34.64 78.741 35.64ZM75.573 33.516C75.077 33.516 74.653 33.672 74.301 33.984C73.957 34.288 73.737 34.692 73.641 35.196H77.409C77.353 34.692 77.153 34.288 76.809 33.984C76.473 33.672 76.061 33.516 75.573 33.516ZM81.9478 39.156C81.4358 39.156 80.9598 39.04 80.5198 38.808C80.0798 38.576 79.7278 38.24 79.4638 37.8L80.3158 37.032C80.5078 37.344 80.7518 37.588 81.0478 37.764C81.3518 37.932 81.6598 38.016 81.9718 38.016C82.2838 38.016 82.5398 37.94 82.7398 37.788C82.9398 37.628 83.0398 37.436 83.0398 37.212C83.0398 36.892 82.8558 36.644 82.4878 36.468C82.3918 36.412 82.1318 36.304 81.7078 36.144C81.2758 35.96 81.0038 35.836 80.8918 35.772C80.2038 35.412 79.8598 34.88 79.8598 34.176C79.8598 33.64 80.0598 33.196 80.4598 32.844C80.8758 32.492 81.4118 32.316 82.0678 32.316C82.9878 32.316 83.6958 32.648 84.1918 33.312L83.4238 34.128C83.0398 33.656 82.5678 33.42 82.0078 33.42C81.7438 33.42 81.5318 33.488 81.3718 33.624C81.2198 33.76 81.1438 33.928 81.1438 34.128C81.1438 34.448 81.3238 34.684 81.6838 34.836L82.3438 35.112C82.7678 35.288 83.0718 35.424 83.2558 35.52C83.9918 35.904 84.3598 36.448 84.3598 37.152C84.3598 37.72 84.1358 38.196 83.6878 38.58C83.2398 38.964 82.6598 39.156 81.9478 39.156Z" fill="white" fill-opacity="0.8"/>
<path d="M44.9 61.8C44.9 62.9067 44.56 63.8467 43.88 64.62C43.2 65.38 42.2933 65.88 41.16 66.12V68.24H38.88V66.2C36.9467 65.8933 35.5133 64.9 34.58 63.22L36.46 61.5C36.82 62.18 37.2933 62.7133 37.88 63.1C38.48 63.4733 39.12 63.66 39.8 63.66C40.44 63.66 40.9467 63.5 41.32 63.18C41.7067 62.86 41.9 62.4533 41.9 61.96C41.9 61.2933 41.4533 60.74 40.56 60.3L39.26 59.66C38.4067 59.2467 37.8067 58.92 37.46 58.68C36.06 57.76 35.36 56.58 35.36 55.14C35.36 54.0733 35.6933 53.1733 36.36 52.44C37.0267 51.7067 37.9067 51.2467 39 51.06V49.14H41.28V51.08C42.5333 51.2933 43.64 51.9333 44.6 53L43.04 54.92C42.0933 53.9733 41.1067 53.5 40.08 53.5C39.52 53.5 39.0667 53.64 38.72 53.92C38.3867 54.2 38.22 54.5733 38.22 55.04C38.22 55.3733 38.3333 55.6667 38.56 55.92C38.7867 56.16 39.1467 56.4267 39.64 56.72C39.8533 56.8533 40.3533 57.1133 41.14 57.5C41.94 57.8867 42.52 58.1867 42.88 58.4C44.2267 59.2667 44.9 60.4 44.9 61.8ZM51.7192 50.96C53.5059 50.96 54.8726 51.62 55.8192 52.94C56.7659 54.2733 57.2392 56 57.2392 58.12C57.2392 59.2133 57.1126 60.24 56.8592 61.2C56.6192 62.1467 56.2526 63.0067 55.7592 63.78C55.2659 64.54 54.6126 65.14 53.7992 65.58C52.9859 66.02 52.0526 66.24 50.9992 66.24C49.4126 66.24 48.0726 65.8133 46.9792 64.96L47.9992 62.9C48.9059 63.5267 49.8592 63.84 50.8592 63.84C52.0192 63.84 52.9126 63.4067 53.5392 62.54C54.1792 61.6733 54.5526 60.5467 54.6592 59.16C54.2992 59.64 53.8126 60.02 53.1992 60.3C52.5859 60.5667 51.9192 60.7 51.1992 60.7C49.8392 60.7 48.7126 60.2533 47.8192 59.36C46.9392 58.4533 46.4992 57.32 46.4992 55.96C46.4992 54.5067 46.9859 53.3133 47.9592 52.38C48.9459 51.4333 50.1992 50.96 51.7192 50.96ZM54.1992 55.88C54.1992 55.1467 53.9526 54.5333 53.4592 54.04C52.9792 53.5467 52.3859 53.3 51.6792 53.3C50.9592 53.3 50.3526 53.5467 49.8592 54.04C49.3792 54.52 49.1392 55.14 49.1392 55.9C49.1392 56.62 49.3792 57.22 49.8592 57.7C50.3392 58.1667 50.9392 58.4 51.6592 58.4C52.3792 58.4 52.9792 58.16 53.4592 57.68C53.9526 57.2 54.1992 56.6 54.1992 55.88ZM65.0397 66.24C63.7197 66.24 62.5997 65.8733 61.6797 65.14C60.7597 64.3933 60.0997 63.46 59.6997 62.34C59.2997 61.22 59.0997 59.9733 59.0997 58.6C59.0997 57.2267 59.2997 55.98 59.6997 54.86C60.0997 53.74 60.7597 52.8133 61.6797 52.08C62.5997 51.3333 63.7197 50.96 65.0397 50.96C65.8397 50.96 66.573 51.1 67.2397 51.38C67.9064 51.66 68.4664 52.04 68.9197 52.52C69.373 52.9867 69.753 53.5467 70.0597 54.2C70.3797 54.8533 70.613 55.5467 70.7597 56.28C70.9064 57.0133 70.9797 57.7867 70.9797 58.6C70.9797 59.4133 70.9064 60.1867 70.7597 60.92C70.613 61.6533 70.3797 62.3467 70.0597 63C69.753 63.6533 69.373 64.22 68.9197 64.7C68.4664 65.1667 67.9064 65.54 67.2397 65.82C66.573 66.1 65.8397 66.24 65.0397 66.24ZM65.0397 63.68C66.1197 63.68 66.9197 63.2133 67.4397 62.28C67.973 61.3467 68.2397 60.12 68.2397 58.6C68.2397 57.0933 67.973 55.8733 67.4397 54.94C66.893 53.9933 66.093 53.52 65.0397 53.52C63.9864 53.52 63.1864 53.9933 62.6397 54.94C62.1064 55.8733 61.8397 57.0933 61.8397 58.6C61.8397 60.12 62.1064 61.3467 62.6397 62.28C63.173 63.2133 63.973 63.68 65.0397 63.68ZM74.1181 63.28C74.5981 63.28 74.9981 63.4533 75.3181 63.8C75.6381 64.1333 75.7981 64.56 75.7981 65.08C75.7981 66.4933 74.8181 67.8267 72.8581 69.08L72.0781 68.02L72.8781 67.38C73.3581 67.02 73.7115 66.6333 73.9381 66.22H73.8781C73.5048 66.22 73.1848 66.0867 72.9181 65.82C72.6515 65.54 72.5181 65.2067 72.5181 64.82C72.5181 64.38 72.6715 64.0133 72.9781 63.72C73.2981 63.4267 73.6781 63.28 74.1181 63.28ZM83.2623 66.24C81.9423 66.24 80.8223 65.8733 79.9023 65.14C78.9823 64.3933 78.3223 63.46 77.9223 62.34C77.5223 61.22 77.3223 59.9733 77.3223 58.6C77.3223 57.2267 77.5223 55.98 77.9223 54.86C78.3223 53.74 78.9823 52.8133 79.9023 52.08C80.8223 51.3333 81.9423 50.96 83.2623 50.96C84.0623 50.96 84.7957 51.1 85.4623 51.38C86.129 51.66 86.689 52.04 87.1423 52.52C87.5957 52.9867 87.9757 53.5467 88.2823 54.2C88.6023 54.8533 88.8357 55.5467 88.9823 56.28C89.129 57.0133 89.2023 57.7867 89.2023 58.6C89.2023 59.4133 89.129 60.1867 88.9823 60.92C88.8357 61.6533 88.6023 62.3467 88.2823 63C87.9757 63.6533 87.5957 64.22 87.1423 64.7C86.689 65.1667 86.129 65.54 85.4623 65.82C84.7957 66.1 84.0623 66.24 83.2623 66.24ZM83.2623 63.68C84.3423 63.68 85.1423 63.2133 85.6623 62.28C86.1957 61.3467 86.4623 60.12 86.4623 58.6C86.4623 57.0933 86.1957 55.8733 85.6623 54.94C85.1157 53.9933 84.3157 53.52 83.2623 53.52C82.209 53.52 81.409 53.9933 80.8623 54.94C80.329 55.8733 80.0623 57.0933 80.0623 58.6C80.0623 60.12 80.329 61.3467 80.8623 62.28C81.3957 63.2133 82.1957 63.68 83.2623 63.68ZM96.9733 66.24C95.6533 66.24 94.5333 65.8733 93.6133 65.14C92.6933 64.3933 92.0333 63.46 91.6333 62.34C91.2333 61.22 91.0333 59.9733 91.0333 58.6C91.0333 57.2267 91.2333 55.98 91.6333 54.86C92.0333 53.74 92.6933 52.8133 93.6133 52.08C94.5333 51.3333 95.6533 50.96 96.9733 50.96C97.7733 50.96 98.5066 51.1 99.1733 51.38C99.8399 51.66 100.4 52.04 100.853 52.52C101.307 52.9867 101.687 53.5467 101.993 54.2C102.313 54.8533 102.547 55.5467 102.693 56.28C102.84 57.0133 102.913 57.7867 102.913 58.6C102.913 59.4133 102.84 60.1867 102.693 60.92C102.547 61.6533 102.313 62.3467 101.993 63C101.687 63.6533 101.307 64.22 100.853 64.7C100.4 65.1667 99.8399 65.54 99.1733 65.82C98.5066 66.1 97.7733 66.24 96.9733 66.24ZM96.9733 63.68C98.0533 63.68 98.8533 63.2133 99.3733 62.28C99.9066 61.3467 100.173 60.12 100.173 58.6C100.173 57.0933 99.9066 55.8733 99.3733 54.94C98.8266 53.9933 98.0266 53.52 96.9733 53.52C95.9199 53.52 95.1199 53.9933 94.5733 54.94C94.0399 55.8733 93.7733 57.0933 93.7733 58.6C93.7733 60.12 94.0399 61.3467 94.5733 62.28C95.1066 63.2133 95.9066 63.68 96.9733 63.68ZM110.684 66.24C109.364 66.24 108.244 65.8733 107.324 65.14C106.404 64.3933 105.744 63.46 105.344 62.34C104.944 61.22 104.744 59.9733 104.744 58.6C104.744 57.2267 104.944 55.98 105.344 54.86C105.744 53.74 106.404 52.8133 107.324 52.08C108.244 51.3333 109.364 50.96 110.684 50.96C111.484 50.96 112.218 51.1 112.884 51.38C113.551 51.66 114.111 52.04 114.564 52.52C115.018 52.9867 115.398 53.5467 115.704 54.2C116.024 54.8533 116.258 55.5467 116.404 56.28C116.551 57.0133 116.624 57.7867 116.624 58.6C116.624 59.4133 116.551 60.1867 116.404 60.92C116.258 61.6533 116.024 62.3467 115.704 63C115.398 63.6533 115.018 64.22 114.564 64.7C114.111 65.1667 113.551 65.54 112.884 65.82C112.218 66.1 111.484 66.24 110.684 66.24ZM110.684 63.68C111.764 63.68 112.564 63.2133 113.084 62.28C113.618 61.3467 113.884 60.12 113.884 58.6C113.884 57.0933 113.618 55.8733 113.084 54.94C112.538 53.9933 111.738 53.52 110.684 53.52C109.631 53.52 108.831 53.9933 108.284 54.94C107.751 55.8733 107.484 57.0933 107.484 58.6C107.484 60.12 107.751 61.3467 108.284 62.28C108.818 63.2133 109.618 63.68 110.684 63.68Z" fill="white"/>
<path d="M173.088 39.132C171.8 39.132 170.72 38.708 169.848 37.86C168.968 37.004 168.528 35.916 168.528 34.596C168.528 33.252 168.976 32.148 169.872 31.284C170.768 30.412 171.852 29.976 173.124 29.976C173.916 29.976 174.656 30.152 175.344 30.504C176.024 30.848 176.556 31.308 176.94 31.884L175.956 32.772C175.228 31.804 174.296 31.32 173.16 31.32C172.264 31.32 171.504 31.632 170.88 32.256C170.264 32.888 169.956 33.668 169.956 34.596C169.956 35.532 170.26 36.3 170.868 36.9C171.484 37.5 172.244 37.8 173.148 37.8C174.324 37.8 175.276 37.32 176.004 36.36L176.988 37.224C176.564 37.808 176.008 38.272 175.32 38.616C174.632 38.96 173.888 39.132 173.088 39.132ZM179.453 29.904V39H178.133V29.904H179.453ZM181.853 31.68C181.597 31.68 181.381 31.596 181.205 31.428C181.029 31.252 180.941 31.036 180.941 30.78C180.941 30.532 181.029 30.324 181.205 30.156C181.381 29.988 181.597 29.904 181.853 29.904C182.101 29.904 182.309 29.988 182.477 30.156C182.645 30.324 182.729 30.532 182.729 30.78C182.729 31.036 182.645 31.252 182.477 31.428C182.309 31.596 182.101 31.68 181.853 31.68ZM182.489 32.532V39H181.169V32.532H182.489ZM187.228 39.144C186.22 39.144 185.4 38.828 184.768 38.196C184.128 37.556 183.808 36.748 183.808 35.772C183.808 34.788 184.132 33.976 184.78 33.336C185.436 32.696 186.268 32.376 187.276 32.376C187.924 32.376 188.516 32.532 189.052 32.844C189.596 33.156 189.996 33.576 190.252 34.104L189.16 34.716C188.96 34.372 188.692 34.1 188.356 33.9C188.028 33.692 187.672 33.588 187.288 33.588C186.672 33.588 186.16 33.796 185.752 34.212C185.344 34.636 185.14 35.156 185.14 35.772C185.14 36.372 185.34 36.884 185.74 37.308C186.132 37.724 186.632 37.932 187.24 37.932C187.624 37.932 187.992 37.828 188.344 37.62C188.696 37.412 188.956 37.148 189.124 36.828L190.216 37.464C189.952 37.968 189.548 38.376 189.004 38.688C188.468 38.992 187.876 39.144 187.228 39.144ZM197.303 39H195.599L193.271 36.06L192.707 36.576V39H191.387V29.904H192.707V35.028L195.431 32.532H197.171L194.195 35.22L197.303 39ZM199.835 39.156C199.323 39.156 198.847 39.04 198.407 38.808C197.967 38.576 197.615 38.24 197.351 37.8L198.203 37.032C198.395 37.344 198.639 37.588 198.935 37.764C199.239 37.932 199.547 38.016 199.859 38.016C200.171 38.016 200.427 37.94 200.627 37.788C200.827 37.628 200.927 37.436 200.927 37.212C200.927 36.892 200.743 36.644 200.375 36.468C200.279 36.412 200.019 36.304 199.595 36.144C199.163 35.96 198.891 35.836 198.779 35.772C198.091 35.412 197.747 34.88 197.747 34.176C197.747 33.64 197.947 33.196 198.347 32.844C198.763 32.492 199.299 32.316 199.955 32.316C200.875 32.316 201.583 32.648 202.079 33.312L201.311 34.128C200.927 33.656 200.455 33.42 199.895 33.42C199.631 33.42 199.419 33.488 199.259 33.624C199.107 33.76 199.031 33.928 199.031 34.128C199.031 34.448 199.211 34.684 199.571 34.836L200.23 35.112C200.655 35.288 200.959 35.424 201.143 35.52C201.879 35.904 202.247 36.448 202.247 37.152C202.247 37.72 202.023 38.196 201.575 38.58C201.127 38.964 200.547 39.156 199.835 39.156Z" fill="white" fill-opacity="0.42"/>
<path d="M167.98 54.84L172.46 51.22H174.5V66H171.82V54.86L169.4 56.76L167.98 54.84ZM178.743 63.28C179.223 63.28 179.623 63.4533 179.943 63.8C180.263 64.1333 180.423 64.56 180.423 65.08C180.423 66.4933 179.443 67.8267 177.483 69.08L176.703 68.02L177.503 67.38C177.983 67.02 178.336 66.6333 178.563 66.22H178.503C178.13 66.22 177.81 66.0867 177.543 65.82C177.276 65.54 177.143 65.2067 177.143 64.82C177.143 64.38 177.296 64.0133 177.603 63.72C177.923 63.4267 178.303 63.28 178.743 63.28ZM187.989 56.46C189.362 56.46 190.495 56.9067 191.389 57.8C192.295 58.7067 192.749 59.84 192.749 61.2C192.749 62.6267 192.255 63.8133 191.269 64.76C190.282 65.7067 189.029 66.18 187.509 66.18C185.695 66.18 184.309 65.5133 183.349 64.18C182.389 62.8333 181.909 61.1267 181.909 59.06C181.909 57.6333 182.129 56.3267 182.569 55.14C183.009 53.94 183.715 52.9467 184.689 52.16C185.675 51.36 186.862 50.96 188.249 50.96C189.782 50.96 191.115 51.3867 192.249 52.24L191.089 54.3C190.262 53.6867 189.369 53.38 188.409 53.38C187.582 53.38 186.875 53.6267 186.289 54.12C185.195 55.0267 184.602 56.3933 184.509 58.22C185.229 57.0467 186.389 56.46 187.989 56.46ZM187.509 63.82C188.229 63.82 188.835 63.5733 189.329 63.08C189.822 62.5867 190.069 61.9733 190.069 61.24C190.069 60.52 189.829 59.9267 189.349 59.46C188.869 58.9933 188.269 58.76 187.549 58.76C186.815 58.76 186.202 59 185.709 59.48C185.215 59.9467 184.969 60.54 184.969 61.26C184.969 61.98 185.215 62.5867 185.709 63.08C186.202 63.5733 186.802 63.82 187.509 63.82ZM198.587 66.24C196.934 66.24 195.354 65.7533 193.847 64.78L195.007 62.58C196.22 63.34 197.374 63.72 198.467 63.72C199.254 63.72 199.874 63.54 200.327 63.18C200.794 62.8067 201.027 62.32 201.027 61.72C201.027 61.12 200.8 60.6333 200.347 60.26C199.894 59.8867 199.3 59.7 198.567 59.7H196.687V57.26H198.347C199.067 57.26 199.64 57.0867 200.067 56.74C200.494 56.38 200.707 55.92 200.707 55.36C200.707 54.8 200.5 54.3533 200.087 54.02C199.687 53.6867 199.167 53.52 198.527 53.52C197.62 53.52 196.614 53.9133 195.507 54.7L194.187 52.74C194.76 52.1933 195.454 51.76 196.267 51.44C197.094 51.12 197.947 50.96 198.827 50.96C200.147 50.96 201.254 51.3333 202.147 52.08C203.04 52.8133 203.487 53.7267 203.487 54.82C203.487 55.5933 203.254 56.28 202.787 56.88C202.32 57.48 201.714 57.9067 200.967 58.16V58.24C201.86 58.44 202.567 58.8733 203.087 59.54C203.607 60.1933 203.867 60.9733 203.867 61.88C203.867 63.1467 203.374 64.1933 202.387 65.02C201.414 65.8333 200.147 66.24 198.587 66.24ZM210.797 50.96C212.584 50.96 213.951 51.62 214.897 52.94C215.844 54.2733 216.317 56 216.317 58.12C216.317 59.2133 216.191 60.24 215.937 61.2C215.697 62.1467 215.331 63.0067 214.837 63.78C214.344 64.54 213.691 65.14 212.877 65.58C212.064 66.02 211.131 66.24 210.077 66.24C208.491 66.24 207.151 65.8133 206.057 64.96L207.077 62.9C207.984 63.5267 208.937 63.84 209.937 63.84C211.097 63.84 211.991 63.4067 212.617 62.54C213.257 61.6733 213.631 60.5467 213.737 59.16C213.377 59.64 212.891 60.02 212.277 60.3C211.664 60.5667 210.997 60.7 210.277 60.7C208.917 60.7 207.791 60.2533 206.897 59.36C206.017 58.4533 205.577 57.32 205.577 55.96C205.577 54.5067 206.064 53.3133 207.037 52.38C208.024 51.4333 209.277 50.96 210.797 50.96ZM213.277 55.88C213.277 55.1467 213.031 54.5333 212.537 54.04C212.057 53.5467 211.464 53.3 210.757 53.3C210.037 53.3 209.431 53.5467 208.937 54.04C208.457 54.52 208.217 55.14 208.217 55.9C208.217 56.62 208.457 57.22 208.937 57.7C209.417 58.1667 210.017 58.4 210.737 58.4C211.457 58.4 212.057 58.16 212.537 57.68C213.031 57.2 213.277 56.6 213.277 55.88Z" fill="white" fill-opacity="0.6"/>
<path d="M271.42 39.144C270.764 39.144 270.156 38.992 269.596 38.688C269.036 38.376 268.6 37.94 268.288 37.38L269.224 36.48C269.464 36.92 269.776 37.256 270.16 37.488C270.552 37.72 270.972 37.836 271.42 37.836C271.868 37.836 272.232 37.72 272.512 37.488C272.792 37.256 272.932 36.968 272.932 36.624C272.932 36.176 272.64 35.796 272.056 35.484C271.912 35.412 271.612 35.28 271.156 35.088C270.676 34.864 270.336 34.696 270.136 34.584C269.24 34.048 268.792 33.332 268.792 32.436C268.792 31.732 269.048 31.148 269.56 30.684C270.08 30.212 270.752 29.976 271.576 29.976C272.696 29.976 273.596 30.4 274.276 31.248L273.424 32.196C272.936 31.588 272.324 31.284 271.588 31.284C271.196 31.284 270.876 31.384 270.628 31.584C270.388 31.776 270.268 32.036 270.268 32.364C270.268 32.788 270.516 33.14 271.012 33.42C271.276 33.564 271.608 33.728 272.008 33.912C272.472 34.112 272.836 34.288 273.1 34.44C274.004 34.936 274.456 35.64 274.456 36.552C274.456 37.304 274.172 37.928 273.604 38.424C273.036 38.904 272.308 39.144 271.42 39.144ZM276.474 31.68C276.218 31.68 276.002 31.596 275.826 31.428C275.65 31.252 275.562 31.036 275.562 30.78C275.562 30.532 275.65 30.324 275.826 30.156C276.002 29.988 276.218 29.904 276.474 29.904C276.722 29.904 276.93 29.988 277.098 30.156C277.266 30.324 277.35 30.532 277.35 30.78C277.35 31.036 277.266 31.252 277.098 31.428C276.93 31.596 276.722 31.68 276.474 31.68ZM277.11 32.532V39H275.79V32.532H277.11ZM283.877 33.36V32.532H285.149V38.34C285.149 39.38 284.829 40.208 284.189 40.824C283.549 41.44 282.701 41.748 281.645 41.748C280.573 41.748 279.609 41.44 278.753 40.824L279.329 39.804C280.041 40.316 280.805 40.572 281.621 40.572C282.301 40.572 282.841 40.38 283.241 39.996C283.641 39.62 283.841 39.128 283.841 38.52V38.052C283.273 38.692 282.549 39.012 281.669 39.012C280.725 39.012 279.949 38.696 279.341 38.064C278.733 37.432 278.429 36.64 278.429 35.688C278.429 34.736 278.745 33.948 279.377 33.324C280.009 32.692 280.793 32.376 281.729 32.376C282.585 32.376 283.301 32.704 283.877 33.36ZM281.837 37.836C282.437 37.836 282.933 37.632 283.325 37.224C283.717 36.824 283.913 36.316 283.913 35.7C283.913 35.076 283.717 34.568 283.325 34.176C282.925 33.776 282.429 33.576 281.837 33.576C281.253 33.576 280.761 33.78 280.361 34.188C279.969 34.58 279.773 35.084 279.773 35.7C279.773 36.324 279.969 36.836 280.361 37.236C280.761 37.636 281.253 37.836 281.837 37.836ZM288.172 39H286.852V32.532H288.148V33.444C288.34 33.108 288.616 32.844 288.976 32.652C289.336 32.46 289.744 32.364 290.2 32.364C290.912 32.364 291.512 32.596 292 33.06C292.496 33.532 292.744 34.2 292.744 35.064V39H291.412V35.436C291.412 34.852 291.272 34.4 290.992 34.08C290.712 33.752 290.336 33.588 289.864 33.588C289.368 33.588 288.96 33.764 288.64 34.116C288.328 34.46 288.172 34.908 288.172 35.46V39ZM299.008 36.3H294.28V35.052H299.008V36.3ZM303.381 39.156C302.517 39.156 301.829 38.904 301.317 38.4C300.805 37.896 300.549 37.212 300.549 36.348V32.532H301.869V36.336C301.869 36.824 302.001 37.212 302.265 37.5C302.537 37.788 302.909 37.932 303.381 37.932C303.861 37.932 304.233 37.792 304.497 37.512C304.761 37.232 304.893 36.84 304.893 36.336V32.532H306.225V36.348C306.225 37.228 305.973 37.916 305.469 38.412C304.965 38.908 304.269 39.156 303.381 39.156ZM311.38 32.376C312.3 32.376 313.064 32.704 313.672 33.36C314.288 34.024 314.596 34.828 314.596 35.772C314.596 36.708 314.288 37.508 313.672 38.172C313.064 38.828 312.296 39.156 311.368 39.156C310.456 39.156 309.72 38.804 309.16 38.1V41.664H307.84V32.532H309.16V33.468C309.744 32.74 310.484 32.376 311.38 32.376ZM313.264 35.76C313.264 35.152 313.072 34.64 312.688 34.224C312.304 33.8 311.804 33.588 311.188 33.588C310.572 33.588 310.072 33.8 309.688 34.224C309.312 34.648 309.124 35.16 309.124 35.76C309.124 36.376 309.312 36.896 309.688 37.32C310.072 37.736 310.572 37.944 311.188 37.944C311.804 37.944 312.304 37.736 312.688 37.32C313.072 36.904 313.264 36.384 313.264 35.76ZM317.811 39.156C317.299 39.156 316.823 39.04 316.383 38.808C315.943 38.576 315.591 38.24 315.327 37.8L316.179 37.032C316.371 37.344 316.615 37.588 316.911 37.764C317.215 37.932 317.523 38.016 317.835 38.016C318.147 38.016 318.403 37.94 318.603 37.788C318.803 37.628 318.903 37.436 318.903 37.212C318.903 36.892 318.719 36.644 318.351 36.468C318.255 36.412 317.995 36.304 317.571 36.144C317.139 35.96 316.867 35.836 316.755 35.772C316.067 35.412 315.723 34.88 315.723 34.176C315.723 33.64 315.923 33.196 316.323 32.844C316.739 32.492 317.275 32.316 317.931 32.316C318.851 32.316 319.559 32.648 320.055 33.312L319.287 34.128C318.903 33.656 318.431 33.42 317.871 33.42C317.607 33.42 317.395 33.488 317.235 33.624C317.083 33.76 317.007 33.928 317.007 34.128C317.007 34.448 317.187 34.684 317.547 34.836L318.207 35.112C318.631 35.288 318.935 35.424 319.119 35.52C319.855 35.904 320.223 36.448 320.223 37.152C320.223 37.72 319.999 38.196 319.551 38.58C319.103 38.964 318.523 39.156 317.811 39.156Z" fill="white" fill-opacity="0.42"/>
<path d="M273.04 66.24C271.387 66.24 269.807 65.7533 268.3 64.78L269.46 62.58C270.673 63.34 271.827 63.72 272.92 63.72C273.707 63.72 274.327 63.54 274.78 63.18C275.247 62.8067 275.48 62.32 275.48 61.72C275.48 61.12 275.253 60.6333 274.8 60.26C274.347 59.8867 273.753 59.7 273.02 59.7H271.14V57.26H272.8C273.52 57.26 274.093 57.0867 274.52 56.74C274.947 56.38 275.16 55.92 275.16 55.36C275.16 54.8 274.953 54.3533 274.54 54.02C274.14 53.6867 273.62 53.52 272.98 53.52C272.073 53.52 271.067 53.9133 269.96 54.7L268.64 52.74C269.213 52.1933 269.907 51.76 270.72 51.44C271.547 51.12 272.4 50.96 273.28 50.96C274.6 50.96 275.707 51.3333 276.6 52.08C277.493 52.8133 277.94 53.7267 277.94 54.82C277.94 55.5933 277.707 56.28 277.24 56.88C276.773 57.48 276.167 57.9067 275.42 58.16V58.24C276.313 58.44 277.02 58.8733 277.54 59.54C278.06 60.1933 278.32 60.9733 278.32 61.88C278.32 63.1467 277.827 64.1933 276.84 65.02C275.867 65.8333 274.6 66.24 273.04 66.24ZM289.05 60.2H290.65V62.5H289.05V66H286.49V62.5H279.89L279.35 60.76L287.15 51.22H289.05V60.2ZM286.49 55.32L282.53 60.2H286.49V55.32ZM297.417 56.44C298.844 56.44 300.024 56.8867 300.957 57.78C301.917 58.6733 302.397 59.8267 302.397 61.24C302.397 62.68 301.897 63.8733 300.897 64.82C299.884 65.7667 298.57 66.24 296.957 66.24C295.197 66.24 293.564 65.6867 292.057 64.58L293.157 62.4C294.397 63.28 295.624 63.72 296.837 63.72C297.677 63.72 298.357 63.4867 298.877 63.02C299.397 62.5533 299.657 61.96 299.657 61.24C299.657 60.5467 299.404 59.9733 298.897 59.52C298.404 59.0533 297.77 58.82 296.997 58.82C296.01 58.82 295.17 59.1667 294.477 59.86L292.857 58.62L293.677 51.22H301.397V53.72H295.717L295.337 56.86C295.977 56.58 296.67 56.44 297.417 56.44Z" fill="white" fill-opacity="0.6"/>
<circle cx="397.5" cy="39.5" r="3.5" fill="#535353"/>
<path d="M411.72 36.588H413.76C414.405 36.588 414.893 36.772 415.224 37.14C415.56 37.5027 415.728 37.9427 415.728 38.46C415.728 38.972 415.555 39.4093 415.208 39.772C414.867 40.1293 414.357 40.308 413.68 40.308H412.64V42.5H411.72V36.588ZM412.64 39.46H413.704C414.045 39.46 414.312 39.364 414.504 39.172C414.696 38.9747 414.792 38.732 414.792 38.444C414.792 38.156 414.704 37.9187 414.528 37.732C414.352 37.5453 414.109 37.452 413.8 37.452H412.64V39.46ZM417.393 42.5H416.513V38.188H417.353V38.804C417.609 38.3187 418.017 38.076 418.577 38.076C418.759 38.076 418.929 38.1 419.089 38.148L419.009 39.004C418.865 38.9507 418.708 38.924 418.537 38.924C418.191 38.924 417.913 39.0413 417.705 39.276C417.497 39.5107 417.393 39.8493 417.393 40.292V42.5ZM423.585 40.26C423.585 40.3987 423.574 40.54 423.553 40.684H420.185C420.249 41.0307 420.401 41.3053 420.641 41.508C420.886 41.7107 421.212 41.812 421.617 41.812C421.862 41.812 422.118 41.7693 422.385 41.684C422.657 41.5987 422.889 41.4867 423.081 41.348L423.449 41.996C422.91 42.396 422.289 42.596 421.585 42.596C420.828 42.596 420.252 42.3747 419.857 41.932C419.468 41.4893 419.273 40.956 419.273 40.332C419.273 39.6813 419.476 39.1453 419.881 38.724C420.292 38.2973 420.822 38.084 421.473 38.084C422.097 38.084 422.604 38.2787 422.993 38.668C423.388 39.0627 423.585 39.5933 423.585 40.26ZM421.473 38.844C421.142 38.844 420.86 38.948 420.625 39.156C420.396 39.3587 420.249 39.628 420.185 39.964H422.697C422.66 39.628 422.526 39.3587 422.297 39.156C422.073 38.948 421.798 38.844 421.473 38.844ZM425.992 41.268L427.224 38.188H428.192L426.304 42.492H425.664L423.776 38.188H424.752L425.992 41.268ZM429.313 37.62C429.143 37.62 428.999 37.564 428.881 37.452C428.764 37.3347 428.705 37.1907 428.705 37.02C428.705 36.8547 428.764 36.716 428.881 36.604C428.999 36.492 429.143 36.436 429.313 36.436C429.479 36.436 429.617 36.492 429.729 36.604C429.841 36.716 429.897 36.8547 429.897 37.02C429.897 37.1907 429.841 37.3347 429.729 37.452C429.617 37.564 429.479 37.62 429.313 37.62ZM429.737 38.188V42.5H428.857V38.188H429.737ZM430.617 40.34C430.617 39.716 430.83 39.1827 431.257 38.74C431.689 38.2973 432.235 38.076 432.897 38.076C433.558 38.076 434.102 38.2973 434.529 38.74C434.961 39.1773 435.177 39.7107 435.177 40.34C435.177 40.98 434.961 41.5187 434.529 41.956C434.107 42.3933 433.563 42.612 432.897 42.612C432.235 42.612 431.689 42.3933 431.257 41.956C430.83 41.5133 430.617 40.9747 430.617 40.34ZM434.289 40.34C434.289 39.9453 434.153 39.6067 433.881 39.324C433.619 39.036 433.291 38.892 432.897 38.892C432.507 38.892 432.177 39.036 431.905 39.324C431.638 39.6067 431.505 39.9453 431.505 40.34C431.505 40.74 431.638 41.0813 431.905 41.364C432.177 41.6467 432.507 41.788 432.897 41.788C433.286 41.788 433.614 41.6467 433.881 41.364C434.153 41.0813 434.289 40.74 434.289 40.34ZM437.892 42.604C437.316 42.604 436.858 42.436 436.516 42.1C436.175 41.764 436.004 41.308 436.004 40.732V38.188H436.884V40.724C436.884 41.0493 436.972 41.308 437.148 41.5C437.33 41.692 437.578 41.788 437.892 41.788C438.212 41.788 438.46 41.6947 438.636 41.508C438.812 41.3213 438.9 41.06 438.9 40.724V38.188H439.788V40.732C439.788 41.3187 439.62 41.7773 439.284 42.108C438.948 42.4387 438.484 42.604 437.892 42.604ZM442.137 42.604C441.796 42.604 441.478 42.5267 441.185 42.372C440.892 42.2173 440.657 41.9933 440.481 41.7L441.049 41.188C441.177 41.396 441.34 41.5587 441.537 41.676C441.74 41.788 441.945 41.844 442.153 41.844C442.361 41.844 442.532 41.7933 442.665 41.692C442.798 41.5853 442.865 41.4573 442.865 41.308C442.865 41.0947 442.742 40.9293 442.497 40.812C442.433 40.7747 442.26 40.7027 441.977 40.596C441.689 40.4733 441.508 40.3907 441.433 40.348C440.974 40.108 440.745 39.7533 440.745 39.284C440.745 38.9267 440.878 38.6307 441.145 38.396C441.422 38.1613 441.78 38.044 442.217 38.044C442.83 38.044 443.302 38.2653 443.633 38.708L443.121 39.252C442.865 38.9373 442.55 38.78 442.177 38.78C442.001 38.78 441.86 38.8253 441.753 38.916C441.652 39.0067 441.601 39.1187 441.601 39.252C441.601 39.4653 441.721 39.6227 441.961 39.724L442.401 39.908C442.684 40.0253 442.886 40.116 443.009 40.18C443.5 40.436 443.745 40.7987 443.745 41.268C443.745 41.6467 443.596 41.964 443.297 42.22C442.998 42.476 442.612 42.604 442.137 42.604ZM449.16 40.06L447.704 41.652H450.144V42.5H446.4V41.732L448.28 39.732L448.728 39.236C448.84 39.108 448.938 38.9507 449.024 38.764C449.114 38.5773 449.16 38.4093 449.16 38.26C449.16 37.9933 449.064 37.7747 448.872 37.604C448.685 37.428 448.45 37.34 448.168 37.34C447.709 37.34 447.242 37.5613 446.768 38.004L446.264 37.348C446.85 36.772 447.498 36.484 448.208 36.484C448.752 36.484 449.197 36.6493 449.544 36.98C449.896 37.3107 450.072 37.74 450.072 38.268C450.072 38.8067 449.768 39.404 449.16 40.06ZM453.059 42.596C452.424 42.596 451.907 42.436 451.507 42.116C451.107 41.796 450.907 41.3907 450.907 40.9C450.907 40.5693 451.011 40.2653 451.219 39.988C451.427 39.7053 451.704 39.5 452.051 39.372V39.356C451.774 39.2227 451.555 39.0413 451.395 38.812C451.235 38.5827 451.155 38.3267 451.155 38.044C451.155 37.5907 451.331 37.2173 451.683 36.924C452.03 36.6307 452.488 36.484 453.059 36.484C453.624 36.484 454.078 36.6307 454.419 36.924C454.771 37.2173 454.947 37.5907 454.947 38.044C454.947 38.3267 454.867 38.5853 454.707 38.82C454.547 39.0493 454.326 39.228 454.043 39.356V39.38C454.395 39.5027 454.675 39.7027 454.883 39.98C455.091 40.2573 455.195 40.564 455.195 40.9C455.195 41.3907 454.995 41.796 454.595 42.116C454.206 42.436 453.694 42.596 453.059 42.596ZM453.795 38.764C453.982 38.5987 454.075 38.388 454.075 38.132C454.075 37.876 453.979 37.6653 453.787 37.5C453.6 37.3347 453.355 37.252 453.051 37.252C452.742 37.252 452.491 37.3347 452.299 37.5C452.107 37.6653 452.011 37.876 452.011 38.132C452.011 38.388 452.107 38.5987 452.299 38.764C452.491 38.9293 452.742 39.012 453.051 39.012C453.36 39.012 453.608 38.9293 453.795 38.764ZM453.059 41.788C453.416 41.788 453.71 41.6947 453.939 41.508C454.168 41.316 454.283 41.0733 454.283 40.78C454.283 40.492 454.168 40.2573 453.939 40.076C453.715 39.8947 453.419 39.804 453.051 39.804C452.683 39.804 452.384 39.8947 452.155 40.076C451.931 40.2573 451.819 40.492 451.819 40.78C451.819 41.0733 451.934 41.316 452.163 41.508C452.392 41.6947 452.691 41.788 453.059 41.788ZM461.443 38.788V36.436H462.331V42.5H461.459V41.9C461.086 42.3693 460.603 42.604 460.011 42.604C459.387 42.604 458.872 42.388 458.467 41.956C458.056 41.5133 457.851 40.9747 457.851 40.34C457.851 39.7107 458.056 39.1773 458.467 38.74C458.872 38.3027 459.384 38.084 460.003 38.084C460.574 38.084 461.054 38.3187 461.443 38.788ZM461.507 40.34C461.507 39.9347 461.379 39.5933 461.123 39.316C460.867 39.0333 460.534 38.892 460.123 38.892C459.712 38.892 459.379 39.0333 459.123 39.316C458.867 39.5933 458.739 39.9347 458.739 40.34C458.739 40.756 458.867 41.1027 459.123 41.38C459.379 41.6573 459.712 41.796 460.123 41.796C460.534 41.796 460.867 41.6573 461.123 41.38C461.379 41.1027 461.507 40.756 461.507 40.34ZM466.834 38.788V38.188H467.682V42.5H466.834V41.908C466.445 42.372 465.954 42.604 465.362 42.604C464.738 42.604 464.224 42.3853 463.818 41.948C463.413 41.5107 463.21 40.9667 463.21 40.316C463.21 39.6707 463.413 39.1373 463.818 38.716C464.224 38.2947 464.738 38.084 465.362 38.084C465.954 38.084 466.445 38.3187 466.834 38.788ZM465.482 41.796C465.882 41.796 466.216 41.6547 466.482 41.372C466.744 41.0947 466.874 40.7507 466.874 40.34C466.874 39.9347 466.744 39.5933 466.482 39.316C466.216 39.0333 465.882 38.892 465.482 38.892C465.072 38.892 464.738 39.0333 464.482 39.316C464.226 39.5933 464.098 39.9373 464.098 40.348C464.098 40.7587 464.226 41.1027 464.482 41.38C464.738 41.6573 465.072 41.796 465.482 41.796ZM470.626 41.3L471.73 38.188H472.698L470.914 42.892C470.722 43.3987 470.498 43.764 470.242 43.988C469.986 44.2173 469.674 44.332 469.306 44.332C469.002 44.332 468.757 44.2707 468.57 44.148L468.698 43.388C468.906 43.4787 469.085 43.524 469.234 43.524C469.581 43.524 469.863 43.2787 470.082 42.788L470.218 42.468L468.346 38.188H469.362L470.626 41.3ZM474.481 42.604C474.139 42.604 473.822 42.5267 473.529 42.372C473.235 42.2173 473.001 41.9933 472.825 41.7L473.393 41.188C473.521 41.396 473.683 41.5587 473.881 41.676C474.083 41.788 474.289 41.844 474.497 41.844C474.705 41.844 474.875 41.7933 475.009 41.692C475.142 41.5853 475.209 41.4573 475.209 41.308C475.209 41.0947 475.086 40.9293 474.841 40.812C474.777 40.7747 474.603 40.7027 474.321 40.596C474.033 40.4733 473.851 40.3907 473.777 40.348C473.318 40.108 473.089 39.7533 473.089 39.284C473.089 38.9267 473.222 38.6307 473.489 38.396C473.766 38.1613 474.123 38.044 474.561 38.044C475.174 38.044 475.646 38.2653 475.977 38.708L475.465 39.252C475.209 38.9373 474.894 38.78 474.521 38.78C474.345 38.78 474.203 38.8253 474.097 38.916C473.995 39.0067 473.945 39.1187 473.945 39.252C473.945 39.4653 474.065 39.6227 474.305 39.724L474.745 39.908C475.027 40.0253 475.23 40.116 475.353 40.18C475.843 40.436 476.089 40.7987 476.089 41.268C476.089 41.6467 475.939 41.964 475.641 42.22C475.342 42.476 474.955 42.604 474.481 42.604Z" fill="white" fill-opacity="0.42"/>
<circle cx="397.5" cy="56.5" r="3.5" fill="#0784B5"/>
<path d="M412.824 59.596C412.115 59.596 411.533 59.3453 411.08 58.844L411.6 58.156C411.92 58.5293 412.317 58.716 412.792 58.716C413.144 58.716 413.424 58.604 413.632 58.38C413.84 58.1507 413.944 57.8387 413.944 57.444V53.588H414.872V57.484C414.872 58.1667 414.68 58.6893 414.296 59.052C413.917 59.4147 413.427 59.596 412.824 59.596ZM417.892 59.604C417.316 59.604 416.858 59.436 416.516 59.1C416.175 58.764 416.004 58.308 416.004 57.732V55.188H416.884V57.724C416.884 58.0493 416.972 58.308 417.148 58.5C417.33 58.692 417.578 58.788 417.892 58.788C418.212 58.788 418.46 58.6947 418.636 58.508C418.812 58.3213 418.9 58.06 418.9 57.724V55.188H419.788V57.732C419.788 58.3187 419.62 58.7773 419.284 59.108C418.948 59.4387 418.484 59.604 417.892 59.604ZM421.745 59.5H420.865V55.188H421.729V55.796C421.857 55.572 422.041 55.396 422.281 55.268C422.521 55.14 422.793 55.076 423.097 55.076C423.572 55.076 423.972 55.2307 424.297 55.54C424.628 55.8547 424.793 56.3 424.793 56.876V59.5H423.905V57.124C423.905 56.7347 423.812 56.4333 423.625 56.22C423.438 56.0013 423.188 55.892 422.873 55.892C422.542 55.892 422.27 56.0093 422.057 56.244C421.849 56.4733 421.745 56.772 421.745 57.14V59.5ZM429.281 59.596C428.631 59.596 428.012 59.4013 427.425 59.012L427.833 58.268C428.34 58.588 428.812 58.748 429.249 58.748C429.596 58.748 429.871 58.6653 430.073 58.5C430.276 58.3293 430.377 58.1053 430.377 57.828C430.377 57.5507 430.273 57.3267 430.065 57.156C429.857 56.98 429.588 56.892 429.257 56.892H428.521V56.06H429.225C429.535 56.06 429.785 55.98 429.977 55.82C430.169 55.66 430.265 55.4493 430.265 55.188C430.265 54.932 430.172 54.7267 429.985 54.572C429.799 54.4173 429.564 54.34 429.281 54.34C428.887 54.34 428.468 54.5053 428.025 54.836L427.561 54.188C427.78 53.9693 428.049 53.7987 428.369 53.676C428.695 53.548 429.028 53.484 429.369 53.484C429.897 53.484 430.335 53.6333 430.681 53.932C431.028 54.2307 431.201 54.5987 431.201 55.036C431.201 55.3507 431.108 55.6307 430.921 55.876C430.735 56.116 430.489 56.284 430.185 56.38V56.412C430.548 56.4973 430.831 56.6707 431.033 56.932C431.236 57.188 431.337 57.5 431.337 57.868C431.337 58.3693 431.145 58.7853 430.761 59.116C430.383 59.436 429.889 59.596 429.281 59.596ZM431.75 55.012L433.47 53.588H434.182V59.5H433.27V54.828L432.246 55.66L431.75 55.012ZM440.547 57.7H437.395V56.868H440.547V57.7ZM444.582 59.596C443.872 59.596 443.291 59.3453 442.838 58.844L443.358 58.156C443.678 58.5293 444.075 58.716 444.55 58.716C444.902 58.716 445.182 58.604 445.39 58.38C445.598 58.1507 445.702 57.8387 445.702 57.444V53.588H446.63V57.484C446.63 58.1667 446.438 58.6893 446.054 59.052C445.675 59.4147 445.184 59.596 444.582 59.596ZM449.65 59.604C449.074 59.604 448.615 59.436 448.274 59.1C447.933 58.764 447.762 58.308 447.762 57.732V55.188H448.642V57.724C448.642 58.0493 448.73 58.308 448.906 58.5C449.087 58.692 449.335 58.788 449.65 58.788C449.97 58.788 450.218 58.6947 450.394 58.508C450.57 58.3213 450.658 58.06 450.658 57.724V55.188H451.546V57.732C451.546 58.3187 451.378 58.7773 451.042 59.108C450.706 59.4387 450.242 59.604 449.65 59.604ZM453.503 53.436V59.5H452.623V53.436H453.503ZM458.047 59.596C457.396 59.596 456.778 59.4013 456.191 59.012L456.599 58.268C457.106 58.588 457.578 58.748 458.015 58.748C458.362 58.748 458.636 58.6653 458.839 58.5C459.042 58.3293 459.143 58.1053 459.143 57.828C459.143 57.5507 459.039 57.3267 458.831 57.156C458.623 56.98 458.354 56.892 458.023 56.892H457.287V56.06H457.991C458.3 56.06 458.551 55.98 458.743 55.82C458.935 55.66 459.031 55.4493 459.031 55.188C459.031 54.932 458.938 54.7267 458.751 54.572C458.564 54.4173 458.33 54.34 458.047 54.34C457.652 54.34 457.234 54.5053 456.791 54.836L456.327 54.188C456.546 53.9693 456.815 53.7987 457.135 53.676C457.46 53.548 457.794 53.484 458.135 53.484C458.663 53.484 459.1 53.6333 459.447 53.932C459.794 54.2307 459.967 54.5987 459.967 55.036C459.967 55.3507 459.874 55.6307 459.687 55.876C459.5 56.116 459.255 56.284 458.951 56.38V56.412C459.314 56.4973 459.596 56.6707 459.799 56.932C460.002 57.188 460.103 57.5 460.103 57.868C460.103 58.3693 459.911 58.7853 459.527 59.116C459.148 59.436 458.655 59.596 458.047 59.596ZM464.3 59.332C463.985 59.508 463.628 59.596 463.228 59.596C462.828 59.596 462.471 59.508 462.156 59.332C461.612 59.0173 461.233 58.4573 461.02 57.652C460.94 57.284 460.9 56.9133 460.9 56.54C460.9 56.1613 460.94 55.7933 461.02 55.436C461.1 55.0787 461.236 54.7507 461.428 54.452C461.625 54.1533 461.868 53.9187 462.156 53.748C462.465 53.572 462.823 53.484 463.228 53.484C463.628 53.484 463.985 53.572 464.3 53.748C464.86 54.0573 465.236 54.6173 465.428 55.428C465.62 56.1693 465.62 56.9107 465.428 57.652C465.236 58.4627 464.86 59.0227 464.3 59.332ZM463.228 58.732C463.703 58.732 464.055 58.5293 464.284 58.124C464.519 57.7133 464.636 57.1853 464.636 56.54C464.636 55.9 464.519 55.3747 464.284 54.964C464.049 54.5533 463.697 54.348 463.228 54.348C462.759 54.348 462.407 54.5533 462.172 54.964C461.943 55.3693 461.828 55.8947 461.828 56.54C461.817 57.18 461.929 57.7053 462.164 58.116C462.404 58.5213 462.759 58.7267 463.228 58.732Z" fill="white" fill-opacity="0.42"/>
<path d="M34 86L477 86.2007" stroke="white" stroke-opacity="0.08"/>
<path d="M34 86L128 86.2007" stroke="white"/>
<path d="M63.0703 125.667L476.999 125.867" stroke="url(#paint1_linear_730_1152)"/>
<path d="M63.0703 183.863L476.999 184.064" stroke="url(#paint2_linear_730_1152)"/>
<path d="M63.0703 242.06L476.999 242.26" stroke="url(#paint3_linear_730_1152)"/>
<g opacity="0.92322">
<path d="M62.8711 311.695L87.8489 247.046C89.1262 243.74 92.5649 239.471 95.5229 237.519L124.939 218.104C127.897 216.152 132.678 216.185 135.609 218.178L165.124 238.248C168.055 240.241 172.585 239.947 175.234 237.592L216.205 201.173C218.854 198.819 222.303 199.475 223.902 202.638L255.836 265.828C257.435 268.991 261.503 272.338 264.915 273.297L296.098 282.063C299.509 283.022 303.73 281.315 305.517 278.255L320.715 252.221C322.502 249.16 326.826 246.832 330.365 247.026L361.489 248.732C365.028 248.926 368.221 246.224 368.616 242.701L378.424 155.126C378.819 151.604 382.012 148.585 385.551 148.388L416.074 146.692C419.612 146.496 424.665 144.457 427.349 142.143L469.043 106.201" stroke="url(#paint4_linear_730_1152)" stroke-width="2" stroke-linecap="round" stroke-linejoin="round" stroke-dasharray="8 8"/>
</g>
<path d="M63.0703 302.664L476.999 302.865" stroke="url(#paint5_linear_730_1152)"/>
<path d="M36.9864 128.281C36.4051 128.281 35.9251 128.118 35.5464 127.793L35.7624 127.417C36.1091 127.699 36.5118 127.841 36.9704 127.841C37.3118 127.841 37.6078 127.753 37.8584 127.577C38.1144 127.395 38.3064 127.155 38.4344 126.857C38.5678 126.558 38.6611 126.243 38.7144 125.913C38.7678 125.577 38.7891 125.225 38.7784 124.857H38.7544C38.6638 125.203 38.4611 125.494 38.1464 125.729C37.8371 125.958 37.4851 126.073 37.0904 126.073C36.5784 126.073 36.1411 125.891 35.7784 125.529C35.4264 125.166 35.2504 124.71 35.2504 124.161C35.2504 123.601 35.4318 123.131 35.7944 122.753C36.1571 122.374 36.6211 122.185 37.1864 122.185C37.8531 122.185 38.3624 122.451 38.7144 122.985C39.0664 123.513 39.2424 124.203 39.2424 125.057C39.2424 125.483 39.1971 125.886 39.1064 126.265C39.0211 126.638 38.8904 126.979 38.7144 127.289C38.5438 127.593 38.3091 127.835 38.0104 128.017C37.7118 128.193 37.3704 128.281 36.9864 128.281ZM37.1464 125.633C37.5411 125.633 37.8824 125.489 38.1704 125.201C38.4638 124.907 38.6104 124.555 38.6104 124.145C38.6104 123.745 38.4691 123.39 38.1864 123.081C37.9038 122.777 37.5571 122.625 37.1464 122.625C36.7518 122.625 36.4184 122.771 36.1464 123.065C35.8744 123.353 35.7384 123.715 35.7384 124.153C35.7384 124.579 35.8718 124.934 36.1384 125.217C36.4104 125.494 36.7464 125.633 37.1464 125.633ZM42.3433 128.297C41.9646 128.297 41.6233 128.206 41.3193 128.025C41.0206 127.843 40.7886 127.598 40.6233 127.289C40.3033 126.686 40.1433 126.003 40.1433 125.241C40.1433 124.473 40.3033 123.793 40.6233 123.201C40.7886 122.886 41.0206 122.638 41.3193 122.457C41.6233 122.275 41.9646 122.185 42.3433 122.185C42.7326 122.185 43.074 122.275 43.3673 122.457C43.666 122.638 43.898 122.886 44.0633 123.201C44.3833 123.793 44.5433 124.473 44.5433 125.241C44.5433 126.003 44.3833 126.686 44.0633 127.289C43.898 127.598 43.666 127.843 43.3673 128.025C43.074 128.206 42.7326 128.297 42.3433 128.297ZM41.0873 127.129C41.386 127.603 41.8046 127.841 42.3433 127.841C42.882 127.841 43.3006 127.603 43.5993 127.129C43.898 126.654 44.0473 126.025 44.0473 125.241C44.0473 124.462 43.898 123.835 43.5993 123.361C43.3006 122.881 42.882 122.641 42.3433 122.641C41.8046 122.641 41.386 122.881 41.0873 123.361C40.794 123.83 40.6473 124.457 40.6473 125.241C40.6473 126.025 40.794 126.654 41.0873 127.129ZM50.064 128.201H49.44L47.144 125.433L46.296 126.425V128.201H45.808V122.289H46.296V125.745L49.248 122.289H49.84L47.472 125.081L50.064 128.201Z" fill="#525252"/>
<path d="M37.4106 186.273C36.744 186.273 36.232 186.006 35.8746 185.473C35.5173 184.939 35.3386 184.254 35.3386 183.417C35.3386 183.001 35.384 182.603 35.4746 182.225C35.5706 181.846 35.7093 181.505 35.8906 181.201C36.0773 180.891 36.3226 180.646 36.6266 180.465C36.9306 180.278 37.2746 180.185 37.6586 180.185C38.2186 180.185 38.6933 180.347 39.0826 180.673L38.8586 181.041C38.5173 180.763 38.1253 180.625 37.6826 180.625C37.352 180.625 37.056 180.715 36.7946 180.897C36.5333 181.078 36.3306 181.323 36.1866 181.633C35.9093 182.23 35.7866 182.883 35.8186 183.593H35.8426C35.9333 183.251 36.1333 182.963 36.4426 182.729C36.752 182.499 37.104 182.385 37.4986 182.385C38.0213 182.385 38.4586 182.566 38.8106 182.929C39.1626 183.291 39.3386 183.75 39.3386 184.305C39.3386 184.865 39.1573 185.334 38.7946 185.713C38.4373 186.086 37.976 186.273 37.4106 186.273ZM37.4426 185.825C37.8373 185.825 38.1706 185.681 38.4426 185.393C38.72 185.099 38.8586 184.737 38.8586 184.305C38.8586 183.883 38.7226 183.531 38.4506 183.249C38.184 182.966 37.8506 182.825 37.4506 182.825C37.0506 182.825 36.704 182.971 36.4106 183.265C36.1226 183.553 35.9786 183.902 35.9786 184.313C35.9786 184.713 36.12 185.067 36.4026 185.377C36.6853 185.675 37.032 185.825 37.4426 185.825ZM42.3433 186.297C41.9646 186.297 41.6233 186.206 41.3193 186.025C41.0206 185.843 40.7886 185.598 40.6233 185.289C40.3033 184.686 40.1433 184.003 40.1433 183.241C40.1433 182.473 40.3033 181.793 40.6233 181.201C40.7886 180.886 41.0206 180.638 41.3193 180.457C41.6233 180.275 41.9646 180.185 42.3433 180.185C42.7326 180.185 43.074 180.275 43.3673 180.457C43.666 180.638 43.898 180.886 44.0633 181.201C44.3833 181.793 44.5433 182.473 44.5433 183.241C44.5433 184.003 44.3833 184.686 44.0633 185.289C43.898 185.598 43.666 185.843 43.3673 186.025C43.074 186.206 42.7326 186.297 42.3433 186.297ZM41.0873 185.129C41.386 185.603 41.8046 185.841 42.3433 185.841C42.882 185.841 43.3006 185.603 43.5993 185.129C43.898 184.654 44.0473 184.025 44.0473 183.241C44.0473 182.462 43.898 181.835 43.5993 181.361C43.3006 180.881 42.882 180.641 42.3433 180.641C41.8046 180.641 41.386 180.881 41.0873 181.361C40.794 181.83 40.6473 182.457 40.6473 183.241C40.6473 184.025 40.794 184.654 41.0873 185.129ZM50.064 186.201H49.44L47.144 183.433L46.296 184.425V186.201H45.808V180.289H46.296V183.745L49.248 180.289H49.84L47.472 183.081L50.064 186.201Z" fill="#525252"/>
<path d="M39.5673 242.177H40.2313V242.625H39.5673V244.201H39.0793V242.625H36.2233L36.1433 242.321L39.2713 238.289H39.5673V242.177ZM39.0793 239.257L36.8073 242.177H39.0793V239.257ZM42.7793 240.409C43.3179 240.409 43.7659 240.585 44.1233 240.937C44.4806 241.289 44.6593 241.75 44.6593 242.321C44.6593 242.907 44.4673 243.385 44.0833 243.753C43.7046 244.115 43.2246 244.297 42.6432 244.297C41.9979 244.297 41.4059 244.054 40.8673 243.569L41.1313 243.201C41.6059 243.627 42.1046 243.841 42.6273 243.841C43.0699 243.841 43.4379 243.699 43.7313 243.417C44.0193 243.139 44.1633 242.774 44.1633 242.321C44.1633 241.883 44.0299 241.531 43.7633 241.265C43.4966 240.998 43.1553 240.865 42.7393 240.865C42.2379 240.865 41.8193 241.073 41.4833 241.489L41.1313 241.313L41.4353 238.289H44.2593V238.729H41.8433L41.6193 240.801C41.9286 240.539 42.3153 240.409 42.7793 240.409ZM50.064 244.201H49.44L47.144 241.433L46.296 242.425V244.201H45.808V238.289H46.296V241.745L49.248 238.289H49.84L47.472 241.081L50.064 244.201Z" fill="#525252"/>
<path d="M37.3194 305.297C36.6954 305.297 36.122 305.097 35.5994 304.697L35.8474 304.305C36.322 304.662 36.8127 304.841 37.3194 304.841C37.746 304.841 38.0874 304.729 38.3434 304.505C38.6047 304.275 38.7354 303.977 38.7354 303.609C38.7354 303.241 38.61 302.947 38.3594 302.729C38.1087 302.51 37.7487 302.401 37.2794 302.401H36.6474V301.961H37.2314C37.6847 301.961 38.0287 301.843 38.2634 301.609C38.498 301.374 38.6154 301.097 38.6154 300.777C38.6154 300.441 38.498 300.169 38.2634 299.961C38.034 299.747 37.7354 299.641 37.3674 299.641C36.834 299.641 36.3727 299.835 35.9834 300.225L35.7114 299.889C35.9087 299.675 36.1567 299.505 36.4554 299.377C36.7594 299.249 37.0687 299.185 37.3834 299.185C37.9007 299.185 38.3167 299.334 38.6314 299.633C38.9514 299.931 39.1114 300.299 39.1114 300.737C39.1114 301.067 39.018 301.361 38.8314 301.617C38.65 301.867 38.4074 302.041 38.1034 302.137V302.169C38.45 302.249 38.7247 302.419 38.9274 302.681C39.13 302.942 39.2314 303.254 39.2314 303.617C39.2314 304.102 39.0527 304.505 38.6954 304.825C38.338 305.139 37.8794 305.297 37.3194 305.297ZM42.3433 305.297C41.9646 305.297 41.6233 305.206 41.3193 305.025C41.0206 304.843 40.7886 304.598 40.6233 304.289C40.3033 303.686 40.1433 303.003 40.1433 302.241C40.1433 301.473 40.3033 300.793 40.6233 300.201C40.7886 299.886 41.0206 299.638 41.3193 299.457C41.6233 299.275 41.9646 299.185 42.3433 299.185C42.7326 299.185 43.074 299.275 43.3673 299.457C43.666 299.638 43.898 299.886 44.0633 300.201C44.3833 300.793 44.5433 301.473 44.5433 302.241C44.5433 303.003 44.3833 303.686 44.0633 304.289C43.898 304.598 43.666 304.843 43.3673 305.025C43.074 305.206 42.7326 305.297 42.3433 305.297ZM41.0873 304.129C41.386 304.603 41.8046 304.841 42.3433 304.841C42.882 304.841 43.3006 304.603 43.5993 304.129C43.898 303.654 44.0473 303.025 44.0473 302.241C44.0473 301.462 43.898 300.835 43.5993 300.361C43.3006 299.881 42.882 299.641 42.3433 299.641C41.8046 299.641 41.386 299.881 41.0873 300.361C40.794 300.83 40.6473 301.457 40.6473 302.241C40.6473 303.025 40.794 303.654 41.0873 304.129ZM50.064 305.201H49.44L47.144 302.433L46.296 303.425V305.201H45.808V299.289H46.296V302.745L49.248 299.289H49.84L47.472 302.081L50.064 305.201Z" fill="#525252"/>
<path d="M66 313.201L69.8056 313.187C73.6111 313.173 81.2222 313.144 88.8333 306.45C96.4444 299.756 104.056 286.395 111.667 274.551C119.278 262.707 126.889 252.38 134.5 247.513C142.111 242.646 149.722 243.24 157.333 251.008C164.944 258.776 172.556 273.718 180.167 277.547C187.778 281.375 195.389 274.091 203 261.234C210.611 248.376 218.222 229.947 225.833 228.511C233.444 227.076 241.056 242.635 248.667 244.355C256.278 246.075 263.889 233.955 271.5 226.402C279.111 218.849 286.722 215.863 294.333 206.909C301.944 197.954 309.556 183.032 317.167 175.369C324.778 167.706 332.389 167.303 340 164.832C347.611 162.361 355.222 157.822 362.833 165.052C370.444 172.281 378.056 191.279 385.667 196.574C393.278 201.869 400.889 193.462 408.5 189.599C416.111 185.735 423.722 186.415 431.333 184.675C438.944 182.934 446.556 178.774 454.167 168.459C461.778 158.143 469.389 141.672 473.194 133.436L477 125.201" stroke="#0784B5" stroke-width="2"/>
<g filter="url(#filter0_d_730_1152)">
<circle cx="318" cy="175" r="6" fill="#0784B5"/>
</g>
<rect x="0.5" y="0.5" width="516" height="413" rx="24.5" stroke="url(#paint6_linear_730_1152)"/>
<defs>
<filter id="filter0_d_730_1152" x="302" y="159" width="32" height="32" filterUnits="userSpaceOnUse" color-interpolation-filters="sRGB">
<feFlood flood-opacity="0" result="BackgroundImageFix"/>
<feColorMatrix in="SourceAlpha" type="matrix" values="0 0 0 0 0 0 0 0 0 0 0 0 0 0 0 0 0 0 127 0" result="hardAlpha"/>
<feOffset/>
<feGaussianBlur stdDeviation="5"/>
<feComposite in2="hardAlpha" operator="out"/>
<feColorMatrix type="matrix" values="0 0 0 0 1 0 0 0 0 1 0 0 0 0 1 0 0 0 0.2 0"/>
<feBlend mode="normal" in2="BackgroundImageFix" result="effect1_dropShadow_730_1152"/>
<feBlend mode="normal" in="SourceGraphic" in2="effect1_dropShadow_730_1152" result="shape"/>
</filter>
<radialGradient id="paint0_radial_730_1152" cx="0" cy="0" r="1" gradientUnits="userSpaceOnUse" gradientTransform="translate(136.293 59.1461) scale(334.096 307.285)">
<stop stop-color="#1A1A1A"/>
<stop offset="0.5" stop-color="#151515"/>
<stop offset="1" stop-color="#101010"/>
</radialGradient>
<linearGradient id="paint1_linear_730_1152" x1="220.063" y1="149.146" x2="446.193" y2="149.146" gradientUnits="userSpaceOnUse">
<stop stop-color="white" stop-opacity="0.08"/>
<stop offset="0.5" stop-color="white" stop-opacity="0.04"/>
<stop offset="1" stop-color="white" stop-opacity="0"/>
</linearGradient>
<linearGradient id="paint2_linear_730_1152" x1="220.063" y1="207.343" x2="382.064" y2="207.343" gradientUnits="userSpaceOnUse">
<stop stop-color="white" stop-opacity="0.07"/>
<stop offset="0.5" stop-color="white" stop-opacity="0.035"/>
<stop offset="1" stop-color="white" stop-opacity="0"/>
</linearGradient>
<linearGradient id="paint3_linear_730_1152" x1="220.063" y1="265.539" x2="343.47" y2="265.539" gradientUnits="userSpaceOnUse">
<stop stop-color="white" stop-opacity="0.06"/>
<stop offset="0.5" stop-color="white" stop-opacity="0.03"/>
<stop offset="1" stop-color="white" stop-opacity="0"/>
</linearGradient>
<linearGradient id="paint4_linear_730_1152" x1="87.3096" y1="281.254" x2="453.136" y2="107.173" gradientUnits="userSpaceOnUse">
<stop offset="0.18" stop-color="white" stop-opacity="0.1"/>
<stop offset="0.59" stop-color="white" stop-opacity="0.2"/>
<stop offset="1" stop-color="white" stop-opacity="0.3"/>
</linearGradient>
<linearGradient id="paint5_linear_730_1152" x1="220.063" y1="326.143" x2="304.581" y2="326.143" gradientUnits="userSpaceOnUse">
<stop stop-color="white" stop-opacity="0.05"/>
<stop offset="0.5" stop-color="white" stop-opacity="0.025"/>
<stop offset="1" stop-color="white" stop-opacity="0"/>
</linearGradient>
<linearGradient id="paint6_linear_730_1152" x1="142.994" y1="169.02" x2="59.3457" y2="-4.57674" gradientUnits="userSpaceOnUse">
<stop stop-color="white" stop-opacity="0"/>
<stop offset="0.17" stop-color="white" stop-opacity="0.05"/>
<stop offset="0.33" stop-color="white" stop-opacity="0.1"/>
</linearGradient>
</defs>
</svg>
