<svg width="453" height="282" viewBox="0 0 453 282" fill="none" xmlns="http://www.w3.org/2000/svg">
<rect x="0.434236" y="0.434236" width="452.132" height="281.132" rx="21.2776" fill="url(#paint0_radial_860_1495)" stroke="url(#paint1_linear_860_1495)" stroke-width="0.868472"/>
<path d="M287.4 36.9H288.47L290.95 40.26L293.44 36.9H294.51V44H293.33V38.91L290.96 42.13L288.57 38.9V44H287.4V36.9ZM300.14 43.35C299.64 43.85 299.02 44.1 298.28 44.1C297.54 44.1 296.917 43.85 296.41 43.35C295.91 42.8433 295.66 42.2267 295.66 41.5C295.66 40.7733 295.91 40.16 296.41 39.66C296.917 39.1533 297.54 38.9 298.28 38.9C299.02 38.9 299.64 39.1533 300.14 39.66C300.647 40.16 300.9 40.7733 300.9 41.5C300.9 42.2267 300.647 42.8433 300.14 43.35ZM298.28 43.08C298.714 43.08 299.07 42.93 299.35 42.63C299.637 42.3233 299.78 41.9467 299.78 41.5C299.78 41.0533 299.637 40.68 299.35 40.38C299.07 40.0733 298.714 39.92 298.28 39.92C297.84 39.92 297.477 40.0733 297.19 40.38C296.91 40.68 296.77 41.0533 296.77 41.5C296.77 41.9467 296.91 42.3233 297.19 42.63C297.477 42.93 297.84 43.08 298.28 43.08ZM302.007 44V39H303.107V39.68C303.42 39.16 303.927 38.9 304.627 38.9C305.207 38.9 305.67 39.09 306.017 39.47C306.363 39.85 306.537 40.3567 306.537 40.99V44H305.437V41.17C305.437 40.77 305.343 40.46 305.157 40.24C304.97 40.0133 304.717 39.9 304.397 39.9C304.017 39.9 303.707 40.0433 303.467 40.33C303.227 40.6167 303.107 41.02 303.107 41.54V44H302.007ZM309.234 43.75L308.164 45.47H307.484L308.174 44C308.034 43.94 307.917 43.84 307.824 43.7C307.731 43.5533 307.684 43.39 307.684 43.21C307.684 42.97 307.767 42.7667 307.934 42.6C308.101 42.4267 308.304 42.34 308.544 42.34C308.784 42.34 308.987 42.4267 309.154 42.6C309.321 42.7667 309.404 42.97 309.404 43.21C309.404 43.4033 309.347 43.5833 309.234 43.75ZM315.213 44.1C314.5 44.1 313.893 43.8867 313.393 43.46C312.9 43.0333 312.647 42.47 312.633 41.77H313.733C313.76 42.15 313.91 42.4533 314.183 42.68C314.463 42.9067 314.807 43.02 315.213 43.02C315.58 43.02 315.88 42.9233 316.113 42.73C316.353 42.5367 316.477 42.27 316.483 41.93C316.483 41.5567 316.36 41.2767 316.113 41.09C315.873 40.8967 315.54 40.8 315.113 40.8H314.553V39.86H315.113C315.467 39.86 315.747 39.7667 315.953 39.58C316.167 39.3933 316.277 39.15 316.283 38.85C316.283 38.5567 316.177 38.32 315.963 38.14C315.75 37.9533 315.487 37.86 315.173 37.86C314.8 37.86 314.49 37.97 314.243 38.19C313.997 38.4033 313.873 38.6967 313.873 39.07H312.763C312.763 38.3767 312.997 37.8233 313.463 37.41C313.937 36.99 314.507 36.78 315.173 36.78C315.833 36.78 316.367 36.9667 316.773 37.34C317.187 37.7133 317.393 38.1933 317.393 38.78C317.393 39.1067 317.31 39.41 317.143 39.69C316.977 39.9633 316.77 40.1733 316.523 40.32C316.85 40.46 317.11 40.6767 317.303 40.97C317.497 41.2633 317.593 41.6067 317.593 42C317.593 42.62 317.37 43.1267 316.923 43.52C316.483 43.9067 315.913 44.1 315.213 44.1ZM319.553 44V37.99H318.123L318.963 36.9H320.653V44H319.553ZM325.981 44.12C325.361 44.12 324.841 43.94 324.421 43.58C324.007 43.2133 323.801 42.6967 323.801 42.03H324.961C324.961 42.3433 325.061 42.59 325.261 42.77C325.461 42.9433 325.701 43.03 325.981 43.03C326.267 43.03 326.504 42.94 326.691 42.76C326.884 42.58 326.981 42.31 326.981 41.95V36.9H328.151V42.05C328.151 42.7433 327.944 43.2633 327.531 43.61C327.124 43.95 326.607 44.12 325.981 44.12ZM331.664 44.1C330.984 44.1 330.411 43.8467 329.944 43.34C329.484 42.8333 329.254 42.22 329.254 41.5C329.254 40.78 329.484 40.1667 329.944 39.66C330.411 39.1533 330.984 38.9 331.664 38.9C332.004 38.9 332.317 38.9767 332.604 39.13C332.891 39.2767 333.111 39.4567 333.264 39.67V39H334.364V44H333.264V43.33C333.111 43.5433 332.891 43.7267 332.604 43.88C332.317 44.0267 332.004 44.1 331.664 44.1ZM330.794 42.64C331.074 42.9467 331.431 43.1 331.864 43.1C332.297 43.1 332.654 42.9467 332.934 42.64C333.214 42.3333 333.354 41.9533 333.354 41.5C333.354 41.0467 333.214 40.6667 332.934 40.36C332.654 40.0533 332.297 39.9 331.864 39.9C331.431 39.9 331.074 40.0533 330.794 40.36C330.514 40.6667 330.374 41.0467 330.374 41.5C330.374 41.9533 330.514 42.3333 330.794 42.64ZM335.854 44V39H336.954V39.68C337.268 39.16 337.774 38.9 338.474 38.9C339.054 38.9 339.518 39.09 339.864 39.47C340.211 39.85 340.384 40.3567 340.384 40.99V44H339.284V41.17C339.284 40.77 339.191 40.46 339.004 40.24C338.818 40.0133 338.564 39.9 338.244 39.9C337.864 39.9 337.554 40.0433 337.314 40.33C337.074 40.6167 336.954 41.02 336.954 41.54V44H335.854ZM348.565 42.92V44H343.865V43.6C343.865 43.3467 343.902 43.1067 343.975 42.88C344.055 42.6467 344.139 42.4533 344.225 42.3C344.312 42.1467 344.455 41.9767 344.655 41.79C344.855 41.5967 345.009 41.46 345.115 41.38C345.222 41.2933 345.409 41.1533 345.675 40.96C345.949 40.7667 346.122 40.6433 346.195 40.59C346.615 40.2833 346.919 40.0133 347.105 39.78C347.292 39.5467 347.385 39.2667 347.385 38.94C347.385 38.6133 347.285 38.3533 347.085 38.16C346.885 37.96 346.609 37.86 346.255 37.86C345.889 37.86 345.585 37.97 345.345 38.19C345.105 38.4033 344.982 38.6967 344.975 39.07H343.865C343.865 38.3967 344.092 37.8467 344.545 37.42C345.005 36.9933 345.579 36.78 346.265 36.78C346.899 36.78 347.429 36.9667 347.855 37.34C348.282 37.7133 348.495 38.2367 348.495 38.91C348.495 39.4433 348.372 39.8933 348.125 40.26C347.885 40.62 347.485 41 346.925 41.4C346.839 41.4667 346.679 41.58 346.445 41.74C346.212 41.9 346.039 42.0233 345.925 42.11C345.819 42.1967 345.702 42.3167 345.575 42.47C345.449 42.6167 345.362 42.7667 345.315 42.92H348.565ZM354.04 43.34C353.56 43.8467 352.943 44.1 352.19 44.1C351.436 44.1 350.82 43.8467 350.34 43.34C349.86 42.8267 349.62 42.17 349.62 41.37V39.51C349.62 38.71 349.86 38.0567 350.34 37.55C350.82 37.0367 351.436 36.78 352.19 36.78C352.943 36.78 353.56 37.0367 354.04 37.55C354.526 38.0567 354.77 38.71 354.77 39.51V41.37C354.77 42.17 354.526 42.8267 354.04 43.34ZM352.19 43.02C352.636 43.02 352.993 42.8733 353.26 42.58C353.533 42.2867 353.67 41.8833 353.67 41.37V39.51C353.67 38.9967 353.533 38.5933 353.26 38.3C352.993 38.0067 352.636 37.86 352.19 37.86C351.75 37.86 351.393 38.0067 351.12 38.3C350.853 38.5933 350.72 38.9967 350.72 39.51V41.37C350.72 41.8833 350.853 42.2867 351.12 42.58C351.393 42.8733 351.75 43.02 352.19 43.02ZM360.479 42.92V44H355.779V43.6C355.779 43.3467 355.816 43.1067 355.889 42.88C355.969 42.6467 356.053 42.4533 356.139 42.3C356.226 42.1467 356.369 41.9767 356.569 41.79C356.769 41.5967 356.923 41.46 357.029 41.38C357.136 41.2933 357.323 41.1533 357.589 40.96C357.863 40.7667 358.036 40.6433 358.109 40.59C358.529 40.2833 358.833 40.0133 359.019 39.78C359.206 39.5467 359.299 39.2667 359.299 38.94C359.299 38.6133 359.199 38.3533 358.999 38.16C358.799 37.96 358.523 37.86 358.169 37.86C357.803 37.86 357.499 37.97 357.259 38.19C357.019 38.4033 356.896 38.6967 356.889 39.07H355.779C355.779 38.3967 356.006 37.8467 356.459 37.42C356.919 36.9933 357.493 36.78 358.179 36.78C358.813 36.78 359.343 36.9667 359.769 37.34C360.196 37.7133 360.409 38.2367 360.409 38.91C360.409 39.4433 360.286 39.8933 360.039 40.26C359.799 40.62 359.399 41 358.839 41.4C358.753 41.4667 358.593 41.58 358.359 41.74C358.126 41.9 357.953 42.0233 357.839 42.11C357.733 42.1967 357.616 42.3167 357.489 42.47C357.363 42.6167 357.276 42.7667 357.229 42.92H360.479ZM363.954 44.1C363.24 44.1 362.634 43.8867 362.134 43.46C361.64 43.0333 361.387 42.47 361.374 41.77H362.474C362.5 42.15 362.65 42.4533 362.924 42.68C363.204 42.9067 363.547 43.02 363.954 43.02C364.32 43.02 364.62 42.9233 364.854 42.73C365.094 42.5367 365.217 42.27 365.224 41.93C365.224 41.5567 365.1 41.2767 364.854 41.09C364.614 40.8967 364.28 40.8 363.854 40.8H363.294V39.86H363.854C364.207 39.86 364.487 39.7667 364.694 39.58C364.907 39.3933 365.017 39.15 365.024 38.85C365.024 38.5567 364.917 38.32 364.704 38.14C364.49 37.9533 364.227 37.86 363.914 37.86C363.54 37.86 363.23 37.97 362.984 38.19C362.737 38.4033 362.614 38.6967 362.614 39.07H361.504C361.504 38.3767 361.737 37.8233 362.204 37.41C362.677 36.99 363.247 36.78 363.914 36.78C364.574 36.78 365.107 36.9667 365.514 37.34C365.927 37.7133 366.134 38.1933 366.134 38.78C366.134 39.1067 366.05 39.41 365.884 39.69C365.717 39.9633 365.51 40.1733 365.264 40.32C365.59 40.46 365.85 40.6767 366.044 40.97C366.237 41.2633 366.334 41.6067 366.334 42C366.334 42.62 366.11 43.1267 365.664 43.52C365.224 43.9067 364.654 44.1 363.954 44.1ZM368.843 43.75L367.773 45.47H367.093L367.783 44C367.643 43.94 367.527 43.84 367.433 43.7C367.34 43.5533 367.293 43.39 367.293 43.21C367.293 42.97 367.377 42.7667 367.543 42.6C367.71 42.4267 367.913 42.34 368.153 42.34C368.393 42.34 368.597 42.4267 368.763 42.6C368.93 42.7667 369.013 42.97 369.013 43.21C369.013 43.4033 368.957 43.5833 368.843 43.75ZM377.003 42.92V44H372.303V43.6C372.303 43.3467 372.339 43.1067 372.413 42.88C372.493 42.6467 372.576 42.4533 372.663 42.3C372.749 42.1467 372.893 41.9767 373.093 41.79C373.293 41.5967 373.446 41.46 373.553 41.38C373.659 41.2933 373.846 41.1533 374.113 40.96C374.386 40.7667 374.559 40.6433 374.633 40.59C375.053 40.2833 375.356 40.0133 375.543 39.78C375.729 39.5467 375.823 39.2667 375.823 38.94C375.823 38.6133 375.723 38.3533 375.523 38.16C375.323 37.96 375.046 37.86 374.693 37.86C374.326 37.86 374.023 37.97 373.783 38.19C373.543 38.4033 373.419 38.6967 373.413 39.07H372.303C372.303 38.3967 372.529 37.8467 372.983 37.42C373.443 36.9933 374.016 36.78 374.703 36.78C375.336 36.78 375.866 36.9667 376.293 37.34C376.719 37.7133 376.933 38.2367 376.933 38.91C376.933 39.4433 376.809 39.8933 376.563 40.26C376.323 40.62 375.923 41 375.363 41.4C375.276 41.4667 375.116 41.58 374.883 41.74C374.649 41.9 374.476 42.0233 374.363 42.11C374.256 42.1967 374.139 42.3167 374.013 42.47C373.886 42.6167 373.799 42.7667 373.753 42.92H377.003ZM378.927 40.62C378.694 40.62 378.49 40.5367 378.317 40.37C378.15 40.1967 378.067 39.99 378.067 39.75C378.067 39.5167 378.15 39.3133 378.317 39.14C378.49 38.9667 378.694 38.88 378.927 38.88C379.167 38.88 379.37 38.9667 379.537 39.14C379.71 39.3133 379.797 39.5167 379.797 39.75C379.797 39.99 379.71 40.1967 379.537 40.37C379.37 40.5367 379.167 40.62 378.927 40.62ZM378.927 44.08C378.694 44.08 378.49 43.9967 378.317 43.83C378.15 43.6567 378.067 43.45 378.067 43.21C378.067 42.9767 378.15 42.7733 378.317 42.6C378.49 42.4267 378.694 42.34 378.927 42.34C379.167 42.34 379.37 42.4267 379.537 42.6C379.71 42.7733 379.797 42.9767 379.797 43.21C379.797 43.45 379.71 43.6567 379.537 43.83C379.37 43.9967 379.167 44.08 378.927 44.08ZM385.518 42.92V44H380.818V43.6C380.818 43.3467 380.855 43.1067 380.928 42.88C381.008 42.6467 381.092 42.4533 381.178 42.3C381.265 42.1467 381.408 41.9767 381.608 41.79C381.808 41.5967 381.962 41.46 382.068 41.38C382.175 41.2933 382.362 41.1533 382.628 40.96C382.902 40.7667 383.075 40.6433 383.148 40.59C383.568 40.2833 383.872 40.0133 384.058 39.78C384.245 39.5467 384.338 39.2667 384.338 38.94C384.338 38.6133 384.238 38.3533 384.038 38.16C383.838 37.96 383.562 37.86 383.208 37.86C382.842 37.86 382.538 37.97 382.298 38.19C382.058 38.4033 381.935 38.6967 381.928 39.07H380.818C380.818 38.3967 381.045 37.8467 381.498 37.42C381.958 36.9933 382.532 36.78 383.218 36.78C383.852 36.78 384.382 36.9667 384.808 37.34C385.235 37.7133 385.448 38.2367 385.448 38.91C385.448 39.4433 385.325 39.8933 385.078 40.26C384.838 40.62 384.438 41 383.878 41.4C383.792 41.4667 383.632 41.58 383.398 41.74C383.165 41.9 382.992 42.0233 382.878 42.11C382.772 42.1967 382.655 42.3167 382.528 42.47C382.402 42.6167 382.315 42.7667 382.268 42.92H385.518ZM390.514 43.42C390.06 43.8733 389.477 44.1 388.764 44.1C388.05 44.1 387.467 43.8733 387.014 43.42C386.56 42.96 386.334 42.39 386.334 41.71C386.334 41.3833 386.397 41.0833 386.524 40.81C386.657 40.5367 386.86 40.2233 387.134 39.87L389.504 36.9H390.884L388.884 39.42H388.994C389.574 39.42 390.087 39.64 390.534 40.08C390.98 40.5133 391.204 41.0533 391.204 41.7C391.204 42.3867 390.974 42.96 390.514 43.42ZM387.814 42.66C388.067 42.9133 388.384 43.04 388.764 43.04C389.144 43.04 389.46 42.9133 389.714 42.66C389.967 42.4 390.094 42.0833 390.094 41.71C390.094 41.3433 389.964 41.03 389.704 40.77C389.45 40.51 389.137 40.38 388.764 40.38C388.39 40.38 388.077 40.51 387.824 40.77C387.57 41.03 387.444 41.3433 387.444 41.71C387.444 42.0833 387.567 42.4 387.814 42.66ZM398.872 37.57C399.332 38.01 399.562 38.56 399.562 39.22C399.562 39.88 399.332 40.4333 398.872 40.88C398.412 41.32 397.822 41.54 397.102 41.54H396.012V44H394.842V36.9H397.102C397.822 36.9 398.412 37.1233 398.872 37.57ZM398.052 40.1C398.292 39.8667 398.412 39.5733 398.412 39.22C398.412 38.8667 398.292 38.5767 398.052 38.35C397.818 38.1167 397.498 38 397.092 38H396.012V40.44H397.092C397.498 40.44 397.818 40.3267 398.052 40.1ZM400.721 36.9H401.791L404.271 40.26L406.761 36.9H407.831V44H406.651V38.91L404.281 42.13L401.891 38.9V44H400.721V36.9Z" fill="white"/>
<path d="M417.688 230L415.837 221.304L414.356 216.957L412.875 219.13H410.284L406.953 226.739L404.732 223.478L403.251 213.696L401.03 221.304L399.179 216.957L397.699 221.304L395.848 219.13L393.997 223.478L391.776 213.696L389.925 221.304L388.075 223.478L384.373 219.13L382.892 221.304H380.671L379.191 226.739L376.97 230L375.119 221.304L372.898 226.739L371.417 224.565L367.716 226.739L365.865 213.696L364.384 221.304H362.163L359.942 205L358.462 210.435L356.611 202.826L354.39 210.435L352.539 205L351.429 213.696L349.208 219.13L346.987 216.957L345.506 200.652L343.655 221.304L341.434 208.261H339.954L338.103 210.435L336.252 205L334.031 210.435L332.18 205L330.7 210.435L328.849 206.087L326.628 216.957L325.147 213.696L323.296 226.739L317.374 197.391L315.893 213.696L313.672 206.087L311.821 219.13L309.971 198.478L308.12 210.435L306.269 200.652L302.567 216.957L300.717 221.304L297.015 202.826L294.794 216.957L293.313 208.261L291.463 216.957L282.579 168.043L278.137 202.826L274.435 208.261L272.214 193.043L269.993 200.652L265.181 171.304L259.259 202.826L256.297 193.043L255.557 200.652L252.225 185.435L249.264 200.652L246.673 198.478L245.192 193.043L243.712 200.652L241.491 202.826L239.27 225.652L234.458 135.435L226.684 208.261L224.463 213.696L222.613 195.217L221.132 206.087H218.911L217.06 198.478L213.729 168.043L211.878 169.13L210.027 156.087L208.176 168.043L206.326 175.652H204.105L200.403 158.261L198.922 171.304L196.701 158.261L194.851 178.913L193.37 153.913H191.519L189.298 177.826L187.447 160.435L185.967 187.609L183.746 175.652H181.895L180.044 160.435L178.934 164.783L176.342 158.261L172.641 193.043L170.79 164.783L167.088 103.913L161.536 178.913L160.055 174.565L157.834 175.652L156.354 169.13L154.133 171.304L152.282 125.652L150.431 135.435L144.879 132.174L141.547 150.652L139.697 130L137.105 147.391L135.625 125.652L133.774 120.217L131.923 144.13L129.702 140.87L127.851 144.13L126.001 135.435L124.52 103.913L122.669 144.13L120.448 156.087L118.597 132.174L117.117 138.696L115.266 160.435L113.045 153.913L111.564 120.217L110.084 144.13L108.233 140.87L106.382 150.652L103.791 125.652L101.94 123.478L100.089 115.87L98.6087 138.696L96.3877 127.826L94.5369 144.13L92.6861 138.696L91.2054 123.478L89.3546 127.826L87.1336 105L85.653 138.696L83.432 153.913L81.5812 135.435L80.1006 140.87L77.8796 134.348L76.0288 153.913L74.178 125.652L72.6974 127.826H70.4764L68.6256 103.913L67.8853 134.348L64.924 106.087L63.0732 116.957L61.5925 138.696L59.3716 150.652L57.5208 123.478L56.0401 127.826L53.8192 80L51.9684 115.87L50.1176 110.435L48.2668 82.1739L44.5652 88.6957L42.7143 102.826L41.2337 127.826L39.0127 103.913L37.1619 116.957L35.3111 95.2174" stroke="#535353" stroke-linecap="round" stroke-linejoin="round"/>
<path d="M34.4434 158.428L36.3987 156.804L37.9315 156.026L39.3856 156.549L41.9763 156.705L45.2154 158.426L47.4752 157.909L49.0735 156.045L51.2023 157.698L53.1052 156.942L54.5331 157.899L56.4098 157.577L58.2078 158.557L60.5463 156.738L62.305 158.369L64.1293 158.914L67.8826 158.27L69.3368 158.793L71.5573 158.928L72.9721 160.102L75.1534 160.887L77.1087 159.263L79.2637 160.482L80.7703 160.137L84.4449 160.795L86.4527 158.303L87.8413 159.911L90.0618 160.045L92.4789 156.924L93.8938 158.099L95.836 156.691L97.9648 158.345L99.8808 157.371L100.886 159.174L103.041 160.393L105.288 160.094L106.965 156.928L108.566 161.163L110.944 158.693L112.425 158.782L114.249 159.328L116.165 158.355L118.32 159.574L120.236 158.601L121.651 159.775L123.553 159.019L125.643 161.323L127.163 160.761L128.856 163.477L135.131 157.976L136.415 161.32L138.727 159.935L140.42 162.651L142.52 158.64L144.226 161.138L146.194 159.297L149.699 162.776L151.497 163.755L155.421 160.29L157.471 163.245L159.056 161.598L160.802 163.446L170.273 154.218L174.295 161.43L177.931 162.738L180.335 159.835L182.463 161.488L187.628 155.919L193.17 162.57L196.248 160.796L196.897 162.359L200.411 159.523L203.188 162.739L205.805 162.462L207.351 161.466L208.74 163.075L210.934 163.643L212.879 168.334L218.778 150.614L225.672 165.622L227.827 166.841L229.9 163.264L231.25 165.523L233.47 165.657L235.412 164.25L239.11 158.375L240.948 158.704L242.955 156.212L244.662 158.71L246.42 160.341L248.641 160.475L252.551 157.227L253.875 159.92L256.252 157.45L257.854 161.685L259.636 156.784L261.486 156.895L263.418 161.803L265.478 158.443L266.631 163.957L268.996 161.705L270.846 161.816L272.88 158.89L273.938 159.825L276.607 158.68L279.889 165.847L282.08 160.317L286.515 148.389L291.162 163.697L292.695 162.918L294.902 163.269L296.461 162.057L298.655 162.625L301.056 153.623L302.789 155.687L308.38 155.372L311.488 159.262L313.587 155.251L315.968 158.879L317.71 154.628L319.626 153.655L321.189 158.541L323.448 158.024L325.26 158.787L327.215 157.163L329.075 150.959L330.441 159.1L332.517 161.621L334.656 156.959L336.058 158.35L337.646 162.802L339.945 161.634L341.832 154.996L343.024 159.86L344.914 159.32L346.646 161.385L349.538 156.551L351.415 156.228L353.357 154.821L354.562 159.468L356.914 157.432L358.568 160.798L360.484 159.825L362.148 156.877L363.946 157.856L366.441 153.434L367.515 160.25L369.552 163.422L371.626 159.845L373.041 161.019L375.34 159.851L376.954 163.869L379.145 158.339L380.6 158.862L382.82 158.996L384.959 154.334L385.332 160.455L388.634 154.992L390.353 157.273L391.571 161.703L393.648 164.224L395.826 158.911L397.254 159.868L400.051 150.454L401.469 157.727L403.385 156.754L405.576 151.224L409.198 152.749L410.878 155.682L412.057 160.762L414.566 156.122L416.259 158.838L418.372 154.61" stroke="#1595C2" stroke-linecap="round" stroke-linejoin="round"/>
<path d="M35.3125 80.4658L417.689 80.6665" stroke="white" stroke-opacity="0.08"/>
<path opacity="0.6" d="M35.3115 110.466L417.688 110.666" stroke="white" stroke-opacity="0.08"/>
<path opacity="0.6" d="M35.3115 140L417.688 140.201" stroke="white" stroke-opacity="0.08"/>
<path opacity="0.6" d="M35.3115 170L417.688 170.201" stroke="white" stroke-opacity="0.08"/>
<path opacity="0.6" d="M35.3115 200L417.688 200.201" stroke="white" stroke-opacity="0.08"/>
<line x1="354.627" y1="55" x2="354.627" y2="246" stroke="#1595C2" stroke-dasharray="2 2"/>
<path d="M35.3125 230L417.689 230.201" stroke="white" stroke-opacity="0.08"/>
<path d="M37.6245 246.08C37.0592 246.08 36.5925 245.912 36.2245 245.576C35.8565 245.235 35.6725 244.803 35.6725 244.28C35.6725 243.619 35.9418 243.141 36.4805 242.848C36.1285 242.576 35.9525 242.2 35.9525 241.72C35.9525 241.288 36.1072 240.931 36.4165 240.648C36.7312 240.365 37.1338 240.224 37.6245 240.224C38.1205 240.224 38.5232 240.365 38.8325 240.648C39.1472 240.925 39.3045 241.283 39.3045 241.72C39.3045 242.2 39.1285 242.576 38.7765 242.848C39.3152 243.141 39.5845 243.619 39.5845 244.28C39.5845 244.808 39.4005 245.24 39.0325 245.576C38.6698 245.912 38.2005 246.08 37.6245 246.08ZM37.6245 245.256C37.9498 245.256 38.2085 245.16 38.4005 244.968C38.5925 244.776 38.6885 244.541 38.6885 244.264C38.6885 243.981 38.5925 243.747 38.4005 243.56C38.2085 243.368 37.9525 243.272 37.6325 243.272C37.3072 243.272 37.0485 243.368 36.8565 243.56C36.6645 243.747 36.5685 243.981 36.5685 244.264C36.5685 244.541 36.6645 244.776 36.8565 244.968C37.0538 245.16 37.3098 245.256 37.6245 245.256ZM37.6245 242.528C37.8698 242.528 38.0672 242.456 38.2165 242.312C38.3712 242.163 38.4485 241.984 38.4485 241.776C38.4485 241.557 38.3738 241.379 38.2245 241.24C38.0752 241.096 37.8752 241.024 37.6245 241.024C37.3845 241.024 37.1872 241.096 37.0325 241.24C36.8832 241.384 36.8085 241.563 36.8085 241.776C36.8085 241.984 36.8858 242.163 37.0405 242.312C37.1952 242.456 37.3898 242.528 37.6245 242.528ZM41.0893 243.296C40.9026 243.296 40.74 243.229 40.6013 243.096C40.468 242.957 40.4013 242.792 40.4013 242.6C40.4013 242.413 40.468 242.251 40.6013 242.112C40.74 241.973 40.9026 241.904 41.0893 241.904C41.2813 241.904 41.444 241.973 41.5773 242.112C41.716 242.251 41.7853 242.413 41.7853 242.6C41.7853 242.792 41.716 242.957 41.5773 243.096C41.444 243.229 41.2813 243.296 41.0893 243.296ZM41.0893 246.064C40.9026 246.064 40.74 245.997 40.6013 245.864C40.468 245.725 40.4013 245.56 40.4013 245.368C40.4013 245.181 40.468 245.019 40.6013 244.88C40.74 244.741 40.9026 244.672 41.0893 244.672C41.2813 244.672 41.444 244.741 41.5773 244.88C41.716 245.019 41.7853 245.181 41.7853 245.368C41.7853 245.56 41.716 245.725 41.5773 245.864C41.444 245.997 41.2813 246.064 41.0893 246.064ZM45.3064 246V244.576H42.3704V243.864L45.4024 240.32H46.1864V243.76H46.9464V244.576H46.1864V246H45.3064ZM43.4744 243.76H45.3064V241.632L43.4744 243.76ZM51.2262 245.472C50.8422 245.877 50.3489 246.08 49.7462 246.08C49.1435 246.08 48.6502 245.877 48.2662 245.472C47.8822 245.061 47.6902 244.536 47.6902 243.896V242.408C47.6902 241.768 47.8822 241.245 48.2662 240.84C48.6502 240.429 49.1435 240.224 49.7462 240.224C50.3489 240.224 50.8422 240.429 51.2262 240.84C51.6155 241.245 51.8102 241.768 51.8102 242.408V243.896C51.8102 244.536 51.6155 245.061 51.2262 245.472ZM49.7462 245.216C50.1035 245.216 50.3889 245.099 50.6022 244.864C50.8209 244.629 50.9302 244.307 50.9302 243.896V242.408C50.9302 241.997 50.8209 241.675 50.6022 241.44C50.3889 241.205 50.1035 241.088 49.7462 241.088C49.3942 241.088 49.1089 241.205 48.8902 241.44C48.6769 241.675 48.5702 241.997 48.5702 242.408V243.896C48.5702 244.307 48.6769 244.629 48.8902 244.864C49.1089 245.099 49.3942 245.216 49.7462 245.216ZM53.907 246L56.387 240.32H57.203L59.683 246H58.707L58.059 244.512H55.515L54.875 246H53.907ZM56.787 241.584L55.875 243.68H57.699L56.787 241.584ZM60.4148 240.32H61.2708L63.2548 243.008L65.2468 240.32H66.1028V246H65.1588V241.928L63.2628 244.504L61.3508 241.92V246H60.4148V240.32Z" fill="#525252"/>
<path d="M243.323 246V241.192H242.179L242.851 240.32H244.203V246H243.323ZM249.032 245.136V246H245.272V245.68C245.272 245.477 245.302 245.285 245.36 245.104C245.424 244.917 245.491 244.763 245.56 244.64C245.63 244.517 245.744 244.381 245.904 244.232C246.064 244.077 246.187 243.968 246.272 243.904C246.358 243.835 246.507 243.723 246.72 243.568C246.939 243.413 247.078 243.315 247.136 243.272C247.472 243.027 247.715 242.811 247.864 242.624C248.014 242.437 248.088 242.213 248.088 241.952C248.088 241.691 248.008 241.483 247.848 241.328C247.688 241.168 247.467 241.088 247.184 241.088C246.891 241.088 246.648 241.176 246.456 241.352C246.264 241.523 246.166 241.757 246.16 242.056H245.272C245.272 241.517 245.454 241.077 245.816 240.736C246.184 240.395 246.643 240.224 247.192 240.224C247.699 240.224 248.123 240.373 248.464 240.672C248.806 240.971 248.976 241.389 248.976 241.928C248.976 242.355 248.878 242.715 248.68 243.008C248.488 243.296 248.168 243.6 247.72 243.92C247.651 243.973 247.523 244.064 247.336 244.192C247.15 244.32 247.011 244.419 246.92 244.488C246.835 244.557 246.742 244.653 246.64 244.776C246.539 244.893 246.47 245.013 246.432 245.136H249.032ZM250.572 243.296C250.385 243.296 250.222 243.229 250.084 243.096C249.95 242.957 249.884 242.792 249.884 242.6C249.884 242.413 249.95 242.251 250.084 242.112C250.222 241.973 250.385 241.904 250.572 241.904C250.764 241.904 250.926 241.973 251.06 242.112C251.198 242.251 251.268 242.413 251.268 242.6C251.268 242.792 251.198 242.957 251.06 243.096C250.926 243.229 250.764 243.296 250.572 243.296ZM250.572 246.064C250.385 246.064 250.222 245.997 250.084 245.864C249.95 245.725 249.884 245.56 249.884 245.368C249.884 245.181 249.95 245.019 250.084 244.88C250.222 244.741 250.385 244.672 250.572 244.672C250.764 244.672 250.926 244.741 251.06 244.88C251.198 245.019 251.268 245.181 251.268 245.368C251.268 245.56 251.198 245.725 251.06 245.864C250.926 245.997 250.764 246.064 250.572 246.064ZM254.789 246V244.576H251.853V243.864L254.885 240.32H255.669V243.76H256.429V244.576H255.669V246H254.789ZM252.957 243.76H254.789V241.632L252.957 243.76ZM260.709 245.472C260.325 245.877 259.831 246.08 259.229 246.08C258.626 246.08 258.133 245.877 257.749 245.472C257.365 245.061 257.173 244.536 257.173 243.896V242.408C257.173 241.768 257.365 241.245 257.749 240.84C258.133 240.429 258.626 240.224 259.229 240.224C259.831 240.224 260.325 240.429 260.709 240.84C261.098 241.245 261.293 241.768 261.293 242.408V243.896C261.293 244.536 261.098 245.061 260.709 245.472ZM259.229 245.216C259.586 245.216 259.871 245.099 260.085 244.864C260.303 244.629 260.413 244.307 260.413 243.896V242.408C260.413 241.997 260.303 241.675 260.085 241.44C259.871 241.205 259.586 241.088 259.229 241.088C258.877 241.088 258.591 241.205 258.373 241.44C258.159 241.675 258.053 241.997 258.053 242.408V243.896C258.053 244.307 258.159 244.629 258.373 244.864C258.591 245.099 258.877 245.216 259.229 245.216ZM267.535 240.856C267.903 241.208 268.087 241.648 268.087 242.176C268.087 242.704 267.903 243.147 267.535 243.504C267.167 243.856 266.695 244.032 266.119 244.032H265.247V246H264.311V240.32H266.119C266.695 240.32 267.167 240.499 267.535 240.856ZM266.879 242.88C267.071 242.693 267.167 242.459 267.167 242.176C267.167 241.893 267.071 241.661 266.879 241.48C266.693 241.293 266.437 241.2 266.111 241.2H265.247V243.152H266.111C266.437 243.152 266.693 243.061 266.879 242.88ZM269.014 240.32H269.87L271.854 243.008L273.846 240.32H274.702V246H273.758V241.928L271.862 244.504L269.95 241.92V246H269.014V240.32Z" fill="#525252"/>
<circle cx="38.5" cy="33.5" r="3.5" fill="#535353"/>
<path d="M48.84 36.5V31.484H47.112V30.588H51.504V31.484H49.776V36.5H48.84ZM52.5574 36.5H51.6774V32.188H52.5174V32.804C52.7734 32.3187 53.1814 32.076 53.7414 32.076C53.9227 32.076 54.0934 32.1 54.2534 32.148L54.1734 33.004C54.0294 32.9507 53.872 32.924 53.7014 32.924C53.3547 32.924 53.0774 33.0413 52.8694 33.276C52.6614 33.5107 52.5574 33.8493 52.5574 34.292V36.5ZM58.0532 32.788V32.188H58.9012V36.5H58.0532V35.908C57.6639 36.372 57.1732 36.604 56.5812 36.604C55.9572 36.604 55.4425 36.3853 55.0372 35.948C54.6319 35.5107 54.4292 34.9667 54.4292 34.316C54.4292 33.6707 54.6319 33.1373 55.0372 32.716C55.4425 32.2947 55.9572 32.084 56.5812 32.084C57.1732 32.084 57.6639 32.3187 58.0532 32.788ZM56.7012 35.796C57.1012 35.796 57.4345 35.6547 57.7012 35.372C57.9625 35.0947 58.0932 34.7507 58.0932 34.34C58.0932 33.9347 57.9625 33.5933 57.7012 33.316C57.4345 33.0333 57.1012 32.892 56.7012 32.892C56.2905 32.892 55.9572 33.0333 55.7012 33.316C55.4452 33.5933 55.3172 33.9373 55.3172 34.348C55.3172 34.7587 55.4452 35.1027 55.7012 35.38C55.9572 35.6573 56.2905 35.796 56.7012 35.796ZM63.3728 32.788V30.436H64.2608V36.5H63.3888V35.9C63.0154 36.3693 62.5328 36.604 61.9408 36.604C61.3168 36.604 60.8021 36.388 60.3968 35.956C59.9861 35.5133 59.7808 34.9747 59.7808 34.34C59.7808 33.7107 59.9861 33.1773 60.3968 32.74C60.8021 32.3027 61.3141 32.084 61.9328 32.084C62.5034 32.084 62.9834 32.3187 63.3728 32.788ZM63.4368 34.34C63.4368 33.9347 63.3088 33.5933 63.0528 33.316C62.7968 33.0333 62.4634 32.892 62.0528 32.892C61.6421 32.892 61.3088 33.0333 61.0528 33.316C60.7968 33.5933 60.6688 33.9347 60.6688 34.34C60.6688 34.756 60.7968 35.1027 61.0528 35.38C61.3088 35.6573 61.6421 35.796 62.0528 35.796C62.4634 35.796 62.7968 35.6573 63.0528 35.38C63.3088 35.1027 63.4368 34.756 63.4368 34.34ZM65.8601 31.62C65.6895 31.62 65.5455 31.564 65.4281 31.452C65.3108 31.3347 65.2521 31.1907 65.2521 31.02C65.2521 30.8547 65.3108 30.716 65.4281 30.604C65.5455 30.492 65.6895 30.436 65.8601 30.436C66.0255 30.436 66.1641 30.492 66.2761 30.604C66.3881 30.716 66.4441 30.8547 66.4441 31.02C66.4441 31.1907 66.3881 31.3347 66.2761 31.452C66.1641 31.564 66.0255 31.62 65.8601 31.62ZM66.2841 32.188V36.5H65.4041V32.188H66.2841ZM70.0276 35.556L70.3316 36.244C70.0116 36.484 69.6142 36.604 69.1396 36.604C68.6756 36.604 68.3236 36.4627 68.0836 36.18C67.8436 35.8973 67.7236 35.4893 67.7236 34.956V32.94H66.9796V32.188H67.7316V30.66H68.6036V32.188H70.0916V32.94H68.6036V34.972C68.6036 35.5213 68.8249 35.796 69.2676 35.796C69.5022 35.796 69.7556 35.716 70.0276 35.556ZM71.3914 31.62C71.2207 31.62 71.0767 31.564 70.9594 31.452C70.842 31.3347 70.7834 31.1907 70.7834 31.02C70.7834 30.8547 70.842 30.716 70.9594 30.604C71.0767 30.492 71.2207 30.436 71.3914 30.436C71.5567 30.436 71.6954 30.492 71.8074 30.604C71.9194 30.716 71.9754 30.8547 71.9754 31.02C71.9754 31.1907 71.9194 31.3347 71.8074 31.452C71.6954 31.564 71.5567 31.62 71.3914 31.62ZM71.8154 32.188V36.5H70.9354V32.188H71.8154ZM72.6948 34.34C72.6948 33.716 72.9081 33.1827 73.3348 32.74C73.7668 32.2973 74.3135 32.076 74.9748 32.076C75.6361 32.076 76.1801 32.2973 76.6068 32.74C77.0388 33.1773 77.2548 33.7107 77.2548 34.34C77.2548 34.98 77.0388 35.5187 76.6068 35.956C76.1855 36.3933 75.6415 36.612 74.9748 36.612C74.3135 36.612 73.7668 36.3933 73.3348 35.956C72.9081 35.5133 72.6948 34.9747 72.6948 34.34ZM76.3668 34.34C76.3668 33.9453 76.2308 33.6067 75.9588 33.324C75.6975 33.036 75.3695 32.892 74.9748 32.892C74.5855 32.892 74.2548 33.036 73.9828 33.324C73.7161 33.6067 73.5828 33.9453 73.5828 34.34C73.5828 34.74 73.7161 35.0813 73.9828 35.364C74.2548 35.6467 74.5855 35.788 74.9748 35.788C75.3641 35.788 75.6921 35.6467 75.9588 35.364C76.2308 35.0813 76.3668 34.74 76.3668 34.34ZM79.0183 36.5H78.1383V32.188H79.0023V32.796C79.1303 32.572 79.3143 32.396 79.5543 32.268C79.7943 32.14 80.0663 32.076 80.3703 32.076C80.845 32.076 81.245 32.2307 81.5703 32.54C81.901 32.8547 82.0663 33.3 82.0663 33.876V36.5H81.1783V34.124C81.1783 33.7347 81.085 33.4333 80.8983 33.22C80.7116 33.0013 80.461 32.892 80.1463 32.892C79.8156 32.892 79.5436 33.0093 79.3303 33.244C79.1223 33.4733 79.0183 33.772 79.0183 34.14V36.5ZM86.5141 32.788V32.188H87.3621V36.5H86.5141V35.908C86.1248 36.372 85.6341 36.604 85.0421 36.604C84.4181 36.604 83.9035 36.3853 83.4981 35.948C83.0928 35.5107 82.8901 34.9667 82.8901 34.316C82.8901 33.6707 83.0928 33.1373 83.4981 32.716C83.9035 32.2947 84.4181 32.084 85.0421 32.084C85.6341 32.084 86.1248 32.3187 86.5141 32.788ZM85.1621 35.796C85.5621 35.796 85.8955 35.6547 86.1621 35.372C86.4235 35.0947 86.5541 34.7507 86.5541 34.34C86.5541 33.9347 86.4235 33.5933 86.1621 33.316C85.8955 33.0333 85.5621 32.892 85.1621 32.892C84.7515 32.892 84.4181 33.0333 84.1621 33.316C83.9061 33.5933 83.7781 33.9373 83.7781 34.348C83.7781 34.7587 83.9061 35.1027 84.1621 35.38C84.4181 35.6573 84.7515 35.796 85.1621 35.796ZM89.3777 30.436V36.5H88.4977V30.436H89.3777ZM94.2024 36.492H93.4504L91.9784 32.188H92.9064L93.8744 35.284L94.9864 32.188H95.6104L96.7544 35.284L97.6904 32.188H98.6184L97.1704 36.492H96.4184L95.2984 33.436L94.2024 36.492ZM102.538 32.788V32.188H103.386V36.5H102.538V35.908C102.148 36.372 101.658 36.604 101.066 36.604C100.442 36.604 99.9269 36.3853 99.5216 35.948C99.1162 35.5107 98.9136 34.9667 98.9136 34.316C98.9136 33.6707 99.1162 33.1373 99.5216 32.716C99.9269 32.2947 100.442 32.084 101.066 32.084C101.658 32.084 102.148 32.3187 102.538 32.788ZM101.186 35.796C101.586 35.796 101.919 35.6547 102.186 35.372C102.447 35.0947 102.578 34.7507 102.578 34.34C102.578 33.9347 102.447 33.5933 102.186 33.316C101.919 33.0333 101.586 32.892 101.186 32.892C100.775 32.892 100.442 33.0333 100.186 33.316C99.9296 33.5933 99.8016 33.9373 99.8016 34.348C99.8016 34.7587 99.9296 35.1027 100.186 35.38C100.442 35.6573 100.775 35.796 101.186 35.796ZM106.329 35.3L107.433 32.188H108.401L106.617 36.892C106.425 37.3987 106.201 37.764 105.945 37.988C105.689 38.2173 105.377 38.332 105.009 38.332C104.705 38.332 104.46 38.2707 104.273 38.148L104.401 37.388C104.609 37.4787 104.788 37.524 104.937 37.524C105.284 37.524 105.566 37.2787 105.785 36.788L105.921 36.468L104.049 32.188H105.065L106.329 35.3Z" fill="white" fill-opacity="0.42"/>
<circle cx="38.5" cy="46.5" r="3.5" fill="#0784B5"/>
<path d="M47.72 43.588H49.76C50.4053 43.588 50.8933 43.772 51.224 44.14C51.56 44.5027 51.728 44.9427 51.728 45.46C51.728 45.972 51.5547 46.4093 51.208 46.772C50.8667 47.1293 50.3573 47.308 49.68 47.308H48.64V49.5H47.72V43.588ZM48.64 46.46H49.704C50.0453 46.46 50.312 46.364 50.504 46.172C50.696 45.9747 50.792 45.732 50.792 45.444C50.792 45.156 50.704 44.9187 50.528 44.732C50.352 44.5453 50.1093 44.452 49.8 44.452H48.64V46.46ZM53.3933 49.5H52.5133V45.188H53.3533V45.804C53.6093 45.3187 54.0173 45.076 54.5773 45.076C54.7586 45.076 54.9293 45.1 55.0893 45.148L55.0093 46.004C54.8653 45.9507 54.708 45.924 54.5373 45.924C54.1906 45.924 53.9133 46.0413 53.7053 46.276C53.4973 46.5107 53.3933 46.8493 53.3933 47.292V49.5ZM56.1726 44.62C56.002 44.62 55.858 44.564 55.7406 44.452C55.6233 44.3347 55.5646 44.1907 55.5646 44.02C55.5646 43.8547 55.6233 43.716 55.7406 43.604C55.858 43.492 56.002 43.436 56.1726 43.436C56.338 43.436 56.4766 43.492 56.5886 43.604C56.7006 43.716 56.7566 43.8547 56.7566 44.02C56.7566 44.1907 56.7006 44.3347 56.5886 44.452C56.4766 44.564 56.338 44.62 56.1726 44.62ZM56.5966 45.188V49.5H55.7166V45.188H56.5966ZM59.7561 49.596C59.0841 49.596 58.5374 49.3853 58.1161 48.964C57.6894 48.5373 57.4761 47.9987 57.4761 47.348C57.4761 46.692 57.6921 46.1507 58.1241 45.724C58.5614 45.2973 59.1161 45.084 59.7881 45.084C60.2201 45.084 60.6147 45.188 60.9721 45.396C61.3347 45.604 61.6014 45.884 61.7721 46.236L61.0441 46.644C60.9107 46.4147 60.7321 46.2333 60.5081 46.1C60.2894 45.9613 60.0521 45.892 59.7961 45.892C59.3854 45.892 59.0441 46.0307 58.7721 46.308C58.5001 46.5907 58.3641 46.9373 58.3641 47.348C58.3641 47.748 58.4974 48.0893 58.7641 48.372C59.0254 48.6493 59.3587 48.788 59.7641 48.788C60.0201 48.788 60.2654 48.7187 60.5001 48.58C60.7347 48.4413 60.9081 48.2653 61.0201 48.052L61.7481 48.476C61.5721 48.812 61.3027 49.084 60.9401 49.292C60.5827 49.4947 60.1881 49.596 59.7561 49.596ZM66.5851 47.26C66.5851 47.3987 66.5745 47.54 66.5531 47.684H63.1851C63.2491 48.0307 63.4011 48.3053 63.6411 48.508C63.8865 48.7107 64.2118 48.812 64.6171 48.812C64.8625 48.812 65.1185 48.7693 65.3851 48.684C65.6571 48.5987 65.8891 48.4867 66.0811 48.348L66.4491 48.996C65.9105 49.396 65.2891 49.596 64.5851 49.596C63.8278 49.596 63.2518 49.3747 62.8571 48.932C62.4678 48.4893 62.2731 47.956 62.2731 47.332C62.2731 46.6813 62.4758 46.1453 62.8811 45.724C63.2918 45.2973 63.8225 45.084 64.4731 45.084C65.0971 45.084 65.6038 45.2787 65.9931 45.668C66.3878 46.0627 66.5851 46.5933 66.5851 47.26ZM64.4731 45.844C64.1425 45.844 63.8598 45.948 63.6251 46.156C63.3958 46.3587 63.2491 46.628 63.1851 46.964H65.6971C65.6598 46.628 65.5265 46.3587 65.2971 46.156C65.0731 45.948 64.7985 45.844 64.4731 45.844ZM71.1399 49.492H70.3879L68.9159 45.188H69.8439L70.8119 48.284L71.9239 45.188H72.5479L73.6919 48.284L74.6279 45.188H75.5559L74.1079 49.492H73.3559L72.2359 46.436L71.1399 49.492ZM76.6804 44.62C76.5098 44.62 76.3658 44.564 76.2484 44.452C76.1311 44.3347 76.0724 44.1907 76.0724 44.02C76.0724 43.8547 76.1311 43.716 76.2484 43.604C76.3658 43.492 76.5098 43.436 76.6804 43.436C76.8458 43.436 76.9844 43.492 77.0964 43.604C77.2084 43.716 77.2644 43.8547 77.2644 44.02C77.2644 44.1907 77.2084 44.3347 77.0964 44.452C76.9844 44.564 76.8458 44.62 76.6804 44.62ZM77.1044 45.188V49.5H76.2244V45.188H77.1044ZM80.8479 48.556L81.1519 49.244C80.8319 49.484 80.4345 49.604 79.9599 49.604C79.4959 49.604 79.1439 49.4627 78.9039 49.18C78.6639 48.8973 78.5439 48.4893 78.5439 47.956V45.94H77.7999V45.188H78.5519V43.66H79.4239V45.188H80.9119V45.94H79.4239V47.972C79.4239 48.5213 79.6452 48.796 80.0879 48.796C80.3225 48.796 80.5759 48.716 80.8479 48.556ZM82.6277 49.5H81.7477V43.436H82.6037V45.732C82.7317 45.5293 82.9157 45.3693 83.1557 45.252C83.401 45.1347 83.673 45.076 83.9717 45.076C84.4464 45.076 84.8464 45.2307 85.1717 45.54C85.497 45.8493 85.6597 46.2947 85.6597 46.876V49.5H84.7797V47.124C84.7797 46.7347 84.6864 46.4333 84.4997 46.22C84.313 46.0013 84.0624 45.892 83.7477 45.892C83.417 45.892 83.1477 46.0067 82.9397 46.236C82.7317 46.4653 82.6277 46.764 82.6277 47.132V49.5ZM92.8043 47.628V43.588H93.7163V49.5H93.1723L89.7883 45.492V49.5H88.8763V43.588H89.3563L92.8043 47.628ZM99.0226 47.26C99.0226 47.3987 99.012 47.54 98.9906 47.684H95.6226C95.6866 48.0307 95.8386 48.3053 96.0786 48.508C96.324 48.7107 96.6493 48.812 97.0546 48.812C97.3 48.812 97.556 48.7693 97.8226 48.684C98.0946 48.5987 98.3266 48.4867 98.5186 48.348L98.8866 48.996C98.348 49.396 97.7266 49.596 97.0226 49.596C96.2653 49.596 95.6893 49.3747 95.2946 48.932C94.9053 48.4893 94.7106 47.956 94.7106 47.332C94.7106 46.6813 94.9133 46.1453 95.3186 45.724C95.7293 45.2973 96.26 45.084 96.9106 45.084C97.5346 45.084 98.0413 45.2787 98.4306 45.668C98.8253 46.0627 99.0226 46.5933 99.0226 47.26ZM96.9106 45.844C96.58 45.844 96.2973 45.948 96.0626 46.156C95.8333 46.3587 95.6866 46.628 95.6226 46.964H98.1346C98.0973 46.628 97.964 46.3587 97.7346 46.156C97.5106 45.948 97.236 45.844 96.9106 45.844ZM101.962 44.108C101.674 44.108 101.452 44.1827 101.298 44.332C101.148 44.476 101.074 44.684 101.074 44.956V45.188H102.434V45.94H101.074V49.5H100.194V45.94H99.4738V45.188H100.194V44.94C100.194 44.4227 100.343 44.02 100.642 43.732C100.94 43.444 101.343 43.3 101.85 43.3C102.212 43.3 102.562 43.388 102.898 43.564L102.618 44.276C102.356 44.164 102.138 44.108 101.962 44.108ZM107.015 47.26C107.015 47.3987 107.004 47.54 106.983 47.684H103.615C103.679 48.0307 103.831 48.3053 104.071 48.508C104.316 48.7107 104.641 48.812 105.047 48.812C105.292 48.812 105.548 48.7693 105.815 48.684C106.087 48.5987 106.319 48.4867 106.511 48.348L106.879 48.996C106.34 49.396 105.719 49.596 105.015 49.596C104.257 49.596 103.681 49.3747 103.287 48.932C102.897 48.4893 102.703 47.956 102.703 47.332C102.703 46.6813 102.905 46.1453 103.311 45.724C103.721 45.2973 104.252 45.084 104.903 45.084C105.527 45.084 106.033 45.2787 106.423 45.668C106.817 46.0627 107.015 46.5933 107.015 47.26ZM104.903 45.844C104.572 45.844 104.289 45.948 104.055 46.156C103.825 46.3587 103.679 46.628 103.615 46.964H106.127C106.089 46.628 105.956 46.3587 105.727 46.156C105.503 45.948 105.228 45.844 104.903 45.844ZM108.761 49.5H107.881V45.188H108.745V45.796C108.873 45.572 109.057 45.396 109.297 45.268C109.537 45.14 109.809 45.076 110.113 45.076C110.587 45.076 110.987 45.2307 111.312 45.54C111.643 45.8547 111.809 46.3 111.809 46.876V49.5H110.921V47.124C110.921 46.7347 110.827 46.4333 110.641 46.22C110.454 46.0013 110.203 45.892 109.889 45.892C109.558 45.892 109.286 46.0093 109.073 46.244C108.865 46.4733 108.761 46.772 108.761 47.14V49.5ZM115.449 48.556L115.753 49.244C115.433 49.484 115.036 49.604 114.561 49.604C114.097 49.604 113.745 49.4627 113.505 49.18C113.265 48.8973 113.145 48.4893 113.145 47.956V45.94H112.401V45.188H113.153V43.66H114.025V45.188H115.513V45.94H114.025V47.972C114.025 48.5213 114.247 48.796 114.689 48.796C114.924 48.796 115.177 48.716 115.449 48.556ZM118.181 49.604C117.605 49.604 117.147 49.436 116.805 49.1C116.464 48.764 116.293 48.308 116.293 47.732V45.188H117.173V47.724C117.173 48.0493 117.261 48.308 117.437 48.5C117.619 48.692 117.867 48.788 118.181 48.788C118.501 48.788 118.749 48.6947 118.925 48.508C119.101 48.3213 119.189 48.06 119.189 47.724V45.188H120.077V47.732C120.077 48.3187 119.909 48.7773 119.573 49.108C119.237 49.4387 118.773 49.604 118.181 49.604ZM122.426 49.604C122.085 49.604 121.767 49.5267 121.474 49.372C121.181 49.2173 120.946 48.9933 120.77 48.7L121.338 48.188C121.466 48.396 121.629 48.5587 121.826 48.676C122.029 48.788 122.234 48.844 122.442 48.844C122.65 48.844 122.821 48.7933 122.954 48.692C123.087 48.5853 123.154 48.4573 123.154 48.308C123.154 48.0947 123.031 47.9293 122.786 47.812C122.722 47.7747 122.549 47.7027 122.266 47.596C121.978 47.4733 121.797 47.3907 121.722 47.348C121.263 47.108 121.034 46.7533 121.034 46.284C121.034 45.9267 121.167 45.6307 121.434 45.396C121.711 45.1613 122.069 45.044 122.506 45.044C123.119 45.044 123.591 45.2653 123.922 45.708L123.41 46.252C123.154 45.9373 122.839 45.78 122.466 45.78C122.29 45.78 122.149 45.8253 122.042 45.916C121.941 46.0067 121.89 46.1187 121.89 46.252C121.89 46.4653 122.01 46.6227 122.25 46.724L122.69 46.908C122.973 47.0253 123.175 47.116 123.298 47.18C123.789 47.436 124.034 47.7987 124.034 48.268C124.034 48.6467 123.885 48.964 123.586 49.22C123.287 49.476 122.901 49.604 122.426 49.604Z" fill="white" fill-opacity="0.42"/>
<defs>
<radialGradient id="paint0_radial_860_1495" cx="0" cy="0" r="1" gradientUnits="userSpaceOnUse" gradientTransform="translate(119.422 40.2879) scale(292.738 209.31)">
<stop stop-color="#1A1A1A"/>
<stop offset="0.5" stop-color="#151515"/>
<stop offset="1" stop-color="#101010"/>
</radialGradient>
<linearGradient id="paint1_linear_860_1495" x1="125.292" y1="115.13" x2="77.43" y2="-12.6436" gradientUnits="userSpaceOnUse">
<stop stop-color="white" stop-opacity="0"/>
<stop offset="0.17" stop-color="white" stop-opacity="0.05"/>
<stop offset="0.33" stop-color="white" stop-opacity="0.1"/>
</linearGradient>
</defs>
</svg>
