<svg width="453" height="278" viewBox="0 0 453 278" fill="none" xmlns="http://www.w3.org/2000/svg">
<g clip-path="url(#clip0_856_1014)">
<rect width="453" height="278" rx="20" fill="url(#paint0_radial_856_1014)"/>
<path d="M25 56H428" stroke="white" stroke-opacity="0.08" stroke-width="0.9984"/>
<g clip-path="url(#clip1_856_1014)">
<path d="M55 86C55 77.7157 48.2843 71 40 71C31.7157 71 25 77.7157 25 86C25 94.2843 31.7157 101 40 101C48.2843 101 55 94.2843 55 86Z" fill="#0052FF"/>
<path d="M40.0039 91.2734C37.0904 91.2734 34.7305 88.9136 34.7305 86C34.7305 83.0864 37.0904 80.7266 40.0039 80.7266C42.6143 80.7266 44.7808 82.6294 45.1983 85.1211H50.5113C50.063 79.707 45.5322 75.4531 40.0039 75.4531C34.1812 75.4531 29.457 80.1772 29.457 86C29.457 91.8228 34.1812 96.5469 40.0039 96.5469C45.5322 96.5469 50.063 92.293 50.5113 86.8789H45.1939C44.7764 89.3706 42.6143 91.2734 40.0039 91.2734Z" fill="white"/>
</g>
<path d="M69.686 81.621C68.5127 81.621 67.5227 81.2323 66.716 80.455C65.9093 79.6703 65.506 78.673 65.506 77.463C65.506 76.231 65.9167 75.219 66.738 74.427C67.5593 73.6277 68.553 73.228 69.719 73.228C70.4597 73.228 71.1417 73.393 71.765 73.723C72.3883 74.0383 72.876 74.4673 73.228 75.01L72.414 75.692C71.7247 74.7607 70.8337 74.295 69.741 74.295C68.8757 74.295 68.1423 74.5957 67.541 75.197C66.9397 75.7983 66.639 76.5573 66.639 77.474C66.639 78.3687 66.9323 79.1093 67.519 79.696C68.1057 80.2753 68.8427 80.565 69.73 80.565C70.2727 80.565 70.7787 80.444 71.248 80.202C71.7173 79.96 72.1207 79.6227 72.458 79.19L73.25 79.861C72.8613 80.4037 72.3517 80.8327 71.721 81.148C71.0977 81.4633 70.4193 81.621 69.686 81.621ZM77.0823 81.643C76.1803 81.643 75.436 81.346 74.8493 80.752C74.27 80.1507 73.9803 79.4137 73.9803 78.541C73.9803 77.6683 74.27 76.9387 74.8493 76.352C75.4286 75.7507 76.173 75.45 77.0823 75.45C77.977 75.45 78.714 75.7507 79.2933 76.352C79.88 76.9607 80.1733 77.6903 80.1733 78.541C80.1733 79.4063 79.88 80.1433 79.2933 80.752C78.7066 81.346 77.9696 81.643 77.0823 81.643ZM79.1173 78.541C79.1173 77.9617 78.9193 77.4667 78.5233 77.056C78.1273 76.638 77.647 76.429 77.0823 76.429C76.5176 76.429 76.0373 76.638 75.6413 77.056C75.2453 77.4667 75.0473 77.9617 75.0473 78.541C75.0473 79.1277 75.2453 79.63 75.6413 80.048C76.0373 80.466 76.5176 80.675 77.0823 80.675C77.647 80.675 78.1273 80.466 78.5233 80.048C78.9193 79.63 79.1173 79.1277 79.1173 78.541ZM81.9831 74.768C81.7631 74.768 81.5798 74.6983 81.4331 74.559C81.2865 74.4123 81.2131 74.229 81.2131 74.009C81.2131 73.7963 81.2865 73.6203 81.4331 73.481C81.5798 73.3417 81.7631 73.272 81.9831 73.272C82.1885 73.272 82.3645 73.3453 82.5111 73.492C82.6578 73.6313 82.7311 73.8037 82.7311 74.009C82.7311 74.229 82.6578 74.4123 82.5111 74.559C82.3645 74.6983 82.1885 74.768 81.9831 74.768ZM82.4891 75.604V81.5H81.4331V75.604H82.4891ZM85.1854 81.5H84.1294V75.604H85.1634V76.44C85.5374 75.78 86.1608 75.45 87.0334 75.45C87.6934 75.45 88.2471 75.6627 88.6944 76.088C89.1418 76.5133 89.3654 77.1257 89.3654 77.925V81.5H88.3204V78.222C88.3204 77.6573 88.1811 77.2173 87.9024 76.902C87.6311 76.5867 87.2681 76.429 86.8134 76.429C86.3368 76.429 85.9444 76.5977 85.6364 76.935C85.3358 77.2797 85.1854 77.7123 85.1854 78.233V81.5ZM94.0642 75.461C94.9002 75.461 95.5969 75.7617 96.1542 76.363C96.7189 76.9643 97.0012 77.694 97.0012 78.552C97.0012 79.41 96.7189 80.1433 96.1542 80.752C95.5896 81.346 94.8892 81.643 94.0532 81.643C93.2026 81.643 92.5132 81.3093 91.9852 80.642V81.5H90.9292V73.173H91.9852V76.495C92.5206 75.8057 93.2136 75.461 94.0642 75.461ZM93.9322 80.653C94.5336 80.653 95.0139 80.4513 95.3732 80.048C95.7472 79.6447 95.9342 79.1423 95.9342 78.541C95.9342 77.9617 95.7472 77.4667 95.3732 77.056C95.0139 76.6527 94.5336 76.451 93.9322 76.451C93.3236 76.451 92.8396 76.6527 92.4802 77.056C92.1209 77.4593 91.9412 77.9543 91.9412 78.541C91.9412 79.1423 92.1209 79.6447 92.4802 80.048C92.8396 80.4513 93.3236 80.653 93.9322 80.653ZM102.941 76.462V75.604H103.953V81.5H102.941V80.664C102.413 81.3167 101.72 81.643 100.862 81.643C100.011 81.643 99.3072 81.3423 98.7499 80.741C98.1926 80.1397 97.9139 79.3953 97.9139 78.508C97.9139 77.6207 98.1926 76.8947 98.7499 76.33C99.3072 75.7507 100.011 75.461 100.862 75.461C101.698 75.461 102.391 75.7947 102.941 76.462ZM103.007 78.541C103.007 77.947 102.82 77.4483 102.446 77.045C102.072 76.6343 101.584 76.429 100.983 76.429C100.382 76.429 99.8976 76.6343 99.5309 77.045C99.1642 77.4557 98.9809 77.958 98.9809 78.552C98.9809 79.146 99.1642 79.6483 99.5309 80.059C99.8976 80.4697 100.382 80.675 100.983 80.675C101.584 80.675 102.072 80.4697 102.446 80.059C102.82 79.6557 103.007 79.1497 103.007 78.541ZM107.242 81.632C106.788 81.632 106.362 81.522 105.966 81.302C105.578 81.082 105.273 80.7667 105.053 80.356L105.812 79.773C105.974 80.0737 106.186 80.3047 106.45 80.466C106.722 80.6273 106.997 80.708 107.275 80.708C107.583 80.708 107.833 80.631 108.023 80.477C108.221 80.3157 108.32 80.1213 108.32 79.894C108.32 79.5787 108.141 79.3293 107.781 79.146C107.686 79.0947 107.44 78.9847 107.044 78.816C106.678 78.662 106.436 78.552 106.318 78.486C105.717 78.156 105.416 77.6793 105.416 77.056C105.416 76.5793 105.592 76.187 105.944 75.879C106.289 75.5637 106.755 75.406 107.341 75.406C107.723 75.406 108.082 75.4867 108.419 75.648C108.757 75.8093 109.021 76.0403 109.211 76.341L108.54 76.979C108.218 76.5243 107.796 76.297 107.275 76.297C107.019 76.297 106.813 76.3667 106.659 76.506C106.505 76.638 106.428 76.8067 106.428 77.012C106.428 77.32 106.593 77.551 106.923 77.705L107.572 77.991C107.924 78.1303 108.188 78.2513 108.364 78.354C109.032 78.6913 109.365 79.1863 109.365 79.839C109.365 80.345 109.167 80.7703 108.771 81.115C108.368 81.4597 107.858 81.632 107.242 81.632ZM116.065 78.442C116.065 78.5153 116.054 78.695 116.032 78.981H111.335C111.431 79.5017 111.651 79.9123 111.995 80.213C112.34 80.5137 112.809 80.664 113.403 80.664C113.755 80.664 114.118 80.6053 114.492 80.488C114.866 80.3633 115.189 80.202 115.46 80.004L115.911 80.807C115.603 81.0417 115.222 81.2397 114.767 81.401C114.313 81.555 113.851 81.632 113.381 81.632C112.846 81.632 112.369 81.544 111.951 81.368C111.541 81.192 111.214 80.9537 110.972 80.653C110.73 80.3523 110.547 80.0223 110.422 79.663C110.298 79.3037 110.235 78.926 110.235 78.53C110.235 77.65 110.51 76.9167 111.06 76.33C111.618 75.7507 112.336 75.461 113.216 75.461C114.052 75.461 114.734 75.7287 115.262 76.264C115.798 76.7993 116.065 77.5253 116.065 78.442ZM111.335 78.068H114.976C114.947 77.562 114.767 77.1587 114.437 76.858C114.115 76.55 113.708 76.396 113.216 76.396C112.74 76.396 112.329 76.5537 111.984 76.869C111.64 77.177 111.423 77.5767 111.335 78.068Z" fill="white"/>
<path d="M66.023 95.5V87.371H67.123V95.5H66.023ZM75.7597 89.45C76.4711 89.45 77.0431 89.681 77.4757 90.143C77.9011 90.5903 78.1137 91.2063 78.1137 91.991V95.5H77.0577V92.156C77.0577 91.606 76.9294 91.1807 76.6727 90.88C76.4234 90.5793 76.0787 90.429 75.6387 90.429C75.1767 90.429 74.7991 90.5903 74.5057 90.913C74.2124 91.2357 74.0657 91.6573 74.0657 92.178V95.5H73.0207V92.178C73.0207 91.628 72.8924 91.199 72.6357 90.891C72.3791 90.583 72.0307 90.429 71.5907 90.429C71.1287 90.429 70.7474 90.594 70.4467 90.924C70.1534 91.2467 70.0067 91.672 70.0067 92.2V95.5H68.9507V89.604H69.9847V90.473C70.1607 90.143 70.4027 89.89 70.7107 89.714C71.0261 89.5307 71.3781 89.4427 71.7667 89.45C72.1701 89.45 72.5404 89.549 72.8777 89.747C73.2151 89.9377 73.4607 90.2053 73.6147 90.55C73.8127 90.2127 74.1024 89.945 74.4837 89.747C74.8724 89.549 75.2977 89.45 75.7597 89.45ZM82.8177 89.461C83.661 89.461 84.3613 89.7617 84.9187 90.363C85.4833 90.9717 85.7657 91.7013 85.7657 92.552C85.7657 93.41 85.4833 94.1433 84.9187 94.752C84.3613 95.346 83.6573 95.643 82.8067 95.643C81.9487 95.643 81.252 95.3093 80.7167 94.642V97.931H79.6607V89.604H80.7167V90.495C81.2667 89.8057 81.967 89.461 82.8177 89.461ZM84.7097 92.541C84.7097 91.947 84.5227 91.4483 84.1487 91.045C83.7747 90.6343 83.287 90.429 82.6857 90.429C82.0843 90.429 81.5967 90.6343 81.2227 91.045C80.856 91.4557 80.6727 91.9543 80.6727 92.541C80.6727 93.1423 80.856 93.6483 81.2227 94.059C81.5967 94.4697 82.0843 94.675 82.6857 94.675C83.287 94.675 83.7747 94.4697 84.1487 94.059C84.5227 93.6557 84.7097 93.1497 84.7097 92.541ZM89.7688 95.643C88.8668 95.643 88.1225 95.346 87.5358 94.752C86.9565 94.1507 86.6668 93.4137 86.6668 92.541C86.6668 91.6683 86.9565 90.9387 87.5358 90.352C88.1152 89.7507 88.8595 89.45 89.7688 89.45C90.6635 89.45 91.4005 89.7507 91.9798 90.352C92.5665 90.9607 92.8598 91.6903 92.8598 92.541C92.8598 93.4063 92.5665 94.1433 91.9798 94.752C91.3932 95.346 90.6562 95.643 89.7688 95.643ZM91.8038 92.541C91.8038 91.9617 91.6058 91.4667 91.2098 91.056C90.8138 90.638 90.3335 90.429 89.7688 90.429C89.2042 90.429 88.7238 90.638 88.3278 91.056C87.9318 91.4667 87.7338 91.9617 87.7338 92.541C87.7338 93.1277 87.9318 93.63 88.3278 94.048C88.7238 94.466 89.2042 94.675 89.7688 94.675C90.3335 94.675 90.8138 94.466 91.2098 94.048C91.6058 93.63 91.8038 93.1277 91.8038 92.541ZM95.1757 95.5H94.1197V89.604H95.1207V90.473C95.4653 89.791 96.03 89.45 96.8147 89.45C97.0273 89.45 97.2583 89.4793 97.5077 89.538L97.4087 90.561C97.196 90.495 96.9907 90.462 96.7927 90.462C96.3087 90.462 95.9163 90.627 95.6157 90.957C95.3223 91.287 95.1757 91.76 95.1757 92.376V95.5ZM102.021 94.334L102.417 95.148C101.992 95.478 101.467 95.643 100.844 95.643C100.228 95.643 99.7586 95.4523 99.4359 95.071C99.1206 94.6897 98.9629 94.1433 98.9629 93.432V90.506H97.9179V89.604H98.9739V87.514H100.008V89.604H102.098V90.506H100.008V93.509C100.008 94.2863 100.327 94.675 100.965 94.675C101.31 94.675 101.662 94.5613 102.021 94.334ZM110.632 90.462V87.173H111.688V95.5H110.632V94.675C110.119 95.3203 109.437 95.643 108.586 95.643C107.728 95.643 107.017 95.346 106.452 94.752C105.895 94.1507 105.616 93.4137 105.616 92.541C105.616 91.6757 105.895 90.9497 106.452 90.363C107.009 89.7617 107.713 89.461 108.564 89.461C109.407 89.461 110.097 89.7947 110.632 90.462ZM110.709 92.541C110.709 91.947 110.522 91.4483 110.148 91.045C109.781 90.6343 109.297 90.429 108.696 90.429C108.095 90.429 107.607 90.6343 107.233 91.045C106.866 91.4557 106.683 91.9543 106.683 92.541C106.683 93.1423 106.866 93.6483 107.233 94.059C107.607 94.4697 108.095 94.675 108.696 94.675C109.297 94.675 109.781 94.4697 110.148 94.059C110.522 93.6557 110.709 93.1497 110.709 92.541ZM117.98 90.462V89.604H118.992V95.5H117.98V94.664C117.452 95.3167 116.759 95.643 115.901 95.643C115.05 95.643 114.346 95.3423 113.789 94.741C113.232 94.1397 112.953 93.3953 112.953 92.508C112.953 91.6207 113.232 90.8947 113.789 90.33C114.346 89.7507 115.05 89.461 115.901 89.461C116.737 89.461 117.43 89.7947 117.98 90.462ZM118.046 92.541C118.046 91.947 117.859 91.4483 117.485 91.045C117.111 90.6343 116.623 90.429 116.022 90.429C115.421 90.429 114.937 90.6343 114.57 91.045C114.203 91.4557 114.02 91.958 114.02 92.552C114.02 93.146 114.203 93.6483 114.57 94.059C114.937 94.4697 115.421 94.675 116.022 94.675C116.623 94.675 117.111 94.4697 117.485 94.059C117.859 93.6557 118.046 93.1497 118.046 92.541ZM124.085 94.334L124.481 95.148C124.056 95.478 123.532 95.643 122.908 95.643C122.292 95.643 121.823 95.4523 121.5 95.071C121.185 94.6897 121.027 94.1433 121.027 93.432V90.506H119.982V89.604H121.038V87.514H122.072V89.604H124.162V90.506H122.072V93.509C122.072 94.2863 122.391 94.675 123.029 94.675C123.374 94.675 123.726 94.5613 124.085 94.334ZM129.904 90.462V89.604H130.916V95.5H129.904V94.664C129.376 95.3167 128.683 95.643 127.825 95.643C126.974 95.643 126.27 95.3423 125.713 94.741C125.155 94.1397 124.877 93.3953 124.877 92.508C124.877 91.6207 125.155 90.8947 125.713 90.33C126.27 89.7507 126.974 89.461 127.825 89.461C128.661 89.461 129.354 89.7947 129.904 90.462ZM129.97 92.541C129.97 91.947 129.783 91.4483 129.409 91.045C129.035 90.6343 128.547 90.429 127.946 90.429C127.344 90.429 126.86 90.6343 126.494 91.045C126.127 91.4557 125.944 91.958 125.944 92.552C125.944 93.146 126.127 93.6483 126.494 94.059C126.86 94.4697 127.344 94.675 127.946 94.675C128.547 94.675 129.035 94.4697 129.409 94.059C129.783 93.6557 129.97 93.1497 129.97 92.541Z" fill="#525252"/>
<path d="M413.254 85.4199H421.383C421.703 85.4199 421.963 85.6798 421.963 86C421.963 86.3202 421.703 86.5801 421.383 86.5801H413.254C412.934 86.5801 412.674 86.3202 412.674 86C412.674 85.6798 412.934 85.4199 413.254 85.4199Z" fill="#A7ABB4"/>
<path d="M416.737 90.0608V81.9399C416.737 81.6197 416.997 81.3599 417.318 81.3599C417.638 81.3599 417.898 81.6197 417.898 81.9399V90.0608C417.898 90.381 417.638 90.6409 417.318 90.6409C416.997 90.6409 416.737 90.381 416.737 90.0608Z" fill="#A7ABB4"/>
<path d="M417.317 75.3267C423.217 75.3267 428 80.1055 428 85.9998C428 91.8942 423.217 96.673 417.317 96.673C411.417 96.673 406.634 91.8942 406.634 85.9998C406.634 80.1055 411.417 75.3267 417.317 75.3267Z" stroke="white" stroke-opacity="0.08" stroke-width="0.9984"/>
<rect x="25" y="118" width="30" height="30" rx="15" fill="white"/>
<path d="M47.2835 125.5L40.9697 130.189L42.1373 127.423L47.2835 125.5Z" fill="#E2761B" stroke="#E2761B" stroke-linecap="round" stroke-linejoin="round"/>
<path d="M32.7112 125.5L38.9742 130.234L37.8637 127.423L32.7112 125.5ZM45.0151 136.37L43.3335 138.946L46.9314 139.936L47.9657 136.427L45.0151 136.37ZM32.0449 136.427L33.0729 139.936L36.6708 138.946L34.9892 136.37L32.0449 136.427Z" fill="#E4761B" stroke="#E4761B" stroke-linecap="round" stroke-linejoin="round"/>
<path d="M36.4645 132.019L35.4619 133.535L39.0344 133.694L38.9075 129.855L36.4645 132.019ZM43.527 132.019L41.0523 129.811L40.9698 133.694L44.5359 133.535L43.527 132.019ZM36.6676 138.948L38.8123 137.901L36.9594 136.454L36.6676 138.948ZM41.1792 137.901L43.3303 138.948L43.0321 136.454L41.1792 137.901Z" fill="#E4761B" stroke="#E4761B" stroke-linecap="round" stroke-linejoin="round"/>
<path d="M43.3317 138.947L41.1806 137.9L41.3519 139.302L41.3329 139.892L43.3317 138.947ZM36.6689 138.947L38.6678 139.892L38.6551 139.302L38.8137 137.9L36.6689 138.947Z" fill="#D7C1B3" stroke="#D7C1B3" stroke-linecap="round" stroke-linejoin="round"/>
<path d="M38.7006 135.526L36.9111 135L38.1739 134.422L38.7006 135.526ZM41.2959 135.526L41.8225 134.422L43.0916 135L41.2959 135.526Z" fill="#233447" stroke="#233447" stroke-linecap="round" stroke-linejoin="round"/>
<path d="M36.6669 138.945L36.9715 136.369L34.9854 136.426L36.6669 138.945ZM43.0251 136.369L43.3296 138.945L45.0112 136.426L43.0251 136.369ZM44.5353 133.532L40.9691 133.691L41.2991 135.525L41.8258 134.421L43.0949 134.998L44.5353 133.532ZM36.908 134.998L38.1771 134.421L38.6974 135.525L39.0338 133.691L35.4613 133.532L36.908 134.998Z" fill="#CD6116" stroke="#CD6116" stroke-linecap="round" stroke-linejoin="round"/>
<path d="M35.4619 133.532L36.9594 136.451L36.9087 134.998L35.4619 133.532ZM43.0955 134.998L43.0321 136.451L44.5359 133.532L43.0955 134.998ZM39.0344 133.691L38.6981 135.525L39.1169 137.689L39.2121 134.839L39.0344 133.691ZM40.9698 133.691L40.7985 134.833L40.8746 137.689L41.2997 135.525L40.9698 133.691Z" fill="#E4751F" stroke="#E4751F" stroke-linecap="round" stroke-linejoin="round"/>
<path d="M41.3022 135.527L40.8771 137.69L41.1816 137.9L43.0345 136.453L43.098 135L41.3022 135.527ZM36.9111 135L36.9619 136.453L38.8148 137.9L39.1194 137.69L38.7006 135.527L36.9111 135Z" fill="#F6851B" stroke="#F6851B" stroke-linecap="round" stroke-linejoin="round"/>
<path d="M41.3329 139.891L41.3519 139.301L41.1933 139.161H38.801L38.6551 139.301L38.6678 139.891L36.6689 138.945L37.3669 139.516L38.782 140.5H41.2123L42.6337 139.516L43.3317 138.945L41.3329 139.891Z" fill="#C0AD9E" stroke="#C0AD9E" stroke-linecap="round" stroke-linejoin="round"/>
<path d="M41.1798 137.899L40.8752 137.689H39.1175L38.8129 137.899L38.6543 139.301L38.8002 139.162H41.1925L41.3511 139.301L41.1798 137.899Z" fill="#161616" stroke="#161616" stroke-linecap="round" stroke-linejoin="round"/>
<path d="M47.5508 130.494L48.0901 127.905L47.2842 125.5L41.1799 130.031L43.5277 132.017L46.8464 132.988L47.5825 132.131L47.2652 131.903L47.7728 131.439L47.3794 131.135L47.8871 130.748L47.5508 130.494ZM31.9092 127.905L32.4485 130.494L32.1059 130.748L32.6135 131.135L32.2265 131.439L32.7341 131.903L32.4168 132.131L33.1465 132.988L36.4652 132.017L38.813 130.031L32.7087 125.5L31.9092 127.905Z" fill="#763D16" stroke="#763D16" stroke-linecap="round" stroke-linejoin="round"/>
<path d="M46.8489 132.988L43.5302 132.017L44.5391 133.534L43.0353 136.452L45.0151 136.427H47.9657L46.8489 132.988ZM36.4677 132.017L33.149 132.988L32.0449 136.427H34.9892L36.9627 136.452L35.4651 133.534L36.4677 132.017ZM40.973 133.692L41.1824 130.031L42.1469 127.423H37.8637L38.8155 130.031L39.0376 133.692L39.1138 134.847L39.1201 137.69H40.8778L40.8905 134.847L40.973 133.692Z" fill="#F6851B" stroke="#F6851B" stroke-linecap="round" stroke-linejoin="round"/>
<path d="M67.112 128.5H66.023V120.371H66.551L70.06 125.53L73.547 120.371H74.086V128.5H72.986V123.011L70.192 127.114H69.906L67.112 123.011V128.5ZM81.3467 125.442C81.3467 125.515 81.3357 125.695 81.3137 125.981H76.6167C76.712 126.502 76.932 126.912 77.2767 127.213C77.6214 127.514 78.0907 127.664 78.6847 127.664C79.0367 127.664 79.3997 127.605 79.7737 127.488C80.1477 127.363 80.4704 127.202 80.7417 127.004L81.1927 127.807C80.8847 128.042 80.5034 128.24 80.0487 128.401C79.594 128.555 79.132 128.632 78.6627 128.632C78.1274 128.632 77.6507 128.544 77.2327 128.368C76.822 128.192 76.4957 127.954 76.2537 127.653C76.0117 127.352 75.8284 127.022 75.7037 126.663C75.579 126.304 75.5167 125.926 75.5167 125.53C75.5167 124.65 75.7917 123.917 76.3417 123.33C76.899 122.751 77.6177 122.461 78.4977 122.461C79.3337 122.461 80.0157 122.729 80.5437 123.264C81.079 123.799 81.3467 124.525 81.3467 125.442ZM76.6167 125.068H80.2577C80.2284 124.562 80.0487 124.159 79.7187 123.858C79.396 123.55 78.989 123.396 78.4977 123.396C78.021 123.396 77.6104 123.554 77.2657 123.869C76.921 124.177 76.7047 124.577 76.6167 125.068ZM85.9506 127.334L86.3466 128.148C85.9213 128.478 85.397 128.643 84.7736 128.643C84.1576 128.643 83.6883 128.452 83.3656 128.071C83.0503 127.69 82.8926 127.143 82.8926 126.432V123.506H81.8476V122.604H82.9036V120.514H83.9376V122.604H86.0276V123.506H83.9376V126.509C83.9376 127.286 84.2566 127.675 84.8946 127.675C85.2393 127.675 85.5913 127.561 85.9506 127.334ZM91.769 123.462V122.604H92.781V128.5H91.769V127.664C91.241 128.317 90.548 128.643 89.69 128.643C88.8393 128.643 88.1353 128.342 87.578 127.741C87.0207 127.14 86.742 126.395 86.742 125.508C86.742 124.621 87.0207 123.895 87.578 123.33C88.1353 122.751 88.8393 122.461 89.69 122.461C90.526 122.461 91.219 122.795 91.769 123.462ZM91.835 125.541C91.835 124.947 91.648 124.448 91.274 124.045C90.9 123.634 90.4123 123.429 89.811 123.429C89.2097 123.429 88.7257 123.634 88.359 124.045C87.9923 124.456 87.809 124.958 87.809 125.552C87.809 126.146 87.9923 126.648 88.359 127.059C88.7257 127.47 89.2097 127.675 89.811 127.675C90.4123 127.675 90.9 127.47 91.274 127.059C91.648 126.656 91.835 126.15 91.835 125.541ZM95.7184 128.5H94.6294V120.371H95.1574L98.6664 125.53L102.153 120.371H102.692V128.5H101.592V123.011L98.7984 127.114H98.5124L95.7184 123.011V128.5ZM109.139 123.462V122.604H110.151V128.5H109.139V127.664C108.611 128.317 107.918 128.643 107.06 128.643C106.209 128.643 105.505 128.342 104.948 127.741C104.391 127.14 104.112 126.395 104.112 125.508C104.112 124.621 104.391 123.895 104.948 123.33C105.505 122.751 106.209 122.461 107.06 122.461C107.896 122.461 108.589 122.795 109.139 123.462ZM109.205 125.541C109.205 124.947 109.018 124.448 108.644 124.045C108.27 123.634 107.782 123.429 107.181 123.429C106.58 123.429 106.096 123.634 105.729 124.045C105.362 124.456 105.179 124.958 105.179 125.552C105.179 126.146 105.362 126.648 105.729 127.059C106.096 127.47 106.58 127.675 107.181 127.675C107.782 127.675 108.27 127.47 108.644 127.059C109.018 126.656 109.205 126.15 109.205 125.541ZM113.441 128.632C112.986 128.632 112.561 128.522 112.165 128.302C111.776 128.082 111.472 127.767 111.252 127.356L112.011 126.773C112.172 127.074 112.385 127.305 112.649 127.466C112.92 127.627 113.195 127.708 113.474 127.708C113.782 127.708 114.031 127.631 114.222 127.477C114.42 127.316 114.519 127.121 114.519 126.894C114.519 126.579 114.339 126.329 113.98 126.146C113.884 126.095 113.639 125.985 113.243 125.816C112.876 125.662 112.634 125.552 112.517 125.486C111.915 125.156 111.615 124.679 111.615 124.056C111.615 123.579 111.791 123.187 112.143 122.879C112.487 122.564 112.953 122.406 113.54 122.406C113.921 122.406 114.28 122.487 114.618 122.648C114.955 122.809 115.219 123.04 115.41 123.341L114.739 123.979C114.416 123.524 113.994 123.297 113.474 123.297C113.217 123.297 113.012 123.367 112.858 123.506C112.704 123.638 112.627 123.807 112.627 124.012C112.627 124.32 112.792 124.551 113.122 124.705L113.771 124.991C114.123 125.13 114.387 125.251 114.563 125.354C115.23 125.691 115.564 126.186 115.564 126.839C115.564 127.345 115.366 127.77 114.97 128.115C114.566 128.46 114.057 128.632 113.441 128.632ZM122.011 128.5H120.625L118.403 125.75L117.842 126.256V128.5H116.786V120.173H117.842V124.991L120.482 122.604H121.912L119.151 125.079L122.011 128.5Z" fill="white"/>
<path d="M66.023 142.5V134.371H67.123V142.5H66.023ZM75.7597 136.45C76.4711 136.45 77.0431 136.681 77.4757 137.143C77.9011 137.59 78.1137 138.206 78.1137 138.991V142.5H77.0577V139.156C77.0577 138.606 76.9294 138.181 76.6727 137.88C76.4234 137.579 76.0787 137.429 75.6387 137.429C75.1767 137.429 74.7991 137.59 74.5057 137.913C74.2124 138.236 74.0657 138.657 74.0657 139.178V142.5H73.0207V139.178C73.0207 138.628 72.8924 138.199 72.6357 137.891C72.3791 137.583 72.0307 137.429 71.5907 137.429C71.1287 137.429 70.7474 137.594 70.4467 137.924C70.1534 138.247 70.0067 138.672 70.0067 139.2V142.5H68.9507V136.604H69.9847V137.473C70.1607 137.143 70.4027 136.89 70.7107 136.714C71.0261 136.531 71.3781 136.443 71.7667 136.45C72.1701 136.45 72.5404 136.549 72.8777 136.747C73.2151 136.938 73.4607 137.205 73.6147 137.55C73.8127 137.213 74.1024 136.945 74.4837 136.747C74.8724 136.549 75.2977 136.45 75.7597 136.45ZM82.8177 136.461C83.661 136.461 84.3613 136.762 84.9187 137.363C85.4833 137.972 85.7657 138.701 85.7657 139.552C85.7657 140.41 85.4833 141.143 84.9187 141.752C84.3613 142.346 83.6573 142.643 82.8067 142.643C81.9487 142.643 81.252 142.309 80.7167 141.642V144.931H79.6607V136.604H80.7167V137.495C81.2667 136.806 81.967 136.461 82.8177 136.461ZM84.7097 139.541C84.7097 138.947 84.5227 138.448 84.1487 138.045C83.7747 137.634 83.287 137.429 82.6857 137.429C82.0843 137.429 81.5967 137.634 81.2227 138.045C80.856 138.456 80.6727 138.954 80.6727 139.541C80.6727 140.142 80.856 140.648 81.2227 141.059C81.5967 141.47 82.0843 141.675 82.6857 141.675C83.287 141.675 83.7747 141.47 84.1487 141.059C84.5227 140.656 84.7097 140.15 84.7097 139.541ZM89.7688 142.643C88.8668 142.643 88.1225 142.346 87.5358 141.752C86.9565 141.151 86.6668 140.414 86.6668 139.541C86.6668 138.668 86.9565 137.939 87.5358 137.352C88.1152 136.751 88.8595 136.45 89.7688 136.45C90.6635 136.45 91.4005 136.751 91.9798 137.352C92.5665 137.961 92.8598 138.69 92.8598 139.541C92.8598 140.406 92.5665 141.143 91.9798 141.752C91.3932 142.346 90.6562 142.643 89.7688 142.643ZM91.8038 139.541C91.8038 138.962 91.6058 138.467 91.2098 138.056C90.8138 137.638 90.3335 137.429 89.7688 137.429C89.2042 137.429 88.7238 137.638 88.3278 138.056C87.9318 138.467 87.7338 138.962 87.7338 139.541C87.7338 140.128 87.9318 140.63 88.3278 141.048C88.7238 141.466 89.2042 141.675 89.7688 141.675C90.3335 141.675 90.8138 141.466 91.2098 141.048C91.6058 140.63 91.8038 140.128 91.8038 139.541ZM95.1757 142.5H94.1197V136.604H95.1207V137.473C95.4653 136.791 96.03 136.45 96.8147 136.45C97.0273 136.45 97.2583 136.479 97.5077 136.538L97.4087 137.561C97.196 137.495 96.9907 137.462 96.7927 137.462C96.3087 137.462 95.9163 137.627 95.6157 137.957C95.3223 138.287 95.1757 138.76 95.1757 139.376V142.5ZM102.021 141.334L102.417 142.148C101.992 142.478 101.467 142.643 100.844 142.643C100.228 142.643 99.7586 142.452 99.4359 142.071C99.1206 141.69 98.9629 141.143 98.9629 140.432V137.506H97.9179V136.604H98.9739V134.514H100.008V136.604H102.098V137.506H100.008V140.509C100.008 141.286 100.327 141.675 100.965 141.675C101.31 141.675 101.662 141.561 102.021 141.334ZM110.632 137.462V134.173H111.688V142.5H110.632V141.675C110.119 142.32 109.437 142.643 108.586 142.643C107.728 142.643 107.017 142.346 106.452 141.752C105.895 141.151 105.616 140.414 105.616 139.541C105.616 138.676 105.895 137.95 106.452 137.363C107.009 136.762 107.713 136.461 108.564 136.461C109.407 136.461 110.097 136.795 110.632 137.462ZM110.709 139.541C110.709 138.947 110.522 138.448 110.148 138.045C109.781 137.634 109.297 137.429 108.696 137.429C108.095 137.429 107.607 137.634 107.233 138.045C106.866 138.456 106.683 138.954 106.683 139.541C106.683 140.142 106.866 140.648 107.233 141.059C107.607 141.47 108.095 141.675 108.696 141.675C109.297 141.675 109.781 141.47 110.148 141.059C110.522 140.656 110.709 140.15 110.709 139.541ZM117.98 137.462V136.604H118.992V142.5H117.98V141.664C117.452 142.317 116.759 142.643 115.901 142.643C115.05 142.643 114.346 142.342 113.789 141.741C113.232 141.14 112.953 140.395 112.953 139.508C112.953 138.621 113.232 137.895 113.789 137.33C114.346 136.751 115.05 136.461 115.901 136.461C116.737 136.461 117.43 136.795 117.98 137.462ZM118.046 139.541C118.046 138.947 117.859 138.448 117.485 138.045C117.111 137.634 116.623 137.429 116.022 137.429C115.421 137.429 114.937 137.634 114.57 138.045C114.203 138.456 114.02 138.958 114.02 139.552C114.02 140.146 114.203 140.648 114.57 141.059C114.937 141.47 115.421 141.675 116.022 141.675C116.623 141.675 117.111 141.47 117.485 141.059C117.859 140.656 118.046 140.15 118.046 139.541ZM124.085 141.334L124.481 142.148C124.056 142.478 123.532 142.643 122.908 142.643C122.292 142.643 121.823 142.452 121.5 142.071C121.185 141.69 121.027 141.143 121.027 140.432V137.506H119.982V136.604H121.038V134.514H122.072V136.604H124.162V137.506H122.072V140.509C122.072 141.286 122.391 141.675 123.029 141.675C123.374 141.675 123.726 141.561 124.085 141.334ZM129.904 137.462V136.604H130.916V142.5H129.904V141.664C129.376 142.317 128.683 142.643 127.825 142.643C126.974 142.643 126.27 142.342 125.713 141.741C125.155 141.14 124.877 140.395 124.877 139.508C124.877 138.621 125.155 137.895 125.713 137.33C126.27 136.751 126.974 136.461 127.825 136.461C128.661 136.461 129.354 136.795 129.904 137.462ZM129.97 139.541C129.97 138.947 129.783 138.448 129.409 138.045C129.035 137.634 128.547 137.429 127.946 137.429C127.344 137.429 126.86 137.634 126.494 138.045C126.127 138.456 125.944 138.958 125.944 139.552C125.944 140.146 126.127 140.648 126.494 141.059C126.86 141.47 127.344 141.675 127.946 141.675C128.547 141.675 129.035 141.47 129.409 141.059C129.783 140.656 129.97 140.15 129.97 139.541Z" fill="#525252"/>
<path d="M413.254 132.42H421.383C421.703 132.42 421.963 132.68 421.963 133C421.963 133.32 421.703 133.58 421.383 133.58H413.254C412.934 133.58 412.674 133.32 412.674 133C412.674 132.68 412.934 132.42 413.254 132.42Z" fill="#A7ABB4"/>
<path d="M416.737 137.061V128.94C416.737 128.62 416.997 128.36 417.318 128.36C417.638 128.36 417.898 128.62 417.898 128.94V137.061C417.898 137.381 417.638 137.641 417.318 137.641C416.997 137.641 416.737 137.381 416.737 137.061Z" fill="#A7ABB4"/>
<path d="M417.317 122.327C423.217 122.327 428 127.105 428 133C428 138.894 423.217 143.673 417.317 143.673C411.417 143.673 406.634 138.894 406.634 133C406.634 127.105 411.417 122.327 417.317 122.327Z" stroke="white" stroke-opacity="0.08" stroke-width="0.9984"/>
<rect x="25" y="165" width="30" height="30" rx="15" fill="#03316C"/>
<path d="M40.0541 188.187C44.4139 188.187 47.9481 184.653 47.9481 180.294C47.9481 175.934 44.4139 172.4 40.0541 172.4C35.6944 172.4 32.1602 175.934 32.1602 180.294C32.1602 184.653 35.6944 188.187 40.0541 188.187Z" fill="white"/>
<path d="M32.7947 180.767L35.3085 178.895L37.5306 180.308V182.848L39.2117 184.46L39.2109 185.216L37.591 186.727H36.2222L32.7947 180.767ZM40.7379 185.218L40.7346 184.457L42.41 182.849V180.308L44.6081 178.878L47.1174 180.767L43.7073 186.709H42.3564L40.7379 185.218ZM38.355 180.308L37.5373 178.177H42.4002L41.5988 180.308L41.8354 182.69L39.9588 182.694L38.1046 182.697L38.355 180.308ZM39.9586 177.593L35.3373 177.591L36.1964 173.771H43.6988L44.6041 177.596L39.9586 177.593ZM39.9586 169.005L30.4736 174.501V185.5L39.9586 190.994L39.9696 191L49.5271 185.5V174.501L39.9704 169L39.9586 169.005Z" fill="#03316C" stroke="white" stroke-width="0.363012" stroke-miterlimit="10"/>
<path d="M69.686 175.621C68.5127 175.621 67.5227 175.232 66.716 174.455C65.9093 173.67 65.506 172.673 65.506 171.463C65.506 170.231 65.9167 169.219 66.738 168.427C67.5593 167.628 68.553 167.228 69.719 167.228C70.4597 167.228 71.1417 167.393 71.765 167.723C72.3883 168.038 72.876 168.467 73.228 169.01L72.414 169.692C71.7247 168.761 70.8337 168.295 69.741 168.295C68.8757 168.295 68.1423 168.596 67.541 169.197C66.9397 169.798 66.639 170.557 66.639 171.474C66.639 172.369 66.9323 173.109 67.519 173.696C68.1057 174.275 68.8427 174.565 69.73 174.565C70.2727 174.565 70.7787 174.444 71.248 174.202C71.7173 173.96 72.1207 173.623 72.458 173.19L73.25 173.861C72.8613 174.404 72.3517 174.833 71.721 175.148C71.0977 175.463 70.4193 175.621 69.686 175.621ZM75.41 175.5H74.354V169.604H75.355V170.473C75.6997 169.791 76.2644 169.45 77.049 169.45C77.2617 169.45 77.4927 169.479 77.742 169.538L77.643 170.561C77.4304 170.495 77.225 170.462 77.027 170.462C76.543 170.462 76.1507 170.627 75.85 170.957C75.5567 171.287 75.41 171.76 75.41 172.376V175.5ZM81.2203 174.026L82.8043 169.604H83.9703L81.4953 176.16C81.2533 176.813 80.9673 177.282 80.6373 177.568C80.3146 177.861 79.9186 178.008 79.4493 178.008C79.0753 178.008 78.7599 177.931 78.5033 177.777L78.6353 176.853C78.8993 176.97 79.1376 177.029 79.3503 177.029C79.8343 177.029 80.2229 176.684 80.5163 175.995L80.7363 175.478L78.1733 169.604H79.3943L81.2203 174.026ZM88.1028 169.461C88.9462 169.461 89.6465 169.762 90.2038 170.363C90.7685 170.972 91.0508 171.701 91.0508 172.552C91.0508 173.41 90.7685 174.143 90.2038 174.752C89.6465 175.346 88.9425 175.643 88.0918 175.643C87.2338 175.643 86.5372 175.309 86.0018 174.642V177.931H84.9458V169.604H86.0018V170.495C86.5518 169.806 87.2522 169.461 88.1028 169.461ZM89.9948 172.541C89.9948 171.947 89.8078 171.448 89.4338 171.045C89.0598 170.634 88.5722 170.429 87.9708 170.429C87.3695 170.429 86.8818 170.634 86.5078 171.045C86.1412 171.456 85.9578 171.954 85.9578 172.541C85.9578 173.142 86.1412 173.648 86.5078 174.059C86.8818 174.47 87.3695 174.675 87.9708 174.675C88.5722 174.675 89.0598 174.47 89.4338 174.059C89.8078 173.656 89.9948 173.15 89.9948 172.541ZM95.6723 174.334L96.0683 175.148C95.643 175.478 95.1186 175.643 94.4953 175.643C93.8793 175.643 93.41 175.452 93.0873 175.071C92.772 174.69 92.6143 174.143 92.6143 173.432V170.506H91.5693V169.604H92.6253V167.514H93.6593V169.604H95.7493V170.506H93.6593V173.509C93.6593 174.286 93.9783 174.675 94.6163 174.675C94.961 174.675 95.313 174.561 95.6723 174.334ZM99.5657 175.643C98.6637 175.643 97.9194 175.346 97.3327 174.752C96.7534 174.151 96.4637 173.414 96.4637 172.541C96.4637 171.668 96.7534 170.939 97.3327 170.352C97.912 169.751 98.6564 169.45 99.5657 169.45C100.46 169.45 101.197 169.751 101.777 170.352C102.363 170.961 102.657 171.69 102.657 172.541C102.657 173.406 102.363 174.143 101.777 174.752C101.19 175.346 100.453 175.643 99.5657 175.643ZM101.601 172.541C101.601 171.962 101.403 171.467 101.007 171.056C100.611 170.638 100.13 170.429 99.5657 170.429C99.001 170.429 98.5207 170.638 98.1247 171.056C97.7287 171.467 97.5307 171.962 97.5307 172.541C97.5307 173.128 97.7287 173.63 98.1247 174.048C98.5207 174.466 99.001 174.675 99.5657 174.675C100.13 174.675 100.611 174.466 101.007 174.048C101.403 173.63 101.601 173.128 101.601 172.541ZM103.438 174.961C103.438 174.77 103.504 174.609 103.636 174.477C103.776 174.345 103.944 174.279 104.142 174.279C104.34 174.279 104.505 174.345 104.637 174.477C104.777 174.609 104.846 174.77 104.846 174.961C104.846 175.166 104.777 175.339 104.637 175.478C104.505 175.61 104.34 175.676 104.142 175.676C103.944 175.676 103.776 175.61 103.636 175.478C103.504 175.339 103.438 175.166 103.438 174.961ZM108.751 175.632C107.834 175.632 107.086 175.342 106.507 174.763C105.927 174.184 105.638 173.447 105.638 172.552C105.638 171.657 105.931 170.917 106.518 170.33C107.104 169.751 107.867 169.461 108.806 169.461C109.385 169.461 109.917 169.6 110.401 169.879C110.892 170.158 111.251 170.532 111.479 171.001L110.61 171.507C110.412 171.17 110.151 170.906 109.829 170.715C109.513 170.524 109.172 170.429 108.806 170.429C108.204 170.429 107.702 170.631 107.299 171.034C106.903 171.445 106.705 171.951 106.705 172.552C106.705 173.146 106.899 173.648 107.288 174.059C107.669 174.462 108.157 174.664 108.751 174.664C109.117 174.664 109.469 174.565 109.807 174.367C110.151 174.169 110.408 173.916 110.577 173.608L111.457 174.114C111.207 174.576 110.841 174.943 110.357 175.214C109.858 175.493 109.323 175.632 108.751 175.632ZM115.324 175.643C114.422 175.643 113.678 175.346 113.091 174.752C112.512 174.151 112.222 173.414 112.222 172.541C112.222 171.668 112.512 170.939 113.091 170.352C113.671 169.751 114.415 169.45 115.324 169.45C116.219 169.45 116.956 169.751 117.535 170.352C118.122 170.961 118.415 171.69 118.415 172.541C118.415 173.406 118.122 174.143 117.535 174.752C116.949 175.346 116.212 175.643 115.324 175.643ZM117.359 172.541C117.359 171.962 117.161 171.467 116.765 171.056C116.369 170.638 115.889 170.429 115.324 170.429C114.76 170.429 114.279 170.638 113.883 171.056C113.487 171.467 113.289 171.962 113.289 172.541C113.289 173.128 113.487 173.63 113.883 174.048C114.279 174.466 114.76 174.675 115.324 174.675C115.889 174.675 116.369 174.466 116.765 174.048C117.161 173.63 117.359 173.128 117.359 172.541ZM126.484 169.45C127.196 169.45 127.768 169.681 128.2 170.143C128.626 170.59 128.838 171.206 128.838 171.991V175.5H127.782V172.156C127.782 171.606 127.654 171.181 127.397 170.88C127.148 170.579 126.803 170.429 126.363 170.429C125.901 170.429 125.524 170.59 125.23 170.913C124.937 171.236 124.79 171.657 124.79 172.178V175.5H123.745V172.178C123.745 171.628 123.617 171.199 123.36 170.891C123.104 170.583 122.755 170.429 122.315 170.429C121.853 170.429 121.472 170.594 121.171 170.924C120.878 171.247 120.731 171.672 120.731 172.2V175.5H119.675V169.604H120.709V170.473C120.885 170.143 121.127 169.89 121.435 169.714C121.751 169.531 122.103 169.443 122.491 169.45C122.895 169.45 123.265 169.549 123.602 169.747C123.94 169.938 124.185 170.205 124.339 170.55C124.537 170.213 124.827 169.945 125.208 169.747C125.597 169.549 126.022 169.45 126.484 169.45Z" fill="white"/>
<path d="M66.023 189.5V181.371H67.123V189.5H66.023ZM75.7597 183.45C76.4711 183.45 77.0431 183.681 77.4757 184.143C77.9011 184.59 78.1137 185.206 78.1137 185.991V189.5H77.0577V186.156C77.0577 185.606 76.9294 185.181 76.6727 184.88C76.4234 184.579 76.0787 184.429 75.6387 184.429C75.1767 184.429 74.7991 184.59 74.5057 184.913C74.2124 185.236 74.0657 185.657 74.0657 186.178V189.5H73.0207V186.178C73.0207 185.628 72.8924 185.199 72.6357 184.891C72.3791 184.583 72.0307 184.429 71.5907 184.429C71.1287 184.429 70.7474 184.594 70.4467 184.924C70.1534 185.247 70.0067 185.672 70.0067 186.2V189.5H68.9507V183.604H69.9847V184.473C70.1607 184.143 70.4027 183.89 70.7107 183.714C71.0261 183.531 71.3781 183.443 71.7667 183.45C72.1701 183.45 72.5404 183.549 72.8777 183.747C73.2151 183.938 73.4607 184.205 73.6147 184.55C73.8127 184.213 74.1024 183.945 74.4837 183.747C74.8724 183.549 75.2977 183.45 75.7597 183.45ZM82.8177 183.461C83.661 183.461 84.3613 183.762 84.9187 184.363C85.4833 184.972 85.7657 185.701 85.7657 186.552C85.7657 187.41 85.4833 188.143 84.9187 188.752C84.3613 189.346 83.6573 189.643 82.8067 189.643C81.9487 189.643 81.252 189.309 80.7167 188.642V191.931H79.6607V183.604H80.7167V184.495C81.2667 183.806 81.967 183.461 82.8177 183.461ZM84.7097 186.541C84.7097 185.947 84.5227 185.448 84.1487 185.045C83.7747 184.634 83.287 184.429 82.6857 184.429C82.0843 184.429 81.5967 184.634 81.2227 185.045C80.856 185.456 80.6727 185.954 80.6727 186.541C80.6727 187.142 80.856 187.648 81.2227 188.059C81.5967 188.47 82.0843 188.675 82.6857 188.675C83.287 188.675 83.7747 188.47 84.1487 188.059C84.5227 187.656 84.7097 187.15 84.7097 186.541ZM89.7688 189.643C88.8668 189.643 88.1225 189.346 87.5358 188.752C86.9565 188.151 86.6668 187.414 86.6668 186.541C86.6668 185.668 86.9565 184.939 87.5358 184.352C88.1152 183.751 88.8595 183.45 89.7688 183.45C90.6635 183.45 91.4005 183.751 91.9798 184.352C92.5665 184.961 92.8598 185.69 92.8598 186.541C92.8598 187.406 92.5665 188.143 91.9798 188.752C91.3932 189.346 90.6562 189.643 89.7688 189.643ZM91.8038 186.541C91.8038 185.962 91.6058 185.467 91.2098 185.056C90.8138 184.638 90.3335 184.429 89.7688 184.429C89.2042 184.429 88.7238 184.638 88.3278 185.056C87.9318 185.467 87.7338 185.962 87.7338 186.541C87.7338 187.128 87.9318 187.63 88.3278 188.048C88.7238 188.466 89.2042 188.675 89.7688 188.675C90.3335 188.675 90.8138 188.466 91.2098 188.048C91.6058 187.63 91.8038 187.128 91.8038 186.541ZM95.1757 189.5H94.1197V183.604H95.1207V184.473C95.4653 183.791 96.03 183.45 96.8147 183.45C97.0273 183.45 97.2583 183.479 97.5077 183.538L97.4087 184.561C97.196 184.495 96.9907 184.462 96.7927 184.462C96.3087 184.462 95.9163 184.627 95.6157 184.957C95.3223 185.287 95.1757 185.76 95.1757 186.376V189.5ZM102.021 188.334L102.417 189.148C101.992 189.478 101.467 189.643 100.844 189.643C100.228 189.643 99.7586 189.452 99.4359 189.071C99.1206 188.69 98.9629 188.143 98.9629 187.432V184.506H97.9179V183.604H98.9739V181.514H100.008V183.604H102.098V184.506H100.008V187.509C100.008 188.286 100.327 188.675 100.965 188.675C101.31 188.675 101.662 188.561 102.021 188.334ZM110.632 184.462V181.173H111.688V189.5H110.632V188.675C110.119 189.32 109.437 189.643 108.586 189.643C107.728 189.643 107.017 189.346 106.452 188.752C105.895 188.151 105.616 187.414 105.616 186.541C105.616 185.676 105.895 184.95 106.452 184.363C107.009 183.762 107.713 183.461 108.564 183.461C109.407 183.461 110.097 183.795 110.632 184.462ZM110.709 186.541C110.709 185.947 110.522 185.448 110.148 185.045C109.781 184.634 109.297 184.429 108.696 184.429C108.095 184.429 107.607 184.634 107.233 185.045C106.866 185.456 106.683 185.954 106.683 186.541C106.683 187.142 106.866 187.648 107.233 188.059C107.607 188.47 108.095 188.675 108.696 188.675C109.297 188.675 109.781 188.47 110.148 188.059C110.522 187.656 110.709 187.15 110.709 186.541ZM117.98 184.462V183.604H118.992V189.5H117.98V188.664C117.452 189.317 116.759 189.643 115.901 189.643C115.05 189.643 114.346 189.342 113.789 188.741C113.232 188.14 112.953 187.395 112.953 186.508C112.953 185.621 113.232 184.895 113.789 184.33C114.346 183.751 115.05 183.461 115.901 183.461C116.737 183.461 117.43 183.795 117.98 184.462ZM118.046 186.541C118.046 185.947 117.859 185.448 117.485 185.045C117.111 184.634 116.623 184.429 116.022 184.429C115.421 184.429 114.937 184.634 114.57 185.045C114.203 185.456 114.02 185.958 114.02 186.552C114.02 187.146 114.203 187.648 114.57 188.059C114.937 188.47 115.421 188.675 116.022 188.675C116.623 188.675 117.111 188.47 117.485 188.059C117.859 187.656 118.046 187.15 118.046 186.541ZM124.085 188.334L124.481 189.148C124.056 189.478 123.532 189.643 122.908 189.643C122.292 189.643 121.823 189.452 121.5 189.071C121.185 188.69 121.027 188.143 121.027 187.432V184.506H119.982V183.604H121.038V181.514H122.072V183.604H124.162V184.506H122.072V187.509C122.072 188.286 122.391 188.675 123.029 188.675C123.374 188.675 123.726 188.561 124.085 188.334ZM129.904 184.462V183.604H130.916V189.5H129.904V188.664C129.376 189.317 128.683 189.643 127.825 189.643C126.974 189.643 126.27 189.342 125.713 188.741C125.155 188.14 124.877 187.395 124.877 186.508C124.877 185.621 125.155 184.895 125.713 184.33C126.27 183.751 126.974 183.461 127.825 183.461C128.661 183.461 129.354 183.795 129.904 184.462ZM129.97 186.541C129.97 185.947 129.783 185.448 129.409 185.045C129.035 184.634 128.547 184.429 127.946 184.429C127.344 184.429 126.86 184.634 126.494 185.045C126.127 185.456 125.944 185.958 125.944 186.552C125.944 187.146 126.127 187.648 126.494 188.059C126.86 188.47 127.344 188.675 127.946 188.675C128.547 188.675 129.035 188.47 129.409 188.059C129.783 187.656 129.97 187.15 129.97 186.541Z" fill="#525252"/>
<path d="M413.254 179.42H421.383C421.703 179.42 421.963 179.68 421.963 180C421.963 180.32 421.703 180.58 421.383 180.58H413.254C412.934 180.58 412.674 180.32 412.674 180C412.674 179.68 412.934 179.42 413.254 179.42Z" fill="#A7ABB4"/>
<path d="M416.737 184.061V175.94C416.737 175.62 416.997 175.36 417.318 175.36C417.638 175.36 417.898 175.62 417.898 175.94V184.061C417.898 184.381 417.638 184.641 417.318 184.641C416.997 184.641 416.737 184.381 416.737 184.061Z" fill="#A7ABB4"/>
<path d="M417.317 169.327C423.217 169.327 428 174.105 428 180C428 185.894 423.217 190.673 417.317 190.673C411.417 190.673 406.634 185.894 406.634 180C406.634 174.105 411.417 169.327 417.317 169.327Z" stroke="white" stroke-opacity="0.08" stroke-width="0.9984"/>
<g clip-path="url(#clip2_856_1014)">
<path d="M40 242C48.2843 242 55 235.284 55 227C55 218.716 48.2843 212 40 212C31.7157 212 25 218.716 25 227C25 235.284 31.7157 242 40 242Z" fill="#F3BA2F"/>
<path d="M36.8623 225.711L40 222.573L43.1377 225.714L44.9629 223.889L40 218.923L35.0371 223.886L36.8623 225.711Z" fill="white"/>
<path d="M31.9229 226.999L33.7479 225.173L35.573 226.998L33.748 228.824L31.9229 226.999Z" fill="white"/>
<path d="M36.8623 228.289L40 231.427L43.1377 228.286L44.9658 230.111H44.9629L40 235.077L35.0371 230.114L35.0342 230.111L36.8623 228.289Z" fill="white"/>
<path d="M44.4258 227.001L46.2508 225.176L48.0759 227.001L46.2509 228.827L44.4258 227.001Z" fill="white"/>
<path d="M41.8516 227L40 225.146L38.6318 226.517L38.4736 226.672L38.1484 226.997L38.1455 227L38.1484 227.003L40 228.854L41.8516 227Z" fill="white"/>
</g>
<path d="M70.368 218.056C70.852 218.188 71.226 218.448 71.49 218.837C71.7613 219.218 71.897 219.662 71.897 220.168C71.897 220.806 71.6733 221.352 71.226 221.807C70.786 222.269 70.17 222.5 69.378 222.5H66.023V214.371H69.235C69.939 214.371 70.4853 214.576 70.874 214.987C71.27 215.39 71.468 215.863 71.468 216.406C71.468 216.78 71.369 217.117 71.171 217.418C70.973 217.719 70.7053 217.931 70.368 218.056ZM69.092 215.394H67.112V217.66H69.059C69.4477 217.66 69.7593 217.546 69.994 217.319C70.2287 217.084 70.346 216.802 70.346 216.472C70.346 216.171 70.2287 215.918 69.994 215.713C69.7667 215.5 69.466 215.394 69.092 215.394ZM67.112 221.466H69.202C69.686 221.466 70.0637 221.33 70.335 221.059C70.621 220.788 70.764 220.465 70.764 220.091C70.764 219.688 70.6173 219.35 70.324 219.079C70.038 218.8 69.6493 218.661 69.158 218.661H67.112V221.466ZM73.7546 215.768C73.5346 215.768 73.3513 215.698 73.2046 215.559C73.058 215.412 72.9846 215.229 72.9846 215.009C72.9846 214.796 73.058 214.62 73.2046 214.481C73.3513 214.342 73.5346 214.272 73.7546 214.272C73.96 214.272 74.136 214.345 74.2826 214.492C74.4293 214.631 74.5026 214.804 74.5026 215.009C74.5026 215.229 74.4293 215.412 74.2826 215.559C74.136 215.698 73.96 215.768 73.7546 215.768ZM74.2606 216.604V222.5H73.2046V216.604H74.2606ZM76.9569 222.5H75.9009V216.604H76.9349V217.44C77.3089 216.78 77.9322 216.45 78.8049 216.45C79.4649 216.45 80.0186 216.663 80.4659 217.088C80.9132 217.513 81.1369 218.126 81.1369 218.925V222.5H80.0919V219.222C80.0919 218.657 79.9526 218.217 79.6739 217.902C79.4026 217.587 79.0396 217.429 78.5849 217.429C78.1082 217.429 77.7159 217.598 77.4079 217.935C77.1072 218.28 76.9569 218.712 76.9569 219.233V222.5ZM87.3647 217.462V216.604H88.3767V222.5H87.3647V221.664C86.8367 222.317 86.1437 222.643 85.2857 222.643C84.4351 222.643 83.7311 222.342 83.1737 221.741C82.6164 221.14 82.3377 220.395 82.3377 219.508C82.3377 218.621 82.6164 217.895 83.1737 217.33C83.7311 216.751 84.4351 216.461 85.2857 216.461C86.1217 216.461 86.8147 216.795 87.3647 217.462ZM87.4307 219.541C87.4307 218.947 87.2437 218.448 86.8697 218.045C86.4957 217.634 86.0081 217.429 85.4067 217.429C84.8054 217.429 84.3214 217.634 83.9547 218.045C83.5881 218.456 83.4047 218.958 83.4047 219.552C83.4047 220.146 83.5881 220.648 83.9547 221.059C84.3214 221.47 84.8054 221.675 85.4067 221.675C86.0081 221.675 86.4957 221.47 86.8697 221.059C87.2437 220.656 87.4307 220.15 87.4307 219.541ZM91.0721 222.5H90.0161V216.604H91.0501V217.44C91.4241 216.78 92.0475 216.45 92.9201 216.45C93.5801 216.45 94.1338 216.663 94.5811 217.088C95.0285 217.513 95.2521 218.126 95.2521 218.925V222.5H94.2071V219.222C94.2071 218.657 94.0678 218.217 93.7891 217.902C93.5178 217.587 93.1548 217.429 92.7001 217.429C92.2235 217.429 91.8311 217.598 91.5231 217.935C91.2225 218.28 91.0721 218.712 91.0721 219.233V222.5ZM99.566 222.632C98.6493 222.632 97.9013 222.342 97.322 221.763C96.7426 221.184 96.453 220.447 96.453 219.552C96.453 218.657 96.7463 217.917 97.333 217.33C97.9196 216.751 98.6823 216.461 99.621 216.461C100.2 216.461 100.732 216.6 101.216 216.879C101.707 217.158 102.067 217.532 102.294 218.001L101.425 218.507C101.227 218.17 100.967 217.906 100.644 217.715C100.329 217.524 99.9876 217.429 99.621 217.429C99.0196 217.429 98.5173 217.631 98.114 218.034C97.718 218.445 97.52 218.951 97.52 219.552C97.52 220.146 97.7143 220.648 98.103 221.059C98.4843 221.462 98.972 221.664 99.566 221.664C99.9326 221.664 100.285 221.565 100.622 221.367C100.967 221.169 101.223 220.916 101.392 220.608L102.272 221.114C102.023 221.576 101.656 221.943 101.172 222.214C100.673 222.493 100.138 222.632 99.566 222.632ZM108.879 219.442C108.879 219.515 108.868 219.695 108.846 219.981H104.149C104.244 220.502 104.464 220.912 104.809 221.213C105.154 221.514 105.623 221.664 106.217 221.664C106.569 221.664 106.932 221.605 107.306 221.488C107.68 221.363 108.003 221.202 108.274 221.004L108.725 221.807C108.417 222.042 108.036 222.24 107.581 222.401C107.126 222.555 106.664 222.632 106.195 222.632C105.66 222.632 105.183 222.544 104.765 222.368C104.354 222.192 104.028 221.954 103.786 221.653C103.544 221.352 103.361 221.022 103.236 220.663C103.111 220.304 103.049 219.926 103.049 219.53C103.049 218.65 103.324 217.917 103.874 217.33C104.431 216.751 105.15 216.461 106.03 216.461C106.866 216.461 107.548 216.729 108.076 217.264C108.611 217.799 108.879 218.525 108.879 219.442ZM104.149 219.068H107.79C107.761 218.562 107.581 218.159 107.251 217.858C106.928 217.55 106.521 217.396 106.03 217.396C105.553 217.396 105.143 217.554 104.798 217.869C104.453 218.177 104.237 218.577 104.149 219.068Z" fill="white"/>
<path d="M66.023 236.5V228.371H67.123V236.5H66.023ZM75.7597 230.45C76.4711 230.45 77.0431 230.681 77.4757 231.143C77.9011 231.59 78.1137 232.206 78.1137 232.991V236.5H77.0577V233.156C77.0577 232.606 76.9294 232.181 76.6727 231.88C76.4234 231.579 76.0787 231.429 75.6387 231.429C75.1767 231.429 74.7991 231.59 74.5057 231.913C74.2124 232.236 74.0657 232.657 74.0657 233.178V236.5H73.0207V233.178C73.0207 232.628 72.8924 232.199 72.6357 231.891C72.3791 231.583 72.0307 231.429 71.5907 231.429C71.1287 231.429 70.7474 231.594 70.4467 231.924C70.1534 232.247 70.0067 232.672 70.0067 233.2V236.5H68.9507V230.604H69.9847V231.473C70.1607 231.143 70.4027 230.89 70.7107 230.714C71.0261 230.531 71.3781 230.443 71.7667 230.45C72.1701 230.45 72.5404 230.549 72.8777 230.747C73.2151 230.938 73.4607 231.205 73.6147 231.55C73.8127 231.213 74.1024 230.945 74.4837 230.747C74.8724 230.549 75.2977 230.45 75.7597 230.45ZM82.8177 230.461C83.661 230.461 84.3613 230.762 84.9187 231.363C85.4833 231.972 85.7657 232.701 85.7657 233.552C85.7657 234.41 85.4833 235.143 84.9187 235.752C84.3613 236.346 83.6573 236.643 82.8067 236.643C81.9487 236.643 81.252 236.309 80.7167 235.642V238.931H79.6607V230.604H80.7167V231.495C81.2667 230.806 81.967 230.461 82.8177 230.461ZM84.7097 233.541C84.7097 232.947 84.5227 232.448 84.1487 232.045C83.7747 231.634 83.287 231.429 82.6857 231.429C82.0843 231.429 81.5967 231.634 81.2227 232.045C80.856 232.456 80.6727 232.954 80.6727 233.541C80.6727 234.142 80.856 234.648 81.2227 235.059C81.5967 235.47 82.0843 235.675 82.6857 235.675C83.287 235.675 83.7747 235.47 84.1487 235.059C84.5227 234.656 84.7097 234.15 84.7097 233.541ZM89.7688 236.643C88.8668 236.643 88.1225 236.346 87.5358 235.752C86.9565 235.151 86.6668 234.414 86.6668 233.541C86.6668 232.668 86.9565 231.939 87.5358 231.352C88.1152 230.751 88.8595 230.45 89.7688 230.45C90.6635 230.45 91.4005 230.751 91.9798 231.352C92.5665 231.961 92.8598 232.69 92.8598 233.541C92.8598 234.406 92.5665 235.143 91.9798 235.752C91.3932 236.346 90.6562 236.643 89.7688 236.643ZM91.8038 233.541C91.8038 232.962 91.6058 232.467 91.2098 232.056C90.8138 231.638 90.3335 231.429 89.7688 231.429C89.2042 231.429 88.7238 231.638 88.3278 232.056C87.9318 232.467 87.7338 232.962 87.7338 233.541C87.7338 234.128 87.9318 234.63 88.3278 235.048C88.7238 235.466 89.2042 235.675 89.7688 235.675C90.3335 235.675 90.8138 235.466 91.2098 235.048C91.6058 234.63 91.8038 234.128 91.8038 233.541ZM95.1757 236.5H94.1197V230.604H95.1207V231.473C95.4653 230.791 96.03 230.45 96.8147 230.45C97.0273 230.45 97.2583 230.479 97.5077 230.538L97.4087 231.561C97.196 231.495 96.9907 231.462 96.7927 231.462C96.3087 231.462 95.9163 231.627 95.6157 231.957C95.3223 232.287 95.1757 232.76 95.1757 233.376V236.5ZM102.021 235.334L102.417 236.148C101.992 236.478 101.467 236.643 100.844 236.643C100.228 236.643 99.7586 236.452 99.4359 236.071C99.1206 235.69 98.9629 235.143 98.9629 234.432V231.506H97.9179V230.604H98.9739V228.514H100.008V230.604H102.098V231.506H100.008V234.509C100.008 235.286 100.327 235.675 100.965 235.675C101.31 235.675 101.662 235.561 102.021 235.334ZM110.632 231.462V228.173H111.688V236.5H110.632V235.675C110.119 236.32 109.437 236.643 108.586 236.643C107.728 236.643 107.017 236.346 106.452 235.752C105.895 235.151 105.616 234.414 105.616 233.541C105.616 232.676 105.895 231.95 106.452 231.363C107.009 230.762 107.713 230.461 108.564 230.461C109.407 230.461 110.097 230.795 110.632 231.462ZM110.709 233.541C110.709 232.947 110.522 232.448 110.148 232.045C109.781 231.634 109.297 231.429 108.696 231.429C108.095 231.429 107.607 231.634 107.233 232.045C106.866 232.456 106.683 232.954 106.683 233.541C106.683 234.142 106.866 234.648 107.233 235.059C107.607 235.47 108.095 235.675 108.696 235.675C109.297 235.675 109.781 235.47 110.148 235.059C110.522 234.656 110.709 234.15 110.709 233.541ZM117.98 231.462V230.604H118.992V236.5H117.98V235.664C117.452 236.317 116.759 236.643 115.901 236.643C115.05 236.643 114.346 236.342 113.789 235.741C113.232 235.14 112.953 234.395 112.953 233.508C112.953 232.621 113.232 231.895 113.789 231.33C114.346 230.751 115.05 230.461 115.901 230.461C116.737 230.461 117.43 230.795 117.98 231.462ZM118.046 233.541C118.046 232.947 117.859 232.448 117.485 232.045C117.111 231.634 116.623 231.429 116.022 231.429C115.421 231.429 114.937 231.634 114.57 232.045C114.203 232.456 114.02 232.958 114.02 233.552C114.02 234.146 114.203 234.648 114.57 235.059C114.937 235.47 115.421 235.675 116.022 235.675C116.623 235.675 117.111 235.47 117.485 235.059C117.859 234.656 118.046 234.15 118.046 233.541ZM124.085 235.334L124.481 236.148C124.056 236.478 123.532 236.643 122.908 236.643C122.292 236.643 121.823 236.452 121.5 236.071C121.185 235.69 121.027 235.143 121.027 234.432V231.506H119.982V230.604H121.038V228.514H122.072V230.604H124.162V231.506H122.072V234.509C122.072 235.286 122.391 235.675 123.029 235.675C123.374 235.675 123.726 235.561 124.085 235.334ZM129.904 231.462V230.604H130.916V236.5H129.904V235.664C129.376 236.317 128.683 236.643 127.825 236.643C126.974 236.643 126.27 236.342 125.713 235.741C125.155 235.14 124.877 234.395 124.877 233.508C124.877 232.621 125.155 231.895 125.713 231.33C126.27 230.751 126.974 230.461 127.825 230.461C128.661 230.461 129.354 230.795 129.904 231.462ZM129.97 233.541C129.97 232.947 129.783 232.448 129.409 232.045C129.035 231.634 128.547 231.429 127.946 231.429C127.344 231.429 126.86 231.634 126.494 232.045C126.127 232.456 125.944 232.958 125.944 233.552C125.944 234.146 126.127 234.648 126.494 235.059C126.86 235.47 127.344 235.675 127.946 235.675C128.547 235.675 129.035 235.47 129.409 235.059C129.783 234.656 129.97 234.15 129.97 233.541Z" fill="#525252"/>
<path d="M413.254 226.42H421.383C421.703 226.42 421.963 226.68 421.963 227C421.963 227.32 421.703 227.58 421.383 227.58H413.254C412.934 227.58 412.674 227.32 412.674 227C412.674 226.68 412.934 226.42 413.254 226.42Z" fill="#A7ABB4"/>
<path d="M416.737 231.061V222.94C416.737 222.62 416.997 222.36 417.318 222.36C417.638 222.36 417.898 222.62 417.898 222.94V231.061C417.898 231.381 417.638 231.641 417.318 231.641C416.997 231.641 416.737 231.381 416.737 231.061Z" fill="#A7ABB4"/>
<path d="M417.317 216.327C423.217 216.327 428 221.105 428 227C428 232.894 423.217 237.673 417.317 237.673C411.417 237.673 406.634 232.894 406.634 227C406.634 221.105 411.417 216.327 417.317 216.327Z" stroke="white" stroke-opacity="0.08" stroke-width="0.9984"/>
<rect x="25" y="259" width="30" height="30" rx="15" fill="white"/>
<g clip-path="url(#clip3_856_1014)">
<path d="M42.572 271.184H37.7096C37.5032 271.184 37.334 271.353 37.334 271.559V276.422C37.334 276.628 37.5032 276.797 37.7096 276.797H42.572C42.7784 276.797 42.9476 276.628 42.9476 276.422V271.559C42.9476 271.353 42.7784 271.184 42.572 271.184Z" fill="black"/>
<path d="M36.9597 265.589H32.0973C31.8909 265.589 31.7217 265.759 31.7217 265.965V270.827C31.7217 271.034 31.8909 271.203 32.0973 271.203H36.9597C37.1661 271.203 37.3353 271.034 37.3353 270.827V265.965C37.3341 265.759 37.1661 265.589 36.9597 265.589Z" fill="black"/>
<path d="M48.1667 265.589H43.3043C43.0979 265.589 42.9287 265.759 42.9287 265.965V270.827C42.9287 271.034 43.0979 271.203 43.3043 271.203H48.1667C48.3731 271.203 48.5423 271.034 48.5423 270.827V265.965C48.5423 265.759 48.3731 265.589 48.1667 265.589Z" fill="black"/>
<path d="M36.9597 276.778H32.0973C31.8909 276.778 31.7217 276.948 31.7217 277.154V282.016C31.7217 282.223 31.8909 282.392 32.0973 282.392H36.9597C37.1661 282.392 37.3353 282.223 37.3353 282.016V277.154C37.3341 276.948 37.1661 276.778 36.9597 276.778Z" fill="black"/>
<path d="M48.1667 276.778H43.3043C43.0979 276.778 42.9287 276.948 42.9287 277.154V282.016C42.9287 282.223 43.0979 282.392 43.3043 282.392H48.1667C48.3731 282.392 48.5423 282.223 48.5423 282.016V277.154C48.5423 276.948 48.3731 276.778 48.1667 276.778Z" fill="black"/>
</g>
<path d="M65.495 265.485C65.495 264.297 65.9057 263.292 66.727 262.471C67.5557 261.642 68.5457 261.228 69.697 261.228C70.8483 261.228 71.8383 261.642 72.667 262.471C73.4957 263.3 73.91 264.29 73.91 265.441C73.91 266.592 73.4957 267.582 72.667 268.411C71.8383 269.225 70.8373 269.632 69.664 269.632C68.4833 269.632 67.4933 269.232 66.694 268.433C65.8947 267.634 65.495 266.651 65.495 265.485ZM72.766 265.452C72.766 264.557 72.469 263.809 71.875 263.208C71.281 262.607 70.555 262.306 69.697 262.306C68.8463 262.306 68.124 262.61 67.53 263.219C66.936 263.828 66.639 264.572 66.639 265.452C66.639 266.325 66.9323 267.065 67.519 267.674C68.0983 268.268 68.8243 268.565 69.697 268.565C70.5697 268.565 71.2957 268.268 71.875 267.674C72.469 267.08 72.766 266.339 72.766 265.452ZM81.8682 269.5H80.5042L77.6442 265.936L76.5332 267.245V269.5H75.4332V261.371H76.5332V265.793L80.2622 261.371H81.5712L78.3592 265.199L81.8682 269.5ZM83.1443 269.5H81.8243L84.5303 265.375L81.9563 261.371H83.2323L85.1903 264.539L87.1703 261.371H88.4903L85.8283 265.375L88.5123 269.5H87.2363L85.1903 266.277L83.1443 269.5Z" fill="white"/>
<path d="M66.023 283.5V275.371H67.123V283.5H66.023ZM75.7597 277.45C76.4711 277.45 77.0431 277.681 77.4757 278.143C77.9011 278.59 78.1137 279.206 78.1137 279.991V283.5H77.0577V280.156C77.0577 279.606 76.9294 279.181 76.6727 278.88C76.4234 278.579 76.0787 278.429 75.6387 278.429C75.1767 278.429 74.7991 278.59 74.5057 278.913C74.2124 279.236 74.0657 279.657 74.0657 280.178V283.5H73.0207V280.178C73.0207 279.628 72.8924 279.199 72.6357 278.891C72.3791 278.583 72.0307 278.429 71.5907 278.429C71.1287 278.429 70.7474 278.594 70.4467 278.924C70.1534 279.247 70.0067 279.672 70.0067 280.2V283.5H68.9507V277.604H69.9847V278.473C70.1607 278.143 70.4027 277.89 70.7107 277.714C71.0261 277.531 71.3781 277.443 71.7667 277.45C72.1701 277.45 72.5404 277.549 72.8777 277.747C73.2151 277.938 73.4607 278.205 73.6147 278.55C73.8127 278.213 74.1024 277.945 74.4837 277.747C74.8724 277.549 75.2977 277.45 75.7597 277.45ZM82.8177 277.461C83.661 277.461 84.3613 277.762 84.9187 278.363C85.4833 278.972 85.7657 279.701 85.7657 280.552C85.7657 281.41 85.4833 282.143 84.9187 282.752C84.3613 283.346 83.6573 283.643 82.8067 283.643C81.9487 283.643 81.252 283.309 80.7167 282.642V285.931H79.6607V277.604H80.7167V278.495C81.2667 277.806 81.967 277.461 82.8177 277.461ZM84.7097 280.541C84.7097 279.947 84.5227 279.448 84.1487 279.045C83.7747 278.634 83.287 278.429 82.6857 278.429C82.0843 278.429 81.5967 278.634 81.2227 279.045C80.856 279.456 80.6727 279.954 80.6727 280.541C80.6727 281.142 80.856 281.648 81.2227 282.059C81.5967 282.47 82.0843 282.675 82.6857 282.675C83.287 282.675 83.7747 282.47 84.1487 282.059C84.5227 281.656 84.7097 281.15 84.7097 280.541ZM89.7688 283.643C88.8668 283.643 88.1225 283.346 87.5358 282.752C86.9565 282.151 86.6668 281.414 86.6668 280.541C86.6668 279.668 86.9565 278.939 87.5358 278.352C88.1152 277.751 88.8595 277.45 89.7688 277.45C90.6635 277.45 91.4005 277.751 91.9798 278.352C92.5665 278.961 92.8598 279.69 92.8598 280.541C92.8598 281.406 92.5665 282.143 91.9798 282.752C91.3932 283.346 90.6562 283.643 89.7688 283.643ZM91.8038 280.541C91.8038 279.962 91.6058 279.467 91.2098 279.056C90.8138 278.638 90.3335 278.429 89.7688 278.429C89.2042 278.429 88.7238 278.638 88.3278 279.056C87.9318 279.467 87.7338 279.962 87.7338 280.541C87.7338 281.128 87.9318 281.63 88.3278 282.048C88.7238 282.466 89.2042 282.675 89.7688 282.675C90.3335 282.675 90.8138 282.466 91.2098 282.048C91.6058 281.63 91.8038 281.128 91.8038 280.541ZM95.1757 283.5H94.1197V277.604H95.1207V278.473C95.4653 277.791 96.03 277.45 96.8147 277.45C97.0273 277.45 97.2583 277.479 97.5077 277.538L97.4087 278.561C97.196 278.495 96.9907 278.462 96.7927 278.462C96.3087 278.462 95.9163 278.627 95.6157 278.957C95.3223 279.287 95.1757 279.76 95.1757 280.376V283.5ZM102.021 282.334L102.417 283.148C101.992 283.478 101.467 283.643 100.844 283.643C100.228 283.643 99.7586 283.452 99.4359 283.071C99.1206 282.69 98.9629 282.143 98.9629 281.432V278.506H97.9179V277.604H98.9739V275.514H100.008V277.604H102.098V278.506H100.008V281.509C100.008 282.286 100.327 282.675 100.965 282.675C101.31 282.675 101.662 282.561 102.021 282.334ZM110.632 278.462V275.173H111.688V283.5H110.632V282.675C110.119 283.32 109.437 283.643 108.586 283.643C107.728 283.643 107.017 283.346 106.452 282.752C105.895 282.151 105.616 281.414 105.616 280.541C105.616 279.676 105.895 278.95 106.452 278.363C107.009 277.762 107.713 277.461 108.564 277.461C109.407 277.461 110.097 277.795 110.632 278.462ZM110.709 280.541C110.709 279.947 110.522 279.448 110.148 279.045C109.781 278.634 109.297 278.429 108.696 278.429C108.095 278.429 107.607 278.634 107.233 279.045C106.866 279.456 106.683 279.954 106.683 280.541C106.683 281.142 106.866 281.648 107.233 282.059C107.607 282.47 108.095 282.675 108.696 282.675C109.297 282.675 109.781 282.47 110.148 282.059C110.522 281.656 110.709 281.15 110.709 280.541ZM117.98 278.462V277.604H118.992V283.5H117.98V282.664C117.452 283.317 116.759 283.643 115.901 283.643C115.05 283.643 114.346 283.342 113.789 282.741C113.232 282.14 112.953 281.395 112.953 280.508C112.953 279.621 113.232 278.895 113.789 278.33C114.346 277.751 115.05 277.461 115.901 277.461C116.737 277.461 117.43 277.795 117.98 278.462ZM118.046 280.541C118.046 279.947 117.859 279.448 117.485 279.045C117.111 278.634 116.623 278.429 116.022 278.429C115.421 278.429 114.937 278.634 114.57 279.045C114.203 279.456 114.02 279.958 114.02 280.552C114.02 281.146 114.203 281.648 114.57 282.059C114.937 282.47 115.421 282.675 116.022 282.675C116.623 282.675 117.111 282.47 117.485 282.059C117.859 281.656 118.046 281.15 118.046 280.541ZM124.085 282.334L124.481 283.148C124.056 283.478 123.532 283.643 122.908 283.643C122.292 283.643 121.823 283.452 121.5 283.071C121.185 282.69 121.027 282.143 121.027 281.432V278.506H119.982V277.604H121.038V275.514H122.072V277.604H124.162V278.506H122.072V281.509C122.072 282.286 122.391 282.675 123.029 282.675C123.374 282.675 123.726 282.561 124.085 282.334ZM129.904 278.462V277.604H130.916V283.5H129.904V282.664C129.376 283.317 128.683 283.643 127.825 283.643C126.974 283.643 126.27 283.342 125.713 282.741C125.155 282.14 124.877 281.395 124.877 280.508C124.877 279.621 125.155 278.895 125.713 278.33C126.27 277.751 126.974 277.461 127.825 277.461C128.661 277.461 129.354 277.795 129.904 278.462ZM129.97 280.541C129.97 279.947 129.783 279.448 129.409 279.045C129.035 278.634 128.547 278.429 127.946 278.429C127.344 278.429 126.86 278.634 126.494 279.045C126.127 279.456 125.944 279.958 125.944 280.552C125.944 281.146 126.127 281.648 126.494 282.059C126.86 282.47 127.344 282.675 127.946 282.675C128.547 282.675 129.035 282.47 129.409 282.059C129.783 281.656 129.97 281.15 129.97 280.541Z" fill="#525252"/>
<path d="M413.254 273.42H421.383C421.703 273.42 421.963 273.68 421.963 274C421.963 274.32 421.703 274.58 421.383 274.58H413.254C412.934 274.58 412.674 274.32 412.674 274C412.674 273.68 412.934 273.42 413.254 273.42Z" fill="#A7ABB4"/>
<path d="M416.737 278.061V269.94C416.737 269.62 416.997 269.36 417.318 269.36C417.638 269.36 417.898 269.62 417.898 269.94V278.061C417.898 278.381 417.638 278.641 417.318 278.641C416.997 278.641 416.737 278.381 416.737 278.061Z" fill="#A7ABB4"/>
<path d="M417.317 263.327C423.217 263.327 428 268.105 428 274C428 279.894 423.217 284.673 417.317 284.673C411.417 284.673 406.634 279.894 406.634 274C406.634 268.105 411.417 263.327 417.317 263.327Z" stroke="white" stroke-opacity="0.08" stroke-width="0.9984"/>
<mask id="mask0_856_1014" style="mask-type:luminance" maskUnits="userSpaceOnUse" x="1" y="183" width="452" height="97">
<path d="M453 201.322V261.678C453 271.79 438.472 280 420.578 280H33.4219C15.5283 280 1 271.79 1 261.678V201.322C1 191.21 15.5283 183 33.4219 183H420.578C438.472 183 453 191.21 453 201.322Z" fill="url(#paint1_linear_856_1014)"/>
</mask>
<g mask="url(#mask0_856_1014)">
<path d="M453 201.322V261.678C453 271.79 438.472 280 420.578 280H33.4219C15.5283 280 1 271.79 1 261.678V201.322C1 191.21 15.5283 183 33.4219 183H420.578C438.472 183 453 191.21 453 201.322Z" fill="url(#paint2_linear_856_1014)"/>
</g>
<path d="M26.302 32V21.654H27.702V32H26.302ZM31.3722 32H30.0282V24.496H31.3442V25.56C31.8202 24.72 32.6135 24.3 33.7242 24.3C34.5642 24.3 35.2689 24.5707 35.8382 25.112C36.4075 25.6533 36.6922 26.4327 36.6922 27.45V32H35.3622V27.828C35.3622 27.1093 35.1849 26.5493 34.8302 26.148C34.4849 25.7467 34.0229 25.546 33.4442 25.546C32.8375 25.546 32.3382 25.7607 31.9462 26.19C31.5635 26.6287 31.3722 27.1793 31.3722 27.842V32ZM42.9965 30.516L43.5005 31.552C42.9591 31.972 42.2918 32.182 41.4985 32.182C40.7145 32.182 40.1171 31.9393 39.7065 31.454C39.3051 30.9687 39.1045 30.2733 39.1045 29.368V25.644H37.7745V24.496H39.1185V21.836H40.4345V24.496H43.0945V25.644H40.4345V29.466C40.4345 30.4553 40.8405 30.95 41.6525 30.95C42.0911 30.95 42.5391 30.8053 42.9965 30.516ZM51.4377 28.108C51.4377 28.2013 51.4237 28.43 51.3957 28.794H45.4177C45.539 29.4567 45.819 29.9793 46.2577 30.362C46.6964 30.7447 47.2937 30.936 48.0497 30.936C48.4977 30.936 48.9597 30.8613 49.4357 30.712C49.9117 30.5533 50.3224 30.348 50.6677 30.096L51.2417 31.118C50.8497 31.4167 50.3644 31.6687 49.7857 31.874C49.207 32.07 48.619 32.168 48.0217 32.168C47.3404 32.168 46.7337 32.056 46.2017 31.832C45.679 31.608 45.2637 31.3047 44.9557 30.922C44.6477 30.5393 44.4144 30.1193 44.2557 29.662C44.097 29.2047 44.0177 28.724 44.0177 28.22C44.0177 27.1 44.3677 26.1667 45.0677 25.42C45.777 24.6827 46.6917 24.314 47.8117 24.314C48.8757 24.314 49.7437 24.6547 50.4157 25.336C51.097 26.0173 51.4377 26.9413 51.4377 28.108ZM45.4177 27.632H50.0517C50.0144 26.988 49.7857 26.4747 49.3657 26.092C48.955 25.7 48.437 25.504 47.8117 25.504C47.205 25.504 46.6824 25.7047 46.2437 26.106C45.805 26.498 45.5297 27.0067 45.4177 27.632ZM58.9603 25.476V24.496H60.2903V31.23C60.2903 32.434 59.9263 33.3953 59.1983 34.114C58.4609 34.8327 57.4856 35.192 56.2723 35.192C55.0496 35.192 53.9436 34.8373 52.9543 34.128L53.5843 33.064C54.4056 33.6707 55.2969 33.974 56.2583 33.974C57.0889 33.974 57.7469 33.736 58.2323 33.26C58.7176 32.8027 58.9603 32.2007 58.9603 31.454V30.838C58.2883 31.622 57.4109 32.014 56.3283 32.014C55.2456 32.014 54.3496 31.6453 53.6403 30.908C52.9216 30.1613 52.5623 29.242 52.5623 28.15C52.5623 27.058 52.9309 26.148 53.6683 25.42C54.4056 24.6827 55.3156 24.314 56.3983 24.314C57.4343 24.314 58.2883 24.7013 58.9603 25.476ZM54.6483 30.054C55.1429 30.558 55.7543 30.81 56.4823 30.81C57.2196 30.81 57.8309 30.558 58.3163 30.054C58.8016 29.5593 59.0443 28.9293 59.0443 28.164C59.0443 27.3987 58.8016 26.7733 58.3163 26.288C57.8216 25.784 57.2103 25.532 56.4823 25.532C55.7449 25.532 55.1336 25.784 54.6483 26.288C54.1629 26.7733 53.9203 27.3987 53.9203 28.164C53.9203 28.9293 54.1629 29.5593 54.6483 30.054ZM63.7062 32H62.3622V24.496H63.6362V25.602C64.0748 24.734 64.7935 24.3 65.7922 24.3C66.0628 24.3 66.3568 24.3373 66.6742 24.412L66.5482 25.714C66.2775 25.63 66.0162 25.588 65.7642 25.588C65.1482 25.588 64.6488 25.798 64.2662 26.218C63.8928 26.638 63.7062 27.24 63.7062 28.024V32ZM73.3841 25.588V24.496H74.6721V32H73.3841V30.936C72.7121 31.7667 71.8301 32.182 70.7381 32.182C69.6554 32.182 68.7594 31.7993 68.0501 31.034C67.3408 30.2687 66.9861 29.3213 66.9861 28.192C66.9861 27.0627 67.3408 26.1387 68.0501 25.42C68.7594 24.6827 69.6554 24.314 70.7381 24.314C71.8021 24.314 72.6841 24.7387 73.3841 25.588ZM73.4681 28.234C73.4681 27.478 73.2301 26.8433 72.7541 26.33C72.2781 25.8073 71.6574 25.546 70.8921 25.546C70.1268 25.546 69.5108 25.8073 69.0441 26.33C68.5774 26.8527 68.3441 27.492 68.3441 28.248C68.3441 29.004 68.5774 29.6433 69.0441 30.166C69.5108 30.6887 70.1268 30.95 70.8921 30.95C71.6574 30.95 72.2781 30.6887 72.7541 30.166C73.2301 29.6527 73.4681 29.0087 73.4681 28.234ZM81.1547 30.516L81.6587 31.552C81.1173 31.972 80.45 32.182 79.6567 32.182C78.8727 32.182 78.2753 31.9393 77.8647 31.454C77.4633 30.9687 77.2627 30.2733 77.2627 29.368V25.644H75.9327V24.496H77.2767V21.836H78.5927V24.496H81.2527V25.644H78.5927V29.466C78.5927 30.4553 78.9987 30.95 79.8107 30.95C80.2493 30.95 80.6973 30.8053 81.1547 30.516ZM89.5959 28.108C89.5959 28.2013 89.5819 28.43 89.5539 28.794H83.5759C83.6972 29.4567 83.9772 29.9793 84.4159 30.362C84.8546 30.7447 85.4519 30.936 86.2079 30.936C86.6559 30.936 87.1179 30.8613 87.5939 30.712C88.0699 30.5533 88.4806 30.348 88.8259 30.096L89.3999 31.118C89.0079 31.4167 88.5226 31.6687 87.9439 31.874C87.3652 32.07 86.7772 32.168 86.1799 32.168C85.4986 32.168 84.8919 32.056 84.3599 31.832C83.8372 31.608 83.4219 31.3047 83.1139 30.922C82.8059 30.5393 82.5726 30.1193 82.4139 29.662C82.2552 29.2047 82.1759 28.724 82.1759 28.22C82.1759 27.1 82.5259 26.1667 83.2259 25.42C83.9352 24.6827 84.8499 24.314 85.9699 24.314C87.0339 24.314 87.9019 24.6547 88.5739 25.336C89.2552 26.0173 89.5959 26.9413 89.5959 28.108ZM83.5759 27.632H88.2099C88.1726 26.988 87.9439 26.4747 87.5239 26.092C87.1132 25.7 86.5952 25.504 85.9699 25.504C85.3632 25.504 84.8406 25.7047 84.4019 26.106C83.9632 26.498 83.6879 27.0067 83.5759 27.632ZM97.7713 32H96.9873L93.4313 21.654H94.9153L97.4073 29.228L100.151 21.654H100.781L103.595 29.228L106.045 21.654H107.515L103.987 32H103.217L100.487 24.272L97.7713 32ZM114.017 25.588V24.496H115.305V32H114.017V30.936C113.345 31.7667 112.463 32.182 111.371 32.182C110.288 32.182 109.392 31.7993 108.683 31.034C107.974 30.2687 107.619 29.3213 107.619 28.192C107.619 27.0627 107.974 26.1387 108.683 25.42C109.392 24.6827 110.288 24.314 111.371 24.314C112.435 24.314 113.317 24.7387 114.017 25.588ZM114.101 28.234C114.101 27.478 113.863 26.8433 113.387 26.33C112.911 25.8073 112.29 25.546 111.525 25.546C110.76 25.546 110.144 25.8073 109.677 26.33C109.21 26.8527 108.977 27.492 108.977 28.248C108.977 29.004 109.21 29.6433 109.677 30.166C110.144 30.6887 110.76 30.95 111.525 30.95C112.29 30.95 112.911 30.6887 113.387 30.166C113.863 29.6527 114.101 29.0087 114.101 28.234ZM118.735 21.402V32H117.391V21.402H118.735ZM122.167 21.402V32H120.823V21.402H122.167ZM131.227 28.108C131.227 28.2013 131.213 28.43 131.185 28.794H125.207C125.328 29.4567 125.608 29.9793 126.047 30.362C126.485 30.7447 127.083 30.936 127.839 30.936C128.287 30.936 128.749 30.8613 129.225 30.712C129.701 30.5533 130.111 30.348 130.457 30.096L131.031 31.118C130.639 31.4167 130.153 31.6687 129.575 31.874C128.996 32.07 128.408 32.168 127.811 32.168C127.129 32.168 126.523 32.056 125.991 31.832C125.468 31.608 125.053 31.3047 124.745 30.922C124.437 30.5393 124.203 30.1193 124.045 29.662C123.886 29.2047 123.807 28.724 123.807 28.22C123.807 27.1 124.157 26.1667 124.857 25.42C125.566 24.6827 126.481 24.314 127.601 24.314C128.665 24.314 129.533 24.6547 130.205 25.336C130.886 26.0173 131.227 26.9413 131.227 28.108ZM125.207 27.632H129.841C129.803 26.988 129.575 26.4747 129.155 26.092C128.744 25.7 128.226 25.504 127.601 25.504C126.994 25.504 126.471 25.7047 126.033 26.106C125.594 26.498 125.319 27.0067 125.207 27.632ZM137.086 30.516L137.59 31.552C137.049 31.972 136.382 32.182 135.588 32.182C134.804 32.182 134.207 31.9393 133.796 31.454C133.395 30.9687 133.194 30.2733 133.194 29.368V25.644H131.864V24.496H133.208V21.836H134.524V24.496H137.184V25.644H134.524V29.466C134.524 30.4553 134.93 30.95 135.742 30.95C136.181 30.95 136.629 30.8053 137.086 30.516Z" fill="white"/>
<rect x="350" y="15" width="78" height="26" rx="5" fill="#0784B5"/>
<path d="M364.77 31.11C363.703 31.11 362.803 30.7567 362.07 30.05C361.336 29.3367 360.97 28.43 360.97 27.33C360.97 26.21 361.343 25.29 362.09 24.57C362.836 23.8433 363.74 23.48 364.8 23.48C365.473 23.48 366.093 23.63 366.66 23.93C367.226 24.2167 367.67 24.6067 367.99 25.1L367.25 25.72C366.623 24.8733 365.813 24.45 364.82 24.45C364.033 24.45 363.366 24.7233 362.82 25.27C362.273 25.8167 362 26.5067 362 27.34C362 28.1533 362.266 28.8267 362.8 29.36C363.333 29.8867 364.003 30.15 364.81 30.15C365.303 30.15 365.763 30.04 366.19 29.82C366.616 29.6 366.983 29.2933 367.29 28.9L368.01 29.51C367.656 30.0033 367.193 30.3933 366.62 30.68C366.053 30.9667 365.436 31.11 364.77 31.11ZM369.973 31H369.013V25.64H369.923V26.43C370.237 25.81 370.75 25.5 371.463 25.5C371.657 25.5 371.867 25.5267 372.093 25.58L372.003 26.51C371.81 26.45 371.623 26.42 371.443 26.42C371.003 26.42 370.647 26.57 370.373 26.87C370.107 27.17 369.973 27.6 369.973 28.16V31ZM377.626 28.22C377.626 28.2867 377.616 28.45 377.596 28.71H373.326C373.413 29.1833 373.613 29.5567 373.926 29.83C374.24 30.1033 374.666 30.24 375.206 30.24C375.526 30.24 375.856 30.1867 376.196 30.08C376.536 29.9667 376.83 29.82 377.076 29.64L377.486 30.37C377.206 30.5833 376.86 30.7633 376.446 30.91C376.033 31.05 375.613 31.12 375.186 31.12C374.7 31.12 374.266 31.04 373.886 30.88C373.513 30.72 373.216 30.5033 372.996 30.23C372.776 29.9567 372.61 29.6567 372.496 29.33C372.383 29.0033 372.326 28.66 372.326 28.3C372.326 27.5 372.576 26.8333 373.076 26.3C373.583 25.7733 374.236 25.51 375.036 25.51C375.796 25.51 376.416 25.7533 376.896 26.24C377.383 26.7267 377.626 27.3867 377.626 28.22ZM373.326 27.88H376.636C376.61 27.42 376.446 27.0533 376.146 26.78C375.853 26.5 375.483 26.36 375.036 26.36C374.603 26.36 374.23 26.5033 373.916 26.79C373.603 27.07 373.406 27.4333 373.326 27.88ZM383 26.42V25.64H383.92V31H383V30.24C382.52 30.8333 381.89 31.13 381.11 31.13C380.336 31.13 379.696 30.8567 379.19 30.31C378.683 29.7633 378.43 29.0867 378.43 28.28C378.43 27.4733 378.683 26.8133 379.19 26.3C379.696 25.7733 380.336 25.51 381.11 25.51C381.87 25.51 382.5 25.8133 383 26.42ZM383.06 28.31C383.06 27.77 382.89 27.3167 382.55 26.95C382.21 26.5767 381.766 26.39 381.22 26.39C380.673 26.39 380.233 26.5767 379.9 26.95C379.566 27.3233 379.4 27.78 379.4 28.32C379.4 28.86 379.566 29.3167 379.9 29.69C380.233 30.0633 380.673 30.25 381.22 30.25C381.766 30.25 382.21 30.0633 382.55 29.69C382.89 29.3233 383.06 28.8633 383.06 28.31ZM388.55 29.94L388.91 30.68C388.523 30.98 388.047 31.13 387.48 31.13C386.92 31.13 386.493 30.9567 386.2 30.61C385.913 30.2633 385.77 29.7667 385.77 29.12V26.46H384.82V25.64H385.78V23.74H386.72V25.64H388.62V26.46H386.72V29.19C386.72 29.8967 387.01 30.25 387.59 30.25C387.903 30.25 388.223 30.1467 388.55 29.94ZM394.579 28.22C394.579 28.2867 394.569 28.45 394.549 28.71H390.279C390.366 29.1833 390.566 29.5567 390.879 29.83C391.193 30.1033 391.619 30.24 392.159 30.24C392.479 30.24 392.809 30.1867 393.149 30.08C393.489 29.9667 393.783 29.82 394.029 29.64L394.439 30.37C394.159 30.5833 393.813 30.7633 393.399 30.91C392.986 31.05 392.566 31.12 392.139 31.12C391.653 31.12 391.219 31.04 390.839 30.88C390.466 30.72 390.169 30.5033 389.949 30.23C389.729 29.9567 389.563 29.6567 389.449 29.33C389.336 29.0033 389.279 28.66 389.279 28.3C389.279 27.5 389.529 26.8333 390.029 26.3C390.536 25.7733 391.189 25.51 391.989 25.51C392.749 25.51 393.369 25.7533 393.849 26.24C394.336 26.7267 394.579 27.3867 394.579 28.22ZM390.279 27.88H393.589C393.563 27.42 393.399 27.0533 393.099 26.78C392.806 26.5 392.436 26.36 391.989 26.36C391.556 26.36 391.183 26.5033 390.869 26.79C390.556 27.07 390.359 27.4333 390.279 27.88ZM399.143 31H398.183V25.64H399.123V26.4C399.463 25.8 400.03 25.5 400.823 25.5C401.423 25.5 401.927 25.6933 402.333 26.08C402.74 26.4667 402.943 27.0233 402.943 27.75V31H401.993V28.02C401.993 27.5067 401.867 27.1067 401.613 26.82C401.367 26.5333 401.037 26.39 400.623 26.39C400.19 26.39 399.833 26.5433 399.553 26.85C399.28 27.1633 399.143 27.5567 399.143 28.03V31ZM409.345 28.22C409.345 28.2867 409.335 28.45 409.315 28.71H405.045C405.132 29.1833 405.332 29.5567 405.645 29.83C405.958 30.1033 406.385 30.24 406.925 30.24C407.245 30.24 407.575 30.1867 407.915 30.08C408.255 29.9667 408.548 29.82 408.795 29.64L409.205 30.37C408.925 30.5833 408.578 30.7633 408.165 30.91C407.752 31.05 407.332 31.12 406.905 31.12C406.418 31.12 405.985 31.04 405.605 30.88C405.232 30.72 404.935 30.5033 404.715 30.23C404.495 29.9567 404.328 29.6567 404.215 29.33C404.102 29.0033 404.045 28.66 404.045 28.3C404.045 27.5 404.295 26.8333 404.795 26.3C405.302 25.7733 405.955 25.51 406.755 25.51C407.515 25.51 408.135 25.7533 408.615 26.24C409.102 26.7267 409.345 27.3867 409.345 28.22ZM405.045 27.88H408.355C408.328 27.42 408.165 27.0533 407.865 26.78C407.572 26.5 407.202 26.36 406.755 26.36C406.322 26.36 405.948 26.5033 405.635 26.79C405.322 27.07 405.125 27.4333 405.045 27.88ZM412.342 30.99H411.552L409.712 25.64H410.722L411.992 29.66L413.452 25.64H414.122L415.642 29.66L416.862 25.64H417.862L416.072 30.99H415.272L413.792 26.98L412.342 30.99Z" fill="white"/>
</g>
<rect x="0.5" y="0.5" width="452" height="277" rx="19.5" stroke="url(#paint3_linear_856_1014)"/>
<defs>
<radialGradient id="paint0_radial_856_1014" cx="0" cy="0" r="1" gradientUnits="userSpaceOnUse" gradientTransform="translate(119.422 39.7165) scale(292.738 206.341)">
<stop stop-color="#1A1A1A"/>
<stop offset="0.5" stop-color="#151515"/>
<stop offset="1" stop-color="#101010"/>
</radialGradient>
<linearGradient id="paint1_linear_856_1014" x1="228.919" y1="275.033" x2="228.331" y2="204.97" gradientUnits="userSpaceOnUse">
<stop stop-color="white"/>
<stop offset="0.5" stop-color="white" stop-opacity="0.5"/>
<stop offset="1" stop-color="white" stop-opacity="0"/>
</linearGradient>
<linearGradient id="paint2_linear_856_1014" x1="228.919" y1="275.033" x2="228.331" y2="204.97" gradientUnits="userSpaceOnUse">
<stop stop-color="#101010"/>
<stop offset="0.55" stop-color="#101010"/>
<stop offset="1" stop-color="#101010"/>
</linearGradient>
<linearGradient id="paint3_linear_856_1014" x1="125.292" y1="113.497" x2="78.6164" y2="-12.9023" gradientUnits="userSpaceOnUse">
<stop stop-color="white" stop-opacity="0"/>
<stop offset="0.17" stop-color="white" stop-opacity="0.05"/>
<stop offset="0.33" stop-color="white" stop-opacity="0.1"/>
</linearGradient>
<clipPath id="clip0_856_1014">
<rect width="453" height="278" rx="20" fill="white"/>
</clipPath>
<clipPath id="clip1_856_1014">
<rect width="30" height="30" fill="white" transform="translate(25 71)"/>
</clipPath>
<clipPath id="clip2_856_1014">
<rect width="30" height="30" fill="white" transform="translate(25 212)"/>
</clipPath>
<clipPath id="clip3_856_1014">
<rect width="30" height="30" fill="white" transform="translate(25 259)"/>
</clipPath>
</defs>
</svg>
