<svg width="284" height="132" viewBox="0 0 284 132" fill="none" xmlns="http://www.w3.org/2000/svg">
<path d="M37.6393 112.327C37.6393 102.21 29.4373 94.0076 19.3196 94.0076C9.20198 94.0076 1 102.21 1 112.327C1 122.445 9.20198 130.647 19.3196 130.647C29.4373 130.647 37.6393 122.445 37.6393 112.327Z" fill="#18181B" stroke="#27272A"/>
<path d="M283.336 106.668C283.336 95.2536 274.083 86.0001 262.668 86.0001C251.253 86.0001 242 95.2536 242 106.668C242 118.083 251.253 127.337 262.668 127.337C274.083 127.337 283.336 118.083 283.336 106.668Z" fill="#18181B" stroke="#27272A"/>
<path fill-rule="evenodd" clip-rule="evenodd" d="M140.273 84.4251C140.273 87.5085 137.642 90.0081 134.399 90.0081H110.287V89.9865H93.2318C92.9875 89.9865 92.7442 89.994 92.5027 90.0081H92.1514V90.0335C86.1698 90.5521 81.4846 95.3321 81.4846 101.153L81.4837 107.072H81.494C81.3437 110.028 78.7745 112.381 75.627 112.381H28.7139V117.964H75.627C82.115 117.964 87.3742 112.965 87.3742 106.798L87.3751 100.88H87.3657C87.5076 98.0857 89.8083 95.831 92.7169 95.5914H134.399C140.886 95.5914 146.146 90.5915 146.146 84.4251L146.147 78.5064L140.273 78.5062V84.4251Z" fill="url(#paint0_linear_357_124)"/>
<path fill-rule="evenodd" clip-rule="evenodd" d="M178.566 32.2322C178.416 29.2645 175.839 26.9024 172.681 26.9024H154.638V26.803H154.175C150.921 26.803 148.283 29.3121 148.283 32.4074V42.1069L142.39 42.1067L142.391 32.4074C142.391 26.2169 147.667 21.1985 154.175 21.1985H168.475V21.2979H172.681C179.189 21.2979 184.465 26.3163 184.465 32.5069L184.466 38.4483H184.456C184.606 41.4159 187.184 43.778 190.341 43.778H206.494V43.7577H220.794C224.048 43.7577 226.686 41.2484 226.686 38.1532V32.2116L232.579 32.2118L232.578 38.1532C232.578 44.3437 227.302 49.3622 220.794 49.3622H207.448V49.3825H190.341C183.833 49.3825 178.557 44.3641 178.557 38.1736L178.556 32.2322H178.566Z" fill="url(#paint1_linear_357_124)"/>
<path fill-rule="evenodd" clip-rule="evenodd" d="M60.8953 50.6043C60.8953 53.6877 63.525 56.1872 66.769 56.1872H90.881V56.1661H107.936C108.18 56.1661 108.424 56.1732 108.665 56.1872H109.016V56.2128C114.998 56.7315 119.683 61.5118 119.683 67.3321L119.684 73.2507H119.674C119.824 76.207 122.394 78.5601 125.541 78.5601H172.454V84.1431H125.541C119.053 84.1431 113.794 79.1439 113.794 72.9771L113.793 67.0585H113.802C113.66 64.2652 111.359 62.0104 108.451 61.7703H66.769C60.2811 61.7703 55.0216 56.7711 55.0216 50.6043L55.0205 44.6856L60.8953 44.6854V50.6043Z" fill="url(#paint2_linear_357_124)"/>
<path d="M259.59 79.2239C259.59 76.1719 256.964 73.6978 253.723 73.6978H160.24V68.1719H253.723C260.204 68.1719 265.459 73.1201 265.459 79.2239L265.46 85.0821L259.59 85.0823V79.2239Z" fill="url(#paint3_linear_357_124)"/>
<path d="M175.27 83.4456C175.272 83.5792 175.271 83.7124 175.264 83.8448C175.175 85.8314 174.124 87.6598 172.448 88.7199L148.431 103.895C146.606 105.047 144.295 105.116 142.419 104.065L117.619 90.1846C115.648 89.0816 114.192 87.0018 114.205 84.8929V84.8868V57.0829C114.205 57.0819 114.205 57.081 114.205 57.08C114.22 54.9676 115.322 53.014 117.104 51.9245L117.114 51.919L140.77 37.0964C142.583 35.9907 144.853 35.9417 146.7 36.9757L146.706 36.9786L172.069 50.9617C172.07 50.9622 172.071 50.9627 172.072 50.9632C173.907 51.9916 175.071 53.949 175.117 56.0816C175.117 56.0838 175.117 56.0861 175.117 56.0883L175.269 83.4318L175.27 83.4387V83.4456Z" fill="#18181B" stroke="url(#paint4_linear_357_124)" stroke-width="2"/>
<path d="M162.516 71.4604C162.515 73.0706 162.035 74.6444 161.14 75.9828C160.245 77.3213 158.973 78.3644 157.486 78.9804C155.998 79.5965 154.361 79.7578 152.781 79.444C151.202 79.1302 149.751 78.3554 148.611 77.2175L148.544 77.1496L140.41 67.9707C139.723 67.2966 138.852 66.8404 137.906 66.6593C136.96 66.4784 135.982 66.5806 135.095 66.9534C134.208 67.3261 133.449 67.9526 132.917 68.7544C132.383 69.5563 132.099 70.4976 132.099 71.4604C132.099 72.4232 132.383 73.3645 132.917 74.1663C133.449 74.9681 134.208 75.5946 135.095 75.9674C135.982 76.3401 136.96 76.4424 137.906 76.2614C138.852 76.0804 139.723 75.6242 140.41 74.95L140.831 74.4748C141.117 74.1507 141.52 73.9536 141.952 73.9268C142.384 73.9001 142.808 74.0459 143.132 74.3322C143.457 74.6184 143.654 75.0217 143.68 75.4534C143.707 75.885 143.562 76.3096 143.275 76.6337L142.814 77.1496L142.745 77.2175C141.99 77.9746 141.093 78.5753 140.105 78.9851C139.117 79.3949 138.058 79.6058 136.988 79.6058C135.919 79.6058 134.859 79.3949 133.872 78.9851C132.884 78.5753 131.987 77.9746 131.231 77.2175C130.094 76.0782 129.319 74.6272 129.005 73.0478C128.691 71.4684 128.853 69.8315 129.469 68.3436C130.084 66.8559 131.128 65.584 132.466 64.6887C133.804 63.7934 135.378 63.3148 136.988 63.3134C138.058 63.3091 139.119 63.5182 140.107 63.9286C141.097 64.3389 141.993 64.9422 142.745 65.7031L142.814 65.7711L150.947 74.95C151.635 75.6242 152.506 76.0804 153.451 76.2614C154.397 76.4424 155.375 76.3401 156.262 75.9674C157.15 75.5946 157.907 74.9681 158.441 74.1663C158.974 73.3645 159.258 72.4232 159.258 71.4604C159.258 70.4976 158.974 69.5563 158.441 68.7544C157.907 67.9526 157.15 67.3261 156.262 66.9534C155.375 66.5806 154.397 66.4784 153.451 66.6593C152.506 66.8404 151.635 67.2966 150.947 67.9707L150.526 68.446C150.24 68.7701 149.837 68.9672 149.404 68.9939C148.973 69.0207 148.548 68.8749 148.224 68.5885C147.9 68.3023 147.703 67.899 147.677 67.4674C147.649 67.0357 147.796 66.6111 148.082 66.287L148.544 65.7711L148.611 65.7031C149.751 64.5653 151.202 63.7905 152.781 63.4767C154.361 63.163 155.998 63.3243 157.486 63.9403C158.973 64.5563 160.245 65.5994 161.14 66.9379C162.035 68.2764 162.515 69.8501 162.516 71.4604Z" fill="url(#paint5_linear_357_124)"/>
<path d="M79.9157 25.8957C79.9157 14.2215 70.4519 4.75769 58.7777 4.75769C47.1035 4.75769 37.6396 14.2215 37.6396 25.8957C37.6396 37.5699 47.1035 47.0338 58.7777 47.0338C70.4519 47.0338 79.9157 37.5699 79.9157 25.8957Z" fill="#18181B" stroke="#27272A"/>
<path d="M248.079 19.7894C248.079 9.41229 239.667 1 229.29 1C218.913 1 210.5 9.41229 210.5 19.7894C210.5 30.1665 218.913 38.5787 229.29 38.5787C239.667 38.5787 248.079 30.1665 248.079 19.7894Z" fill="#18181B" stroke="#27272A"/>
<path d="M11.9142 112L11.9247 115.868L15.2116 117.802V120.067L10.0012 117.011V110.869L11.9142 112ZM11.9142 108.132V110.386L10 109.254V106.999L11.9142 105.867L13.8378 106.999L11.9142 108.132ZM16.5842 106.999L18.4984 105.867L20.422 106.999L18.4984 108.132L16.5842 106.999Z" fill="#71717A"/>
<path d="M13.2974 115.066V112.802L15.2116 113.934V116.188L13.2974 115.066ZM16.5842 118.614L18.4984 119.746L20.422 118.614V120.868L18.4984 122L16.5842 120.868V118.614ZM23.1672 106.999L25.0814 105.867L27.005 106.999V109.254L25.0814 110.386V108.132L23.1672 106.999ZM25.0814 115.868L25.092 112L27.0062 110.868V117.01L21.7958 120.066V117.801L25.0814 115.868Z" fill="#71717A"/>
<path d="M23.7081 115.067L21.7939 116.188V113.934L23.7081 112.802V115.067Z" fill="#71717A"/>
<path d="M23.7088 108.934L23.7194 111.198L20.4231 113.132V117.01L18.5089 118.132L16.5947 117.01V113.132L13.2985 111.198V108.934L15.2209 107.801L18.4972 109.745L21.7934 107.801L23.717 108.934H23.7088ZM13.2974 105.066L18.4984 102L23.7088 105.066L21.7946 106.199L18.4984 104.255L15.2116 106.199L13.2974 105.066Z" fill="#71717A"/>
<path d="M59.2495 16V23.3932L65.4983 26.1855L59.2495 16Z" fill="#71717A" fill-opacity="0.602"/>
<path d="M59.2496 16L53 26.1855L59.2496 23.3932V16Z" fill="#71717A"/>
<path d="M59.2495 30.9764V36L65.5025 27.349L59.2495 30.9764Z" fill="#71717A" fill-opacity="0.602"/>
<path d="M59.2496 36V30.9756L53 27.349L59.2496 36Z" fill="#71717A"/>
<path d="M59.2495 29.8139L65.4983 26.1856L59.2495 23.395V29.8139Z" fill="#71717A" fill-opacity="0.2"/>
<path d="M53 26.1856L59.2496 29.8139V23.395L53 26.1856Z" fill="#71717A" fill-opacity="0.602"/>
<path d="M236.07 18.0404C236.384 15.9388 234.784 14.8091 232.596 14.0555L233.306 11.2087L231.573 10.7768L230.882 13.5486C230.427 13.4351 229.959 13.328 229.494 13.2219L230.19 10.4319L228.458 10L227.748 12.8458C227.371 12.7599 227.001 12.675 226.641 12.5857L226.643 12.5768L224.253 11.9801L223.792 13.8309C223.792 13.8309 225.078 14.1256 225.051 14.1438C225.753 14.319 225.88 14.7835 225.858 15.1516L225.05 18.3947C225.098 18.4071 225.161 18.4248 225.23 18.4525C225.172 18.4382 225.111 18.4224 225.047 18.4071L223.914 22.9502C223.828 23.1634 223.61 23.4832 223.12 23.3618C223.137 23.387 221.86 23.0474 221.86 23.0474L221 25.031L223.255 25.5931C223.675 25.6982 224.086 25.8083 224.49 25.912L223.773 28.7913L225.504 29.2232L226.214 26.3744C226.687 26.5027 227.146 26.6212 227.595 26.7327L226.888 29.5681L228.62 30L229.337 27.1261C232.292 27.6853 234.514 27.4597 235.45 24.7872C236.203 22.6353 235.412 21.394 233.857 20.5846C234.99 20.3235 235.842 19.5788 236.07 18.0404ZM232.111 23.5923C231.575 25.7441 227.952 24.5809 226.777 24.2892L227.729 20.4745C228.904 20.7677 232.67 21.3481 232.111 23.5923ZM232.647 18.0093C232.158 19.9667 229.143 18.9722 228.164 18.7284L229.027 15.2686C230.005 15.5124 233.156 15.9675 232.647 18.0093Z" fill="#71717A"/>
<mask id="mask0_357_124" style="mask-type:luminance" maskUnits="userSpaceOnUse" x="253" y="98" width="20" height="18">
<path d="M273 98H253V115.526H273V98Z" fill="white"/>
</mask>
<g mask="url(#mask0_357_124)">
<path d="M268.108 103.338C267.742 103.127 267.273 103.127 266.859 103.338L263.941 105.067L261.96 106.166L259.096 107.889C258.729 108.099 258.261 108.099 257.847 107.889L255.607 106.526C255.241 106.316 254.983 105.895 254.983 105.427V102.809C254.983 102.389 255.193 101.975 255.607 101.71L257.847 100.402C258.213 100.191 258.681 100.191 259.096 100.402L261.335 101.765C261.701 101.975 261.96 102.395 261.96 102.863V104.592L263.941 103.44V101.662C263.941 101.242 263.731 100.828 263.317 100.564L259.15 98.1019C258.783 97.8918 258.315 97.8918 257.901 98.1019L253.632 100.618C253.217 100.828 253.007 101.248 253.007 101.662V106.58C253.007 107 253.217 107.414 253.632 107.679L257.853 110.14C258.219 110.351 258.687 110.351 259.102 110.14L261.966 108.465L263.947 107.312L266.811 105.637C267.177 105.427 267.646 105.427 268.06 105.637L270.299 106.946C270.666 107.156 270.924 107.577 270.924 108.045V110.663C270.924 111.083 270.714 111.497 270.299 111.762L268.114 113.07C267.748 113.281 267.279 113.281 266.865 113.07L264.619 111.762C264.253 111.551 263.995 111.131 263.995 110.663V108.988L262.014 110.14V111.87C262.014 112.29 262.224 112.704 262.638 112.968L266.859 115.43C267.225 115.64 267.694 115.64 268.108 115.43L272.329 112.968C272.695 112.758 272.953 112.338 272.953 111.87V106.898C272.953 106.478 272.743 106.064 272.329 105.799L268.108 103.338Z" fill="#71717A"/>
</g>
<defs>
<linearGradient id="paint0_linear_357_124" x1="111.919" y1="87.5705" x2="34.5195" y2="116.099" gradientUnits="userSpaceOnUse">
<stop stop-color="#3F3F46"/>
<stop offset="0.541667" stop-color="#3F3F46"/>
<stop offset="0.973958" stop-color="#3F3F46" stop-opacity="0"/>
</linearGradient>
<linearGradient id="paint1_linear_357_124" x1="152.912" y1="43.8912" x2="234.366" y2="27.5599" gradientUnits="userSpaceOnUse">
<stop stop-color="#3F3F46"/>
<stop offset="0.541667" stop-color="#3F3F46"/>
<stop offset="0.973958" stop-color="#3F3F46" stop-opacity="0"/>
</linearGradient>
<linearGradient id="paint2_linear_357_124" x1="107.456" y1="70.2793" x2="53.2419" y2="50.3534" gradientUnits="userSpaceOnUse">
<stop stop-color="#3F3F46"/>
<stop offset="0.541667" stop-color="#3F3F46"/>
<stop offset="0.973958" stop-color="#3F3F46" stop-opacity="0"/>
</linearGradient>
<linearGradient id="paint3_linear_357_124" x1="218.478" y1="74.1135" x2="253.147" y2="100.753" gradientUnits="userSpaceOnUse">
<stop stop-color="#3F3F46"/>
<stop offset="0.541667" stop-color="#3F3F46"/>
<stop offset="0.973958" stop-color="#3F3F46" stop-opacity="0"/>
</linearGradient>
<linearGradient id="paint4_linear_357_124" x1="114.205" y1="70.5204" x2="175.271" y2="70.5204" gradientUnits="userSpaceOnUse">
<stop stop-color="#1595C2"/>
<stop offset="1" stop-color="#66BFDE"/>
</linearGradient>
<linearGradient id="paint5_linear_357_124" x1="128.849" y1="71.4596" x2="162.516" y2="71.4596" gradientUnits="userSpaceOnUse">
<stop stop-color="#1595C2"/>
<stop offset="1" stop-color="#66BFDE"/>
</linearGradient>
</defs>
</svg>
