<svg width="232" height="232" viewBox="0 0 232 232" fill="none" xmlns="http://www.w3.org/2000/svg">
<path d="M0 0V11.0476V22.0952V33.1429V44.1905V55.2381V66.2857V77.3333H11.0476H22.0952H33.1429H44.1905H55.2381H66.2857H77.3333V66.2857V55.2381V44.1905V33.1429V22.0952V11.0476V0H66.2857H55.2381H44.1905H33.1429H22.0952H11.0476H0ZM88.381 0V11.0476V22.0952H99.4286V11.0476H110.476V0H99.4286H88.381ZM110.476 11.0476V22.0952H121.524V11.0476H110.476ZM121.524 22.0952V33.1429H132.571H143.619V22.0952V11.0476V0H132.571V11.0476V22.0952H121.524ZM121.524 33.1429H110.476H99.4286H88.381V44.1905H99.4286H110.476V55.2381H99.4286V66.2857H110.476V77.3333H121.524V66.2857H132.571V77.3333H121.524V88.381H110.476V99.4286H121.524H132.571V110.476H143.619V99.4286V88.381V77.3333V66.2857V55.2381H132.571V44.1905H121.524V33.1429ZM132.571 110.476H121.524V121.524H110.476V132.571V143.619H121.524V154.667V165.714H110.476H99.4286V154.667H110.476V143.619H99.4286V132.571V121.524H88.381V110.476H99.4286V121.524H110.476V110.476V99.4286H99.4286H88.381V88.381H77.3333H66.2857H55.2381V99.4286H44.1905V110.476H33.1429V99.4286H44.1905V88.381H33.1429H22.0952V99.4286H11.0476V110.476V121.524V132.571H22.0952V121.524H33.1429H44.1905H55.2381V110.476H66.2857V99.4286H77.3333V110.476H66.2857V121.524H77.3333V132.571H66.2857V143.619H77.3333H88.381V154.667V165.714V176.762H99.4286V187.81H110.476H121.524H132.571V198.857H121.524H110.476H99.4286V187.81H88.381V198.857V209.905H99.4286V220.952H88.381V232H99.4286H110.476V220.952H121.524V232H132.571H143.619H154.667H165.714V220.952H176.762V232H187.81H198.857H209.905V220.952H198.857H187.81V209.905H176.762V198.857H165.714V209.905H154.667H143.619V220.952H132.571V209.905H143.619V198.857V187.81V176.762H154.667V165.714H143.619H132.571V154.667H143.619V143.619V132.571V121.524H132.571V110.476ZM165.714 198.857V187.81H154.667V198.857H165.714ZM187.81 209.905H198.857H209.905V198.857H198.857H187.81V209.905ZM209.905 198.857H220.952V187.81V176.762V165.714V154.667H209.905H198.857H187.81V143.619H176.762V154.667H165.714V165.714V176.762H176.762V165.714H187.81V176.762V187.81H198.857H209.905V198.857ZM176.762 143.619V132.571H165.714H154.667V143.619H165.714H176.762ZM187.81 143.619H198.857V132.571V121.524V110.476H209.905V121.524H220.952V132.571H232V121.524V110.476H220.952V99.4286H232V88.381H220.952H209.905V99.4286H198.857V88.381H187.81V99.4286H176.762V110.476H187.81V121.524V132.571V143.619ZM176.762 110.476H165.714V121.524H176.762V110.476ZM220.952 132.571H209.905V143.619H220.952V132.571ZM66.2857 132.571V121.524H55.2381V132.571H66.2857ZM55.2381 132.571H44.1905H33.1429H22.0952V143.619H33.1429H44.1905H55.2381V132.571ZM11.0476 132.571H0V143.619H11.0476V132.571ZM11.0476 99.4286V88.381H0V99.4286H11.0476ZM88.381 88.381H99.4286V77.3333V66.2857H88.381V77.3333V88.381ZM154.667 0V11.0476V22.0952V33.1429V44.1905V55.2381V66.2857V77.3333H165.714H176.762H187.81H198.857H209.905H220.952H232V66.2857V55.2381V44.1905V33.1429V22.0952V11.0476V0H220.952H209.905H198.857H187.81H176.762H165.714H154.667ZM11.0476 11.0476H22.0952H33.1429H44.1905H55.2381H66.2857V22.0952V33.1429V44.1905V55.2381V66.2857H55.2381H44.1905H33.1429H22.0952H11.0476V55.2381V44.1905V33.1429V22.0952V11.0476ZM165.714 11.0476H176.762H187.81H198.857H209.905H220.952V22.0952V33.1429V44.1905V55.2381V66.2857H209.905H198.857H187.81H176.762H165.714V55.2381V44.1905V33.1429V22.0952V11.0476ZM22.0952 22.0952V33.1429V44.1905V55.2381H33.1429H44.1905H55.2381V44.1905V33.1429V22.0952H44.1905H33.1429H22.0952ZM176.762 22.0952V33.1429V44.1905V55.2381H187.81H198.857H209.905V44.1905V33.1429V22.0952H198.857H187.81H176.762ZM154.667 88.381V99.4286H165.714V88.381H154.667ZM0 154.667V165.714V176.762V187.81V198.857V209.905V220.952V232H11.0476H22.0952H33.1429H44.1905H55.2381H66.2857H77.3333V220.952V209.905V198.857V187.81V176.762V165.714V154.667H66.2857H55.2381H44.1905H33.1429H22.0952H11.0476H0ZM11.0476 165.714H22.0952H33.1429H44.1905H55.2381H66.2857V176.762V187.81V198.857V209.905V220.952H55.2381H44.1905H33.1429H22.0952H11.0476V209.905V198.857V187.81V176.762V165.714ZM22.0952 176.762V187.81V198.857V209.905H33.1429H44.1905H55.2381V198.857V187.81V176.762H44.1905H33.1429H22.0952ZM220.952 209.905V220.952H232V209.905H220.952Z" fill="white"/>
</svg>
