<svg width="96" height="96" viewBox="0 0 96 96" fill="none" xmlns="http://www.w3.org/2000/svg">
<rect width="96" height="96" rx="25" fill="#101010"/>
<rect x="0.5" y="0.5" width="95" height="95" rx="24.5" stroke="white" stroke-opacity="0.1"/>
<path fill-rule="evenodd" clip-rule="evenodd" d="M27.7178 20.2734L16.048 44.7859C16.0036 44.8771 15.9895 44.9801 16.0078 45.0798C16.0261 45.1796 16.0759 45.2708 16.1498 45.3403L47.6672 75.5415C47.7567 75.6274 47.876 75.6753 48 75.6753C48.124 75.6753 48.2433 75.6274 48.3328 75.5415L79.8502 45.3422C79.9241 45.2727 79.9739 45.1815 79.9922 45.0817C80.0105 44.982 79.9964 44.879 79.952 44.7878L68.2822 20.2753C68.2445 20.193 68.184 20.1233 68.1077 20.0745C68.0315 20.0256 67.9428 19.9998 67.8523 20H28.1515C28.0605 19.9989 27.9712 20.0241 27.8942 20.0726C27.8173 20.1211 27.756 20.1909 27.7178 20.2734Z" fill="#50AF95"/>
<path fill-rule="evenodd" clip-rule="evenodd" d="M52.0493 47.3032C51.823 47.3201 50.654 47.3899 48.0462 47.3899C45.9721 47.3899 44.4995 47.3277 43.9828 47.3032C35.9672 46.9506 29.9843 45.5552 29.9843 43.8846C29.9843 42.214 35.9672 40.8206 43.9828 40.4623V45.9135C44.507 45.9512 46.0079 46.0398 48.082 46.0398C50.571 46.0398 51.8174 45.9361 52.0418 45.9154V40.4661C60.0404 40.8225 66.0101 42.2178 66.0101 43.8846C66.0101 45.5515 60.0423 46.9468 52.0418 47.3013L52.0493 47.3032ZM52.0493 39.9023V35.0243H63.2119V27.5857H32.8202V35.0243H43.9809V39.9004C34.9094 40.3171 28.0874 42.1141 28.0874 44.2674C28.0874 46.4207 34.9094 48.2158 43.9809 48.6344V64.2658H52.0474V48.6287C61.0982 48.212 67.9089 46.417 67.9089 44.2655C67.9089 42.1141 61.1038 40.319 52.0474 39.9004L52.0493 39.9023Z" fill="white"/>
</svg>
