<svg width="96" height="96" viewBox="0 0 96 96" fill="none" xmlns="http://www.w3.org/2000/svg">
<rect width="96" height="96" rx="25" fill="#101010"/>
<rect x="0.5" y="0.5" width="95" height="95" rx="24.5" stroke="white" stroke-opacity="0.1"/>
<g clip-path="url(#clip0_348_118)">
<path fill-rule="evenodd" clip-rule="evenodd" d="M48 16C65.6744 16 80 30.3256 80 48C80 65.6744 65.6744 80 48 80C30.3256 80 16 65.6744 16 48C16 30.3256 30.3256 16 48 16Z" fill="#F0B90B"/>
<path d="M33.5871 48L33.6102 56.4615L40.7999 60.6923V65.6462L29.4025 58.9615V45.5256L33.5871 48ZM33.5871 39.5385V44.4692L29.3999 41.9923V37.0615L33.5871 34.5846L37.7948 37.0615L33.5871 39.5385ZM43.8025 37.0615L47.9896 34.5846L52.1973 37.0615L47.9896 39.5385L43.8025 37.0615Z" fill="white"/>
<path d="M36.6128 54.7077V49.7538L40.8 52.2308V57.1615L36.6128 54.7077ZM43.8025 62.4667L47.9897 64.9436L52.1974 62.4667V67.3974L47.9897 69.8744L43.8025 67.3974V62.4667ZM58.2025 37.0615L62.3897 34.5846L66.5974 37.0615V41.9923L62.3897 44.4692V39.5385L58.2025 37.0615ZM62.3897 56.4615L62.4128 48L66.6 45.5231V58.959L55.2025 65.6436V60.6897L62.3897 56.4615Z" fill="white"/>
<path d="M59.3874 54.7077L55.2002 57.1615V52.2308L59.3874 49.7538V54.7077Z" fill="white"/>
<path d="M59.3872 41.2923L59.4102 46.2462L52.2 50.4769V58.959L48.0128 61.4128L43.8256 58.959V50.4769L36.6154 46.2462V41.2923L40.8205 38.8154L47.9872 43.0667L55.1974 38.8154L59.4051 41.2923H59.3872ZM36.6128 32.8333L47.9897 26.1256L59.3872 32.8333L55.2 35.3103L47.9897 31.059L40.8 35.3103L36.6128 32.8333Z" fill="white"/>
</g>
<defs>
<clipPath id="clip0_348_118">
<rect width="64" height="64" fill="white" transform="translate(16 16)"/>
</clipPath>
</defs>
</svg>
