<svg width="96" height="96" viewBox="0 0 96 96" fill="none" xmlns="http://www.w3.org/2000/svg">
<rect width="96" height="96" rx="25" fill="#101010"/>
<rect x="0.5" y="0.5" width="95" height="95" rx="24.5" stroke="white" stroke-opacity="0.1"/>
<path d="M79.0355 55.7416C74.7615 72.8846 57.3985 83.3176 40.2535 79.0426C23.1155 74.7686 12.6825 57.4046 16.9585 40.2626C21.2305 23.1176 38.5935 12.6836 55.7335 16.9576C72.8775 21.2316 83.3095 38.5976 79.0355 55.7416Z" fill="#F7931A"/>
<path d="M62.1053 43.4416C62.7423 39.1836 59.5003 36.8946 55.0673 35.3676L56.5053 29.5996L52.9943 28.7246L51.5943 34.3406C50.6713 34.1106 49.7233 33.8936 48.7813 33.6786L50.1913 28.0256L46.6823 27.1506L45.2433 32.9166C44.4793 32.7426 43.7293 32.5706 43.0013 32.3896L43.0053 32.3716L38.1633 31.1626L37.2293 34.9126C37.2293 34.9126 39.8343 35.5096 39.7793 35.5466C41.2013 35.9016 41.4583 36.8426 41.4153 37.5886L39.7773 44.1596C39.8753 44.1846 40.0023 44.2206 40.1423 44.2766C40.0253 44.2476 39.9003 44.2156 39.7713 44.1846L37.4753 53.3896C37.3013 53.8216 36.8603 54.4696 35.8663 54.2236C35.9013 54.2746 33.3143 53.5866 33.3143 53.5866L31.5713 57.6056L36.1403 58.7446C36.9903 58.9576 37.8233 59.1806 38.6433 59.3906L37.1903 65.2246L40.6973 66.0996L42.1363 60.3276C43.0943 60.5876 44.0243 60.8276 44.9343 61.0536L43.5003 66.7986L47.0113 67.6736L48.4643 61.8506C54.4513 62.9836 58.9533 62.5266 60.8483 57.1116C62.3753 52.7516 60.7723 50.2366 57.6223 48.5966C59.9163 48.0676 61.6443 46.5586 62.1053 43.4416ZM54.0833 54.6906C52.9983 59.0506 45.6573 56.6936 43.2773 56.1026L45.2053 48.3736C47.5853 48.9676 55.2173 50.1436 54.0833 54.6906ZM55.1693 43.3786C54.1793 47.3446 48.0693 45.3296 46.0873 44.8356L47.8353 37.8256C49.8173 38.3196 56.2003 39.2416 55.1693 43.3786Z" fill="white"/>
</svg>
