<svg width="96" height="96" viewBox="0 0 96 96" fill="none" xmlns="http://www.w3.org/2000/svg">
<rect width="96" height="96" rx="25" fill="#101010"/>
<rect x="0.5" y="0.5" width="95" height="95" rx="24.5" stroke="white" stroke-opacity="0.1"/>
<g clip-path="url(#clip0_348_119)">
<path d="M48 81C65.6731 81 80 66.6731 80 49C80 31.3269 65.6731 17 48 17C30.3269 17 16 31.3269 16 49C16 66.6731 30.3269 81 48 81Z" fill="#627EEA"/>
<path d="M48.9961 25V42.74L63.9901 49.44L48.9961 25Z" fill="white" fill-opacity="0.602"/>
<path d="M48.996 25L34 49.44L48.996 42.74V25Z" fill="white"/>
<path d="M48.9961 60.936V72.99L64.0001 52.232L48.9961 60.936Z" fill="white" fill-opacity="0.602"/>
<path d="M48.996 72.99V60.934L34 52.232L48.996 72.99Z" fill="white"/>
<path d="M48.9961 58.146L63.9901 49.44L48.9961 42.744V58.146Z" fill="white" fill-opacity="0.2"/>
<path d="M34 49.44L48.996 58.146V42.744L34 49.44Z" fill="white" fill-opacity="0.602"/>
</g>
<defs>
<clipPath id="clip0_348_119">
<rect width="64" height="64" fill="white" transform="translate(16 17)"/>
</clipPath>
</defs>
</svg>
