<svg width="96" height="96" viewBox="0 0 96 96" fill="none" xmlns="http://www.w3.org/2000/svg">
<rect width="96" height="96" rx="25" fill="#101010"/>
<rect x="0.5" y="0.5" width="95" height="95" rx="24.5" stroke="white" stroke-opacity="0.1"/>
<path d="M47.9874 16C65.6686 16 80 30.3314 80 48.0126C80 65.6938 65.6686 80.0126 48 80.0126C30.3188 80.0126 16 65.6812 16 48.0126C15.9874 30.3314 30.3188 16 47.9874 16Z" fill="#8247E5"/>
<mask id="mask0_348_121" style="mask-type:luminance" maskUnits="userSpaceOnUse" x="26" y="29" width="43" height="38">
<path d="M68.7403 29.84H26.7915V66.6003H68.7403V29.84Z" fill="white"/>
</mask>
<g mask="url(#mask0_348_121)">
<path d="M58.4773 41.0358C57.7091 40.595 56.7268 40.595 55.8578 41.0358L49.7374 44.6627L45.5815 46.9673L39.5745 50.5816C38.8063 51.0224 37.824 51.0224 36.955 50.5816L32.2577 47.7229C31.4895 47.2821 30.9479 46.4006 30.9479 45.4183V39.9275C30.9479 39.046 31.3887 38.177 32.2577 37.6229L36.955 34.8776C37.7232 34.4368 38.7055 34.4368 39.5745 34.8776L44.2718 37.7363C45.04 38.177 45.5815 39.0586 45.5815 40.0409V43.6678L49.7374 41.2499V37.5222C49.7374 36.6406 49.2966 35.7717 48.4277 35.2176L39.6878 30.0543C38.9196 29.6135 37.9373 29.6135 37.0684 30.0543L28.1144 35.3309C27.2455 35.7717 26.8047 36.6532 26.8047 37.5222V47.8362C26.8047 48.7178 27.2455 49.5867 28.1144 50.1408L36.9676 55.3042C37.7358 55.7449 38.7181 55.7449 39.5871 55.3042L45.5941 51.7906L49.75 49.3726L55.7571 45.8591C56.5253 45.4183 57.5076 45.4183 58.3765 45.8591L63.0739 48.6044C63.8421 49.0452 64.3836 49.9268 64.3836 50.909V56.3998C64.3836 57.2813 63.9428 58.1503 63.0739 58.7044L58.4898 61.4498C57.7216 61.8905 56.7394 61.8905 55.8704 61.4498L51.1604 58.7044C50.3922 58.2636 49.8507 57.3821 49.8507 56.3998V52.8862L45.6949 55.3042V58.9311C45.6949 59.8126 46.1357 60.6816 47.0046 61.2357L55.8578 66.399C56.626 66.8398 57.6083 66.8398 58.4773 66.399L67.3305 61.2357C68.0987 60.7949 68.6402 59.9134 68.6402 58.9311V48.5037C68.6402 47.6221 68.1994 46.7532 67.3305 46.1991L58.4773 41.0358Z" fill="white"/>
</g>
</svg>
