<svg width="96" height="96" viewBox="0 0 96 96" fill="none" xmlns="http://www.w3.org/2000/svg">
<rect width="96" height="96" rx="25" fill="#101010"/>
<rect x="0.5" y="0.5" width="95" height="95" rx="24.5" stroke="white" stroke-opacity="0.1"/>
<path d="M48 16C65.6707 16 80 30.3293 80 48C80 65.6707 65.6707 80 48 80C30.3293 80 16 65.6707 16 48C16 30.3293 30.3293 16 48 16Z" fill="#0033AD"/>
<path d="M38.2316 47.9461C38.1373 49.5495 39.3702 50.9238 40.9735 51.0114C41.0342 51.0114 41.0881 51.0114 41.1487 51.0114C42.7655 51.0114 44.0657 49.7112 44.0523 48.0943C44.0523 46.4775 42.7521 45.1773 41.1352 45.1907C39.5925 45.184 38.3125 46.3966 38.2316 47.9461Z" fill="white"/>
<path d="M27.3719 47.1916C26.8532 47.1579 26.4018 47.5621 26.3816 48.0808C26.3614 48.5996 26.7521 49.051 27.2709 49.0712C27.7896 49.1048 28.2275 48.7006 28.2612 48.1819C28.2949 47.6632 27.8907 47.2253 27.3719 47.1916Z" fill="white"/>
<path d="M38.0496 31.0366C38.5077 30.8076 38.6963 30.2282 38.4673 29.7701C38.2382 29.312 37.6588 29.1234 37.2007 29.3524C36.7426 29.5815 36.554 30.1474 36.7831 30.6122C37.0121 31.0838 37.578 31.2792 38.0496 31.0366Z" fill="white"/>
<path d="M41.0002 36.1903C41.7143 35.8333 42.004 34.9575 41.647 34.2434C41.2899 33.5293 40.4141 33.2396 39.7 33.5966C38.9859 33.9537 38.6962 34.8295 39.0533 35.5436C39.4103 36.2644 40.2861 36.5474 41.0002 36.1903Z" fill="white"/>
<path d="M31.0638 39.7339C31.6162 40.091 32.3572 39.9427 32.721 39.3903C33.0781 38.8379 32.9299 38.0968 32.3774 37.7331C31.825 37.376 31.084 37.5242 30.7202 38.0766C30.3496 38.6291 30.5046 39.3768 31.0638 39.7339Z" fill="white"/>
<path d="M32.8286 46.6728C32.0202 46.6257 31.3397 47.2387 31.2926 48.0472C31.2454 48.8556 31.8585 49.536 32.6669 49.5832C33.4753 49.6303 34.1557 49.0173 34.2029 48.2088C34.2433 47.4139 33.6303 46.72 32.8286 46.6728Z" fill="white"/>
<path d="M31.2185 56.4413C30.6324 56.7444 30.3898 57.4585 30.6862 58.0581C30.9894 58.6442 31.7035 58.8867 32.3031 58.5903C32.8892 58.2872 33.1317 57.5731 32.8353 56.9735C32.5389 56.3874 31.8113 56.1448 31.2185 56.4413Z" fill="white"/>
<path d="M36.8708 43.6682C37.6657 44.1869 38.7302 43.9714 39.2354 43.1697C39.7542 42.3747 39.5386 41.3103 38.7369 40.8051C37.942 40.2863 36.8775 40.5019 36.3723 41.3036C35.8603 42.0851 36.0758 43.1495 36.8708 43.6682Z" fill="white"/>
<path d="M54.8044 36.0758C55.4714 36.5137 56.3809 36.3318 56.8255 35.6581C57.2634 34.9912 57.0815 34.0817 56.4078 33.6371C55.7409 33.1992 54.8314 33.3811 54.3868 34.0547C53.9421 34.7419 54.124 35.6379 54.8044 36.0758Z" fill="white"/>
<path d="M57.782 30.949C58.2199 31.2387 58.7993 31.1107 59.0822 30.6728C59.3719 30.2349 59.2439 29.6556 58.806 29.3726C58.3681 29.0829 57.7888 29.2109 57.5058 29.6354C57.2229 30.0733 57.3509 30.6594 57.782 30.949Z" fill="white"/>
<path d="M55.02 45.1638C53.4167 45.0695 52.0356 46.3023 51.9548 47.9057C51.8605 49.509 53.0933 50.8901 54.6967 50.9709C54.7573 50.9709 54.8112 50.9709 54.8584 50.9709C56.4617 50.9709 57.7619 49.6707 57.7619 48.0539C57.7754 46.5246 56.5695 45.2446 55.02 45.1638Z" fill="white"/>
<path d="M41.9572 43.4594C42.4557 44.4362 43.4595 45.0627 44.5644 45.0627C46.1677 45.0627 47.4679 43.7625 47.4679 42.1457C47.4679 41.6943 47.3669 41.243 47.158 40.832C46.4305 39.3903 44.6789 38.811 43.2507 39.5385C41.809 40.2729 41.2296 42.0312 41.9572 43.4594Z" fill="white"/>
<path d="M64.7745 39.7339C65.3606 39.4307 65.5964 38.7099 65.2933 38.1171C64.9969 37.531 64.2693 37.2952 63.6764 37.5983C63.0903 37.9015 62.8545 38.6156 63.1442 39.2017C63.4609 39.7878 64.1817 40.0303 64.7745 39.7339Z" fill="white"/>
<path d="M57.3979 40.6568C56.5558 41.0813 56.2122 42.112 56.6366 42.9541C57.0611 43.7962 58.0918 44.1398 58.9339 43.7154C59.776 43.291 60.1196 42.2602 59.6952 41.4181C59.264 40.576 58.24 40.2392 57.3979 40.6568Z" fill="white"/>
<path d="M47.8853 30.5112C48.5455 30.5449 49.1047 30.0396 49.1519 29.3794C49.199 28.7192 48.6803 28.16 48.0201 28.1129C47.3599 28.0792 46.8007 28.571 46.7535 29.2312C46.7199 29.8981 47.2251 30.464 47.8853 30.5112Z" fill="white"/>
<path d="M47.8719 38.0362C48.8151 38.0968 49.6235 37.3693 49.6706 36.4194C49.7313 35.4762 49.0037 34.6678 48.0538 34.6206C47.1106 34.56 46.3022 35.2876 46.2551 36.2375C46.2146 37.1874 46.9287 37.9891 47.8719 38.0362Z" fill="white"/>
<path d="M38.6019 55.5183C39.444 55.0939 39.7876 54.0632 39.3631 53.221C38.9387 52.3789 37.908 52.0354 37.0659 52.4598C36.2238 52.8842 35.8802 53.9149 36.3046 54.757C36.7358 55.5992 37.7598 55.9427 38.6019 55.5183Z" fill="white"/>
<path d="M48.9837 40.5423C48.108 41.8897 48.4785 43.6884 49.8258 44.5642C51.1732 45.44 52.972 45.0695 53.8477 43.7221C54.7235 42.3747 54.353 40.576 53.0056 39.7002C52.5341 39.3903 51.9816 39.2286 51.4157 39.2286C50.4322 39.2286 49.5227 39.7204 48.9837 40.5423Z" fill="white"/>
<path d="M54.0428 52.7158C53.3152 51.2741 51.5636 50.6947 50.1354 51.4223C48.6937 52.1499 48.1144 53.9015 48.842 55.3297C49.5695 56.7714 51.3211 57.3507 52.7493 56.6232C54.1775 55.9091 54.7704 54.1777 54.0495 52.736C54.0563 52.7293 54.0563 52.7293 54.0428 52.7158Z" fill="white"/>
<path d="M59.1293 52.5069C58.3343 51.9882 57.2699 52.2038 56.7647 53.0055C56.2459 53.8004 56.4615 54.8648 57.2632 55.3701C58.0581 55.8888 59.1225 55.6733 59.6278 54.8716C60.1398 54.0901 59.9242 53.0257 59.1293 52.5069Z" fill="white"/>
<path d="M64.7073 48.1415C64.7545 47.3331 64.1414 46.6526 63.333 46.6055C62.5246 46.5583 61.8441 47.1714 61.797 47.9798C61.7498 48.7882 62.3629 49.4686 63.1713 49.5158C63.973 49.5562 64.6601 48.9364 64.7073 48.1415Z" fill="white"/>
<path d="M68.7293 47.104C68.2106 47.0703 67.7592 47.4745 67.739 47.9933C67.7188 48.512 68.1096 48.9634 68.6283 48.9836C69.147 49.0173 69.5849 48.6131 69.6186 48.0943C69.6456 47.5756 69.2548 47.1377 68.7293 47.104Z" fill="white"/>
<path d="M64.9362 56.4413C64.3838 56.0842 63.6427 56.2324 63.2789 56.7848C62.9219 57.3373 63.0701 58.0783 63.6225 58.4421C64.1749 58.7992 64.916 58.651 65.2798 58.0985C65.6503 57.5461 65.4953 56.7983 64.9362 56.4413Z" fill="white"/>
<path d="M38.2113 65.2261C37.7734 64.9364 37.194 65.0644 36.911 65.4888C36.6214 65.9267 36.7494 66.5061 37.1738 66.789C37.6117 67.0787 38.191 66.9507 38.474 66.5263C38.7772 66.1019 38.6492 65.5158 38.2113 65.2261Z" fill="white"/>
<path d="M57.9503 65.1385C57.4921 65.3676 57.3035 65.947 57.5326 66.4051C57.7616 66.8632 58.341 67.0518 58.7991 66.8227C59.2572 66.5937 59.4458 66.0278 59.2168 65.563C58.9877 65.0914 58.4218 64.896 57.9503 65.1385Z" fill="white"/>
<path d="M47.0166 55.6328C47.8924 54.2855 47.5218 52.4867 46.1745 51.5975C44.8271 50.7217 43.0284 51.0922 42.1391 52.4396C41.2498 53.787 41.6338 55.5857 42.9812 56.4749C43.4528 56.7848 44.0052 56.9465 44.5711 56.9465C45.5682 56.96 46.4776 56.4615 47.0166 55.6328Z" fill="white"/>
<path d="M41.1956 60.0994C40.5286 59.6615 39.6192 59.8434 39.1745 60.517C38.7366 61.184 38.9185 62.0935 39.5922 62.5381C40.2592 62.976 41.1686 62.7941 41.6133 62.1204C42.0646 61.4467 41.876 60.5373 41.1956 60.0994Z" fill="white"/>
<path d="M47.9863 65.664C47.3261 65.6303 46.7669 66.1356 46.7198 66.7958C46.6726 67.456 47.1914 68.0152 47.8516 68.0623C48.5118 68.096 49.0709 67.6042 49.1181 66.944C49.1518 66.277 48.6465 65.7112 47.9863 65.664Z" fill="white"/>
<path d="M48 58.1389C47.0569 58.0783 46.2484 58.8059 46.2013 59.7558C46.1407 60.6989 46.8682 61.5074 47.8181 61.5545C48.7613 61.6017 49.5697 60.8876 49.6169 59.9377C49.6708 59.0013 48.9432 58.1861 48 58.1389Z" fill="white"/>
<path d="M54.9995 59.9848C54.2854 60.3554 53.9957 61.2312 54.3662 61.9453C54.7367 62.6594 55.6125 62.9491 56.3266 62.5785C57.0407 62.2215 57.3304 61.3457 56.9734 60.6316C56.6028 59.9107 55.727 59.6143 54.9995 59.9848Z" fill="white"/>
</svg>
