<svg width="96" height="96" viewBox="0 0 96 96" fill="none" xmlns="http://www.w3.org/2000/svg">
<rect width="96" height="96" rx="25" fill="#101010"/>
<rect x="0.5" y="0.5" width="95" height="95" rx="24.5" stroke="white" stroke-opacity="0.1"/>
<path d="M56.1338 17.7218C51.9287 20.1922 49.4388 24.6534 49.4388 29.3577C49.4388 31.8281 50.4308 34.3177 51.6727 36.5388C52.6647 38.5228 53.1511 41.9855 49.6887 43.72C47.218 45.1984 43.9856 44.2128 42.5072 41.736C41.0285 39.7519 39.2941 37.7679 37.0602 36.2892C32.8551 33.8188 27.8944 33.8188 23.689 36.2892C19.4835 38.7596 17 43.232 17 47.9376C17 52.6432 19.4707 57.1027 23.688 59.5798C27.8931 62.0502 32.8538 62.0502 37.0592 59.5798C39.2931 58.3382 41.0272 56.367 42.2567 54.1331C43.2487 52.3987 45.9754 50.1651 49.4381 52.1491C51.9088 53.6275 52.6512 56.8598 51.4221 59.3302C50.1805 61.5638 49.4381 64.0409 49.4381 66.5113C49.4381 71.2221 51.9088 75.6765 56.1332 78.1472C60.3383 80.6176 65.2989 80.6176 69.5044 78.1472C73.7098 75.6768 76.2001 71.2157 76.2001 66.5113C76.2001 61.807 73.723 57.3462 69.505 54.8691C67.2711 53.6275 64.794 53.1347 62.0737 53.1347C59.8397 53.1347 56.8762 51.6563 56.8762 47.9376C56.8762 44.9616 59.1101 42.7404 62.0737 42.7404C64.5444 42.7404 67.2711 42.2476 69.505 41.006C73.7102 38.5356 76.2001 34.0745 76.2001 29.3705C76.2001 24.6665 73.723 20.2054 69.505 17.7346C67.521 16.493 65.05 16.0002 62.817 16.0002C60.5959 15.9874 58.106 16.493 56.1348 17.7218" fill="url(#paint0_linear_348_116)"/>
<defs>
<linearGradient id="paint0_linear_348_116" x1="17" y1="15.9999" x2="76.2001" y2="15.9999" gradientUnits="userSpaceOnUse">
<stop stop-color="#11AAE2"/>
<stop offset="0.59" stop-color="#0880B7"/>
<stop offset="1" stop-color="#016197"/>
</linearGradient>
</defs>
</svg>
