<svg width="282" height="136" viewBox="0 0 282 136" fill="none" xmlns="http://www.w3.org/2000/svg">
<mask id="mask0_357_123" style="mask-type:luminance" maskUnits="userSpaceOnUse" x="0" y="0" width="282" height="136">
<path d="M282 0H0V135.625H282V0Z" fill="white"/>
</mask>
<g mask="url(#mask0_357_123)">
<path d="M-14.8877 118.258H129.007" stroke="#18181B" stroke-width="2"/>
<path d="M153.815 93.4485H262.977" stroke="#18181B" stroke-width="2"/>
<path d="M-14.8877 66.9851H171.596" stroke="#18181B" stroke-width="2"/>
<path d="M-17.3691 93.4485H169.115" stroke="#18181B" stroke-width="2"/>
<path d="M169.115 66.9851H296.057" stroke="#18181B" stroke-width="2"/>
<path d="M247.264 6.61597V127.355" stroke="#18181B" stroke-width="2"/>
<path d="M220.8 29.7712V128.595" stroke="#18181B" stroke-width="2"/>
<path d="M185.24 6.20264V93.449" stroke="#18181B" stroke-width="2"/>
<path d="M-13.2344 37.214H270.42" stroke="#18181B" stroke-width="2"/>
<path d="M92.6191 11.5779V92.6219" stroke="#18181B" stroke-width="2"/>
<path d="M128.18 37.214V118.258" stroke="#18181B" stroke-width="2"/>
<path d="M19.0186 0V128.182" stroke="#18181B" stroke-width="2"/>
<path d="M55.4043 38.0403V124.873" stroke="#18181B" stroke-width="2"/>
<path opacity="0.14" d="M55.4042 69.8797C57.0027 69.8797 58.2986 68.5838 58.2986 66.9852C58.2986 65.3867 57.0027 64.0908 55.4042 64.0908C53.8056 64.0908 52.5098 65.3867 52.5098 66.9852C52.5098 68.5838 53.8056 69.8797 55.4042 69.8797Z" fill="url(#paint0_linear_357_123)"/>
<path opacity="0.14" d="M19.0341 40.1084C20.6326 40.1084 21.9285 38.8126 21.9285 37.214C21.9285 35.6155 20.6326 34.3196 19.0341 34.3196C17.4355 34.3196 16.1396 35.6155 16.1396 37.214C16.1396 38.8126 17.4355 40.1084 19.0341 40.1084Z" fill="url(#paint1_linear_357_123)"/>
<path opacity="0.14" d="M18.995 121.152C20.5936 121.152 21.8894 119.857 21.8894 118.258C21.8894 116.659 20.5936 115.364 18.995 115.364C17.3965 115.364 16.1006 116.659 16.1006 118.258C16.1006 119.857 17.3965 121.152 18.995 121.152Z" fill="url(#paint2_linear_357_123)"/>
<path opacity="0.14" d="M247.265 40.1084C248.863 40.1084 250.159 38.8126 250.159 37.214C250.159 35.6155 248.863 34.3196 247.265 34.3196C245.666 34.3196 244.37 35.6155 244.37 37.214C244.37 38.8126 245.666 40.1084 247.265 40.1084Z" fill="url(#paint3_linear_357_123)"/>
<path opacity="0.14" d="M220.801 69.8797C222.399 69.8797 223.695 68.5838 223.695 66.9852C223.695 65.3867 222.399 64.0908 220.801 64.0908C219.202 64.0908 217.906 65.3867 217.906 66.9852C217.906 68.5838 219.202 69.8797 220.801 69.8797Z" fill="url(#paint4_linear_357_123)"/>
<g filter="url(#filter0_d_357_123)">
<path d="M116.24 51.1508L137.068 38.1005C138.926 36.9648 141.237 36.9174 143.128 37.9759L165.459 50.2872C167.339 51.3393 168.52 53.3256 168.564 55.5051L168.698 79.5865C168.742 81.7579 167.652 83.7929 165.829 84.9449L144.688 98.3031C142.819 99.484 140.47 99.5502 138.551 98.4759L116.721 86.2573C114.79 85.1764 113.278 83.1115 113.292 80.8719V56.3918C113.306 54.2477 114.424 52.2608 116.24 51.1508Z" fill="#18181B"/>
<path d="M137.068 38.1005L116.24 51.1508C114.424 52.2608 113.306 54.2477 113.292 56.3918V80.8719M137.068 38.1005C138.926 36.9648 141.237 36.9174 143.128 37.9759M137.068 38.1005C138.917 36.9705 141.237 36.9178 143.128 37.9759M113.292 80.8719C113.278 83.1115 114.79 85.1764 116.721 86.2573M113.292 80.8719C113.278 83.0999 114.791 85.1764 116.721 86.2573M143.128 37.9759L165.459 50.2872M116.721 86.2573L138.551 98.4759M138.551 98.4759C140.47 99.5502 142.819 99.484 144.688 98.3031M138.551 98.4759C140.469 99.5493 142.828 99.4782 144.688 98.3031M144.688 98.3031L165.829 84.9449M165.829 84.9449C167.651 83.7937 168.742 81.7563 168.698 79.5865M165.829 84.9449C167.652 83.7929 168.742 81.7579 168.698 79.5865M168.698 79.5865L168.564 55.5051M168.564 55.5051C168.52 53.3256 167.339 51.3393 165.459 50.2872M168.564 55.5051C168.521 53.3362 167.338 51.3389 165.459 50.2872" stroke="url(#paint5_linear_357_123)" stroke-width="2"/>
</g>
</g>
<path d="M140.185 79.44V77.3235C138.704 77.1648 137.478 76.6004 136.508 75.6303C135.538 74.6426 135.035 73.3463 135 71.7413H137.91C138.087 73.2405 138.845 74.1488 140.185 74.4663V68.8576L139.286 68.5137C136.464 67.4378 135.053 65.63 135.053 63.0902C135.053 61.6087 135.52 60.427 136.455 59.5451C137.407 58.6456 138.651 58.1429 140.185 58.0371V56H141.614V58.09C142.954 58.2664 144.074 58.8132 144.974 59.7303C145.873 60.6298 146.323 61.7321 146.323 63.0373H143.413C143.219 61.9438 142.619 61.2471 141.614 60.9473V66.1856L142.408 66.503C143.854 67.0674 144.947 67.8082 145.688 68.7253C146.429 69.6248 146.799 70.7713 146.799 72.1646C146.799 73.752 146.332 74.9954 145.397 75.8949C144.462 76.7768 143.201 77.2618 141.614 77.35V79.44H140.185ZM143.889 72.244C143.889 71.0446 143.131 70.1099 141.614 69.4396V74.5456C142.284 74.4575 142.831 74.2105 143.254 73.8049C143.678 73.3816 143.889 72.8613 143.889 72.244ZM137.963 63.0637C137.963 64.1573 138.704 65.0127 140.185 65.63V60.8414C139.515 60.9296 138.977 61.1766 138.572 61.5822C138.166 61.9879 137.963 62.4817 137.963 63.0637Z" fill="url(#paint6_linear_357_123)"/>
<defs>
<filter id="filter0_d_357_123" x="95.4083" y="19.3304" width="91.1746" height="97.7908" filterUnits="userSpaceOnUse" color-interpolation-filters="sRGB">
<feFlood flood-opacity="0" result="BackgroundImageFix"/>
<feColorMatrix in="SourceAlpha" type="matrix" values="0 0 0 0 0 0 0 0 0 0 0 0 0 0 0 0 0 0 127 0" result="hardAlpha"/>
<feOffset/>
<feGaussianBlur stdDeviation="8.44184"/>
<feComposite in2="hardAlpha" operator="out"/>
<feColorMatrix type="matrix" values="0 0 0 0 1 0 0 0 0 1 0 0 0 0 1 0 0 0 0.07 0"/>
<feBlend mode="normal" in2="BackgroundImageFix" result="effect1_dropShadow_357_123"/>
<feBlend mode="normal" in="SourceGraphic" in2="effect1_dropShadow_357_123" result="shape"/>
</filter>
<linearGradient id="paint0_linear_357_123" x1="52.5098" y1="66.9852" x2="58.2986" y2="66.9852" gradientUnits="userSpaceOnUse">
<stop stop-color="#1595C2"/>
<stop offset="1" stop-color="#66BFDE"/>
</linearGradient>
<linearGradient id="paint1_linear_357_123" x1="16.1396" y1="37.214" x2="21.9285" y2="37.214" gradientUnits="userSpaceOnUse">
<stop stop-color="#1595C2"/>
<stop offset="1" stop-color="#66BFDE"/>
</linearGradient>
<linearGradient id="paint2_linear_357_123" x1="16.1006" y1="118.258" x2="21.8894" y2="118.258" gradientUnits="userSpaceOnUse">
<stop stop-color="#1595C2"/>
<stop offset="1" stop-color="#66BFDE"/>
</linearGradient>
<linearGradient id="paint3_linear_357_123" x1="244.37" y1="37.214" x2="250.159" y2="37.214" gradientUnits="userSpaceOnUse">
<stop stop-color="#1595C2"/>
<stop offset="1" stop-color="#66BFDE"/>
</linearGradient>
<linearGradient id="paint4_linear_357_123" x1="217.906" y1="66.9852" x2="223.695" y2="66.9852" gradientUnits="userSpaceOnUse">
<stop stop-color="#1595C2"/>
<stop offset="1" stop-color="#66BFDE"/>
</linearGradient>
<linearGradient id="paint5_linear_357_123" x1="113.292" y1="68.2258" x2="168.699" y2="68.2258" gradientUnits="userSpaceOnUse">
<stop stop-color="#1595C2"/>
<stop offset="1" stop-color="#66BFDE"/>
</linearGradient>
<linearGradient id="paint6_linear_357_123" x1="135" y1="67.72" x2="146.799" y2="67.72" gradientUnits="userSpaceOnUse">
<stop stop-color="#1595C2"/>
<stop offset="1" stop-color="#66BFDE"/>
</linearGradient>
</defs>
</svg>
