<svg width="517" height="451" viewBox="0 0 517 451" fill="none" xmlns="http://www.w3.org/2000/svg">
<rect x="0.5" y="0.5" width="516" height="450" rx="24.5" fill="url(#paint0_radial_434_485)" stroke="url(#paint1_linear_434_485)"/>
<path d="M92.912 51.096C92.416 51.096 92 50.952 91.664 50.664C91.3333 50.3707 91.168 49.9573 91.168 49.424H92.096C92.096 49.6747 92.176 49.872 92.336 50.016C92.496 50.1547 92.688 50.224 92.912 50.224C93.1413 50.224 93.3307 50.152 93.48 50.008C93.6347 49.864 93.712 49.648 93.712 49.36V45.32H94.648V49.44C94.648 49.9947 94.4827 50.4107 94.152 50.688C93.8267 50.96 93.4133 51.096 92.912 51.096ZM95.2351 51L97.7151 45.32H98.5311L101.011 51H100.035L99.3871 49.512H96.8431L96.2031 51H95.2351ZM98.1151 46.584L97.2031 48.68H99.0271L98.1151 46.584ZM106.695 51H105.879L102.679 46.912V51H101.743V45.32H102.559L105.751 49.4V45.32H106.695V51ZM113.401 50.136V51H109.641V50.68C109.641 50.4773 109.671 50.2853 109.729 50.104C109.793 49.9173 109.86 49.7627 109.929 49.64C109.999 49.5173 110.113 49.3813 110.273 49.232C110.433 49.0773 110.556 48.968 110.641 48.904C110.727 48.8347 110.876 48.7227 111.089 48.568C111.308 48.4133 111.447 48.3147 111.505 48.272C111.841 48.0267 112.084 47.8107 112.233 47.624C112.383 47.4373 112.457 47.2133 112.457 46.952C112.457 46.6907 112.377 46.4827 112.217 46.328C112.057 46.168 111.836 46.088 111.553 46.088C111.26 46.088 111.017 46.176 110.825 46.352C110.633 46.5227 110.535 46.7573 110.529 47.056H109.641C109.641 46.5173 109.823 46.0773 110.185 45.736C110.553 45.3947 111.012 45.224 111.561 45.224C112.068 45.224 112.492 45.3733 112.833 45.672C113.175 45.9707 113.345 46.3893 113.345 46.928C113.345 47.3547 113.247 47.7147 113.049 48.008C112.857 48.296 112.537 48.6 112.089 48.92C112.02 48.9733 111.892 49.064 111.705 49.192C111.519 49.32 111.38 49.4187 111.289 49.488C111.204 49.5573 111.111 49.6533 111.009 49.776C110.908 49.8933 110.839 50.0133 110.801 50.136H113.401ZM117.781 50.472C117.397 50.8773 116.904 51.08 116.301 51.08C115.698 51.08 115.205 50.8773 114.821 50.472C114.437 50.0613 114.245 49.536 114.245 48.896V47.408C114.245 46.768 114.437 46.2453 114.821 45.84C115.205 45.4293 115.698 45.224 116.301 45.224C116.904 45.224 117.397 45.4293 117.781 45.84C118.17 46.2453 118.365 46.768 118.365 47.408V48.896C118.365 49.536 118.17 50.0613 117.781 50.472ZM116.301 50.216C116.658 50.216 116.944 50.0987 117.157 49.864C117.376 49.6293 117.485 49.3067 117.485 48.896V47.408C117.485 46.9973 117.376 46.6747 117.157 46.44C116.944 46.2053 116.658 46.088 116.301 46.088C115.949 46.088 115.664 46.2053 115.445 46.44C115.232 46.6747 115.125 46.9973 115.125 47.408V48.896C115.125 49.3067 115.232 49.6293 115.445 49.864C115.664 50.0987 115.949 50.216 116.301 50.216ZM122.933 50.136V51H119.173V50.68C119.173 50.4773 119.202 50.2853 119.261 50.104C119.325 49.9173 119.391 49.7627 119.461 49.64C119.53 49.5173 119.645 49.3813 119.805 49.232C119.965 49.0773 120.087 48.968 120.173 48.904C120.258 48.8347 120.407 48.7227 120.621 48.568C120.839 48.4133 120.978 48.3147 121.037 48.272C121.373 48.0267 121.615 47.8107 121.765 47.624C121.914 47.4373 121.989 47.2133 121.989 46.952C121.989 46.6907 121.909 46.4827 121.749 46.328C121.589 46.168 121.367 46.088 121.085 46.088C120.791 46.088 120.549 46.176 120.357 46.352C120.165 46.5227 120.066 46.7573 120.061 47.056H119.173C119.173 46.5173 119.354 46.0773 119.717 45.736C120.085 45.3947 120.543 45.224 121.093 45.224C121.599 45.224 122.023 45.3733 122.365 45.672C122.706 45.9707 122.877 46.3893 122.877 46.928C122.877 47.3547 122.778 47.7147 122.581 48.008C122.389 48.296 122.069 48.6 121.621 48.92C121.551 48.9733 121.423 49.064 121.237 49.192C121.05 49.32 120.911 49.4187 120.821 49.488C120.735 49.5573 120.642 49.6533 120.541 49.776C120.439 49.8933 120.37 50.0133 120.333 50.136H122.933ZM125.712 51.08C125.141 51.08 124.656 50.9093 124.256 50.568C123.861 50.2267 123.659 49.776 123.648 49.216H124.528C124.549 49.52 124.669 49.7627 124.888 49.944C125.112 50.1253 125.387 50.216 125.712 50.216C126.005 50.216 126.245 50.1387 126.432 49.984C126.624 49.8293 126.723 49.616 126.728 49.344C126.728 49.0453 126.629 48.8213 126.432 48.672C126.24 48.5173 125.973 48.44 125.632 48.44H125.184V47.688H125.632C125.915 47.688 126.139 47.6133 126.304 47.464C126.475 47.3147 126.563 47.12 126.568 46.88C126.568 46.6453 126.483 46.456 126.312 46.312C126.141 46.1627 125.931 46.088 125.68 46.088C125.381 46.088 125.133 46.176 124.936 46.352C124.739 46.5227 124.64 46.7573 124.64 47.056H123.752C123.752 46.5013 123.939 46.0587 124.312 45.728C124.691 45.392 125.147 45.224 125.68 45.224C126.208 45.224 126.635 45.3733 126.96 45.672C127.291 45.9707 127.456 46.3547 127.456 46.824C127.456 47.0853 127.389 47.328 127.256 47.552C127.123 47.7707 126.957 47.9387 126.76 48.056C127.021 48.168 127.229 48.3413 127.384 48.576C127.539 48.8107 127.616 49.0853 127.616 49.4C127.616 49.896 127.437 50.3013 127.08 50.616C126.728 50.9253 126.272 51.08 125.712 51.08Z" fill="#C4C4C4"/>
<rect x="40" y="42" width="41" height="12" rx="6" fill="#1595C2"/>
<path d="M44.696 51V45.32H45.632V51H44.696ZM46.8733 51V47H47.7533V47.544C48.0039 47.128 48.4093 46.92 48.9693 46.92C49.4333 46.92 49.8039 47.072 50.0813 47.376C50.3586 47.68 50.4973 48.0853 50.4973 48.592V51H49.6173V48.736C49.6173 48.416 49.5426 48.168 49.3933 47.992C49.2439 47.8107 49.0413 47.72 48.7853 47.72C48.4813 47.72 48.2333 47.8347 48.0413 48.064C47.8493 48.2933 47.7533 48.616 47.7533 49.032V51H46.8733ZM53.4313 51.08C52.8286 51.08 52.3273 50.88 51.9273 50.48C51.5326 50.0747 51.3353 49.5813 51.3353 49C51.3353 48.4187 51.5326 47.928 51.9273 47.528C52.3273 47.1227 52.8286 46.92 53.4313 46.92C53.9486 46.92 54.3886 47.064 54.7513 47.352C55.1193 47.64 55.3566 48.0107 55.4633 48.464H54.5353C54.4553 48.24 54.3166 48.0613 54.1193 47.928C53.9273 47.7893 53.6979 47.72 53.4313 47.72C53.0793 47.72 52.7913 47.84 52.5673 48.08C52.3433 48.32 52.2313 48.6267 52.2313 49C52.2313 49.3733 52.3433 49.68 52.5673 49.92C52.7913 50.16 53.0793 50.28 53.4313 50.28C53.6979 50.28 53.9273 50.2133 54.1193 50.08C54.3166 49.9413 54.4553 49.76 54.5353 49.536H55.4633C55.3566 49.9893 55.1193 50.36 54.7513 50.648C54.3886 50.936 53.9486 51.08 53.4313 51.08ZM59.5911 50.48C59.1911 50.88 58.6951 51.08 58.1031 51.08C57.5111 51.08 57.0125 50.88 56.6071 50.48C56.2071 50.0747 56.0071 49.5813 56.0071 49C56.0071 48.4187 56.2071 47.928 56.6071 47.528C57.0125 47.1227 57.5111 46.92 58.1031 46.92C58.6951 46.92 59.1911 47.1227 59.5911 47.528C59.9965 47.928 60.1991 48.4187 60.1991 49C60.1991 49.5813 59.9965 50.0747 59.5911 50.48ZM58.1031 50.264C58.4498 50.264 58.7351 50.144 58.9591 49.904C59.1885 49.6587 59.3031 49.3573 59.3031 49C59.3031 48.6427 59.1885 48.344 58.9591 48.104C58.7351 47.8587 58.4498 47.736 58.1031 47.736C57.7511 47.736 57.4605 47.8587 57.2311 48.104C57.0071 48.344 56.8951 48.6427 56.8951 49C56.8951 49.3573 57.0071 49.6587 57.2311 49.904C57.4605 50.144 57.7511 50.264 58.1031 50.264ZM66.1802 51V48.752C66.1802 48.4267 66.1189 48.1733 65.9962 47.992C65.8789 47.8107 65.7029 47.72 65.4682 47.72C65.1855 47.72 64.9589 47.8293 64.7882 48.048C64.6175 48.2667 64.5269 48.5733 64.5162 48.968V51H63.6362V48.752C63.6362 48.4267 63.5749 48.1733 63.4522 47.992C63.3349 47.8107 63.1589 47.72 62.9242 47.72C62.6309 47.72 62.3962 47.8347 62.2202 48.064C62.0495 48.2933 61.9642 48.616 61.9642 49.032V51H61.0842V47H61.9642V47.544C62.2095 47.128 62.5882 46.92 63.1002 46.92C63.7029 46.92 64.1162 47.184 64.3402 47.712C64.4522 47.4613 64.6229 47.2667 64.8522 47.128C65.0869 46.9893 65.3429 46.92 65.6202 46.92C66.0682 46.92 66.4202 47.072 66.6762 47.376C66.9322 47.68 67.0602 48.0907 67.0602 48.608V51H66.1802ZM69.9538 51.08C69.3564 51.08 68.8658 50.8853 68.4818 50.496C68.0978 50.1013 67.9058 49.6027 67.9058 49C67.9058 48.3973 68.0951 47.9013 68.4738 47.512C68.8524 47.1173 69.3484 46.92 69.9618 46.92C70.5804 46.92 71.0791 47.136 71.4578 47.568C71.8364 47.9947 72.0044 48.544 71.9618 49.216H68.7778C68.7884 49.5253 68.9058 49.784 69.1298 49.992C69.3538 50.2 69.6391 50.304 69.9858 50.304C70.4764 50.304 70.8124 50.1173 70.9938 49.744H71.9138C71.7911 50.1333 71.5564 50.4533 71.2098 50.704C70.8631 50.9547 70.4444 51.08 69.9538 51.08ZM69.9378 47.656C69.6498 47.656 69.4018 47.7387 69.1938 47.904C68.9911 48.064 68.8604 48.2933 68.8018 48.592H71.0178C70.9538 48.2827 70.8231 48.0507 70.6258 47.896C70.4284 47.736 70.1991 47.656 69.9378 47.656ZM74.2734 51.08C73.7988 51.08 73.3988 50.9627 73.0734 50.728C72.7534 50.4933 72.5828 50.1787 72.5614 49.784H73.4734C73.5374 50.1787 73.8121 50.376 74.2974 50.376C74.4948 50.376 74.6521 50.3413 74.7694 50.272C74.8868 50.1973 74.9454 50.0907 74.9454 49.952C74.9454 49.8133 74.9001 49.704 74.8094 49.624C74.7188 49.544 74.5668 49.4773 74.3534 49.424L73.6974 49.248C73.0148 49.0667 72.6734 48.664 72.6734 48.04C72.6734 47.704 72.8094 47.4347 73.0814 47.232C73.3534 47.024 73.7134 46.92 74.1614 46.92C74.5934 46.92 74.9481 47.0293 75.2254 47.248C75.5028 47.4667 75.6574 47.7573 75.6894 48.12H74.8094C74.7241 47.7893 74.5054 47.624 74.1534 47.624C73.9774 47.624 73.8361 47.6613 73.7294 47.736C73.6228 47.8053 73.5694 47.904 73.5694 48.032C73.5694 48.2613 73.7481 48.4213 74.1054 48.512L74.7774 48.688C75.4868 48.8693 75.8414 49.272 75.8414 49.896C75.8414 50.2747 75.6948 50.568 75.4014 50.776C75.1134 50.9787 74.7374 51.08 74.2734 51.08Z" fill="#101010"/>
<path d="M42.145 97.81V94.345H51.99V84.5H55.62V94.345H65.465V97.81H55.62V107.655H51.99V97.81H42.145ZM80.5324 116.84V112.385C77.6358 112.055 75.1974 110.937 73.2174 109.03C71.2374 107.123 70.2108 104.502 70.1374 101.165H73.9874C74.6108 105.492 76.7924 107.985 80.5324 108.645V93.685L78.7174 92.915C73.2174 90.7517 70.4674 87.085 70.4674 81.915C70.4674 79.165 71.4208 76.9467 73.3274 75.26C75.2341 73.5367 77.6358 72.565 80.5324 72.345V68.11H83.5024V72.4C86.0324 72.8033 88.1774 73.8117 89.9374 75.425C91.7341 77.0383 92.6324 79.2017 92.6324 81.915H88.7824C88.5258 80.4117 87.9391 79.165 87.0224 78.175C86.1058 77.185 84.9324 76.5433 83.5024 76.25V90.385L84.7124 90.88C90.5791 93.3 93.5124 97.04 93.5124 102.1C93.5124 105.327 92.5591 107.838 90.6524 109.635C88.7824 111.395 86.3991 112.348 83.5024 112.495V116.84H80.5324ZM89.6624 102.485C89.6624 100.615 89.1491 99.1117 88.1224 97.975C87.1324 96.8017 85.5924 95.7567 83.5024 94.84V108.755C85.2991 108.572 86.7658 107.912 87.9024 106.775C89.0758 105.638 89.6624 104.208 89.6624 102.485ZM74.3174 81.97C74.3174 83.62 74.7941 85.0133 75.7474 86.15C76.7008 87.25 78.2774 88.2583 80.4774 89.175L80.5324 89.23V76.085C78.5891 76.305 77.0674 76.9467 75.9674 78.01C74.8674 79.0733 74.3174 80.3933 74.3174 81.97ZM118.131 112V100.89H96.9555V97.755L118.681 72.95H121.981V97.205H127.481V100.89H121.981V112H118.131ZM102.126 97.205H118.131V78.945L102.126 97.205ZM136.864 112V76.745H129.549L132.904 72.95H140.714V112H136.864ZM155.923 110.9L150.423 119.7H147.673L151.248 112C149.964 111.267 149.323 110.185 149.323 108.755C149.323 107.765 149.671 106.903 150.368 106.17C151.101 105.437 151.963 105.07 152.953 105.07C153.943 105.07 154.786 105.437 155.483 106.17C156.216 106.903 156.583 107.765 156.583 108.755C156.583 109.488 156.363 110.203 155.923 110.9ZM184.14 108.81C181.61 111.303 178.53 112.55 174.9 112.55C171.27 112.55 168.172 111.303 165.605 108.81C163.075 106.28 161.81 103.292 161.81 99.845C161.81 96.545 163.24 93.2817 166.1 90.055L181.17 72.95H186.175L173.47 87.36C174.167 87.1767 174.937 87.085 175.78 87.085C179.117 87.085 181.977 88.3683 184.36 90.935C186.78 93.465 187.99 96.38 187.99 99.68C187.99 103.237 186.707 106.28 184.14 108.81ZM168.41 106.17C170.17 107.93 172.334 108.81 174.9 108.81C177.467 108.81 179.63 107.93 181.39 106.17C183.15 104.373 184.03 102.21 184.03 99.68C184.03 97.15 183.15 95.005 181.39 93.245C179.63 91.4483 177.467 90.55 174.9 90.55C172.334 90.55 170.17 91.4483 168.41 93.245C166.65 95.005 165.77 97.15 165.77 99.68C165.77 102.21 166.65 104.373 168.41 106.17ZM198.257 112H193.967L212.392 76.745H191.877V72.95H217.012V76.085L198.257 112ZM232.811 112.55C229.071 112.55 225.991 111.395 223.571 109.085C221.151 106.775 219.941 103.86 219.941 100.34C219.941 97.92 220.528 95.8117 221.701 94.015C222.874 92.2183 224.506 90.8617 226.596 89.945C223.699 88.1117 222.251 85.5267 222.251 82.19C222.251 79.33 223.259 76.965 225.276 75.095C227.293 73.225 229.804 72.29 232.811 72.29C235.854 72.29 238.366 73.225 240.346 75.095C242.363 76.965 243.371 79.33 243.371 82.19C243.371 85.5267 241.959 88.1117 239.136 89.945C241.226 90.8617 242.839 92.2183 243.976 94.015C245.113 95.8117 245.681 97.92 245.681 100.34C245.681 103.897 244.489 106.83 242.106 109.14C239.759 111.413 236.661 112.55 232.811 112.55ZM232.811 108.81C235.598 108.81 237.798 108.022 239.411 106.445C241.024 104.832 241.831 102.815 241.831 100.395C241.831 97.9383 241.024 95.9217 239.411 94.345C237.798 92.7683 235.616 91.98 232.866 91.98C230.153 91.98 227.953 92.7683 226.266 94.345C224.616 95.9217 223.791 97.9383 223.791 100.395C223.791 102.778 224.616 104.777 226.266 106.39C227.953 108.003 230.134 108.81 232.811 108.81ZM232.811 88.295C234.901 88.295 236.551 87.69 237.761 86.48C238.971 85.27 239.576 83.8217 239.576 82.135C239.576 80.3383 238.971 78.8717 237.761 77.735C236.588 76.5983 234.938 76.03 232.811 76.03C230.794 76.03 229.163 76.6167 227.916 77.79C226.669 78.9267 226.046 80.375 226.046 82.135C226.046 83.8217 226.669 85.27 227.916 86.48C229.163 87.69 230.794 88.295 232.811 88.295ZM257.638 111.34C256.942 112.073 256.098 112.44 255.108 112.44C254.118 112.44 253.257 112.073 252.523 111.34C251.827 110.607 251.478 109.745 251.478 108.755C251.478 107.765 251.827 106.903 252.523 106.17C253.257 105.437 254.118 105.07 255.108 105.07C256.098 105.07 256.942 105.437 257.638 106.17C258.372 106.903 258.738 107.765 258.738 108.755C258.738 109.745 258.372 110.607 257.638 111.34ZM286.191 108.81C283.661 111.303 280.581 112.55 276.951 112.55C273.321 112.55 270.223 111.303 267.656 108.81C265.126 106.28 263.861 103.292 263.861 99.845C263.861 96.545 265.291 93.2817 268.151 90.055L283.221 72.95H288.226L275.521 87.36C276.218 87.1767 276.988 87.085 277.831 87.085C281.168 87.085 284.028 88.3683 286.411 90.935C288.831 93.465 290.041 96.38 290.041 99.68C290.041 103.237 288.758 106.28 286.191 108.81ZM270.461 106.17C272.221 107.93 274.385 108.81 276.951 108.81C279.518 108.81 281.681 107.93 283.441 106.17C285.201 104.373 286.081 102.21 286.081 99.68C286.081 97.15 285.201 95.005 283.441 93.245C281.681 91.4483 279.518 90.55 276.951 90.55C274.385 90.55 272.221 91.4483 270.461 93.245C268.701 95.005 267.821 97.15 267.821 99.68C267.821 102.21 268.701 104.373 270.461 106.17ZM300.308 112H296.018L314.443 76.745H293.928V72.95H319.063V76.085L300.308 112Z" fill="#C4C4C4"/>
<g opacity="0.92322">
<path d="M85 347L108.617 292.889C109.825 290.122 113.076 286.548 115.873 284.914L143.687 268.664C146.483 267.03 151.004 267.057 153.775 268.726L181.682 285.524C184.453 287.193 188.737 286.947 191.241 284.976L229.98 254.493C232.485 252.522 235.746 253.071 237.257 255.719L267.452 308.609C268.963 311.257 272.81 314.058 276.036 314.861L305.52 322.198C308.746 323.001 312.737 321.572 314.426 319.01L328.796 297.22C330.486 294.658 334.574 292.71 337.92 292.872L367.349 294.3C370.695 294.462 373.714 292.2 374.087 289.252L383.361 215.951C383.734 213.003 386.754 210.476 390.1 210.311L418.96 208.892C422.305 208.727 427.083 207.021 429.621 205.084L469.043 175" stroke="url(#paint2_linear_434_485)" stroke-width="2" stroke-linecap="round" stroke-linejoin="round" stroke-dasharray="8 8"/>
</g>
<path d="M85 347L126.311 335.928C130.372 334.84 135.205 331.13 137.097 327.65L145.953 311.355C147.845 307.874 152.799 305.355 157.009 305.733L188.889 308.594C193.099 308.972 198.499 306.698 200.94 303.52L217.004 282.604C219.445 279.426 224.828 277.281 229.018 277.817L257.906 281.515C262.095 282.051 265.929 279.352 266.46 275.491L271.237 240.807C271.769 236.946 275.361 232.576 279.254 231.055L294.849 224.96C298.742 223.438 303.906 224.769 306.374 227.929L336.52 266.536C338.988 269.697 342.093 269.27 343.45 265.585L354.628 235.226C355.985 231.541 360.345 229.547 364.358 230.778L395.802 240.42C399.815 241.651 404.634 239.835 406.556 236.369L418.751 214.382C420.673 210.916 425.538 207.239 429.608 206.177L476.268 194" stroke="url(#paint3_linear_434_485)" stroke-width="2" stroke-linecap="round"/>
<path d="M85 194.466L456.198 194.666" stroke="url(#paint4_linear_434_485)"/>
<path d="M41.2641 197L43.1201 194.896C43.0294 194.917 42.9201 194.928 42.7921 194.928C42.3067 194.928 41.8881 194.744 41.5361 194.376C41.1894 194.003 41.0161 193.576 41.0161 193.096C41.0161 192.579 41.2001 192.139 41.5681 191.776C41.9414 191.408 42.3921 191.224 42.9201 191.224C43.4481 191.224 43.8961 191.408 44.2641 191.776C44.6374 192.139 44.8241 192.571 44.8241 193.072C44.8241 193.552 44.6161 194.027 44.2001 194.496L41.9921 197H41.2641ZM41.9761 194.04C42.2321 194.296 42.5467 194.424 42.9201 194.424C43.2934 194.424 43.6081 194.296 43.8641 194.04C44.1201 193.779 44.2481 193.464 44.2481 193.096C44.2481 192.728 44.1201 192.416 43.8641 192.16C43.6081 191.899 43.2934 191.768 42.9201 191.768C42.5467 191.768 42.2321 191.899 41.9761 192.16C41.7201 192.416 41.5921 192.728 41.5921 193.096C41.5921 193.464 41.7201 193.779 41.9761 194.04ZM49.0054 196.496C48.6374 196.885 48.1654 197.08 47.5894 197.08C47.0134 197.08 46.5387 196.885 46.1654 196.496C45.7974 196.101 45.6134 195.595 45.6134 194.976V193.328C45.6134 192.709 45.7974 192.205 46.1654 191.816C46.5387 191.421 47.0134 191.224 47.5894 191.224C48.1654 191.224 48.6374 191.421 49.0054 191.816C49.3787 192.205 49.5654 192.709 49.5654 193.328V194.976C49.5654 195.595 49.3787 196.101 49.0054 196.496ZM46.5654 196.12C46.8267 196.397 47.168 196.536 47.5894 196.536C48.0107 196.536 48.352 196.397 48.6134 196.12C48.8747 195.837 49.0054 195.456 49.0054 194.976V193.328C49.0054 192.848 48.8747 192.469 48.6134 192.192C48.352 191.909 48.0107 191.768 47.5894 191.768C47.168 191.768 46.8267 191.909 46.5654 192.192C46.304 192.469 46.1734 192.848 46.1734 193.328V194.976C46.1734 195.456 46.304 195.837 46.5654 196.12ZM51.3381 196.84L50.5381 198.12H50.1381L50.6581 197C50.4714 196.893 50.3781 196.736 50.3781 196.528C50.3781 196.384 50.4287 196.259 50.5301 196.152C50.6367 196.045 50.7621 195.992 50.9061 195.992C51.0501 195.992 51.1727 196.045 51.2741 196.152C51.3807 196.259 51.4341 196.384 51.4341 196.528C51.4341 196.635 51.4021 196.739 51.3381 196.84ZM55.6382 196.496C55.2702 196.885 54.7982 197.08 54.2222 197.08C53.6462 197.08 53.1715 196.885 52.7982 196.496C52.4302 196.101 52.2462 195.595 52.2462 194.976V193.328C52.2462 192.709 52.4302 192.205 52.7982 191.816C53.1715 191.421 53.6462 191.224 54.2222 191.224C54.7982 191.224 55.2702 191.421 55.6382 191.816C56.0115 192.205 56.1982 192.709 56.1982 193.328V194.976C56.1982 195.595 56.0115 196.101 55.6382 196.496ZM53.1982 196.12C53.4595 196.397 53.8009 196.536 54.2222 196.536C54.6435 196.536 54.9849 196.397 55.2462 196.12C55.5075 195.837 55.6382 195.456 55.6382 194.976V193.328C55.6382 192.848 55.5075 192.469 55.2462 192.192C54.9849 191.909 54.6435 191.768 54.2222 191.768C53.8009 191.768 53.4595 191.909 53.1982 192.192C52.9369 192.469 52.8062 192.848 52.8062 193.328V194.976C52.8062 195.456 52.9369 195.837 53.1982 196.12ZM60.5991 196.496C60.2311 196.885 59.7591 197.08 59.1831 197.08C58.6071 197.08 58.1325 196.885 57.7591 196.496C57.3911 196.101 57.2071 195.595 57.2071 194.976V193.328C57.2071 192.709 57.3911 192.205 57.7591 191.816C58.1325 191.421 58.6071 191.224 59.1831 191.224C59.7591 191.224 60.2311 191.421 60.5991 191.816C60.9725 192.205 61.1591 192.709 61.1591 193.328V194.976C61.1591 195.595 60.9725 196.101 60.5991 196.496ZM58.1591 196.12C58.4205 196.397 58.7618 196.536 59.1831 196.536C59.6045 196.536 59.9458 196.397 60.2071 196.12C60.4685 195.837 60.5991 195.456 60.5991 194.976V193.328C60.5991 192.848 60.4685 192.469 60.2071 192.192C59.9458 191.909 59.6045 191.768 59.1831 191.768C58.7618 191.768 58.4205 191.909 58.1591 192.192C57.8978 192.469 57.7671 192.848 57.7671 193.328V194.976C57.7671 195.456 57.8978 195.837 58.1591 196.12ZM65.2401 197L62.9121 194.96V197H62.3521V191H62.9121V194.576L64.7921 193H65.5841L63.4801 194.76L66.0401 197H65.2401ZM69.0142 193.736H68.0222L68.2382 193.304H69.1022C69.2835 192.685 69.6302 192.184 70.1422 191.8C70.6595 191.416 71.2542 191.224 71.9262 191.224C72.5395 191.224 73.0862 191.387 73.5662 191.712C74.0515 192.032 74.4089 192.461 74.6382 193H74.0302C73.8329 192.621 73.5502 192.323 73.1822 192.104C72.8142 191.88 72.3955 191.768 71.9262 191.768C71.3982 191.768 70.9315 191.909 70.5262 192.192C70.1262 192.469 69.8462 192.84 69.6862 193.304H73.2142L72.9982 193.736H69.5822C69.5609 193.859 69.5502 194 69.5502 194.16C69.5502 194.299 69.5582 194.432 69.5742 194.56H72.5822L72.3822 194.992H69.6782C69.8382 195.467 70.1182 195.845 70.5182 196.128C70.9235 196.411 71.3929 196.552 71.9262 196.552C72.3955 196.552 72.8142 196.443 73.1822 196.224C73.5502 196 73.8329 195.699 74.0302 195.32H74.6382C74.4089 195.859 74.0515 196.291 73.5662 196.616C73.0862 196.936 72.5395 197.096 71.9262 197.096C71.2489 197.096 70.6515 196.901 70.1342 196.512C69.6169 196.123 69.2729 195.616 69.1022 194.992H68.0222L68.2382 194.56H69.0142C68.9982 194.432 68.9902 194.299 68.9902 194.16C68.9902 194.016 68.9982 193.875 69.0142 193.736Z" fill="#525252"/>
<path d="M85 245L456.198 245.189" stroke="url(#paint5_linear_434_485)"/>
<path d="M44.2081 247.536C43.8401 247.899 43.3921 248.08 42.8641 248.08C42.3361 248.08 41.8854 247.899 41.5121 247.536C41.1441 247.168 40.9601 246.733 40.9601 246.232C40.9601 245.752 41.1681 245.277 41.5841 244.808L43.7761 242.32H44.5041L42.6561 244.416C42.7574 244.389 42.8694 244.376 42.9921 244.376C43.4774 244.376 43.8934 244.563 44.2401 244.936C44.5921 245.304 44.7681 245.728 44.7681 246.208C44.7681 246.725 44.5814 247.168 44.2081 247.536ZM41.9201 247.152C42.1761 247.408 42.4907 247.536 42.8641 247.536C43.2374 247.536 43.5521 247.408 43.8081 247.152C44.0641 246.891 44.1921 246.576 44.1921 246.208C44.1921 245.84 44.0641 245.528 43.8081 245.272C43.5521 245.011 43.2374 244.88 42.8641 244.88C42.4907 244.88 42.1761 245.011 41.9201 245.272C41.6641 245.528 41.5361 245.84 41.5361 246.208C41.5361 246.576 41.6641 246.891 41.9201 247.152ZM49.0054 247.496C48.6374 247.885 48.1654 248.08 47.5894 248.08C47.0134 248.08 46.5387 247.885 46.1654 247.496C45.7974 247.101 45.6134 246.595 45.6134 245.976V244.328C45.6134 243.709 45.7974 243.205 46.1654 242.816C46.5387 242.421 47.0134 242.224 47.5894 242.224C48.1654 242.224 48.6374 242.421 49.0054 242.816C49.3787 243.205 49.5654 243.709 49.5654 244.328V245.976C49.5654 246.595 49.3787 247.101 49.0054 247.496ZM46.5654 247.12C46.8267 247.397 47.168 247.536 47.5894 247.536C48.0107 247.536 48.352 247.397 48.6134 247.12C48.8747 246.837 49.0054 246.456 49.0054 245.976V244.328C49.0054 243.848 48.8747 243.469 48.6134 243.192C48.352 242.909 48.0107 242.768 47.5894 242.768C47.168 242.768 46.8267 242.909 46.5654 243.192C46.304 243.469 46.1734 243.848 46.1734 244.328V245.976C46.1734 246.456 46.304 246.837 46.5654 247.12ZM51.3381 247.84L50.5381 249.12H50.1381L50.6581 248C50.4714 247.893 50.3781 247.736 50.3781 247.528C50.3781 247.384 50.4287 247.259 50.5301 247.152C50.6367 247.045 50.7621 246.992 50.9061 246.992C51.0501 246.992 51.1727 247.045 51.2741 247.152C51.3807 247.259 51.4341 247.384 51.4341 247.528C51.4341 247.635 51.4021 247.739 51.3381 247.84ZM55.6382 247.496C55.2702 247.885 54.7982 248.08 54.2222 248.08C53.6462 248.08 53.1715 247.885 52.7982 247.496C52.4302 247.101 52.2462 246.595 52.2462 245.976V244.328C52.2462 243.709 52.4302 243.205 52.7982 242.816C53.1715 242.421 53.6462 242.224 54.2222 242.224C54.7982 242.224 55.2702 242.421 55.6382 242.816C56.0115 243.205 56.1982 243.709 56.1982 244.328V245.976C56.1982 246.595 56.0115 247.101 55.6382 247.496ZM53.1982 247.12C53.4595 247.397 53.8009 247.536 54.2222 247.536C54.6435 247.536 54.9849 247.397 55.2462 247.12C55.5075 246.837 55.6382 246.456 55.6382 245.976V244.328C55.6382 243.848 55.5075 243.469 55.2462 243.192C54.9849 242.909 54.6435 242.768 54.2222 242.768C53.8009 242.768 53.4595 242.909 53.1982 243.192C52.9369 243.469 52.8062 243.848 52.8062 244.328V245.976C52.8062 246.456 52.9369 246.837 53.1982 247.12ZM60.5991 247.496C60.2311 247.885 59.7591 248.08 59.1831 248.08C58.6071 248.08 58.1325 247.885 57.7591 247.496C57.3911 247.101 57.2071 246.595 57.2071 245.976V244.328C57.2071 243.709 57.3911 243.205 57.7591 242.816C58.1325 242.421 58.6071 242.224 59.1831 242.224C59.7591 242.224 60.2311 242.421 60.5991 242.816C60.9725 243.205 61.1591 243.709 61.1591 244.328V245.976C61.1591 246.595 60.9725 247.101 60.5991 247.496ZM58.1591 247.12C58.4205 247.397 58.7618 247.536 59.1831 247.536C59.6045 247.536 59.9458 247.397 60.2071 247.12C60.4685 246.837 60.5991 246.456 60.5991 245.976V244.328C60.5991 243.848 60.4685 243.469 60.2071 243.192C59.9458 242.909 59.6045 242.768 59.1831 242.768C58.7618 242.768 58.4205 242.909 58.1591 243.192C57.8978 243.469 57.7671 243.848 57.7671 244.328V245.976C57.7671 246.456 57.8978 246.837 58.1591 247.12ZM65.2401 248L62.9121 245.96V248H62.3521V242H62.9121V245.576L64.7921 244H65.5841L63.4801 245.76L66.0401 248H65.2401ZM69.0142 244.736H68.0222L68.2382 244.304H69.1022C69.2835 243.685 69.6302 243.184 70.1422 242.8C70.6595 242.416 71.2542 242.224 71.9262 242.224C72.5395 242.224 73.0862 242.387 73.5662 242.712C74.0515 243.032 74.4089 243.461 74.6382 244H74.0302C73.8329 243.621 73.5502 243.323 73.1822 243.104C72.8142 242.88 72.3955 242.768 71.9262 242.768C71.3982 242.768 70.9315 242.909 70.5262 243.192C70.1262 243.469 69.8462 243.84 69.6862 244.304H73.2142L72.9982 244.736H69.5822C69.5609 244.859 69.5502 245 69.5502 245.16C69.5502 245.299 69.5582 245.432 69.5742 245.56H72.5822L72.3822 245.992H69.6782C69.8382 246.467 70.1182 246.845 70.5182 247.128C70.9235 247.411 71.3929 247.552 71.9262 247.552C72.3955 247.552 72.8142 247.443 73.1822 247.224C73.5502 247 73.8329 246.699 74.0302 246.32H74.6382C74.4089 246.859 74.0515 247.291 73.5662 247.616C73.0862 247.936 72.5395 248.096 71.9262 248.096C71.2489 248.096 70.6515 247.901 70.1342 247.512C69.6169 247.123 69.2729 246.616 69.1022 245.992H68.0222L68.2382 245.56H69.0142C68.9982 245.432 68.9902 245.299 68.9902 245.16C68.9902 245.016 68.9982 244.875 69.0142 244.736Z" fill="#525252"/>
<path d="M85 296L456.198 296.189" stroke="url(#paint6_linear_434_485)"/>
<path d="M43.8488 299V297.384H40.7688V296.928L43.9288 293.32H44.4088V296.848H45.2088V297.384H44.4088V299H43.8488ZM41.5208 296.848H43.8488V294.192L41.5208 296.848ZM47.6836 299.08C47.1823 299.08 46.7476 298.923 46.3796 298.608C46.0116 298.288 45.8223 297.917 45.8116 297.496H46.3876C46.4516 297.795 46.6036 298.043 46.8436 298.24C47.089 298.437 47.369 298.536 47.6836 298.536C48.057 298.536 48.3716 298.408 48.6276 298.152C48.8836 297.891 49.0116 297.576 49.0116 297.208C49.0116 296.835 48.889 296.52 48.6436 296.264C48.4036 296.008 48.097 295.88 47.7236 295.88C47.2383 295.88 46.8596 296.072 46.5876 296.456L46.0356 296.296L46.5956 293.32H49.2196V293.872H47.0596L46.7236 295.672C46.9956 295.448 47.345 295.336 47.7716 295.336C48.2996 295.336 48.7343 295.523 49.0756 295.896C49.417 296.269 49.5876 296.736 49.5876 297.296C49.5876 297.781 49.401 298.2 49.0276 298.552C48.6596 298.904 48.2116 299.08 47.6836 299.08ZM51.3381 298.84L50.5381 300.12H50.1381L50.6581 299C50.4714 298.893 50.3781 298.736 50.3781 298.528C50.3781 298.384 50.4287 298.259 50.5301 298.152C50.6367 298.045 50.7621 297.992 50.9061 297.992C51.0501 297.992 51.1727 298.045 51.2741 298.152C51.3807 298.259 51.4341 298.384 51.4341 298.528C51.4341 298.635 51.4021 298.739 51.3381 298.84ZM55.6382 298.496C55.2702 298.885 54.7982 299.08 54.2222 299.08C53.6462 299.08 53.1715 298.885 52.7982 298.496C52.4302 298.101 52.2462 297.595 52.2462 296.976V295.328C52.2462 294.709 52.4302 294.205 52.7982 293.816C53.1715 293.421 53.6462 293.224 54.2222 293.224C54.7982 293.224 55.2702 293.421 55.6382 293.816C56.0115 294.205 56.1982 294.709 56.1982 295.328V296.976C56.1982 297.595 56.0115 298.101 55.6382 298.496ZM53.1982 298.12C53.4595 298.397 53.8009 298.536 54.2222 298.536C54.6435 298.536 54.9849 298.397 55.2462 298.12C55.5075 297.837 55.6382 297.456 55.6382 296.976V295.328C55.6382 294.848 55.5075 294.469 55.2462 294.192C54.9849 293.909 54.6435 293.768 54.2222 293.768C53.8009 293.768 53.4595 293.909 53.1982 294.192C52.9369 294.469 52.8062 294.848 52.8062 295.328V296.976C52.8062 297.456 52.9369 297.837 53.1982 298.12ZM60.5991 298.496C60.2311 298.885 59.7591 299.08 59.1831 299.08C58.6071 299.08 58.1325 298.885 57.7591 298.496C57.3911 298.101 57.2071 297.595 57.2071 296.976V295.328C57.2071 294.709 57.3911 294.205 57.7591 293.816C58.1325 293.421 58.6071 293.224 59.1831 293.224C59.7591 293.224 60.2311 293.421 60.5991 293.816C60.9725 294.205 61.1591 294.709 61.1591 295.328V296.976C61.1591 297.595 60.9725 298.101 60.5991 298.496ZM58.1591 298.12C58.4205 298.397 58.7618 298.536 59.1831 298.536C59.6045 298.536 59.9458 298.397 60.2071 298.12C60.4685 297.837 60.5991 297.456 60.5991 296.976V295.328C60.5991 294.848 60.4685 294.469 60.2071 294.192C59.9458 293.909 59.6045 293.768 59.1831 293.768C58.7618 293.768 58.4205 293.909 58.1591 294.192C57.8978 294.469 57.7671 294.848 57.7671 295.328V296.976C57.7671 297.456 57.8978 297.837 58.1591 298.12ZM65.2401 299L62.9121 296.96V299H62.3521V293H62.9121V296.576L64.7921 295H65.5841L63.4801 296.76L66.0401 299H65.2401ZM69.0142 295.736H68.0222L68.2382 295.304H69.1022C69.2835 294.685 69.6302 294.184 70.1422 293.8C70.6595 293.416 71.2542 293.224 71.9262 293.224C72.5395 293.224 73.0862 293.387 73.5662 293.712C74.0515 294.032 74.4089 294.461 74.6382 295H74.0302C73.8329 294.621 73.5502 294.323 73.1822 294.104C72.8142 293.88 72.3955 293.768 71.9262 293.768C71.3982 293.768 70.9315 293.909 70.5262 294.192C70.1262 294.469 69.8462 294.84 69.6862 295.304H73.2142L72.9982 295.736H69.5822C69.5609 295.859 69.5502 296 69.5502 296.16C69.5502 296.299 69.5582 296.432 69.5742 296.56H72.5822L72.3822 296.992H69.6782C69.8382 297.467 70.1182 297.845 70.5182 298.128C70.9235 298.411 71.3929 298.552 71.9262 298.552C72.3955 298.552 72.8142 298.443 73.1822 298.224C73.5502 298 73.8329 297.699 74.0302 297.32H74.6382C74.4089 297.859 74.0515 298.291 73.5662 298.616C73.0862 298.936 72.5395 299.096 71.9262 299.096C71.2489 299.096 70.6515 298.901 70.1342 298.512C69.6169 298.123 69.2729 297.616 69.1022 296.992H68.0222L68.2382 296.56H69.0142C68.9982 296.432 68.9902 296.299 68.9902 296.16C68.9902 296.016 68.9982 295.875 69.0142 295.736Z" fill="#525252"/>
<path d="M85 347.864L456.198 348.054" stroke="url(#paint7_linear_434_485)"/>
<path d="M42.8604 350.08C42.2844 350.08 41.807 349.909 41.4284 349.568C41.0497 349.227 40.8604 348.805 40.8604 348.304H41.4364C41.447 348.661 41.591 348.957 41.8684 349.192C42.151 349.421 42.4817 349.536 42.8604 349.536C43.2124 349.536 43.5057 349.437 43.7404 349.24C43.9804 349.043 44.1004 348.768 44.1004 348.416C44.1004 348.037 43.9804 347.757 43.7404 347.576C43.5004 347.395 43.1724 347.304 42.7564 347.304H42.3564V346.752H42.8124C43.1217 346.752 43.3857 346.659 43.6044 346.472C43.8284 346.285 43.9404 346.048 43.9404 345.76C43.9404 345.472 43.831 345.235 43.6124 345.048C43.399 344.861 43.135 344.768 42.8204 344.768C42.4577 344.768 42.1537 344.872 41.9084 345.08C41.6684 345.288 41.543 345.592 41.5324 345.992H40.9564C40.9564 345.464 41.1324 345.037 41.4844 344.712C41.8417 344.387 42.287 344.224 42.8204 344.224C43.295 344.224 43.695 344.363 44.0204 344.64C44.351 344.917 44.5164 345.291 44.5164 345.76C44.511 346.032 44.4337 346.28 44.2844 346.504C44.1404 346.723 43.9484 346.888 43.7084 347C44.0177 347.123 44.255 347.309 44.4204 347.56C44.591 347.805 44.6764 348.091 44.6764 348.416C44.6764 348.912 44.5057 349.315 44.1644 349.624C43.8284 349.928 43.3937 350.08 42.8604 350.08ZM49.0054 349.496C48.6374 349.885 48.1654 350.08 47.5894 350.08C47.0134 350.08 46.5387 349.885 46.1654 349.496C45.7974 349.101 45.6134 348.595 45.6134 347.976V346.328C45.6134 345.709 45.7974 345.205 46.1654 344.816C46.5387 344.421 47.0134 344.224 47.5894 344.224C48.1654 344.224 48.6374 344.421 49.0054 344.816C49.3787 345.205 49.5654 345.709 49.5654 346.328V347.976C49.5654 348.595 49.3787 349.101 49.0054 349.496ZM46.5654 349.12C46.8267 349.397 47.168 349.536 47.5894 349.536C48.0107 349.536 48.352 349.397 48.6134 349.12C48.8747 348.837 49.0054 348.456 49.0054 347.976V346.328C49.0054 345.848 48.8747 345.469 48.6134 345.192C48.352 344.909 48.0107 344.768 47.5894 344.768C47.168 344.768 46.8267 344.909 46.5654 345.192C46.304 345.469 46.1734 345.848 46.1734 346.328V347.976C46.1734 348.456 46.304 348.837 46.5654 349.12ZM51.3381 349.84L50.5381 351.12H50.1381L50.6581 350C50.4714 349.893 50.3781 349.736 50.3781 349.528C50.3781 349.384 50.4287 349.259 50.5301 349.152C50.6367 349.045 50.7621 348.992 50.9061 348.992C51.0501 348.992 51.1727 349.045 51.2741 349.152C51.3807 349.259 51.4341 349.384 51.4341 349.528C51.4341 349.635 51.4021 349.739 51.3381 349.84ZM55.6382 349.496C55.2702 349.885 54.7982 350.08 54.2222 350.08C53.6462 350.08 53.1715 349.885 52.7982 349.496C52.4302 349.101 52.2462 348.595 52.2462 347.976V346.328C52.2462 345.709 52.4302 345.205 52.7982 344.816C53.1715 344.421 53.6462 344.224 54.2222 344.224C54.7982 344.224 55.2702 344.421 55.6382 344.816C56.0115 345.205 56.1982 345.709 56.1982 346.328V347.976C56.1982 348.595 56.0115 349.101 55.6382 349.496ZM53.1982 349.12C53.4595 349.397 53.8009 349.536 54.2222 349.536C54.6435 349.536 54.9849 349.397 55.2462 349.12C55.5075 348.837 55.6382 348.456 55.6382 347.976V346.328C55.6382 345.848 55.5075 345.469 55.2462 345.192C54.9849 344.909 54.6435 344.768 54.2222 344.768C53.8009 344.768 53.4595 344.909 53.1982 345.192C52.9369 345.469 52.8062 345.848 52.8062 346.328V347.976C52.8062 348.456 52.9369 348.837 53.1982 349.12ZM60.5991 349.496C60.2311 349.885 59.7591 350.08 59.1831 350.08C58.6071 350.08 58.1325 349.885 57.7591 349.496C57.3911 349.101 57.2071 348.595 57.2071 347.976V346.328C57.2071 345.709 57.3911 345.205 57.7591 344.816C58.1325 344.421 58.6071 344.224 59.1831 344.224C59.7591 344.224 60.2311 344.421 60.5991 344.816C60.9725 345.205 61.1591 345.709 61.1591 346.328V347.976C61.1591 348.595 60.9725 349.101 60.5991 349.496ZM58.1591 349.12C58.4205 349.397 58.7618 349.536 59.1831 349.536C59.6045 349.536 59.9458 349.397 60.2071 349.12C60.4685 348.837 60.5991 348.456 60.5991 347.976V346.328C60.5991 345.848 60.4685 345.469 60.2071 345.192C59.9458 344.909 59.6045 344.768 59.1831 344.768C58.7618 344.768 58.4205 344.909 58.1591 345.192C57.8978 345.469 57.7671 345.848 57.7671 346.328V347.976C57.7671 348.456 57.8978 348.837 58.1591 349.12ZM65.2401 350L62.9121 347.96V350H62.3521V344H62.9121V347.576L64.7921 346H65.5841L63.4801 347.76L66.0401 350H65.2401ZM69.0142 346.736H68.0222L68.2382 346.304H69.1022C69.2835 345.685 69.6302 345.184 70.1422 344.8C70.6595 344.416 71.2542 344.224 71.9262 344.224C72.5395 344.224 73.0862 344.387 73.5662 344.712C74.0515 345.032 74.4089 345.461 74.6382 346H74.0302C73.8329 345.621 73.5502 345.323 73.1822 345.104C72.8142 344.88 72.3955 344.768 71.9262 344.768C71.3982 344.768 70.9315 344.909 70.5262 345.192C70.1262 345.469 69.8462 345.84 69.6862 346.304H73.2142L72.9982 346.736H69.5822C69.5609 346.859 69.5502 347 69.5502 347.16C69.5502 347.299 69.5582 347.432 69.5742 347.56H72.5822L72.3822 347.992H69.6782C69.8382 348.467 70.1182 348.845 70.5182 349.128C70.9235 349.411 71.3929 349.552 71.9262 349.552C72.3955 349.552 72.8142 349.443 73.1822 349.224C73.5502 349 73.8329 348.699 74.0302 348.32H74.6382C74.4089 348.859 74.0515 349.291 73.5662 349.616C73.0862 349.936 72.5395 350.096 71.9262 350.096C71.2489 350.096 70.6515 349.901 70.1342 349.512C69.6169 349.123 69.2729 348.616 69.1022 347.992H68.0222L68.2382 347.56H69.0142C68.9982 347.432 68.9902 347.299 68.9902 347.16C68.9902 347.016 68.9982 346.875 69.0142 346.736Z" fill="#525252"/>
<rect x="399.5" y="36.5" width="77" height="23" rx="4.5" stroke="white" stroke-opacity="0.1"/>
<path d="M414.752 51V45.32H415.496V50.296H418.24V51H414.752ZM420.562 51.08C420.007 51.08 419.54 50.8773 419.162 50.472C418.788 50.0667 418.602 49.576 418.602 49C418.602 48.424 418.788 47.9333 419.162 47.528C419.54 47.1227 420.007 46.92 420.562 46.92C420.855 46.92 421.127 46.9867 421.378 47.12C421.634 47.248 421.831 47.4133 421.97 47.616V47H422.658V51H421.97V50.384C421.831 50.5867 421.634 50.7547 421.378 50.888C421.127 51.016 420.855 51.08 420.562 51.08ZM420.666 50.448C421.06 50.448 421.386 50.3093 421.642 50.032C421.898 49.7547 422.026 49.4107 422.026 49C422.026 48.5893 421.898 48.2453 421.642 47.968C421.386 47.6907 421.06 47.552 420.666 47.552C420.266 47.552 419.938 47.6907 419.682 47.968C419.426 48.2453 419.298 48.5893 419.298 49C419.298 49.4107 419.426 49.7547 419.682 50.032C419.938 50.3093 420.266 50.448 420.666 50.448ZM425.241 51.08C424.793 51.08 424.417 50.9707 424.113 50.752C423.814 50.5333 423.649 50.2293 423.617 49.84H424.321C424.363 50.064 424.47 50.2293 424.641 50.336C424.817 50.4427 425.019 50.496 425.249 50.496C425.478 50.496 425.662 50.4507 425.801 50.36C425.945 50.2693 426.017 50.1387 426.017 49.968C426.017 49.808 425.963 49.6773 425.857 49.576C425.755 49.4747 425.587 49.392 425.353 49.328L424.777 49.176C424.089 48.9947 423.745 48.6027 423.745 48C423.745 47.6747 423.873 47.4133 424.129 47.216C424.39 47.0187 424.723 46.92 425.129 46.92C425.539 46.92 425.875 47.0293 426.137 47.248C426.403 47.4613 426.553 47.7333 426.585 48.064H425.897C425.843 47.888 425.747 47.7493 425.609 47.648C425.475 47.5467 425.315 47.496 425.129 47.496C424.931 47.496 424.766 47.5413 424.633 47.632C424.505 47.7227 424.441 47.8427 424.441 47.992C424.441 48.136 424.489 48.2533 424.585 48.344C424.681 48.4347 424.835 48.5093 425.049 48.568L425.689 48.736C426.371 48.9067 426.713 49.3013 426.713 49.92C426.713 50.304 426.577 50.5947 426.305 50.792C426.033 50.984 425.678 51.08 425.241 51.08ZM429.177 51.04C428.809 51.04 428.513 50.936 428.289 50.728C428.065 50.52 427.953 50.216 427.953 49.816V47.632H427.105V47H427.953V45.888H428.641V47H429.793V47.632H428.641V49.728C428.641 49.9787 428.694 50.1547 428.801 50.256C428.907 50.3573 429.075 50.408 429.305 50.408C429.507 50.408 429.67 50.3813 429.793 50.328V50.944C429.601 51.008 429.395 51.04 429.177 51.04ZM434.329 51.08C433.764 51.08 433.284 50.9093 432.889 50.568C432.5 50.2213 432.305 49.7893 432.305 49.272H433.001C433.022 49.608 433.158 49.8827 433.409 50.096C433.66 50.304 433.966 50.408 434.329 50.408C434.66 50.408 434.934 50.3173 435.153 50.136C435.372 49.9547 435.481 49.704 435.481 49.384C435.481 49.0427 435.369 48.7867 435.145 48.616C434.926 48.4453 434.625 48.36 434.241 48.36H433.817V47.728H434.273C434.577 47.728 434.825 47.6427 435.017 47.472C435.214 47.3013 435.316 47.08 435.321 46.808C435.321 46.5413 435.222 46.3227 435.025 46.152C434.833 45.9813 434.59 45.896 434.297 45.896C433.961 45.896 433.678 45.9947 433.449 46.192C433.22 46.3893 433.105 46.664 433.105 47.016H432.401C432.401 46.472 432.582 46.0373 432.945 45.712C433.308 45.3867 433.758 45.224 434.297 45.224C434.793 45.224 435.204 45.368 435.529 45.656C435.86 45.9387 436.025 46.3147 436.025 46.784C436.02 47.056 435.945 47.3013 435.801 47.52C435.662 47.7387 435.481 47.9067 435.257 48.024C435.545 48.1413 435.772 48.3227 435.937 48.568C436.102 48.808 436.185 49.088 436.185 49.408C436.185 49.904 436.012 50.3067 435.665 50.616C435.318 50.9253 434.873 51.08 434.329 51.08ZM439.082 51.08C438.49 51.08 438.007 50.8827 437.634 50.488C437.26 50.088 437.074 49.5733 437.074 48.944V47.36C437.074 46.7307 437.26 46.2187 437.634 45.824C438.012 45.424 438.495 45.224 439.082 45.224C439.668 45.224 440.151 45.424 440.53 45.824C440.908 46.224 441.098 46.736 441.098 47.36V48.944C441.098 49.5733 440.908 50.088 440.53 50.488C440.151 50.8827 439.668 51.08 439.082 51.08ZM439.082 50.408C439.476 50.408 439.796 50.2773 440.042 50.016C440.287 49.7547 440.41 49.3973 440.41 48.944V47.36C440.41 46.9067 440.287 46.5493 440.042 46.288C439.796 46.0267 439.476 45.896 439.082 45.896C438.692 45.896 438.375 46.0267 438.13 46.288C437.884 46.5493 437.762 46.9067 437.762 47.36V48.944C437.762 49.3973 437.884 49.7547 438.13 50.016C438.375 50.2773 438.692 50.408 439.082 50.408ZM445.804 51.08C445.249 51.08 444.782 50.8773 444.404 50.472C444.03 50.0667 443.844 49.576 443.844 49C443.844 48.424 444.03 47.9333 444.404 47.528C444.782 47.1227 445.249 46.92 445.804 46.92C446.097 46.92 446.369 46.9867 446.62 47.12C446.876 47.248 447.073 47.4133 447.212 47.616V45H447.9V51H447.212V50.384C447.073 50.5867 446.876 50.7547 446.62 50.888C446.369 51.016 446.097 51.08 445.804 51.08ZM445.908 50.448C446.302 50.448 446.628 50.3093 446.884 50.032C447.14 49.7547 447.268 49.4107 447.268 49C447.268 48.5893 447.14 48.2453 446.884 47.968C446.628 47.6907 446.302 47.552 445.908 47.552C445.508 47.552 445.18 47.6907 444.924 47.968C444.668 48.2453 444.54 48.5893 444.54 49C444.54 49.4107 444.668 49.7547 444.924 50.032C445.18 50.3093 445.508 50.448 445.908 50.448ZM450.843 51.08C450.288 51.08 449.822 50.8773 449.443 50.472C449.07 50.0667 448.883 49.576 448.883 49C448.883 48.424 449.07 47.9333 449.443 47.528C449.822 47.1227 450.288 46.92 450.843 46.92C451.136 46.92 451.408 46.9867 451.659 47.12C451.915 47.248 452.112 47.4133 452.251 47.616V47H452.939V51H452.251V50.384C452.112 50.5867 451.915 50.7547 451.659 50.888C451.408 51.016 451.136 51.08 450.843 51.08ZM450.947 50.448C451.342 50.448 451.667 50.3093 451.923 50.032C452.179 49.7547 452.307 49.4107 452.307 49C452.307 48.5893 452.179 48.2453 451.923 47.968C451.667 47.6907 451.342 47.552 450.947 47.552C450.547 47.552 450.219 47.6907 449.963 47.968C449.707 48.2453 449.579 48.5893 449.579 49C449.579 49.4107 449.707 49.7547 449.963 50.032C450.219 50.3093 450.547 50.448 450.947 50.448ZM455.298 52.672H454.53L455.402 50.792L453.65 47H454.41L455.786 50.04L457.154 47H457.922L455.298 52.672ZM459.85 51.08C459.402 51.08 459.026 50.9707 458.722 50.752C458.423 50.5333 458.258 50.2293 458.226 49.84H458.93C458.973 50.064 459.079 50.2293 459.25 50.336C459.426 50.4427 459.629 50.496 459.858 50.496C460.087 50.496 460.271 50.4507 460.41 50.36C460.554 50.2693 460.626 50.1387 460.626 49.968C460.626 49.808 460.573 49.6773 460.466 49.576C460.365 49.4747 460.197 49.392 459.962 49.328L459.386 49.176C458.698 48.9947 458.354 48.6027 458.354 48C458.354 47.6747 458.482 47.4133 458.738 47.216C458.999 47.0187 459.333 46.92 459.738 46.92C460.149 46.92 460.485 47.0293 460.746 47.248C461.013 47.4613 461.162 47.7333 461.194 48.064H460.506C460.453 47.888 460.357 47.7493 460.218 47.648C460.085 47.5467 459.925 47.496 459.738 47.496C459.541 47.496 459.375 47.5413 459.242 47.632C459.114 47.7227 459.05 47.8427 459.05 47.992C459.05 48.136 459.098 48.2533 459.194 48.344C459.29 48.4347 459.445 48.5093 459.658 48.568L460.298 48.736C460.981 48.9067 461.322 49.3013 461.322 49.92C461.322 50.304 461.186 50.5947 460.914 50.792C460.642 50.984 460.287 51.08 459.85 51.08Z" fill="#838383"/>
<path d="M51.1028 138.766C50.5911 138.766 50.1777 138.371 50.1777 137.883C50.1777 137.395 50.5911 137 51.1028 137H55.728C56.2397 137 56.6531 137.395 56.6531 137.883V142.297C56.6531 142.785 56.2397 143.18 55.728 143.18C55.2163 143.18 54.803 142.785 54.803 142.297V140.015L49.906 144.686C49.5446 145.031 48.9578 145.031 48.5965 144.686L45.5525 141.781L41.5805 145.569C41.2192 145.914 40.6324 145.914 40.271 145.569C39.9097 145.224 39.9097 144.664 40.271 144.319L44.8963 139.905C45.2576 139.56 45.8444 139.56 46.2058 139.905L49.2527 142.813L53.4934 138.766H51.1028Z" fill="#23C215"/>
<path d="M62.3754 142.626V141.268H64.6434V139H66.0154V141.268H68.2834V142.626H66.0154V144.894H64.6434V142.626H62.3754ZM76.0267 144.488V146H69.4467V145.44C69.4467 145.085 69.4981 144.749 69.6007 144.432C69.7127 144.105 69.8294 143.835 69.9507 143.62C70.0721 143.405 70.2727 143.167 70.5527 142.906C70.8327 142.635 71.0474 142.444 71.1967 142.332C71.3461 142.211 71.6074 142.015 71.9807 141.744C72.3634 141.473 72.6061 141.301 72.7087 141.226C73.2967 140.797 73.7214 140.419 73.9827 140.092C74.2441 139.765 74.3747 139.373 74.3747 138.916C74.3747 138.459 74.2347 138.095 73.9547 137.824C73.6747 137.544 73.2874 137.404 72.7927 137.404C72.2794 137.404 71.8547 137.558 71.5187 137.866C71.1827 138.165 71.0101 138.575 71.0007 139.098H69.4467C69.4467 138.155 69.7641 137.385 70.3987 136.788C71.0427 136.191 71.8454 135.892 72.8067 135.892C73.6934 135.892 74.4354 136.153 75.0327 136.676C75.6301 137.199 75.9287 137.931 75.9287 138.874C75.9287 139.621 75.7561 140.251 75.4107 140.764C75.0747 141.268 74.5147 141.8 73.7307 142.36C73.6094 142.453 73.3854 142.612 73.0587 142.836C72.7321 143.06 72.4894 143.233 72.3307 143.354C72.1814 143.475 72.0181 143.643 71.8407 143.858C71.6634 144.063 71.5421 144.273 71.4767 144.488H76.0267ZM78.5667 146.112C78.2401 146.112 77.9554 145.995 77.7128 145.762C77.4794 145.519 77.3628 145.23 77.3628 144.894C77.3628 144.567 77.4794 144.283 77.7128 144.04C77.9554 143.797 78.2401 143.676 78.5667 143.676C78.9028 143.676 79.1874 143.797 79.4208 144.04C79.6634 144.283 79.7848 144.567 79.7848 144.894C79.7848 145.23 79.6634 145.519 79.4208 145.762C79.1874 145.995 78.9028 146.112 78.5667 146.112ZM81.9079 146V137.586H79.9059L81.0819 136.06H83.4479V146H81.9079ZM86.7478 146V137.586H84.7458L85.9218 136.06H88.2878V146H86.7478ZM94.0796 146H92.4556L98.7556 136.06H100.38L94.0796 146ZM100.142 146.112C99.3763 146.112 98.723 145.841 98.1816 145.3C97.6496 144.759 97.3836 144.11 97.3836 143.354C97.3836 142.589 97.6496 141.94 98.1816 141.408C98.723 140.867 99.3763 140.596 100.142 140.596C100.898 140.596 101.546 140.867 102.088 141.408C102.629 141.94 102.9 142.589 102.9 143.354C102.9 144.11 102.629 144.759 102.088 145.3C101.546 145.841 100.898 146.112 100.142 146.112ZM99.1336 144.348C99.4136 144.628 99.7496 144.768 100.142 144.768C100.534 144.768 100.86 144.633 101.122 144.362C101.392 144.082 101.528 143.746 101.528 143.354C101.528 142.962 101.392 142.631 101.122 142.36C100.86 142.08 100.534 141.94 100.142 141.94C99.7496 141.94 99.4136 142.08 99.1336 142.36C98.863 142.64 98.7276 142.971 98.7276 143.354C98.7276 143.737 98.863 144.068 99.1336 144.348ZM92.6936 141.464C91.9283 141.464 91.275 141.193 90.7336 140.652C90.2016 140.111 89.9356 139.462 89.9356 138.706C89.9356 137.941 90.2016 137.292 90.7336 136.76C91.275 136.219 91.9283 135.948 92.6936 135.948C93.4496 135.948 94.0983 136.219 94.6396 136.76C95.181 137.292 95.4516 137.941 95.4516 138.706C95.4516 139.462 95.181 140.111 94.6396 140.652C94.0983 141.193 93.4496 141.464 92.6936 141.464ZM92.6936 140.12C93.0763 140.12 93.403 139.98 93.6736 139.7C93.9536 139.42 94.0936 139.089 94.0936 138.706C94.0936 138.323 93.9536 137.992 93.6736 137.712C93.403 137.432 93.0763 137.292 92.6936 137.292C92.3016 137.292 91.9703 137.432 91.6996 137.712C91.429 137.983 91.2936 138.314 91.2936 138.706C91.2936 139.098 91.429 139.434 91.6996 139.714C91.9703 139.985 92.3016 140.12 92.6936 140.12Z" fill="#23C215"/>
<path d="M108.793 146L106.021 140H107.173L109.225 144.548L111.277 140H112.429L109.657 146H108.793ZM115.334 146.12C114.662 146.12 114.098 145.956 113.642 145.628C113.194 145.3 112.946 144.844 112.898 144.26H113.954C114.018 144.596 114.178 144.844 114.434 145.004C114.698 145.164 115.002 145.244 115.346 145.244C115.69 145.244 115.966 145.176 116.174 145.04C116.39 144.904 116.498 144.708 116.498 144.452C116.498 144.212 116.418 144.016 116.258 143.864C116.106 143.712 115.854 143.588 115.502 143.492L114.638 143.264C113.606 142.992 113.09 142.404 113.09 141.5C113.09 141.012 113.282 140.62 113.666 140.324C114.058 140.028 114.558 139.88 115.166 139.88C115.782 139.88 116.286 140.044 116.678 140.372C117.078 140.692 117.302 141.1 117.35 141.596H116.318C116.238 141.332 116.094 141.124 115.886 140.972C115.686 140.82 115.446 140.744 115.166 140.744C114.87 140.744 114.622 140.812 114.422 140.948C114.23 141.084 114.134 141.264 114.134 141.488C114.134 141.704 114.206 141.88 114.35 142.016C114.494 142.152 114.726 142.264 115.046 142.352L116.006 142.604C117.03 142.86 117.542 143.452 117.542 144.38C117.542 144.956 117.338 145.392 116.93 145.688C116.522 145.976 115.99 146.12 115.334 146.12ZM121.898 146V137H122.93V146H121.898ZM127.358 146.12C126.526 146.12 125.826 145.816 125.258 145.208C124.698 144.6 124.418 143.864 124.418 143C124.418 142.136 124.698 141.4 125.258 140.792C125.826 140.184 126.526 139.88 127.358 139.88C127.798 139.88 128.206 139.98 128.582 140.18C128.966 140.372 129.262 140.62 129.47 140.924V140H130.502V146H129.47V145.076C129.262 145.38 128.966 145.632 128.582 145.832C128.206 146.024 127.798 146.12 127.358 146.12ZM127.514 145.172C128.106 145.172 128.594 144.964 128.978 144.548C129.362 144.132 129.554 143.616 129.554 143C129.554 142.384 129.362 141.868 128.978 141.452C128.594 141.036 128.106 140.828 127.514 140.828C126.914 140.828 126.422 141.036 126.038 141.452C125.654 141.868 125.462 142.384 125.462 143C125.462 143.616 125.654 144.132 126.038 144.548C126.422 144.964 126.914 145.172 127.514 145.172ZM134.377 146.12C133.705 146.12 133.141 145.956 132.685 145.628C132.237 145.3 131.989 144.844 131.941 144.26H132.997C133.061 144.596 133.221 144.844 133.477 145.004C133.741 145.164 134.045 145.244 134.389 145.244C134.733 145.244 135.009 145.176 135.217 145.04C135.433 144.904 135.541 144.708 135.541 144.452C135.541 144.212 135.461 144.016 135.301 143.864C135.149 143.712 134.897 143.588 134.545 143.492L133.681 143.264C132.649 142.992 132.133 142.404 132.133 141.5C132.133 141.012 132.325 140.62 132.709 140.324C133.101 140.028 133.601 139.88 134.209 139.88C134.825 139.88 135.329 140.044 135.721 140.372C136.121 140.692 136.345 141.1 136.393 141.596H135.361C135.281 141.332 135.137 141.124 134.929 140.972C134.729 140.82 134.489 140.744 134.209 140.744C133.913 140.744 133.665 140.812 133.465 140.948C133.273 141.084 133.177 141.264 133.177 141.488C133.177 141.704 133.249 141.88 133.393 142.016C133.537 142.152 133.769 142.264 134.089 142.352L135.049 142.604C136.073 142.86 136.585 143.452 136.585 144.38C136.585 144.956 136.381 145.392 135.973 145.688C135.565 145.976 135.033 146.12 134.377 146.12ZM140.28 146.06C139.728 146.06 139.284 145.904 138.948 145.592C138.612 145.28 138.444 144.824 138.444 144.224V140.948H137.172V140H138.444V138.332H139.476V140H141.204V140.948H139.476V144.092C139.476 144.468 139.556 144.732 139.716 144.884C139.876 145.036 140.128 145.112 140.472 145.112C140.776 145.112 141.02 145.072 141.204 144.992V145.916C140.916 146.012 140.608 146.06 140.28 146.06ZM148.009 146.12C147.161 146.12 146.441 145.864 145.849 145.352C145.265 144.832 144.973 144.184 144.973 143.408H146.017C146.049 143.912 146.253 144.324 146.629 144.644C147.005 144.956 147.465 145.112 148.009 145.112C148.505 145.112 148.917 144.976 149.245 144.704C149.573 144.432 149.737 144.056 149.737 143.576C149.737 143.064 149.569 142.68 149.233 142.424C148.905 142.168 148.453 142.04 147.877 142.04H147.241V141.092H147.925C148.381 141.092 148.753 140.964 149.041 140.708C149.337 140.452 149.489 140.12 149.497 139.712C149.497 139.312 149.349 138.984 149.053 138.728C148.765 138.472 148.401 138.344 147.961 138.344C147.457 138.344 147.033 138.492 146.689 138.788C146.345 139.084 146.173 139.496 146.173 140.024H145.117C145.117 139.208 145.389 138.556 145.933 138.068C146.477 137.58 147.153 137.336 147.961 137.336C148.705 137.336 149.321 137.552 149.809 137.984C150.305 138.408 150.553 138.972 150.553 139.676C150.545 140.084 150.433 140.452 150.217 140.78C150.009 141.108 149.737 141.36 149.401 141.536C149.833 141.712 150.173 141.984 150.421 142.352C150.669 142.712 150.793 143.132 150.793 143.612C150.793 144.356 150.533 144.96 150.013 145.424C149.493 145.888 148.825 146.12 148.009 146.12ZM155.138 146.12C154.25 146.12 153.526 145.824 152.966 145.232C152.406 144.632 152.126 143.86 152.126 142.916V140.54C152.126 139.596 152.406 138.828 152.966 138.236C153.534 137.636 154.258 137.336 155.138 137.336C156.018 137.336 156.742 137.636 157.31 138.236C157.878 138.836 158.162 139.604 158.162 140.54V142.916C158.162 143.86 157.878 144.632 157.31 145.232C156.742 145.824 156.018 146.12 155.138 146.12ZM155.138 145.112C155.73 145.112 156.21 144.916 156.578 144.524C156.946 144.132 157.13 143.596 157.13 142.916V140.54C157.13 139.86 156.946 139.324 156.578 138.932C156.21 138.54 155.73 138.344 155.138 138.344C154.554 138.344 154.078 138.54 153.71 138.932C153.342 139.324 153.158 139.86 153.158 140.54V142.916C153.158 143.596 153.342 144.132 153.71 144.524C154.078 144.916 154.554 145.112 155.138 145.112ZM165.221 146.12C164.389 146.12 163.689 145.816 163.121 145.208C162.561 144.6 162.281 143.864 162.281 143C162.281 142.136 162.561 141.4 163.121 140.792C163.689 140.184 164.389 139.88 165.221 139.88C165.661 139.88 166.069 139.98 166.445 140.18C166.829 140.372 167.125 140.62 167.333 140.924V137H168.365V146H167.333V145.076C167.125 145.38 166.829 145.632 166.445 145.832C166.069 146.024 165.661 146.12 165.221 146.12ZM165.377 145.172C165.969 145.172 166.457 144.964 166.841 144.548C167.225 144.132 167.417 143.616 167.417 143C167.417 142.384 167.225 141.868 166.841 141.452C166.457 141.036 165.969 140.828 165.377 140.828C164.777 140.828 164.285 141.036 163.901 141.452C163.517 141.868 163.325 142.384 163.325 143C163.325 143.616 163.517 144.132 163.901 144.548C164.285 144.964 164.777 145.172 165.377 145.172ZM172.78 146.12C171.948 146.12 171.248 145.816 170.68 145.208C170.12 144.6 169.84 143.864 169.84 143C169.84 142.136 170.12 141.4 170.68 140.792C171.248 140.184 171.948 139.88 172.78 139.88C173.22 139.88 173.628 139.98 174.004 140.18C174.388 140.372 174.684 140.62 174.892 140.924V140H175.924V146H174.892V145.076C174.684 145.38 174.388 145.632 174.004 145.832C173.628 146.024 173.22 146.12 172.78 146.12ZM172.936 145.172C173.528 145.172 174.016 144.964 174.4 144.548C174.784 144.132 174.976 143.616 174.976 143C174.976 142.384 174.784 141.868 174.4 141.452C174.016 141.036 173.528 140.828 172.936 140.828C172.336 140.828 171.844 141.036 171.46 141.452C171.076 141.868 170.884 142.384 170.884 143C170.884 143.616 171.076 144.132 171.46 144.548C171.844 144.964 172.336 145.172 172.936 145.172ZM179.463 148.508H178.311L179.619 145.688L176.991 140H178.131L180.195 144.56L182.247 140H183.399L179.463 148.508ZM186.291 146.12C185.619 146.12 185.055 145.956 184.599 145.628C184.151 145.3 183.903 144.844 183.855 144.26H184.911C184.975 144.596 185.135 144.844 185.391 145.004C185.655 145.164 185.959 145.244 186.303 145.244C186.647 145.244 186.923 145.176 187.131 145.04C187.347 144.904 187.455 144.708 187.455 144.452C187.455 144.212 187.375 144.016 187.215 143.864C187.063 143.712 186.811 143.588 186.459 143.492L185.595 143.264C184.563 142.992 184.047 142.404 184.047 141.5C184.047 141.012 184.239 140.62 184.623 140.324C185.015 140.028 185.515 139.88 186.123 139.88C186.739 139.88 187.243 140.044 187.635 140.372C188.035 140.692 188.259 141.1 188.307 141.596H187.275C187.195 141.332 187.051 141.124 186.843 140.972C186.643 140.82 186.403 140.744 186.123 140.744C185.827 140.744 185.579 140.812 185.379 140.948C185.187 141.084 185.091 141.264 185.091 141.488C185.091 141.704 185.163 141.88 185.307 142.016C185.451 142.152 185.683 142.264 186.003 142.352L186.963 142.604C187.987 142.86 188.499 143.452 188.499 144.38C188.499 144.956 188.295 145.392 187.887 145.688C187.479 145.976 186.947 146.12 186.291 146.12Z" fill="#C4C4C4"/>
<defs>
<radialGradient id="paint0_radial_434_485" cx="0" cy="0" r="1" gradientUnits="userSpaceOnUse" gradientTransform="translate(136.293 64.4321) scale(334.096 334.747)">
<stop stop-color="#1A1A1A"/>
<stop offset="0.5" stop-color="#151515"/>
<stop offset="1" stop-color="#101010"/>
</radialGradient>
<linearGradient id="paint1_linear_434_485" x1="142.994" y1="184.126" x2="47.1001" y2="1.44213" gradientUnits="userSpaceOnUse">
<stop stop-color="white" stop-opacity="0"/>
<stop offset="0.17" stop-color="white" stop-opacity="0.05"/>
<stop offset="0.33" stop-color="white" stop-opacity="0.1"/>
</linearGradient>
<linearGradient id="paint2_linear_434_485" x1="108.107" y1="321.521" x2="437.226" y2="144.604" gradientUnits="userSpaceOnUse">
<stop offset="0.18" stop-color="white" stop-opacity="0.1"/>
<stop offset="0.59" stop-color="white" stop-opacity="0.2"/>
<stop offset="1" stop-color="white" stop-opacity="0.3"/>
</linearGradient>
<linearGradient id="paint3_linear_434_485" x1="161.253" y1="278.963" x2="375.008" y2="164.624" gradientUnits="userSpaceOnUse">
<stop stop-color="#1595C2"/>
<stop offset="0.5" stop-color="#0386B4"/>
<stop offset="1" stop-color="#47BEE8"/>
</linearGradient>
<linearGradient id="paint4_linear_434_485" x1="225.786" y1="217.945" x2="428.572" y2="217.945" gradientUnits="userSpaceOnUse">
<stop stop-color="white" stop-opacity="0.08"/>
<stop offset="0.5" stop-color="white" stop-opacity="0.04"/>
<stop offset="1" stop-color="white" stop-opacity="0"/>
</linearGradient>
<linearGradient id="paint5_linear_434_485" x1="225.786" y1="267.17" x2="371.064" y2="267.17" gradientUnits="userSpaceOnUse">
<stop stop-color="white" stop-opacity="0.07"/>
<stop offset="0.5" stop-color="white" stop-opacity="0.035"/>
<stop offset="1" stop-color="white" stop-opacity="0"/>
</linearGradient>
<linearGradient id="paint6_linear_434_485" x1="225.786" y1="318.17" x2="371.064" y2="318.17" gradientUnits="userSpaceOnUse">
<stop stop-color="white" stop-opacity="0.07"/>
<stop offset="0.5" stop-color="white" stop-opacity="0.035"/>
<stop offset="1" stop-color="white" stop-opacity="0"/>
</linearGradient>
<linearGradient id="paint7_linear_434_485" x1="225.786" y1="370.034" x2="336.454" y2="370.034" gradientUnits="userSpaceOnUse">
<stop stop-color="white" stop-opacity="0.06"/>
<stop offset="0.5" stop-color="white" stop-opacity="0.03"/>
<stop offset="1" stop-color="white" stop-opacity="0"/>
</linearGradient>
</defs>
</svg>
