<svg width="489" height="346" viewBox="0 0 489 346" fill="none" xmlns="http://www.w3.org/2000/svg">
<g filter="url(#filter0_d_542_571)">
<rect x="7" y="6" width="475" height="332" rx="20.87" fill="url(#paint0_radial_542_571)"/>
<rect x="7.32209" y="6.32209" width="474.356" height="331.356" rx="20.5479" stroke="url(#paint1_linear_542_571)" stroke-width="0.644186"/>
</g>
<path d="M38.4413 34.0371V27.6262H36.1635V26.7192H41.6571V27.6262H39.3793V34.0371H38.4413ZM44.0635 34.1402C43.287 34.1402 42.6411 33.8825 42.1258 33.3672C41.6173 32.8449 41.363 32.2093 41.363 31.4604C41.363 30.7114 41.6173 30.0792 42.1258 29.5639C42.6411 29.0417 43.287 28.7806 44.0635 28.7806C44.8331 28.7806 45.4721 29.0417 45.9806 29.5639C46.4959 30.0792 46.7536 30.7114 46.7536 31.4604C46.7536 32.2093 46.4959 32.8449 45.9806 33.3672C45.4721 33.8825 44.8331 34.1402 44.0635 34.1402ZM42.7648 32.7797C43.1015 33.137 43.5344 33.3156 44.0635 33.3156C44.5926 33.3156 45.022 33.137 45.3518 32.7797C45.6817 32.4223 45.8466 31.9826 45.8466 31.4604C45.8466 30.9381 45.6817 30.4984 45.3518 30.1411C45.022 29.7838 44.5926 29.6051 44.0635 29.6051C43.5344 29.6051 43.1015 29.7838 42.7648 30.1411C42.435 30.4984 42.2701 30.9381 42.2701 31.4604C42.2701 31.9826 42.435 32.4223 42.7648 32.7797ZM49.9349 34.0886C49.4608 34.0886 49.0794 33.9547 48.7908 33.6867C48.5022 33.4187 48.3579 33.027 48.3579 32.5117V29.6979H47.2654V28.8836H48.3579V27.451H49.2443V28.8836H50.7285V29.6979H49.2443V32.3983C49.2443 32.7213 49.3131 32.948 49.4505 33.0786C49.5879 33.2091 49.8044 33.2744 50.0998 33.2744C50.3609 33.2744 50.5705 33.24 50.7285 33.1713V33.965C50.4812 34.0474 50.2166 34.0886 49.9349 34.0886ZM53.9136 34.1402C53.199 34.1402 52.5978 33.8791 52.1099 33.3568C51.6289 32.8346 51.3884 32.2025 51.3884 31.4604C51.3884 30.7183 51.6289 30.0861 52.1099 29.5639C52.5978 29.0417 53.199 28.7806 53.9136 28.7806C54.2916 28.7806 54.642 28.8664 54.965 29.0382C55.2948 29.2031 55.549 29.4161 55.7277 29.6773V28.8836H56.6141V34.0371H55.7277V33.2435C55.549 33.5046 55.2948 33.721 54.965 33.8928C54.642 34.0577 54.2916 34.1402 53.9136 34.1402ZM54.0476 33.3259C54.5561 33.3259 54.9753 33.1473 55.3051 32.79C55.6349 32.4327 55.7998 31.9895 55.7998 31.4604C55.7998 30.9313 55.6349 30.4881 55.3051 30.1308C54.9753 29.7735 54.5561 29.5948 54.0476 29.5948C53.5323 29.5948 53.1097 29.7735 52.7799 30.1308C52.4501 30.4881 52.2851 30.9313 52.2851 31.4604C52.2851 31.9895 52.4501 32.4327 52.7799 32.79C53.1097 33.1473 53.5323 33.3259 54.0476 33.3259ZM58.2826 34.0371V26.3069H59.169V34.0371H58.2826ZM65.4587 34.1402C64.7441 34.1402 64.1428 33.8791 63.6549 33.3568C63.174 32.8346 62.9335 32.2025 62.9335 31.4604C62.9335 30.7183 63.174 30.0861 63.6549 29.5639C64.1428 29.0417 64.7441 28.7806 65.4587 28.7806C65.8366 28.7806 66.187 28.8664 66.51 29.0382C66.8398 29.2031 67.094 29.4161 67.2727 29.6773V28.8836H68.1591V34.0371H67.2727V33.2435C67.094 33.5046 66.8398 33.721 66.51 33.8928C66.187 34.0577 65.8366 34.1402 65.4587 34.1402ZM65.5927 33.3259C66.1011 33.3259 66.5203 33.1473 66.8501 32.79C67.1799 32.4327 67.3448 31.9895 67.3448 31.4604C67.3448 30.9313 67.1799 30.4881 66.8501 30.1308C66.5203 29.7735 66.1011 29.5948 65.5927 29.5948C65.0773 29.5948 64.6547 29.7735 64.3249 30.1308C63.9951 30.4881 63.8302 30.9313 63.8302 31.4604C63.8302 31.9895 63.9951 32.4327 64.3249 32.79C64.6547 33.1473 65.0773 33.3259 65.5927 33.3259ZM76.4653 34.0371V31.0069C76.4653 30.5808 76.376 30.2407 76.1973 29.9865C76.0255 29.7254 75.7747 29.5948 75.4449 29.5948C75.0326 29.5948 74.6959 29.7563 74.4348 30.0792C74.1806 30.4022 74.0466 30.8419 74.0329 31.3985V34.0371H73.1465V31.0069C73.1465 30.574 73.0571 30.2304 72.8785 29.9762C72.7067 29.7219 72.4593 29.5948 72.1364 29.5948C71.7104 29.5948 71.3668 29.7666 71.1057 30.1102C70.8446 30.4468 70.714 30.9038 70.714 31.481V34.0371H69.8276V28.8836H70.714V29.6773C71.0438 29.0795 71.5626 28.7806 72.2704 28.7806C73.0537 28.7806 73.5828 29.1482 73.8576 29.8834C73.9951 29.5467 74.215 29.2787 74.5173 29.0795C74.8196 28.8802 75.1632 28.7806 75.548 28.7806C76.1046 28.7806 76.5443 28.9695 76.8673 29.3474C77.1902 29.7254 77.3517 30.2338 77.3517 30.8729V34.0371H76.4653ZM81.235 34.1402C80.4586 34.1402 79.8127 33.8825 79.2973 33.3672C78.7888 32.8449 78.5346 32.2093 78.5346 31.4604C78.5346 30.7114 78.7888 30.0792 79.2973 29.5639C79.8127 29.0417 80.4586 28.7806 81.235 28.7806C82.0046 28.7806 82.6436 29.0417 83.1521 29.5639C83.6675 30.0792 83.9251 30.7114 83.9251 31.4604C83.9251 32.2093 83.6675 32.8449 83.1521 33.3672C82.6436 33.8825 82.0046 34.1402 81.235 34.1402ZM79.9363 32.7797C80.273 33.137 80.7059 33.3156 81.235 33.3156C81.7641 33.3156 82.1936 33.137 82.5234 32.7797C82.8532 32.4223 83.0181 31.9826 83.0181 31.4604C83.0181 30.9381 82.8532 30.4984 82.5234 30.1411C82.1936 29.7838 81.7641 29.6051 81.235 29.6051C80.7059 29.6051 80.273 29.7838 79.9363 30.1411C79.6065 30.4984 79.4416 30.9381 79.4416 31.4604C79.4416 31.9826 79.6065 32.4223 79.9363 32.7797ZM87.0218 34.1402C86.4584 34.1402 86.0014 33.9512 85.651 33.5733C85.3006 33.1885 85.1253 32.68 85.1253 32.0479V28.8836H86.0117V31.9139C86.0117 32.3468 86.1148 32.6903 86.321 32.9446C86.534 33.1988 86.8191 33.3259 87.1764 33.3259C87.5887 33.3259 87.9288 33.1576 88.1968 32.8209C88.4717 32.4773 88.6091 32.0169 88.6091 31.4398V28.8836H89.4955V34.0371H88.6091V33.2435C88.2724 33.8413 87.7433 34.1402 87.0218 34.1402ZM91.1663 34.0371V28.8836H92.0527V29.6773C92.4031 29.0795 92.9494 28.7806 93.6915 28.7806C94.2756 28.7806 94.7462 28.9695 95.1035 29.3474C95.4609 29.7254 95.6395 30.2304 95.6395 30.8626V34.0371H94.7634V30.9966C94.7634 30.5637 94.6535 30.2235 94.4336 29.9762C94.2137 29.7219 93.9182 29.5948 93.5472 29.5948C93.1212 29.5948 92.7639 29.7631 92.4753 30.0998C92.1935 30.4365 92.0527 30.8969 92.0527 31.481V34.0371H91.1663ZM99.1749 34.0886C98.7008 34.0886 98.3194 33.9547 98.0308 33.6867C97.7422 33.4187 97.5979 33.027 97.5979 32.5117V29.6979H96.5054V28.8836H97.5979V27.451H98.4843V28.8836H99.9685V29.6979H98.4843V32.3983C98.4843 32.7213 98.553 32.948 98.6905 33.0786C98.8279 33.2091 99.0443 33.2744 99.3398 33.2744C99.6009 33.2744 99.8105 33.24 99.9685 33.1713V33.965C99.7212 34.0474 99.4566 34.0886 99.1749 34.0886ZM105.782 34.1402C105.033 34.1402 104.412 33.8859 103.917 33.3775C103.429 32.869 103.185 32.23 103.185 31.4604C103.185 30.6839 103.422 30.0449 103.896 29.5433C104.377 29.0348 105.013 28.7806 105.803 28.7806C106.6 28.7806 107.225 29.0623 107.679 29.6257C108.132 30.1892 108.332 30.8797 108.277 31.6974H104.082C104.095 32.1647 104.267 32.5563 104.597 32.8724C104.927 33.1816 105.325 33.3362 105.793 33.3362C106.494 33.3362 106.992 33.0476 107.287 32.4704H108.194C108.064 32.9514 107.785 33.35 107.359 33.6661C106.933 33.9821 106.408 34.1402 105.782 34.1402ZM106.792 29.9349C106.511 29.6876 106.171 29.5639 105.772 29.5639C105.374 29.5639 105.016 29.6841 104.7 29.9246C104.391 30.1651 104.199 30.5224 104.123 30.9966H107.339C107.256 30.5293 107.074 30.1754 106.792 29.9349ZM111.679 34.1402C110.964 34.1402 110.363 33.8791 109.875 33.3568C109.394 32.8346 109.154 32.2025 109.154 31.4604C109.154 30.7183 109.394 30.0861 109.875 29.5639C110.363 29.0417 110.964 28.7806 111.679 28.7806C112.057 28.7806 112.407 28.8664 112.73 29.0382C113.06 29.2031 113.314 29.4161 113.493 29.6773V28.8836H114.379V34.0371H113.493V33.2435C113.314 33.5046 113.06 33.721 112.73 33.8928C112.407 34.0577 112.057 34.1402 111.679 34.1402ZM111.813 33.3259C112.321 33.3259 112.741 33.1473 113.07 32.79C113.4 32.4327 113.565 31.9895 113.565 31.4604C113.565 30.9313 113.4 30.4881 113.07 30.1308C112.741 29.7735 112.321 29.5948 111.813 29.5948C111.298 29.5948 110.875 29.7735 110.545 30.1308C110.215 30.4881 110.051 30.9313 110.051 31.4604C110.051 31.9895 110.215 32.4327 110.545 32.79C110.875 33.1473 111.298 33.3259 111.813 33.3259ZM116.048 34.0371V28.8836H116.934V29.8834C117.031 29.5673 117.216 29.3131 117.491 29.1207C117.773 28.9283 118.068 28.8321 118.377 28.8321C118.529 28.8321 118.663 28.8458 118.779 28.8733V29.7906C118.656 29.7357 118.494 29.7082 118.295 29.7082C117.938 29.7082 117.622 29.8628 117.347 30.172C117.072 30.4812 116.934 30.9175 116.934 31.481V34.0371H116.048ZM119.822 34.0371V28.8836H120.709V29.6773C121.059 29.0795 121.606 28.7806 122.348 28.7806C122.932 28.7806 123.402 28.9695 123.76 29.3474C124.117 29.7254 124.296 30.2304 124.296 30.8626V34.0371H123.42V30.9966C123.42 30.5637 123.31 30.2235 123.09 29.9762C122.87 29.7219 122.574 29.5948 122.203 29.5948C121.777 29.5948 121.42 29.7631 121.131 30.0998C120.85 30.4365 120.709 30.8969 120.709 31.481V34.0371H119.822ZM128.087 34.1402C127.338 34.1402 126.716 33.8859 126.222 33.3775C125.734 32.869 125.49 32.23 125.49 31.4604C125.49 30.6839 125.727 30.0449 126.201 29.5433C126.682 29.0348 127.318 28.7806 128.108 28.7806C128.905 28.7806 129.53 29.0623 129.984 29.6257C130.437 30.1892 130.637 30.8797 130.582 31.6974H126.387C126.4 32.1647 126.572 32.5563 126.902 32.8724C127.232 33.1816 127.63 33.3362 128.098 33.3362C128.799 33.3362 129.297 33.0476 129.592 32.4704H130.499C130.369 32.9514 130.09 33.35 129.664 33.6661C129.238 33.9821 128.713 34.1402 128.087 34.1402ZM129.097 29.9349C128.816 29.6876 128.476 29.5639 128.077 29.5639C127.678 29.5639 127.321 29.6841 127.005 29.9246C126.696 30.1651 126.503 30.5224 126.428 30.9966H129.644C129.561 30.5293 129.379 30.1754 129.097 29.9349ZM133.984 34.1402C133.269 34.1402 132.668 33.8791 132.18 33.3568C131.699 32.8346 131.459 32.2025 131.459 31.4604C131.459 30.7183 131.699 30.0861 132.18 29.5639C132.668 29.0417 133.269 28.7806 133.984 28.7806C134.362 28.7806 134.712 28.8664 135.035 29.0382C135.365 29.2031 135.619 29.4161 135.798 29.6773V26.3069H136.684V34.0371H135.798V33.2435C135.619 33.5046 135.365 33.721 135.035 33.8928C134.712 34.0577 134.362 34.1402 133.984 34.1402ZM134.118 33.3259C134.626 33.3259 135.046 33.1473 135.375 32.79C135.705 32.4327 135.87 31.9895 135.87 31.4604C135.87 30.9313 135.705 30.4881 135.375 30.1308C135.046 29.7735 134.626 29.5948 134.118 29.5948C133.603 29.5948 133.18 29.7735 132.85 30.1308C132.52 30.4881 132.355 30.9313 132.355 31.4604C132.355 31.9895 132.52 32.4327 132.85 32.79C133.18 33.1473 133.603 33.3259 134.118 33.3259Z" fill="#C4C4C4"/>
<path d="M42.1467 67.1211V65.0597C40.7037 64.9051 39.5098 64.3553 38.565 63.4105C37.6202 62.4486 37.1306 61.1859 37.0963 59.6227H39.9307C40.1025 61.0829 40.8412 61.9676 42.1467 62.2768V56.8141L41.2706 56.4791C38.5221 55.4312 37.1478 53.6704 37.1478 51.1968C37.1478 49.7538 37.603 48.6028 38.5135 47.7439C39.4411 46.8678 40.6522 46.3783 42.1467 46.2752V44.2911H43.5381V46.3267C44.8437 46.4985 45.9345 47.031 46.8106 47.9243C47.6867 48.8004 48.1247 49.874 48.1247 51.1452H45.2903C45.1014 50.0802 44.5173 49.4016 43.5381 49.1096V54.2116L44.3112 54.5208C45.7198 55.0705 46.7848 55.792 47.5063 56.6852C48.2278 57.5613 48.5886 58.6779 48.5886 60.035C48.5886 61.5811 48.1333 62.7921 47.2229 63.6682C46.3124 64.5271 45.0842 64.9995 43.5381 65.0854V67.1211H42.1467ZM45.7541 60.1123C45.7541 58.9442 45.0155 58.0337 43.5381 57.381V62.3541C44.1909 62.2682 44.7234 62.0277 45.1357 61.6326C45.548 61.2203 45.7541 60.7135 45.7541 60.1123ZM39.9822 51.171C39.9822 52.2361 40.7037 53.0692 42.1467 53.6704V49.0065C41.4939 49.0924 40.97 49.3329 40.5749 49.728C40.1798 50.1231 39.9822 50.6041 39.9822 51.171ZM56.3142 65.1112C54.4761 65.1112 52.9129 64.5615 51.6245 63.4621C50.3533 62.3627 49.7005 60.9111 49.6662 59.1074H52.5006C52.5693 60.0865 52.9558 60.8682 53.6601 61.4522C54.3816 62.0363 55.2663 62.3283 56.3142 62.3283C57.259 62.3283 58.032 62.0792 58.6332 61.5811C59.2517 61.0829 59.5695 60.3957 59.5866 59.5197C59.5866 58.5577 59.2688 57.8362 58.6332 57.3552C58.0148 56.857 57.1559 56.6079 56.0565 56.6079H54.6135V54.1858H56.0565C56.9669 54.1858 57.6884 53.9453 58.221 53.4643C58.7707 52.9833 59.0541 52.3563 59.0713 51.5833C59.0713 50.8274 58.7964 50.2176 58.2467 49.7538C57.697 49.2728 57.0185 49.0323 56.2111 49.0323C55.2491 49.0323 54.4503 49.3157 53.8147 49.8826C53.1791 50.4323 52.8613 51.1882 52.8613 52.1502H50.0011C50.0011 50.3636 50.6024 48.9378 51.8049 47.8728C53.0245 46.7905 54.4933 46.2494 56.2111 46.2494C57.9117 46.2494 59.286 46.7304 60.3339 47.6924C61.3989 48.6544 61.9315 49.8912 61.9315 51.4029C61.9315 52.2446 61.7167 53.0263 61.2873 53.7477C60.8578 54.4521 60.3253 54.9932 59.6897 55.3711C60.5314 55.7318 61.2014 56.2901 61.6996 57.046C62.1977 57.8018 62.4468 58.6865 62.4468 59.7C62.4468 61.2976 61.8713 62.6032 60.7204 63.6167C59.5866 64.613 58.1179 65.1112 56.3142 65.1112ZM72.6117 64.8535V60.2669H63.155V57.9736L72.9209 46.5586H75.4461V57.6386H77.894V60.2669H75.4461V64.8535H72.6117ZM66.7109 57.6386H72.6117V50.7845L66.7109 57.6386ZM85.0696 65.1112C83.4033 65.1112 81.9432 64.5873 80.6892 63.5394C79.4351 62.4915 78.791 61.2203 78.7566 59.7258H81.6683C81.8573 60.4988 82.261 61.1258 82.8794 61.6068C83.515 62.0878 84.2451 62.3283 85.0696 62.3283C86.0831 62.3283 86.9077 62.0019 87.5433 61.3491C88.1789 60.6792 88.4967 59.8718 88.4967 58.927C88.4967 57.9478 88.1789 57.1405 87.5433 56.5049C86.9249 55.8521 86.1261 55.5257 85.1469 55.5257C83.6696 55.5257 82.6045 56.1527 81.9518 57.4067L79.4008 56.6079L81.3591 46.5586H90.0685V49.3157H83.5751L82.7248 53.6962C83.4806 53.1637 84.434 52.8974 85.585 52.8974C87.3028 52.8974 88.6942 53.4901 89.7593 54.6754C90.8244 55.8607 91.3569 57.3724 91.3569 59.2104C91.3569 60.9283 90.7642 62.3455 89.5789 63.4621C88.4108 64.5615 86.9077 65.1112 85.0696 65.1112ZM94.8349 65.0597C94.2336 65.0597 93.7097 64.8449 93.2631 64.4155C92.8336 63.9688 92.6189 63.4363 92.6189 62.8179C92.6189 62.2166 92.8336 61.6927 93.2631 61.2461C93.7097 60.7994 94.2336 60.5761 94.8349 60.5761C95.4533 60.5761 95.9772 60.7994 96.4067 61.2461C96.8533 61.6927 97.0767 62.2166 97.0767 62.8179C97.0767 63.4363 96.8533 63.9688 96.4067 64.4155C95.9772 64.8449 95.4533 65.0597 94.8349 65.0597ZM98.8651 64.8535L104.07 58.3086H103.787C102.292 58.3086 100.961 57.7503 99.7927 56.6337C98.6418 55.4999 98.0663 54.0999 98.0663 52.4336C98.0663 50.6814 98.6503 49.2127 99.8185 48.0274C101.004 46.8421 102.515 46.2494 104.354 46.2494C106.192 46.2494 107.695 46.8421 108.863 48.0274C110.048 49.2127 110.641 50.6728 110.641 52.4078C110.641 53.2839 110.469 54.0655 110.125 54.7527C109.799 55.4398 109.275 56.2472 108.554 57.1748L102.421 64.8535H98.8651ZM101.906 54.8815C102.558 55.5343 103.374 55.8607 104.354 55.8607C105.333 55.8607 106.14 55.5343 106.776 54.8815C107.428 54.2116 107.755 53.387 107.755 52.4078C107.755 51.463 107.428 50.6557 106.776 49.9857C106.123 49.3157 105.316 48.9808 104.354 48.9808C103.392 48.9808 102.584 49.3157 101.931 49.9857C101.279 50.6557 100.952 51.463 100.952 52.4078C100.952 53.387 101.27 54.2116 101.906 54.8815ZM118.035 65.1112C116.214 65.1112 114.711 64.5701 113.526 63.4878C112.34 62.3884 111.748 60.997 111.748 59.3135C111.748 57.1834 112.615 55.6459 114.35 54.7011C113.216 53.825 112.649 52.614 112.649 51.0679C112.649 49.6765 113.148 48.5255 114.144 47.6151C115.157 46.7046 116.454 46.2494 118.035 46.2494C119.632 46.2494 120.929 46.7046 121.926 47.6151C122.939 48.5084 123.446 49.6593 123.446 51.0679C123.446 52.614 122.879 53.825 121.745 54.7011C123.48 55.6459 124.348 57.1834 124.348 59.3135C124.348 61.0142 123.755 62.4056 122.57 63.4878C121.402 64.5701 119.89 65.1112 118.035 65.1112ZM118.035 62.4571C119.083 62.4571 119.916 62.1479 120.534 61.5295C121.153 60.9111 121.462 60.1553 121.462 59.262C121.462 58.3515 121.153 57.5957 120.534 56.9944C119.916 56.376 119.091 56.0668 118.061 56.0668C117.013 56.0668 116.18 56.376 115.561 56.9944C114.943 57.5957 114.634 58.3515 114.634 59.262C114.634 60.1553 114.943 60.9111 115.561 61.5295C116.197 62.1479 117.021 62.4571 118.035 62.4571ZM118.035 53.6704C118.825 53.6704 119.461 53.4385 119.942 52.9747C120.44 52.4937 120.689 51.9183 120.689 51.2483C120.689 50.544 120.448 49.9685 119.967 49.5219C119.486 49.0581 118.842 48.8262 118.035 48.8262C117.262 48.8262 116.626 49.0581 116.128 49.5219C115.647 49.9857 115.407 50.5612 115.407 51.2483C115.407 51.9183 115.656 52.4937 116.154 52.9747C116.652 53.4385 117.279 53.6704 118.035 53.6704ZM129.13 64.8535H125.935L134.335 49.3157H125.343V46.5586H137.711V48.9808L129.13 64.8535ZM139.956 64.2093L137.199 68.6413H135.446L137.224 64.8535C136.864 64.6989 136.563 64.4412 136.322 64.0805C136.082 63.7026 135.962 63.2817 135.962 62.8179C135.962 62.1995 136.176 61.6755 136.606 61.2461C137.035 60.7994 137.559 60.5761 138.178 60.5761C138.796 60.5761 139.32 60.7994 139.75 61.2461C140.179 61.6755 140.394 62.1995 140.394 62.8179C140.394 63.3161 140.248 63.7799 139.956 64.2093ZM148.332 65.1112C146.494 65.1112 144.931 64.5615 143.642 63.4621C142.371 62.3627 141.718 60.9111 141.684 59.1074H144.519C144.587 60.0865 144.974 60.8682 145.678 61.4522C146.4 62.0363 147.284 62.3283 148.332 62.3283C149.277 62.3283 150.05 62.0792 150.651 61.5811C151.27 61.0829 151.587 60.3957 151.605 59.5197C151.605 58.5577 151.287 57.8362 150.651 57.3552C150.033 56.857 149.174 56.6079 148.074 56.6079H146.631V54.1858H148.074C148.985 54.1858 149.706 53.9453 150.239 53.4643C150.789 52.9833 151.072 52.3563 151.089 51.5833C151.089 50.8274 150.814 50.2176 150.265 49.7538C149.715 49.2728 149.036 49.0323 148.229 49.0323C147.267 49.0323 146.468 49.3157 145.833 49.8826C145.197 50.4323 144.879 51.1882 144.879 52.1502H142.019C142.019 50.3636 142.62 48.9378 143.823 47.8728C145.042 46.7905 146.511 46.2494 148.229 46.2494C149.93 46.2494 151.304 46.7304 152.352 47.6924C153.417 48.6544 153.949 49.8912 153.949 51.4029C153.949 52.2446 153.735 53.0263 153.305 53.7477C152.876 54.4521 152.343 54.9932 151.708 55.3711C152.549 55.7318 153.219 56.2901 153.718 57.046C154.216 57.8018 154.465 58.6865 154.465 59.7C154.465 61.2976 153.889 62.6032 152.738 63.6167C151.605 64.613 150.136 65.1112 148.332 65.1112ZM159.322 64.8535H156.126L164.527 49.3157H155.534V46.5586H167.902V48.9808L159.322 64.8535Z" fill="white"/>
<path d="M36.0424 80.707L38.8742 74.3038H39.5687L42.4095 80.707H41.5347L40.705 78.8402H37.7199L36.9082 80.707H36.0424ZM39.2079 75.4402L38.0535 78.0826H40.3713L39.2079 75.4402ZM43.1921 80.707V73.9431H43.9677V80.707H43.1921ZM45.4379 80.707V73.9431H46.2135V80.707H45.4379ZM50.6348 82.5919H49.8592V76.1977H50.6348V76.8922C50.7911 76.6637 51.0106 76.4773 51.2931 76.333C51.5817 76.1827 51.8914 76.1075 52.2221 76.1075C52.8473 76.1075 53.3704 76.336 53.7913 76.793C54.2182 77.2499 54.4316 77.803 54.4316 78.4524C54.4316 79.1017 54.2182 79.6549 53.7913 80.1118C53.3704 80.5687 52.8473 80.7972 52.2221 80.7972C51.8914 80.7972 51.5817 80.7251 51.2931 80.5808C51.0106 80.4305 50.7911 80.2411 50.6348 80.0126V82.5919ZM51.0045 79.6158C51.2931 79.9284 51.6599 80.0847 52.1048 80.0847C52.5497 80.0847 52.9165 79.9284 53.2051 79.6158C53.4937 79.3031 53.638 78.9153 53.638 78.4524C53.638 77.9894 53.4937 77.6016 53.2051 77.289C52.9165 76.9763 52.5497 76.82 52.1048 76.82C51.6599 76.82 51.2931 76.9763 51.0045 77.289C50.7159 77.6016 50.5716 77.9894 50.5716 78.4524C50.5716 78.9153 50.7159 79.3031 51.0045 79.6158ZM55.5486 80.707V76.1977H56.3242V77.0725C56.4084 76.796 56.5708 76.5735 56.8113 76.4052C57.0578 76.2368 57.3163 76.1526 57.5869 76.1526C57.7191 76.1526 57.8364 76.1647 57.9386 76.1887V76.9914C57.8304 76.9433 57.6891 76.9192 57.5147 76.9192C57.2021 76.9192 56.9255 77.0545 56.685 77.3251C56.4445 77.5956 56.3242 77.9774 56.3242 78.4704V80.707H55.5486ZM59.636 74.8359C59.5338 74.9381 59.4045 74.9892 59.2482 74.9892C59.0919 74.9892 58.9596 74.9381 58.8514 74.8359C58.7431 74.7277 58.689 74.5954 58.689 74.4391C58.689 74.2888 58.7431 74.1595 58.8514 74.0513C58.9596 73.9431 59.0919 73.889 59.2482 73.889C59.4045 73.889 59.5338 73.9431 59.636 74.0513C59.7382 74.1595 59.7893 74.2888 59.7893 74.4391C59.7893 74.5954 59.7382 74.7277 59.636 74.8359ZM58.8514 80.707V76.1977H59.627V80.707H58.8514ZM63.0993 80.7972C62.4199 80.7972 61.8578 80.5718 61.4129 80.1208C60.9679 79.6639 60.7455 79.1077 60.7455 78.4524C60.7455 77.797 60.9679 77.2439 61.4129 76.793C61.8578 76.336 62.4199 76.1075 63.0993 76.1075C63.6585 76.1075 64.1425 76.2639 64.5513 76.5765C64.9602 76.8831 65.2337 77.286 65.372 77.785H64.5423C64.4341 77.4904 64.2537 77.2559 64.0012 77.0816C63.7487 76.9072 63.4481 76.82 63.0993 76.82C62.6364 76.82 62.2576 76.9763 61.963 77.289C61.6744 77.6016 61.5301 77.9894 61.5301 78.4524C61.5301 78.9153 61.6744 79.3031 61.963 79.6158C62.2576 79.9284 62.6364 80.0847 63.0993 80.0847C63.4481 80.0847 63.7487 79.9976 64.0012 79.8232C64.2537 79.6488 64.4341 79.4144 64.5423 79.1198H65.372C65.2398 79.6188 64.9692 80.0246 64.5604 80.3373C64.1515 80.6439 63.6645 80.7972 63.0993 80.7972ZM68.3201 80.7972C67.6648 80.7972 67.1206 80.5748 66.6878 80.1298C66.2609 79.6849 66.0474 79.1258 66.0474 78.4524C66.0474 77.773 66.2549 77.2138 66.6697 76.7749C67.0906 76.33 67.6467 76.1075 68.3382 76.1075C69.0356 76.1075 69.5827 76.3541 69.9795 76.8471C70.3764 77.3401 70.5507 77.9443 70.5026 78.6598H66.8321C66.8441 79.0687 66.9944 79.4114 67.283 79.6879C67.5716 79.9585 67.9203 80.0938 68.3291 80.0938C68.9424 80.0938 69.3783 79.8412 69.6368 79.3362H70.4305C70.3162 79.7571 70.0727 80.1058 69.7 80.3824C69.3272 80.6589 68.8673 80.7972 68.3201 80.7972ZM69.2039 77.1176C68.9574 76.9012 68.6598 76.793 68.3111 76.793C67.9624 76.793 67.6497 76.8982 67.3732 77.1086C67.1026 77.319 66.9343 77.6317 66.8681 78.0465H69.6819C69.6098 77.6377 69.4505 77.3281 69.2039 77.1176ZM73.0738 80.7972C72.5688 80.7972 72.1449 80.674 71.8022 80.4275C71.4655 80.1809 71.2791 79.8382 71.2431 79.3993H72.0367C72.0848 79.6519 72.2051 79.8382 72.3974 79.9585C72.5959 80.0787 72.8243 80.1389 73.0829 80.1389C73.3414 80.1389 73.5488 80.0878 73.7051 79.9855C73.8675 79.8833 73.9486 79.736 73.9486 79.5436C73.9486 79.3633 73.8885 79.216 73.7683 79.1017C73.654 78.9875 73.4647 78.8943 73.2001 78.8221L72.5508 78.6508C71.7752 78.4464 71.3874 78.0045 71.3874 77.3251C71.3874 76.9583 71.5317 76.6637 71.8203 76.4412C72.1149 76.2188 72.4906 76.1075 72.9476 76.1075C73.4105 76.1075 73.7893 76.2308 74.0839 76.4773C74.3845 76.7178 74.5529 77.0244 74.589 77.3972H73.8134C73.7532 77.1988 73.645 77.0425 73.4887 76.9282C73.3384 76.814 73.158 76.7569 72.9476 76.7569C72.7251 76.7569 72.5387 76.808 72.3884 76.9102C72.2441 77.0124 72.172 77.1477 72.172 77.316C72.172 77.4784 72.2261 77.6106 72.3343 77.7129C72.4425 77.8151 72.6169 77.8992 72.8574 77.9654L73.5789 78.1548C74.3485 78.3472 74.7333 78.7921 74.7333 79.4895C74.7333 79.9224 74.58 80.2501 74.2733 80.4725C73.9667 80.689 73.5669 80.7972 73.0738 80.7972ZM78.7917 74.8359C78.6895 74.9381 78.5602 74.9892 78.4039 74.9892C78.2476 74.9892 78.1153 74.9381 78.0071 74.8359C77.8989 74.7277 77.8448 74.5954 77.8448 74.4391C77.8448 74.2888 77.8989 74.1595 78.0071 74.0513C78.1153 73.9431 78.2476 73.889 78.4039 73.889C78.5602 73.889 78.6895 73.9431 78.7917 74.0513C78.8939 74.1595 78.945 74.2888 78.945 74.4391C78.945 74.5954 78.8939 74.7277 78.7917 74.8359ZM78.0071 80.707V76.1977H78.7827V80.707H78.0071ZM80.2529 80.707V76.1977H81.0285V76.8922C81.3352 76.3691 81.8132 76.1075 82.4625 76.1075C82.9735 76.1075 83.3854 76.2729 83.698 76.6036C84.0107 76.9342 84.167 77.3762 84.167 77.9293V80.707H83.4004V78.0465C83.4004 77.6678 83.3042 77.3701 83.1118 77.1537C82.9194 76.9312 82.6609 76.82 82.3362 76.82C81.9635 76.82 81.6508 76.9673 81.3983 77.2619C81.1518 77.5565 81.0285 77.9594 81.0285 78.4704V80.707H80.2529ZM89.7232 82.6821C89.1279 82.6821 88.6319 82.5348 88.2351 82.2402C87.8443 81.9516 87.6128 81.5788 87.5407 81.1219H88.2982C88.4966 81.7051 88.9776 81.9967 89.7412 81.9967C90.1681 81.9967 90.5108 81.8584 90.7693 81.5818C91.0339 81.3113 91.1662 80.9295 91.1662 80.4365V79.9044C91.0038 80.1449 90.7844 80.3373 90.5078 80.4816C90.2312 80.6259 89.9276 80.698 89.5969 80.698C88.9656 80.698 88.4395 80.4786 88.0187 80.0397C87.5978 79.5947 87.3874 79.0476 87.3874 78.3983C87.3874 77.7549 87.5978 77.2138 88.0187 76.7749C88.4455 76.33 88.9716 76.1075 89.5969 76.1075C89.9276 76.1075 90.2312 76.1797 90.5078 76.324C90.7844 76.4683 91.0038 76.6577 91.1662 76.8922V76.1977H91.9418V80.4275C91.9418 81.1489 91.7313 81.7051 91.3105 82.0959C90.8956 82.4867 90.3665 82.6821 89.7232 82.6821ZM88.6049 79.5346C88.8875 79.8292 89.2542 79.9765 89.7051 79.9765C90.1561 79.9765 90.5228 79.8292 90.8054 79.5346C91.088 79.234 91.2293 78.8552 91.2293 78.3983C91.2293 77.9413 91.085 77.5656 90.7964 77.2709C90.5138 76.9703 90.1501 76.82 89.7051 76.82C89.2602 76.82 88.8935 76.9703 88.6049 77.2709C88.3223 77.5656 88.181 77.9413 88.181 78.3983C88.181 78.8552 88.3223 79.234 88.6049 79.5346ZM93.4021 80.707V76.1977H94.1777V77.0725C94.2619 76.796 94.4242 76.5735 94.6647 76.4052C94.9112 76.2368 95.1698 76.1526 95.4403 76.1526C95.5726 76.1526 95.6898 76.1647 95.7921 76.1887V76.9914C95.6838 76.9433 95.5425 76.9192 95.3682 76.9192C95.0555 76.9192 94.779 77.0545 94.5385 77.3251C94.298 77.5956 94.1777 77.9774 94.1777 78.4704V80.707H93.4021ZM98.413 80.7972C97.7877 80.7972 97.2616 80.5687 96.8347 80.1118C96.4138 79.6549 96.2034 79.1017 96.2034 78.4524C96.2034 77.803 96.4138 77.2499 96.8347 76.793C97.2616 76.336 97.7877 76.1075 98.413 76.1075C98.7436 76.1075 99.0503 76.1827 99.3328 76.333C99.6214 76.4773 99.8439 76.6637 100 76.8922V76.1977H100.776V80.707H100V80.0126C99.8439 80.2411 99.6214 80.4305 99.3328 80.5808C99.0503 80.7251 98.7436 80.7972 98.413 80.7972ZM98.5302 80.0847C98.9751 80.0847 99.3419 79.9284 99.6305 79.6158C99.9191 79.3031 100.063 78.9153 100.063 78.4524C100.063 77.9894 99.9191 77.6016 99.6305 77.289C99.3419 76.9763 98.9751 76.82 98.5302 76.82C98.0793 76.82 97.7095 76.9763 97.4209 77.289C97.1323 77.6016 96.988 77.9894 96.988 78.4524C96.988 78.9153 97.1323 79.3031 97.4209 79.6158C97.7095 79.9284 98.0793 80.0847 98.5302 80.0847ZM103.011 82.5919H102.236V76.1977H103.011V76.8922C103.168 76.6637 103.387 76.4773 103.67 76.333C103.958 76.1827 104.268 76.1075 104.599 76.1075C105.224 76.1075 105.747 76.336 106.168 76.793C106.595 77.2499 106.808 77.803 106.808 78.4524C106.808 79.1017 106.595 79.6549 106.168 80.1118C105.747 80.5687 105.224 80.7972 104.599 80.7972C104.268 80.7972 103.958 80.7251 103.67 80.5808C103.387 80.4305 103.168 80.2411 103.011 80.0126V82.5919ZM103.381 79.6158C103.67 79.9284 104.037 80.0847 104.481 80.0847C104.926 80.0847 105.293 79.9284 105.582 79.6158C105.87 79.3031 106.015 78.9153 106.015 78.4524C106.015 77.9894 105.87 77.6016 105.582 77.289C105.293 76.9763 104.926 76.82 104.481 76.82C104.037 76.82 103.67 76.9763 103.381 77.289C103.093 77.6016 102.948 77.9894 102.948 78.4524C102.948 78.9153 103.093 79.3031 103.381 79.6158ZM108.701 80.707H107.925V73.9431H108.701V76.8922C109.007 76.3691 109.485 76.1075 110.135 76.1075C110.646 76.1075 111.058 76.2729 111.37 76.6036C111.683 76.9342 111.839 77.3762 111.839 77.9293V80.707H111.073V78.0465C111.073 77.6678 110.977 77.3701 110.784 77.1537C110.592 76.9312 110.333 76.82 110.009 76.82C109.636 76.82 109.323 76.9673 109.071 77.2619C108.824 77.5565 108.701 77.9594 108.701 78.4704V80.707ZM114.688 80.7972C114.183 80.7972 113.759 80.674 113.416 80.4275C113.08 80.1809 112.893 79.8382 112.857 79.3993H113.651C113.699 79.6519 113.819 79.8382 114.012 79.9585C114.21 80.0787 114.438 80.1389 114.697 80.1389C114.956 80.1389 115.163 80.0878 115.319 79.9855C115.482 79.8833 115.563 79.736 115.563 79.5436C115.563 79.3633 115.503 79.216 115.382 79.1017C115.268 78.9875 115.079 78.8943 114.814 78.8221L114.165 78.6508C113.389 78.4464 113.002 78.0045 113.002 77.3251C113.002 76.9583 113.146 76.6637 113.434 76.4412C113.729 76.2188 114.105 76.1075 114.562 76.1075C115.025 76.1075 115.403 76.2308 115.698 76.4773C115.999 76.7178 116.167 77.0244 116.203 77.3972H115.428C115.367 77.1988 115.259 77.0425 115.103 76.9282C114.953 76.814 114.772 76.7569 114.562 76.7569C114.339 76.7569 114.153 76.808 114.003 76.9102C113.858 77.0124 113.786 77.1477 113.786 77.316C113.786 77.4784 113.84 77.6106 113.948 77.7129C114.057 77.8151 114.231 77.8992 114.472 77.9654L115.193 78.1548C115.963 78.3472 116.347 78.7921 116.347 79.4895C116.347 79.9224 116.194 80.2501 115.887 80.4725C115.581 80.689 115.181 80.7972 114.688 80.7972ZM121.479 80.7972C120.854 80.7972 120.328 80.5687 119.901 80.1118C119.48 79.6549 119.27 79.1017 119.27 78.4524C119.27 77.803 119.48 77.2499 119.901 76.793C120.328 76.336 120.854 76.1075 121.479 76.1075C121.81 76.1075 122.116 76.1827 122.399 76.333C122.688 76.4773 122.91 76.6637 123.066 76.8922V76.1977H123.842V80.707H123.066V80.0126C122.91 80.2411 122.688 80.4305 122.399 80.5808C122.116 80.7251 121.81 80.7972 121.479 80.7972ZM121.596 80.0847C122.041 80.0847 122.408 79.9284 122.697 79.6158C122.985 79.3031 123.129 78.9153 123.129 78.4524C123.129 77.9894 122.985 77.6016 122.697 77.289C122.408 76.9763 122.041 76.82 121.596 76.82C121.145 76.82 120.776 76.9763 120.487 77.289C120.198 77.6016 120.054 77.9894 120.054 78.4524C120.054 78.9153 120.198 79.3031 120.487 79.6158C120.776 79.9284 121.145 80.0847 121.596 80.0847ZM125.302 80.707V76.1977H126.078V77.0725C126.162 76.796 126.324 76.5735 126.565 76.4052C126.811 76.2368 127.07 76.1526 127.34 76.1526C127.472 76.1526 127.59 76.1647 127.692 76.1887V76.9914C127.584 76.9433 127.442 76.9192 127.268 76.9192C126.955 76.9192 126.679 77.0545 126.438 77.3251C126.198 77.5956 126.078 77.9774 126.078 78.4704V80.707H125.302ZM130.367 80.7972C129.712 80.7972 129.168 80.5748 128.735 80.1298C128.308 79.6849 128.094 79.1258 128.094 78.4524C128.094 77.773 128.302 77.2138 128.717 76.7749C129.138 76.33 129.694 76.1075 130.385 76.1075C131.083 76.1075 131.63 76.3541 132.026 76.8471C132.423 77.3401 132.598 77.9443 132.55 78.6598H128.879C128.891 79.0687 129.041 79.4114 129.33 79.6879C129.619 79.9585 129.967 80.0938 130.376 80.0938C130.989 80.0938 131.425 79.8412 131.684 79.3362H132.477C132.363 79.7571 132.12 80.1058 131.747 80.3824C131.374 80.6589 130.914 80.7972 130.367 80.7972ZM131.251 77.1176C131.004 76.9012 130.707 76.793 130.358 76.793C130.009 76.793 129.697 76.8982 129.42 77.1086C129.15 77.319 128.981 77.6317 128.915 78.0465H131.729C131.657 77.6377 131.497 77.3281 131.251 77.1176ZM136.629 74.8359C136.527 74.9381 136.397 74.9892 136.241 74.9892C136.085 74.9892 135.952 74.9381 135.844 74.8359C135.736 74.7277 135.682 74.5954 135.682 74.4391C135.682 74.2888 135.736 74.1595 135.844 74.0513C135.952 73.9431 136.085 73.889 136.241 73.889C136.397 73.889 136.527 73.9431 136.629 74.0513C136.731 74.1595 136.782 74.2888 136.782 74.4391C136.782 74.5954 136.731 74.7277 136.629 74.8359ZM135.844 80.707V76.1977H136.62V80.707H135.844ZM138.09 80.707V76.1977H138.866V76.8922C139.172 76.3691 139.65 76.1075 140.3 76.1075C140.811 76.1075 141.222 76.2729 141.535 76.6036C141.848 76.9342 142.004 77.3762 142.004 77.9293V80.707H141.238V78.0465C141.238 77.6678 141.141 77.3701 140.949 77.1537C140.757 76.9312 140.498 76.82 140.173 76.82C139.801 76.82 139.488 76.9673 139.235 77.2619C138.989 77.5565 138.866 77.9594 138.866 78.4704V80.707H138.09ZM147.176 80.7521C146.761 80.7521 146.428 80.6349 146.175 80.4004C145.922 80.1659 145.796 79.8232 145.796 79.3723V76.9102H144.84V76.1977H145.796V74.9441H146.572V76.1977H147.87V76.9102H146.572V79.2731C146.572 79.5557 146.632 79.7541 146.752 79.8683C146.872 79.9825 147.062 80.0397 147.32 80.0397C147.549 80.0397 147.732 80.0096 147.87 79.9495V80.6439C147.654 80.716 147.423 80.7521 147.176 80.7521ZM149.637 80.707H148.861V73.9431H149.637V76.8922C149.943 76.3691 150.421 76.1075 151.071 76.1075C151.582 76.1075 151.994 76.2729 152.306 76.6036C152.619 76.9342 152.775 77.3762 152.775 77.9293V80.707H152.009V78.0465C152.009 77.6678 151.913 77.3701 151.72 77.1537C151.528 76.9312 151.269 76.82 150.945 76.82C150.572 76.82 150.259 76.9673 150.007 77.2619C149.76 77.5565 149.637 77.9594 149.637 78.4704V80.707ZM156.174 80.7972C155.495 80.7972 154.93 80.5718 154.479 80.1208C154.034 79.6639 153.811 79.1077 153.811 78.4524C153.811 77.797 154.034 77.2439 154.479 76.793C154.93 76.336 155.495 76.1075 156.174 76.1075C156.848 76.1075 157.407 76.336 157.852 76.793C158.303 77.2439 158.528 77.797 158.528 78.4524C158.528 79.1077 158.303 79.6639 157.852 80.1208C157.407 80.5718 156.848 80.7972 156.174 80.7972ZM155.038 79.6068C155.332 79.9194 155.711 80.0757 156.174 80.0757C156.637 80.0757 157.013 79.9194 157.301 79.6068C157.59 79.2941 157.734 78.9093 157.734 78.4524C157.734 77.9954 157.59 77.6106 157.301 77.298C157.013 76.9854 156.637 76.829 156.174 76.829C155.711 76.829 155.332 76.9854 155.038 77.298C154.749 77.6106 154.605 77.9954 154.605 78.4524C154.605 78.9093 154.749 79.2941 155.038 79.6068ZM161.238 80.7972C160.745 80.7972 160.345 80.6319 160.038 80.3012C159.732 79.9645 159.578 79.5196 159.578 78.9664V76.1977H160.354V78.8492C160.354 79.228 160.444 79.5286 160.624 79.7511C160.811 79.9735 161.06 80.0847 161.373 80.0847C161.734 80.0847 162.031 79.9374 162.266 79.6428C162.506 79.3422 162.626 78.9394 162.626 78.4343V76.1977H163.402V80.707H162.626V80.0126C162.332 80.5357 161.869 80.7972 161.238 80.7972ZM166.316 80.7972C165.811 80.7972 165.387 80.674 165.044 80.4275C164.708 80.1809 164.521 79.8382 164.485 79.3993H165.279C165.327 79.6519 165.447 79.8382 165.64 79.9585C165.838 80.0787 166.066 80.1389 166.325 80.1389C166.584 80.1389 166.791 80.0878 166.947 79.9855C167.11 79.8833 167.191 79.736 167.191 79.5436C167.191 79.3633 167.131 79.216 167.01 79.1017C166.896 78.9875 166.707 78.8943 166.442 78.8221L165.793 78.6508C165.017 78.4464 164.63 78.0045 164.63 77.3251C164.63 76.9583 164.774 76.6637 165.062 76.4412C165.357 76.2188 165.733 76.1075 166.19 76.1075C166.653 76.1075 167.031 76.2308 167.326 76.4773C167.627 76.7178 167.795 77.0244 167.831 77.3972H167.056C166.995 77.1988 166.887 77.0425 166.731 76.9282C166.581 76.814 166.4 76.7569 166.19 76.7569C165.967 76.7569 165.781 76.808 165.631 76.9102C165.486 77.0124 165.414 77.1477 165.414 77.316C165.414 77.4784 165.468 77.6106 165.576 77.7129C165.685 77.8151 165.859 77.8992 166.1 77.9654L166.821 78.1548C167.591 78.3472 167.975 78.7921 167.975 79.4895C167.975 79.9224 167.822 80.2501 167.515 80.4725C167.209 80.689 166.809 80.7972 166.316 80.7972ZM170.932 80.7972C170.306 80.7972 169.78 80.5687 169.353 80.1118C168.933 79.6549 168.722 79.1017 168.722 78.4524C168.722 77.803 168.933 77.2499 169.353 76.793C169.78 76.336 170.306 76.1075 170.932 76.1075C171.262 76.1075 171.569 76.1827 171.852 76.333C172.14 76.4773 172.363 76.6637 172.519 76.8922V76.1977H173.295V80.707H172.519V80.0126C172.363 80.2411 172.14 80.4305 171.852 80.5808C171.569 80.7251 171.262 80.7972 170.932 80.7972ZM171.049 80.0847C171.494 80.0847 171.861 79.9284 172.149 79.6158C172.438 79.3031 172.582 78.9153 172.582 78.4524C172.582 77.9894 172.438 77.6016 172.149 77.289C171.861 76.9763 171.494 76.82 171.049 76.82C170.598 76.82 170.228 76.9763 169.94 77.289C169.651 77.6016 169.507 77.9894 169.507 78.4524C169.507 78.9153 169.651 79.3031 169.94 79.6158C170.228 79.9284 170.598 80.0847 171.049 80.0847ZM174.755 80.707V76.1977H175.53V76.8922C175.837 76.3691 176.315 76.1075 176.964 76.1075C177.475 76.1075 177.887 76.2729 178.2 76.6036C178.512 76.9342 178.669 77.3762 178.669 77.9293V80.707H177.902V78.0465C177.902 77.6678 177.806 77.3701 177.613 77.1537C177.421 76.9312 177.162 76.82 176.838 76.82C176.465 76.82 176.152 76.9673 175.9 77.2619C175.653 77.5565 175.53 77.9594 175.53 78.4704V80.707H174.755ZM181.923 80.7972C181.298 80.7972 180.772 80.5687 180.345 80.1118C179.924 79.6549 179.714 79.1017 179.714 78.4524C179.714 77.803 179.924 77.2499 180.345 76.793C180.772 76.336 181.298 76.1075 181.923 76.1075C182.254 76.1075 182.56 76.1827 182.843 76.333C183.132 76.4773 183.354 76.6637 183.51 76.8922V73.9431H184.286V80.707H183.51V80.0126C183.354 80.2411 183.132 80.4305 182.843 80.5808C182.56 80.7251 182.254 80.7972 181.923 80.7972ZM182.04 80.0847C182.485 80.0847 182.852 79.9284 183.141 79.6158C183.429 79.3031 183.574 78.9153 183.574 78.4524C183.574 77.9894 183.429 77.6016 183.141 77.289C182.852 76.9763 182.485 76.82 182.04 76.82C181.589 76.82 181.22 76.9763 180.931 77.289C180.642 77.6016 180.498 77.9894 180.498 78.4524C180.498 78.9153 180.642 79.3031 180.931 79.6158C181.22 79.9284 181.589 80.0847 182.04 80.0847ZM187.198 80.7972C186.693 80.7972 186.269 80.674 185.926 80.4275C185.59 80.1809 185.403 79.8382 185.367 79.3993H186.161C186.209 79.6519 186.329 79.8382 186.522 79.9585C186.72 80.0787 186.948 80.1389 187.207 80.1389C187.465 80.1389 187.673 80.0878 187.829 79.9855C187.992 79.8833 188.073 79.736 188.073 79.5436C188.073 79.3633 188.013 79.216 187.892 79.1017C187.778 78.9875 187.589 78.8943 187.324 78.8221L186.675 78.6508C185.899 78.4464 185.511 78.0045 185.511 77.3251C185.511 76.9583 185.656 76.6637 185.944 76.4412C186.239 76.2188 186.615 76.1075 187.072 76.1075C187.535 76.1075 187.913 76.2308 188.208 76.4773C188.509 76.7178 188.677 77.0244 188.713 77.3972H187.937C187.877 77.1988 187.769 77.0425 187.613 76.9282C187.462 76.814 187.282 76.7569 187.072 76.7569C186.849 76.7569 186.663 76.808 186.513 76.9102C186.368 77.0124 186.296 77.1477 186.296 77.316C186.296 77.4784 186.35 77.6106 186.458 77.7129C186.567 77.8151 186.741 77.8992 186.981 77.9654L187.703 78.1548C188.473 78.3472 188.857 78.7921 188.857 79.4895C188.857 79.9224 188.704 80.2501 188.397 80.4725C188.091 80.689 187.691 80.7972 187.198 80.7972ZM190.831 80.5808C190.704 80.713 190.548 80.7792 190.362 80.7792C190.175 80.7792 190.016 80.713 189.884 80.5808C189.757 80.4485 189.694 80.2892 189.694 80.1028C189.694 79.9224 189.76 79.7661 189.893 79.6338C190.025 79.4955 190.181 79.4264 190.362 79.4264C190.542 79.4264 190.698 79.4955 190.831 79.6338C190.963 79.7661 191.029 79.9224 191.029 80.1028C191.029 80.2892 190.963 80.4485 190.831 80.5808Z" fill="#C4C4C4"/>
<rect x="53.703" y="118.41" width="427.975" height="137.267" stroke="white" stroke-opacity="0.1" stroke-width="0.644186"/>
<path d="M53.3809 163.508H482" stroke="white" stroke-opacity="0.1" stroke-width="0.644186"/>
<path d="M53.3809 141.211H482" stroke="white" stroke-opacity="0.1" stroke-width="0.644186"/>
<path d="M53.3809 185.806H482" stroke="white" stroke-opacity="0.1" stroke-width="0.644186"/>
<path d="M53.3809 208.103H482" stroke="white" stroke-opacity="0.1" stroke-width="0.644186"/>
<path d="M53.3809 230.4H482" stroke="white" stroke-opacity="0.1" stroke-width="0.644186"/>
<path d="M125.485 118.088L125.485 256" stroke="white" stroke-opacity="0.1" stroke-width="0.644186"/>
<path d="M196.254 118.088L196.254 256" stroke="white" stroke-opacity="0.1" stroke-width="0.644186"/>
<path d="M267.021 118.088L267.021 256" stroke="white" stroke-opacity="0.1" stroke-width="0.644186"/>
<path d="M337.792 118.088L337.792 256" stroke="white" stroke-opacity="0.1" stroke-width="0.644186"/>
<path d="M408.561 118.088L408.561 256" stroke="white" stroke-opacity="0.1" stroke-width="0.644186"/>
<path d="M36.197 258.703V251.675H36.6472V258.703H36.197ZM37.7123 253.784C37.6793 253.505 37.5457 253.289 37.3115 253.136C37.0772 252.982 36.7899 252.905 36.4495 252.905C36.2006 252.905 35.9828 252.945 35.7962 253.026C35.6113 253.106 35.4668 253.217 35.3624 253.358C35.26 253.499 35.2087 253.659 35.2087 253.838C35.2087 253.988 35.2444 254.117 35.3158 254.225C35.389 254.332 35.4823 254.42 35.5958 254.492C35.7092 254.561 35.8282 254.619 35.9526 254.665C36.0771 254.709 36.1915 254.744 36.2958 254.772L36.8668 254.925C37.0132 254.964 37.176 255.017 37.3554 255.085C37.5366 255.152 37.7095 255.245 37.8742 255.362C38.0408 255.477 38.178 255.625 38.286 255.807C38.394 255.988 38.4479 256.21 38.4479 256.474C38.4479 256.778 38.3683 257.052 38.2091 257.297C38.0517 257.542 37.8211 257.737 37.5174 257.882C37.2154 258.027 36.8485 258.099 36.4166 258.099C36.0139 258.099 35.6653 258.034 35.3707 257.904C35.0779 257.774 34.8473 257.593 34.6789 257.36C34.5124 257.128 34.4181 256.858 34.3962 256.551H35.0989C35.1172 256.763 35.1886 256.939 35.313 257.078C35.4393 257.215 35.5985 257.317 35.7907 257.385C35.9847 257.451 36.1933 257.484 36.4166 257.484C36.6764 257.484 36.9098 257.442 37.1166 257.358C37.3234 257.272 37.4872 257.153 37.6079 257.001C37.7287 256.847 37.7891 256.668 37.7891 256.463C37.7891 256.276 37.737 256.124 37.6326 256.007C37.5283 255.89 37.3911 255.795 37.2209 255.722C37.0507 255.648 36.8668 255.584 36.6691 255.529L35.9773 255.332C35.5381 255.205 35.1904 255.025 34.9342 254.791C34.678 254.557 34.5499 254.25 34.5499 253.871C34.5499 253.557 34.635 253.282 34.8052 253.048C34.9772 252.812 35.2078 252.629 35.497 252.499C35.7879 252.367 36.1128 252.301 36.4715 252.301C36.8338 252.301 37.1559 252.366 37.4377 252.496C37.7196 252.624 37.9428 252.8 38.1076 253.023C38.2741 253.246 38.3619 253.5 38.3711 253.784H37.7123ZM41.3022 258.077C40.8886 258.077 40.5363 257.964 40.2453 257.739C39.9543 257.512 39.732 257.184 39.5782 256.754C39.4245 256.322 39.3477 255.8 39.3477 255.189C39.3477 254.581 39.4245 254.063 39.5782 253.633C39.7338 253.201 39.9571 252.871 40.2481 252.644C40.5409 252.416 40.8922 252.301 41.3022 252.301C41.7121 252.301 42.0626 252.416 42.3536 252.644C42.6464 252.871 42.8696 253.201 43.0234 253.633C43.1789 254.063 43.2567 254.581 43.2567 255.189C43.2567 255.8 43.1798 256.322 43.0261 256.754C42.8724 257.184 42.65 257.512 42.359 257.739C42.0681 257.964 41.7158 258.077 41.3022 258.077ZM41.3022 257.473C41.7121 257.473 42.0305 257.275 42.2575 256.88C42.4844 256.485 42.5979 255.921 42.5979 255.189C42.5979 254.702 42.5457 254.288 42.4414 253.945C42.3389 253.603 42.1907 253.342 41.9967 253.163C41.8045 252.984 41.573 252.894 41.3022 252.894C40.8959 252.894 40.5784 253.094 40.3496 253.495C40.1209 253.894 40.0065 254.459 40.0065 255.189C40.0065 255.676 40.0577 256.089 40.1602 256.43C40.2627 256.77 40.41 257.029 40.6022 257.207C40.7962 257.384 41.0295 257.473 41.3022 257.473Z" fill="#C4C4C4"/>
<path d="M31.8359 232.703V225.675H32.2861V232.703H31.8359ZM33.3512 227.784C33.3182 227.505 33.1846 227.289 32.9504 227.136C32.7161 226.982 32.4288 226.905 32.0884 226.905C31.8395 226.905 31.6218 226.945 31.4351 227.026C31.2503 227.106 31.1057 227.217 31.0014 227.358C30.8989 227.499 30.8476 227.659 30.8476 227.838C30.8476 227.988 30.8833 228.117 30.9547 228.225C31.0279 228.332 31.1212 228.42 31.2347 228.492C31.3482 228.561 31.4671 228.619 31.5916 228.665C31.716 228.709 31.8304 228.744 31.9347 228.772L32.5057 228.925C32.6521 228.964 32.815 229.017 32.9943 229.085C33.1755 229.152 33.3484 229.245 33.5131 229.362C33.6797 229.477 33.8169 229.625 33.9249 229.807C34.0329 229.988 34.0869 230.21 34.0869 230.474C34.0869 230.778 34.0073 231.052 33.848 231.297C33.6907 231.542 33.4601 231.737 33.1563 231.882C32.8543 232.027 32.4874 232.099 32.0555 232.099C31.6529 232.099 31.3042 232.034 31.0096 231.904C30.7168 231.774 30.4862 231.593 30.3178 231.36C30.1513 231.128 30.057 230.858 30.0351 230.551H30.7378C30.7561 230.763 30.8275 230.939 30.952 231.078C31.0782 231.215 31.2374 231.317 31.4296 231.385C31.6236 231.451 31.8322 231.484 32.0555 231.484C32.3154 231.484 32.5487 231.442 32.7555 231.358C32.9623 231.272 33.1261 231.153 33.2469 231.001C33.3676 230.847 33.428 230.668 33.428 230.463C33.428 230.276 33.3759 230.124 33.2716 230.007C33.1673 229.89 33.03 229.795 32.8598 229.722C32.6896 229.648 32.5057 229.584 32.308 229.529L31.6163 229.332C31.177 229.205 30.8293 229.025 30.5731 228.791C30.3169 228.557 30.1888 228.25 30.1888 227.871C30.1888 227.557 30.2739 227.282 30.4441 227.048C30.6161 226.812 30.8467 226.629 31.1359 226.499C31.4269 226.367 31.7517 226.301 32.1104 226.301C32.4727 226.301 32.7948 226.366 33.0767 226.496C33.3585 226.624 33.5818 226.8 33.7465 227.023C33.913 227.246 34.0009 227.5 34.01 227.784H33.3512ZM35.1074 232V231.506L36.9631 229.474C37.1808 229.237 37.3602 229.03 37.5011 228.854C37.642 228.677 37.7463 228.51 37.814 228.354C37.8836 228.197 37.9184 228.032 37.9184 227.86C37.9184 227.663 37.8708 227.492 37.7756 227.347C37.6823 227.202 37.5542 227.091 37.3913 227.012C37.2284 226.933 37.0454 226.894 36.8423 226.894C36.6263 226.894 36.4378 226.939 36.2768 227.029C36.1176 227.116 35.994 227.24 35.9062 227.399C35.8202 227.558 35.7772 227.745 35.7772 227.959H35.1293C35.1293 227.63 35.2053 227.341 35.3572 227.092C35.5091 226.843 35.7159 226.649 35.9776 226.51C36.2411 226.371 36.5366 226.301 36.8642 226.301C37.1936 226.301 37.4855 226.371 37.7399 226.51C37.9943 226.649 38.1938 226.836 38.3384 227.073C38.4829 227.309 38.5552 227.571 38.5552 227.86C38.5552 228.067 38.5177 228.269 38.4427 228.467C38.3695 228.663 38.2414 228.882 38.0584 229.123C37.8772 229.363 37.6255 229.656 37.3035 230.002L36.0407 231.352V231.396H38.654V232H35.1074ZM41.6215 232.077C41.2079 232.077 40.8556 231.964 40.5646 231.739C40.2737 231.512 40.0513 231.184 39.8976 230.754C39.7439 230.322 39.667 229.8 39.667 229.189C39.667 228.581 39.7439 228.063 39.8976 227.633C40.0531 227.201 40.2764 226.871 40.5674 226.644C40.8602 226.416 41.2116 226.301 41.6215 226.301C42.0314 226.301 42.3819 226.416 42.6729 226.644C42.9657 226.871 43.189 227.201 43.3427 227.633C43.4983 228.063 43.576 228.581 43.576 229.189C43.576 229.8 43.4992 230.322 43.3454 230.754C43.1917 231.184 42.9694 231.512 42.6784 231.739C42.3874 231.964 42.0351 232.077 41.6215 232.077ZM41.6215 231.473C42.0314 231.473 42.3499 231.275 42.5768 230.88C42.8037 230.485 42.9172 229.921 42.9172 229.189C42.9172 228.702 42.865 228.288 42.7607 227.945C42.6582 227.603 42.51 227.342 42.316 227.163C42.1239 226.984 41.8924 226.894 41.6215 226.894C41.2152 226.894 40.8977 227.094 40.669 227.495C40.4402 227.894 40.3258 228.459 40.3258 229.189C40.3258 229.676 40.3771 230.089 40.4795 230.43C40.582 230.77 40.7293 231.029 40.9215 231.207C41.1155 231.384 41.3488 231.473 41.6215 231.473Z" fill="#C4C4C4"/>
<path d="M31.5566 210.703V203.675H32.0068V210.703H31.5566ZM33.0719 205.784C33.0389 205.505 32.9053 205.289 32.6711 205.136C32.4368 204.982 32.1495 204.905 31.8091 204.905C31.5602 204.905 31.3424 204.945 31.1558 205.026C30.9709 205.106 30.8264 205.217 30.722 205.358C30.6196 205.499 30.5683 205.659 30.5683 205.838C30.5683 205.988 30.604 206.117 30.6754 206.225C30.7486 206.332 30.8419 206.42 30.9554 206.492C31.0688 206.561 31.1878 206.619 31.3122 206.665C31.4367 206.709 31.5511 206.744 31.6554 206.772L32.2264 206.925C32.3728 206.964 32.5357 207.017 32.715 207.085C32.8962 207.152 33.0691 207.245 33.2338 207.362C33.4004 207.477 33.5376 207.625 33.6456 207.807C33.7536 207.988 33.8076 208.21 33.8076 208.474C33.8076 208.778 33.7279 209.052 33.5687 209.297C33.4113 209.542 33.1808 209.737 32.877 209.882C32.575 210.027 32.2081 210.099 31.7762 210.099C31.3736 210.099 31.0249 210.034 30.7303 209.904C30.4375 209.774 30.2069 209.593 30.0385 209.36C29.872 209.128 29.7777 208.858 29.7558 208.551H30.4585C30.4768 208.763 30.5482 208.939 30.6726 209.078C30.7989 209.215 30.9581 209.317 31.1503 209.385C31.3443 209.451 31.5529 209.484 31.7762 209.484C32.036 209.484 32.2694 209.442 32.4762 209.358C32.683 209.272 32.8468 209.153 32.9675 209.001C33.0883 208.847 33.1487 208.668 33.1487 208.463C33.1487 208.276 33.0966 208.124 32.9923 208.007C32.8879 207.89 32.7507 207.795 32.5805 207.722C32.4103 207.648 32.2264 207.584 32.0287 207.529L31.337 207.332C30.8977 207.205 30.55 207.025 30.2938 206.791C30.0376 206.557 29.9095 206.25 29.9095 205.871C29.9095 205.557 29.9946 205.282 30.1648 205.048C30.3368 204.812 30.5674 204.629 30.8566 204.499C31.1475 204.367 31.4724 204.301 31.8311 204.301C32.1934 204.301 32.5155 204.366 32.7974 204.496C33.0792 204.624 33.3025 204.8 33.4672 205.023C33.6337 205.246 33.7215 205.5 33.7307 205.784H33.0719ZM34.6963 208.847V208.287L37.1669 204.378H37.5732V205.245H37.2986L35.432 208.199V208.243H38.759V208.847H34.6963ZM37.3426 210V208.677V208.416V204.378H37.9904V210H37.3426ZM41.6215 210.077C41.2079 210.077 40.8556 209.964 40.5646 209.739C40.2737 209.512 40.0513 209.184 39.8976 208.754C39.7439 208.322 39.667 207.8 39.667 207.189C39.667 206.581 39.7439 206.063 39.8976 205.633C40.0531 205.201 40.2764 204.871 40.5674 204.644C40.8602 204.416 41.2116 204.301 41.6215 204.301C42.0314 204.301 42.3819 204.416 42.6729 204.644C42.9657 204.871 43.189 205.201 43.3427 205.633C43.4983 206.063 43.576 206.581 43.576 207.189C43.576 207.8 43.4992 208.322 43.3454 208.754C43.1917 209.184 42.9694 209.512 42.6784 209.739C42.3874 209.964 42.0351 210.077 41.6215 210.077ZM41.6215 209.473C42.0314 209.473 42.3499 209.275 42.5768 208.88C42.8037 208.485 42.9172 207.921 42.9172 207.189C42.9172 206.702 42.865 206.288 42.7607 205.945C42.6582 205.603 42.51 205.342 42.316 205.163C42.1239 204.984 41.8924 204.894 41.6215 204.894C41.2152 204.894 40.8977 205.094 40.669 205.495C40.4402 205.894 40.3258 206.459 40.3258 207.189C40.3258 207.676 40.3771 208.089 40.4795 208.43C40.582 208.77 40.7294 209.029 40.9215 209.207C41.1155 209.384 41.3488 209.473 41.6215 209.473Z" fill="#C4C4C4"/>
<path d="M31.6924 188.703V181.675H32.1426V188.703H31.6924ZM33.2077 183.784C33.1748 183.505 33.0412 183.289 32.807 183.136C32.5727 182.982 32.2854 182.905 31.945 182.905C31.6961 182.905 31.4783 182.945 31.2917 183.026C31.1068 183.106 30.9622 183.217 30.8579 183.358C30.7554 183.499 30.7042 183.659 30.7042 183.838C30.7042 183.988 30.7399 184.117 30.8113 184.225C30.8845 184.332 30.9778 184.42 31.0913 184.492C31.2047 184.561 31.3237 184.619 31.4481 184.665C31.5726 184.709 31.687 184.744 31.7913 184.772L32.3623 184.925C32.5087 184.964 32.6715 185.017 32.8509 185.085C33.0321 185.152 33.205 185.245 33.3697 185.362C33.5362 185.477 33.6735 185.625 33.7815 185.807C33.8894 185.988 33.9434 186.21 33.9434 186.474C33.9434 186.778 33.8638 187.052 33.7046 187.297C33.5472 187.542 33.3166 187.737 33.0128 187.882C32.7109 188.027 32.344 188.099 31.9121 188.099C31.5094 188.099 31.1608 188.034 30.8662 187.904C30.5734 187.774 30.3428 187.593 30.1744 187.36C30.0079 187.128 29.9136 186.858 29.8917 186.551H30.5944C30.6127 186.763 30.6841 186.939 30.8085 187.078C30.9348 187.215 31.094 187.317 31.2862 187.385C31.4802 187.451 31.6888 187.484 31.9121 187.484C32.1719 187.484 32.4053 187.442 32.6121 187.358C32.8189 187.272 32.9826 187.153 33.1034 187.001C33.2242 186.847 33.2846 186.668 33.2846 186.463C33.2846 186.276 33.2325 186.124 33.1281 186.007C33.0238 185.89 32.8866 185.795 32.7164 185.722C32.5462 185.648 32.3623 185.584 32.1646 185.529L31.4728 185.332C31.0336 185.205 30.6859 185.025 30.4297 184.791C30.1735 184.557 30.0454 184.25 30.0454 183.871C30.0454 183.557 30.1305 183.282 30.3007 183.048C30.4727 182.812 30.7033 182.629 30.9924 182.499C31.2834 182.367 31.6083 182.301 31.967 182.301C32.3293 182.301 32.6514 182.366 32.9332 182.496C33.2151 182.624 33.4383 182.8 33.603 183.023C33.7696 183.246 33.8574 183.5 33.8666 183.784H33.2077ZM36.8306 188.077C36.6 188.073 36.3694 188.029 36.1388 187.945C35.9082 187.861 35.6978 187.719 35.5075 187.52C35.3171 187.318 35.1643 187.047 35.049 186.704C34.9337 186.36 34.8761 185.928 34.8761 185.409C34.8761 184.911 34.9228 184.47 35.0161 184.085C35.1094 183.699 35.2448 183.374 35.4224 183.111C35.5999 182.846 35.814 182.644 36.0647 182.507C36.3173 182.37 36.6018 182.301 36.9184 182.301C37.2332 182.301 37.5132 182.364 37.7585 182.491C38.0055 182.615 38.2068 182.789 38.3624 183.012C38.5179 183.235 38.6186 183.493 38.6643 183.784H37.9945C37.9323 183.531 37.8115 183.321 37.6322 183.155C37.4528 182.988 37.2149 182.905 36.9184 182.905C36.4829 182.905 36.1398 183.094 35.889 183.473C35.6401 183.852 35.5148 184.384 35.513 185.068H35.5569C35.6594 184.913 35.7811 184.78 35.922 184.67C36.0647 184.559 36.2221 184.473 36.3941 184.412C36.5662 184.352 36.7483 184.322 36.9404 184.322C37.2625 184.322 37.5571 184.402 37.8243 184.563C38.0915 184.722 38.3056 184.943 38.4667 185.225C38.6277 185.505 38.7083 185.826 38.7083 186.188C38.7083 186.536 38.6305 186.854 38.4749 187.144C38.3194 187.431 38.1007 187.66 37.8188 187.83C37.5388 187.998 37.2094 188.081 36.8306 188.077ZM36.8306 187.473C37.0612 187.473 37.268 187.415 37.451 187.3C37.6358 187.185 37.7813 187.03 37.8875 186.836C37.9954 186.642 38.0494 186.426 38.0494 186.188C38.0494 185.956 37.9973 185.744 37.893 185.554C37.7905 185.362 37.6486 185.209 37.4675 185.096C37.2881 184.982 37.0832 184.925 36.8526 184.925C36.6787 184.925 36.5167 184.96 36.3667 185.03C36.2166 185.098 36.0849 185.191 35.9714 185.31C35.8598 185.429 35.7719 185.565 35.7079 185.719C35.6438 185.871 35.6118 186.031 35.6118 186.199C35.6118 186.422 35.6639 186.631 35.7682 186.825C35.8744 187.019 36.019 187.176 36.202 187.295C36.3868 187.413 36.5964 187.473 36.8306 187.473ZM41.6215 188.077C41.2079 188.077 40.8556 187.964 40.5646 187.739C40.2737 187.512 40.0513 187.184 39.8976 186.754C39.7439 186.322 39.667 185.8 39.667 185.189C39.667 184.581 39.7439 184.063 39.8976 183.633C40.0531 183.201 40.2764 182.871 40.5674 182.644C40.8602 182.416 41.2116 182.301 41.6215 182.301C42.0314 182.301 42.3819 182.416 42.6729 182.644C42.9657 182.871 43.189 183.201 43.3427 183.633C43.4983 184.063 43.576 184.581 43.576 185.189C43.576 185.8 43.4992 186.322 43.3454 186.754C43.1917 187.184 42.9694 187.512 42.6784 187.739C42.3874 187.964 42.0351 188.077 41.6215 188.077ZM41.6215 187.473C42.0314 187.473 42.3499 187.275 42.5768 186.88C42.8037 186.485 42.9172 185.921 42.9172 185.189C42.9172 184.702 42.865 184.288 42.7607 183.945C42.6582 183.603 42.51 183.342 42.316 183.163C42.1239 182.984 41.8924 182.894 41.6215 182.894C41.2152 182.894 40.8977 183.094 40.669 183.495C40.4402 183.894 40.3258 184.459 40.3258 185.189C40.3258 185.676 40.3771 186.089 40.4795 186.43C40.582 186.77 40.7294 187.029 40.9215 187.207C41.1155 187.384 41.3488 187.473 41.6215 187.473Z" fill="#C4C4C4"/>
<path d="M31.7528 165.703V158.675H32.203V165.703H31.7528ZM33.2681 160.784C33.2352 160.505 33.1016 160.289 32.8674 160.136C32.6331 159.982 32.3458 159.905 32.0054 159.905C31.7565 159.905 31.5387 159.945 31.3521 160.026C31.1672 160.106 31.0226 160.217 30.9183 160.358C30.8158 160.499 30.7646 160.659 30.7646 160.838C30.7646 160.988 30.8003 161.117 30.8717 161.225C30.9449 161.332 31.0382 161.42 31.1517 161.492C31.2651 161.561 31.3841 161.619 31.5085 161.665C31.633 161.709 31.7473 161.744 31.8517 161.772L32.4226 161.925C32.569 161.964 32.7319 162.017 32.9113 162.085C33.0925 162.152 33.2654 162.245 33.4301 162.362C33.5966 162.477 33.7339 162.625 33.8419 162.807C33.9498 162.988 34.0038 163.21 34.0038 163.474C34.0038 163.778 33.9242 164.052 33.765 164.297C33.6076 164.542 33.377 164.737 33.0732 164.882C32.7713 165.027 32.4043 165.099 31.9724 165.099C31.5698 165.099 31.2212 165.034 30.9266 164.904C30.6337 164.774 30.4032 164.593 30.2348 164.36C30.0683 164.128 29.974 163.858 29.952 163.551H30.6548C30.6731 163.763 30.7445 163.939 30.8689 164.078C30.9952 164.215 31.1544 164.317 31.3466 164.385C31.5405 164.451 31.7492 164.484 31.9724 164.484C32.2323 164.484 32.4657 164.442 32.6724 164.358C32.8792 164.272 33.043 164.153 33.1638 164.001C33.2846 163.847 33.345 163.668 33.345 163.463C33.345 163.276 33.2928 163.124 33.1885 163.007C33.0842 162.89 32.947 162.795 32.7768 162.722C32.6066 162.648 32.4226 162.584 32.225 162.529L31.5332 162.332C31.094 162.205 30.7463 162.025 30.4901 161.791C30.2339 161.557 30.1058 161.25 30.1058 160.871C30.1058 160.557 30.1909 160.282 30.3611 160.048C30.5331 159.812 30.7637 159.629 31.0528 159.499C31.3438 159.367 31.6687 159.301 32.0273 159.301C32.3897 159.301 32.7118 159.366 32.9936 159.496C33.2755 159.624 33.4987 159.8 33.6634 160.023C33.83 160.246 33.9178 160.5 33.927 160.784H33.2681ZM36.8251 165.077C36.4481 165.077 36.115 165.01 35.8259 164.876C35.5386 164.741 35.3144 164.555 35.1533 164.319C34.9923 164.081 34.9127 163.81 34.9145 163.507C34.9127 163.269 34.9594 163.049 35.0545 162.848C35.1497 162.645 35.2796 162.475 35.4443 162.34C35.6109 162.203 35.7966 162.116 36.0016 162.079V162.046C35.7326 161.977 35.5184 161.826 35.3592 161.593C35.2 161.359 35.1213 161.093 35.1231 160.794C35.1213 160.509 35.1936 160.254 35.34 160.029C35.4864 159.804 35.6877 159.626 35.9439 159.496C36.202 159.366 36.4957 159.301 36.8251 159.301C37.1509 159.301 37.4419 159.366 37.6981 159.496C37.9543 159.626 38.1556 159.804 38.302 160.029C38.4502 160.254 38.5253 160.509 38.5271 160.794C38.5253 161.093 38.4438 161.359 38.2828 161.593C38.1236 161.826 37.9122 161.977 37.6486 162.046V162.079C37.8518 162.116 38.0348 162.203 38.1977 162.34C38.3605 162.475 38.4905 162.645 38.5875 162.848C38.6845 163.049 38.7339 163.269 38.7357 163.507C38.7339 163.81 38.6515 164.081 38.4887 164.319C38.3276 164.555 38.1034 164.741 37.8161 164.876C37.5306 165.01 37.2003 165.077 36.8251 165.077ZM36.8251 164.473C37.0795 164.473 37.2991 164.432 37.4839 164.349C37.6688 164.267 37.8115 164.151 37.9122 164.001C38.0128 163.851 38.0641 163.675 38.0659 163.474C38.0641 163.261 38.0092 163.074 37.9012 162.911C37.7932 162.748 37.6459 162.62 37.4592 162.527C37.2744 162.433 37.063 162.387 36.8251 162.387C36.5854 162.387 36.3713 162.433 36.1828 162.527C35.9961 162.62 35.8488 162.748 35.7408 162.911C35.6347 163.074 35.5825 163.261 35.5843 163.474C35.5825 163.675 35.631 163.851 35.7298 164.001C35.8305 164.151 35.9741 164.267 36.1608 164.349C36.3475 164.432 36.5689 164.473 36.8251 164.473ZM36.8251 161.805C37.0264 161.805 37.2049 161.764 37.3604 161.684C37.5178 161.603 37.6413 161.491 37.731 161.346C37.8207 161.202 37.8664 161.032 37.8683 160.838C37.8664 160.648 37.8216 160.482 37.7337 160.342C37.6459 160.199 37.5242 160.089 37.3686 160.012C37.2131 159.933 37.0319 159.894 36.8251 159.894C36.6147 159.894 36.4307 159.933 36.2733 160.012C36.116 160.089 35.9943 160.199 35.9082 160.342C35.8222 160.482 35.7801 160.648 35.782 160.838C35.7801 161.032 35.8231 161.202 35.911 161.346C36.0007 161.491 36.1242 161.603 36.2816 161.684C36.439 161.764 36.6201 161.805 36.8251 161.805ZM41.6215 165.077C41.2079 165.077 40.8556 164.964 40.5646 164.739C40.2737 164.512 40.0513 164.184 39.8976 163.754C39.7439 163.322 39.667 162.8 39.667 162.189C39.667 161.581 39.7439 161.063 39.8976 160.633C40.0531 160.201 40.2764 159.871 40.5674 159.644C40.8602 159.416 41.2116 159.301 41.6215 159.301C42.0314 159.301 42.3819 159.416 42.6729 159.644C42.9657 159.871 43.189 160.201 43.3427 160.633C43.4983 161.063 43.576 161.581 43.576 162.189C43.576 162.8 43.4992 163.322 43.3454 163.754C43.1917 164.184 42.9694 164.512 42.6784 164.739C42.3874 164.964 42.0351 165.077 41.6215 165.077ZM41.6215 164.473C42.0314 164.473 42.3499 164.275 42.5768 163.88C42.8037 163.485 42.9172 162.921 42.9172 162.189C42.9172 161.702 42.865 161.288 42.7607 160.945C42.6582 160.603 42.51 160.342 42.316 160.163C42.1239 159.984 41.8924 159.894 41.6215 159.894C41.2152 159.894 40.8977 160.094 40.669 160.495C40.4402 160.894 40.3258 161.459 40.3258 162.189C40.3258 162.676 40.3771 163.089 40.4795 163.43C40.582 163.77 40.7294 164.029 40.9215 164.207C41.1155 164.384 41.3488 164.473 41.6215 164.473Z" fill="#C4C4C4"/>
<path d="M28.0543 144.703V137.675H28.5045V144.703H28.0543ZM29.5696 139.784C29.5367 139.505 29.4031 139.289 29.1689 139.136C28.9346 138.982 28.6473 138.905 28.3069 138.905C28.058 138.905 27.8402 138.945 27.6535 139.026C27.4687 139.106 27.3241 139.217 27.2198 139.358C27.1173 139.499 27.0661 139.659 27.0661 139.838C27.0661 139.988 27.1018 140.117 27.1732 140.225C27.2464 140.332 27.3397 140.42 27.4532 140.492C27.5666 140.561 27.6856 140.619 27.81 140.665C27.9345 140.709 28.0488 140.744 28.1532 140.772L28.7241 140.925C28.8705 140.964 29.0334 141.017 29.2128 141.085C29.394 141.152 29.5669 141.245 29.7316 141.362C29.8981 141.477 30.0354 141.625 30.1434 141.807C30.2513 141.988 30.3053 142.21 30.3053 142.474C30.3053 142.778 30.2257 143.052 30.0665 143.297C29.9091 143.542 29.6785 143.737 29.3747 143.882C29.0728 144.027 28.7058 144.099 28.2739 144.099C27.8713 144.099 27.5227 144.034 27.2281 143.904C26.9352 143.774 26.7047 143.593 26.5363 143.36C26.3698 143.128 26.2755 142.858 26.2535 142.551H26.9563C26.9746 142.763 27.046 142.939 27.1704 143.078C27.2967 143.215 27.4559 143.317 27.6481 143.385C27.842 143.451 28.0507 143.484 28.2739 143.484C28.5338 143.484 28.7671 143.442 28.9739 143.358C29.1807 143.272 29.3445 143.153 29.4653 143.001C29.5861 142.847 29.6465 142.668 29.6465 142.463C29.6465 142.276 29.5943 142.124 29.49 142.007C29.3857 141.89 29.2485 141.795 29.0783 141.722C28.9081 141.648 28.7241 141.584 28.5265 141.529L27.8347 141.332C27.3955 141.205 27.0478 141.025 26.7916 140.791C26.5354 140.557 26.4073 140.25 26.4073 139.871C26.4073 139.557 26.4924 139.282 26.6626 139.048C26.8346 138.812 27.0652 138.629 27.3543 138.499C27.6453 138.367 27.9702 138.301 28.3288 138.301C28.6912 138.301 29.0133 138.366 29.2951 138.496C29.577 138.624 29.8002 138.8 29.9649 139.023C30.1315 139.246 30.2193 139.5 30.2285 139.784H29.5696ZM33.3023 138.378V144H32.6215V139.092H32.5886L31.216 140.003V139.311L32.6215 138.378H33.3023ZM36.7529 144.077C36.3393 144.077 35.987 143.964 35.696 143.739C35.4051 143.512 35.1827 143.184 35.029 142.754C34.8753 142.322 34.7984 141.8 34.7984 141.189C34.7984 140.581 34.8753 140.063 35.029 139.633C35.1845 139.201 35.4078 138.871 35.6988 138.644C35.9916 138.416 36.343 138.301 36.7529 138.301C37.1628 138.301 37.5133 138.416 37.8043 138.644C38.0971 138.871 38.3204 139.201 38.4741 139.633C38.6296 140.063 38.7074 140.581 38.7074 141.189C38.7074 141.8 38.6306 142.322 38.4768 142.754C38.3231 143.184 38.1008 143.512 37.8098 143.739C37.5188 143.964 37.1665 144.077 36.7529 144.077ZM36.7529 143.473C37.1628 143.473 37.4813 143.275 37.7082 142.88C37.9351 142.485 38.0486 141.921 38.0486 141.189C38.0486 140.702 37.9964 140.288 37.8921 139.945C37.7896 139.603 37.6414 139.342 37.4474 139.163C37.2553 138.984 37.0238 138.894 36.7529 138.894C36.3466 138.894 36.0291 139.094 35.8004 139.495C35.5716 139.894 35.4572 140.459 35.4572 141.189C35.4572 141.676 35.5085 142.089 35.6109 142.43C35.7134 142.77 35.8607 143.029 36.0529 143.207C36.2469 143.384 36.4802 143.473 36.7529 143.473ZM41.5843 144.077C41.1707 144.077 40.8184 143.964 40.5274 143.739C40.2365 143.512 40.0141 143.184 39.8604 142.754C39.7066 142.322 39.6298 141.8 39.6298 141.189C39.6298 140.581 39.7066 140.063 39.8604 139.633C40.0159 139.201 40.2392 138.871 40.5302 138.644C40.823 138.416 41.1744 138.301 41.5843 138.301C41.9942 138.301 42.3447 138.416 42.6357 138.644C42.9285 138.871 43.1518 139.201 43.3055 139.633C43.461 140.063 43.5388 140.581 43.5388 141.189C43.5388 141.8 43.462 142.322 43.3082 142.754C43.1545 143.184 42.9322 143.512 42.6412 143.739C42.3502 143.964 41.9979 144.077 41.5843 144.077ZM41.5843 143.473C41.9942 143.473 42.3127 143.275 42.5396 142.88C42.7665 142.485 42.88 141.921 42.88 141.189C42.88 140.702 42.8278 140.288 42.7235 139.945C42.621 139.603 42.4728 139.342 42.2788 139.163C42.0867 138.984 41.8552 138.894 41.5843 138.894C41.178 138.894 40.8605 139.094 40.6317 139.495C40.403 139.894 40.2886 140.459 40.2886 141.189C40.2886 141.676 40.3399 142.089 40.4423 142.43C40.5448 142.77 40.6921 143.029 40.8843 143.207C41.0783 143.384 41.3116 143.473 41.5843 143.473Z" fill="#C4C4C4"/>
<path d="M28.2425 120.703V113.675H28.6927V120.703H28.2425ZM29.7578 115.784C29.7249 115.505 29.5913 115.289 29.357 115.136C29.1228 114.982 28.8355 114.905 28.4951 114.905C28.2462 114.905 28.0284 114.945 27.8417 115.026C27.6569 115.106 27.5123 115.217 27.408 115.358C27.3055 115.499 27.2543 115.659 27.2543 115.838C27.2543 115.988 27.29 116.117 27.3613 116.225C27.4345 116.332 27.5279 116.42 27.6413 116.492C27.7548 116.561 27.8738 116.619 27.9982 116.665C28.1227 116.709 28.237 116.744 28.3414 116.772L28.9123 116.925C29.0587 116.964 29.2216 117.017 29.401 117.085C29.5821 117.152 29.7551 117.245 29.9198 117.362C30.0863 117.477 30.2236 117.625 30.3316 117.807C30.4395 117.988 30.4935 118.21 30.4935 118.474C30.4935 118.778 30.4139 119.052 30.2547 119.297C30.0973 119.542 29.8667 119.737 29.5629 119.882C29.261 120.027 28.894 120.099 28.4621 120.099C28.0595 120.099 27.7109 120.034 27.4162 119.904C27.1234 119.774 26.8928 119.593 26.7245 119.36C26.5579 119.128 26.4637 118.858 26.4417 118.551H27.1445C27.1628 118.763 27.2342 118.939 27.3586 119.078C27.4849 119.215 27.6441 119.317 27.8363 119.385C28.0302 119.451 28.2389 119.484 28.4621 119.484C28.722 119.484 28.9553 119.442 29.1621 119.358C29.3689 119.272 29.5327 119.153 29.6535 119.001C29.7743 118.847 29.8347 118.668 29.8347 118.463C29.8347 118.276 29.7825 118.124 29.6782 118.007C29.5739 117.89 29.4366 117.795 29.2665 117.722C29.0963 117.648 28.9123 117.584 28.7147 117.529L28.0229 117.332C27.5837 117.205 27.236 117.025 26.9798 116.791C26.7236 116.557 26.5955 116.25 26.5955 115.871C26.5955 115.557 26.6806 115.282 26.8508 115.048C27.0228 114.812 27.2534 114.629 27.5425 114.499C27.8335 114.367 28.1583 114.301 28.517 114.301C28.8794 114.301 29.2015 114.366 29.4833 114.496C29.7651 114.624 29.9884 114.8 30.1531 115.023C30.3197 115.246 30.4075 115.5 30.4167 115.784H29.7578ZM33.4905 114.378V120H32.8097V115.092H32.7768L31.4042 116.003V115.311L32.8097 114.378H33.4905ZM35.1074 120V119.506L36.9631 117.474C37.1808 117.237 37.3602 117.03 37.5011 116.854C37.642 116.677 37.7463 116.51 37.814 116.354C37.8836 116.197 37.9184 116.032 37.9184 115.86C37.9184 115.663 37.8708 115.492 37.7756 115.347C37.6823 115.202 37.5542 115.091 37.3913 115.012C37.2284 114.933 37.0454 114.894 36.8423 114.894C36.6263 114.894 36.4378 114.939 36.2768 115.029C36.1176 115.116 35.994 115.24 35.9062 115.399C35.8202 115.558 35.7772 115.745 35.7772 115.959H35.1293C35.1293 115.63 35.2053 115.341 35.3572 115.092C35.5091 114.843 35.7159 114.649 35.9776 114.51C36.2411 114.371 36.5367 114.301 36.8642 114.301C37.1936 114.301 37.4855 114.371 37.7399 114.51C37.9943 114.649 38.1938 114.836 38.3384 115.073C38.4829 115.309 38.5552 115.571 38.5552 115.86C38.5552 116.067 38.5177 116.269 38.4427 116.467C38.3695 116.663 38.2414 116.882 38.0584 117.123C37.8772 117.363 37.6255 117.656 37.3035 118.002L36.0407 119.352V119.396H38.654V120H35.1074ZM41.6215 120.077C41.2079 120.077 40.8556 119.964 40.5646 119.739C40.2737 119.512 40.0513 119.184 39.8976 118.754C39.7439 118.322 39.667 117.8 39.667 117.189C39.667 116.581 39.7439 116.063 39.8976 115.633C40.0531 115.201 40.2764 114.871 40.5674 114.644C40.8602 114.416 41.2116 114.301 41.6215 114.301C42.0314 114.301 42.3819 114.416 42.6729 114.644C42.9657 114.871 43.189 115.201 43.3427 115.633C43.4983 116.063 43.576 116.581 43.576 117.189C43.576 117.8 43.4992 118.322 43.3454 118.754C43.1917 119.184 42.9694 119.512 42.6784 119.739C42.3874 119.964 42.0351 120.077 41.6215 120.077ZM41.6215 119.473C42.0314 119.473 42.3499 119.275 42.5768 118.88C42.8037 118.485 42.9172 117.921 42.9172 117.189C42.9172 116.702 42.865 116.288 42.7607 115.945C42.6582 115.603 42.51 115.342 42.316 115.163C42.1239 114.984 41.8924 114.894 41.6215 114.894C41.2152 114.894 40.8977 115.094 40.669 115.495C40.4402 115.894 40.3258 116.459 40.3258 117.189C40.3258 117.676 40.3771 118.089 40.4795 118.43C40.582 118.77 40.7294 119.029 40.9215 119.207C41.1155 119.384 41.3488 119.473 41.6215 119.473Z" fill="#C4C4C4"/>
<path d="M7 99H482" stroke="white" stroke-opacity="0.1" stroke-width="1.28837"/>
<path d="M169.091 299.681C169.441 300.01 169.616 300.428 169.616 300.933C169.616 301.438 169.441 301.855 169.091 302.185C168.746 302.51 168.292 302.672 167.73 302.672H166.772V304.674H166.053V299.186H167.73C168.292 299.186 168.746 299.351 169.091 299.681ZM168.588 301.706C168.8 301.505 168.905 301.247 168.905 300.933C168.905 300.619 168.8 300.361 168.588 300.16C168.382 299.959 168.096 299.858 167.73 299.858H166.772V302.007H167.73C168.096 302.007 168.382 301.907 168.588 301.706ZM170.429 304.674V300.809H171.094V301.559C171.166 301.322 171.305 301.131 171.511 300.987C171.722 300.843 171.944 300.771 172.176 300.771C172.289 300.771 172.39 300.781 172.477 300.801V301.489C172.385 301.448 172.264 301.428 172.114 301.428C171.846 301.428 171.609 301.544 171.403 301.775C171.197 302.007 171.094 302.335 171.094 302.757V304.674H170.429ZM174.84 304.752C174.258 304.752 173.773 304.558 173.387 304.172C173.005 303.78 172.815 303.303 172.815 302.742C172.815 302.18 173.005 301.706 173.387 301.319C173.773 300.928 174.258 300.732 174.84 300.732C175.417 300.732 175.896 300.928 176.278 301.319C176.664 301.706 176.858 302.18 176.858 302.742C176.858 303.303 176.664 303.78 176.278 304.172C175.896 304.558 175.417 304.752 174.84 304.752ZM173.866 303.731C174.119 303.999 174.443 304.133 174.84 304.133C175.237 304.133 175.559 303.999 175.806 303.731C176.054 303.463 176.177 303.133 176.177 302.742C176.177 302.35 176.054 302.02 175.806 301.752C175.559 301.484 175.237 301.35 174.84 301.35C174.443 301.35 174.119 301.484 173.866 301.752C173.619 302.02 173.495 302.35 173.495 302.742C173.495 303.133 173.619 303.463 173.866 303.731ZM179.404 304.752C178.868 304.752 178.417 304.556 178.052 304.164C177.691 303.772 177.51 303.298 177.51 302.742C177.51 302.185 177.691 301.711 178.052 301.319C178.417 300.928 178.868 300.732 179.404 300.732C179.688 300.732 179.951 300.796 180.193 300.925C180.44 301.049 180.631 301.209 180.765 301.404V298.877H181.43V304.674H180.765V304.079C180.631 304.275 180.44 304.437 180.193 304.566C179.951 304.69 179.688 304.752 179.404 304.752ZM179.505 304.141C179.886 304.141 180.201 304.007 180.448 303.739C180.695 303.471 180.819 303.139 180.819 302.742C180.819 302.345 180.695 302.013 180.448 301.745C180.201 301.477 179.886 301.343 179.505 301.343C179.118 301.343 178.801 301.477 178.554 301.745C178.307 302.013 178.183 302.345 178.183 302.742C178.183 303.139 178.307 303.471 178.554 303.739C178.801 304.007 179.118 304.141 179.505 304.141ZM184.049 304.752C183.627 304.752 183.284 304.61 183.021 304.326C182.758 304.038 182.627 303.657 182.627 303.182V300.809H183.292V303.082C183.292 303.407 183.369 303.664 183.524 303.855C183.683 304.046 183.897 304.141 184.165 304.141C184.474 304.141 184.73 304.015 184.931 303.762C185.137 303.504 185.24 303.159 185.24 302.726V300.809H185.905V304.674H185.24V304.079C184.987 304.527 184.59 304.752 184.049 304.752ZM188.874 304.752C188.291 304.752 187.81 304.558 187.428 304.172C187.047 303.78 186.856 303.303 186.856 302.742C186.856 302.18 187.047 301.706 187.428 301.319C187.81 300.928 188.291 300.732 188.874 300.732C189.353 300.732 189.768 300.866 190.118 301.134C190.469 301.397 190.703 301.742 190.822 302.17H190.111C190.018 301.917 189.863 301.716 189.647 301.567C189.43 301.417 189.173 301.343 188.874 301.343C188.477 301.343 188.152 301.477 187.9 301.745C187.652 302.013 187.529 302.345 187.529 302.742C187.529 303.139 187.652 303.471 187.9 303.739C188.152 304.007 188.477 304.141 188.874 304.141C189.173 304.141 189.43 304.066 189.647 303.917C189.863 303.767 190.018 303.566 190.111 303.314H190.822C190.708 303.742 190.476 304.089 190.126 304.357C189.776 304.62 189.358 304.752 188.874 304.752ZM193.164 304.713C192.808 304.713 192.522 304.612 192.306 304.411C192.09 304.211 191.981 303.917 191.981 303.53V301.42H191.162V300.809H191.981V299.735H192.646V300.809H193.759V301.42H192.646V303.445C192.646 303.687 192.698 303.857 192.801 303.955C192.904 304.053 193.066 304.102 193.288 304.102C193.484 304.102 193.641 304.077 193.759 304.025V304.62C193.574 304.682 193.375 304.713 193.164 304.713ZM196.968 304.674V299.843H195.909L196.45 299.186H197.633V304.674H196.968Z" fill="white"/>
<rect x="146" y="299.251" width="13.5279" height="5.15349" fill="url(#paint2_linear_542_571)"/>
<path d="M238.018 299.681C238.368 300.01 238.543 300.428 238.543 300.933C238.543 301.438 238.368 301.855 238.018 302.185C237.672 302.51 237.219 302.672 236.657 302.672H235.698V304.674H234.98V299.186H236.657C237.219 299.186 237.672 299.351 238.018 299.681ZM237.515 301.706C237.726 301.505 237.832 301.247 237.832 300.933C237.832 300.619 237.726 300.361 237.515 300.16C237.309 299.959 237.023 299.858 236.657 299.858H235.698V302.007H236.657C237.023 302.007 237.309 301.907 237.515 301.706ZM239.356 304.674V300.809H240.02V301.559C240.093 301.322 240.232 301.131 240.438 300.987C240.649 300.843 240.871 300.771 241.103 300.771C241.216 300.771 241.317 300.781 241.404 300.801V301.489C241.311 301.448 241.19 301.428 241.041 301.428C240.773 301.428 240.536 301.544 240.33 301.775C240.124 302.007 240.02 302.335 240.02 302.757V304.674H239.356ZM243.767 304.752C243.184 304.752 242.7 304.558 242.314 304.172C241.932 303.78 241.741 303.303 241.741 302.742C241.741 302.18 241.932 301.706 242.314 301.319C242.7 300.928 243.184 300.732 243.767 300.732C244.344 300.732 244.823 300.928 245.205 301.319C245.591 301.706 245.784 302.18 245.784 302.742C245.784 303.303 245.591 303.78 245.205 304.172C244.823 304.558 244.344 304.752 243.767 304.752ZM242.793 303.731C243.045 303.999 243.37 304.133 243.767 304.133C244.164 304.133 244.486 303.999 244.733 303.731C244.98 303.463 245.104 303.133 245.104 302.742C245.104 302.35 244.98 302.02 244.733 301.752C244.486 301.484 244.164 301.35 243.767 301.35C243.37 301.35 243.045 301.484 242.793 301.752C242.545 302.02 242.422 302.35 242.422 302.742C242.422 303.133 242.545 303.463 242.793 303.731ZM248.331 304.752C247.795 304.752 247.344 304.556 246.978 304.164C246.618 303.772 246.437 303.298 246.437 302.742C246.437 302.185 246.618 301.711 246.978 301.319C247.344 300.928 247.795 300.732 248.331 300.732C248.615 300.732 248.877 300.796 249.12 300.925C249.367 301.049 249.558 301.209 249.692 301.404V298.877H250.356V304.674H249.692V304.079C249.558 304.275 249.367 304.437 249.12 304.566C248.877 304.69 248.615 304.752 248.331 304.752ZM248.432 304.141C248.813 304.141 249.127 304.007 249.375 303.739C249.622 303.471 249.746 303.139 249.746 302.742C249.746 302.345 249.622 302.013 249.375 301.745C249.127 301.477 248.813 301.343 248.432 301.343C248.045 301.343 247.728 301.477 247.481 301.745C247.233 302.013 247.11 302.345 247.11 302.742C247.11 303.139 247.233 303.471 247.481 303.739C247.728 304.007 248.045 304.141 248.432 304.141ZM252.976 304.752C252.553 304.752 252.211 304.61 251.948 304.326C251.685 304.038 251.554 303.657 251.554 303.182V300.809H252.218V303.082C252.218 303.407 252.296 303.664 252.45 303.855C252.61 304.046 252.824 304.141 253.092 304.141C253.401 304.141 253.656 304.015 253.857 303.762C254.063 303.504 254.166 303.159 254.166 302.726V300.809H254.831V304.674H254.166V304.079C253.914 304.527 253.517 304.752 252.976 304.752ZM257.8 304.752C257.218 304.752 256.736 304.558 256.355 304.172C255.974 303.78 255.783 303.303 255.783 302.742C255.783 302.18 255.974 301.706 256.355 301.319C256.736 300.928 257.218 300.732 257.8 300.732C258.28 300.732 258.695 300.866 259.045 301.134C259.395 301.397 259.63 301.742 259.749 302.17H259.037C258.945 301.917 258.79 301.716 258.574 301.567C258.357 301.417 258.099 301.343 257.8 301.343C257.404 301.343 257.079 301.477 256.826 301.745C256.579 302.013 256.455 302.345 256.455 302.742C256.455 303.139 256.579 303.471 256.826 303.739C257.079 304.007 257.404 304.141 257.8 304.141C258.099 304.141 258.357 304.066 258.574 303.917C258.79 303.767 258.945 303.566 259.037 303.314H259.749C259.635 303.742 259.403 304.089 259.053 304.357C258.702 304.62 258.285 304.752 257.8 304.752ZM262.091 304.713C261.735 304.713 261.449 304.612 261.233 304.411C261.016 304.211 260.908 303.917 260.908 303.53V301.42H260.089V300.809H260.908V299.735H261.573V300.809H262.686V301.42H261.573V303.445C261.573 303.687 261.624 303.857 261.728 303.955C261.831 304.053 261.993 304.102 262.215 304.102C262.41 304.102 262.568 304.077 262.686 304.025V304.62C262.501 304.682 262.302 304.713 262.091 304.713ZM268.708 304.033V304.674H265.153V304.411C265.153 304.221 265.181 304.04 265.238 303.87C265.299 303.695 265.366 303.548 265.439 303.43C265.511 303.311 265.624 303.18 265.779 303.036C265.933 302.886 266.054 302.778 266.142 302.711C266.23 302.639 266.376 302.53 266.583 302.386C266.789 302.237 266.925 302.139 266.992 302.092C267.358 301.824 267.611 301.6 267.75 301.42C267.894 301.234 267.966 300.992 267.966 300.693C267.966 300.405 267.874 300.175 267.688 300.005C267.503 299.83 267.26 299.742 266.961 299.742C266.647 299.742 266.379 299.838 266.157 300.028C265.936 300.219 265.825 300.485 265.825 300.825H265.145C265.145 300.309 265.315 299.892 265.655 299.572C266 299.253 266.433 299.093 266.954 299.093C267.438 299.093 267.84 299.232 268.16 299.511C268.484 299.789 268.647 300.186 268.647 300.701C268.647 301.093 268.551 301.428 268.361 301.706C268.17 301.979 267.843 302.283 267.379 302.618C267.291 302.68 267.168 302.768 267.008 302.881C266.848 302.989 266.724 303.077 266.637 303.144C266.549 303.211 266.451 303.293 266.343 303.391C266.24 303.484 266.157 303.584 266.096 303.693C266.039 303.796 265.998 303.909 265.972 304.033H268.708Z" fill="white"/>
<rect x="214.928" y="299.251" width="13.5279" height="5.15349" fill="#D80027"/>
<path d="M306.945 299.681C307.296 300.01 307.471 300.428 307.471 300.933C307.471 301.438 307.296 301.855 306.945 302.185C306.6 302.51 306.146 302.672 305.585 302.672H304.626V304.674H303.907V299.186H305.585C306.146 299.186 306.6 299.351 306.945 299.681ZM306.443 301.706C306.654 301.505 306.76 301.247 306.76 300.933C306.76 300.619 306.654 300.361 306.443 300.16C306.237 299.959 305.951 299.858 305.585 299.858H304.626V302.007H305.585C305.951 302.007 306.237 301.907 306.443 301.706ZM308.283 304.674V300.809H308.948V301.559C309.02 301.322 309.159 301.131 309.366 300.987C309.577 300.843 309.799 300.771 310.03 300.771C310.144 300.771 310.244 300.781 310.332 300.801V301.489C310.239 301.448 310.118 301.428 309.969 301.428C309.701 301.428 309.464 301.544 309.257 301.775C309.051 302.007 308.948 302.335 308.948 302.757V304.674H308.283ZM312.695 304.752C312.112 304.752 311.628 304.558 311.241 304.172C310.86 303.78 310.669 303.303 310.669 302.742C310.669 302.18 310.86 301.706 311.241 301.319C311.628 300.928 312.112 300.732 312.695 300.732C313.272 300.732 313.751 300.928 314.132 301.319C314.519 301.706 314.712 302.18 314.712 302.742C314.712 303.303 314.519 303.78 314.132 304.172C313.751 304.558 313.272 304.752 312.695 304.752ZM311.721 303.731C311.973 303.999 312.298 304.133 312.695 304.133C313.091 304.133 313.413 303.999 313.661 303.731C313.908 303.463 314.032 303.133 314.032 302.742C314.032 302.35 313.908 302.02 313.661 301.752C313.413 301.484 313.091 301.35 312.695 301.35C312.298 301.35 311.973 301.484 311.721 301.752C311.473 302.02 311.349 302.35 311.349 302.742C311.349 303.133 311.473 303.463 311.721 303.731ZM317.259 304.752C316.723 304.752 316.272 304.556 315.906 304.164C315.545 303.772 315.365 303.298 315.365 302.742C315.365 302.185 315.545 301.711 315.906 301.319C316.272 300.928 316.723 300.732 317.259 300.732C317.542 300.732 317.805 300.796 318.047 300.925C318.295 301.049 318.485 301.209 318.619 301.404V298.877H319.284V304.674H318.619V304.079C318.485 304.275 318.295 304.437 318.047 304.566C317.805 304.69 317.542 304.752 317.259 304.752ZM317.359 304.141C317.741 304.141 318.055 304.007 318.302 303.739C318.55 303.471 318.673 303.139 318.673 302.742C318.673 302.345 318.55 302.013 318.302 301.745C318.055 301.477 317.741 301.343 317.359 301.343C316.973 301.343 316.656 301.477 316.408 301.745C316.161 302.013 316.037 302.345 316.037 302.742C316.037 303.139 316.161 303.471 316.408 303.739C316.656 304.007 316.973 304.141 317.359 304.141ZM321.904 304.752C321.481 304.752 321.138 304.61 320.876 304.326C320.613 304.038 320.481 303.657 320.481 303.182V300.809H321.146V303.082C321.146 303.407 321.224 303.664 321.378 303.855C321.538 304.046 321.752 304.141 322.02 304.141C322.329 304.141 322.584 304.015 322.785 303.762C322.991 303.504 323.094 303.159 323.094 302.726V300.809H323.759V304.674H323.094V304.079C322.842 304.527 322.445 304.752 321.904 304.752ZM326.728 304.752C326.146 304.752 325.664 304.558 325.283 304.172C324.901 303.78 324.711 303.303 324.711 302.742C324.711 302.18 324.901 301.706 325.283 301.319C325.664 300.928 326.146 300.732 326.728 300.732C327.207 300.732 327.622 300.866 327.973 301.134C328.323 301.397 328.558 301.742 328.676 302.17H327.965C327.872 301.917 327.718 301.716 327.501 301.567C327.285 301.417 327.027 301.343 326.728 301.343C326.331 301.343 326.007 301.477 325.754 301.745C325.507 302.013 325.383 302.345 325.383 302.742C325.383 303.139 325.507 303.471 325.754 303.739C326.007 304.007 326.331 304.141 326.728 304.141C327.027 304.141 327.285 304.066 327.501 303.917C327.718 303.767 327.872 303.566 327.965 303.314H328.676C328.563 303.742 328.331 304.089 327.981 304.357C327.63 304.62 327.213 304.752 326.728 304.752ZM331.019 304.713C330.663 304.713 330.377 304.612 330.161 304.411C329.944 304.211 329.836 303.917 329.836 303.53V301.42H329.016V300.809H329.836V299.735H330.501V300.809H331.614V301.42H330.501V303.445C330.501 303.687 330.552 303.857 330.655 303.955C330.758 304.053 330.921 304.102 331.142 304.102C331.338 304.102 331.495 304.077 331.614 304.025V304.62C331.428 304.682 331.23 304.713 331.019 304.713ZM335.997 304.752C335.451 304.752 334.987 304.587 334.606 304.257C334.23 303.922 334.042 303.504 334.042 303.005H334.714C334.735 303.329 334.866 303.595 335.108 303.801C335.351 304.002 335.647 304.102 335.997 304.102C336.317 304.102 336.582 304.015 336.794 303.839C337.005 303.664 337.111 303.422 337.111 303.113C337.111 302.783 337.002 302.536 336.786 302.371C336.575 302.206 336.283 302.123 335.912 302.123H335.503V301.513H335.943C336.237 301.513 336.477 301.43 336.662 301.265C336.853 301.1 336.951 300.887 336.956 300.624C336.956 300.366 336.861 300.155 336.67 299.99C336.484 299.825 336.25 299.742 335.966 299.742C335.642 299.742 335.369 299.838 335.147 300.028C334.925 300.219 334.815 300.485 334.815 300.825H334.134C334.134 300.299 334.31 299.879 334.66 299.565C335.01 299.25 335.446 299.093 335.966 299.093C336.446 299.093 336.843 299.232 337.157 299.511C337.476 299.784 337.636 300.147 337.636 300.6C337.631 300.863 337.559 301.1 337.42 301.312C337.286 301.523 337.111 301.685 336.894 301.799C337.172 301.912 337.391 302.087 337.551 302.324C337.711 302.556 337.791 302.827 337.791 303.136C337.791 303.615 337.623 304.004 337.288 304.303C336.953 304.602 336.523 304.752 335.997 304.752Z" fill="white"/>
<rect x="283.855" y="299.251" width="13.5279" height="5.15349" fill="#23C215"/>
<path d="M81.9144 267.321C81.5236 267.321 81.1993 267.208 80.9417 266.98C80.684 266.748 80.5552 266.428 80.5552 266.02H81.1478C81.1478 266.252 81.2208 266.435 81.3668 266.568C81.5171 266.701 81.6975 266.767 81.9079 266.767C82.127 266.767 82.3073 266.699 82.4491 266.561C82.5908 266.424 82.6616 266.209 82.6616 265.917V262.67H83.2543V265.982C83.2543 266.432 83.1276 266.77 82.8742 266.993C82.6208 267.212 82.3009 267.321 81.9144 267.321ZM85.6216 267.309C85.1749 267.309 84.7992 267.145 84.4942 266.819C84.1936 266.493 84.0433 266.097 84.0433 265.634C84.0433 265.17 84.1936 264.775 84.4942 264.448C84.7992 264.122 85.1749 263.959 85.6216 263.959C85.8578 263.959 86.0768 264.012 86.2786 264.12C86.4848 264.223 86.6437 264.356 86.7553 264.519V264.023H87.3093V267.244H86.7553V266.748C86.6437 266.911 86.4848 267.047 86.2786 267.154C86.0768 267.257 85.8578 267.309 85.6216 267.309ZM85.7053 266.8C86.0231 266.8 86.2851 266.688 86.4912 266.465C86.6974 266.241 86.8004 265.964 86.8004 265.634C86.8004 265.303 86.6974 265.026 86.4912 264.803C86.2851 264.579 86.0231 264.468 85.7053 264.468C85.3832 264.468 85.1191 264.579 84.913 264.803C84.7068 265.026 84.6038 265.303 84.6038 265.634C84.6038 265.964 84.7068 266.241 84.913 266.465C85.1191 266.688 85.3832 266.8 85.7053 266.8ZM88.3522 267.244V264.023H88.9062V264.519C89.1252 264.146 89.4666 263.959 89.9304 263.959C90.2955 263.959 90.5896 264.077 90.813 264.313C91.0363 264.549 91.1479 264.865 91.1479 265.26V267.244H90.6004V265.344C90.6004 265.073 90.5317 264.861 90.3942 264.706C90.2568 264.547 90.0721 264.468 89.8402 264.468C89.574 264.468 89.3507 264.573 89.1703 264.783C88.9942 264.994 88.9062 265.282 88.9062 265.647V267.244H88.3522Z" fill="#C4C4C4"/>
<path d="M155.972 267.244V262.67H158.632V263.237H156.571V264.622H158.201V265.189H156.571V267.244H155.972ZM160.437 267.309C159.969 267.309 159.58 267.15 159.271 266.832C158.966 266.514 158.814 266.115 158.814 265.634C158.814 265.148 158.962 264.749 159.258 264.435C159.559 264.118 159.956 263.959 160.45 263.959C160.948 263.959 161.339 264.135 161.622 264.487C161.906 264.839 162.03 265.271 161.996 265.782H159.374C159.383 266.074 159.49 266.319 159.696 266.516C159.902 266.709 160.151 266.806 160.443 266.806C160.881 266.806 161.193 266.626 161.377 266.265H161.944C161.863 266.566 161.689 266.815 161.423 267.012C161.156 267.21 160.828 267.309 160.437 267.309ZM161.068 264.68C160.892 264.526 160.68 264.448 160.431 264.448C160.181 264.448 159.958 264.524 159.761 264.674C159.567 264.824 159.447 265.047 159.4 265.344H161.41C161.358 265.052 161.244 264.831 161.068 264.68ZM164.483 267.309C164.247 267.309 164.026 267.257 163.82 267.154C163.618 267.047 163.461 266.911 163.349 266.748V267.244H162.795V262.413H163.349V264.519C163.461 264.356 163.618 264.223 163.82 264.12C164.026 264.012 164.247 263.959 164.483 263.959C164.93 263.959 165.303 264.122 165.604 264.448C165.909 264.775 166.061 265.17 166.061 265.634C166.061 266.097 165.909 266.493 165.604 266.819C165.303 267.145 164.93 267.309 164.483 267.309ZM163.613 266.465C163.82 266.688 164.082 266.8 164.399 266.8C164.717 266.8 164.979 266.688 165.185 266.465C165.391 266.241 165.494 265.964 165.494 265.634C165.494 265.303 165.391 265.026 165.185 264.803C164.979 264.579 164.717 264.468 164.399 264.468C164.082 264.468 163.82 264.579 163.613 264.803C163.407 265.026 163.304 265.303 163.304 265.634C163.304 265.964 163.407 266.241 163.613 266.465Z" fill="#C4C4C4"/>
<path d="M229.563 262.67H230.11L231.805 264.951L233.512 262.67H234.053V267.244H233.46V263.688L231.811 265.904L230.162 263.688V267.244H229.563V262.67ZM236.455 267.309C236.009 267.309 235.633 267.145 235.328 266.819C235.027 266.493 234.877 266.097 234.877 265.634C234.877 265.17 235.027 264.775 235.328 264.448C235.633 264.122 236.009 263.959 236.455 263.959C236.692 263.959 236.911 264.012 237.112 264.12C237.319 264.223 237.477 264.356 237.589 264.519V264.023H238.143V267.244H237.589V266.748C237.477 266.911 237.319 267.047 237.112 267.154C236.911 267.257 236.692 267.309 236.455 267.309ZM236.539 266.8C236.857 266.8 237.119 266.688 237.325 266.465C237.531 266.241 237.634 265.964 237.634 265.634C237.634 265.303 237.531 265.026 237.325 264.803C237.119 264.579 236.857 264.468 236.539 264.468C236.217 264.468 235.953 264.579 235.747 264.803C235.541 265.026 235.438 265.303 235.438 265.634C235.438 265.964 235.541 266.241 235.747 266.465C235.953 266.688 236.217 266.8 236.539 266.8ZM239.186 267.244V264.023H239.74V264.648C239.8 264.451 239.916 264.292 240.088 264.171C240.264 264.051 240.449 263.991 240.642 263.991C240.736 263.991 240.82 264 240.893 264.017V264.59C240.816 264.556 240.715 264.539 240.59 264.539C240.367 264.539 240.169 264.635 239.998 264.828C239.826 265.022 239.74 265.294 239.74 265.647V267.244H239.186Z" fill="#C4C4C4"/>
<path d="M293.004 267.244L295.026 262.67H295.522L297.552 267.244H296.927L296.334 265.911H294.202L293.622 267.244H293.004ZM295.265 263.482L294.44 265.37H296.096L295.265 263.482ZM298.665 268.59H298.111V264.023H298.665V264.519C298.776 264.356 298.933 264.223 299.135 264.12C299.341 264.012 299.562 263.959 299.798 263.959C300.245 263.959 300.619 264.122 300.919 264.448C301.224 264.775 301.377 265.17 301.377 265.634C301.377 266.097 301.224 266.493 300.919 266.819C300.619 267.145 300.245 267.309 299.798 267.309C299.562 267.309 299.341 267.257 299.135 267.154C298.933 267.047 298.776 266.911 298.665 266.748V268.59ZM298.929 266.465C299.135 266.688 299.397 266.8 299.715 266.8C300.032 266.8 300.294 266.688 300.5 266.465C300.707 266.241 300.81 265.964 300.81 265.634C300.81 265.303 300.707 265.026 300.5 264.803C300.294 264.579 300.032 264.468 299.715 264.468C299.397 264.468 299.135 264.579 298.929 264.803C298.723 265.026 298.619 265.303 298.619 265.634C298.619 265.964 298.723 266.241 298.929 266.465ZM302.174 267.244V264.023H302.728V264.648C302.789 264.451 302.905 264.292 303.076 264.171C303.252 264.051 303.437 263.991 303.63 263.991C303.725 263.991 303.809 264 303.882 264.017V264.59C303.804 264.556 303.703 264.539 303.579 264.539C303.355 264.539 303.158 264.635 302.986 264.828C302.814 265.022 302.728 265.294 302.728 265.647V267.244H302.174Z" fill="#C4C4C4"/>
<path d="M365.977 262.67H366.525L368.219 264.951L369.926 262.67H370.467V267.244H369.874V263.688L368.225 265.904L366.576 263.688V267.244H365.977V262.67ZM372.87 267.309C372.423 267.309 372.047 267.145 371.742 266.819C371.442 266.493 371.291 266.097 371.291 265.634C371.291 265.17 371.442 264.775 371.742 264.448C372.047 264.122 372.423 263.959 372.87 263.959C373.106 263.959 373.325 264.012 373.527 264.12C373.733 264.223 373.892 264.356 374.003 264.519V264.023H374.557V267.244H374.003V266.748C373.892 266.911 373.733 267.047 373.527 267.154C373.325 267.257 373.106 267.309 372.87 267.309ZM372.953 266.8C373.271 266.8 373.533 266.688 373.739 266.465C373.945 266.241 374.048 265.964 374.048 265.634C374.048 265.303 373.945 265.026 373.739 264.803C373.533 264.579 373.271 264.468 372.953 264.468C372.631 264.468 372.367 264.579 372.161 264.803C371.955 265.026 371.852 265.303 371.852 265.634C371.852 265.964 371.955 266.241 372.161 266.465C372.367 266.688 372.631 266.8 372.953 266.8ZM376.457 268.59H375.838L376.541 267.077L375.13 264.023H375.742L376.85 266.471L377.951 264.023H378.57L376.457 268.59Z" fill="#C4C4C4"/>
<path d="M442.835 267.321C442.444 267.321 442.12 267.208 441.862 266.98C441.605 266.748 441.476 266.428 441.476 266.02H442.068C442.068 266.252 442.141 266.435 442.287 266.568C442.438 266.701 442.618 266.767 442.829 266.767C443.048 266.767 443.228 266.699 443.37 266.561C443.511 266.424 443.582 266.209 443.582 265.917V262.67H444.175V265.982C444.175 266.432 444.048 266.77 443.795 266.993C443.541 267.212 443.222 267.321 442.835 267.321ZM446.349 267.309C445.997 267.309 445.711 267.19 445.492 266.954C445.273 266.714 445.164 266.396 445.164 266.001V264.023H445.718V265.917C445.718 266.188 445.782 266.402 445.911 266.561C446.044 266.72 446.222 266.8 446.446 266.8C446.703 266.8 446.916 266.694 447.083 266.484C447.255 266.269 447.341 265.982 447.341 265.621V264.023H447.895V267.244H447.341V266.748C447.131 267.122 446.8 267.309 446.349 267.309ZM448.939 267.244V264.023H449.493V264.519C449.712 264.146 450.054 263.959 450.518 263.959C450.883 263.959 451.177 264.077 451.4 264.313C451.623 264.549 451.735 264.865 451.735 265.26V267.244H451.188V265.344C451.188 265.073 451.119 264.861 450.981 264.706C450.844 264.547 450.659 264.468 450.427 264.468C450.161 264.468 449.938 264.573 449.757 264.783C449.581 264.994 449.493 265.282 449.493 265.647V267.244H448.939Z" fill="#C4C4C4"/>
<path d="M53 208L125.5 186L196 208L266.5 163L337.5 163.5L408.5 163L481.5 141" stroke="url(#paint3_linear_542_571)" stroke-width="1.28837"/>
<circle cx="53.2547" cy="230.255" r="2.25465" fill="#C21515"/>
<circle cx="125.255" cy="163.255" r="2.25465" fill="#C21515"/>
<circle cx="196.255" cy="163.255" r="2.25465" fill="#C21515"/>
<circle cx="267.255" cy="186.255" r="2.25465" fill="#C21515"/>
<circle cx="338.255" cy="208.255" r="2.25465" fill="#C21515"/>
<circle cx="408.255" cy="186.255" r="2.25465" fill="#C21515"/>
<circle cx="481.255" cy="164.255" r="2.25465" fill="#C21515"/>
<path d="M53.5 230.5L125.5 163.5H196L267 186L337.5 208.5L408 186L481.5 163.5" stroke="#C21515" stroke-width="1.28837"/>
<circle cx="54.2547" cy="186.255" r="2.25465" fill="#23C215"/>
<circle cx="125.255" cy="208.255" r="2.25465" fill="#23C215"/>
<circle cx="196.255" cy="186.255" r="2.25465" fill="#23C215"/>
<circle cx="267.255" cy="230.255" r="2.25465" fill="#23C215"/>
<circle cx="337.255" cy="230.255" r="2.25465" fill="#23C215"/>
<circle cx="408.255" cy="208.255" r="2.25465" fill="#23C215"/>
<circle cx="481.255" cy="186.255" r="2.25465" fill="#23C215"/>
<path d="M53.5 185.5L125.5 208L196.5 186L266.5 230.5H337.5L409 208L481 186" stroke="#23C215" stroke-width="1.28837"/>
<circle cx="453.73" cy="31.7673" r="7.40814" stroke="white" stroke-opacity="0.1" stroke-width="0.644186"/>
<rect x="452.765" y="30.479" width="1.93255" height="5.15348" rx="0.966277" fill="#C4C4C4"/>
<rect x="452.765" y="27.9023" width="1.93255" height="1.93255" rx="0.966277" fill="#C4C4C4"/>
<circle cx="53.2547" cy="208.255" r="2.25465" fill="url(#paint4_linear_542_571)"/>
<circle cx="125.255" cy="186.255" r="2.25465" fill="url(#paint5_linear_542_571)"/>
<circle cx="196.255" cy="208.255" r="2.25465" fill="url(#paint6_linear_542_571)"/>
<circle cx="267.255" cy="163.255" r="2.25465" fill="url(#paint7_linear_542_571)"/>
<circle cx="337.255" cy="163.255" r="2.25465" fill="url(#paint8_linear_542_571)"/>
<circle cx="408.255" cy="163.255" r="2.25465" fill="url(#paint9_linear_542_571)"/>
<circle cx="481.255" cy="141.255" r="2.25465" fill="url(#paint10_linear_542_571)"/>
<defs>
<filter id="filter0_d_542_571" x="0.558139" y="0.846511" width="487.884" height="344.884" filterUnits="userSpaceOnUse" color-interpolation-filters="sRGB">
<feFlood flood-opacity="0" result="BackgroundImageFix"/>
<feColorMatrix in="SourceAlpha" type="matrix" values="0 0 0 0 0 0 0 0 0 0 0 0 0 0 0 0 0 0 127 0" result="hardAlpha"/>
<feOffset dy="1.28837"/>
<feGaussianBlur stdDeviation="3.22093"/>
<feComposite in2="hardAlpha" operator="out"/>
<feColorMatrix type="matrix" values="0 0 0 0 0 0 0 0 0 0 0 0 0 0 0 0 0 0 0.1 0"/>
<feBlend mode="normal" in2="BackgroundImageFix" result="effect1_dropShadow_542_571"/>
<feBlend mode="normal" in="SourceGraphic" in2="effect1_dropShadow_542_571" result="shape"/>
</filter>
<radialGradient id="paint0_radial_542_571" cx="0" cy="0" r="1" gradientUnits="userSpaceOnUse" gradientTransform="translate(132.221 53.4312) scale(306.954 246.422)">
<stop stop-color="#1A1A1A"/>
<stop offset="0.5" stop-color="#151515"/>
<stop offset="1" stop-color="#101010"/>
</radialGradient>
<linearGradient id="paint1_linear_542_571" x1="138.377" y1="141.543" x2="77.0762" y2="-4.21093" gradientUnits="userSpaceOnUse">
<stop stop-color="white" stop-opacity="0"/>
<stop offset="0.17" stop-color="white" stop-opacity="0.05"/>
<stop offset="0.33" stop-color="white" stop-opacity="0.1"/>
</linearGradient>
<linearGradient id="paint2_linear_542_571" x1="146" y1="301.828" x2="159.528" y2="301.828" gradientUnits="userSpaceOnUse">
<stop stop-color="#1595C2"/>
<stop offset="1" stop-color="#66BFDE"/>
</linearGradient>
<linearGradient id="paint3_linear_542_571" x1="53" y1="174.5" x2="481.5" y2="174.5" gradientUnits="userSpaceOnUse">
<stop stop-color="#1595C2"/>
<stop offset="1" stop-color="#66BFDE"/>
</linearGradient>
<linearGradient id="paint4_linear_542_571" x1="51" y1="208.255" x2="55.5093" y2="208.255" gradientUnits="userSpaceOnUse">
<stop stop-color="#1595C2"/>
<stop offset="1" stop-color="#66BFDE"/>
</linearGradient>
<linearGradient id="paint5_linear_542_571" x1="123" y1="186.255" x2="127.509" y2="186.255" gradientUnits="userSpaceOnUse">
<stop stop-color="#1595C2"/>
<stop offset="1" stop-color="#66BFDE"/>
</linearGradient>
<linearGradient id="paint6_linear_542_571" x1="194" y1="208.255" x2="198.509" y2="208.255" gradientUnits="userSpaceOnUse">
<stop stop-color="#1595C2"/>
<stop offset="1" stop-color="#66BFDE"/>
</linearGradient>
<linearGradient id="paint7_linear_542_571" x1="265" y1="163.255" x2="269.509" y2="163.255" gradientUnits="userSpaceOnUse">
<stop stop-color="#1595C2"/>
<stop offset="1" stop-color="#66BFDE"/>
</linearGradient>
<linearGradient id="paint8_linear_542_571" x1="335" y1="163.255" x2="339.509" y2="163.255" gradientUnits="userSpaceOnUse">
<stop stop-color="#1595C2"/>
<stop offset="1" stop-color="#66BFDE"/>
</linearGradient>
<linearGradient id="paint9_linear_542_571" x1="406" y1="163.255" x2="410.509" y2="163.255" gradientUnits="userSpaceOnUse">
<stop stop-color="#1595C2"/>
<stop offset="1" stop-color="#66BFDE"/>
</linearGradient>
<linearGradient id="paint10_linear_542_571" x1="479" y1="141.255" x2="483.509" y2="141.255" gradientUnits="userSpaceOnUse">
<stop stop-color="#1595C2"/>
<stop offset="1" stop-color="#66BFDE"/>
</linearGradient>
</defs>
</svg>
