<svg width="283" height="134" viewBox="0 0 283 134" fill="none" xmlns="http://www.w3.org/2000/svg">
<g opacity="0.62">
<path d="M267.557 2.82947H12.1396C9.09503 2.82947 6.62695 5.29755 6.62695 8.34208V127.782C6.62695 130.827 9.09503 133.295 12.1396 133.295H267.557C270.602 133.295 273.07 130.827 273.07 127.782V8.34208C273.07 5.29755 270.602 2.82947 267.557 2.82947Z" stroke="#27272A"/>
<path opacity="0.55" d="M255.664 24.8799H219.058C217.536 24.8799 216.302 26.1139 216.302 27.6362V62.5494C216.302 64.0717 217.536 65.3057 219.058 65.3057H255.664C257.186 65.3057 258.42 64.0717 258.42 62.5494V27.6362C258.42 26.1139 257.186 24.8799 255.664 24.8799Z" fill="#27272A"/>
<path opacity="0.55" d="M255.664 77.2498H219.058C217.536 77.2498 216.302 78.4838 216.302 80.0061V114.919C216.302 116.442 217.536 117.676 219.058 117.676H255.664C257.186 117.676 258.42 116.442 258.42 114.919V80.0061C258.42 78.4838 257.186 77.2498 255.664 77.2498Z" fill="#27272A"/>
<path opacity="0.55" d="M194.975 47.8491H20.4086C18.8864 47.8491 17.6523 49.0832 17.6523 50.6054C17.6523 52.1277 18.8864 53.3617 20.4086 53.3617H194.975C196.497 53.3617 197.731 52.1277 197.731 50.6054C197.731 49.0832 196.497 47.8491 194.975 47.8491Z" fill="#27272A"/>
<path opacity="0.55" d="M56.2406 38.6615H20.4086C18.8864 38.6615 17.6523 39.8955 17.6523 41.4178C17.6523 42.9401 18.8864 44.1741 20.4086 44.1741H56.2406C57.7629 44.1741 58.9969 42.9401 58.9969 41.4178C58.9969 39.8955 57.7629 38.6615 56.2406 38.6615Z" fill="#27272A"/>
<path opacity="0.55" d="M184.868 102.057H20.4086C18.8864 102.057 17.6523 103.291 17.6523 104.813C17.6523 106.335 18.8864 107.569 20.4086 107.569H184.868C186.391 107.569 187.625 106.335 187.625 104.813C187.625 103.291 186.391 102.057 184.868 102.057Z" fill="#27272A"/>
<path opacity="0.55" d="M110.448 113.082H20.4086C18.8864 113.082 17.6523 114.316 17.6523 115.838C17.6523 117.36 18.8864 118.594 20.4086 118.594H110.448C111.97 118.594 113.204 117.36 113.204 115.838C113.204 114.316 111.97 113.082 110.448 113.082Z" fill="#27272A"/>
<path opacity="0.55" d="M56.2406 91.9501H20.4086C18.8864 91.9501 17.6523 93.1841 17.6523 94.7064C17.6523 96.2286 18.8864 97.4627 20.4086 97.4627H56.2406C57.7629 97.4627 58.9969 96.2286 58.9969 94.7064C58.9969 93.1841 57.7629 91.9501 56.2406 91.9501Z" fill="#27272A"/>
<path opacity="0.55" d="M88.3975 60.7119H20.4086C18.8864 60.7119 17.6523 61.946 17.6523 63.4682C17.6523 64.9905 18.8864 66.2245 20.4086 66.2245H88.3975C89.9198 66.2245 91.1538 64.9905 91.1538 63.4682C91.1538 61.946 89.9198 60.7119 88.3975 60.7119Z" fill="#27272A"/>
<path opacity="0.55" d="M172.924 70.8184H20.4086C18.8864 70.8184 17.6523 72.0524 17.6523 73.5747C17.6523 75.0969 18.8864 76.331 20.4086 76.331H172.924C174.447 76.331 175.681 75.0969 175.681 73.5747C175.681 72.0524 174.447 70.8184 172.924 70.8184Z" fill="#27272A"/>
<path opacity="0.55" d="M104.017 80.0061H20.4086C18.8864 80.0061 17.6523 81.2401 17.6523 82.7624C17.6523 84.2847 18.8864 85.5187 20.4086 85.5187H104.017C105.539 85.5187 106.773 84.2847 106.773 82.7624C106.773 81.2401 105.539 80.0061 104.017 80.0061Z" fill="#27272A"/>
<path opacity="0.55" d="M183.949 24.8799H21.3274C19.2977 24.8799 17.6523 26.5253 17.6523 28.555C17.6523 30.5846 19.2977 32.23 21.3274 32.23H183.949C185.979 32.23 187.625 30.5846 187.625 28.555C187.625 26.5253 185.979 24.8799 183.949 24.8799Z" fill="#27272A"/>
<path opacity="0.55" d="M22.2418 14.7716C22.2418 13.7578 21.42 12.936 20.4063 12.936C19.3926 12.936 18.5708 13.7578 18.5708 14.7716V14.7756C18.5708 15.7893 19.3926 16.6111 20.4063 16.6111C21.42 16.6111 22.2418 15.7893 22.2418 14.7756V14.7716Z" fill="#3F3F46"/>
<path opacity="0.55" d="M29.5919 14.7716C29.5919 13.7578 28.7701 12.936 27.7564 12.936C26.7427 12.936 25.9209 13.7578 25.9209 14.7716V14.7756C25.9209 15.7893 26.7427 16.6111 27.7564 16.6111C28.7701 16.6111 29.5919 15.7893 29.5919 14.7756V14.7716Z" fill="#3F3F46"/>
<path opacity="0.55" d="M36.9425 14.7716C36.9425 13.7578 36.1207 12.936 35.107 12.936C34.0933 12.936 33.2715 13.7578 33.2715 14.7716V14.7756C33.2715 15.7893 34.0933 16.6111 35.107 16.6111C36.1207 16.6111 36.9425 15.7893 36.9425 14.7756V14.7716Z" fill="#3F3F46"/>
<path opacity="0.43" d="M0.45586 119.203L3.52758 117.226L3.54026 117.218C3.80716 117.051 4.14361 117.042 4.41915 117.195L7.6817 118.973C7.95559 119.125 8.12657 119.413 8.12896 119.726L8.12914 119.741L8.10544 123.317C8.10792 123.64 7.94493 123.942 7.67361 124.118L4.53988 126.145L4.52683 126.153C4.25855 126.327 3.91649 126.338 3.63682 126.183L0.447774 124.415C0.166447 124.259 -0.0058216 123.96 0.000150397 123.638L0.000426401 123.623L0.0128291 119.987C0.0187092 119.668 0.185374 119.372 0.45586 119.203Z" fill="url(#paint0_linear_357_122)"/>
<path opacity="0.43" d="M265.194 6.28451L271.967 2.26729C272.576 1.9165 273.324 1.91062 273.94 2.25185L273.975 2.27142L281.477 6.36536L281.512 6.38475C282.124 6.72386 282.515 7.35699 282.547 8.05645L282.778 15.7632C282.81 16.4573 282.463 17.101 281.868 17.4559L274.96 21.574C274.347 21.9393 273.586 21.9511 272.962 21.605L272.926 21.5848L265.591 17.519L265.554 17.4984C264.926 17.1504 264.531 16.4932 264.519 15.7749L264.257 7.93912C264.245 7.25354 264.601 6.62629 265.194 6.28451Z" fill="url(#paint1_linear_357_122)"/>
</g>
<g filter="url(#filter0_d_357_122)">
<path d="M115.317 47.5458L138.753 32.9886C140.844 31.7219 143.444 31.6688 145.572 32.8496L170.699 46.5825C172.814 47.7561 174.145 49.9717 174.194 52.4028L174.345 79.2649C174.395 81.6871 173.168 83.9572 171.116 85.2425L147.328 100.142C145.225 101.46 142.581 101.533 140.421 100.335L115.857 86.7052C113.684 85.4998 111.984 83.1964 111.999 80.6987V53.3919C112.016 51.0003 113.273 48.7839 115.317 47.5458Z" fill="#18181B"/>
<path d="M115.793 48.3317L115.802 48.3263L139.233 33.7719C141.043 32.6774 143.289 32.6339 145.126 33.6531L145.131 33.6559L170.254 47.386L170.257 47.3873C172.08 48.4003 173.231 50.3124 173.276 52.4151C173.276 52.4172 173.276 52.4194 173.276 52.4215L173.426 79.2701V79.2768V79.2836C173.47 81.3829 172.406 83.3499 170.629 84.4635L146.84 99.3641C145.019 100.505 142.733 100.567 140.868 99.5322L116.303 85.9023C114.345 84.8154 112.904 82.7849 112.918 80.7047V80.6987V53.3981V53.3951C112.933 51.3235 114.023 49.4038 115.793 48.3317Z" stroke="url(#paint2_linear_357_122)" stroke-width="2"/>
</g>
<g filter="url(#filter1_d_357_122)">
<path d="M135.282 60.5132C135.282 59.3163 135.753 58.1686 136.606 57.3217C137.449 56.4759 138.598 56 139.79 56C140.994 56 142.143 56.4759 142.985 57.3217C143.838 58.1686 144.309 59.3163 144.309 60.5132C144.309 61.7102 143.838 62.8579 142.985 63.7048C142.143 64.5505 140.994 65.0265 139.79 65.0265C138.598 65.0265 137.449 64.5505 136.606 63.7048C135.753 62.8579 135.282 61.7102 135.282 60.5132ZM145.95 62.975C145.95 62.4903 146.048 62.01 146.234 61.5614C146.42 61.1139 146.694 60.7069 147.033 60.3645C147.372 60.0209 147.777 59.7495 148.226 59.5635C148.674 59.3775 149.156 59.2824 149.637 59.2824C150.13 59.2824 150.611 59.3775 151.06 59.5635C151.508 59.7495 151.913 60.0209 152.252 60.3645C152.591 60.7069 152.865 61.1139 153.051 61.5614C153.237 62.01 153.335 62.4903 153.335 62.975C153.335 63.9542 152.941 64.8941 152.252 65.5856C151.563 66.2781 150.622 66.6677 149.637 66.6677C148.663 66.6677 147.722 66.2781 147.033 65.5856C146.344 64.8941 145.95 63.9542 145.95 62.975ZM132 74.4632C132 72.3954 132.821 70.4128 134.287 68.9511C135.742 67.4893 137.733 66.6677 139.79 66.6677C141.858 66.6677 143.849 67.4893 145.305 68.9511C146.771 70.4128 147.591 72.3954 147.591 74.4632V74.4665V74.5967C147.591 74.7357 147.547 74.8725 147.482 74.9928C147.416 75.1132 147.307 75.2138 147.197 75.286C144.965 76.6307 142.405 77.3397 139.79 77.3353C137.088 77.3353 134.56 76.5869 132.405 75.286C132.284 75.2149 132.186 75.1132 132.109 74.9928C132.044 74.8725 132 74.7357 132 74.5967V74.4632ZM149.232 74.4665V74.6241C149.221 74.9884 149.134 75.3473 148.981 75.6744C150.884 75.7926 152.799 75.4118 154.517 74.5694C154.648 74.5048 154.758 74.4053 154.834 74.2805C154.922 74.1569 154.966 74.0136 154.976 73.8659C155.009 72.9479 154.812 72.0365 154.397 71.2181C153.981 70.3997 153.357 69.7027 152.591 69.1962C151.825 68.6885 150.939 68.3865 150.02 68.3208C149.112 68.2552 148.193 68.4281 147.361 68.8209C148.576 70.45 149.232 72.4293 149.232 74.4632V74.4665Z" fill="url(#paint3_linear_357_122)"/>
</g>
<defs>
<filter id="filter0_d_357_122" x="80.918" y="0.918701" width="124.51" height="131.348" filterUnits="userSpaceOnUse" color-interpolation-filters="sRGB">
<feFlood flood-opacity="0" result="BackgroundImageFix"/>
<feColorMatrix in="SourceAlpha" type="matrix" values="0 0 0 0 0 0 0 0 0 0 0 0 0 0 0 0 0 0 127 0" result="hardAlpha"/>
<feOffset/>
<feGaussianBlur stdDeviation="15.5"/>
<feComposite in2="hardAlpha" operator="out"/>
<feColorMatrix type="matrix" values="0 0 0 0 1 0 0 0 0 1 0 0 0 0 1 0 0 0 0.07 0"/>
<feBlend mode="normal" in2="BackgroundImageFix" result="effect1_dropShadow_357_122"/>
<feBlend mode="normal" in="SourceGraphic" in2="effect1_dropShadow_357_122" result="shape"/>
</filter>
<filter id="filter1_d_357_122" x="128" y="56" width="30.9805" height="29.3353" filterUnits="userSpaceOnUse" color-interpolation-filters="sRGB">
<feFlood flood-opacity="0" result="BackgroundImageFix"/>
<feColorMatrix in="SourceAlpha" type="matrix" values="0 0 0 0 0 0 0 0 0 0 0 0 0 0 0 0 0 0 127 0" result="hardAlpha"/>
<feOffset dy="4"/>
<feGaussianBlur stdDeviation="2"/>
<feComposite in2="hardAlpha" operator="out"/>
<feColorMatrix type="matrix" values="0 0 0 0 0 0 0 0 0 0 0 0 0 0 0 0 0 0 0.25 0"/>
<feBlend mode="normal" in2="BackgroundImageFix" result="effect1_dropShadow_357_122"/>
<feBlend mode="normal" in="SourceGraphic" in2="effect1_dropShadow_357_122" result="shape"/>
</filter>
<linearGradient id="paint0_linear_357_122" x1="6.05668e-08" y1="121.689" x2="8.12914" y2="121.689" gradientUnits="userSpaceOnUse">
<stop stop-color="#1595C2"/>
<stop offset="1" stop-color="#66BFDE"/>
</linearGradient>
<linearGradient id="paint1_linear_357_122" x1="264.257" y1="11.9283" x2="282.78" y2="11.9283" gradientUnits="userSpaceOnUse">
<stop stop-color="#1595C2"/>
<stop offset="1" stop-color="#66BFDE"/>
</linearGradient>
<linearGradient id="paint2_linear_357_122" x1="112.918" y1="66.5925" x2="173.428" y2="66.5925" gradientUnits="userSpaceOnUse">
<stop stop-color="#1595C2"/>
<stop offset="1" stop-color="#66BFDE"/>
</linearGradient>
<linearGradient id="paint3_linear_357_122" x1="132" y1="66.6677" x2="154.98" y2="66.6677" gradientUnits="userSpaceOnUse">
<stop stop-color="#1595C2"/>
<stop offset="1" stop-color="#66BFDE"/>
</linearGradient>
</defs>
</svg>
