<svg width="448" height="498" viewBox="0 0 448 498" fill="none" xmlns="http://www.w3.org/2000/svg">
<rect y="25" width="448" height="448" rx="20" fill="white" fill-opacity="0.1"/>
<rect x="0.5" y="25.5" width="447" height="447" rx="19.5" stroke="white" stroke-opacity="0.1"/>
<path d="M46 10C46 4.47716 50.4772 0 56 0H393C398.523 0 403 4.47715 403 10V146C403 151.523 398.523 156 393 156H56C50.4772 156 46 151.523 46 146V10Z" fill="#101010"/>
<path d="M46.5 10C46.5 4.7533 50.7533 0.5 56 0.5H393C398.247 0.5 402.5 4.7533 402.5 10V146C402.5 151.247 398.247 155.5 393 155.5H56C50.7533 155.5 46.5 151.247 46.5 146V10Z" stroke="white" stroke-opacity="0.1"/>
<path d="M78.9166 39V26.22H80.5906V39H78.9166ZM83.71 39V30H85.258V31.386C85.87 30.342 86.824 29.82 88.12 29.82C89.14 29.82 89.962 30.15 90.586 30.81C91.21 31.47 91.522 32.352 91.522 33.456V39H89.992V33.69C89.992 32.934 89.8 32.34 89.416 31.908C89.032 31.464 88.516 31.242 87.868 31.242C87.124 31.242 86.5 31.536 85.996 32.124C85.504 32.712 85.258 33.516 85.258 34.536V39H83.71ZM98.3056 39.18C96.9496 39.18 95.8276 38.73 94.9396 37.83C94.0516 36.918 93.6076 35.808 93.6076 34.5C93.6076 33.192 94.0516 32.088 94.9396 31.188C95.8276 30.276 96.9496 29.82 98.3056 29.82C99.4216 29.82 100.388 30.132 101.204 30.756C102.02 31.368 102.566 32.172 102.842 33.168H101.186C100.97 32.58 100.61 32.112 100.106 31.764C99.6016 31.416 99.0016 31.242 98.3056 31.242C97.3816 31.242 96.6256 31.554 96.0376 32.178C95.4616 32.802 95.1736 33.576 95.1736 34.5C95.1736 35.424 95.4616 36.198 96.0376 36.822C96.6256 37.446 97.3816 37.758 98.3056 37.758C99.0016 37.758 99.6016 37.584 100.106 37.236C100.61 36.888 100.97 36.42 101.186 35.832H102.842C102.578 36.828 102.038 37.638 101.222 38.262C100.406 38.874 99.4336 39.18 98.3056 39.18ZM108.888 39.18C107.532 39.18 106.404 38.73 105.504 37.83C104.616 36.918 104.172 35.808 104.172 34.5C104.172 33.192 104.616 32.088 105.504 31.188C106.404 30.276 107.532 29.82 108.888 29.82C110.232 29.82 111.348 30.276 112.236 31.188C113.136 32.088 113.586 33.192 113.586 34.5C113.586 35.808 113.136 36.918 112.236 37.83C111.348 38.73 110.232 39.18 108.888 39.18ZM106.62 36.804C107.208 37.428 107.964 37.74 108.888 37.74C109.812 37.74 110.562 37.428 111.138 36.804C111.714 36.18 112.002 35.412 112.002 34.5C112.002 33.588 111.714 32.82 111.138 32.196C110.562 31.572 109.812 31.26 108.888 31.26C107.964 31.26 107.208 31.572 106.62 32.196C106.044 32.82 105.756 33.588 105.756 34.5C105.756 35.412 106.044 36.18 106.62 36.804ZM127.4 39V33.708C127.4 32.964 127.244 32.37 126.932 31.926C126.632 31.47 126.194 31.242 125.618 31.242C124.898 31.242 124.31 31.524 123.854 32.088C123.41 32.652 123.176 33.42 123.152 34.392V39H121.604V33.708C121.604 32.952 121.448 32.352 121.136 31.908C120.836 31.464 120.404 31.242 119.84 31.242C119.096 31.242 118.496 31.542 118.04 32.142C117.584 32.73 117.356 33.528 117.356 34.536V39H115.808V30H117.356V31.386C117.932 30.342 118.838 29.82 120.074 29.82C121.442 29.82 122.366 30.462 122.846 31.746C123.086 31.158 123.47 30.69 123.998 30.342C124.526 29.994 125.126 29.82 125.798 29.82C126.77 29.82 127.538 30.15 128.102 30.81C128.666 31.47 128.948 32.358 128.948 33.474V39H127.4ZM135.567 39.18C134.259 39.18 133.173 38.736 132.309 37.848C131.457 36.96 131.031 35.844 131.031 34.5C131.031 33.144 131.445 32.028 132.273 31.152C133.113 30.264 134.223 29.82 135.603 29.82C136.995 29.82 138.087 30.312 138.879 31.296C139.671 32.28 140.019 33.486 139.923 34.914H132.597C132.621 35.73 132.921 36.414 133.497 36.966C134.073 37.506 134.769 37.776 135.585 37.776C136.809 37.776 137.679 37.272 138.195 36.264H139.779C139.551 37.104 139.065 37.8 138.321 38.352C137.577 38.904 136.659 39.18 135.567 39.18ZM137.331 31.836C136.839 31.404 136.245 31.188 135.549 31.188C134.853 31.188 134.229 31.398 133.677 31.818C133.137 32.238 132.801 32.862 132.669 33.69H138.285C138.141 32.874 137.823 32.256 137.331 31.836ZM148.727 39V27.804H144.749V26.22H154.343V27.804H150.365V39H148.727ZM158.546 39.18C157.19 39.18 156.062 38.73 155.162 37.83C154.274 36.918 153.83 35.808 153.83 34.5C153.83 33.192 154.274 32.088 155.162 31.188C156.062 30.276 157.19 29.82 158.546 29.82C159.89 29.82 161.006 30.276 161.894 31.188C162.794 32.088 163.244 33.192 163.244 34.5C163.244 35.808 162.794 36.918 161.894 37.83C161.006 38.73 159.89 39.18 158.546 39.18ZM156.278 36.804C156.866 37.428 157.622 37.74 158.546 37.74C159.47 37.74 160.22 37.428 160.796 36.804C161.372 36.18 161.66 35.412 161.66 34.5C161.66 33.588 161.372 32.82 160.796 32.196C160.22 31.572 159.47 31.26 158.546 31.26C157.622 31.26 156.866 31.572 156.278 32.196C155.702 32.82 155.414 33.588 155.414 34.5C155.414 35.412 155.702 36.18 156.278 36.804ZM169.174 39.18C167.926 39.18 166.876 38.724 166.024 37.812C165.184 36.9 164.764 35.796 164.764 34.5C164.764 33.204 165.184 32.1 166.024 31.188C166.876 30.276 167.926 29.82 169.174 29.82C169.834 29.82 170.446 29.97 171.01 30.27C171.586 30.558 172.03 30.93 172.342 31.386V25.5H173.89V39H172.342V37.614C172.03 38.07 171.586 38.448 171.01 38.748C170.446 39.036 169.834 39.18 169.174 39.18ZM169.408 37.758C170.296 37.758 171.028 37.446 171.604 36.822C172.18 36.198 172.468 35.424 172.468 34.5C172.468 33.576 172.18 32.802 171.604 32.178C171.028 31.554 170.296 31.242 169.408 31.242C168.508 31.242 167.77 31.554 167.194 32.178C166.618 32.802 166.33 33.576 166.33 34.5C166.33 35.424 166.618 36.198 167.194 36.822C167.77 37.446 168.508 37.758 169.408 37.758ZM180.512 39.18C179.264 39.18 178.214 38.724 177.362 37.812C176.522 36.9 176.102 35.796 176.102 34.5C176.102 33.204 176.522 32.1 177.362 31.188C178.214 30.276 179.264 29.82 180.512 29.82C181.172 29.82 181.784 29.97 182.348 30.27C182.924 30.558 183.368 30.93 183.68 31.386V30H185.228V39H183.68V37.614C183.368 38.07 182.924 38.448 182.348 38.748C181.784 39.036 181.172 39.18 180.512 39.18ZM180.746 37.758C181.634 37.758 182.366 37.446 182.942 36.822C183.518 36.198 183.806 35.424 183.806 34.5C183.806 33.576 183.518 32.802 182.942 32.178C182.366 31.554 181.634 31.242 180.746 31.242C179.846 31.242 179.108 31.554 178.532 32.178C177.956 32.802 177.668 33.576 177.668 34.5C177.668 35.424 177.956 36.198 178.532 36.822C179.108 37.446 179.846 37.758 180.746 37.758ZM190.536 42.762H188.808L190.77 38.532L186.828 30H188.538L191.634 36.84L194.712 30H196.44L190.536 42.762Z" fill="white"/>
<path d="M78.1516 85.975V83.55H82.2016V79.5H84.6516V83.55H88.7016V85.975H84.6516V90.025H82.2016V85.975H78.1516ZM95.6039 94.2V92.2C94.2039 92.05 93.0456 91.5167 92.1289 90.6C91.2122 89.6667 90.7372 88.4417 90.7039 86.925H93.4539C93.6206 88.3417 94.3372 89.2 95.6039 89.5V84.2L94.7539 83.875C92.0872 82.8583 90.7539 81.15 90.7539 78.75C90.7539 77.35 91.1956 76.2333 92.0789 75.4C92.9789 74.55 94.1539 74.075 95.6039 73.975V72.05H96.9539V74.025C98.2206 74.1917 99.2789 74.7083 100.129 75.575C100.979 76.425 101.404 77.4667 101.404 78.7H98.6539C98.4706 77.6667 97.9039 77.0083 96.9539 76.725V81.675L97.7039 81.975C99.0706 82.5083 100.104 83.2083 100.804 84.075C101.504 84.925 101.854 86.0083 101.854 87.325C101.854 88.825 101.412 90 100.529 90.85C99.6456 91.6833 98.4539 92.1417 96.9539 92.225V94.2H95.6039ZM99.1039 87.4C99.1039 86.2667 98.3872 85.3833 96.9539 84.75V89.575C97.5872 89.4917 98.1039 89.2583 98.5039 88.875C98.9039 88.475 99.1039 87.9833 99.1039 87.4ZM93.5039 78.725C93.5039 79.7583 94.2039 80.5667 95.6039 81.15V76.625C94.9706 76.7083 94.4622 76.9417 94.0789 77.325C93.6956 77.7083 93.5039 78.175 93.5039 78.725ZM112.437 92V87.55H103.262V85.325L112.737 74.25H115.187V85H117.562V87.55H115.187V92H112.437ZM106.712 85H112.437V78.35L106.712 85ZM123.561 91.375L120.886 95.675H119.186L120.911 92C120.561 91.85 120.27 91.6 120.036 91.25C119.803 90.8833 119.686 90.475 119.686 90.025C119.686 89.425 119.895 88.9167 120.311 88.5C120.728 88.0667 121.236 87.85 121.836 87.85C122.436 87.85 122.945 88.0667 123.361 88.5C123.778 88.9167 123.986 89.425 123.986 90.025C123.986 90.5083 123.845 90.9583 123.561 91.375ZM136.526 90.55C135.392 91.6833 133.934 92.25 132.151 92.25C130.367 92.25 128.909 91.6833 127.776 90.55C126.642 89.4 126.076 87.975 126.076 86.275C126.076 85.4583 126.234 84.7083 126.551 84.025C126.884 83.3417 127.392 82.5583 128.076 81.675L134.001 74.25H137.451L132.451 80.55H132.726C134.176 80.55 135.459 81.1 136.576 82.2C137.692 83.2833 138.251 84.6333 138.251 86.25C138.251 87.9667 137.676 89.4 136.526 90.55ZM129.776 88.65C130.409 89.2833 131.201 89.6 132.151 89.6C133.101 89.6 133.892 89.2833 134.526 88.65C135.159 88 135.476 87.2083 135.476 86.275C135.476 85.3583 135.151 84.575 134.501 83.925C133.867 83.275 133.084 82.95 132.151 82.95C131.217 82.95 130.434 83.275 129.801 83.925C129.167 84.575 128.851 85.3583 128.851 86.275C128.851 87.2083 129.159 88 129.776 88.65ZM143.639 92H140.539L148.689 76.925H139.964V74.25H151.964V76.6L143.639 92ZM159.427 92.25C157.66 92.25 156.202 91.725 155.052 90.675C153.902 89.6083 153.327 88.2583 153.327 86.625C153.327 84.5583 154.169 83.0667 155.852 82.15C154.752 81.3 154.202 80.125 154.202 78.625C154.202 77.275 154.685 76.1583 155.652 75.275C156.635 74.3917 157.894 73.95 159.427 73.95C160.977 73.95 162.235 74.3917 163.202 75.275C164.185 76.1417 164.677 77.2583 164.677 78.625C164.677 80.125 164.127 81.3 163.027 82.15C164.71 83.0667 165.552 84.5583 165.552 86.625C165.552 88.275 164.977 89.625 163.827 90.675C162.694 91.725 161.227 92.25 159.427 92.25ZM159.427 89.675C160.444 89.675 161.252 89.375 161.852 88.775C162.452 88.175 162.752 87.4417 162.752 86.575C162.752 85.6917 162.452 84.9583 161.852 84.375C161.252 83.775 160.452 83.475 159.452 83.475C158.435 83.475 157.627 83.775 157.027 84.375C156.427 84.9583 156.127 85.6917 156.127 86.575C156.127 87.4417 156.427 88.175 157.027 88.775C157.644 89.375 158.444 89.675 159.427 89.675ZM159.427 81.15C160.194 81.15 160.81 80.925 161.277 80.475C161.76 80.0083 162.002 79.45 162.002 78.8C162.002 78.1167 161.769 77.5583 161.302 77.125C160.835 76.675 160.21 76.45 159.427 76.45C158.677 76.45 158.06 76.675 157.577 77.125C157.11 77.575 156.877 78.1333 156.877 78.8C156.877 79.45 157.119 80.0083 157.602 80.475C158.085 80.925 158.694 81.15 159.427 81.15ZM169.98 92.2C169.396 92.2 168.888 91.9917 168.455 91.575C168.038 91.1417 167.83 90.625 167.83 90.025C167.83 89.4417 168.038 88.9333 168.455 88.5C168.888 88.0667 169.396 87.85 169.98 87.85C170.58 87.85 171.088 88.0667 171.505 88.5C171.938 88.9333 172.155 89.4417 172.155 90.025C172.155 90.625 171.938 91.1417 171.505 91.575C171.088 91.9917 170.58 92.2 169.98 92.2ZM184.646 90.55C183.513 91.6833 182.054 92.25 180.271 92.25C178.488 92.25 177.029 91.6833 175.896 90.55C174.763 89.4 174.196 87.975 174.196 86.275C174.196 85.4583 174.354 84.7083 174.671 84.025C175.004 83.3417 175.513 82.5583 176.196 81.675L182.121 74.25H185.571L180.571 80.55H180.846C182.296 80.55 183.579 81.1 184.696 82.2C185.813 83.2833 186.371 84.6333 186.371 86.25C186.371 87.9667 185.796 89.4 184.646 90.55ZM177.896 88.65C178.529 89.2833 179.321 89.6 180.271 89.6C181.221 89.6 182.013 89.2833 182.646 88.65C183.279 88 183.596 87.2083 183.596 86.275C183.596 85.3583 183.271 84.575 182.621 83.925C181.988 83.275 181.204 82.95 180.271 82.95C179.338 82.95 178.554 83.275 177.921 83.925C177.288 84.575 176.971 85.3583 176.971 86.275C176.971 87.2083 177.279 88 177.896 88.65ZM191.76 92H188.66L196.81 76.925H188.085V74.25H200.085V76.6L191.76 92Z" fill="white"/>
<path d="M88.3313 114.766C87.8196 114.766 87.4062 114.371 87.4062 113.883C87.4062 113.395 87.8196 113 88.3313 113H92.9565C93.4682 113 93.8816 113.395 93.8816 113.883V118.297C93.8816 118.785 93.4682 119.18 92.9565 119.18C92.4449 119.18 92.0315 118.785 92.0315 118.297V116.015L87.1345 120.686C86.7731 121.031 86.1863 121.031 85.825 120.686L82.781 117.781L78.809 121.569C78.4477 121.914 77.8609 121.914 77.4995 121.569C77.1382 121.224 77.1382 120.664 77.4995 120.319L82.1248 115.905C82.4861 115.56 83.073 115.56 83.4343 115.905L86.4812 118.813L90.722 114.766H88.3313Z" fill="#23C215"/>
<path d="M99.6039 118.626V117.268H101.872V115H103.244V117.268H105.512V118.626H103.244V120.894H101.872V118.626H99.6039ZM113.255 120.488V122H106.675V121.44C106.675 121.085 106.727 120.749 106.829 120.432C106.941 120.105 107.058 119.835 107.179 119.62C107.301 119.405 107.501 119.167 107.781 118.906C108.061 118.635 108.276 118.444 108.425 118.332C108.575 118.211 108.836 118.015 109.209 117.744C109.592 117.473 109.835 117.301 109.937 117.226C110.525 116.797 110.95 116.419 111.211 116.092C111.473 115.765 111.603 115.373 111.603 114.916C111.603 114.459 111.463 114.095 111.183 113.824C110.903 113.544 110.516 113.404 110.021 113.404C109.508 113.404 109.083 113.558 108.747 113.866C108.411 114.165 108.239 114.575 108.229 115.098H106.675C106.675 114.155 106.993 113.385 107.627 112.788C108.271 112.191 109.074 111.892 110.035 111.892C110.922 111.892 111.664 112.153 112.261 112.676C112.859 113.199 113.157 113.931 113.157 114.874C113.157 115.621 112.985 116.251 112.639 116.764C112.303 117.268 111.743 117.8 110.959 118.36C110.838 118.453 110.614 118.612 110.287 118.836C109.961 119.06 109.718 119.233 109.559 119.354C109.41 119.475 109.247 119.643 109.069 119.858C108.892 120.063 108.771 120.273 108.705 120.488H113.255ZM115.795 122.112C115.469 122.112 115.184 121.995 114.941 121.762C114.708 121.519 114.591 121.23 114.591 120.894C114.591 120.567 114.708 120.283 114.941 120.04C115.184 119.797 115.469 119.676 115.795 119.676C116.131 119.676 116.416 119.797 116.649 120.04C116.892 120.283 117.013 120.567 117.013 120.894C117.013 121.23 116.892 121.519 116.649 121.762C116.416 121.995 116.131 122.112 115.795 122.112ZM119.136 122V113.586H117.134L118.31 112.06H120.676V122H119.136ZM123.976 122V113.586H121.974L123.15 112.06H125.516V122H123.976ZM131.308 122H129.684L135.984 112.06H137.608L131.308 122ZM137.37 122.112C136.605 122.112 135.951 121.841 135.41 121.3C134.878 120.759 134.612 120.11 134.612 119.354C134.612 118.589 134.878 117.94 135.41 117.408C135.951 116.867 136.605 116.596 137.37 116.596C138.126 116.596 138.775 116.867 139.316 117.408C139.857 117.94 140.128 118.589 140.128 119.354C140.128 120.11 139.857 120.759 139.316 121.3C138.775 121.841 138.126 122.112 137.37 122.112ZM136.362 120.348C136.642 120.628 136.978 120.768 137.37 120.768C137.762 120.768 138.089 120.633 138.35 120.362C138.621 120.082 138.756 119.746 138.756 119.354C138.756 118.962 138.621 118.631 138.35 118.36C138.089 118.08 137.762 117.94 137.37 117.94C136.978 117.94 136.642 118.08 136.362 118.36C136.091 118.64 135.956 118.971 135.956 119.354C135.956 119.737 136.091 120.068 136.362 120.348ZM129.922 117.464C129.157 117.464 128.503 117.193 127.962 116.652C127.43 116.111 127.164 115.462 127.164 114.706C127.164 113.941 127.43 113.292 127.962 112.76C128.503 112.219 129.157 111.948 129.922 111.948C130.678 111.948 131.327 112.219 131.868 112.76C132.409 113.292 132.68 113.941 132.68 114.706C132.68 115.462 132.409 116.111 131.868 116.652C131.327 117.193 130.678 117.464 129.922 117.464ZM129.922 116.12C130.305 116.12 130.631 115.98 130.902 115.7C131.182 115.42 131.322 115.089 131.322 114.706C131.322 114.323 131.182 113.992 130.902 113.712C130.631 113.432 130.305 113.292 129.922 113.292C129.53 113.292 129.199 113.432 128.928 113.712C128.657 113.983 128.522 114.314 128.522 114.706C128.522 115.098 128.657 115.434 128.928 115.714C129.199 115.985 129.53 116.12 129.922 116.12Z" fill="#23C215"/>
<path d="M146.022 122L143.25 116H144.402L146.454 120.548L148.506 116H149.658L146.886 122H146.022ZM152.562 122.12C151.89 122.12 151.326 121.956 150.87 121.628C150.422 121.3 150.174 120.844 150.126 120.26H151.182C151.246 120.596 151.406 120.844 151.662 121.004C151.926 121.164 152.23 121.244 152.574 121.244C152.918 121.244 153.194 121.176 153.402 121.04C153.618 120.904 153.726 120.708 153.726 120.452C153.726 120.212 153.646 120.016 153.486 119.864C153.334 119.712 153.082 119.588 152.73 119.492L151.866 119.264C150.834 118.992 150.318 118.404 150.318 117.5C150.318 117.012 150.51 116.62 150.894 116.324C151.286 116.028 151.786 115.88 152.394 115.88C153.01 115.88 153.514 116.044 153.906 116.372C154.306 116.692 154.53 117.1 154.578 117.596H153.546C153.466 117.332 153.322 117.124 153.114 116.972C152.914 116.82 152.674 116.744 152.394 116.744C152.098 116.744 151.85 116.812 151.65 116.948C151.458 117.084 151.362 117.264 151.362 117.488C151.362 117.704 151.434 117.88 151.578 118.016C151.722 118.152 151.954 118.264 152.274 118.352L153.234 118.604C154.258 118.86 154.77 119.452 154.77 120.38C154.77 120.956 154.566 121.392 154.158 121.688C153.75 121.976 153.218 122.12 152.562 122.12ZM159.126 122V113H160.158V122H159.126ZM164.587 122.12C163.755 122.12 163.055 121.816 162.487 121.208C161.927 120.6 161.647 119.864 161.647 119C161.647 118.136 161.927 117.4 162.487 116.792C163.055 116.184 163.755 115.88 164.587 115.88C165.027 115.88 165.435 115.98 165.811 116.18C166.195 116.372 166.491 116.62 166.699 116.924V116H167.731V122H166.699V121.076C166.491 121.38 166.195 121.632 165.811 121.832C165.435 122.024 165.027 122.12 164.587 122.12ZM164.743 121.172C165.335 121.172 165.823 120.964 166.207 120.548C166.591 120.132 166.783 119.616 166.783 119C166.783 118.384 166.591 117.868 166.207 117.452C165.823 117.036 165.335 116.828 164.743 116.828C164.143 116.828 163.651 117.036 163.267 117.452C162.883 117.868 162.691 118.384 162.691 119C162.691 119.616 162.883 120.132 163.267 120.548C163.651 120.964 164.143 121.172 164.743 121.172ZM171.605 122.12C170.933 122.12 170.369 121.956 169.913 121.628C169.465 121.3 169.217 120.844 169.169 120.26H170.225C170.289 120.596 170.449 120.844 170.705 121.004C170.969 121.164 171.273 121.244 171.617 121.244C171.961 121.244 172.237 121.176 172.445 121.04C172.661 120.904 172.769 120.708 172.769 120.452C172.769 120.212 172.689 120.016 172.529 119.864C172.377 119.712 172.125 119.588 171.773 119.492L170.909 119.264C169.877 118.992 169.361 118.404 169.361 117.5C169.361 117.012 169.553 116.62 169.937 116.324C170.329 116.028 170.829 115.88 171.437 115.88C172.053 115.88 172.557 116.044 172.949 116.372C173.349 116.692 173.573 117.1 173.621 117.596H172.589C172.509 117.332 172.365 117.124 172.157 116.972C171.957 116.82 171.717 116.744 171.437 116.744C171.141 116.744 170.893 116.812 170.693 116.948C170.501 117.084 170.405 117.264 170.405 117.488C170.405 117.704 170.477 117.88 170.621 118.016C170.765 118.152 170.997 118.264 171.317 118.352L172.277 118.604C173.301 118.86 173.813 119.452 173.813 120.38C173.813 120.956 173.609 121.392 173.201 121.688C172.793 121.976 172.261 122.12 171.605 122.12ZM177.509 122.06C176.957 122.06 176.513 121.904 176.177 121.592C175.841 121.28 175.673 120.824 175.673 120.224V116.948H174.401V116H175.673V114.332H176.705V116H178.433V116.948H176.705V120.092C176.705 120.468 176.785 120.732 176.945 120.884C177.105 121.036 177.357 121.112 177.701 121.112C178.005 121.112 178.249 121.072 178.433 120.992V121.916C178.145 122.012 177.837 122.06 177.509 122.06ZM183.558 122H182.406L186.378 114.488H182.022V113.48H187.614V114.344L183.558 122ZM194.118 122.12C193.286 122.12 192.586 121.816 192.018 121.208C191.458 120.6 191.178 119.864 191.178 119C191.178 118.136 191.458 117.4 192.018 116.792C192.586 116.184 193.286 115.88 194.118 115.88C194.558 115.88 194.966 115.98 195.342 116.18C195.726 116.372 196.022 116.62 196.23 116.924V113H197.262V122H196.23V121.076C196.022 121.38 195.726 121.632 195.342 121.832C194.966 122.024 194.558 122.12 194.118 122.12ZM194.274 121.172C194.866 121.172 195.354 120.964 195.738 120.548C196.122 120.132 196.314 119.616 196.314 119C196.314 118.384 196.122 117.868 195.738 117.452C195.354 117.036 194.866 116.828 194.274 116.828C193.674 116.828 193.182 117.036 192.798 117.452C192.414 117.868 192.222 118.384 192.222 119C192.222 119.616 192.414 120.132 192.798 120.548C193.182 120.964 193.674 121.172 194.274 121.172ZM201.676 122.12C200.844 122.12 200.144 121.816 199.576 121.208C199.016 120.6 198.736 119.864 198.736 119C198.736 118.136 199.016 117.4 199.576 116.792C200.144 116.184 200.844 115.88 201.676 115.88C202.116 115.88 202.524 115.98 202.9 116.18C203.284 116.372 203.58 116.62 203.788 116.924V116H204.82V122H203.788V121.076C203.58 121.38 203.284 121.632 202.9 121.832C202.524 122.024 202.116 122.12 201.676 122.12ZM201.832 121.172C202.424 121.172 202.912 120.964 203.296 120.548C203.68 120.132 203.872 119.616 203.872 119C203.872 118.384 203.68 117.868 203.296 117.452C202.912 117.036 202.424 116.828 201.832 116.828C201.232 116.828 200.74 117.036 200.356 117.452C199.972 117.868 199.78 118.384 199.78 119C199.78 119.616 199.972 120.132 200.356 120.548C200.74 120.964 201.232 121.172 201.832 121.172ZM208.359 124.508H207.207L208.515 121.688L205.887 116H207.027L209.091 120.56L211.143 116H212.295L208.359 124.508ZM215.187 122.12C214.515 122.12 213.951 121.956 213.495 121.628C213.047 121.3 212.799 120.844 212.751 120.26H213.807C213.871 120.596 214.031 120.844 214.287 121.004C214.551 121.164 214.855 121.244 215.199 121.244C215.543 121.244 215.819 121.176 216.027 121.04C216.243 120.904 216.351 120.708 216.351 120.452C216.351 120.212 216.271 120.016 216.111 119.864C215.959 119.712 215.707 119.588 215.355 119.492L214.491 119.264C213.459 118.992 212.943 118.404 212.943 117.5C212.943 117.012 213.135 116.62 213.519 116.324C213.911 116.028 214.411 115.88 215.019 115.88C215.635 115.88 216.139 116.044 216.531 116.372C216.931 116.692 217.155 117.1 217.203 117.596H216.171C216.091 117.332 215.947 117.124 215.739 116.972C215.539 116.82 215.299 116.744 215.019 116.744C214.723 116.744 214.475 116.812 214.275 116.948C214.083 117.084 213.987 117.264 213.987 117.488C213.987 117.704 214.059 117.88 214.203 118.016C214.347 118.152 214.579 118.264 214.899 118.352L215.859 118.604C216.883 118.86 217.395 119.452 217.395 120.38C217.395 120.956 217.191 121.392 216.783 121.688C216.375 121.976 215.843 122.12 215.187 122.12Z" fill="#C4C4C4"/>
<path d="M47 181C47 175.477 51.4772 171 57 171H393C398.523 171 403 175.477 403 181V317C403 322.523 398.523 327 393 327H57C51.4772 327 47 322.523 47 317V181Z" fill="#101010"/>
<path d="M47.5 181C47.5 175.753 51.7533 171.5 57 171.5H393C398.247 171.5 402.5 175.753 402.5 181V317C402.5 322.247 398.247 326.5 393 326.5H57C51.7533 326.5 47.5 322.247 47.5 317V181Z" stroke="white" stroke-opacity="0.1"/>
<path d="M78.692 197.22H80.222L84.956 203.592L89.726 197.22H91.238V210H89.582V200.064L84.974 206.256L80.366 200.064V210H78.692V197.22ZM98.2392 210.18C96.8832 210.18 95.7552 209.73 94.8552 208.83C93.9672 207.918 93.5232 206.808 93.5232 205.5C93.5232 204.192 93.9672 203.088 94.8552 202.188C95.7552 201.276 96.8832 200.82 98.2392 200.82C99.5832 200.82 100.699 201.276 101.587 202.188C102.487 203.088 102.937 204.192 102.937 205.5C102.937 206.808 102.487 207.918 101.587 208.83C100.699 209.73 99.5832 210.18 98.2392 210.18ZM95.9712 207.804C96.5592 208.428 97.3152 208.74 98.2392 208.74C99.1632 208.74 99.9132 208.428 100.489 207.804C101.065 207.18 101.353 206.412 101.353 205.5C101.353 204.588 101.065 203.82 100.489 203.196C99.9132 202.572 99.1632 202.26 98.2392 202.26C97.3152 202.26 96.5592 202.572 95.9712 203.196C95.3952 203.82 95.1072 204.588 95.1072 205.5C95.1072 206.412 95.3952 207.18 95.9712 207.804ZM105.159 210V201H106.707V202.386C107.319 201.342 108.273 200.82 109.569 200.82C110.589 200.82 111.411 201.15 112.035 201.81C112.659 202.47 112.971 203.352 112.971 204.456V210H111.441V204.69C111.441 203.934 111.249 203.34 110.865 202.908C110.481 202.464 109.965 202.242 109.317 202.242C108.573 202.242 107.949 202.536 107.445 203.124C106.953 203.712 106.707 204.516 106.707 205.536V210H105.159ZM119.145 210.09C118.317 210.09 117.651 209.856 117.147 209.388C116.643 208.92 116.391 208.236 116.391 207.336V202.422H114.483V201H116.391V198.498H117.939V201H120.531V202.422H117.939V207.138C117.939 207.702 118.059 208.098 118.299 208.326C118.539 208.554 118.917 208.668 119.433 208.668C119.889 208.668 120.255 208.608 120.531 208.488V209.874C120.099 210.018 119.637 210.09 119.145 210.09ZM124.057 210H122.509V196.5H124.057V202.386C124.669 201.342 125.623 200.82 126.919 200.82C127.939 200.82 128.761 201.15 129.385 201.81C130.009 202.47 130.321 203.352 130.321 204.456V210H128.791V204.69C128.791 203.934 128.599 203.34 128.215 202.908C127.831 202.464 127.315 202.242 126.667 202.242C125.923 202.242 125.299 202.536 124.795 203.124C124.303 203.712 124.057 204.516 124.057 205.536V210ZM133.108 210V196.5H134.656V210H133.108ZM139.985 213.762H138.257L140.219 209.532L136.277 201H137.987L141.083 207.84L144.161 201H145.889L139.985 213.762ZM152.938 198.282C152.734 198.486 152.476 198.588 152.164 198.588C151.852 198.588 151.588 198.486 151.372 198.282C151.156 198.066 151.048 197.802 151.048 197.49C151.048 197.19 151.156 196.932 151.372 196.716C151.588 196.5 151.852 196.392 152.164 196.392C152.476 196.392 152.734 196.5 152.938 196.716C153.142 196.932 153.244 197.19 153.244 197.49C153.244 197.802 153.142 198.066 152.938 198.282ZM151.372 210V201H152.92V210H151.372ZM155.854 210V201H157.402V202.386C158.014 201.342 158.968 200.82 160.264 200.82C161.284 200.82 162.106 201.15 162.73 201.81C163.354 202.47 163.666 203.352 163.666 204.456V210H162.136V204.69C162.136 203.934 161.944 203.34 161.56 202.908C161.176 202.464 160.66 202.242 160.012 202.242C159.268 202.242 158.644 202.536 158.14 203.124C157.648 203.712 157.402 204.516 157.402 205.536V210H155.854ZM170.45 210.18C169.094 210.18 167.972 209.73 167.084 208.83C166.196 207.918 165.752 206.808 165.752 205.5C165.752 204.192 166.196 203.088 167.084 202.188C167.972 201.276 169.094 200.82 170.45 200.82C171.566 200.82 172.532 201.132 173.348 201.756C174.164 202.368 174.71 203.172 174.986 204.168H173.33C173.114 203.58 172.754 203.112 172.25 202.764C171.746 202.416 171.146 202.242 170.45 202.242C169.526 202.242 168.77 202.554 168.182 203.178C167.606 203.802 167.318 204.576 167.318 205.5C167.318 206.424 167.606 207.198 168.182 207.822C168.77 208.446 169.526 208.758 170.45 208.758C171.146 208.758 171.746 208.584 172.25 208.236C172.754 207.888 173.114 207.42 173.33 206.832H174.986C174.722 207.828 174.182 208.638 173.366 209.262C172.55 209.874 171.578 210.18 170.45 210.18ZM181.032 210.18C179.676 210.18 178.548 209.73 177.648 208.83C176.76 207.918 176.316 206.808 176.316 205.5C176.316 204.192 176.76 203.088 177.648 202.188C178.548 201.276 179.676 200.82 181.032 200.82C182.376 200.82 183.492 201.276 184.38 202.188C185.28 203.088 185.73 204.192 185.73 205.5C185.73 206.808 185.28 207.918 184.38 208.83C183.492 209.73 182.376 210.18 181.032 210.18ZM178.764 207.804C179.352 208.428 180.108 208.74 181.032 208.74C181.956 208.74 182.706 208.428 183.282 207.804C183.858 207.18 184.146 206.412 184.146 205.5C184.146 204.588 183.858 203.82 183.282 203.196C182.706 202.572 181.956 202.26 181.032 202.26C180.108 202.26 179.352 202.572 178.764 203.196C178.188 203.82 177.9 204.588 177.9 205.5C177.9 206.412 178.188 207.18 178.764 207.804ZM199.544 210V204.708C199.544 203.964 199.388 203.37 199.076 202.926C198.776 202.47 198.338 202.242 197.762 202.242C197.042 202.242 196.454 202.524 195.998 203.088C195.554 203.652 195.32 204.42 195.296 205.392V210H193.748V204.708C193.748 203.952 193.592 203.352 193.28 202.908C192.98 202.464 192.548 202.242 191.984 202.242C191.24 202.242 190.64 202.542 190.184 203.142C189.728 203.73 189.5 204.528 189.5 205.536V210H187.952V201H189.5V202.386C190.076 201.342 190.982 200.82 192.218 200.82C193.586 200.82 194.51 201.462 194.99 202.746C195.23 202.158 195.614 201.69 196.142 201.342C196.67 200.994 197.27 200.82 197.942 200.82C198.914 200.82 199.682 201.15 200.246 201.81C200.81 202.47 201.092 203.358 201.092 204.474V210H199.544ZM207.712 210.18C206.404 210.18 205.318 209.736 204.454 208.848C203.602 207.96 203.176 206.844 203.176 205.5C203.176 204.144 203.59 203.028 204.418 202.152C205.258 201.264 206.368 200.82 207.748 200.82C209.14 200.82 210.232 201.312 211.024 202.296C211.816 203.28 212.164 204.486 212.068 205.914H204.742C204.766 206.73 205.066 207.414 205.642 207.966C206.218 208.506 206.914 208.776 207.73 208.776C208.954 208.776 209.824 208.272 210.34 207.264H211.924C211.696 208.104 211.21 208.8 210.466 209.352C209.722 209.904 208.804 210.18 207.712 210.18ZM209.476 202.836C208.984 202.404 208.39 202.188 207.694 202.188C206.998 202.188 206.374 202.398 205.822 202.818C205.282 203.238 204.946 203.862 204.814 204.69H210.43C210.286 203.874 209.968 203.256 209.476 202.836Z" fill="white"/>
<path d="M77.925 256.975V254.55H81.975V250.5H84.425V254.55H88.475V256.975H84.425V261.025H81.975V256.975H77.925ZM95.3773 265.2V263.2C93.9773 263.05 92.819 262.517 91.9023 261.6C90.9857 260.667 90.5107 259.442 90.4773 257.925H93.2273C93.394 259.342 94.1107 260.2 95.3773 260.5V255.2L94.5273 254.875C91.8607 253.858 90.5273 252.15 90.5273 249.75C90.5273 248.35 90.969 247.233 91.8523 246.4C92.7523 245.55 93.9273 245.075 95.3773 244.975V243.05H96.7273V245.025C97.994 245.192 99.0523 245.708 99.9023 246.575C100.752 247.425 101.177 248.467 101.177 249.7H98.4273C98.244 248.667 97.6773 248.008 96.7273 247.725V252.675L97.4773 252.975C98.844 253.508 99.8773 254.208 100.577 255.075C101.277 255.925 101.627 257.008 101.627 258.325C101.627 259.825 101.186 261 100.302 261.85C99.419 262.683 98.2273 263.142 96.7273 263.225V265.2H95.3773ZM98.8773 258.4C98.8773 257.267 98.1607 256.383 96.7273 255.75V260.575C97.3607 260.492 97.8773 260.258 98.2773 259.875C98.6773 259.475 98.8773 258.983 98.8773 258.4ZM93.2773 249.725C93.2773 250.758 93.9773 251.567 95.3773 252.15V247.625C94.744 247.708 94.2357 247.942 93.8523 248.325C93.469 248.708 93.2773 249.175 93.2773 249.725ZM106.31 263V247.975H102.735L104.835 245.25H109.06V263H106.31ZM118.703 263.25C116.92 263.25 115.403 262.717 114.153 261.65C112.92 260.583 112.286 259.175 112.253 257.425H115.003C115.07 258.375 115.445 259.133 116.128 259.7C116.828 260.267 117.686 260.55 118.703 260.55C119.62 260.55 120.37 260.308 120.953 259.825C121.553 259.342 121.861 258.675 121.878 257.825C121.878 256.892 121.57 256.192 120.953 255.725C120.353 255.242 119.52 255 118.453 255H117.053V252.65H118.453C119.336 252.65 120.036 252.417 120.553 251.95C121.086 251.483 121.361 250.875 121.378 250.125C121.378 249.392 121.111 248.8 120.578 248.35C120.045 247.883 119.386 247.65 118.603 247.65C117.67 247.65 116.895 247.925 116.278 248.475C115.661 249.008 115.353 249.742 115.353 250.675H112.578C112.578 248.942 113.161 247.558 114.328 246.525C115.511 245.475 116.936 244.95 118.603 244.95C120.253 244.95 121.586 245.417 122.603 246.35C123.636 247.283 124.153 248.483 124.153 249.95C124.153 250.767 123.945 251.525 123.528 252.225C123.111 252.908 122.595 253.433 121.978 253.8C122.795 254.15 123.445 254.692 123.928 255.425C124.411 256.158 124.653 257.017 124.653 258C124.653 259.55 124.095 260.817 122.978 261.8C121.878 262.767 120.453 263.25 118.703 263.25ZM133.303 263.25C131.519 263.25 130.003 262.717 128.753 261.65C127.519 260.583 126.886 259.175 126.853 257.425H129.603C129.669 258.375 130.044 259.133 130.728 259.7C131.428 260.267 132.286 260.55 133.303 260.55C134.219 260.55 134.969 260.308 135.553 259.825C136.153 259.342 136.461 258.675 136.478 257.825C136.478 256.892 136.169 256.192 135.553 255.725C134.953 255.242 134.119 255 133.053 255H131.653V252.65H133.053C133.936 252.65 134.636 252.417 135.153 251.95C135.686 251.483 135.961 250.875 135.978 250.125C135.978 249.392 135.711 248.8 135.178 248.35C134.644 247.883 133.986 247.65 133.203 247.65C132.269 247.65 131.494 247.925 130.878 248.475C130.261 249.008 129.953 249.742 129.953 250.675H127.178C127.178 248.942 127.761 247.558 128.928 246.525C130.111 245.475 131.536 244.95 133.203 244.95C134.853 244.95 136.186 245.417 137.203 246.35C138.236 247.283 138.753 248.483 138.753 249.95C138.753 250.767 138.544 251.525 138.128 252.225C137.711 252.908 137.194 253.433 136.578 253.8C137.394 254.15 138.044 254.692 138.528 255.425C139.011 256.158 139.253 257.017 139.253 258C139.253 259.55 138.694 260.817 137.578 261.8C136.478 262.767 135.053 263.25 133.303 263.25ZM145.527 262.375L142.852 266.675H141.152L142.877 263C142.527 262.85 142.235 262.6 142.002 262.25C141.769 261.883 141.652 261.475 141.652 261.025C141.652 260.425 141.86 259.917 142.277 259.5C142.694 259.067 143.202 258.85 143.802 258.85C144.402 258.85 144.91 259.067 145.327 259.5C145.744 259.917 145.952 260.425 145.952 261.025C145.952 261.508 145.81 261.958 145.527 262.375ZM160.042 260.3V263H148.292V262C148.292 261.367 148.383 260.767 148.567 260.2C148.767 259.617 148.975 259.133 149.192 258.75C149.408 258.367 149.767 257.942 150.267 257.475C150.767 256.992 151.15 256.65 151.417 256.45C151.683 256.233 152.15 255.883 152.817 255.4C153.5 254.917 153.933 254.608 154.117 254.475C155.167 253.708 155.925 253.033 156.392 252.45C156.858 251.867 157.092 251.167 157.092 250.35C157.092 249.533 156.842 248.883 156.342 248.4C155.842 247.9 155.15 247.65 154.267 247.65C153.35 247.65 152.592 247.925 151.992 248.475C151.392 249.008 151.083 249.742 151.067 250.675H148.292C148.292 248.992 148.858 247.617 149.992 246.55C151.142 245.483 152.575 244.95 154.292 244.95C155.875 244.95 157.2 245.417 158.267 246.35C159.333 247.283 159.867 248.592 159.867 250.275C159.867 251.608 159.558 252.733 158.942 253.65C158.342 254.55 157.342 255.5 155.942 256.5C155.725 256.667 155.325 256.95 154.742 257.35C154.158 257.75 153.725 258.058 153.442 258.275C153.175 258.492 152.883 258.792 152.567 259.175C152.25 259.542 152.033 259.917 151.917 260.3H160.042ZM168.252 263.25C166.636 263.25 165.219 262.742 164.002 261.725C162.786 260.708 162.161 259.475 162.127 258.025H164.952C165.136 258.775 165.527 259.383 166.127 259.85C166.744 260.317 167.452 260.55 168.252 260.55C169.236 260.55 170.036 260.233 170.652 259.6C171.269 258.95 171.577 258.167 171.577 257.25C171.577 256.3 171.269 255.517 170.652 254.9C170.052 254.267 169.277 253.95 168.327 253.95C166.894 253.95 165.861 254.558 165.227 255.775L162.752 255L164.652 245.25H173.102V247.925H166.802L165.977 252.175C166.711 251.658 167.636 251.4 168.752 251.4C170.419 251.4 171.769 251.975 172.802 253.125C173.836 254.275 174.352 255.742 174.352 257.525C174.352 259.192 173.777 260.567 172.627 261.65C171.494 262.717 170.036 263.25 168.252 263.25ZM182.589 263.25C180.823 263.25 179.364 262.725 178.214 261.675C177.064 260.608 176.489 259.258 176.489 257.625C176.489 255.558 177.331 254.067 179.014 253.15C177.914 252.3 177.364 251.125 177.364 249.625C177.364 248.275 177.848 247.158 178.814 246.275C179.798 245.392 181.056 244.95 182.589 244.95C184.139 244.95 185.398 245.392 186.364 246.275C187.348 247.142 187.839 248.258 187.839 249.625C187.839 251.125 187.289 252.3 186.189 253.15C187.873 254.067 188.714 255.558 188.714 257.625C188.714 259.275 188.139 260.625 186.989 261.675C185.856 262.725 184.389 263.25 182.589 263.25ZM182.589 260.675C183.606 260.675 184.414 260.375 185.014 259.775C185.614 259.175 185.914 258.442 185.914 257.575C185.914 256.692 185.614 255.958 185.014 255.375C184.414 254.775 183.614 254.475 182.614 254.475C181.598 254.475 180.789 254.775 180.189 255.375C179.589 255.958 179.289 256.692 179.289 257.575C179.289 258.442 179.589 259.175 180.189 259.775C180.806 260.375 181.606 260.675 182.589 260.675ZM182.589 252.15C183.356 252.15 183.973 251.925 184.439 251.475C184.923 251.008 185.164 250.45 185.164 249.8C185.164 249.117 184.931 248.558 184.464 248.125C183.998 247.675 183.373 247.45 182.589 247.45C181.839 247.45 181.223 247.675 180.739 248.125C180.273 248.575 180.039 249.133 180.039 249.8C180.039 250.45 180.281 251.008 180.764 251.475C181.248 251.925 181.856 252.15 182.589 252.15ZM193.142 263.2C192.558 263.2 192.05 262.992 191.617 262.575C191.2 262.142 190.992 261.625 190.992 261.025C190.992 260.442 191.2 259.933 191.617 259.5C192.05 259.067 192.558 258.85 193.142 258.85C193.742 258.85 194.25 259.067 194.667 259.5C195.1 259.933 195.317 260.442 195.317 261.025C195.317 261.625 195.1 262.142 194.667 262.575C194.25 262.992 193.742 263.2 193.142 263.2ZM208.664 261.35C207.464 262.617 205.922 263.25 204.039 263.25C202.156 263.25 200.614 262.617 199.414 261.35C198.214 260.067 197.614 258.425 197.614 256.425V251.775C197.614 249.775 198.214 248.142 199.414 246.875C200.614 245.592 202.156 244.95 204.039 244.95C205.922 244.95 207.464 245.592 208.664 246.875C209.881 248.142 210.489 249.775 210.489 251.775V256.425C210.489 258.425 209.881 260.067 208.664 261.35ZM204.039 260.55C205.156 260.55 206.047 260.183 206.714 259.45C207.397 258.717 207.739 257.708 207.739 256.425V251.775C207.739 250.492 207.397 249.483 206.714 248.75C206.047 248.017 205.156 247.65 204.039 247.65C202.939 247.65 202.047 248.017 201.364 248.75C200.697 249.483 200.364 250.492 200.364 251.775V256.425C200.364 257.708 200.697 258.717 201.364 259.45C202.047 260.183 202.939 260.55 204.039 260.55ZM224.313 261.35C223.113 262.617 221.572 263.25 219.688 263.25C217.805 263.25 216.263 262.617 215.063 261.35C213.863 260.067 213.263 258.425 213.263 256.425V251.775C213.263 249.775 213.863 248.142 215.063 246.875C216.263 245.592 217.805 244.95 219.688 244.95C221.572 244.95 223.113 245.592 224.313 246.875C225.53 248.142 226.138 249.775 226.138 251.775V256.425C226.138 258.425 225.53 260.067 224.313 261.35ZM219.688 260.55C220.805 260.55 221.697 260.183 222.363 259.45C223.047 258.717 223.388 257.708 223.388 256.425V251.775C223.388 250.492 223.047 249.483 222.363 248.75C221.697 248.017 220.805 247.65 219.688 247.65C218.588 247.65 217.697 248.017 217.013 248.75C216.347 249.483 216.013 250.492 216.013 251.775V256.425C216.013 257.708 216.347 258.717 217.013 259.45C217.697 260.183 218.588 260.55 219.688 260.55Z" fill="white"/>
<path d="M87.6674 285.766C87.1758 285.766 86.7786 285.371 86.7786 284.883C86.7786 284.395 87.1758 284 87.6674 284H92.1112C92.6028 284 93 284.395 93 284.883V289.297C93 289.785 92.6028 290.18 92.1112 290.18C91.6196 290.18 91.2225 289.785 91.2225 289.297V287.015L86.5175 291.686C86.1703 292.031 85.6065 292.031 85.2593 291.686L82.3347 288.781L78.5186 292.569C78.1714 292.914 77.6076 292.914 77.2604 292.569C76.9132 292.224 76.9132 291.664 77.2604 291.319L81.7042 286.905C82.0514 286.56 82.6152 286.56 82.9624 286.905L85.8898 289.813L89.9643 285.766H87.6674Z" fill="#23C215"/>
<path d="M98.518 289.626V288.268H100.786V286H102.158V288.268H104.426V289.626H102.158V291.894H100.786V289.626H98.518ZM106.812 293V284.586H104.81L105.986 283.06H108.352V293H106.812ZM111.652 293V284.586H109.65L110.826 283.06H113.192V293H111.652ZM116.268 293.112C115.941 293.112 115.657 292.995 115.414 292.762C115.181 292.519 115.064 292.23 115.064 291.894C115.064 291.567 115.181 291.283 115.414 291.04C115.657 290.797 115.941 290.676 116.268 290.676C116.604 290.676 116.889 290.797 117.122 291.04C117.365 291.283 117.486 291.567 117.486 291.894C117.486 292.23 117.365 292.519 117.122 292.762C116.889 292.995 116.604 293.112 116.268 293.112ZM122.031 293.14C121.126 293.14 120.332 292.855 119.651 292.286C118.97 291.717 118.62 291.026 118.601 290.214H120.183C120.286 290.634 120.505 290.975 120.841 291.236C121.186 291.497 121.583 291.628 122.031 291.628C122.582 291.628 123.03 291.451 123.375 291.096C123.72 290.732 123.893 290.293 123.893 289.78C123.893 289.248 123.72 288.809 123.375 288.464C123.039 288.109 122.605 287.932 122.073 287.932C121.27 287.932 120.692 288.273 120.337 288.954L118.951 288.52L120.015 283.06H124.747V284.558H121.219L120.757 286.938C121.168 286.649 121.686 286.504 122.311 286.504C123.244 286.504 124 286.826 124.579 287.47C125.158 288.114 125.447 288.935 125.447 289.934C125.447 290.867 125.125 291.637 124.481 292.244C123.846 292.841 123.03 293.14 122.031 293.14ZM133.238 291.488V293H126.658V292.44C126.658 292.085 126.709 291.749 126.812 291.432C126.924 291.105 127.04 290.835 127.162 290.62C127.283 290.405 127.484 290.167 127.764 289.906C128.044 289.635 128.258 289.444 128.408 289.332C128.557 289.211 128.818 289.015 129.192 288.744C129.574 288.473 129.817 288.301 129.92 288.226C130.508 287.797 130.932 287.419 131.194 287.092C131.455 286.765 131.586 286.373 131.586 285.916C131.586 285.459 131.446 285.095 131.166 284.824C130.886 284.544 130.498 284.404 130.004 284.404C129.49 284.404 129.066 284.558 128.73 284.866C128.394 285.165 128.221 285.575 128.212 286.098H126.658C126.658 285.155 126.975 284.385 127.61 283.788C128.254 283.191 129.056 282.892 130.018 282.892C130.904 282.892 131.646 283.153 132.244 283.676C132.841 284.199 133.14 284.931 133.14 285.874C133.14 286.621 132.967 287.251 132.622 287.764C132.286 288.268 131.726 288.8 130.942 289.36C130.82 289.453 130.596 289.612 130.27 289.836C129.943 290.06 129.7 290.233 129.542 290.354C129.392 290.475 129.229 290.643 129.052 290.858C128.874 291.063 128.753 291.273 128.688 291.488H133.238ZM138.494 293H136.87L143.17 283.06H144.794L138.494 293ZM144.556 293.112C143.79 293.112 143.137 292.841 142.596 292.3C142.064 291.759 141.798 291.11 141.798 290.354C141.798 289.589 142.064 288.94 142.596 288.408C143.137 287.867 143.79 287.596 144.556 287.596C145.312 287.596 145.96 287.867 146.502 288.408C147.043 288.94 147.314 289.589 147.314 290.354C147.314 291.11 147.043 291.759 146.502 292.3C145.96 292.841 145.312 293.112 144.556 293.112ZM143.548 291.348C143.828 291.628 144.164 291.768 144.556 291.768C144.948 291.768 145.274 291.633 145.536 291.362C145.806 291.082 145.942 290.746 145.942 290.354C145.942 289.962 145.806 289.631 145.536 289.36C145.274 289.08 144.948 288.94 144.556 288.94C144.164 288.94 143.828 289.08 143.548 289.36C143.277 289.64 143.142 289.971 143.142 290.354C143.142 290.737 143.277 291.068 143.548 291.348ZM137.108 288.464C136.342 288.464 135.689 288.193 135.148 287.652C134.616 287.111 134.35 286.462 134.35 285.706C134.35 284.941 134.616 284.292 135.148 283.76C135.689 283.219 136.342 282.948 137.108 282.948C137.864 282.948 138.512 283.219 139.054 283.76C139.595 284.292 139.866 284.941 139.866 285.706C139.866 286.462 139.595 287.111 139.054 287.652C138.512 288.193 137.864 288.464 137.108 288.464ZM137.108 287.12C137.49 287.12 137.817 286.98 138.088 286.7C138.368 286.42 138.508 286.089 138.508 285.706C138.508 285.323 138.368 284.992 138.088 284.712C137.817 284.432 137.49 284.292 137.108 284.292C136.716 284.292 136.384 284.432 136.114 284.712C135.843 284.983 135.708 285.314 135.708 285.706C135.708 286.098 135.843 286.434 136.114 286.714C136.384 286.985 136.716 287.12 137.108 287.12Z" fill="#23C215"/>
<path d="M153.207 293L150.435 287H151.587L153.639 291.548L155.691 287H156.843L154.071 293H153.207ZM159.748 293.12C159.076 293.12 158.512 292.956 158.056 292.628C157.608 292.3 157.36 291.844 157.312 291.26H158.368C158.432 291.596 158.592 291.844 158.848 292.004C159.112 292.164 159.416 292.244 159.76 292.244C160.104 292.244 160.38 292.176 160.588 292.04C160.804 291.904 160.912 291.708 160.912 291.452C160.912 291.212 160.832 291.016 160.672 290.864C160.52 290.712 160.268 290.588 159.916 290.492L159.052 290.264C158.02 289.992 157.504 289.404 157.504 288.5C157.504 288.012 157.696 287.62 158.08 287.324C158.472 287.028 158.972 286.88 159.58 286.88C160.196 286.88 160.7 287.044 161.092 287.372C161.492 287.692 161.716 288.1 161.764 288.596H160.732C160.652 288.332 160.508 288.124 160.3 287.972C160.1 287.82 159.86 287.744 159.58 287.744C159.284 287.744 159.036 287.812 158.836 287.948C158.644 288.084 158.548 288.264 158.548 288.488C158.548 288.704 158.62 288.88 158.764 289.016C158.908 289.152 159.14 289.264 159.46 289.352L160.42 289.604C161.444 289.86 161.956 290.452 161.956 291.38C161.956 291.956 161.752 292.392 161.344 292.688C160.936 292.976 160.404 293.12 159.748 293.12ZM166.312 293V284H167.344V293H166.312ZM171.772 293.12C170.94 293.12 170.24 292.816 169.672 292.208C169.112 291.6 168.832 290.864 168.832 290C168.832 289.136 169.112 288.4 169.672 287.792C170.24 287.184 170.94 286.88 171.772 286.88C172.212 286.88 172.62 286.98 172.996 287.18C173.38 287.372 173.676 287.62 173.884 287.924V287H174.916V293H173.884V292.076C173.676 292.38 173.38 292.632 172.996 292.832C172.62 293.024 172.212 293.12 171.772 293.12ZM171.928 292.172C172.52 292.172 173.008 291.964 173.392 291.548C173.776 291.132 173.968 290.616 173.968 290C173.968 289.384 173.776 288.868 173.392 288.452C173.008 288.036 172.52 287.828 171.928 287.828C171.328 287.828 170.836 288.036 170.452 288.452C170.068 288.868 169.876 289.384 169.876 290C169.876 290.616 170.068 291.132 170.452 291.548C170.836 291.964 171.328 292.172 171.928 292.172ZM178.791 293.12C178.119 293.12 177.555 292.956 177.099 292.628C176.651 292.3 176.403 291.844 176.355 291.26H177.411C177.475 291.596 177.635 291.844 177.891 292.004C178.155 292.164 178.459 292.244 178.803 292.244C179.147 292.244 179.423 292.176 179.631 292.04C179.847 291.904 179.955 291.708 179.955 291.452C179.955 291.212 179.875 291.016 179.715 290.864C179.563 290.712 179.311 290.588 178.959 290.492L178.095 290.264C177.063 289.992 176.547 289.404 176.547 288.5C176.547 288.012 176.739 287.62 177.123 287.324C177.515 287.028 178.015 286.88 178.623 286.88C179.239 286.88 179.743 287.044 180.135 287.372C180.535 287.692 180.759 288.1 180.807 288.596H179.775C179.695 288.332 179.551 288.124 179.343 287.972C179.143 287.82 178.903 287.744 178.623 287.744C178.327 287.744 178.079 287.812 177.879 287.948C177.687 288.084 177.591 288.264 177.591 288.488C177.591 288.704 177.663 288.88 177.807 289.016C177.951 289.152 178.183 289.264 178.503 289.352L179.463 289.604C180.487 289.86 180.999 290.452 180.999 291.38C180.999 291.956 180.795 292.392 180.387 292.688C179.979 292.976 179.447 293.12 178.791 293.12ZM184.695 293.06C184.143 293.06 183.699 292.904 183.363 292.592C183.027 292.28 182.859 291.824 182.859 291.224V287.948H181.587V287H182.859V285.332H183.891V287H185.619V287.948H183.891V291.092C183.891 291.468 183.971 291.732 184.131 291.884C184.291 292.036 184.543 292.112 184.887 292.112C185.191 292.112 185.435 292.072 185.619 291.992V292.916C185.331 293.012 185.023 293.06 184.695 293.06ZM192.423 293.12C191.575 293.12 190.855 292.864 190.263 292.352C189.679 291.832 189.387 291.184 189.387 290.408H190.431C190.463 290.912 190.667 291.324 191.043 291.644C191.419 291.956 191.879 292.112 192.423 292.112C192.919 292.112 193.331 291.976 193.659 291.704C193.987 291.432 194.151 291.056 194.151 290.576C194.151 290.064 193.983 289.68 193.647 289.424C193.319 289.168 192.867 289.04 192.291 289.04H191.655V288.092H192.339C192.795 288.092 193.167 287.964 193.455 287.708C193.751 287.452 193.903 287.12 193.911 286.712C193.911 286.312 193.763 285.984 193.467 285.728C193.179 285.472 192.815 285.344 192.375 285.344C191.871 285.344 191.447 285.492 191.103 285.788C190.759 286.084 190.587 286.496 190.587 287.024H189.531C189.531 286.208 189.803 285.556 190.347 285.068C190.891 284.58 191.567 284.336 192.375 284.336C193.119 284.336 193.735 284.552 194.223 284.984C194.719 285.408 194.967 285.972 194.967 286.676C194.959 287.084 194.847 287.452 194.631 287.78C194.423 288.108 194.151 288.36 193.815 288.536C194.247 288.712 194.587 288.984 194.835 289.352C195.083 289.712 195.207 290.132 195.207 290.612C195.207 291.356 194.947 291.96 194.427 292.424C193.907 292.888 193.239 293.12 192.423 293.12ZM199.552 293.12C198.664 293.12 197.94 292.824 197.38 292.232C196.82 291.632 196.54 290.86 196.54 289.916V287.54C196.54 286.596 196.82 285.828 197.38 285.236C197.948 284.636 198.672 284.336 199.552 284.336C200.432 284.336 201.156 284.636 201.724 285.236C202.292 285.836 202.576 286.604 202.576 287.54V289.916C202.576 290.86 202.292 291.632 201.724 292.232C201.156 292.824 200.432 293.12 199.552 293.12ZM199.552 292.112C200.144 292.112 200.624 291.916 200.992 291.524C201.36 291.132 201.544 290.596 201.544 289.916V287.54C201.544 286.86 201.36 286.324 200.992 285.932C200.624 285.54 200.144 285.344 199.552 285.344C198.968 285.344 198.492 285.54 198.124 285.932C197.756 286.324 197.572 286.86 197.572 287.54V289.916C197.572 290.596 197.756 291.132 198.124 291.524C198.492 291.916 198.968 292.112 199.552 292.112ZM209.635 293.12C208.803 293.12 208.103 292.816 207.535 292.208C206.975 291.6 206.695 290.864 206.695 290C206.695 289.136 206.975 288.4 207.535 287.792C208.103 287.184 208.803 286.88 209.635 286.88C210.075 286.88 210.483 286.98 210.859 287.18C211.243 287.372 211.539 287.62 211.747 287.924V284H212.779V293H211.747V292.076C211.539 292.38 211.243 292.632 210.859 292.832C210.483 293.024 210.075 293.12 209.635 293.12ZM209.791 292.172C210.383 292.172 210.871 291.964 211.255 291.548C211.639 291.132 211.831 290.616 211.831 290C211.831 289.384 211.639 288.868 211.255 288.452C210.871 288.036 210.383 287.828 209.791 287.828C209.191 287.828 208.699 288.036 208.315 288.452C207.931 288.868 207.739 289.384 207.739 290C207.739 290.616 207.931 291.132 208.315 291.548C208.699 291.964 209.191 292.172 209.791 292.172ZM217.194 293.12C216.362 293.12 215.662 292.816 215.094 292.208C214.534 291.6 214.254 290.864 214.254 290C214.254 289.136 214.534 288.4 215.094 287.792C215.662 287.184 216.362 286.88 217.194 286.88C217.634 286.88 218.042 286.98 218.418 287.18C218.802 287.372 219.098 287.62 219.306 287.924V287H220.338V293H219.306V292.076C219.098 292.38 218.802 292.632 218.418 292.832C218.042 293.024 217.634 293.12 217.194 293.12ZM217.35 292.172C217.942 292.172 218.43 291.964 218.814 291.548C219.198 291.132 219.39 290.616 219.39 290C219.39 289.384 219.198 288.868 218.814 288.452C218.43 288.036 217.942 287.828 217.35 287.828C216.75 287.828 216.258 288.036 215.874 288.452C215.49 288.868 215.298 289.384 215.298 290C215.298 290.616 215.49 291.132 215.874 291.548C216.258 291.964 216.75 292.172 217.35 292.172ZM223.877 295.508H222.725L224.033 292.688L221.405 287H222.545L224.609 291.56L226.661 287H227.813L223.877 295.508ZM230.705 293.12C230.033 293.12 229.469 292.956 229.013 292.628C228.565 292.3 228.317 291.844 228.269 291.26H229.325C229.389 291.596 229.549 291.844 229.805 292.004C230.069 292.164 230.373 292.244 230.717 292.244C231.061 292.244 231.337 292.176 231.545 292.04C231.761 291.904 231.869 291.708 231.869 291.452C231.869 291.212 231.789 291.016 231.629 290.864C231.477 290.712 231.225 290.588 230.873 290.492L230.009 290.264C228.977 289.992 228.461 289.404 228.461 288.5C228.461 288.012 228.653 287.62 229.037 287.324C229.429 287.028 229.929 286.88 230.537 286.88C231.153 286.88 231.657 287.044 232.049 287.372C232.449 287.692 232.673 288.1 232.721 288.596H231.689C231.609 288.332 231.465 288.124 231.257 287.972C231.057 287.82 230.817 287.744 230.537 287.744C230.241 287.744 229.993 287.812 229.793 287.948C229.601 288.084 229.505 288.264 229.505 288.488C229.505 288.704 229.577 288.88 229.721 289.016C229.865 289.152 230.097 289.264 230.417 289.352L231.377 289.604C232.401 289.86 232.913 290.452 232.913 291.38C232.913 291.956 232.709 292.392 232.301 292.688C231.893 292.976 231.361 293.12 230.705 293.12Z" fill="#C4C4C4"/>
<path d="M47 352C47 346.477 51.4772 342 57 342H393C398.523 342 403 346.477 403 352V488C403 493.523 398.523 498 393 498H57C51.4772 498 47 493.523 47 488V352Z" fill="#101010"/>
<path d="M47.5 352C47.5 346.753 51.7533 342.5 57 342.5H393C398.247 342.5 402.5 346.753 402.5 352V488C402.5 493.247 398.247 497.5 393 497.5H57C51.7533 497.5 47.5 493.247 47.5 488V352Z" stroke="white" stroke-opacity="0.1"/>
<path d="M78.692 368.22H80.222L84.956 374.592L89.726 368.22H91.238V381H89.582V371.064L84.974 377.256L80.366 371.064V381H78.692V368.22ZM98.2392 381.18C96.8832 381.18 95.7552 380.73 94.8552 379.83C93.9672 378.918 93.5232 377.808 93.5232 376.5C93.5232 375.192 93.9672 374.088 94.8552 373.188C95.7552 372.276 96.8832 371.82 98.2392 371.82C99.5832 371.82 100.699 372.276 101.587 373.188C102.487 374.088 102.937 375.192 102.937 376.5C102.937 377.808 102.487 378.918 101.587 379.83C100.699 380.73 99.5832 381.18 98.2392 381.18ZM95.9712 378.804C96.5592 379.428 97.3152 379.74 98.2392 379.74C99.1632 379.74 99.9132 379.428 100.489 378.804C101.065 378.18 101.353 377.412 101.353 376.5C101.353 375.588 101.065 374.82 100.489 374.196C99.9132 373.572 99.1632 373.26 98.2392 373.26C97.3152 373.26 96.5592 373.572 95.9712 374.196C95.3952 374.82 95.1072 375.588 95.1072 376.5C95.1072 377.412 95.3952 378.18 95.9712 378.804ZM105.159 381V372H106.707V373.386C107.319 372.342 108.273 371.82 109.569 371.82C110.589 371.82 111.411 372.15 112.035 372.81C112.659 373.47 112.971 374.352 112.971 375.456V381H111.441V375.69C111.441 374.934 111.249 374.34 110.865 373.908C110.481 373.464 109.965 373.242 109.317 373.242C108.573 373.242 107.949 373.536 107.445 374.124C106.953 374.712 106.707 375.516 106.707 376.536V381H105.159ZM119.145 381.09C118.317 381.09 117.651 380.856 117.147 380.388C116.643 379.92 116.391 379.236 116.391 378.336V373.422H114.483V372H116.391V369.498H117.939V372H120.531V373.422H117.939V378.138C117.939 378.702 118.059 379.098 118.299 379.326C118.539 379.554 118.917 379.668 119.433 379.668C119.889 379.668 120.255 379.608 120.531 379.488V380.874C120.099 381.018 119.637 381.09 119.145 381.09ZM124.057 381H122.509V367.5H124.057V373.386C124.669 372.342 125.623 371.82 126.919 371.82C127.939 371.82 128.761 372.15 129.385 372.81C130.009 373.47 130.321 374.352 130.321 375.456V381H128.791V375.69C128.791 374.934 128.599 374.34 128.215 373.908C127.831 373.464 127.315 373.242 126.667 373.242C125.923 373.242 125.299 373.536 124.795 374.124C124.303 374.712 124.057 375.516 124.057 376.536V381ZM133.108 381V367.5H134.656V381H133.108ZM139.985 384.762H138.257L140.219 380.532L136.277 372H137.987L141.083 378.84L144.161 372H145.889L139.985 384.762ZM155.206 381.18C153.898 381.18 152.812 380.736 151.948 379.848C151.096 378.96 150.67 377.844 150.67 376.5C150.67 375.144 151.084 374.028 151.912 373.152C152.752 372.264 153.862 371.82 155.242 371.82C156.634 371.82 157.726 372.312 158.518 373.296C159.31 374.28 159.658 375.486 159.562 376.914H152.236C152.26 377.73 152.56 378.414 153.136 378.966C153.712 379.506 154.408 379.776 155.224 379.776C156.448 379.776 157.318 379.272 157.834 378.264H159.418C159.19 379.104 158.704 379.8 157.96 380.352C157.216 380.904 156.298 381.18 155.206 381.18ZM156.97 373.836C156.478 373.404 155.884 373.188 155.188 373.188C154.492 373.188 153.868 373.398 153.316 373.818C152.776 374.238 152.44 374.862 152.308 375.69H157.924C157.78 374.874 157.462 374.256 156.97 373.836ZM167.51 381L164.774 377.598L162.038 381H160.112L163.802 376.446L160.418 372H162.29L164.774 375.258L167.24 372H169.13L165.728 376.446L169.418 381H167.51ZM172.555 384.762H171.007V372H172.555V373.386C172.867 372.93 173.305 372.558 173.869 372.27C174.445 371.97 175.063 371.82 175.723 371.82C176.971 371.82 178.015 372.276 178.855 373.188C179.707 374.1 180.133 375.204 180.133 376.5C180.133 377.796 179.707 378.9 178.855 379.812C178.015 380.724 176.971 381.18 175.723 381.18C175.063 381.18 174.445 381.036 173.869 380.748C173.305 380.448 172.867 380.07 172.555 379.614V384.762ZM173.293 378.822C173.869 379.446 174.601 379.758 175.489 379.758C176.377 379.758 177.109 379.446 177.685 378.822C178.261 378.198 178.549 377.424 178.549 376.5C178.549 375.576 178.261 374.802 177.685 374.178C177.109 373.554 176.377 373.242 175.489 373.242C174.601 373.242 173.869 373.554 173.293 374.178C172.717 374.802 172.429 375.576 172.429 376.5C172.429 377.424 172.717 378.198 173.293 378.822ZM186.196 381.18C184.888 381.18 183.802 380.736 182.938 379.848C182.086 378.96 181.66 377.844 181.66 376.5C181.66 375.144 182.074 374.028 182.902 373.152C183.742 372.264 184.852 371.82 186.232 371.82C187.624 371.82 188.716 372.312 189.508 373.296C190.3 374.28 190.648 375.486 190.552 376.914H183.226C183.25 377.73 183.55 378.414 184.126 378.966C184.702 379.506 185.398 379.776 186.214 379.776C187.438 379.776 188.308 379.272 188.824 378.264H190.408C190.18 379.104 189.694 379.8 188.95 380.352C188.206 380.904 187.288 381.18 186.196 381.18ZM187.96 373.836C187.468 373.404 186.874 373.188 186.178 373.188C185.482 373.188 184.858 373.398 184.306 373.818C183.766 374.238 183.43 374.862 183.298 375.69H188.914C188.77 374.874 188.452 374.256 187.96 373.836ZM192.786 381V372H194.334V373.386C194.946 372.342 195.9 371.82 197.196 371.82C198.216 371.82 199.038 372.15 199.662 372.81C200.286 373.47 200.598 374.352 200.598 375.456V381H199.068V375.69C199.068 374.934 198.876 374.34 198.492 373.908C198.108 373.464 197.592 373.242 196.944 373.242C196.2 373.242 195.576 373.536 195.072 374.124C194.58 374.712 194.334 375.516 194.334 376.536V381H192.786ZM206.284 381.18C205.276 381.18 204.43 380.934 203.746 380.442C203.074 379.95 202.702 379.266 202.63 378.39H204.214C204.31 378.894 204.55 379.266 204.934 379.506C205.33 379.746 205.786 379.866 206.302 379.866C206.818 379.866 207.232 379.764 207.544 379.56C207.868 379.356 208.03 379.062 208.03 378.678C208.03 378.318 207.91 378.024 207.67 377.796C207.442 377.568 207.064 377.382 206.536 377.238L205.24 376.896C203.692 376.488 202.918 375.606 202.918 374.25C202.918 373.518 203.206 372.93 203.782 372.486C204.37 372.042 205.12 371.82 206.032 371.82C206.956 371.82 207.712 372.066 208.3 372.558C208.9 373.038 209.236 373.65 209.308 374.394H207.76C207.64 373.998 207.424 373.686 207.112 373.458C206.812 373.23 206.452 373.116 206.032 373.116C205.588 373.116 205.216 373.218 204.916 373.422C204.628 373.626 204.484 373.896 204.484 374.232C204.484 374.556 204.592 374.82 204.808 375.024C205.024 375.228 205.372 375.396 205.852 375.528L207.292 375.906C208.828 376.29 209.596 377.178 209.596 378.57C209.596 379.434 209.29 380.088 208.678 380.532C208.066 380.964 207.268 381.18 206.284 381.18ZM215.622 381.18C214.314 381.18 213.228 380.736 212.364 379.848C211.512 378.96 211.086 377.844 211.086 376.5C211.086 375.144 211.5 374.028 212.328 373.152C213.168 372.264 214.278 371.82 215.658 371.82C217.05 371.82 218.142 372.312 218.934 373.296C219.726 374.28 220.074 375.486 219.978 376.914H212.652C212.676 377.73 212.976 378.414 213.552 378.966C214.128 379.506 214.824 379.776 215.64 379.776C216.864 379.776 217.734 379.272 218.25 378.264H219.834C219.606 379.104 219.12 379.8 218.376 380.352C217.632 380.904 216.714 381.18 215.622 381.18ZM217.386 373.836C216.894 373.404 216.3 373.188 215.604 373.188C214.908 373.188 214.284 373.398 213.732 373.818C213.192 374.238 212.856 374.862 212.724 375.69H218.34C218.196 374.874 217.878 374.256 217.386 373.836ZM225.11 381.18C224.102 381.18 223.256 380.934 222.572 380.442C221.9 379.95 221.528 379.266 221.456 378.39H223.04C223.136 378.894 223.376 379.266 223.76 379.506C224.156 379.746 224.612 379.866 225.128 379.866C225.644 379.866 226.058 379.764 226.37 379.56C226.694 379.356 226.856 379.062 226.856 378.678C226.856 378.318 226.736 378.024 226.496 377.796C226.268 377.568 225.89 377.382 225.362 377.238L224.066 376.896C222.518 376.488 221.744 375.606 221.744 374.25C221.744 373.518 222.032 372.93 222.608 372.486C223.196 372.042 223.946 371.82 224.858 371.82C225.782 371.82 226.538 372.066 227.126 372.558C227.726 373.038 228.062 373.65 228.134 374.394H226.586C226.466 373.998 226.25 373.686 225.938 373.458C225.638 373.23 225.278 373.116 224.858 373.116C224.414 373.116 224.042 373.218 223.742 373.422C223.454 373.626 223.31 373.896 223.31 374.232C223.31 374.556 223.418 374.82 223.634 375.024C223.85 375.228 224.198 375.396 224.678 375.528L226.118 375.906C227.654 376.29 228.422 377.178 228.422 378.57C228.422 379.434 228.116 380.088 227.504 380.532C226.892 380.964 226.094 381.18 225.11 381.18Z" fill="white"/>
<path d="M78.55 428.35V425.65H85.275V428.35H78.55ZM92.765 436.2V434.2C91.365 434.05 90.2067 433.517 89.29 432.6C88.3734 431.667 87.8984 430.442 87.865 428.925H90.615C90.7817 430.342 91.4984 431.2 92.765 431.5V426.2L91.915 425.875C89.2484 424.858 87.915 423.15 87.915 420.75C87.915 419.35 88.3567 418.233 89.24 417.4C90.14 416.55 91.315 416.075 92.765 415.975V414.05H94.115V416.025C95.3817 416.192 96.44 416.708 97.29 417.575C98.14 418.425 98.565 419.467 98.565 420.7H95.815C95.6317 419.667 95.065 419.008 94.115 418.725V423.675L94.865 423.975C96.2317 424.508 97.265 425.208 97.965 426.075C98.665 426.925 99.015 428.008 99.015 429.325C99.015 430.825 98.5734 432 97.69 432.85C96.8067 433.683 95.615 434.142 94.115 434.225V436.2H92.765ZM96.265 429.4C96.265 428.267 95.5484 427.383 94.115 426.75V431.575C94.7484 431.492 95.265 431.258 95.665 430.875C96.065 430.475 96.265 429.983 96.265 429.4ZM90.665 420.725C90.665 421.758 91.365 422.567 92.765 423.15V418.625C92.1317 418.708 91.6234 418.942 91.24 419.325C90.8567 419.708 90.665 420.175 90.665 420.725ZM106.973 434.25C105.356 434.25 103.94 433.742 102.723 432.725C101.506 431.708 100.881 430.475 100.848 429.025H103.673C103.856 429.775 104.248 430.383 104.848 430.85C105.465 431.317 106.173 431.55 106.973 431.55C107.956 431.55 108.756 431.233 109.373 430.6C109.99 429.95 110.298 429.167 110.298 428.25C110.298 427.3 109.99 426.517 109.373 425.9C108.773 425.267 107.998 424.95 107.048 424.95C105.615 424.95 104.581 425.558 103.948 426.775L101.473 426L103.373 416.25H111.823V418.925H105.523L104.698 423.175C105.431 422.658 106.356 422.4 107.473 422.4C109.14 422.4 110.49 422.975 111.523 424.125C112.556 425.275 113.073 426.742 113.073 428.525C113.073 430.192 112.498 431.567 111.348 432.65C110.215 433.717 108.756 434.25 106.973 434.25ZM121.06 434.25C119.443 434.25 118.027 433.742 116.81 432.725C115.593 431.708 114.968 430.475 114.935 429.025H117.76C117.943 429.775 118.335 430.383 118.935 430.85C119.552 431.317 120.26 431.55 121.06 431.55C122.043 431.55 122.843 431.233 123.46 430.6C124.077 429.95 124.385 429.167 124.385 428.25C124.385 427.3 124.077 426.517 123.46 425.9C122.86 425.267 122.085 424.95 121.135 424.95C119.702 424.95 118.668 425.558 118.035 426.775L115.56 426L117.46 416.25H125.91V418.925H119.61L118.785 423.175C119.518 422.658 120.443 422.4 121.56 422.4C123.227 422.4 124.577 422.975 125.61 424.125C126.643 425.275 127.16 426.742 127.16 428.525C127.16 430.192 126.585 431.567 125.435 432.65C124.302 433.717 122.843 434.25 121.06 434.25ZM133.247 433.375L130.572 437.675H128.872L130.597 434C130.247 433.85 129.955 433.6 129.722 433.25C129.489 432.883 129.372 432.475 129.372 432.025C129.372 431.425 129.58 430.917 129.997 430.5C130.414 430.067 130.922 429.85 131.522 429.85C132.122 429.85 132.63 430.067 133.047 430.5C133.464 430.917 133.672 431.425 133.672 432.025C133.672 432.508 133.53 432.958 133.247 433.375ZM142.086 434.25C140.32 434.25 138.861 433.725 137.711 432.675C136.561 431.608 135.986 430.258 135.986 428.625C135.986 426.558 136.828 425.067 138.511 424.15C137.411 423.3 136.861 422.125 136.861 420.625C136.861 419.275 137.345 418.158 138.311 417.275C139.295 416.392 140.553 415.95 142.086 415.95C143.636 415.95 144.895 416.392 145.861 417.275C146.845 418.142 147.336 419.258 147.336 420.625C147.336 422.125 146.786 423.3 145.686 424.15C147.37 425.067 148.211 426.558 148.211 428.625C148.211 430.275 147.636 431.625 146.486 432.675C145.353 433.725 143.886 434.25 142.086 434.25ZM142.086 431.675C143.103 431.675 143.911 431.375 144.511 430.775C145.111 430.175 145.411 429.442 145.411 428.575C145.411 427.692 145.111 426.958 144.511 426.375C143.911 425.775 143.111 425.475 142.111 425.475C141.095 425.475 140.286 425.775 139.686 426.375C139.086 426.958 138.786 427.692 138.786 428.575C138.786 429.442 139.086 430.175 139.686 430.775C140.303 431.375 141.103 431.675 142.086 431.675ZM142.086 423.15C142.853 423.15 143.47 422.925 143.936 422.475C144.42 422.008 144.661 421.45 144.661 420.8C144.661 420.117 144.428 419.558 143.961 419.125C143.495 418.675 142.87 418.45 142.086 418.45C141.336 418.45 140.72 418.675 140.236 419.125C139.77 419.575 139.536 420.133 139.536 420.8C139.536 421.45 139.778 422.008 140.261 422.475C140.745 422.925 141.353 423.15 142.086 423.15ZM156.314 434.25C154.697 434.25 153.281 433.742 152.064 432.725C150.847 431.708 150.222 430.475 150.189 429.025H153.014C153.197 429.775 153.589 430.383 154.189 430.85C154.806 431.317 155.514 431.55 156.314 431.55C157.297 431.55 158.097 431.233 158.714 430.6C159.331 429.95 159.639 429.167 159.639 428.25C159.639 427.3 159.331 426.517 158.714 425.9C158.114 425.267 157.339 424.95 156.389 424.95C154.956 424.95 153.922 425.558 153.289 426.775L150.814 426L152.714 416.25H161.164V418.925H154.864L154.039 423.175C154.772 422.658 155.697 422.4 156.814 422.4C158.481 422.4 159.831 422.975 160.864 424.125C161.897 425.275 162.414 426.742 162.414 428.525C162.414 430.192 161.839 431.567 160.689 432.65C159.556 433.717 158.097 434.25 156.314 434.25ZM174.776 432.55C173.642 433.683 172.184 434.25 170.401 434.25C168.617 434.25 167.159 433.683 166.026 432.55C164.892 431.4 164.326 429.975 164.326 428.275C164.326 427.458 164.484 426.708 164.801 426.025C165.134 425.342 165.642 424.558 166.326 423.675L172.251 416.25H175.701L170.701 422.55H170.976C172.426 422.55 173.709 423.1 174.826 424.2C175.942 425.283 176.501 426.633 176.501 428.25C176.501 429.967 175.926 431.4 174.776 432.55ZM168.026 430.65C168.659 431.283 169.451 431.6 170.401 431.6C171.351 431.6 172.142 431.283 172.776 430.65C173.409 430 173.726 429.208 173.726 428.275C173.726 427.358 173.401 426.575 172.751 425.925C172.117 425.275 171.334 424.95 170.401 424.95C169.467 424.95 168.684 425.275 168.051 425.925C167.417 426.575 167.101 427.358 167.101 428.275C167.101 429.208 167.409 430 168.026 430.65ZM180.837 434.2C180.254 434.2 179.745 433.992 179.312 433.575C178.895 433.142 178.687 432.625 178.687 432.025C178.687 431.442 178.895 430.933 179.312 430.5C179.745 430.067 180.254 429.85 180.837 429.85C181.437 429.85 181.945 430.067 182.362 430.5C182.795 430.933 183.012 431.442 183.012 432.025C183.012 432.625 182.795 433.142 182.362 433.575C181.945 433.992 181.437 434.2 180.837 434.2ZM196.359 432.35C195.159 433.617 193.618 434.25 191.734 434.25C189.851 434.25 188.309 433.617 187.109 432.35C185.909 431.067 185.309 429.425 185.309 427.425V422.775C185.309 420.775 185.909 419.142 187.109 417.875C188.309 416.592 189.851 415.95 191.734 415.95C193.618 415.95 195.159 416.592 196.359 417.875C197.576 419.142 198.184 420.775 198.184 422.775V427.425C198.184 429.425 197.576 431.067 196.359 432.35ZM191.734 431.55C192.851 431.55 193.743 431.183 194.409 430.45C195.093 429.717 195.434 428.708 195.434 427.425V422.775C195.434 421.492 195.093 420.483 194.409 419.75C193.743 419.017 192.851 418.65 191.734 418.65C190.634 418.65 189.743 419.017 189.059 419.75C188.393 420.483 188.059 421.492 188.059 422.775V427.425C188.059 428.708 188.393 429.717 189.059 430.45C189.743 431.183 190.634 431.55 191.734 431.55ZM212.009 432.35C210.809 433.617 209.267 434.25 207.384 434.25C205.5 434.25 203.959 433.617 202.759 432.35C201.559 431.067 200.959 429.425 200.959 427.425V422.775C200.959 420.775 201.559 419.142 202.759 417.875C203.959 416.592 205.5 415.95 207.384 415.95C209.267 415.95 210.809 416.592 212.009 417.875C213.225 419.142 213.834 420.775 213.834 422.775V427.425C213.834 429.425 213.225 431.067 212.009 432.35ZM207.384 431.55C208.5 431.55 209.392 431.183 210.059 430.45C210.742 429.717 211.084 428.708 211.084 427.425V422.775C211.084 421.492 210.742 420.483 210.059 419.75C209.392 419.017 208.5 418.65 207.384 418.65C206.284 418.65 205.392 419.017 204.709 419.75C204.042 420.483 203.709 421.492 203.709 422.775V427.425C203.709 428.708 204.042 429.717 204.709 430.45C205.392 431.183 206.284 431.55 207.384 431.55Z" fill="white"/>
<path d="M87.6674 456.766C87.1758 456.766 86.7786 456.371 86.7786 455.883C86.7786 455.395 87.1758 455 87.6674 455H92.1112C92.6028 455 93 455.395 93 455.883V460.297C93 460.785 92.6028 461.18 92.1112 461.18C91.6196 461.18 91.2225 460.785 91.2225 460.297V458.015L86.5175 462.686C86.1703 463.031 85.6065 463.031 85.2593 462.686L82.3347 459.781L78.5186 463.569C78.1714 463.914 77.6076 463.914 77.2604 463.569C76.9132 463.224 76.9132 462.664 77.2604 462.319L81.7042 457.905C82.0514 457.56 82.6152 457.56 82.9624 457.905L85.8898 460.813L89.9643 456.766H87.6674Z" fill="#23C215"/>
<path d="M98.518 460.626V459.268H100.786V457H102.158V459.268H104.426V460.626H102.158V462.894H100.786V460.626H98.518ZM109.117 464.14C108.119 464.14 107.269 463.841 106.569 463.244C105.879 462.647 105.524 461.858 105.505 460.878H107.045C107.083 461.41 107.293 461.835 107.675 462.152C108.067 462.469 108.548 462.628 109.117 462.628C109.631 462.628 110.051 462.493 110.377 462.222C110.713 461.951 110.886 461.578 110.895 461.102C110.895 460.579 110.723 460.187 110.377 459.926C110.041 459.655 109.575 459.52 108.977 459.52H108.193V458.204H108.977C109.472 458.204 109.864 458.073 110.153 457.812C110.452 457.551 110.606 457.21 110.615 456.79C110.615 456.379 110.466 456.048 110.167 455.796C109.869 455.535 109.5 455.404 109.061 455.404C108.539 455.404 108.105 455.558 107.759 455.866C107.414 456.165 107.241 456.575 107.241 457.098H105.687C105.687 456.127 106.014 455.353 106.667 454.774C107.33 454.186 108.128 453.892 109.061 453.892C109.985 453.892 110.732 454.153 111.301 454.676C111.88 455.199 112.169 455.871 112.169 456.692C112.169 457.149 112.053 457.574 111.819 457.966C111.586 458.349 111.297 458.643 110.951 458.848C111.409 459.044 111.773 459.347 112.043 459.758C112.314 460.169 112.449 460.649 112.449 461.2C112.449 462.068 112.137 462.777 111.511 463.328C110.895 463.869 110.097 464.14 109.117 464.14ZM117.293 464.14C116.294 464.14 115.445 463.841 114.745 463.244C114.054 462.647 113.7 461.858 113.681 460.878H115.221C115.258 461.41 115.468 461.835 115.851 462.152C116.243 462.469 116.724 462.628 117.293 462.628C117.806 462.628 118.226 462.493 118.553 462.222C118.889 461.951 119.062 461.578 119.071 461.102C119.071 460.579 118.898 460.187 118.553 459.926C118.217 459.655 117.75 459.52 117.153 459.52H116.369V458.204H117.153C117.648 458.204 118.04 458.073 118.329 457.812C118.628 457.551 118.782 457.21 118.791 456.79C118.791 456.379 118.642 456.048 118.343 455.796C118.044 455.535 117.676 455.404 117.237 455.404C116.714 455.404 116.28 455.558 115.935 455.866C115.59 456.165 115.417 456.575 115.417 457.098H113.863C113.863 456.127 114.19 455.353 114.843 454.774C115.506 454.186 116.304 453.892 117.237 453.892C118.161 453.892 118.908 454.153 119.477 454.676C120.056 455.199 120.345 455.871 120.345 456.692C120.345 457.149 120.228 457.574 119.995 457.966C119.762 458.349 119.472 458.643 119.127 458.848C119.584 459.044 119.948 459.347 120.219 459.758C120.49 460.169 120.625 460.649 120.625 461.2C120.625 462.068 120.312 462.777 119.687 463.328C119.071 463.869 118.273 464.14 117.293 464.14ZM123.145 464.112C122.818 464.112 122.534 463.995 122.291 463.762C122.058 463.519 121.941 463.23 121.941 462.894C121.941 462.567 122.058 462.283 122.291 462.04C122.534 461.797 122.818 461.676 123.145 461.676C123.481 461.676 123.766 461.797 123.999 462.04C124.242 462.283 124.363 462.567 124.363 462.894C124.363 463.23 124.242 463.519 123.999 463.762C123.766 463.995 123.481 464.112 123.145 464.112ZM128.908 464.14C128.003 464.14 127.209 463.855 126.528 463.286C125.847 462.717 125.497 462.026 125.478 461.214H127.06C127.163 461.634 127.382 461.975 127.718 462.236C128.063 462.497 128.46 462.628 128.908 462.628C129.459 462.628 129.907 462.451 130.252 462.096C130.597 461.732 130.77 461.293 130.77 460.78C130.77 460.248 130.597 459.809 130.252 459.464C129.916 459.109 129.482 458.932 128.95 458.932C128.147 458.932 127.569 459.273 127.214 459.954L125.828 459.52L126.892 454.06H131.624V455.558H128.096L127.634 457.938C128.045 457.649 128.563 457.504 129.188 457.504C130.121 457.504 130.877 457.826 131.456 458.47C132.035 459.114 132.324 459.935 132.324 460.934C132.324 461.867 132.002 462.637 131.358 463.244C130.723 463.841 129.907 464.14 128.908 464.14ZM136.797 464.14C135.891 464.14 135.098 463.855 134.417 463.286C133.735 462.717 133.385 462.026 133.367 461.214H134.949C135.051 461.634 135.271 461.975 135.607 462.236C135.952 462.497 136.349 462.628 136.797 462.628C137.347 462.628 137.795 462.451 138.141 462.096C138.486 461.732 138.659 461.293 138.659 460.78C138.659 460.248 138.486 459.809 138.141 459.464C137.805 459.109 137.371 458.932 136.839 458.932C136.036 458.932 135.457 459.273 135.103 459.954L133.717 459.52L134.781 454.06H139.513V455.558H135.985L135.523 457.938C135.933 457.649 136.451 457.504 137.077 457.504C138.01 457.504 138.766 457.826 139.345 458.47C139.923 459.114 140.213 459.935 140.213 460.934C140.213 461.867 139.891 462.637 139.247 463.244C138.612 463.841 137.795 464.14 136.797 464.14ZM145.343 464H143.719L150.019 454.06H151.643L145.343 464ZM151.405 464.112C150.64 464.112 149.987 463.841 149.445 463.3C148.913 462.759 148.647 462.11 148.647 461.354C148.647 460.589 148.913 459.94 149.445 459.408C149.987 458.867 150.64 458.596 151.405 458.596C152.161 458.596 152.81 458.867 153.351 459.408C153.893 459.94 154.163 460.589 154.163 461.354C154.163 462.11 153.893 462.759 153.351 463.3C152.81 463.841 152.161 464.112 151.405 464.112ZM150.397 462.348C150.677 462.628 151.013 462.768 151.405 462.768C151.797 462.768 152.124 462.633 152.385 462.362C152.656 462.082 152.791 461.746 152.791 461.354C152.791 460.962 152.656 460.631 152.385 460.36C152.124 460.08 151.797 459.94 151.405 459.94C151.013 459.94 150.677 460.08 150.397 460.36C150.127 460.64 149.991 460.971 149.991 461.354C149.991 461.737 150.127 462.068 150.397 462.348ZM143.957 459.464C143.192 459.464 142.539 459.193 141.997 458.652C141.465 458.111 141.199 457.462 141.199 456.706C141.199 455.941 141.465 455.292 141.997 454.76C142.539 454.219 143.192 453.948 143.957 453.948C144.713 453.948 145.362 454.219 145.903 454.76C146.445 455.292 146.715 455.941 146.715 456.706C146.715 457.462 146.445 458.111 145.903 458.652C145.362 459.193 144.713 459.464 143.957 459.464ZM143.957 458.12C144.34 458.12 144.667 457.98 144.937 457.7C145.217 457.42 145.357 457.089 145.357 456.706C145.357 456.323 145.217 455.992 144.937 455.712C144.667 455.432 144.34 455.292 143.957 455.292C143.565 455.292 143.234 455.432 142.963 455.712C142.693 455.983 142.557 456.314 142.557 456.706C142.557 457.098 142.693 457.434 142.963 457.714C143.234 457.985 143.565 458.12 143.957 458.12Z" fill="#23C215"/>
<path d="M160.057 464L157.285 458H158.437L160.489 462.548L162.541 458H163.693L160.921 464H160.057ZM166.597 464.12C165.925 464.12 165.361 463.956 164.905 463.628C164.457 463.3 164.209 462.844 164.161 462.26H165.217C165.281 462.596 165.441 462.844 165.697 463.004C165.961 463.164 166.265 463.244 166.609 463.244C166.953 463.244 167.229 463.176 167.437 463.04C167.653 462.904 167.761 462.708 167.761 462.452C167.761 462.212 167.681 462.016 167.521 461.864C167.369 461.712 167.117 461.588 166.765 461.492L165.901 461.264C164.869 460.992 164.353 460.404 164.353 459.5C164.353 459.012 164.545 458.62 164.929 458.324C165.321 458.028 165.821 457.88 166.429 457.88C167.045 457.88 167.549 458.044 167.941 458.372C168.341 458.692 168.565 459.1 168.613 459.596H167.581C167.501 459.332 167.357 459.124 167.149 458.972C166.949 458.82 166.709 458.744 166.429 458.744C166.133 458.744 165.885 458.812 165.685 458.948C165.493 459.084 165.397 459.264 165.397 459.488C165.397 459.704 165.469 459.88 165.613 460.016C165.757 460.152 165.989 460.264 166.309 460.352L167.269 460.604C168.293 460.86 168.805 461.452 168.805 462.38C168.805 462.956 168.601 463.392 168.193 463.688C167.785 463.976 167.253 464.12 166.597 464.12ZM173.161 464V455H174.193V464H173.161ZM178.622 464.12C177.79 464.12 177.09 463.816 176.522 463.208C175.962 462.6 175.682 461.864 175.682 461C175.682 460.136 175.962 459.4 176.522 458.792C177.09 458.184 177.79 457.88 178.622 457.88C179.062 457.88 179.47 457.98 179.846 458.18C180.23 458.372 180.526 458.62 180.734 458.924V458H181.766V464H180.734V463.076C180.526 463.38 180.23 463.632 179.846 463.832C179.47 464.024 179.062 464.12 178.622 464.12ZM178.778 463.172C179.37 463.172 179.858 462.964 180.242 462.548C180.626 462.132 180.818 461.616 180.818 461C180.818 460.384 180.626 459.868 180.242 459.452C179.858 459.036 179.37 458.828 178.778 458.828C178.178 458.828 177.686 459.036 177.302 459.452C176.918 459.868 176.726 460.384 176.726 461C176.726 461.616 176.918 462.132 177.302 462.548C177.686 462.964 178.178 463.172 178.778 463.172ZM185.64 464.12C184.968 464.12 184.404 463.956 183.948 463.628C183.5 463.3 183.252 462.844 183.204 462.26H184.26C184.324 462.596 184.484 462.844 184.74 463.004C185.004 463.164 185.308 463.244 185.652 463.244C185.996 463.244 186.272 463.176 186.48 463.04C186.696 462.904 186.804 462.708 186.804 462.452C186.804 462.212 186.724 462.016 186.564 461.864C186.412 461.712 186.16 461.588 185.808 461.492L184.944 461.264C183.912 460.992 183.396 460.404 183.396 459.5C183.396 459.012 183.588 458.62 183.972 458.324C184.364 458.028 184.864 457.88 185.472 457.88C186.088 457.88 186.592 458.044 186.984 458.372C187.384 458.692 187.608 459.1 187.656 459.596H186.624C186.544 459.332 186.4 459.124 186.192 458.972C185.992 458.82 185.752 458.744 185.472 458.744C185.176 458.744 184.928 458.812 184.728 458.948C184.536 459.084 184.44 459.264 184.44 459.488C184.44 459.704 184.512 459.88 184.656 460.016C184.8 460.152 185.032 460.264 185.352 460.352L186.312 460.604C187.336 460.86 187.848 461.452 187.848 462.38C187.848 462.956 187.644 463.392 187.236 463.688C186.828 463.976 186.296 464.12 185.64 464.12ZM191.544 464.06C190.992 464.06 190.548 463.904 190.212 463.592C189.876 463.28 189.708 462.824 189.708 462.224V458.948H188.436V458H189.708V456.332H190.74V458H192.468V458.948H190.74V462.092C190.74 462.468 190.82 462.732 190.98 462.884C191.14 463.036 191.392 463.112 191.736 463.112C192.04 463.112 192.284 463.072 192.468 462.992V463.916C192.18 464.012 191.872 464.06 191.544 464.06ZM199.273 464.12C198.425 464.12 197.705 463.864 197.113 463.352C196.529 462.832 196.237 462.184 196.237 461.408H197.281C197.313 461.912 197.517 462.324 197.893 462.644C198.269 462.956 198.729 463.112 199.273 463.112C199.769 463.112 200.181 462.976 200.509 462.704C200.837 462.432 201.001 462.056 201.001 461.576C201.001 461.064 200.833 460.68 200.497 460.424C200.169 460.168 199.717 460.04 199.141 460.04H198.505V459.092H199.189C199.645 459.092 200.017 458.964 200.305 458.708C200.601 458.452 200.753 458.12 200.761 457.712C200.761 457.312 200.613 456.984 200.317 456.728C200.029 456.472 199.665 456.344 199.225 456.344C198.721 456.344 198.297 456.492 197.953 456.788C197.609 457.084 197.437 457.496 197.437 458.024H196.381C196.381 457.208 196.653 456.556 197.197 456.068C197.741 455.58 198.417 455.336 199.225 455.336C199.969 455.336 200.585 455.552 201.073 455.984C201.569 456.408 201.817 456.972 201.817 457.676C201.809 458.084 201.697 458.452 201.481 458.78C201.273 459.108 201.001 459.36 200.665 459.536C201.097 459.712 201.437 459.984 201.685 460.352C201.933 460.712 202.057 461.132 202.057 461.612C202.057 462.356 201.797 462.96 201.277 463.424C200.757 463.888 200.089 464.12 199.273 464.12ZM206.402 464.12C205.514 464.12 204.79 463.824 204.23 463.232C203.67 462.632 203.39 461.86 203.39 460.916V458.54C203.39 457.596 203.67 456.828 204.23 456.236C204.798 455.636 205.522 455.336 206.402 455.336C207.282 455.336 208.006 455.636 208.574 456.236C209.142 456.836 209.426 457.604 209.426 458.54V460.916C209.426 461.86 209.142 462.632 208.574 463.232C208.006 463.824 207.282 464.12 206.402 464.12ZM206.402 463.112C206.994 463.112 207.474 462.916 207.842 462.524C208.21 462.132 208.394 461.596 208.394 460.916V458.54C208.394 457.86 208.21 457.324 207.842 456.932C207.474 456.54 206.994 456.344 206.402 456.344C205.818 456.344 205.342 456.54 204.974 456.932C204.606 457.324 204.422 457.86 204.422 458.54V460.916C204.422 461.596 204.606 462.132 204.974 462.524C205.342 462.916 205.818 463.112 206.402 463.112ZM216.485 464.12C215.653 464.12 214.953 463.816 214.385 463.208C213.825 462.6 213.545 461.864 213.545 461C213.545 460.136 213.825 459.4 214.385 458.792C214.953 458.184 215.653 457.88 216.485 457.88C216.925 457.88 217.333 457.98 217.709 458.18C218.093 458.372 218.389 458.62 218.597 458.924V455H219.629V464H218.597V463.076C218.389 463.38 218.093 463.632 217.709 463.832C217.333 464.024 216.925 464.12 216.485 464.12ZM216.641 463.172C217.233 463.172 217.721 462.964 218.105 462.548C218.489 462.132 218.681 461.616 218.681 461C218.681 460.384 218.489 459.868 218.105 459.452C217.721 459.036 217.233 458.828 216.641 458.828C216.041 458.828 215.549 459.036 215.165 459.452C214.781 459.868 214.589 460.384 214.589 461C214.589 461.616 214.781 462.132 215.165 462.548C215.549 462.964 216.041 463.172 216.641 463.172ZM224.044 464.12C223.212 464.12 222.512 463.816 221.944 463.208C221.384 462.6 221.104 461.864 221.104 461C221.104 460.136 221.384 459.4 221.944 458.792C222.512 458.184 223.212 457.88 224.044 457.88C224.484 457.88 224.892 457.98 225.268 458.18C225.652 458.372 225.948 458.62 226.156 458.924V458H227.188V464H226.156V463.076C225.948 463.38 225.652 463.632 225.268 463.832C224.892 464.024 224.484 464.12 224.044 464.12ZM224.2 463.172C224.792 463.172 225.28 462.964 225.664 462.548C226.048 462.132 226.24 461.616 226.24 461C226.24 460.384 226.048 459.868 225.664 459.452C225.28 459.036 224.792 458.828 224.2 458.828C223.6 458.828 223.108 459.036 222.724 459.452C222.34 459.868 222.148 460.384 222.148 461C222.148 461.616 222.34 462.132 222.724 462.548C223.108 462.964 223.6 463.172 224.2 463.172ZM230.726 466.508H229.574L230.882 463.688L228.254 458H229.394L231.458 462.56L233.51 458H234.662L230.726 466.508ZM237.554 464.12C236.882 464.12 236.318 463.956 235.862 463.628C235.414 463.3 235.166 462.844 235.118 462.26H236.174C236.238 462.596 236.398 462.844 236.654 463.004C236.918 463.164 237.222 463.244 237.566 463.244C237.91 463.244 238.186 463.176 238.394 463.04C238.61 462.904 238.718 462.708 238.718 462.452C238.718 462.212 238.638 462.016 238.478 461.864C238.326 461.712 238.074 461.588 237.722 461.492L236.858 461.264C235.826 460.992 235.31 460.404 235.31 459.5C235.31 459.012 235.502 458.62 235.886 458.324C236.278 458.028 236.778 457.88 237.386 457.88C238.002 457.88 238.506 458.044 238.898 458.372C239.298 458.692 239.522 459.1 239.57 459.596H238.538C238.458 459.332 238.314 459.124 238.106 458.972C237.906 458.82 237.666 458.744 237.386 458.744C237.09 458.744 236.842 458.812 236.642 458.948C236.45 459.084 236.354 459.264 236.354 459.488C236.354 459.704 236.426 459.88 236.57 460.016C236.714 460.152 236.946 460.264 237.266 460.352L238.226 460.604C239.25 460.86 239.762 461.452 239.762 462.38C239.762 462.956 239.558 463.392 239.15 463.688C238.742 463.976 238.21 464.12 237.554 464.12Z" fill="#C4C4C4"/>
</svg>
