<svg width="131" height="28" viewBox="0 0 131 28" fill="none" xmlns="http://www.w3.org/2000/svg">
<g clip-path="url(#clip0_281_246)">
<path d="M0 15.8128V3.27674C0 -0.0750971 3.64228 -0.942493 5.65966 1.07489C7.08438 2.49962 8.87805 6.25964 10.9111 6.25964C7.52397 9.30926 0 15.8128 0 15.8128Z" fill="#8CD1EA"/>
<path d="M1.86157e-05 17.5755C1.86157e-05 17.5755 15.4836 4.19566 16.665 3.01035C19.4438 0.231544 24.5972 1.78579 24.5972 6.46031V10.9661C24.5972 10.9661 21.1393 13.9136 20.3269 14.522C19.5145 15.1303 17.8856 14.6594 17.4146 13.7095C16.9437 12.7597 16.3981 11.2683 14.4318 11.2683C13.1444 11.2683 12.2849 12.7793 10.9072 15.9428C8.39923 21.7045 7.04515 26.6498 3.79144 26.6498C1.21673 26.6498 -0.00390625 24.3459 -0.00390625 22.9212V17.5677L1.86157e-05 17.5755Z" fill="#8CD1EA"/>
<path d="M13.8242 21.9672L24.598 12.8184V24.9501C24.598 26.4416 23.7188 27.9997 21.9565 27.9997C20.1943 27.9997 19.3387 28.0861 17.3841 24.9148C16.0771 22.7993 13.8281 21.9672 13.8281 21.9672H13.8242Z" fill="#8CD1EA"/>
<path d="M41.1303 8.93678C41.095 8.89754 41.0558 8.88184 41.0047 8.88184H38.3358C38.2809 8.88184 38.2416 8.89754 38.2063 8.93678C38.171 8.97211 38.1514 9.01136 38.1514 9.06631V15.5188C38.1514 15.8132 37.9826 15.9427 37.8217 15.9662C37.7275 15.9819 37.5312 15.978 37.3625 15.7464L32.6683 9.11733C32.6251 9.06238 32.5545 9.00351 32.4524 8.95641C32.3583 8.90539 32.268 8.88184 32.1856 8.88184H29.4813C29.4303 8.88184 29.3911 8.89754 29.3518 8.93678C29.3165 8.97211 29.3008 9.01136 29.3008 9.06631V21.4022C29.3008 21.4571 29.3165 21.4924 29.3518 21.5317C29.3911 21.567 29.4303 21.5827 29.4853 21.5827H32.1856C32.2405 21.5827 32.2798 21.567 32.3151 21.5317C32.3504 21.4924 32.37 21.4571 32.37 21.4022V14.9458C32.37 14.5964 32.6055 14.5101 32.6801 14.4944C32.7036 14.4905 32.735 14.4826 32.7704 14.4826C32.8803 14.4826 33.0255 14.5219 33.1628 14.7024L37.8609 21.3237C37.9119 21.3904 37.9865 21.4493 38.0846 21.5042C38.1749 21.5552 38.2652 21.5788 38.3397 21.5788H41.0047C41.0558 21.5788 41.095 21.5631 41.1303 21.5278C41.1696 21.4885 41.1853 21.4532 41.1853 21.3982V9.06631C41.1853 9.01136 41.1696 8.97211 41.1303 8.93678Z" fill="white"/>
<path d="M47.6405 11.8961C47.77 11.7666 47.9427 11.6999 48.1272 11.6999H53.7319C53.7868 11.6999 53.8261 11.6803 53.8614 11.6449C53.8967 11.6096 53.9164 11.5704 53.9164 11.5154V9.06631C53.9164 9.01136 53.8967 8.97211 53.8614 8.93678C53.8261 8.89754 53.7868 8.88184 53.7319 8.88184H44.5556C44.5006 8.88184 44.4614 8.89754 44.426 8.93678C44.3907 8.97211 44.3711 9.01136 44.3711 9.06631V21.4022C44.3711 21.4571 44.3907 21.4924 44.426 21.5317C44.4614 21.567 44.5006 21.5827 44.5556 21.5827H53.7319C53.7868 21.5827 53.8261 21.567 53.8614 21.5317C53.8967 21.4924 53.9164 21.4571 53.9164 21.4022V18.9138C53.9164 18.8588 53.8967 18.8235 53.8614 18.7843C53.8261 18.749 53.7868 18.7333 53.7319 18.7333H48.1272C47.9388 18.7333 47.77 18.6626 47.6405 18.5331C47.511 18.4036 47.4403 18.2387 47.4403 18.0464V17.3635C47.4403 17.1712 47.511 17.0063 47.6405 16.8768C47.77 16.7473 47.9427 16.6766 48.1272 16.6766H53.0137C53.0686 16.6766 53.1078 16.6609 53.1432 16.6256C53.1785 16.5864 53.1981 16.551 53.1981 16.4961V14.0077C53.1981 13.9528 53.1785 13.9174 53.1432 13.8782C53.1078 13.8429 53.0686 13.8272 53.0137 13.8272H48.1272C47.9388 13.8272 47.77 13.7565 47.6405 13.627C47.511 13.4975 47.4403 13.3248 47.4403 13.1403V12.3828C47.4403 12.1983 47.511 12.0335 47.6405 11.8961Z" fill="white"/>
<path d="M66.1621 8.93678C66.1268 8.89754 66.0876 8.88184 66.0326 8.88184H56.868C56.817 8.88184 56.7778 8.89754 56.7425 8.93678C56.7032 8.97211 56.6875 9.01136 56.6875 9.06631V21.4022C56.6875 21.4571 56.7032 21.4964 56.7425 21.5317C56.7778 21.567 56.817 21.5827 56.868 21.5827H59.5801C59.6351 21.5827 59.6704 21.567 59.7097 21.5317C59.745 21.4964 59.7607 21.4571 59.7607 21.4022V17.4145C59.7607 17.23 59.8313 17.0652 59.9608 16.9317C60.0904 16.8022 60.2552 16.7316 60.4436 16.7316H65.3144C65.3693 16.7316 65.4086 16.7159 65.4439 16.6766C65.4831 16.6413 65.4988 16.602 65.4988 16.551V14.0273C65.4988 13.9724 65.4831 13.9331 65.4439 13.8978C65.4086 13.8586 65.3693 13.8429 65.3144 13.8429H60.4436C60.2591 13.8429 60.0943 13.7761 59.9608 13.6466C59.8274 13.5171 59.7607 13.3523 59.7607 13.1639V12.4142C59.7607 12.2297 59.8313 12.0649 59.9608 11.9315C60.0904 11.8019 60.2552 11.7352 60.4436 11.7352H66.0365C66.0915 11.7352 66.1307 11.7195 66.1661 11.6803C66.2053 11.6449 66.221 11.6057 66.221 11.5507V9.06631C66.221 9.01136 66.2053 8.97211 66.1661 8.93678H66.1621Z" fill="white"/>
<path d="M71.7225 11.8961C71.8521 11.7666 72.0248 11.6999 72.2092 11.6999H77.8139C77.8689 11.6999 77.9081 11.6803 77.9435 11.6449C77.9788 11.6096 77.9984 11.5704 77.9984 11.5154V9.06631C77.9984 9.01136 77.9788 8.97211 77.9435 8.93678C77.9081 8.89754 77.8689 8.88184 77.8139 8.88184H68.6376C68.5826 8.88184 68.5434 8.89754 68.5081 8.93678C68.4727 8.97211 68.4531 9.01136 68.4531 9.06631V21.4022C68.4531 21.4571 68.4727 21.4924 68.5081 21.5317C68.5434 21.567 68.5826 21.5827 68.6376 21.5827H77.8139C77.8689 21.5827 77.9081 21.567 77.9435 21.5317C77.9788 21.4924 77.9984 21.4571 77.9984 21.4022V18.9138C77.9984 18.8588 77.9788 18.8235 77.9435 18.7843C77.9081 18.749 77.8689 18.7333 77.8139 18.7333H72.2092C72.0208 18.7333 71.8521 18.6626 71.7225 18.5331C71.593 18.4036 71.5224 18.2387 71.5224 18.0464V17.3635C71.5224 17.1712 71.593 17.0063 71.7225 16.8768C71.8521 16.7473 72.0248 16.6766 72.2092 16.6766H77.0957C77.1506 16.6766 77.1899 16.6609 77.2252 16.6256C77.2605 16.5864 77.2802 16.551 77.2802 16.4961V14.0077C77.2802 13.9528 77.2605 13.9174 77.2252 13.8782C77.1899 13.8429 77.1506 13.8272 77.0957 13.8272H72.2092C72.0208 13.8272 71.8521 13.7565 71.7225 13.627C71.593 13.4975 71.5224 13.3248 71.5224 13.1403V12.3828C71.5224 12.1983 71.593 12.0335 71.7225 11.8961Z" fill="white"/>
<path d="M92.6421 8.93678C92.6067 8.89754 92.5675 8.88184 92.5125 8.88184H89.8436C89.7926 8.88184 89.7534 8.89754 89.718 8.93678C89.6788 8.97211 89.6631 9.01136 89.6631 9.06631V15.5188C89.6631 15.8132 89.4943 15.9427 89.3334 15.9662C89.2314 15.9819 89.043 15.978 88.8742 15.7464L84.1801 9.11733C84.1369 9.06238 84.0584 9.00351 83.9642 8.95641C83.87 8.90539 83.7797 8.88184 83.6973 8.88184H80.9931C80.9381 8.88184 80.8989 8.89754 80.8635 8.93678C80.8282 8.97211 80.8086 9.01136 80.8086 9.06631V21.4022C80.8086 21.4571 80.8282 21.4924 80.8635 21.5317C80.9028 21.567 80.9381 21.5827 80.9931 21.5827H83.6934C83.7483 21.5827 83.7876 21.567 83.8268 21.5317C83.8621 21.4924 83.8778 21.4571 83.8778 21.4022V14.9458C83.8778 14.5964 84.1173 14.5101 84.1879 14.4944C84.2115 14.4905 84.2468 14.4826 84.2821 14.4826C84.392 14.4826 84.5372 14.5219 84.6746 14.7024L89.3727 21.3237C89.4158 21.3904 89.4943 21.4493 89.5924 21.5042C89.6866 21.5552 89.773 21.5788 89.8515 21.5788H92.5125C92.5675 21.5788 92.6067 21.5631 92.6421 21.5278C92.6813 21.4885 92.697 21.4532 92.697 21.3982V9.06631C92.697 9.01136 92.6774 8.97211 92.6421 8.93678Z" fill="white"/>
<path d="M104.621 8.92501C104.601 8.90539 104.566 8.88184 104.491 8.88184H94.9657C94.9108 8.88184 94.8715 8.89754 94.8362 8.93678C94.8009 8.97211 94.7812 9.01136 94.7812 9.06631V11.5154C94.7812 11.5704 94.8009 11.6096 94.8362 11.6449C94.8715 11.6803 94.9108 11.6999 94.9657 11.6999H97.5247C97.7249 11.6999 97.9015 11.7705 98.0271 11.904C98.1488 12.0335 98.2077 12.1983 98.2077 12.3789V21.3982C98.2077 21.4532 98.2273 21.4885 98.2626 21.5278C98.2979 21.5631 98.3372 21.5788 98.3921 21.5788H101.096C101.175 21.5788 101.206 21.5552 101.226 21.5356C101.261 21.5003 101.277 21.4571 101.277 21.4022V12.3828C101.277 12.1983 101.348 12.0335 101.477 11.8961C101.607 11.7666 101.779 11.6999 101.964 11.6999H104.487C104.562 11.6999 104.597 11.6763 104.617 11.6489C104.652 11.6135 104.668 11.5743 104.668 11.5154V9.06631C104.668 9.00743 104.652 8.96426 104.617 8.92501H104.621Z" fill="white"/>
<path d="M117.513 8.95239C117.478 8.91707 117.442 8.90137 117.387 8.90137H114.675C114.624 8.90137 114.585 8.91707 114.55 8.95239C114.51 8.99164 114.495 9.02696 114.495 9.08191V16.3861C114.495 16.8924 114.408 17.3241 114.243 17.6617C114.079 17.9992 113.867 18.2661 113.623 18.4623C113.384 18.6586 113.113 18.7999 112.827 18.8784C112.281 19.0393 111.865 19.0393 111.316 18.8784C111.037 18.7999 110.766 18.6586 110.515 18.4663C110.264 18.27 110.056 17.9953 109.883 17.6538C109.718 17.3163 109.632 16.8885 109.632 16.3822V9.08191C109.632 9.02696 109.616 8.99164 109.581 8.95239C109.541 8.91707 109.506 8.90137 109.451 8.90137H106.739C106.688 8.90137 106.649 8.91707 106.614 8.95239C106.574 8.99164 106.559 9.02696 106.559 9.08191V16.3861C106.559 17.2064 106.692 17.96 106.955 18.6193C107.222 19.2787 107.591 19.8517 108.066 20.3188C108.548 20.7859 109.129 21.1548 109.801 21.4099C110.476 21.665 111.245 21.8024 112.069 21.8024C112.893 21.8024 113.663 21.669 114.338 21.4099C115.013 21.1548 115.594 20.7819 116.072 20.3188C116.547 19.8517 116.924 19.2826 117.175 18.6272C117.434 17.96 117.568 17.2103 117.568 16.3861V9.08191C117.568 9.02696 117.552 8.99164 117.513 8.95239Z" fill="white"/>
<path d="M129.675 16.1312C129.389 15.6484 129.035 15.2598 128.611 14.9576C128.18 14.6554 127.717 14.4278 127.23 14.2708C126.724 14.1138 126.253 13.9921 125.833 13.9097C125.758 13.8979 125.562 13.8665 125.256 13.8076C124.95 13.7488 124.624 13.6742 124.294 13.5761C123.953 13.474 123.647 13.3523 123.384 13.215C123.042 13.0344 122.869 12.8107 122.869 12.5399C122.869 12.3044 122.948 12.1082 123.105 11.9629C123.234 11.8373 123.399 11.7471 123.595 11.6961C123.772 11.645 123.957 11.6215 124.153 11.6097C124.329 11.6058 124.483 11.6058 124.62 11.6058C125.091 11.6058 125.605 11.6921 126.158 11.857C126.704 12.0257 127.301 12.3123 127.929 12.7087C127.987 12.7479 128.023 12.7518 128.074 12.744C128.133 12.7322 128.176 12.7087 128.207 12.6576L129.608 10.6638C129.648 10.6128 129.659 10.5618 129.652 10.5068C129.648 10.4519 129.62 10.4048 129.577 10.3616C128.874 9.82389 128.125 9.40393 127.352 9.11741C126.143 8.67783 124.62 8.54046 122.991 8.878C122.41 8.99967 121.872 9.20769 121.401 9.5099C120.942 9.80427 120.55 10.2164 120.248 10.7188C119.945 11.2211 119.796 11.8648 119.796 12.6459C119.796 13.1757 119.875 13.6389 120.036 14.0196C120.197 14.4042 120.412 14.7417 120.675 15.0165C120.946 15.2952 121.256 15.5267 121.598 15.7073C121.947 15.8917 122.308 16.0487 122.669 16.1665C123.03 16.2921 123.387 16.3823 123.725 16.4451C124.082 16.5119 124.384 16.5707 124.651 16.6139C124.93 16.6728 125.197 16.7238 125.452 16.7591C125.727 16.7945 125.974 16.8455 126.182 16.9083C126.414 16.9789 126.594 17.0653 126.739 17.1752C126.924 17.3165 127.018 17.5127 127.018 17.7482C127.018 18.1407 126.834 18.4507 126.472 18.6431C126.158 18.8118 125.723 18.8982 125.146 18.8982C124.569 18.8982 123.933 18.7726 123.274 18.5214C122.626 18.2741 121.963 17.9366 121.299 17.5049C121.28 17.4892 121.248 17.4813 121.209 17.4813C121.193 17.4813 121.174 17.4813 121.158 17.4852C121.099 17.497 121.052 17.5245 121.017 17.5716L119.635 19.5654C119.596 19.6204 119.584 19.6714 119.592 19.7303C119.6 19.7891 119.616 19.8245 119.651 19.8558C119.989 20.1267 120.354 20.3857 120.742 20.629C121.127 20.8645 121.555 21.0765 122.01 21.2453C122.461 21.4219 122.956 21.5592 123.482 21.6574C124.004 21.7594 124.573 21.8065 125.181 21.8065C125.927 21.8065 126.614 21.728 127.222 21.571C127.819 21.4219 128.341 21.1785 128.761 20.8645C129.177 20.5545 129.506 20.1541 129.738 19.6675C129.973 19.1808 130.095 18.592 130.095 17.9091C130.095 17.1869 129.954 16.5864 129.667 16.1194L129.675 16.1312Z" fill="white"/>
</g>
<defs>
<clipPath id="clip0_281_246">
<rect width="130.098" height="28" fill="white"/>
</clipPath>
</defs>
</svg>
