<svg width="25" height="28" viewBox="0 0 25 28" fill="none" xmlns="http://www.w3.org/2000/svg">
<path d="M0.00390625 15.8137V3.27772C0.00390625 -0.0741205 3.64618 -0.941516 5.66356 1.07587C7.08829 2.50059 8.88195 6.26061 10.915 6.26061C7.52788 9.31024 0.00390625 15.8137 0.00390625 15.8137Z" fill="#8CD1EA"/>
<path d="M0.00392487 17.5765C0.00392487 17.5765 15.4875 4.19664 16.6689 3.01133C19.4477 0.232521 24.6011 1.78677 24.6011 6.46128V10.967C24.6011 10.967 21.1433 13.9146 20.3308 14.523C19.5184 15.1313 17.8895 14.6603 17.4186 13.7105C16.9476 12.7607 16.402 11.2692 14.4357 11.2692C13.1483 11.2692 12.2888 12.7803 10.9111 15.9438C8.40314 21.7055 7.04906 26.6508 3.79535 26.6508C1.22063 26.6508 0 24.3469 0 22.9222V17.5687L0.00392487 17.5765Z" fill="#8CD1EA"/>
<path d="M13.8281 21.9682L24.6019 12.8193V24.9511C24.6019 26.4425 23.7227 28.0007 21.9604 28.0007C20.1982 28.0007 19.3426 28.0871 17.388 24.9158C16.081 22.8003 13.832 21.9682 13.832 21.9682H13.8281Z" fill="#8CD1EA"/>
</svg>
