<?xml version="1.0" encoding="UTF-8"?>
<svg id="Ebene_2" data-name="Ebene 2" xmlns="http://www.w3.org/2000/svg" viewBox="0 0 688.71 119.47">
  <defs>
    <style>
      .cls-1 {
        fill: #fff;
      }

      .cls-2 {
        fill: #8cd1ea;
      }
    </style>
  </defs>
  <g id="Ebene_1-2" data-name="Ebene 1">
    <g>
      <path class="cls-1" d="m182.61,67.87c0-.43,0-.85,0-1.28,0-12.42.01-24.84-.02-37.25,0-1.1.31-1.46,1.42-1.45,3.64.06,7.28.05,10.91,0,1.09-.01,1.48.36,1.48,1.45-.02,20.24-.02,40.49,0,60.73,0,.99-.37,1.34-1.34,1.33-4-.03-8-.09-11.99.02-1.81.05-2.49-1.24-3.38-2.3-1.48-1.77-2.83-3.64-4.29-5.43-1.61-1.98-3.28-3.91-4.9-5.88-3.88-4.71-7.75-9.42-11.61-14.13-2.3-2.8-4.59-5.61-6.88-8.42-.83-1.02-1.6-2.08-2.46-3.08-.25-.3-.69-.43-1.04-.64-.09.36-.27.72-.27,1.08-.01,12.38-.01,24.76-.01,37.13q0,1.64-1.66,1.64c-3.52,0-7.04-.03-10.55.02-1.09.02-1.45-.31-1.45-1.44.03-20.2.03-40.41,0-60.61,0-1.17.35-1.5,1.5-1.48,3.68.07,7.36.17,11.03-.03,2.03-.11,3.09.85,4.07,2.29.33.49.69.97,1.07,1.43,4.27,5.16,8.54,10.31,12.81,15.48,2.31,2.8,4.59,5.61,6.87,8.43,3.08,3.81,6.16,7.62,9.23,11.44.34.42.57.93.85,1.41.21-.15.42-.31.63-.46Z"/>
      <path class="cls-1" d="m423.59,51.34c-.02.27-.06.53-.06.8,0,12.58,0,25.16,0,37.74,0,1.46-.05,1.53-1.57,1.53-3.6,0-7.2-.03-10.79.02-1.06.01-1.35-.34-1.35-1.39.03-20.21.03-40.41,0-60.62,0-1.24.36-1.55,1.56-1.53,3.96.07,7.92.04,11.87.01.75,0,1.23.22,1.72.82,3.11,3.79,6.28,7.53,9.4,11.31,3.63,4.39,7.23,8.81,10.83,13.22,2.27,2.78,4.54,5.55,6.79,8.34,1.5,1.86,2.94,3.76,4.42,5.64.26.33.57.63,1,1.12.1-.48.2-.72.2-.97-.02-12.62-.04-25.24-.06-37.85,0-1.58.02-1.6,1.61-1.6,3.6,0,7.2.03,10.79-.02.99-.01,1.3.3,1.3,1.31-.03,20.29-.03,40.57,0,60.86,0,.98-.29,1.36-1.29,1.35-4.08-.03-8.16-.02-12.23,0-.79,0-1.29-.27-1.78-.94-1.19-1.64-2.5-3.2-3.79-4.77-3.68-4.5-7.36-9.01-11.06-13.5-3.02-3.66-6.08-7.28-9.11-10.93-2.33-2.82-4.64-5.67-6.95-8.52-.41-.5-.76-1.05-1.13-1.58-.11.06-.22.11-.33.17Z"/>
      <path class="cls-1" d="m635.78,69.95c1.99,1.67,3.72,3.13,5.46,4.58,2.5,2.07,5.4,3.43,8.46,4.36,5.2,1.58,10.52,1.91,15.89.99,1.94-.33,3.78-.95,5.42-2.12,1.67-1.18,2.52-2.74,2.07-4.72-.18-.81-.78-1.81-1.48-2.15-2.46-1.21-4.98-2.37-7.58-3.18-5.91-1.84-11.91-3.37-17.82-5.21-3.87-1.21-7.55-2.97-10.55-5.74-2.86-2.65-4.79-5.75-4.87-9.99-.11-5.83,2.45-10.07,6.74-13.57,5.17-4.22,11.32-5.68,17.76-6.42,8.02-.92,15.79.19,23.3,3.03,3.26,1.23,6.29,2.93,8.93,5.25.43.38.61.64.2,1.18-2.08,2.67-4.14,5.36-6.16,8.07-.54.72-.88.67-1.61.14-2.72-1.98-5.68-3.55-8.9-4.59-5.79-1.85-11.68-2.17-17.65-1.26-1.97.3-3.9.8-5.48,2.2-2.1,1.86-2.14,4.27-.12,6.24,1.9,1.85,4.29,2.77,6.72,3.53,5.56,1.74,11.17,3.34,16.75,5.01,3.79,1.14,7.5,2.51,10.9,4.57,5.65,3.42,7.57,9.7,6.02,15.63-1.95,7.48-7.17,11.66-13.98,14.21-9.18,3.45-18.6,3.52-28.08,1.4-5.43-1.22-10.23-3.79-14.59-7.2-1.16-.91-2.23-1.94-3.28-2.98-.2-.2-.29-.83-.14-1.04,2.35-3.17,4.74-6.3,7.12-9.45.19-.25.36-.52.53-.77Z"/>
      <path class="cls-1" d="m214.47,59.57c0-10.1.01-20.21-.02-30.31,0-1.05.3-1.36,1.36-1.36,15.91.03,31.82.03,47.73,0,1.06,0,1.37.33,1.35,1.38-.06,3.11-.07,6.23,0,9.34.03,1.14-.37,1.41-1.45,1.4-10.91-.03-21.83-.02-32.74-.02q-1.58,0-1.57,1.6c0,3.07.06,6.15-.03,9.22-.04,1.26.38,1.52,1.57,1.51,7.92-.05,15.83,0,23.75-.06,1.25,0,1.54.37,1.51,1.57-.08,3.11-.06,6.23,0,9.34.02.95-.28,1.24-1.23,1.23-8.04-.03-16.07,0-24.11-.04-1.18,0-1.49.37-1.47,1.5.06,3.95.07,7.91,0,11.86-.03,1.25.39,1.52,1.57,1.52,11.51-.04,23.03-.03,34.54-.03q1.57,0,1.56,1.6c0,3.07-.03,6.15.02,9.22.01.96-.24,1.37-1.27,1.37-16.63-.02-33.26-.02-49.89,0-.97,0-1.2-.4-1.19-1.3.03-10.18.02-20.37.02-30.55Z"/>
      <path class="cls-1" d="m343.83,59.65c0-10.1.02-20.21-.02-30.31,0-1.09.27-1.45,1.4-1.45,15.79.03,31.58.03,47.38,0,1.19,0,1.51.4,1.49,1.52-.06,3.03-.06,6.07,0,9.1.02,1.13-.32,1.51-1.49,1.51-10.91-.04-21.83-.02-32.74-.02-1.58,0-1.57,0-1.57,1.6,0,3.12.04,6.23-.02,9.34-.02,1.05.3,1.38,1.36,1.38,8-.04,15.99,0,23.99-.04,1.12,0,1.54.27,1.51,1.46-.08,3.07-.08,6.15,0,9.22.03,1.19-.4,1.46-1.52,1.46-7.92-.04-15.83-.02-23.75-.02-1.57,0-1.57,0-1.57,1.6,0,3.87,0,7.75,0,11.62q0,1.6,1.56,1.6c11.51,0,23.03,0,34.54,0q1.62,0,1.62,1.67c0,2.96,0,5.91,0,8.87,0,1.64,0,1.64-1.69,1.64-8.8,0-17.59,0-26.39,0-7.48,0-14.95,0-22.43,0-1.64,0-1.65-.02-1.65-1.68,0-10.02,0-20.05,0-30.07Z"/>
      <path class="cls-1" d="m614.78,48.27c0,5.31-.02,10.62,0,15.94.02,3.83-.53,7.6-1.88,11.15-1.16,3.04-2.79,5.87-5.04,8.34-5.17,5.68-11.75,8.16-19.19,8.87-5.56.53-11.03.02-16.36-1.61-4.15-1.27-7.84-3.45-10.84-6.59-3.33-3.49-5.14-7.82-6.24-12.46-.78-3.28-.94-6.62-.93-9.98.04-10.82.03-21.65-.01-32.47,0-1.23.36-1.57,1.56-1.55,3.88.07,7.76.02,11.63.03q1.56,0,1.55,1.62c0,10.94,0,21.89,0,32.83,0,3.31.49,6.46,2,9.49,1.89,3.81,4.99,5.94,8.93,6.98,3.84,1.01,7.75.93,11.44-.56,4.83-1.94,7.87-5.48,8.43-10.82.19-1.82.35-3.66.36-5.49.03-10.9.03-21.81,0-32.71,0-1.02.22-1.39,1.32-1.37,4,.07,8,.06,11.99,0,1.02-.01,1.3.34,1.29,1.32-.03,6.35-.02,12.7-.02,19.05Z"/>
      <path class="cls-1" d="m280.67,59.62c0-10.1.02-20.2-.03-30.3,0-1.13.34-1.42,1.43-1.42,15.75.03,31.5.03,47.25,0,1.12,0,1.55.27,1.52,1.47-.08,3.07-.08,6.15,0,9.22.03,1.12-.33,1.44-1.42,1.43-10.87-.03-21.74-.02-32.62-.02-1.72,0-1.71,0-1.71,1.7,0,4.11.04,8.23-.03,12.34-.02,1.12.31,1.44,1.41,1.44,7.95-.04,15.91,0,23.86-.05,1.16,0,1.6.22,1.56,1.5-.1,3.11-.07,6.23,0,9.34.02,1-.3,1.36-1.28,1.36-8.03-.02-16.07,0-24.1-.06-1.1,0-1.46.21-1.45,1.36.05,6.99,0,13.97.05,20.96,0,1.12-.27,1.56-1.46,1.54-3.88-.06-7.75-.05-11.63,0-1.03.01-1.37-.31-1.37-1.38.04-10.14.02-20.28.02-30.42Z"/>
      <path class="cls-1" d="m513.92,27.92c9.39,0,18.79.02,28.18-.02,1.08,0,1.47.25,1.44,1.4-.08,3.15-.06,6.31,0,9.46.02,1.03-.35,1.28-1.32,1.27-6.52-.03-13.03-.02-19.55-.02-1.53,0-1.53,0-1.53,1.52,0,16.17,0,32.34.02,48.51,0,1.05-.33,1.4-1.37,1.38-3.92-.04-7.83-.05-11.75,0-1.13.02-1.51-.29-1.51-1.48.04-16.17.01-32.34.05-48.51,0-1.21-.4-1.46-1.51-1.46-6.47.04-12.95,0-19.43.05-1.21.01-1.6-.34-1.57-1.55.08-3.03.07-6.07,0-9.1-.03-1.17.39-1.48,1.52-1.48,9.43.04,18.87.02,28.3.02Z"/>
    </g>
    <path class="cls-2" d="m0,67.48V13.99C0-.33,15.54-4.01,24.15,4.59c6.07,6.07,13.74,22.12,22.41,22.12C32.1,39.72,0,67.48,0,67.48Z"/>
    <path class="cls-2" d="m0,75S66.07,17.9,71.12,12.85c11.86-11.86,33.85-5.23,33.85,14.73v19.23s-14.75,12.58-18.22,15.18c-3.47,2.6-10.41.58-12.43-3.47-2.02-4.05-4.34-10.41-12.72-10.41-5.49,0-9.16,6.45-15.04,19.95-10.7,24.58-16.48,45.69-30.36,45.69C5.21,113.75,0,103.91,0,97.84v-22.84h0Z"/>
    <path class="cls-2" d="m58.99,93.74l45.98-39.04v51.76c0,6.36-3.76,13.01-11.28,13.01s-11.17.36-19.52-13.16c-5.58-9.03-15.18-12.58-15.18-12.58h0Z"/>
  </g>
</svg>