<svg width="332" height="72" viewBox="0 0 332 72" fill="none" xmlns="http://www.w3.org/2000/svg">
<g clip-path="url(#clip0_248_422)">
<path d="M0 40.2902V8.35017C0 -0.189825 9.28 -2.39983 14.42 2.74017C18.05 6.37017 22.62 15.9502 27.8 15.9502C19.17 23.7202 0 40.2902 0 40.2902Z" fill="#8CD1EA"/>
<path d="M0.000234375 44.78C0.000234375 44.78 39.4502 10.69 42.4602 7.67002C49.5402 0.590019 62.6702 4.55002 62.6702 16.46V27.94C62.6702 27.94 53.8602 35.45 51.7902 37C49.7202 38.55 45.5702 37.35 44.3702 34.93C43.1702 32.51 41.7802 28.71 36.7702 28.71C33.4902 28.71 31.3002 32.56 27.7902 40.62C21.4002 55.3 17.9502 67.9 9.66023 67.9C3.10023 67.9 -0.00976562 62.03 -0.00976562 58.4V44.76L0.000234375 44.78Z" fill="#8CD1EA"/>
<path d="M35.2197 55.9702L62.6697 32.6602V63.5702C62.6697 67.3702 60.4297 71.3402 55.9397 71.3402C51.4497 71.3402 49.2697 71.5602 44.2897 63.4802C40.9597 58.0902 35.2297 55.9702 35.2297 55.9702H35.2197Z" fill="#8CD1EA"/>
<path d="M104.79 22.7699C104.7 22.6699 104.6 22.6299 104.47 22.6299H97.6704C97.5304 22.6299 97.4304 22.6699 97.3404 22.7699C97.2504 22.8599 97.2004 22.9599 97.2004 23.0999V39.5399C97.2004 40.2899 96.7704 40.6199 96.3604 40.6799C96.1204 40.7199 95.6204 40.7099 95.1904 40.1199L83.2304 23.2299C83.1204 23.0899 82.9404 22.9399 82.6804 22.8199C82.4404 22.6899 82.2104 22.6299 82.0004 22.6299H75.1104C74.9804 22.6299 74.8804 22.6699 74.7804 22.7699C74.6904 22.8599 74.6504 22.9599 74.6504 23.0999V54.5299C74.6504 54.6699 74.6904 54.7599 74.7804 54.8599C74.8804 54.9499 74.9804 54.9899 75.1204 54.9899H82.0004C82.1404 54.9899 82.2404 54.9499 82.3304 54.8599C82.4204 54.7599 82.4704 54.6699 82.4704 54.5299V38.0799C82.4704 37.1899 83.0704 36.9699 83.2604 36.9299C83.3204 36.9199 83.4004 36.8999 83.4904 36.8999C83.7704 36.8999 84.1404 36.9999 84.4904 37.4599L96.4604 54.3299C96.5904 54.4999 96.7804 54.6499 97.0304 54.7899C97.2604 54.9199 97.4904 54.9799 97.6804 54.9799H104.47C104.6 54.9799 104.7 54.9399 104.79 54.8499C104.89 54.7499 104.93 54.6599 104.93 54.5199V23.0999C104.93 22.9599 104.89 22.8599 104.79 22.7699Z" fill="white"/>
<path d="M121.381 30.3099C121.711 29.9799 122.151 29.8099 122.621 29.8099H136.901C137.041 29.8099 137.141 29.7599 137.231 29.6699C137.321 29.5799 137.371 29.4799 137.371 29.3399V23.0999C137.371 22.9599 137.321 22.8599 137.231 22.7699C137.141 22.6699 137.041 22.6299 136.901 22.6299H113.521C113.381 22.6299 113.281 22.6699 113.191 22.7699C113.101 22.8599 113.051 22.9599 113.051 23.0999V54.5299C113.051 54.6699 113.101 54.7599 113.191 54.8599C113.281 54.9499 113.381 54.9899 113.521 54.9899H136.901C137.041 54.9899 137.141 54.9499 137.231 54.8599C137.321 54.7599 137.371 54.6699 137.371 54.5299V48.1899C137.371 48.0499 137.321 47.9599 137.231 47.8599C137.141 47.7699 137.041 47.7299 136.901 47.7299H122.621C122.141 47.7299 121.711 47.5499 121.381 47.2199C121.051 46.8899 120.871 46.4699 120.871 45.9799V44.2399C120.871 43.7499 121.051 43.3299 121.381 42.9999C121.711 42.6699 122.151 42.4899 122.621 42.4899H135.071C135.211 42.4899 135.311 42.4499 135.401 42.3599C135.491 42.2599 135.541 42.1699 135.541 42.0299V35.6899C135.541 35.5499 135.491 35.4599 135.401 35.3599C135.311 35.2699 135.211 35.2299 135.071 35.2299H122.621C122.141 35.2299 121.711 35.0499 121.381 34.7199C121.051 34.3899 120.871 33.9499 120.871 33.4799V31.5499C120.871 31.0799 121.051 30.6599 121.381 30.3099Z" fill="white"/>
<path d="M168.571 22.7699C168.481 22.6699 168.381 22.6299 168.241 22.6299H144.891C144.761 22.6299 144.661 22.6699 144.571 22.7699C144.471 22.8599 144.431 22.9599 144.431 23.0999V54.5299C144.431 54.6699 144.471 54.7699 144.571 54.8599C144.661 54.9499 144.761 54.9899 144.891 54.9899H151.801C151.941 54.9899 152.031 54.9499 152.131 54.8599C152.221 54.7699 152.261 54.6699 152.261 54.5299V44.3699C152.261 43.8999 152.441 43.4799 152.771 43.1399C153.101 42.8099 153.521 42.6299 154.001 42.6299H166.411C166.551 42.6299 166.651 42.5899 166.741 42.4899C166.841 42.3999 166.881 42.2999 166.881 42.1699V35.7399C166.881 35.5999 166.841 35.4999 166.741 35.4099C166.651 35.3099 166.551 35.2699 166.411 35.2699H154.001C153.531 35.2699 153.111 35.0999 152.771 34.7699C152.431 34.4399 152.261 34.0199 152.261 33.5399V31.6299C152.261 31.1599 152.441 30.7399 152.771 30.3999C153.101 30.0699 153.521 29.8999 154.001 29.8999H168.251C168.391 29.8999 168.491 29.8599 168.581 29.7599C168.681 29.6699 168.721 29.5699 168.721 29.4299V23.0999C168.721 22.9599 168.681 22.8599 168.581 22.7699H168.571Z" fill="white"/>
<path d="M182.73 30.3099C183.06 29.9799 183.5 29.8099 183.97 29.8099H198.25C198.39 29.8099 198.49 29.7599 198.58 29.6699C198.67 29.5799 198.72 29.4799 198.72 29.3399V23.0999C198.72 22.9599 198.67 22.8599 198.58 22.7699C198.49 22.6699 198.39 22.6299 198.25 22.6299H174.87C174.73 22.6299 174.63 22.6699 174.54 22.7699C174.45 22.8599 174.4 22.9599 174.4 23.0999V54.5299C174.4 54.6699 174.45 54.7599 174.54 54.8599C174.63 54.9499 174.73 54.9899 174.87 54.9899H198.25C198.39 54.9899 198.49 54.9499 198.58 54.8599C198.67 54.7599 198.72 54.6699 198.72 54.5299V48.1899C198.72 48.0499 198.67 47.9599 198.58 47.8599C198.49 47.7699 198.39 47.7299 198.25 47.7299H183.97C183.49 47.7299 183.06 47.5499 182.73 47.2199C182.4 46.8899 182.22 46.4699 182.22 45.9799V44.2399C182.22 43.7499 182.4 43.3299 182.73 42.9999C183.06 42.6699 183.5 42.4899 183.97 42.4899H196.42C196.56 42.4899 196.66 42.4499 196.75 42.3599C196.84 42.2599 196.89 42.1699 196.89 42.0299V35.6899C196.89 35.5499 196.84 35.4599 196.75 35.3599C196.66 35.2699 196.56 35.2299 196.42 35.2299H183.97C183.49 35.2299 183.06 35.0499 182.73 34.7199C182.4 34.3899 182.22 33.9499 182.22 33.4799V31.5499C182.22 31.0799 182.4 30.6599 182.73 30.3099Z" fill="white"/>
<path d="M236.031 22.7699C235.941 22.6699 235.841 22.6299 235.701 22.6299H228.901C228.771 22.6299 228.671 22.6699 228.581 22.7699C228.481 22.8599 228.441 22.9599 228.441 23.0999V39.5399C228.441 40.2899 228.011 40.6199 227.601 40.6799C227.341 40.7199 226.861 40.7099 226.431 40.1199L214.471 23.2299C214.361 23.0899 214.161 22.9399 213.921 22.8199C213.681 22.6899 213.451 22.6299 213.241 22.6299H206.351C206.211 22.6299 206.111 22.6699 206.021 22.7699C205.931 22.8599 205.881 22.9599 205.881 23.0999V54.5299C205.881 54.6699 205.931 54.7599 206.021 54.8599C206.121 54.9499 206.211 54.9899 206.351 54.9899H213.231C213.371 54.9899 213.471 54.9499 213.571 54.8599C213.661 54.7599 213.701 54.6699 213.701 54.5299V38.0799C213.701 37.1899 214.311 36.9699 214.491 36.9299C214.551 36.9199 214.641 36.8999 214.731 36.8999C215.011 36.8999 215.381 36.9999 215.731 37.4599L227.701 54.3299C227.811 54.4999 228.011 54.6499 228.261 54.7899C228.501 54.9199 228.721 54.9799 228.921 54.9799H235.701C235.841 54.9799 235.941 54.9399 236.031 54.8499C236.131 54.7499 236.171 54.6599 236.171 54.5199V23.0999C236.171 22.9599 236.121 22.8599 236.031 22.7699Z" fill="white"/>
<path d="M266.55 22.7399C266.5 22.6899 266.41 22.6299 266.22 22.6299H241.95C241.81 22.6299 241.71 22.6699 241.62 22.7699C241.53 22.8599 241.48 22.9599 241.48 23.0999V29.3399C241.48 29.4799 241.53 29.5799 241.62 29.6699C241.71 29.7599 241.81 29.8099 241.95 29.8099H248.47C248.98 29.8099 249.43 29.9899 249.75 30.3299C250.06 30.6599 250.21 31.0799 250.21 31.5399V54.5199C250.21 54.6599 250.26 54.7499 250.35 54.8499C250.44 54.9399 250.54 54.9799 250.68 54.9799H257.57C257.77 54.9799 257.85 54.9199 257.9 54.8699C257.99 54.7799 258.03 54.6699 258.03 54.5299V31.5499C258.03 31.0799 258.21 30.6599 258.54 30.3099C258.87 29.9799 259.31 29.8099 259.78 29.8099H266.21C266.4 29.8099 266.49 29.7499 266.54 29.6799C266.63 29.5899 266.67 29.4899 266.67 29.3399V23.0999C266.67 22.9499 266.63 22.8399 266.54 22.7399H266.55Z" fill="white"/>
<path d="M299.4 22.8102C299.31 22.7202 299.22 22.6802 299.08 22.6802H292.17C292.04 22.6802 291.94 22.7202 291.85 22.8102C291.75 22.9102 291.71 23.0002 291.71 23.1402V41.7502C291.71 43.0402 291.49 44.1402 291.07 45.0002C290.65 45.8602 290.11 46.5402 289.49 47.0402C288.88 47.5402 288.19 47.9002 287.46 48.1002C286.07 48.5102 285.01 48.5102 283.61 48.1002C282.9 47.9002 282.21 47.5402 281.57 47.0502C280.93 46.5502 280.4 45.8502 279.96 44.9802C279.54 44.1202 279.32 43.0302 279.32 41.7402V23.1402C279.32 23.0002 279.28 22.9102 279.19 22.8102C279.09 22.7202 279 22.6802 278.86 22.6802H271.95C271.82 22.6802 271.72 22.7202 271.63 22.8102C271.53 22.9102 271.49 23.0002 271.49 23.1402V41.7502C271.49 43.8402 271.83 45.7602 272.5 47.4402C273.18 49.1202 274.12 50.5802 275.33 51.7702C276.56 52.9602 278.04 53.9002 279.75 54.5502C281.47 55.2002 283.43 55.5502 285.53 55.5502C287.63 55.5502 289.59 55.2102 291.31 54.5502C293.03 53.9002 294.51 52.9502 295.73 51.7702C296.94 50.5802 297.9 49.1302 298.54 47.4602C299.2 45.7602 299.54 43.8502 299.54 41.7502V23.1402C299.54 23.0002 299.5 22.9102 299.4 22.8102Z" fill="white"/>
<path d="M330.39 41.1C329.66 39.87 328.76 38.88 327.68 38.11C326.58 37.34 325.4 36.76 324.16 36.36C322.87 35.96 321.67 35.65 320.6 35.44C320.41 35.41 319.91 35.33 319.13 35.18C318.35 35.03 317.52 34.84 316.68 34.59C315.81 34.33 315.03 34.02 314.36 33.67C313.49 33.21 313.05 32.64 313.05 31.95C313.05 31.35 313.25 30.85 313.65 30.48C313.98 30.16 314.4 29.93 314.9 29.8C315.35 29.67 315.82 29.61 316.32 29.58C316.77 29.57 317.16 29.57 317.51 29.57C318.71 29.57 320.02 29.79 321.43 30.21C322.82 30.64 324.34 31.37 325.94 32.38C326.09 32.48 326.18 32.49 326.31 32.47C326.46 32.44 326.57 32.38 326.65 32.25L330.22 27.17C330.32 27.04 330.35 26.91 330.33 26.77C330.32 26.63 330.25 26.51 330.14 26.4C328.35 25.03 326.44 23.96 324.47 23.23C321.39 22.11 317.51 21.76 313.36 22.62C311.88 22.93 310.51 23.46 309.31 24.23C308.14 24.98 307.14 26.03 306.37 27.31C305.6 28.59 305.22 30.23 305.22 32.22C305.22 33.57 305.42 34.75 305.83 35.72C306.24 36.7 306.79 37.56 307.46 38.26C308.15 38.97 308.94 39.56 309.81 40.02C310.7 40.49 311.62 40.89 312.54 41.19C313.46 41.51 314.37 41.74 315.23 41.9C316.14 42.07 316.91 42.22 317.59 42.33C318.3 42.48 318.98 42.61 319.63 42.7C320.33 42.79 320.96 42.92 321.49 43.08C322.08 43.26 322.54 43.48 322.91 43.76C323.38 44.12 323.62 44.62 323.62 45.22C323.62 46.22 323.15 47.01 322.23 47.5C321.43 47.93 320.32 48.15 318.85 48.15C317.38 48.15 315.76 47.83 314.08 47.19C312.43 46.56 310.74 45.7 309.05 44.6C309 44.56 308.92 44.54 308.82 44.54C308.78 44.54 308.73 44.54 308.69 44.55C308.54 44.58 308.42 44.65 308.33 44.77L304.81 49.85C304.71 49.99 304.68 50.12 304.7 50.27C304.72 50.42 304.76 50.51 304.85 50.59C305.71 51.28 306.64 51.94 307.63 52.56C308.61 53.16 309.7 53.7 310.86 54.13C312.01 54.58 313.27 54.93 314.61 55.18C315.94 55.44 317.39 55.56 318.94 55.56C320.84 55.56 322.59 55.36 324.14 54.96C325.66 54.58 326.99 53.96 328.06 53.16C329.12 52.37 329.96 51.35 330.55 50.11C331.15 48.87 331.46 47.37 331.46 45.63C331.46 43.79 331.1 42.26 330.37 41.07L330.39 41.1Z" fill="white"/>
</g>
<defs>
<clipPath id="clip0_248_422">
<rect width="331.47" height="71.34" fill="white"/>
</clipPath>
</defs>
</svg>
